<svg id="Layer_1" data-name="Layer 1" xmlns="http://www.w3.org/2000/svg" xmlns:xlink="http://www.w3.org/1999/xlink" viewBox="0 0 566.93 566.93"><defs><style>.cls-1{fill:#f5eb28;}.cls-2{fill:#5f5da9;}.cls-3{fill:#0474bb;}.cls-4{fill:#6ecff6;}.cls-5{fill:#d6d7d8;}.cls-6{fill:#00c0f3;}.cls-7{fill:#224195;}.cls-8{fill:#104e9c;}.cls-9{fill:#0061af;}.cls-10{fill:#fff;}.cls-11{fill:#e4e76f;}.cls-12{fill:#735fa9;}.cls-13{fill:#fbd20b;}.cls-14{fill:#cabfc7;}.cls-15{fill:url(#radial-gradient);}.cls-16{fill:url(#radial-gradient-2);}.cls-17{fill:#231f20;}</style><radialGradient id="radial-gradient" cx="181.58" cy="184.81" r="14.86" gradientUnits="userSpaceOnUse"><stop offset="0" stop-color="#fff"/><stop offset="0.05" stop-color="#fbe8f1"/><stop offset="0.14" stop-color="#f5c1d9"/><stop offset="0.24" stop-color="#f0a2c6"/><stop offset="0.34" stop-color="#ec89b7"/><stop offset="0.45" stop-color="#e978ac"/><stop offset="0.56" stop-color="#e86da6"/><stop offset="0.69" stop-color="#e76aa4"/><stop offset="0.74" stop-color="#e66fa6"/><stop offset="0.81" stop-color="#e47eae"/><stop offset="0.88" stop-color="#e097b9"/><stop offset="0.95" stop-color="#dbb9ca"/><stop offset="1" stop-color="#d6d7d8"/></radialGradient><radialGradient id="radial-gradient-2" cx="346.67" cy="171.22" r="14.86" xlink:href="#radial-gradient"/></defs><path class="cls-1" d="M426.89,490.24a23.4,23.4,0,0,1-1.48,6.08c-3.62,9.37-13.44,17.39-29.3,23.91-24.44,10-41.76,10.73-51.47,2-15.64-14-7.64-48.8-4.36-60.55a174.05,174.05,0,0,0,23.7-7.4,116.63,116.63,0,0,0,22.59-11.83q2.56-1.75,4.95-3.64C397.31,443,429.28,467,426.89,490.24Z"/><path class="cls-1" d="M246.36,474.33c-6.89,10.89-33.79,16.43-56.05,17.67-12.5.71-23.53.05-28.74-1.76-7.11-2.47-11.21-5.5-11.84-8.75s2.46-6,2.48-6.06l5.74-4.95-7.19,2.4c-10.49,3.49-18.42,3.67-22.94.51a9.55,9.55,0,0,1-4-7c1.19-11.81,6.13-21.07,14.68-27.51,20.89-15.7,57.09-10.15,60.79-9.53l.08.06q4.71,3.94,9.56,7.51a170.06,170.06,0,0,0,31.94,18.62l0,0C247.85,462.74,249.7,469,246.36,474.33Z"/><path class="cls-2" d="M146.89,322.05c.12,13.83,1.57,28.45,5.37,42.16-49.76-37.47-31.37-95.86-29.06-102.53,2.49-7.17,9.07-39.67,12.7-58.06.58-3,1.09-5.54,1.49-7.6a246.93,246.93,0,0,0,14.67,30.64c2.07,3.63,4.4,7.48,7,11.38a331.41,331.41,0,0,0-11,58.24A249.13,249.13,0,0,0,146.89,322.05Z"/><path class="cls-2" d="M446.56,323.93a51.44,51.44,0,0,1-27,30.06,526.92,526.92,0,0,0-9.1-53c-3.93-17.6-8.16-32.65-11.73-45.36-5.19-18.49-9.31-33.14-9.69-44.92a113.72,113.72,0,0,0,12.33-33.48,192.89,192.89,0,0,0,9.27,26.58c6.19,14.69,15.88,34.14,31,58h0C450.67,286.28,452.33,307.17,446.56,323.93Z"/><path class="cls-3" d="M384.88,440c-.54.37-1.1.74-1.66,1.1s-1.12.73-1.69,1.08-1.15.71-1.74,1.06q-3.51,2.08-7.35,4c-.64.32-1.29.63-1.95.94s-1.31.61-2,.91l-1.54.68c-.37.17-.74.33-1.12.48-2.66,1.13-5.42,2.2-8.3,3.21l-1.87.64c-.75.26-1.52.51-2.29.76l-2.33.73-2.38.71q-1.2.36-2.43.69c-.81.23-1.64.45-2.47.67l-2.55.65-1.81.45-1.55.36q-1.12.27-2.25.51l-2.29.5-2.31.47c-1.56.32-3.14.62-4.74.91l-2.42.43-2.48.42-2,.32-2.84.44-2.59.37-3.43.46c-.6.08-1.19.15-1.79.21l-1.8.19c-2.39.23-4.8.38-7.21.46l-1.2,0-.92,0c-39.29.51-80.4-19-113-53.46q-1.76-1.86-3.48-3.77-6-6.7-11.63-14.08c-35.14-46.4-13-134.84-8.21-152.28,10.58,15.3,24.95,30.89,42.54,38,11,4.43,24.49,6.66,39.39,6.66a184.48,184.48,0,0,0,44-5.7l3-.76c1-.26,2-.52,2.95-.8s2-.55,2.93-.84l1.85-.55,1.67-.51q3.8-1.2,7.52-2.52c.75-.26,1.49-.53,2.23-.81s1.48-.54,2.22-.83c2.22-.84,4.4-1.71,6.56-2.62.72-.3,1.44-.6,2.15-.92s1.16-.5,1.73-.75l2.51-1.14h0l1.65-.78q1.89-.88,3.75-1.83c.47-.22.93-.46,1.39-.7.85-.42,1.68-.86,2.51-1.31.61-.31,1.21-.64,1.81-1q2.39-1.29,4.7-2.65l2-1.19c.88-.53,1.75-1.07,2.62-1.62a2.49,2.49,0,0,0,.37-.23c.69-.43,1.38-.87,2.05-1.31l.71-.47,1.07-.71.47-.32c.46-.3.91-.61,1.36-.93l2-1.38c1.52-1.1,3-2.21,4.45-3.33.59-.46,1.18-.92,1.75-1.39,1.61-1.29,3.16-2.59,4.65-3.92.48-.43,1-.85,1.43-1.29.62-.56,1.22-1.13,1.82-1.7a120.16,120.16,0,0,0,19.26-23.85c1.11,11.25,4.88,24.69,9.5,41.13,7.54,26.84,16.92,60.24,21.65,106C421,396.73,410.05,422.82,384.88,440Z"/><path class="cls-4" d="M365,237a140.49,140.49,0,0,1-27.61,20.2c-41.43,23.65-98.12,33.18-132.5,19.32a61.07,61.07,0,0,1-8.6-4.3c-37.08-22.13-59-82.69-60.27-89.15a14.13,14.13,0,0,1-.26-2.65v-.09a12.71,12.71,0,0,1,2-6.55l9.94-16C150,185.6,161,204.33,171.54,216.21a90.76,90.76,0,0,0,23,18.49,107.18,107.18,0,0,0,52.94,13.59q4.83,0,9.71-.41c30.4-2.55,61.82-11.45,86.61-26.62l.05,0,.64-.41.26-.16c27.68-17.24,46.84-42.41,46.58-75.4a78.23,78.23,0,0,0-.93-11.54c4.58,3.69,7.72,10.16,9,18.6C402.62,174.15,393.23,210,365,237Z"/><path class="cls-5" d="M388.37,145.29c.49,60.8-67.77,94.25-131.39,99.6a112.37,112.37,0,0,1-15.55.23c-26.7-1.46-51.24-12.49-67.65-30.9-15-16.86-30.72-48-20.13-100.67v0c0-.12,2.6-12.9,20.06-25.73,16.23-11.93,49-26.33,112.67-27.18h1.55a111.52,111.52,0,0,1,45.89,9.72,105.16,105.16,0,0,1,26.73,17.25C378.84,103.79,388.2,123.21,388.37,145.29Z"/><path class="cls-4" d="M351,363.67c-2,10.53-7.63,20.11-16.75,28.5-13.56,12.46-40.83,23.67-68.69,18.83a72.36,72.36,0,0,1-26.9-10.49c-12.83-8.21-23.77-20.66-32.33-36.95-.53-1.24-12.3-29,2.94-40.22,9.78-7.19,44.3-21,79.92-16.3,17.56,2.31,35.4,9.11,50.66,23.42A36.2,36.2,0,0,1,351,363.67Z"/><path class="cls-6" d="M352,364c-2,10.53-7.63,20.11-16.75,28.5-13.56,12.46-40.83,23.67-68.69,18.83-9.65-1.67-18.82-4.7-27.05-10,20.11,2.24,39.51,6.9,58.92-3.32,22.78-12,35.66-33.45,27.77-58-6.33-19.65-31.18-30.19-36.11-34,17.56,2.31,35.5,10.4,50.76,24.71A36.2,36.2,0,0,1,352,364Z"/><path class="cls-7" d="M341.94,328.27c-47.59-44.6-119.38-18.39-134.4-7.35-17.46,12.82-4.45,42.64-3.89,43.9l0,.09c14.51,27.63,35.74,44.59,61.4,49a82.11,82.11,0,0,0,14,1.19c23.71,0,45.47-9.93,57.26-20.77,9.61-8.84,15.55-19,17.67-30.15A39.18,39.18,0,0,0,341.94,328.27Zm9.1,35.4c-2,10.53-7.63,20.11-16.75,28.5-13.56,12.46-40.83,23.67-68.69,18.83-24.69-4.29-45.17-20.69-59.23-47.44-.53-1.24-12.3-29,2.94-40.22,14.6-10.73,84.35-36.2,130.58,7.12A36.2,36.2,0,0,1,351,363.67Z"/><path class="cls-8" d="M261,360.28a1.18,1.18,0,0,0-2,.56c-.91,3.41-3.26,13.25-1,17,2.73,4.51,9.11,11.15,14.3,6.89,3.89-3.19.51-8-3.76-10.36a10.87,10.87,0,0,0-6-1.23c-1.49.08-3.38-.25-2.79-2.54C260.6,367.54,262.7,362.11,261,360.28Z"/><path class="cls-9" d="M384.88,440c-15,10.22-35,17.44-61,21.93C339.75,454,372,438.45,385,417.45c19.41-31.4,16.09-95,6.89-130.22-9.06-34.72-65.75-20.49-67.38-20.07,16.64-7.7,31.33-17.3,42.55-28a120.16,120.16,0,0,0,19.26-23.85c1.11,11.25,4.88,24.69,9.5,41.13,7.54,26.84,16.92,60.24,21.65,106C421,396.73,410.05,422.82,384.88,440Z"/><path class="cls-10" d="M175.89,288.52c-3,10.73-6,32.8,3.59,65.81a10.1,10.1,0,0,1-2.28,9.85,6,6,0,0,1-4.17,2,5.25,5.25,0,0,1-4.74-3.06c-4.39-9.17-21.94-49.61-6.18-81.16a5.28,5.28,0,0,1,1.61-1.9l.1-.07A7.84,7.84,0,0,1,175.89,288.52Z"/><path class="cls-10" d="M188.78,375.55s-4.5-8.19-11.23-2.73,18.33,30.91,23.29,30.78S202.54,399.12,188.78,375.55Z"/><ellipse class="cls-10" cx="209.6" cy="413.08" rx="3.5" ry="5.45" transform="translate(-230.7 269.2) rotate(-45)"/><path class="cls-11" d="M253.34,328.33a2.91,2.91,0,0,0-2.37-1.89c-6.91-1-40.07-4.53-41.3,16.37-1.38,23.34,20,29.32,26.57,24.91,5.66-3.8-10.42-13.42-2.35-25.34a17.21,17.21,0,0,1,9.7-6.84C248,334.31,254.52,331.85,253.34,328.33Z"/><path class="cls-12" d="M410.46,301c-3.93-17.6-8.16-32.65-11.73-45.36-5.19-18.49-9.31-33.14-9.69-44.92a113.72,113.72,0,0,0,12.33-33.48,192.89,192.89,0,0,0,9.27,26.58s-5.77,58.43,0,93.16A6.85,6.85,0,0,1,410.46,301Z"/><path class="cls-12" d="M148,296.28a249.13,249.13,0,0,0-1.15,25.77c-9.95-14.36-15.88-31.91-11.12-52.18,8.79-37.45,4.57-56.91.13-66.25.58-3,1.09-5.54,1.49-7.6a246.93,246.93,0,0,0,14.67,30.64c2.07,3.63,4.4,7.48,7,11.38A331.41,331.41,0,0,0,148,296.28Z"/><path class="cls-6" d="M365,237a140.49,140.49,0,0,1-27.61,20.2c15.85-17-.91-30.48,6.44-35.9l.05,0,.64-.41.26-.16c27.68-17.24,46.84-42.41,46.58-75.4a78.23,78.23,0,0,0-.93-11.54c4.58,3.69,7.72,10.16,9,18.6C402.62,174.15,393.23,210,365,237Z"/><path class="cls-11" d="M154.35,197.4c2.15,7,10.54,27.84,36.44,39.28,6.05,2.68,8.37,10.33,4.41,15.63-2,2.74-5.33,4.18-10.67,1.82-14.23-6.32-35.6-49.39-36.41-51.55-.51-1.34-1.18-5.47,1.2-7.09A3.37,3.37,0,0,1,154.35,197.4Z"/><path class="cls-7" d="M392.39,521.7h0l.52-.21A5.55,5.55,0,0,1,392.39,521.7Z"/><path class="cls-13" d="M426.89,490.24a23.4,23.4,0,0,1-1.48,6.08c-23.69-40.61-61.43-42-61.43-42a116.63,116.63,0,0,0,22.59-11.83q2.56-1.75,4.95-3.64C397.31,443,429.28,467,426.89,490.24Z"/><path class="cls-13" d="M246.36,474.33c-6.89,10.89-33.79,16.43-56.05,17.67,61-10.41,35-40.79,18.6-55.06a170.06,170.06,0,0,0,31.94,18.62l0,0C247.85,462.74,249.7,469,246.36,474.33Z"/><path class="cls-7" d="M445.19,263a24.75,24.75,0,0,0-2.42-5c-34.8-55.71-40.33-87-40.38-87.36a81.33,81.33,0,0,0,.61-9.74,62.87,62.87,0,0,0-.63-9.06c-1.58-10.7-6.07-18.58-12.69-22.29h0c-3.53-16.56-12.62-31.4-27.12-44.27a110.73,110.73,0,0,0-59.8-26.79c4.22-1.93,8.35-4,12.6-6a86.64,86.64,0,0,1,21.77-6.22l0-.3c-1.91.13-3.84.11-5.74.4a78.81,78.81,0,0,0-16.87,3.88,51.67,51.67,0,0,0-15.82,7.75q-5.31-.5-10.73-.49h-1.59l-2,0c4.16-2.36,8.27-4.81,12.45-7.21a103.09,103.09,0,0,1,25.34-9.89l0-.29c-9.15,1.13-18,4.23-26.35,8a79.45,79.45,0,0,0-16.58,9.49c-5.62.17-11,.44-16.11.81,3.47-2.54,6.74-5.35,10-8.25,5.77-4.72,11.42-9.72,17.87-13.48l-.12-.28c-6.95,3-13,7.57-19.22,11.87A81.16,81.16,0,0,0,258.7,58.93c-47,4-73,16.26-87.06,26.67C153.56,99,150.85,112.2,150.71,113a163.16,163.16,0,0,0-3.38,39.62l-12.52,20.19a11.94,11.94,0,0,0-1.44,3.22,16.42,16.42,0,0,0-.29,7.61,68,68,0,0,0,2.28,7.09c-1,5.17-11.76,60.69-15,70a104.9,104.9,0,0,0-4,50.8c4.17,23.8,16.72,43.12,37.29,57.44a88.65,88.65,0,0,0,13.39,26.43,210,210,0,0,0,28,30.36c-11.55-1.38-40-3-58.36,10.77-9.29,7-14.63,17-15.88,29.72v.18a12.55,12.55,0,0,0,5.24,9.41c4.73,3.33,11.91,3.73,21.41,1.2a8.28,8.28,0,0,0-.67,5c.85,4.43,5.49,8.14,13.8,11,4.12,1.43,11.53,2.15,20.27,2.15a190.21,190.21,0,0,0,24.75-1.69c13.13-1.77,36.22-6.41,43.3-17.61,3.38-5.35,2.72-11.33-2-17.8a134.13,134.13,0,0,0,49.14,9.75,114.68,114.68,0,0,0,14.83-.95c7.67-1,16.61-2.34,26-4.45-4.19,15.57-10.3,47.72,5.68,62,5.05,4.53,11.85,6.79,20.34,6.79q14.08,0,34.27-8.29c20.29-8.33,31.27-19.25,32.63-32.46,2.5-24.35-28.37-48.2-35.95-53.66,20.91-17.71,29.84-42.8,26.54-74.74-.17-1.69-.36-3.36-.55-5h0a53.65,53.65,0,0,0,29.48-32.2C455.19,308.06,453.7,287.07,445.19,263ZM153.65,113.55v0c0-.12,2.6-12.9,20.06-25.73,13.4-9.85,38-21.38,82.05-25.58L258,62q8.27-.73,17.44-1.1c1.08,0,2.15-.09,3.25-.12h0c2.52-.09,5.1-.14,7.73-.18h1.55q3.76,0,7.49.24l1.76.13h0a108.16,108.16,0,0,1,63.36,26.6c18.28,16.22,27.64,35.64,27.81,57.72.49,60.8-67.77,94.25-131.39,99.6-32.54,2.73-63.64-8.73-83.2-30.67C158.75,197.36,143.06,166.21,153.65,113.55Zm-17.88,66.74a12.71,12.71,0,0,1,2-6.55l9.94-16C150,185.6,161,204.33,171.54,216.21c18.22,20.44,46.1,32.08,76,32.08q4.83,0,9.71-.41c65-5.46,134.64-39.9,134.14-102.62a78.23,78.23,0,0,0-.93-11.54c4.58,3.69,7.72,10.16,9,18.6C402.62,174.15,393.23,210,365,237c-39.33,37.63-117.14,56.84-160.11,39.52C162.63,259.44,137.38,190,136,183a14.13,14.13,0,0,1-.26-2.65ZM123.2,261.68c2.89-8.32,11.28-50.74,14.19-65.66a246.93,246.93,0,0,0,14.67,30.64c2.07,3.63,4.4,7.48,7,11.38a331.41,331.41,0,0,0-11,58.24c-1.9,20-2.09,45.21,4.22,67.93C102.5,326.74,120.89,268.35,123.2,261.68ZM246.36,474.33c-10.75,17-70.28,21-84.79,15.91-7.11-2.47-11.21-5.5-11.84-8.75s2.46-6,2.48-6.06l5.74-4.95-7.19,2.4c-10.49,3.49-18.42,3.67-22.94.51a9.55,9.55,0,0,1-4-7c1.19-11.81,6.13-21.07,14.68-27.51,20.89-15.7,57.09-10.15,60.79-9.53a175.14,175.14,0,0,0,41.58,26.19l0,0C247.85,462.74,249.7,469,246.36,474.33Zm180.53,15.91c-1.24,12-11.59,22.1-30.78,30-6.53-6-13.35-31.37-13.35-31.37s-7.18,4.16,0,16.42c7,12,9.45,16,9.63,16.42a5.55,5.55,0,0,0,.52-.2l-.52.21h0c-22.48,8.63-38.54,8.81-47.75.57-15.64-14-7.64-48.8-4.36-60.55,15.58-3.74,32.18-9.59,46.29-19.23q2.56-1.75,4.95-3.64C397.31,443,429.28,467,426.89,490.24Zm-42-50.22c-.54.37-1.1.74-1.66,1.1s-1.12.73-1.69,1.08-1.15.71-1.74,1.06q-3.51,2.08-7.35,4c-.64.32-1.29.63-1.95.94s-1.31.61-2,.91l-1.54.68c-.37.17-.74.33-1.12.48-2.66,1.13-5.42,2.2-8.3,3.21l-1.87.64c-.75.26-1.52.51-2.29.76l-2.33.73-2.38.71q-1.2.36-2.43.69c-.81.23-1.64.45-2.47.67l-2.55.65-1.81.45-1.55.36q-1.12.27-2.25.51l-2.29.5-2.31.47c-1.56.32-3.14.62-4.74.91l-2.42.43-2.48.42-2,.32-2.84.44-2.59.37-3.43.46c-.6.08-1.19.15-1.79.21l-1.8.19c-2.39.23-4.8.38-7.21.46l-1.2,0-.92,0c-39.29.51-80.4-19-113-53.46q-1.76-1.86-3.48-3.77-6-6.7-11.63-14.08c-35.14-46.4-13-134.84-8.21-152.28,10.58,15.3,24.95,30.89,42.54,38,11,4.43,24.49,6.66,39.39,6.66a184.48,184.48,0,0,0,44-5.7l3-.76c1-.26,2-.52,2.95-.8s1.95-.55,2.93-.84l1.85-.55,1.67-.51q3.8-1.2,7.52-2.52c.75-.26,1.49-.53,2.23-.81s1.49-.55,2.22-.83c2.22-.84,4.4-1.71,6.56-2.62l2.15-.92,1.73-.75,2.51-1.14,1.69-.79q1.89-.88,3.75-1.83l1.39-.7c.85-.42,1.68-.86,2.51-1.31l1.81-1q2.39-1.29,4.7-2.65c.68-.39,1.35-.79,2-1.19.88-.53,1.76-1.06,2.62-1.62a2.49,2.49,0,0,0,.37-.23c.69-.43,1.38-.87,2.05-1.31l.71-.47,1.07-.71.47-.32c.46-.3.91-.61,1.36-.93l2-1.38c1.52-1.1,3-2.21,4.45-3.33l1.75-1.39c1.61-1.29,3.16-2.59,4.65-3.92l1.43-1.29c.62-.56,1.22-1.13,1.82-1.7a120.16,120.16,0,0,0,19.26-23.85c1.11,11.25,4.88,24.69,9.5,41.13,7.54,26.84,16.92,60.24,21.65,106C421,396.73,410.05,422.82,384.88,440Zm61.68-116.09a51.44,51.44,0,0,1-27,30.06c-5-42.06-14.09-74.39-20.83-98.39-5.19-18.49-9.31-33.14-9.69-44.92a113.72,113.72,0,0,0,12.33-33.48c3.05,11.93,12.57,40.8,40.24,84.63h0C450.67,286.28,452.33,307.17,446.56,323.93Z"/><path class="cls-7" d="M392.91,521.5l-.52.21h0A5.55,5.55,0,0,0,392.91,521.5Z"/><path class="cls-10" d="M354.76,491.7c-.72,4.14-1.41,13.37,5,19.21a10.38,10.38,0,0,1,3.47,7.55c0,3.64-2,7-11,3.46-16-6.32-9.28-32.49-5-35.23l.15-.09A4.92,4.92,0,0,1,354.76,491.7Z"/><path class="cls-10" d="M163.73,441.25a4,4,0,0,0,1.05-7.72l-.17-.07c-5.61-2.08-39.44,13.67-30.52,23.62C140.87,464.64,144.09,443.86,163.73,441.25Z"/><path class="cls-7" d="M237.83,102.12c-2.47-6.29-7.29-10.9-14.31-13.69-14.79-5.86-32.62,2.65-40.59,19.4-8.26,17.33.77,37.6,10.88,42.81a24.58,24.58,0,0,0,11.29,2.69,28,28,0,0,0,8.93-1.5A36,36,0,0,0,234.57,133C239.92,121.72,241.11,110.48,237.83,102.12Zm-5.06,30a34.06,34.06,0,0,1-19.38,17.84,23.86,23.86,0,0,1-18.66-1.08c-9.2-4.74-17.64-24.12-10-40.17,5.93-12.45,17.57-20.11,29-20.11a24.43,24.43,0,0,1,9.05,1.71c6.49,2.58,10.93,6.8,13.19,12.56a26.43,26.43,0,0,1,1.69,9.65A46.52,46.52,0,0,1,232.77,132.1Z"/><path class="cls-10" d="M237.66,112.5a46.52,46.52,0,0,1-4.89,19.6,34.06,34.06,0,0,1-19.38,17.84,23.86,23.86,0,0,1-18.66-1.08c-9.2-4.74-17.64-24.12-10-40.17,5.93-12.45,17.57-20.11,29-20.11a24.43,24.43,0,0,1,9.05,1.71c6.49,2.58,10.93,6.8,13.19,12.56A26.43,26.43,0,0,1,237.66,112.5Z"/><path class="cls-7" d="M325.89,90.35C310.26,70.21,284.21,71,274,77.07A19.91,19.91,0,0,0,264.53,90c-2.09,8.95.93,20.63,8.28,32.07,6.52,10.14,17.51,17.88,28.69,20.22a34.94,34.94,0,0,0,7.11.75,30.56,30.56,0,0,0,8.78-1.27,29.56,29.56,0,0,0,8-3.78c7.4-4.93,11.69-10.71,12.74-17.17C339.89,110.05,332.51,98.88,325.89,90.35Zm10.27,30.15a18.87,18.87,0,0,1-3.67,8.41,32.78,32.78,0,0,1-8.2,7.43,28.85,28.85,0,0,1-22.38,4c-10.67-2.23-21.18-9.64-27.42-19.34-7.06-11-10-22.11-8-30.53a17.93,17.93,0,0,1,8.57-11.68c3.55-2.12,9.15-3.55,15.54-3.55a42.32,42.32,0,0,1,33.72,16.33C330.68,99.78,337.79,110.49,336.16,120.5Z"/><path class="cls-10" d="M336.16,120.5a18.87,18.87,0,0,1-3.67,8.41,32.78,32.78,0,0,1-8.2,7.43,28.85,28.85,0,0,1-22.38,4c-10.67-2.23-21.18-9.64-27.42-19.34-7.06-11-10-22.11-8-30.53a17.93,17.93,0,0,1,8.57-11.68c3.55-2.12,9.15-3.55,15.54-3.55a42.32,42.32,0,0,1,33.72,16.33C330.68,99.78,337.79,110.49,336.16,120.5Z"/><path class="cls-7" d="M329.14,160.49c-10.05-18.41-69.74-19.42-72.3-19.45-1.34,0-33,.43-47.18,17.62-5.86,7.1-7.84,16.06-5.88,26.56.1.95,2.92,23.42,37.47,34.11a12.66,12.66,0,0,1,3.09,1.45,20.67,20.67,0,0,0,10.56,3.27c4,0,8.55-1.55,12.62-6.6a5,5,0,0,1,2.54-1.73A120.89,120.89,0,0,0,296,204.58c11.12-6.44,23.21-15.94,31.71-29.54C331,169.69,331.49,164.8,329.14,160.49ZM326,174c-16.61,26.59-47.41,37.2-56.46,39.82a7,7,0,0,0-3.54,2.4c-7.66,9.5-16.93,5.18-20.55,2.89a15,15,0,0,0-3.57-1.68c-33.21-10.26-36.05-32.19-36.09-32.48-1.85-10,0-18.37,5.45-25C224.78,143.47,256.54,143,256.84,143c.61,0,61.05,1,70.55,18.41C329.39,165.13,328.93,169.23,326,174Z"/><path class="cls-1" d="M326,174c-11.36,18.19-29.36,28.9-42.5,34.69a113.33,113.33,0,0,1-14,5.13,7,7,0,0,0-3.54,2.4c-7.66,9.5-16.93,5.18-20.55,2.89a15,15,0,0,0-3.57-1.68c-33.21-10.26-36.05-32.19-36.09-32.48-1.85-10,0-18.37,5.45-25C224.78,143.47,256.54,143,256.84,143s8.68.14,19.72,1.21c18.71,1.8,44.85,6.26,50.83,17.2C329.39,165.13,328.93,169.23,326,174Z"/><path class="cls-14" d="M388.37,145.29c.49,60.8-67.77,94.25-131.39,99.6a112.37,112.37,0,0,1-15.55.23s118.48-15.59,131.76-95.59c5-30.15-13.88-57.21-39.36-79.21a105.16,105.16,0,0,1,26.73,17.25C378.84,103.79,388.2,123.21,388.37,145.29Z"/><path class="cls-13" d="M326,174c-11.36,18.19-29.36,28.9-42.5,34.69,42.7-41.8-6.9-64.42-6.9-64.42,18.71,1.8,44.85,6.26,50.83,17.2C329.39,165.13,328.93,169.23,326,174Z"/><path class="cls-10" d="M220.81,176.79a34.17,34.17,0,0,0,3.44,14.64c2.18,4.65-3.42,9.13-7.39,5.86a15.52,15.52,0,0,1-4.25-6.41,36,36,0,0,1-2.88-14.52C210.08,169.22,220.83,169.65,220.81,176.79Z"/><circle class="cls-15" cx="181.76" cy="184.81" r="14.68"/><circle class="cls-16" cx="346.85" cy="171.22" r="14.68"/><path class="cls-17" d="M287.89,92.53a.32.32,0,0,0-.61-.19c-1.91,4-5.19,13.74,1.05,23.74,8.17,13.11,18.21,7,18.89,4.43s1-15.15-9.19-19.75c0,0-3.71-1.78-9.32.06a1,1,0,0,1-1.27-.9A45.08,45.08,0,0,1,287.89,92.53Z"/><path class="cls-17" d="M201.49,104.32a.32.32,0,0,0-.61-.19c-1.9,4-5.18,13.74,1.05,23.74,8.17,13.1,18.21,7,18.89,4.42s1-15.15-9.19-19.74c0,0-3.7-1.78-9.32.06a1,1,0,0,1-1.27-.9A47.37,47.37,0,0,1,201.49,104.32Z"/></svg>