<svg id="Layer_1" data-name="Layer 1" xmlns="http://www.w3.org/2000/svg" viewBox="0 0 566.93 566.93"><defs><style>.cls-1{fill:#f5eb24;}.cls-2{fill:#231f20;}.cls-3{fill:#fbd703;}.cls-4{fill:#e92127;}.cls-10,.cls-15,.cls-16,.cls-20,.cls-4,.cls-5,.cls-7,.cls-9{stroke:#231f20;}.cls-15,.cls-20,.cls-4,.cls-5,.cls-7,.cls-9{stroke-miterlimit:10;}.cls-15,.cls-16,.cls-20,.cls-4,.cls-5,.cls-7,.cls-9{stroke-width:2px;}.cls-5{fill:#2ebaec;}.cls-6{fill:#534d49;}.cls-7{fill:#f79520;}.cls-8{fill:#fbd4a9;}.cls-9{fill:#f6f3f0;}.cls-10,.cls-11{fill:#a79f97;}.cls-10,.cls-16{stroke-linecap:round;stroke-linejoin:round;}.cls-10{stroke-width:3px;}.cls-12{fill:#fbfae2;}.cls-13{fill:#c9e6f8;}.cls-14{fill:#fab68e;}.cls-15{fill:#fff;}.cls-16{fill:none;}.cls-17{fill:#a7ce39;}.cls-18{fill:#f06ba1;}.cls-19{fill:#f5eb25;}.cls-20{fill:#b0a9a0;}.cls-21{fill:#f7a9a8;}.cls-22{fill:#c3d82e;}</style></defs><path class="cls-1" d="M212.55,388c-.25,0-.49,0-.73,0a8,8,0,0,1-5.83-3.12c-5.87-7.36-3.22-25.37-3.1-26.15,0,0,.33-4.18,1-11.47,3.35-39.12,15.41-171.72,30.37-235.55.59-2.53,1.22-5,1.88-7.19C248,63.63,272.73,51.4,291.43,48.33A31.1,31.1,0,0,1,317.32,56l.3.26a32.08,32.08,0,0,1,6.3,8c10.8,19.3,13,42.2,6.4,66.24-5.21,18.94-14.39,33.26-17.49,37.18-6.07,7.68-18.27,28.88-35.28,61.31-14.88,28.35-27.78,54.48-29.08,57.29.09,5.78.1,11.31,0,16.44-1.1,72-17.88,81.65-33.52,85.05A11.7,11.7,0,0,1,212.55,388Z"/><path class="cls-2" d="M296.45,48.92a30.31,30.31,0,0,1,20.47,8h0a31.1,31.1,0,0,1,6.11,7.73c25.58,45.7-5.09,94.83-11,102.31-7.32,9.26-21.92,35.79-35.39,61.46-15.41,29.37-29.34,57.65-29.23,57.65s0,0,0-.06c.09,5.88.1,11.4,0,16.6-1.1,72.13-18.14,80.91-32.73,84.08a10.59,10.59,0,0,1-2.21.26q-.34,0-.66,0c-12.16-.87-8-28.12-8-28.12s.33-4.19,1-11.54c3.39-39.69,15.41-171.69,30.34-235.4q.87-3.7,1.87-7.14c11.84-40.74,36.68-52.5,54.54-55.43a29.69,29.69,0,0,1,4.86-.4m0-2a32.14,32.14,0,0,0-5.18.43c-19,3.11-44.13,15.5-56.14,56.84-.66,2.25-1.3,4.69-1.9,7.24-15,63.9-27,196.55-30.38,235.69-.58,6.77-.91,10.91-1,11.48-.22,1.49-2.69,19.32,3.32,26.85a8.91,8.91,0,0,0,6.55,3.49c.25,0,.52,0,.8,0a12.54,12.54,0,0,0,2.64-.31c8-1.73,16.23-5,22.76-17.19,7.26-13.56,11-36.07,11.54-68.81.07-5.07.06-10.53,0-16.25,1.7-3.6,14.43-29.36,29-57,17-32.37,29.15-53.52,35.19-61.15,3.13-4,12.41-18.44,17.67-37.53,6.68-24.3,4.44-47.47-6.49-67a33.25,33.25,0,0,0-6.51-8.22l-.57-.53h0a32.25,32.25,0,0,0-21.25-8Z"/><path class="cls-1" d="M125.09,383.61c-15.3,0-24.86-7.33-27.63-21.18-5.09-25.45,7-43.29,18.09-53.77a91.77,91.77,0,0,1,24.26-16.26L127.65,274a346.2,346.2,0,0,0-20.75-27.88,114.94,114.94,0,0,1-13.73-21.19C81.32,201.28,78,173.44,83.92,146.54,96.09,91,120.6,65.19,139,53.35a55.59,55.59,0,0,1,60.18.25c35.94,23.31,46.28,66.87,48.63,99.31a270.52,270.52,0,0,1-3.51,65.3c-.18.87-17.93,87.69-20.4,107.41-.27,2.23-1.57,4.93-3.86,8C205.78,352.91,156.52,383.61,125.09,383.61Z"/><path class="cls-2" d="M168.82,45.59a55,55,0,0,1,29.84,8.85C267.56,99.13,243.34,218,243.34,218s-17.91,87.5-20.41,107.49c-.26,2.12-1.55,4.68-3.67,7.54-13.78,18.6-62.71,49.57-94.17,49.57-13.45,0-23.71-5.66-26.65-20.38-9.68-48.4,42.86-69.39,42.86-69.39l-12.82-19.4a343.38,343.38,0,0,0-20.81-28,113.77,113.77,0,0,1-13.61-21c-12-24-14.9-51.5-9.16-77.72,11.82-54,35.14-80,54.66-92.56a54,54,0,0,1,29.26-8.6m0-2h0a55.9,55.9,0,0,0-30.34,8.92c-11.74,7.54-22.1,18.08-30.81,31.32-11,16.71-19.3,37.73-24.72,62.49-5.94,27.13-2.63,55.2,9.32,79.05a117,117,0,0,0,13.85,21.38,339.46,339.46,0,0,1,20.69,27.79L138.33,292a91.92,91.92,0,0,0-23.47,16c-16.12,15.28-22.48,34.19-18.38,54.69,2.88,14.39,12.77,22,28.61,22,31.7,0,81.38-30.94,95.78-50.38,2.42-3.27,3.75-6.05,4-8.49,2.46-19.68,20.2-106.45,20.38-107.33a271.6,271.6,0,0,0,3.53-65.57c-1.5-20.72-5.63-39.15-12.28-54.77-8.36-19.65-20.75-34.89-36.8-45.31a57,57,0,0,0-30.93-9.17Z"/><path class="cls-3" d="M247.5,302.64c-1.1,72.13-18.14,80.91-32.73,84.08a9.73,9.73,0,0,1-2.87.23c1.62-6,6.28-14.8,12.55-25.76C232.51,347.1,241.26,322.4,247.5,302.64Z"/><path class="cls-3" d="M312.05,167c-7.32,9.26-21.92,35.79-35.39,61.46a3.84,3.84,0,0,1-2.08-2c-4.48-13.79,16.74-36.26,38.7-82.05,21.74-45.35,4-86.67,3.65-87.47h0a31.1,31.1,0,0,1,6.11,7.73C348.63,110.38,318,159.51,312.05,167Z"/><path class="cls-3" d="M243.34,218s-17.91,87.5-20.41,107.49c-.25,2.07-1.49,4.57-3.53,7.35a1.72,1.72,0,0,1-.32.34C204.75,345.37,192.75,353,186.3,351.4c-11.23-2.72,8.51-84.76,36.08-151.74C245.5,143.5,201.85,73.51,187.14,52.37a1.85,1.85,0,0,1,2.23-2.77,54,54,0,0,1,9.29,4.84C267.56,99.13,243.34,218,243.34,218Z"/><path class="cls-4" d="M183.79,198.93c-32.21,14.63-46-19-46.76-48.42-.35-12.91,1.79-25,6-31.85,11.23-18.41,27.24-23,39.56-23a12.46,12.46,0,0,1,11.15,7.1A166.33,166.33,0,0,1,206,136.88C211.26,160.08,210.29,186.89,183.79,198.93Z"/><path class="cls-5" d="M206,136.88c-5.38,9.77-14.61,18.3-30.06,22.57-20,5.53-31.8-.1-38.87-8.94-.35-12.91,1.79-25,6-31.85,11.23-18.41,27.24-23,39.56-23a12.46,12.46,0,0,1,11.15,7.1A166.33,166.33,0,0,1,206,136.88Z"/><path class="cls-4" d="M307.31,136.44a103.76,103.76,0,0,1-5.94,16.64c-15.88,35.45-46.82,16.45-45.38-15.55a52.58,52.58,0,0,1,2.48-13.62C268.85,91.36,282,92.08,286,93.53c1.05.38,2.09.74,3.17,1C295.53,96.19,315.43,104.46,307.31,136.44Z"/><path class="cls-5" d="M307.31,136.44a59.35,59.35,0,0,1-28.25,10.48c-12.7,1.42-19.66-2.66-23.07-9.39a52.58,52.58,0,0,1,2.48-13.62C268.85,91.36,282,92.08,286,93.53c1.05.38,2.09.74,3.17,1C295.53,96.19,315.43,104.46,307.31,136.44Z"/><path class="cls-6" d="M157.1,433c-8.46,0-14.41-5.46-16.3-15a46.09,46.09,0,0,1-.1-15.27,50.12,50.12,0,0,1,2.49-9.91c3.34-9.41,9.66-19.84,18.81-31,9.36-11.46,21.72-23.76,36.74-36.56a479.42,479.42,0,0,1,41.74-31.76l.2-.14,39.37-4.63-5,2.54c-.53.27-53.1,27.5-69.88,86.88C195.08,413.77,172.88,433,157.1,433Z"/><path class="cls-2" d="M274.58,290.37s-53.29,27-70.39,87.5c-10,35.39-31.92,54.13-47.09,54.13-7.55,0-13.42-4.64-15.32-14.19a45,45,0,0,1-.09-14.94,49.07,49.07,0,0,1,2.44-9.72c3.58-10.08,10.32-20.54,18.64-30.71,10.7-13.09,24-25.69,36.62-36.43A475.25,475.25,0,0,1,241,294.32l33.55-3.95m10.92-3.3-11.15,1.31-33.55,3.95-.47.06-.4.26a480.07,480.07,0,0,0-41.84,31.84c-15.06,12.84-27.46,25.18-36.87,36.68-9.21,11.27-15.6,21.8-19,31.31a50.66,50.66,0,0,0-2.54,10.12,47,47,0,0,0,.11,15.6c2,10,8.29,15.8,17.28,15.8,16.14,0,38.81-19.48,49-55.59,8.7-30.76,27.07-52.56,40.95-65.43,15.09-14,28.29-20.76,28.42-20.83l10-5.08Z"/><path class="cls-7" d="M247.61,270s-29-9.21-30.92,13.48,42.76,40.47,58.55,27.31S247.61,270,247.61,270Z"/><path class="cls-8" d="M232.8,279.11c-2.25,2.51-5.37,6.69-4.82,10.06a2.58,2.58,0,0,1-4.55,1.95c-1-1.21-1.68-3.26-1.68-6.61,0-7.26,5.29-9.67,9.18-9.65A2.56,2.56,0,0,1,232.8,279.11Z"/><ellipse class="cls-9" cx="279.89" cy="254.43" rx="43.84" ry="52.59" transform="translate(-5.27 502.94) rotate(-83.34)"/><path class="cls-10" d="M300.26,207.45s25.5-57.78,53.5-45.66a4.3,4.3,0,0,1,2.51,2.71C358.78,173.41,325,167.59,300.26,207.45Z"/><path class="cls-10" d="M269.75,206.51s2.57-63.1,33.07-62.08a4.3,4.3,0,0,1,3.33,1.61C311.74,153.4,278.21,160.35,269.75,206.51Z"/><path class="cls-11" d="M199.39,326c-10,25.77-5.43,49.17-24,76.36-11.51,16.81-23.86,18.36-33.57,15.44a45,45,0,0,1-.09-14.94,49.07,49.07,0,0,1,2.44-9.72c3.58-10.08,10.32-20.54,18.64-30.71C173.47,349.35,186.79,336.75,199.39,326Z"/><path class="cls-12" d="M150.7,316.14a7,7,0,0,1-2.53,6.62c-4,3.27-13.27,12.71-16.69,32.24-4.43,25.21-30.08-3.15-14.6-27.45C130.15,306.73,148.94,307,150.7,316.14Z"/><path class="cls-12" d="M170.35,59.29a11.74,11.74,0,0,1-3.57,11c-9.9,9.35-37.94,38.14-43.8,69.69-7.15,38.47-43.58,14.3-15.66-36.43C132.13,58.49,166.56,42.45,170.35,59.29Z"/><circle class="cls-12" cx="106.51" cy="190.08" r="9.57"/><path class="cls-13" d="M161.47,120.84c-2.25,3.15-5.41,8.11-5.92,11.87a6.59,6.59,0,0,1-5.49,5.79c-2.77.36-5.12-1.13-3.42-8.58,2.55-11.17,7.83-16.14,12.63-15.13A3.86,3.86,0,0,1,161.47,120.84Z"/><path class="cls-13" d="M278.15,115.64c-1.65,2.31-4,6-4.35,8.72a4.82,4.82,0,0,1-4,4.25c-2,.27-3.76-.83-2.51-6.3,1.87-8.2,5.75-11.86,9.28-11.12A2.84,2.84,0,0,1,278.15,115.64Z"/><path class="cls-14" d="M157.53,179c1.11,3.39,4,10.12,10.42,13.11a1.75,1.75,0,0,1-.38,3.29c-4.12.82-10,0-14.58-8.78-5.18-10-1.69-10.93,1.21-10.47A4.18,4.18,0,0,1,157.53,179Z"/><ellipse class="cls-15" cx="295.54" cy="253.33" rx="27.06" ry="20.94" transform="matrix(0.32, -0.95, 0.95, 0.32, -38.49, 453.19)"/><ellipse class="cls-2" cx="301.78" cy="258.03" rx="8.75" ry="5.79" transform="translate(-45.99 449.62) rotate(-69.38)"/><ellipse class="cls-15" cx="272.05" cy="249.58" rx="27.06" ry="20.94" transform="translate(-65.15 399.91) rotate(-66.56)"/><ellipse class="cls-2" cx="274.47" cy="253.33" rx="8.75" ry="5.79" transform="translate(-59.28 421.01) rotate(-69.38)"/><path class="cls-16" d="M248.55,277.66s10.34,16.47,27.45,11.23"/><path class="cls-17" d="M361.77,473.24c-.32-8.86-2.68-32.45-9.64-37.05a21.91,21.91,0,0,1-7.53,1.3c-9.07,0-21.47-5.18-29.08-29.87l0-.12v-.12c0-.71-.75-17.5,7.52-26.19a16,16,0,0,1,12.09-5c5,0,10.94,1.82,17.61,5.41l.21.11.13.19c.8,1.11,19.45,27.44,16.24,41.37a9.8,9.8,0,0,1-4.38,6.36c.78,5,5,34.07-1.27,44.1l-1.73,2.75Z"/><path class="cls-2" d="M335.08,377.19c4.53,0,10.15,1.53,17.14,5.29,0,0,27.23,38.13,11.57,46.64,0,0,5.62,33.53-1,44.08,0,0-1.19-33-10.55-38.13a19.94,19.94,0,0,1-7.62,1.42c-8,0-20.51-4.45-28.13-29.16,0,0-1.47-30.14,18.61-30.14m0-2v0h0a17,17,0,0,0-12.81,5.31c-8.57,9-7.83,26.2-7.79,26.93v.25l.07.24c3.51,11.36,8.4,19.71,14.55,24.8a24.18,24.18,0,0,0,15.49,5.77,23.42,23.42,0,0,0,7.37-1.18c5.61,4.48,8.37,24.13,8.8,36l.24,6.49,3.45-5.49c6.27-10,2.5-37.68,1.51-44.16a10.84,10.84,0,0,0,4.28-6.62c3.31-14.36-15.6-41.05-16.4-42.17l-.27-.38-.41-.22c-6.83-3.67-12.91-5.53-18.09-5.53Z"/><path class="cls-17" d="M382.94,509.13c-9.85,0-22.93-2.5-29.28-14.41a28.77,28.77,0,0,1-2.41-6.2l-.09-.36L359,472.05a3.82,3.82,0,0,0,.17-.36c.83-2,20.84-49.51,72-49.51a89.36,89.36,0,0,1,10.36.62,49.38,49.38,0,0,1,23,8.59c.36.26.69.49,1,.73a31.78,31.78,0,0,1,4.87,4.46,8.34,8.34,0,0,1,1.53,8.21c-4.54,13-23.68,55.95-79.36,63.52A52.71,52.71,0,0,1,382.94,509.13Z"/><path class="cls-2" d="M431.16,423.18a87,87,0,0,1,10.24.61,48.33,48.33,0,0,1,22.5,8.41l1,.72a31.37,31.37,0,0,1,4.71,4.31,7.33,7.33,0,0,1,1.35,7.23c-4.42,12.64-23.28,55.34-78.55,62.86a52.26,52.26,0,0,1-9.45.81c-9,0-22.18-2.2-28.4-13.88a27.47,27.47,0,0,1-2.32-6l7.71-15.77c.07-.14.14-.28.2-.43,1.37-3.35,21-48.88,71-48.88m0-2v0c-21.17,0-40.27,8.23-55.21,23.8a91.31,91.31,0,0,0-17.67,26.32l-.14.3-7.72,15.78-.32.67.19.72a29.14,29.14,0,0,0,2.49,6.43c6.58,12.34,20,14.93,30.16,14.93a53.72,53.72,0,0,0,9.78-.84c56.19-7.67,75.52-51.05,80.11-64.17a9.34,9.34,0,0,0-1.73-9.2,32.64,32.64,0,0,0-5-4.59l-1-.74a50.57,50.57,0,0,0-23.45-8.79,91.2,91.2,0,0,0-10.46-.62Z"/><path class="cls-17" d="M338.82,491c-1.25,0-2-.09-2-.09-29.29-4.54-48.06-11.76-55.82-21.47A14.94,14.94,0,0,1,278,457.12a15.1,15.1,0,0,1,7.65-10.34c10.58-5.7,21-8.59,31-8.59,21.49,0,36.14,13.21,43,21.08a15.16,15.16,0,0,1,3.12,14.27c-4.86,15.8-18.36,17.5-23.93,17.5Z"/><path class="cls-2" d="M316.67,439.19c21.08,0,35.46,12.95,42.2,20.73a14.08,14.08,0,0,1,2.93,13.32c-4.72,15.32-18,16.8-23,16.8-1.2,0-1.92-.08-1.92-.08-34.16-5.3-49.11-13.54-55.16-21.1a14.14,14.14,0,0,1,4.4-21.2c11.34-6.11,21.55-8.47,30.53-8.47m0-2c-10.17,0-20.76,2.93-31.48,8.71a16.15,16.15,0,0,0-5,24.21c7.92,9.9,26.9,17.25,56.41,21.82h.07a19.71,19.71,0,0,0,2.16.1c4.52,0,19.69-1.31,24.89-18.21a16,16,0,0,0-3.32-15.22c-6.93-8-21.83-21.42-43.72-21.42Z"/><path class="cls-2" d="M361.83,475.2c6.75-4,14-5.57,21.58-6.89,7.11-1.87,14.8-3.26,20.84-7.67l.36.34c-2.51,3-6,4.91-9.43,6.71-5,2.53-10.82,4.5-16.05,6.45a37,37,0,0,1-17.21,1.55l-.09-.49Z"/><path class="cls-2" d="M361.41,475.61c-2-1.05-11.56-6.06-13.27-7A69.54,69.54,0,0,0,337.66,463c-1.53-.68-4-1.52-5.6-2.12-.93-.28-3.43-1-4.33-1.33s-3.42-.85-4.41-1.09c-1.75-.41-4.22-.79-6-1.17l0-.5c2.05,0,4.11,0,6.17.14a71,71,0,0,1,18.35,3.53c4,1.39,8.09,2.69,11.49,5.26.65.45,1.91,1.46,2.49,2a23.48,23.48,0,0,1,5.93,7.55l-.38.33Z"/><path class="cls-18" d="M319.44,345.66a26.41,26.41,0,0,1-12.54-2.93l-.1-.05-.08-.08c-.69-.65-16.78-16.09-16.49-28.67a11.92,11.92,0,0,1,4.26-9.07c9.11-7.91,28.18-14.1,43.4-14.1a44.72,44.72,0,0,1,8.57.76,13.5,13.5,0,0,1,8.69,5.78,13.72,13.72,0,0,1,2.08,10.42c-1.87,9.33-6.34,22.16-17.05,30.35C333.6,343.11,326.62,345.66,319.44,345.66Z"/><path class="cls-2" d="M337.88,291.76a43.71,43.71,0,0,1,8.38.74,12.74,12.74,0,0,1,10,15c-1.76,8.79-6.08,21.64-16.68,29.75-7.52,5.75-14.56,7.38-20.13,7.38a25.69,25.69,0,0,1-12-2.79s-25.78-24.51-12.25-36.25c8.79-7.63,27.49-13.86,42.73-13.86m0-2v0h0c-15.43,0-34.77,6.3-44,14.35a12.89,12.89,0,0,0-4.61,9.8c-.3,13,16.1,28.75,16.8,29.41l.16.16.2.12a27.7,27.7,0,0,0,13.05,3.06c7.4,0,14.59-2.62,21.35-7.79,11-8.39,15.52-21.46,17.42-30.95A14.74,14.74,0,0,0,356,296.74a14.52,14.52,0,0,0-9.34-6.21,46.56,46.56,0,0,0-8.75-.77Z"/><path class="cls-18" d="M376.17,348.91a143.71,143.71,0,0,1-28.8-3.25c-2.95,0-4.94-.94-5.92-2.71-2.1-3.77,1.49-9.76,1.9-10.43,14.59-21.86,31.87-34.39,47.45-34.39A23.06,23.06,0,0,1,409,306.29c4.76,5.78,6.48,13.67,4.82,22.24-2.57,13.33-15.6,20.38-37.66,20.38Z"/><path class="cls-2" d="M390.8,299.13c15.34,0,25.22,12.83,22.05,29.21-3.05,15.78-20.56,19.57-36.68,19.57a141.07,141.07,0,0,1-28.68-3.25c-10.47,0-3.29-11.61-3.29-11.61,16.37-24.54,33.48-33.92,46.6-33.92m0-2c-15.92,0-33.51,12.69-48.26,34.81l0,0,0,0c-.44.73-4.3,7.18-1.93,11.45,1.16,2.08,3.41,3.16,6.68,3.22a142.41,142.41,0,0,0,28.92,3.25c22.6,0,36-7.33,38.64-21.19,1.72-8.86-.07-17.06-5-23.07a24.06,24.06,0,0,0-19-8.52Z"/><path class="cls-18" d="M260.72,381.72c-6.84,0-12.25-2.4-15.63-7-4.49-6-5-15.43-1.45-27.14,4-13.34,12.38-20.11,24.81-20.11,15.75,0,32.54,11,34.92,12.6,1.15,0,4.22.34,5.29,3,1.71,4.18-2.9,11.54-14.09,22.5-10.33,10.11-23,16.15-33.84,16.15Z"/><path class="cls-2" d="M268.45,328.51c16.51,0,34.61,12.6,34.61,12.6h.16c1.57,0,14.2.68-9.35,23.75-10.56,10.35-23.09,15.88-33.15,15.88-13.76,0-22.91-10.35-16.12-32.82,4.46-14.79,13.87-19.4,23.85-19.4m0-2v0c-12.74,0-21.66,7.2-25.77,20.82-4.59,15.2-1.66,23.63,1.61,28,3.58,4.82,9.26,7.37,16.43,7.37,11.13,0,24-6.15,34.55-16.45,11.67-11.43,16.22-18.92,14.32-23.58-1.21-3-4.39-3.5-5.9-3.58-3.15-2.11-19.66-12.61-35.24-12.61Z"/><path class="cls-18" d="M277.56,422c-11.42,0-18.75-2.67-21.78-7.92-2.86-5-1.68-12,3.52-21,11.58-20,33.39-29.11,48.75-29.11,7,0,11.68,2.05,12.58,5.49.31.84,8.12,22.83.15,37.48-3.22,5.92-8.59,9.79-16,11.49A125.36,125.36,0,0,1,277.56,422Z"/><path class="cls-2" d="M308.05,365c6.33,0,10.82,1.72,11.61,4.74,0,0,14.81,40.85-15.06,47.75a125.47,125.47,0,0,1-27,3.56c-18,0-29.33-6.81-17.39-27.44S294.35,365,308.05,365m0-2v0h0c-15.64,0-37.84,9.27-49.61,29.61-5.39,9.32-6.58,16.73-3.53,22,3.22,5.59,10.84,8.42,22.65,8.42a126.87,126.87,0,0,0,27.49-3.61c7.66-1.77,13.25-5.81,16.61-12,8-14.75.53-36.56-.09-38.31-1.09-3.9-6-6.14-13.51-6.14Z"/><path class="cls-18" d="M350.92,400.94c-9,0-16.95-3.12-22.33-8.79s-8.14-14-7.63-23.78v-.24l.13-.21c.51-.87,12.68-21.13,27.3-22.7.13,0,1.63-.08,4.1-.08,10.41,0,35.31,1.27,41.81,13,2.82,5.09,1.87,11.48-2.82,19C382.29,391.81,366.75,400.94,350.92,400.94Z"/><path class="cls-2" d="M352.5,346.14c13.52,0,55.83,2.19,38.14,30.46-9.72,15.51-25.64,23.34-39.72,23.34-16.26,0-30.06-10.44-29-31.51,0,0,12.25-20.69,26.55-22.22,0,0,1.51-.07,4-.07m0-2v0c-2.5,0-4,.07-4.09.08h-.11c-15.12,1.62-27.54,22.31-28.06,23.19l-.25.42,0,.49c-.52,10,2.21,18.52,7.9,24.52s13.76,9.1,23.06,9.1c16.17,0,32-9.31,41.41-24.28,4.91-7.83,5.87-14.56,2.86-20-6.76-12.2-32.11-13.52-42.69-13.52Z"/><path class="cls-19" d="M309.75,370.73c-5.37,0-9.55-1.81-11.78-5.1-2.6-3.83-2.37-9.2.65-15.11,2.92-5.71,8.14-11.31,14.7-15.76,7.45-5.05,15.68-7.95,22.58-7.95,5.36,0,9.54,1.81,11.77,5.09,2.6,3.84,2.37,9.21-.65,15.11-2.92,5.72-8.14,11.32-14.7,15.76-7.45,5.06-15.68,8-22.57,8Z"/><path class="cls-2" d="M335.9,327.81c4.86,0,8.81,1.52,10.94,4.66,4.94,7.27-1.81,20.47-15.08,29.47-7.55,5.13-15.58,7.79-22,7.79-4.87,0-8.82-1.52-10.95-4.66-4.94-7.28,1.81-20.48,15.08-29.48,7.55-5.12,15.58-7.78,22-7.78m0-2c-7.1,0-15.53,3-23.14,8.13-14.4,9.77-21.26,23.94-15.62,32.25,2.43,3.57,6.9,5.54,12.61,5.54,7.09,0,15.52-3,23.14-8.13,6.69-4.54,12-10.27,15-16.13,3.2-6.25,3.4-12,.59-16.13-2.43-3.57-6.9-5.53-12.6-5.53Z"/><ellipse class="cls-20" cx="313.15" cy="517.15" rx="12.89" ry="7.79"/><path class="cls-20" d="M482.92,514.66c4.61,10.71-5.34,11.4-15.05,14.06s-19.95.88-20.12-4.4,6.1-7.72,15.14-12.15S479,505.63,482.92,514.66Z"/><path class="cls-21" d="M366.38,356.94s21.45-5.88,19.92,5.61-13.28,11.24-16.6,5.62A24.43,24.43,0,0,1,366.38,356.94Z"/><path class="cls-21" d="M379.49,314.38s23,9.86,21.92-1.68-9.06-15.05-16.38-6.22A43.6,43.6,0,0,0,379.49,314.38Z"/><path class="cls-22" d="M447.68,445.05c-.17,10.94-4.4,32.24-33.19,40.62,0,0-4.18,11.54,14.83,4,16.43-6.5,43.55-47.93,28.37-52.29A8,8,0,0,0,447.68,445.05Z"/></svg>