<svg id="Layer_1" data-name="Layer 1" xmlns="http://www.w3.org/2000/svg" viewBox="0 0 566.93 566.93"><defs><style>.cls-1{fill:#f38db4;}.cls-2{fill:#ec4794;}.cls-3{fill:#faad1b;}.cls-4{fill:#f58020;}.cls-5{fill:#f5eb22;}.cls-6,.cls-9{fill:#fff;}.cls-7{fill:#f491b7;}.cls-8{fill:#291125;}.cls-9{stroke:#291125;stroke-miterlimit:10;stroke-width:1.5px;}</style></defs><path class="cls-1" d="M303.18,312.9s-7.13,11.85-25.93,22.35c-9.87,5.52-23.24,9.49-41,8.79,0,0-32.86,5.88-43.41-14.93,0,0-1-6.84-2-18.59-2.56-29.21-5.48-88.76,5.42-148.71,6.64-36.64,18.45-73.43,38.64-103.54A53.31,53.31,0,0,1,257.4,39.08c13.93-6.18,32.36-7.43,34.41,27.5,0,.49.05,1,.07,1.47h0a54.22,54.22,0,0,1-.36,7.75C288.58,101,274.74,246.74,303.18,312.9Z"/><path class="cls-2" d="M303.18,312.9s-7.13,11.85-25.93,22.35C226,153.56,264.1,76,291.88,68.06a54.22,54.22,0,0,1-.36,7.75C288.58,101,274.74,246.74,303.18,312.9Z"/><path class="cls-3" d="M338.44,509.49a37.92,37.92,0,0,1-5.73,1.07c5.45,5.44,28.94,6.46,28.94,6.46-6.47,8.52-36.09,4.43-42.56,8.52S314,530,314,530c-97.7,12.94-114.39-76.25-114.39-76.25l-2,7.48c-8.17-4.76,2-50.72,2-50.72s.36-1.33,1.06-3.59c5.21-16.65,29.34-83.65,67.71-36.58,43.58,53.45,59.92,44.94,67.75,78.64s46.29,23.49,46.29,23.49C368.88,498.74,348.34,507,338.44,509.49Z"/><path class="cls-4" d="M334.45,511.84c6.1,3.52,20.26,4.74,25.34,5.07a.85.85,0,0,1,.49,1.49c-8.51,6.69-35.1,3.29-41.19,7.14-3.95,2.49-5,3.59-5.18,4.07a.81.81,0,0,1-.64.45c-86,11-108.82-57.37-112.92-73.15a.84.84,0,0,0-1.62,0l-.8,2.94a.85.85,0,0,1-1.51.27c-6-8.38,3.18-49.65,3.18-49.65s.29-1.05.84-2.87a.83.83,0,0,1,.95-.59,45.63,45.63,0,0,1,14,5.64.84.84,0,0,1-.42,1.57h-.08a.85.85,0,0,0-.84.87c.21,8.51-5.32,76.83,48.74,89.57a.82.82,0,0,1,.62,1c-.28.76-1.73,1.67-7.28,1.46-8.3-.31,20.3,23,54.5,6.75a48.52,48.52,0,0,1,27.47-4.46l.35.05c-1.5.38-2.76.63-3.71.79A.84.84,0,0,0,334.45,511.84Z"/><path class="cls-5" d="M300.58,412.34a101.65,101.65,0,0,1-57.5,14.91c-28.43-1.14-42.47-13.11-46.58-17.34-.9-.92-1.86-1.77-2.83-2.61a17.94,17.94,0,0,1-3.95-5c-10.15-18.29-2.16-61.15-3.05-67.41-1-7.15,6.13-5.79,6.13-5.79,2.7,6.69,11.3,10.22,20.38,12.07a120.62,120.62,0,0,0,26.25,1.89c38.81,3.74,62.3-31,62.3-31,1.87-2.38,3.75-.76,5.15,1.45a17.87,17.87,0,0,1,2.59,7.78c3.12,30.88,15.21,40.28,15.74,52,0,.7.06,1.39.11,2.09C326.56,391.92,313.8,404.17,300.58,412.34Z"/><path class="cls-6" d="M213.05,342.39c1.53,0-19.4,4.59-23,56.68-.08,1.16-.2,2.24-.35,3.24-10.15-18.29-2.16-61.15-3.05-67.41-1-7.15,6.13-5.79,6.13-5.79,2.7,6.69,11.3,10.22,20.38,12.07C213.1,342,213.05,342.39,213.05,342.39Z"/><ellipse class="cls-6" cx="216.23" cy="134.32" rx="15.06" ry="5.74" transform="translate(48.85 326.1) rotate(-80.73)"/><path class="cls-6" d="M209,249.79c4.08,19.4,7.49,73.53-15,62.64a34.26,34.26,0,0,1-3.37-1.91c-2.56-29.21-5.48-88.76,5.42-148.71,9.57-1.91,18,1,18,17.17C214.08,216.77,204.89,230.39,209,249.79Z"/><ellipse class="cls-7" cx="304.98" cy="394.09" rx="6.17" ry="4.93"/><ellipse class="cls-7" cx="211.13" cy="405.38" rx="6.17" ry="4.93"/><path class="cls-8" d="M210.17,399l-1.38-1.44c8.54-8.2,17.55-8.31,22.67-7.45-8.41-5.67-19.12-.44-19.24-.38l-.89-1.79c.15-.07,15.1-7.37,24.69,3.55l3,3.39-4.13-1.81C234.34,392.86,222,387.65,210.17,399Z"/><path class="cls-6" d="M298.81,379.56c.28,13.42-7.59,24.85-21,30.59-8.79,3.74-16.27,4-22.24.67-9.1-5-12.12-16.93-12.77-20,2.94-.86,6.41-2.92,10.36-6.17a62.75,62.75,0,0,0,8.69-8.83c9.55-11.74,16.65-18.16,21.74-21.63C292.32,357.82,298.56,368.15,298.81,379.56Z"/><path class="cls-8" d="M285.57,352.93c6.3-3.73,8.87-2.43,8.92-2.4l.52-.85.55-.84c-1-.63-10.08-5.26-35.3,25.75a61.46,61.46,0,0,1-8.41,8.55c-5.79,4.76-10.59,6.87-13.54,5.94-1.69-.53-2.92-2.13-3.64-4.73l-1.93.54c.92,3.29,2.59,5.35,5,6.1a7,7,0,0,0,2.13.31,8,8,0,0,0,1-.06c.67,3.3,3.8,15.81,13.76,21.33a21,21,0,0,0,10.31,2.57A35.19,35.19,0,0,0,278.55,412c14.23-6.07,22.55-18.21,22.26-32.47C300.57,367.87,294.39,357.25,285.57,352.93Zm-7.8,57.22c-8.79,3.74-16.27,4-22.24.67-9.1-5-12.12-16.93-12.77-20,2.94-.86,6.41-2.92,10.36-6.17a62.75,62.75,0,0,0,8.69-8.83c9.55-11.74,16.65-18.16,21.74-21.63,8.77,3.6,15,13.93,15.26,25.34C299.09,393,291.22,404.41,277.77,410.15Z"/><path class="cls-8" d="M265.65,379.66s-5.49,4.6-4.6,14.81,11.24,13,14.3,3.45-9.48-16.13-11.87-12.13Z"/><path class="cls-9" d="M242.76,413.6c0,2.9-4.3,3.72-8.93,5.26s-8.92-2.36-8.92-5.26,4-5.25,8.92-5.25S242.76,410.7,242.76,413.6Z"/></svg>