<?xml version="1.0" encoding="UTF-8"?>
<svg id="Layer_1" data-name="Layer 1" xmlns="http://www.w3.org/2000/svg" xmlns:xlink="http://www.w3.org/1999/xlink" viewBox="0 0 566.93 566.93">
  <defs>
    <style>
      .cls-1 {
        fill: #eada17;
      }

      .cls-1, .cls-2, .cls-3, .cls-4, .cls-5, .cls-6, .cls-7, .cls-8, .cls-9, .cls-10, .cls-11, .cls-12, .cls-13 {
        stroke-width: 0px;
      }

      .cls-2 {
        fill: #f59422;
      }

      .cls-3 {
        fill: #240e10;
      }

      .cls-4 {
        fill: #e9242a;
      }

      .cls-5 {
        fill: #d02026;
      }

      .cls-6 {
        fill: #711011;
      }

      .cls-7 {
        fill: #fff;
      }

      .cls-8 {
        fill: #f6eb22;
      }

      .cls-9 {
        fill: url(#radial-gradient-2);
      }

      .cls-10 {
        fill: #f8ac81;
      }

      .cls-11 {
        fill: url(#radial-gradient);
      }

      .cls-14 {
        fill: none;
        stroke: #711011;
        stroke-miterlimit: 10;
      }

      .cls-12 {
        fill: #f48a22;
      }

      .cls-13 {
        fill: #230e10;
      }
    </style>
    <radialGradient id="radial-gradient" cx="111.53" cy="224.16" fx="111.53" fy="224.16" r="15.42" gradientUnits="userSpaceOnUse">
      <stop offset="0" stop-color="#ed548e"/>
      <stop offset="1" stop-color="#f8ac81"/>
    </radialGradient>
    <radialGradient id="radial-gradient-2" cx="298.88" cy="244.33" fx="298.88" fy="244.33" r="15.42" xlink:href="#radial-gradient"/>
  </defs>
  <path class="cls-6" d="M285.53,382.94c.1.72.22,1.48.36,2.23-.1-.76-.23-1.49-.36-2.23ZM284.97,364.7l-1.32,1.07c.42-.31.84-.61,1.25-.92.03-.02.05-.04.08-.07v-.08ZM285.53,382.94c.1.72.22,1.48.36,2.23-.1-.76-.23-1.49-.36-2.23ZM285.53,382.94c.1.72.22,1.48.36,2.23-.1-.76-.23-1.49-.36-2.23Z"/>
  <path class="cls-6" d="M180.89,497.29c1.7,1.27,3.43,2.51,5.19,3.71-1.76-1.21-3.49-2.45-5.19-3.71Z"/>
  <path class="cls-4" d="M207.88,109.16c-.66-.01-1.31-.01-1.97-.01-4.59,0-9.09.18-13.47.53-1.76.15-3.5.32-5.22.53-.42.04-.84.09-1.25.14-.98.12-1.96.25-2.93.4-.68.09-1.36.2-2.03.31-1.49.23-2.97.5-4.43.78-1.6.31-3.18.64-4.74,1.02-.44.09-.87.19-1.3.3-.91.22-1.81.45-2.7.69-.93.25-1.84.5-2.75.77-.96.28-1.9.57-2.84.87-.85.27-1.69.55-2.53.84-.1.03-.2.07-.31.11-.78.27-1.56.55-2.33.84-.14.05-.29.1-.43.16-.52.19-1.04.4-1.56.6-.47.18-.94.37-1.4.56-1.69.7-3.34,1.42-4.96,2.19-.6.28-1.19.57-1.77.86-.62.3-1.22.61-1.82.92-.62.32-1.23.64-1.84.98-.72.39-1.42.79-2.12,1.19-.77.44-1.53.89-2.28,1.36-.67.41-1.34.83-2,1.27-.17.1-.35.21-.52.33-.41.27-.82.54-1.23.83-.42.27-.84.56-1.25.86-.3.21-.61.42-.9.64-.43.3-.86.62-1.28.94-.34.25-.68.5-1.01.77-.41.3-.81.61-1.21.94-.3.22-.59.46-.88.71-.47.37-.94.76-1.4,1.16-.12.09-.23.19-.35.3-.58.48-1.15.98-1.71,1.49-.13.11-.26.23-.39.36-.6.54-1.2,1.09-1.78,1.66-.61.58-1.21,1.17-1.8,1.77-.22.21-.42.42-.62.63-.29.29-.58.59-.86.89-29.29-22.37-17.81-63.58-9.63-86.67.92-2.59,1.79-4.95,2.56-7.03.65-1.73,1.23-3.29,1.71-4.67,1.34-3.79.14-8.03-2.99-10.56-12.47-10.08-19.84-16.23-23.14-18.99,3.69-.42,7.28-.62,10.78-.62,24.59,0,44.69,9.99,60.71,23.8,26.7,23.01,42.09,56.64,48.17,72.25Z"/>
  <path class="cls-4" d="M376.41,114.7c12.14,35.86-8.1,69.34-51.6,85.53-.08-.31-.15-.62-.24-.93-.08-.33-.16-.66-.25-.99-.17-.64-.34-1.27-.52-1.91-.4-1.46-.83-2.92-1.29-4.36-.19-.62-.39-1.24-.59-1.84-.17-.55-.36-1.09-.55-1.62-.16-.5-.33-.99-.52-1.48-.07-.24-.16-.48-.25-.72-.25-.69-.51-1.37-.77-2.06-.31-.83-.63-1.66-.97-2.48-.14-.34-.27-.67-.41-1.01-.38-.92-.76-1.83-1.17-2.73-.18-.42-.36-.83-.55-1.25-.31-.69-.63-1.38-.95-2.07-.24-.52-.49-1.04-.75-1.55-.28-.58-.57-1.17-.86-1.74-.38-.77-.77-1.53-1.18-2.29-.34-.64-.68-1.28-1.02-1.91-1.43-2.61-2.94-5.16-4.53-7.64-.31-.48-.62-.96-.94-1.44-1.18-1.8-2.4-3.55-3.66-5.27-.26-.36-.52-.72-.79-1.07-.32-.43-.64-.85-.97-1.27-.36-.48-.73-.95-1.1-1.42-.16-.2-.31-.39-.47-.58-.35-.43-.69-.86-1.05-1.28-1.28-1.57-2.6-3.09-3.97-4.56-.31-.35-.63-.7-.96-1.04-1.21-1.3-2.46-2.57-3.73-3.78-.35-.35-.71-.68-1.06-1.02-.3-.29-.61-.57-.91-.85-.26-.23-.52-.47-.78-.7-.43-.4-.87-.79-1.31-1.17,2.94-8.06,13.52-29.14,49.17-56.92,15.05-11.73,34.57-24.66,59.88-38.3.14-.08.26-.02.32.03.07.05.15.13.12.27-.6,2.98-4.28,10.55-22.15,27.76-.77.52-3.97,3.26-3.97,13.05,0,3.95.52,9.05,1.93,15.62,1.14,5.31,2.86,11.58,5.37,18.99Z"/>
  <path class="cls-2" d="M127.08,409.98c-1.61,4.46-3.65,7.78-6.13,9.94-2.35,2.07-5.1,3.08-8.23,3.04-5.41-.08-10.28-3.57-12.42-8.88-12.18-30.07,4.35-47.98,13.7-55.21,1.99-1.55,3.66-2.6,4.65-3.19,2.04,1.96,4.14,3.84,6.25,5.59-.08.72-.14,1.46-.2,2.24-.04.46-.08.93-.12,1.41-.01.19-.03.37-.04.56-.05.56-.08,1.14-.12,1.72-.01.15-.02.3-.03.45-.04.67-.08,1.36-.11,2.07-.02.36-.04.74-.05,1.11-.03.75-.06,1.52-.08,2.3-.01.29-.02.59-.02.89-.01.5-.02,1-.03,1.51,0,.4,0,.8,0,1.2-.02,1.6-.01,3.26.03,4.96.01.57.03,1.14.05,1.72.01.49.03.98.05,1.47.01.33.03.65.04.98v.03c.03.63.06,1.27.1,1.91l.03.39c.01.29.03.59.05.88.03.48.06.96.1,1.45.04.51.08,1.02.12,1.54.14,1.71.3,3.45.5,5.22.08.69.16,1.39.25,2.1.09.7.18,1.41.28,2.12.1.72.2,1.43.31,2.16.21,1.36.43,2.73.68,4.12.03.17.06.35.09.52.1.56.2,1.12.31,1.68Z"/>
  <path class="cls-2" d="M237.11,521.66c-1.84,4.54-10.59,8.19-10.68,8.22h-.01c-15.31,6.44-29.39,11.13-42.14,14.07-12.2,2.82-23.2,4.04-32.9,3.64-16.47-.69-25.69-5.93-30.53-10.21-2.93-2.6-4.2-6.64-3.31-10.56,8.41-37.13,44.94-41.35,49.07-41.71.27.26.54.52.81.77.57.55,1.14,1.09,1.72,1.62.13.12.25.23.38.35.79.74,1.6,1.46,2.42,2.17.7.62,1.41,1.23,2.13,1.83.11.11.21.2.32.27.44.38.88.75,1.33,1.11.12.11.25.21.38.31.75.62,1.51,1.22,2.28,1.82.83.65,1.67,1.29,2.51,1.93,1.7,1.27,3.43,2.51,5.19,3.71.91.62,1.82,1.23,2.73,1.81.57.37,1.15.74,1.73,1.1.66.42,1.32.82,1.98,1.21.44.28.89.54,1.34.79.62.37,1.25.73,1.88,1.08.78.43,1.55.85,2.33,1.26.78.41,1.55.81,2.33,1.2.66.33,1.32.65,1.99.96.48.23.96.45,1.45.67.69.32,1.39.63,2.09.92.77.33,1.54.65,2.31.96.59.23,1.18.46,1.77.68.53.2,1.07.4,1.6.59,1.77.63,3.54,1.2,5.31,1.71.65.19,1.3.37,1.95.54.32.09.63.17.95.25,1.51.38,3.01.72,4.52,1.01.51.1,1.02.2,1.54.29.24.05.48.09.73.13.67.11,1.33.22,2,.31.69.1,1.39.19,2.08.27.27.03.54.06.81.09.54.06,1.09.11,1.63.16s1.08.09,1.63.12c.57.04,1.14.07,1.72.09.28.02.55.03.83.04.21.78.15,1.58-.2,2.42Z"/>
  <path class="cls-2" d="M400.77,513.34c-.35,1.81-1.43,3.41-2.97,4.41-5.82,3.76-20.35,13.14-41.29,15.99-7.67,1.04-16.2,1.21-25.48-.09-36.57-5.15-39.97-19.06-42.23-28.26-.05-.22-.1-.44-.16-.66,2.48-1.47,5.03-3.1,7.59-4.84,1.63-1.11,3.17-2.2,4.63-3.27.48-.35.95-.7,1.42-1.05.46-.35.92-.7,1.37-1.05,1.35-1.04,2.62-2.07,3.81-3.09.39-.33.78-.67,1.16-1.01.48-.42.95-.84,1.4-1.27.27-.24.53-.49.78-.73.34-.33.68-.66,1.01-.98.33-.33.65-.66.96-.99.28-.29.55-.58.82-.87.22-.23.42-.46.62-.68.25-.29.49-.57.73-.85.68-.8,1.31-1.6,1.88-2.39.59-.8,1.13-1.6,1.62-2.4.01-.02.02-.03.02-.05h0c.48-.79.91-1.58,1.3-2.37.11-.21.21-.42.3-.64.2-.42.38-.84.55-1.26.13-.32.25-.64.36-.96.56-1.57.94-3.16,1.16-4.76,14.19,1.94,56.85,10.06,77.54,39.05,1.04,1.47,1.43,3.27,1.09,5.07Z"/>
  <path class="cls-4" d="M506.75,385.53c-3.29,11.33-8.99,22.72-17.1,34.15-19.65,27.71-41.41,32.17-56.19,31.03-19.21-1.48-34.73-13.2-40.14-24.01-3.76-7.52-6.16-13.24-7.74-18.52l-.04-.16c-4.97-16.66-2.05-31.08,9.75-48.22,17.87-25.94,38.88-13.77,39.77-13.24,0,0-33.61,39.54-12.17,60.32,21.42,20.75,73.01,14.18,83.86-21.35Z"/>
  <path class="cls-2" d="M316.35,406.82c-3.36.4-7.81-1.26-12.19-3.93-7.68-4.67-15.16-12.44-16.22-17.63h0s-.07-.39-.07-.39c-.1-.76-.23-1.53-.37-2.22-.01-.12-.04-.27-.05-.32-.34-2.18-.59-4.26-.85-6.47-.13-1.05-.26-2.11-.4-3.2-.03-.22-.06-.45-.08-.67-.02-.13-.04-.25-.05-.38-.1-.75-.21-1.51-.33-2.29-.05-.38-.11-.76-.18-1.15-.06-.39-.12-.78-.19-1.18.05-.04.11-.08.16-.12,0-.01.02-.01.03-.02.09-.07.18-.14.27-.2.92-.69,1.82-1.39,2.69-2.11.39-.32.77-.64,1.15-.97,1.38-1.2,2.64-2.31,4.15-3.68,1.1.15,2.16.47,3.18.98.31.15.64.32.98.49,7.84,4.09,23.73,14.8,24.34,34.67.21,6.68-1.8,10.31-5.97,10.79Z"/>
  <path class="cls-4" d="M320.26,468.01c-.89,9.78-8.41,18.82-25.15,30.22-2.75,1.87-5.48,3.61-8.13,5.16l-.65.38c-6.29,3.64-12.5,6.54-18.67,8.7-9.9,3.47-19.7,5.05-29.61,4.79-16.95-.41-34.06-6.44-50.85-17.92-7.07-4.84-13.63-10.21-19.51-15.97l-.32-.31c-19.78-19.52-32.64-44.05-38.23-72.92l-.05-.27c-.74-3.85-1.32-7.61-1.76-11.24-.13-1.08-.25-2.15-.35-3.2-.11-.99-.2-1.98-.28-2.95-.09-1.03-.17-2.05-.23-3.05-.02-.25-.04-.51-.05-.77-.27-4.22-.36-8.21-.33-11.93,0-.4,0-.8,0-1.2.02-1.79.08-3.52.15-5.17.02-.42.04-.83.06-1.23.04-.81.09-1.6.14-2.36.03-.39.05-.77.08-1.14.03-.4.06-.8.09-1.18.04-.57.09-1.11.14-1.65.38.3.76.59,1.12.87.65.5,1.3,1,1.95,1.48.28.21.57.42.85.63.11.08.21.16.32.24.22.16.44.32.67.48.03.02.05.04.08.05.35.27.71.52,1.06.76.07.05.15.1.22.15.07.05.13.1.2.14.53.38,1.07.75,1.61,1.11.59.4,1.18.79,1.77,1.17.98.64,1.97,1.26,2.97,1.86,1.6.96,3.2,1.89,4.82,2.77,1.61.88,3.24,1.71,4.87,2.51.82.4,1.64.79,2.46,1.16.71.33,1.42.64,2.13.95.48.21.95.42,1.42.61.04.02.09.04.13.05.3.13.6.25.9.38.3.12.6.24.9.36.66.27,1.32.53,1.98.78.83.32,1.67.63,2.5.93.03.01.05.02.08.03.79.28,1.57.55,2.36.81.07.02.13.04.2.07.8.26,1.6.52,2.4.77,1.68.52,3.37,1.01,5.06,1.45.83.22,1.66.43,2.49.64.07,0,.14.03.21.05.79.19,1.59.37,2.38.55.57.13,1.14.25,1.71.36.08.02.16.04.24.05.09.02.19.04.28.06.26.06.53.11.79.16.06.01.13.03.19.04.63.13,1.25.25,1.88.36.05,0,.11.02.16.03.59.11,1.19.21,1.78.31.16.02.31.05.46.07.31.05.63.1.95.15.16.03.31.05.47.08.55.08,1.1.16,1.65.24.52.08,1.05.15,1.57.21.41.05.81.1,1.21.15.65.08,1.3.15,1.95.22.67.07,1.34.14,2.01.2.33.03.65.06.97.08.14.01.28.03.43.04.54.05,1.08.09,1.63.12.53.04,1.05.07,1.57.1h.04c.21.02.41.03.62.04s.41.02.62.03c.73.04,1.46.07,2.19.09.78.03,1.57.05,2.35.07.89.01,1.78.02,2.67.02,1.91,0,3.81-.04,5.71-.11,1.53-.06,3.05-.14,4.56-.25.43-.02.86-.06,1.29-.09,1.81-.14,3.61-.31,5.39-.51.77-.09,1.55-.18,2.32-.29.54-.07,1.08-.14,1.62-.22.64-.08,1.27-.17,1.9-.27.92-.14,1.83-.28,2.74-.44.45-.07.91-.15,1.36-.24.46-.08.91-.17,1.36-.25.88-.16,1.76-.34,2.63-.52.09-.02.17-.03.25-.05.21-.04.43-.09.64-.14.42-.09.84-.18,1.25-.27.19-.04.37-.09.56-.13.73-.16,1.46-.33,2.18-.51.05-.01.11-.02.16-.04.56-.13,1.11-.26,1.65-.41.1-.03.19-.05.29-.08.3-.07.59-.15.88-.22.06-.02.12-.03.18-.05.14-.04.28-.07.42-.11.13-.04.27-.07.4-.11.03,0,.06-.02.09-.03.5-.13.99-.27,1.49-.41.42-.12.84-.24,1.25-.36.42-.12.83-.24,1.25-.37.83-.25,1.65-.51,2.46-.77.4-.13.8-.26,1.2-.39.4-.13.79-.27,1.18-.4.94-.32,1.87-.64,2.78-.99.6-.21,1.18-.43,1.77-.65.02,0,.05-.02.07-.03.94-.36,1.86-.72,2.77-1.1.01,0,.01,0,.02,0,.62-.25,1.24-.5,1.85-.77.66-.28,1.32-.57,1.97-.86.21-.09.42-.19.62-.28.01-.01.03-.01.04-.02.57-.25,1.12-.52,1.67-.78h.02c.11-.05.22-.11.33-.16.04-.02.08-.04.12-.06.54-.26,1.08-.52,1.61-.79.62-.3,1.22-.61,1.82-.93.52-.26,1.03-.54,1.54-.82.53-.28,1.05-.57,1.57-.87.06-.03.12-.06.18-.1.5-.28,1-.57,1.49-.87.16-.09.32-.18.48-.29.1-.06.2-.12.3-.18.42-.25.84-.51,1.26-.77.58-.36,1.15-.73,1.71-1.1.55-.36,1.08-.73,1.61-1.09.01,0,.03-.02.04-.03.44,2.76.75,5.32,1.05,7.8.27,2.22.52,4.32.88,6.6.01.05.02.1.03.2.01.01.01.03.01.04.1.72.22,1.48.36,2.23l.09.48s.01.05.02.07c1.46,7.95,4.51,18.92,15.82,39.8,3.09,5.71,6.76,12.1,10.91,19,1.61,2.65,2.97,5.18,4.05,7.53,2.77,6,3.91,11.22,3.48,15.96Z"/>
  <path class="cls-8" d="M333.22,292.55c0,15.2-11.89,36.77-32.17,57.56-2.51,2.59-5.16,5.16-7.93,7.7-.11.1-.22.2-.33.3-1.36,1.25-2.81,2.54-4.42,3.94-.6.52-1.21,1.03-1.84,1.53-.22.18-.44.35-.67.53-.28.22-.58.45-.87.67h-.01v-.08s-1.33,1.07-1.33,1.07c-.09.08-.19.15-.28.21l-.18.12v.02c-.36.26-.72.51-1.09.76-.31.22-.62.43-.94.64-.34.23-.69.46-1.05.69-.29.19-.58.38-.88.56-.79.5-1.6,1-2.43,1.48-.34.2-.68.4-1.03.6-.45.26-.92.52-1.4.79-.54.3-1.09.59-1.64.88-.58.31-1.17.61-1.76.91-.16.08-.32.16-.48.24-.64.32-1.28.63-1.94.94-.56.27-1.13.53-1.7.79-.21.1-.42.19-.63.28-.11.05-.21.1-.32.14-.09.04-.17.08-.26.12-.43.2-.88.4-1.33.58-1.45.62-2.93,1.22-4.44,1.8-.54.21-1.09.41-1.64.61-.41.16-.82.3-1.23.45-.79.29-1.58.56-2.39.83-.39.13-.79.27-1.19.39-.47.16-.94.32-1.42.46-.12.04-.25.08-.37.12-.09.03-.17.05-.26.08-.13.04-.27.08-.4.12-.49.16-.99.3-1.49.45-.5.15-1,.29-1.5.44-.85.24-1.71.47-2.58.7-.53.14-1.08.28-1.62.41-.51.14-1.02.26-1.53.38-.36.09-.72.18-1.09.26-.56.13-1.14.26-1.71.39-.04,0-.07.01-.11.02-.53.12-1.06.23-1.59.34-.72.15-1.44.3-2.16.43-.72.14-1.43.27-2.15.4-.51.1-1.03.18-1.55.27-1.61.27-3.24.51-4.88.73-.68.09-1.37.18-2.07.26-.28.04-.57.07-.86.1-.78.09-1.57.18-2.37.26-.66.06-1.32.12-1.98.17-.53.05-1.05.09-1.58.13-.47.02-.96.06-1.44.09-.1.01-.2.01-.3.02-.1.01-.19.02-.29.02-.1.01-.19.01-.29.02-.78.05-1.57.09-2.35.12-.29.01-.59.02-.88.03-.81.03-1.62.06-2.43.07-.95.02-1.91.03-2.86.03h-.02c-.74,0-1.48-.01-2.23-.02-.48,0-.97-.02-1.46-.03-.62-.01-1.24-.03-1.86-.06-.76-.03-1.53-.07-2.3-.11-.14-.01-.27-.01-.41-.02-.47-.03-.94-.05-1.42-.09-.16-.01-.31-.02-.47-.03-.75-.05-1.49-.11-2.24-.18-.83-.07-1.66-.15-2.49-.24h0c-1.67-.17-3.33-.38-5-.62-.96-.14-1.92-.29-2.88-.45-.71-.11-1.43-.24-2.14-.37-.83-.15-1.67-.31-2.5-.48-.76-.15-1.52-.31-2.28-.48-.13-.03-.25-.06-.38-.09-.1-.02-.19-.04-.29-.06-.68-.15-1.38-.31-2.06-.49-.62-.15-1.23-.3-1.85-.47-.42-.11-.84-.21-1.26-.33-.42-.11-.84-.23-1.26-.35-.53-.14-1.06-.3-1.59-.46-.53-.15-1.06-.31-1.59-.48-.02-.01-.04-.01-.06-.02-.63-.19-1.25-.39-1.88-.6-.37-.12-.73-.24-1.1-.37-.54-.18-1.07-.36-1.61-.55-.6-.22-1.2-.44-1.8-.66-.03-.01-.06-.02-.09-.03-.1-.03-.19-.07-.29-.11-.37-.13-.75-.28-1.12-.43-.41-.16-.82-.32-1.22-.48-.41-.16-.82-.32-1.22-.5-.61-.25-1.22-.5-1.83-.76-.06-.03-.12-.05-.17-.08-.03-.01-.06-.03-.09-.04-.01-.01-.03-.01-.04-.02-.06-.02-.11-.05-.17-.07-.52-.22-1.04-.46-1.56-.7-.12-.05-.25-.11-.37-.17-.06-.02-.11-.04-.16-.07-.56-.25-1.12-.52-1.67-.79-.46-.21-.92-.43-1.38-.67-.33-.15-.65-.32-.97-.48-.08-.04-.15-.08-.23-.12-.31-.16-.63-.32-.93-.48-.08-.04-.17-.08-.25-.13-.48-.24-.95-.5-1.42-.75-.04-.02-.07-.04-.11-.06-.11-.05-.21-.11-.31-.17-.76-.41-1.52-.83-2.27-1.26-1.37-.79-2.73-1.61-4.07-2.46-.17-.1-.35-.22-.53-.33-.17-.1-.34-.22-.52-.34-1.24-.79-2.47-1.61-3.69-2.47-.43-.29-.85-.59-1.27-.9-1.29-.92-2.56-1.87-3.82-2.85-.71-.55-1.4-1.11-2.1-1.68-.14-.11-.28-.23-.42-.34-.48-.39-.95-.79-1.43-1.2-.65-.55-1.31-1.13-1.96-1.71-.18-.15-.36-.32-.54-.48l-.02-.02s-.07-.06-.1-.09c-.43-.39-.86-.79-1.29-1.19-.59-.54-1.17-1.09-1.74-1.66h-.01c-.18-.17-.36-.35-.53-.52-.44-.43-.88-.87-1.31-1.3-46.17-46.85-26.41-83.78-20.85-92.15.1.4.2.8.31,1.2.13.54.27,1.07.41,1.59.04.12.07.24.1.36.13.49.27.98.4,1.46.14.49.28.98.41,1.46.25.88.51,1.74.76,2.57.31,1.03.62,2.03.92,2.99.27.84.53,1.65.8,2.43.01.06.03.11.05.16.25.75.5,1.48.74,2.17.43,1.26.86,2.43,1.26,3.51.49,1.33.95,2.52,1.37,3.57.2.52.4,1,.58,1.45.13.31.24.59.35.86.14.32.26.61.37.87.09.2.17.38.24.55.1.24.19.44.27.61.17.39.26.59.27.61l.12.24.22.15c.14.1.45.31.91.63.24.16.51.34.82.55.62.42,1.38.94,2.28,1.53.31.21.65.44,1,.67.16.1.32.21.49.32.33.22.68.44,1.04.68.18.12.37.24.55.36.46.3.93.61,1.43.94.43.27.87.56,1.33.85.53.33,1.06.68,1.62,1.04.27.17.54.34.82.51.92.59,1.88,1.19,2.88,1.81,3.06,1.9,6.43,3.94,9.98,6,.89.52,1.78,1.03,2.69,1.55,5.14,2.92,10.56,5.81,15.87,8.33.79.38,1.57.75,2.35,1.1,8.85,4.04,17.22,6.88,23.26,6.88,1.98,0,3.72-.31,5.13-.98,3.85-1.83,13.19-3.81,25.02-6.33,4.54-.96,9.48-2.01,14.67-3.17,35.26-7.87,82.39-20.86,98.85-47.56l.86-1.46c2.62,6.3,5.88,12.53,9.71,18.57,1.97,3.11,2.91,6.89,2.91,11.17Z"/>
  <path class="cls-10" d="M326.41,228.51c0,12.06-2.22,22.93-6.58,31.5-.57,1.13-1.17,2.21-1.79,3.21-18.43,29.91-77.15,42.38-112.24,49.83-11.95,2.54-21.39,4.54-25.46,6.48-1.23.58-2.74.85-4.49.85-5.27,0-12.65-2.44-20.61-6-.89-.4-1.78-.8-2.68-1.23-3.59-1.69-7.26-3.57-10.88-5.52-.9-.49-1.8-.98-2.7-1.48-1.35-.74-2.68-1.49-3.99-2.25-.44-.25-.87-.5-1.31-.75-.87-.5-1.73-1-2.57-1.5-6.35-3.74-12.04-7.35-16.2-10.06-.56-.36-1.08-.7-1.58-1.03-2.74-1.8-4.6-3.06-5.22-3.49-.81-1.8-5.94-13.42-9.89-29.9-4.71-19.68-8.36-48.99,1.03-76.85,4.69-13.91,11.65-26.01,20.71-35.99l.6-.66c1.23-1.33,2.5-2.62,3.81-3.88,2.33-2.23,4.78-4.34,7.35-6.3,2.47-1.92,5.04-3.71,7.71-5.38,1.56-.97,3.15-1.9,4.78-2.79,4.07-2.22,8.35-4.19,12.83-5.9,1.79-.69,3.61-1.33,5.47-1.93s3.74-1.16,5.66-1.67c3.84-1.03,7.79-1.89,11.86-2.59h0c2.04-.34,4.1-.64,6.19-.91h.01c3.14-.38,6.34-.68,9.6-.88,0-.01,0-.01.02,0,4.38-.26,8.87-.35,13.47-.26,9.21.18,18.96,1.07,28.98,2.66,16.57,2.62,31.74,9.68,45.09,20.99l.52.44c18.71,16.06,33,40.31,39.21,66.52l.25,1.09c2.02,8.86,3.03,17.51,3.03,25.63Z"/>
  <path class="cls-6" d="M285.37,366.98h0s.11-.07.16-.11c-.05.04-.1.08-.16.11ZM285.37,366.98h0s.11-.07.16-.11c-.05.04-.1.08-.16.11ZM285.37,366.98h0s.11-.07.16-.11c-.05.04-.1.08-.16.11ZM283.19,366.1v.02s.02-.01.03-.02l.15-.12-.18.12ZM285.37,366.98h0s.11-.07.16-.11c-.05.04-.1.08-.16.11ZM287.5,382.65c.11.7.24,1.46.37,2.22-.1-.76-.23-1.53-.37-2.22ZM285.37,366.98h0s.11-.07.16-.11c-.05.04-.1.08-.16.11ZM285.37,366.98h0s.11-.07.16-.11c-.05.04-.1.08-.16.11Z"/>
  <path class="cls-6" d="M124.9,361.27c-.08.72-.14,1.46-.2,2.24.06-.77.13-1.52.21-2.24h0Z"/>
  <path class="cls-6" d="M166.73,383.92c1.68.52,3.37,1.01,5.06,1.45-1.69-.45-3.38-.93-5.06-1.45Z"/>
  <path class="cls-6" d="M186.24,112.32c3.14-.38,6.34-.68,9.6-.88-3.27.19-6.47.49-9.6.88ZM180.04,113.23c2.04-.34,4.1-.64,6.19-.91-2.09.26-4.16.56-6.19.91ZM168.17,115.82c3.84-1.03,7.79-1.89,11.86-2.59-4.07.69-8.03,1.55-11.86,2.59ZM168.17,115.82c3.84-1.03,7.79-1.89,11.86-2.59-4.07.69-8.03,1.55-11.86,2.59ZM180.04,113.23c2.04-.34,4.1-.64,6.19-.91-2.09.26-4.16.56-6.19.91ZM186.24,112.32c3.14-.38,6.34-.68,9.6-.88-3.27.19-6.47.49-9.6.88ZM168.17,115.82c3.84-1.03,7.79-1.89,11.86-2.59-4.07.69-8.03,1.55-11.86,2.59ZM180.04,113.23c2.04-.34,4.1-.64,6.19-.91-2.09.26-4.16.56-6.19.91ZM186.24,112.32c3.14-.38,6.34-.68,9.6-.88-3.27.19-6.47.49-9.6.88ZM186.24,112.32c3.14-.38,6.34-.68,9.6-.88-3.27.19-6.47.49-9.6.88ZM180.04,113.23c2.04-.34,4.1-.64,6.19-.91-2.09.26-4.16.56-6.19.91ZM168.17,115.82c3.84-1.03,7.79-1.89,11.86-2.59-4.07.69-8.03,1.55-11.86,2.59ZM186.24,112.32c3.14-.38,6.34-.68,9.6-.88-3.27.19-6.47.49-9.6.88ZM180.04,113.23c2.04-.34,4.1-.64,6.19-.91-2.09.26-4.16.56-6.19.91ZM171.84,112.86c1.56-.37,3.14-.71,4.74-1.02-1.6.31-3.18.64-4.74,1.02ZM168.17,115.82c3.84-1.03,7.79-1.89,11.86-2.59-4.07.69-8.03,1.55-11.86,2.59Z"/>
  <path class="cls-2" d="M333.22,292.55c0,.41,0,.83-.03,1.25,0,.12-.01.25-.01.38-.02.36-.05.73-.09,1.11,0,.07-.01.15-.02.22,0,.08-.01.15-.02.23,0,.04-.01.07-.01.11-.03.37-.08.74-.13,1.12v.05c-.07.47-.14.94-.22,1.41-.01.03-.01.07-.02.1-.09.52-.19,1.05-.31,1.58-.01.03-.01.07-.02.1-.1.46-.2.92-.32,1.39-.03.14-.07.28-.11.43-.11.44-.23.88-.36,1.33-.13.48-.28.96-.44,1.46-.06.21-.13.42-.21.64-.1.3-.2.61-.3.91-.08.23-.16.47-.25.7-.19.55-.4,1.11-.62,1.66-.17.45-.35.9-.54,1.35-.05.12-.1.24-.15.36-.19.47-.4.96-.61,1.44-.05.1-.09.2-.14.3-.21.48-.43.96-.66,1.44-.32.67-.65,1.35-.99,2.04-.29.57-.59,1.15-.9,1.72-.32.62-.66,1.23-1,1.85-.3.54-.6,1.07-.91,1.61-.04.08-.09.17-.15.25-.37.63-.74,1.25-1.12,1.88-.39.63-.78,1.26-1.18,1.89-.41.63-.82,1.27-1.24,1.91-.4.62-.82,1.24-1.26,1.87-.01.02-.03.04-.05.07-.28.41-.56.82-.86,1.23-.04.05-.07.1-.11.15-.2.3-.42.6-.65.91-.36.51-.73,1.03-1.12,1.54-.47.65-.96,1.29-1.46,1.94-1.31,1.72-2.7,3.46-4.16,5.2-.34.42-.7.84-1.06,1.26-.04.04-.07.09-.11.13-.34.41-.69.81-1.05,1.22-.39.46-.8.93-1.22,1.39-.13.15-.26.29-.39.44-.61.69-1.24,1.39-1.89,2.09-.47.51-.94,1.03-1.44,1.54-.73.78-1.48,1.57-2.26,2.35,2.23-8.39,5.67-27-6.92-29.72-16.34-3.53-57.7,9.49-66.64-3.02-1.71-2.39-3.99-4.18-6.6-5.53,2.39-.53,4.84-1.09,7.33-1.68.66-.15,1.32-.31,1.99-.47.66-.16,1.33-.32,1.99-.48,1.34-.32,2.69-.65,4.06-1,.94-.23,1.88-.47,2.82-.71.12-.03.25-.06.37-.09.09-.03.17-.05.26-.07.08-.02.15-.04.23-.06.1-.03.21-.05.31-.08,2.23-.58,4.46-1.19,6.71-1.81.12-.03.24-.07.36-.1.1-.03.19-.06.29-.08.06-.02.11-.03.17-.05.65-.19,1.31-.38,1.96-.56.92-.27,1.84-.53,2.77-.81.07-.02.13-.04.2-.06.96-.28,1.93-.57,2.89-.87.42-.13.84-.26,1.26-.39.95-.29,1.9-.6,2.85-.9.02-.01.03-.01.05-.02h.01c1.1-.36,2.19-.72,3.28-1.09.82-.27,1.63-.55,2.44-.84.98-.34,1.96-.68,2.93-1.04.07-.02.13-.05.2-.07.72-.26,1.44-.53,2.16-.8.87-.32,1.73-.65,2.59-.99.25-.1.49-.19.74-.29,1-.39,1.98-.79,2.96-1.19.67-.27,1.33-.55,1.99-.84.57-.24,1.13-.48,1.69-.73.75-.32,1.5-.66,2.24-1,.74-.33,1.48-.68,2.21-1.02.72-.34,1.43-.69,2.14-1.04.05-.02.09-.05.14-.07.99-.49,1.96-.98,2.91-1.48,1.88-.99,3.72-2.01,5.5-3.07.49-.29.98-.58,1.46-.88.35-.21.68-.42,1.02-.63.39-.25.77-.49,1.15-.74.47-.3.94-.61,1.41-.93.93-.62,1.84-1.26,2.73-1.91.44-.32.88-.65,1.32-.98.38-.29.76-.58,1.14-.88.28-.21.56-.44.83-.67.41-.33.82-.66,1.23-1.01.33-.28.66-.56.98-.84.25-.22.5-.44.74-.66.54-.49,1.07-.99,1.59-1.49.07-.07.15-.15.22-.22.27-.26.52-.51.78-.77.32-.32.63-.64.94-.97.23-.23.45-.47.66-.71.27-.29.54-.59.8-.89s.52-.6.77-.9c.29-.34.58-.69.85-1.05.17-.21.33-.41.49-.62.24-.31.48-.62.7-.94.03-.03.05-.06.07-.09.02-.03.04-.05.05-.08.25-.34.49-.68.72-1.02.42-.6.82-1.21,1.2-1.83l.86-1.46c2.62,6.3,5.88,12.53,9.71,18.57,1.97,3.11,2.91,6.89,2.91,11.17Z"/>
  <circle class="cls-11" cx="111.53" cy="224.16" r="15.42"/>
  <path class="cls-13" d="M280.31,218.71c-4.26-41.85-32.83-60.93-57.58-60.94h-.03c-9.45,0-18.26,3.92-25.48,11.34-2.77,2.85-5.26,6.18-7.42,9.87.41-5.68-.4-10.89-2.43-15.51-3.69-8.36-11.29-14.52-21.4-17.37-10.43-2.93-20.94-1.44-30.39,4.31-13.28,8.07-22.85,23.42-26.94,43.21-2.53,12.25-.43,23.95,5.93,32.96,5.09,7.23,12.61,12.01,20.61,13.13,1.18.17,2.37.25,3.56.25,14.81,0,30.21-12.61,42.24-34.68-.58,4.2-.82,8.49-.7,12.79.4,14.13,5.5,26.87,14.37,35.88,8.19,8.32,18.79,12.87,29.97,12.87.4,0,.79-.01,1.18-.02,13.5-.38,33.42-6.95,45.27-20.44,6.2-7.06,9.43-15.3,9.43-23.99,0-1.21-.06-2.43-.19-3.66ZM181.23,200.51c-12.65,25.14-30.19,39.4-45.77,37.22-7.46-1.04-14.48-5.52-19.26-12.3-4.36-6.18-6.6-13.72-6.6-21.83,0-3.12.33-6.32,1-9.57,3.98-19.25,13.22-34.13,26.02-41.92,5.97-3.63,12.39-5.47,18.94-5.47,3.27,0,6.58.46,9.87,1.39,9.53,2.68,16.67,8.45,20.11,16.25,2.52,5.72,3.02,12.45,1.54,19.91-.89,4.51-2.51,9.28-4.85,14.26-.32.68-.65,1.37-1,2.06ZM269.56,245.04c-11.45,13.05-30.74,19.39-43.81,19.76-20.7.61-42.62-16.75-43.47-46.79-.19-6.43.46-12.83,1.84-18.91,1.14-5.05,2.78-9.88,4.87-14.31,2.58-5.48,5.84-10.36,9.66-14.29,6.83-7.02,15.15-10.73,24.05-10.73h.02c11.94.01,24.81,4.64,35.21,14.35,10.39,9.7,18.33,24.48,20.39,44.79.98,9.6-1.97,18.4-8.76,26.13Z"/>
  <path class="cls-7" d="M269.56,245.04c-11.45,13.05-30.74,19.39-43.81,19.76-20.7.61-42.62-16.75-43.47-46.79-.19-6.43.46-12.83,1.84-18.91,1.14-5.05,2.78-9.88,4.87-14.31,2.58-5.48,5.84-10.36,9.66-14.29,6.83-7.02,15.15-10.73,24.05-10.73h.02c11.94.01,24.81,4.64,35.21,14.35,10.39,9.7,18.33,24.48,20.39,44.79.98,9.6-1.97,18.4-8.76,26.13Z"/>
  <path class="cls-7" d="M187.08,184.19c-.89,4.51-2.51,9.28-4.85,14.26-.32.68-.65,1.37-1,2.06-12.65,25.14-30.19,39.4-45.77,37.22-7.46-1.04-14.48-5.52-19.26-12.3-4.36-6.18-6.6-13.72-6.6-21.83,0-3.12.33-6.32,1-9.57,3.98-19.25,13.22-34.13,26.02-41.92,5.97-3.63,12.39-5.47,18.94-5.47,3.27,0,6.58.46,9.87,1.39,9.53,2.68,16.67,8.45,20.11,16.25,2.52,5.72,3.02,12.45,1.54,19.91Z"/>
  <path class="cls-14" d="M148.05,252.51s26.08-4.85,41.4,20.43"/>
  <path class="cls-6" d="M255.78,300.71c-1.9,1.32-3.9,2.62-6.02,3.87t-.02.01c-.65.18-1.31.37-1.96.56-.06.02-.11.03-.17.05-.1.02-.19.05-.29.08-.12.03-.24.07-.36.1-.39.11-.78.22-1.17.32l-.47-.88c1.24-.68,2.45-1.37,3.62-2.08,2.28-.64,4.56-1.32,6.84-2.03Z"/>
  <path class="cls-6" d="M511.21,349.15c-3.21-19.32-13.72-38.66-31.25-57.49-14.3-15.37-36.37-23.87-60.57-23.32-25.8.57-50.19,11.5-65.26,29.22-22.09,25.99-22.28,47.89-22.47,69.06-.07,8.2-.15,16.67-1.5,25.26-3.34,21.33-18,29.15-26.97,31.96-7.75-14.39-11.47-23.91-13.48-30.99,6,7.84,17.65,16.03,25.65,16.03.42,0,.83-.02,1.22-.07,3.7-.43,8.05-3,7.74-12.84-.68-21.83-18.71-33.07-26.44-36.9-.73-.36-1.48-.64-2.25-.84,14.61-13.65,26.34-28.62,33.11-42.33,7.39-14.96,8.52-27.27,3.26-35.58-4.08-6.45-7.5-13.12-10.19-19.83,7.36-14.78,8.61-35.95,3.46-58.3,20.84-7.72,36.99-19.65,46.74-34.53,10.54-16.1,12.72-34.63,6.3-53.6-13.3-39.29-4.21-45.3-4.14-45.35l.22-.16c17.41-16.75,22.01-24.95,22.8-28.88.17-.87-.17-1.75-.89-2.28-.73-.53-1.68-.6-2.47-.17-82.49,44.48-104.11,80.78-109.72,95.6-13.5-11.27-28.79-18.31-45.48-20.96-9.88-1.56-19.49-2.46-28.59-2.66-9.96-25.88-47.16-106.05-122.05-97.45-.79.09-1.43.62-1.67,1.39-.23.76.02,1.59.63,2.1,3.29,2.78,10.67,8.94,23.15,19.04,2.47,1.99,3.42,5.34,2.37,8.34-.49,1.36-1.06,2.92-1.7,4.64-7.8,21.04-25.98,70.07,7.59,95.87-9.19,10.16-16.26,22.45-21.01,36.55-9.46,28.09-5.91,57.56-1.18,77.49-3.45,4.63-30.61,44.73,20.06,96.13.31.32.61.63.93.94-6.78,4.17-33.72,23.53-18.72,60.59,2.45,6.06,8.04,10.04,14.25,10.13h.2c4.6,0,10.66-2.1,14.91-11.41,5.83,27.4,18.27,50.85,37,69.75-8.67,1.14-41.2,7.73-49.22,43.08-1.04,4.62.47,9.41,3.95,12.5,5.77,5.11,16.47,10.84,35.43,10.84,16.81,0,40.13-4.51,72.23-17.99.44-.18,9.62-4.01,11.78-9.31.43-1.06.56-2.11.39-3.14.24.01.48.01.72.01,15.6,0,30.92-4.43,46.76-13.51,0,.03,0,.06.02.09,2.24,9.13,5.98,24.42,43.89,29.76,4.67.66,9.15.95,13.43.95,14.08,0,25.99-3.15,35.27-6.87,9.27-3.72,15.91-8.01,19.43-10.28,2-1.29,3.4-3.37,3.85-5.72.45-2.33-.06-4.68-1.43-6.6-21.19-29.7-64.66-37.94-78.98-39.88.21-4.36-.76-9.05-2.96-14.28l.24.04c.28.04,3.48.47,8.38.47,5.62,0,13.47-.57,21.65-2.96,13.51-3.94,30.22-13.76,35.25-38.06,1.56,4.39,3.69,9.23,6.66,15.16,5.65,11.31,21.81,23.57,41.77,25.1,1.37.11,2.8.17,4.28.17,15.03,0,35.31-6.12,53.7-32.03,17.11-24.13,23.81-48.25,19.92-71.69ZM297,360.87c7.4,3.66,24.68,14.42,25.32,35.16.21,6.68-1.8,10.31-5.97,10.79-9.26,1.09-26.75-13.41-28.41-21.56h0s-.07-.39-.07-.39c-.13-.76-.26-1.52-.37-2.22-.01-.12-.04-.27-.05-.32-.34-2.18-.59-4.26-.85-6.47-.13-1.05-.26-2.11-.4-3.2-.03-.22-.06-.45-.08-.67-.02-.13-.04-.25-.05-.38-.1-.75-.21-1.51-.33-2.29-.05-.38-.11-.76-.18-1.15-.06-.39-.12-.78-.19-1.18h0c.06-.04.11-.08.16-.12,0-.01.02-.01.03-.02.09-.07.18-.14.27-.2.92-.69,1.82-1.39,2.69-2.11.39-.32.77-.64,1.15-.97,1.38-1.2,2.64-2.31,4.15-3.68,1.1.15,2.16.47,3.18.98ZM394.79,38.98c.14-.08.26-.02.32.03.07.05.15.13.12.27-.6,2.98-4.28,10.55-22.15,27.76-.77.52-3.97,3.26-3.97,13.05,0,7.15,1.7,18.06,7.3,34.61,12.14,35.86-8.1,69.34-51.6,85.53-.08-.31-.15-.62-.24-.93-.08-.33-.16-.66-.25-.99-.17-.64-.34-1.27-.52-1.91-.4-1.46-.83-2.92-1.29-4.36-.19-.62-.39-1.24-.59-1.84-.17-.55-.36-1.09-.55-1.62-.16-.5-.33-.99-.52-1.48-.07-.24-.16-.48-.25-.72-.25-.69-.51-1.37-.77-2.06-.31-.83-.63-1.66-.97-2.48-.14-.34-.27-.67-.41-1.01-.38-.92-.76-1.83-1.17-2.73-.18-.42-.36-.83-.55-1.25-.31-.69-.63-1.38-.95-2.07-.24-.52-.49-1.04-.75-1.55-.28-.58-.57-1.17-.86-1.74-.38-.77-.77-1.53-1.18-2.29-.34-.64-.68-1.28-1.02-1.91-.93-1.7-1.89-3.37-2.9-5.01.9-1.95,1.86-4.08,3.02-5.87,5.18-9.07,15.23-15.75,25.96-14.82-9.05-1.72-18.46,2.19-24.88,8.58-.29.31-1.84,2.02-2.17,2.38-1.6,1.83-2.99,3.9-4.27,6.01-.08-.12-.15-.23-.23-.35-1.18-1.8-2.4-3.55-3.66-5.27-.26-.36-.52-.72-.79-1.07-.32-.43-.64-.85-.97-1.27-.36-.48-.73-.95-1.1-1.42-.16-.2-.31-.39-.47-.58-.35-.43-.69-.86-1.05-1.28-1.28-1.57-2.6-3.09-3.97-4.56-.31-.35-.63-.7-.96-1.04-1.21-1.3-2.46-2.57-3.73-3.78-.35-.35-.71-.68-1.06-1.02-.3-.29-.61-.57-.91-.85-.26-.23-.52-.47-.78-.7-.43-.4-.87-.79-1.31-1.17,4.18-11.47,23.81-49.26,109.05-95.22ZM112.64,47.95c.65-1.73,1.23-3.29,1.71-4.67,1.34-3.79.14-8.03-2.99-10.56-12.47-10.08-19.84-16.23-23.14-18.99,3.69-.42,7.28-.62,10.78-.62,65.61,0,99.15,71.07,108.88,96.05-.66-.01-1.31-.01-1.97-.01-4.59,0-9.09.18-13.47.53-1.76.15-3.5.32-5.22.53-.42.04-.84.09-1.25.14-.98.12-1.96.25-2.93.4-.68.09-1.36.2-2.03.31-1.49.23-2.97.5-4.43.78-1.6.31-3.18.65-4.74,1.02-.44.09-.87.19-1.3.3-.91.22-1.81.45-2.7.69-.93.25-1.84.5-2.75.77-.41.12-.82.24-1.23.37-11.51-9.93-28.19-12.66-42.46-7.76,13.28-3.25,28.08-.11,38.19,9.15-.06.01-.12.04-.18.06-.78.27-1.56.55-2.33.84-.14.05-.29.1-.43.16-.52.19-1.04.4-1.56.6-.47.18-.94.37-1.4.56-1.69.7-3.34,1.42-4.96,2.19-.6.28-1.19.57-1.77.86-.62.3-1.22.61-1.82.92-.62.32-1.23.64-1.84.98-.72.39-1.42.79-2.12,1.19-.77.44-1.53.89-2.28,1.36-.67.41-1.34.83-2,1.27-.17.1-.35.21-.52.33-.41.27-.82.54-1.23.83-.42.27-.84.56-1.25.86-.3.21-.61.42-.9.64-.43.3-.86.62-1.28.94-.34.25-.68.5-1.01.77-.41.3-.81.61-1.21.94-.3.22-.59.46-.88.71-.47.37-.94.76-1.4,1.16-.12.09-.23.19-.35.3-.58.48-1.15.98-1.71,1.49-.13.11-.26.23-.39.36-.6.54-1.2,1.09-1.78,1.66-.61.58-1.21,1.17-1.8,1.77-.22.21-.42.42-.62.63-.29.29-.58.59-.86.89-32.57-24.88-14.72-73.05-7.07-93.7ZM99.25,180.32c4.69-13.91,11.65-26.01,20.71-35.99l.6-.66c1.23-1.33,2.5-2.62,3.81-3.88,2.33-2.23,4.78-4.34,7.35-6.3,2.47-1.92,5.04-3.71,7.71-5.38,1.56-.97,3.15-1.9,4.78-2.79,4.07-2.22,8.35-4.19,12.83-5.9,1.36-.53,2.75-1.02,4.15-1.48.19-.08.39-.14.58-.2.25-.09.49-.17.74-.25,1.86-.6,3.74-1.16,5.66-1.67,3.83-1.04,7.79-1.9,11.86-2.59h0c2.03-.35,4.1-.65,6.19-.91h.01c3.13-.39,6.33-.69,9.6-.88,0-.01,0-.01.02,0,4.38-.26,8.87-.35,13.47-.26,9.21.18,18.96,1.07,28.98,2.66,16.57,2.62,31.74,9.68,45.09,20.99l.52.44c8.17,7.01,15.49,15.58,21.66,25.19l.73,1.14h.01c7.61,12.15,13.42,25.87,16.81,40.19l.25,1.09c2.02,8.86,3.03,17.51,3.03,25.63,0,12.06-2.22,22.93-6.58,31.5-.57,1.13-1.17,2.21-1.79,3.21-10.97,17.8-36.22,29.43-62.26,37.49-2.28.71-4.56,1.39-6.84,2.03-15.45,4.43-30.77,7.68-43.14,10.31-2.64.56-5.15,1.1-7.51,1.61-.71.15-1.41.31-2.09.46-7.33,1.61-12.96,3.03-15.86,4.41-1.23.58-2.74.85-4.49.85-.49,0-1-.02-1.53-.07-.81-.06-1.67-.17-2.56-.33-4.72-.82-10.45-2.89-16.52-5.6-.89-.4-1.78-.8-2.68-1.23-1.07-.5-2.14-1.02-3.22-1.55-.66-.33-1.33-.67-2-1-1.89-.96-3.78-1.96-5.66-2.97-.9-.49-1.8-.98-2.7-1.48-1.35-.74-2.68-1.49-3.99-2.25-.44-.25-.87-.5-1.31-.75-.87-.5-1.73-1-2.57-1.5-6.35-3.74-12.04-7.35-16.2-10.06-.56-.36-1.08-.7-1.58-1.03-2.74-1.8-4.6-3.06-5.22-3.49-.81-1.8-5.94-13.42-9.89-29.9-4.71-19.68-8.36-48.99,1.03-76.85ZM175.58,322.3c.16.01.33.01.49.01,1.98,0,3.72-.31,5.13-.98,2.82-1.34,8.6-2.77,16.15-4.43,2.47,3.84,6.07,9.76,6.7,12.43.3,1.29.36,3.3-1.05,5.57-1.47,2.35-4.83,5.42-12.42,8.18-3.59-4.55-9.8-12.68-15-20.78ZM188.57,343.78c-2.12.69-4.52,1.35-7.26,1.97-20.63,4.69-30.89-16.75-31.97-19.15v-12.81c.38.19.75.36,1.12.54.79.38,1.57.75,2.35,1.1,7.46,3.41,14.59,5.96,20.26,6.67,5.21,8.32,11.63,16.76,15.5,21.68ZM96.8,259.75c.1.4.2.8.31,1.2.13.54.27,1.07.41,1.59.04.12.07.24.1.36.13.49.27.98.4,1.46.14.49.28.98.41,1.46.25.88.51,1.74.76,2.57.31,1.03.62,2.03.92,2.99.27.84.53,1.65.8,2.43.01.06.03.11.05.16.25.75.5,1.48.74,2.17.43,1.26.86,2.43,1.26,3.51.49,1.33.95,2.52,1.37,3.57.2.52.4,1,.58,1.45.13.31.24.59.35.86.14.32.26.61.37.87.09.2.17.38.24.55.1.24.19.44.27.61.17.39.26.59.27.61l.12.24.22.15c.14.1.45.31.91.63.24.16.51.34.82.55.62.42,1.38.94,2.28,1.53.31.21.65.44,1,.67.16.1.32.21.49.32.33.22.68.44,1.04.68.18.12.37.24.55.36.46.3.93.61,1.43.94.43.27.87.56,1.33.85.53.33,1.06.68,1.62,1.04.27.17.54.34.82.51.92.59,1.88,1.19,2.88,1.81,3.06,1.9,6.43,3.94,9.98,6,.89.52,1.78,1.03,2.69,1.55,4.14,2.35,8.46,4.68,12.75,6.82v14.19l.08.19c.1.24,9.33,21.21,28.21,21.21,1.94,0,3.98-.22,6.12-.71,2.98-.68,5.7-1.43,8.15-2.25.69-.23,1.36-.47,2-.71,6.35-2.39,10.64-5.33,12.79-8.78,1.79-2.85,1.69-5.42,1.31-7.08-.67-2.81-4.06-8.48-6.56-12.43,2.14-.46,4.41-.95,6.78-1.45,4.54-.96,9.48-2.01,14.67-3.17,2.39-.53,4.84-1.09,7.33-1.68.66-.15,1.32-.31,1.99-.47.66-.16,1.33-.32,1.99-.48,1.34-.32,2.69-.65,4.06-1,.93-.23,1.87-.48,2.82-.71.12-.03.25-.06.37-.09.09-.03.17-.05.26-.07.08-.02.15-.04.23-.06.1-.03.21-.05.31-.08,1.84-.48,3.68-.98,5.54-1.49.39-.1.78-.21,1.17-.32.12-.03.24-.07.36-.1.1-.03.19-.06.29-.08.06-.02.11-.03.17-.05.65-.19,1.31-.38,1.96-.56t.02-.01c.91-.26,1.83-.52,2.75-.8.07-.02.13-.04.2-.06.96-.28,1.93-.57,2.89-.87.42-.13.84-.26,1.26-.39.95-.29,1.9-.6,2.85-.9.02-.01.03-.01.05-.02h.01c1.1-.36,2.19-.72,3.28-1.09.82-.27,1.63-.55,2.44-.84.98-.34,1.96-.68,2.93-1.04.07-.02.13-.05.2-.07.72-.26,1.44-.53,2.16-.8.87-.32,1.73-.65,2.59-.99.25-.1.49-.19.74-.29,1-.39,1.98-.79,2.96-1.19.67-.27,1.33-.55,1.99-.84.57-.24,1.13-.48,1.69-.73.75-.32,1.5-.66,2.24-1,.74-.33,1.48-.68,2.21-1.02.72-.34,1.43-.69,2.14-1.04.05-.02.09-.05.14-.07.99-.49,1.96-.98,2.91-1.48,1.88-.99,3.72-2.01,5.5-3.07.49-.29.98-.58,1.46-.88.35-.21.68-.42,1.02-.63.39-.25.77-.49,1.15-.74.47-.3.94-.61,1.41-.93.93-.62,1.84-1.26,2.73-1.91.44-.32.88-.65,1.32-.98.38-.29.76-.58,1.14-.88.28-.21.56-.44.83-.67.41-.33.82-.66,1.23-1.01.33-.28.66-.56.98-.84.25-.22.5-.44.74-.66.54-.49,1.07-.99,1.59-1.49.07-.07.15-.15.22-.22.27-.26.52-.51.78-.77.32-.32.63-.64.94-.97.23-.23.45-.47.66-.71.27-.29.54-.59.8-.89s.52-.6.77-.9c.29-.34.58-.69.85-1.05.17-.21.33-.41.49-.62.24-.31.47-.62.7-.94.03-.03.05-.06.07-.09.02-.03.04-.05.05-.08.25-.34.49-.68.72-1.02.42-.6.82-1.21,1.2-1.83l.86-1.46c2.62,6.3,5.88,12.53,9.71,18.57,1.97,3.11,2.91,6.89,2.91,11.17,0,.41,0,.83-.03,1.25,0,.12-.01.25-.01.38-.02.36-.05.73-.09,1.11,0,.07-.01.15-.02.22,0,.08-.01.15-.02.23,0,.04-.01.07-.01.11-.03.37-.08.74-.13,1.12v.05c-.07.47-.14.94-.22,1.41-.01.03-.01.07-.02.1-.09.52-.19,1.05-.31,1.58-.01.03-.01.07-.02.1-.1.46-.2.92-.32,1.39-.03.14-.07.28-.11.43-.11.44-.23.88-.36,1.33-.13.48-.28.96-.44,1.46-.06.21-.13.42-.21.64-.1.3-.2.61-.3.91-.08.23-.16.47-.25.7-.19.55-.4,1.11-.62,1.66-.17.45-.35.9-.54,1.35-.05.12-.1.24-.15.36-.19.47-.4.96-.61,1.44-.05.1-.09.2-.14.3-.21.48-.43.96-.66,1.44-.32.67-.65,1.35-.99,2.04-.29.57-.58,1.14-.9,1.72-.31.62-.65,1.23-1,1.85-.29.54-.59,1.07-.91,1.61-.04.08-.09.17-.15.25-.36.62-.73,1.25-1.12,1.88-.38.63-.77,1.26-1.18,1.89-.39.63-.81,1.27-1.24,1.91-.4.62-.82,1.24-1.26,1.87-.01.02-.03.04-.05.07-.28.41-.56.82-.86,1.23-.04.05-.07.1-.11.15-.2.3-.42.6-.65.91-.36.51-.73,1.03-1.12,1.54-.47.65-.96,1.29-1.46,1.94-1.31,1.72-2.7,3.46-4.16,5.2-.34.42-.7.84-1.06,1.26-.04.04-.07.09-.11.13-.34.41-.69.81-1.05,1.22-.39.46-.8.93-1.22,1.39-.13.15-.26.29-.39.44-.61.69-1.24,1.39-1.89,2.09-.47.51-.94,1.03-1.44,1.54-.73.78-1.48,1.57-2.26,2.35-2.51,2.59-5.16,5.16-7.93,7.71-.11.1-.22.2-.33.3-1.36,1.25-2.81,2.54-4.42,3.94-.6.52-1.21,1.03-1.84,1.53-.22.18-.44.35-.67.53-.28.22-.58.45-.87.67h-.01s-.05.05-.08.07c-.41.31-.83.61-1.25.92-.09.08-.19.15-.28.21l-.15.12s-.02.01-.03.02c-.36.26-.72.51-1.09.76-.31.22-.62.43-.94.64-.34.23-.69.46-1.05.69-.29.19-.58.38-.88.56-.79.5-1.6,1-2.43,1.48-.34.2-.68.4-1.03.6-.45.26-.92.52-1.4.79-.54.3-1.09.59-1.64.88-.58.31-1.17.61-1.76.91-.16.08-.32.16-.48.24-.64.32-1.28.63-1.94.94-.56.27-1.13.53-1.7.79-.21.1-.42.19-.63.28-.11.05-.21.1-.32.14-.09.04-.17.08-.26.12-.43.2-.88.4-1.33.58-1.45.62-2.93,1.22-4.44,1.8-.54.21-1.09.41-1.64.61-.41.16-.82.3-1.23.45-.79.29-1.58.56-2.39.83-.39.13-.79.27-1.19.39-.47.16-.94.32-1.42.46-.12.04-.25.08-.37.12-.09.03-.17.05-.26.08-.13.04-.27.08-.4.12-.49.16-.99.3-1.49.45-.5.15-1,.29-1.5.44-.85.24-1.71.47-2.58.7-.53.14-1.08.28-1.62.41-.51.14-1.02.26-1.53.38-.36.09-.72.18-1.09.26-.56.13-1.14.26-1.71.39-.04,0-.07.01-.11.02-.53.12-1.06.23-1.59.34-.72.15-1.44.3-2.16.43-.72.14-1.43.27-2.15.4-.51.1-1.03.18-1.55.27-1.61.27-3.24.51-4.88.73-.68.09-1.37.18-2.07.26-.28.04-.57.07-.86.1-.78.09-1.57.18-2.37.26-.66.06-1.32.12-1.98.17-.53.05-1.05.09-1.58.13-.47.02-.96.06-1.44.09-.1.01-.2.01-.3.02-.1.01-.19.02-.29.02-.1.01-.19.01-.29.02-.78.05-1.57.09-2.35.12-.29.01-.59.02-.88.03-.81.03-1.62.06-2.43.07-.95.02-1.91.03-2.86.03h-.02c-.74,0-1.48-.01-2.23-.02-.48,0-.97-.02-1.46-.03-.62-.01-1.24-.03-1.86-.06-.76-.03-1.53-.07-2.3-.11-.14-.01-.27-.01-.41-.02-.47-.03-.94-.05-1.42-.09-.16-.01-.31-.02-.47-.03-.75-.05-1.49-.11-2.24-.18-.83-.07-1.66-.15-2.49-.24h0c-1.67-.17-3.33-.38-5-.62-.96-.14-1.92-.29-2.88-.45-.71-.11-1.43-.24-2.14-.37-.83-.15-1.67-.31-2.5-.48-.76-.15-1.52-.31-2.28-.48-.13-.03-.25-.06-.38-.09-.1-.02-.19-.04-.29-.06-.68-.15-1.38-.31-2.06-.49-.62-.15-1.23-.3-1.85-.47-.42-.11-.84-.21-1.26-.33-.42-.11-.84-.23-1.26-.35-.53-.14-1.06-.3-1.59-.46-.53-.15-1.06-.31-1.59-.48-.02-.01-.04-.01-.06-.02-.63-.19-1.25-.39-1.88-.6-.37-.12-.73-.24-1.1-.37-.54-.18-1.07-.36-1.61-.55-.6-.22-1.2-.44-1.8-.66-.03-.01-.06-.02-.09-.03-.1-.03-.19-.07-.29-.11-.37-.13-.75-.28-1.12-.43-.41-.16-.82-.32-1.22-.48-.41-.16-.82-.32-1.22-.5-.61-.25-1.22-.5-1.83-.76-.06-.03-.12-.05-.17-.08-.03-.01-.06-.03-.09-.04-.01-.01-.03-.01-.04-.02-.06-.02-.11-.05-.17-.07-.52-.22-1.04-.46-1.56-.7-.12-.05-.25-.11-.37-.17-.06-.02-.11-.04-.16-.07-.56-.25-1.12-.52-1.67-.79-.46-.21-.92-.43-1.38-.67-.33-.15-.65-.32-.97-.48-.08-.04-.15-.08-.23-.12-.31-.16-.63-.32-.93-.48-.08-.04-.17-.08-.25-.13-.48-.24-.95-.5-1.42-.75-.04-.02-.07-.04-.11-.06-.11-.05-.21-.11-.31-.17-.76-.41-1.52-.83-2.27-1.26-1.37-.79-2.73-1.61-4.07-2.46-.17-.1-.35-.22-.53-.33-.17-.1-.34-.22-.52-.34-1.24-.79-2.47-1.61-3.69-2.47-.43-.29-.85-.59-1.27-.9-1.29-.92-2.56-1.87-3.82-2.85-.71-.55-1.4-1.11-2.1-1.68-.14-.11-.28-.23-.42-.34-.48-.39-.95-.79-1.43-1.2-.65-.55-1.31-1.13-1.96-1.71-.18-.15-.36-.32-.54-.48l-.02-.02s-.07-.06-.1-.09c-.43-.39-.86-.79-1.29-1.19-.59-.54-1.17-1.09-1.74-1.66h-.01c-.18-.17-.36-.35-.53-.52-.44-.43-.88-.87-1.31-1.3-46.17-46.85-26.41-83.78-20.85-92.15ZM112.72,422.96c-5.41-.08-10.28-3.57-12.42-8.88-14.78-36.5,12.73-55.07,18.35-58.4,2.04,1.96,4.14,3.84,6.25,5.59h0c-.08.72-.15,1.47-.21,2.24-.04.46-.08.93-.12,1.41-.01.19-.03.37-.04.56-.05.56-.08,1.14-.12,1.72-.01.15-.02.3-.03.45-.04.67-.08,1.36-.11,2.07-.02.36-.04.74-.05,1.11-.03.75-.06,1.52-.08,2.3-.01.29-.02.59-.02.89-.01.5-.02,1-.03,1.51,0,.4,0,.8,0,1.2-.02,1.6-.01,3.26.03,4.96.01.57.03,1.14.05,1.72.01.49.03.98.05,1.47.01.33.03.65.04.98v.03c.03.63.06,1.27.1,1.91l.03.39c.01.29.03.59.05.88.03.48.06.96.1,1.45.04.51.08,1.02.12,1.54.14,1.71.3,3.45.5,5.22.08.69.16,1.39.25,2.1.09.7.18,1.41.28,2.12.1.72.2,1.43.31,2.16.21,1.36.43,2.73.68,4.12.03.17.06.35.09.52.1.56.2,1.12.31,1.68-3.13,8.7-7.93,13.06-14.36,12.98ZM127.8,413.54h-.01s.01-.01.01-.01h0ZM237.11,521.66c-1.84,4.54-10.59,8.19-10.68,8.22h-.01c-29.94,12.58-55.19,18.53-75.04,17.71-16.47-.69-25.69-5.93-30.53-10.21-2.93-2.6-4.2-6.64-3.31-10.56,8.41-37.13,44.94-41.35,49.07-41.71.27.26.54.52.81.77.57.55,1.14,1.09,1.72,1.62.92.86,1.85,1.7,2.8,2.52.7.62,1.41,1.23,2.13,1.83.11.11.21.2.32.27.44.38.88.75,1.33,1.11.12.11.25.21.38.31.75.62,1.51,1.22,2.28,1.82.83.65,1.67,1.29,2.51,1.93,1.7,1.26,3.43,2.5,5.19,3.71.91.62,1.82,1.23,2.73,1.81.57.37,1.15.74,1.73,1.1.66.42,1.32.82,1.98,1.21.44.28.89.54,1.34.79.62.37,1.25.73,1.88,1.08.78.43,1.55.85,2.33,1.26.78.41,1.55.81,2.33,1.2.66.33,1.32.65,1.99.96.48.23.96.45,1.45.67.69.32,1.39.63,2.09.92.77.33,1.54.65,2.31.96.59.23,1.18.46,1.77.68.53.2,1.07.4,1.6.59,1.77.63,3.54,1.2,5.31,1.71.65.19,1.3.37,1.95.54.32.09.63.17.95.25,1.51.38,3.01.72,4.52,1.01.51.1,1.02.2,1.54.29.24.05.48.09.73.13.67.11,1.33.22,2,.31.69.1,1.39.19,2.08.27.27.03.54.06.81.09.54.06,1.09.11,1.63.16s1.08.09,1.63.12c.57.04,1.14.07,1.72.09.28.02.55.03.83.04.21.78.15,1.58-.2,2.42ZM320.98,473.98c.56-1.57.94-3.16,1.16-4.76,14.19,1.94,56.85,10.06,77.54,39.05,1.04,1.47,1.43,3.27,1.09,5.07-.35,1.81-1.43,3.41-2.97,4.41-7.96,5.14-32.17,20.76-66.77,15.9-36.57-5.15-39.97-19.06-42.23-28.26-.05-.22-.1-.44-.16-.66,2.48-1.47,5.03-3.1,7.59-4.84,1.63-1.11,3.17-2.2,4.63-3.27.48-.35.95-.7,1.42-1.05.46-.35.92-.7,1.37-1.05,1.35-1.04,2.62-2.07,3.81-3.09.39-.33.78-.67,1.16-1.01.48-.42.95-.84,1.4-1.27.27-.24.53-.49.78-.73.34-.33.68-.66,1.01-.98.33-.33.65-.66.96-.99.28-.29.55-.58.82-.87.22-.23.42-.46.62-.68.25-.29.49-.57.73-.85,2.06-2.43,3.66-4.82,4.83-7.21.11-.21.21-.42.3-.64.2-.42.38-.84.55-1.26.13-.32.25-.64.36-.96ZM320.26,468.01c-.89,9.78-8.41,18.82-25.15,30.22-2.75,1.87-5.48,3.61-8.13,5.16l-.65.38c-16.38,9.48-32.19,13.91-48.28,13.49-16.95-.41-34.06-6.44-50.85-17.92-7.07-4.84-13.63-10.21-19.51-15.97l-.32-.31c-19.78-19.52-32.64-44.05-38.23-72.92l-.05-.27c-.74-3.85-1.32-7.61-1.76-11.24-.13-1.08-.25-2.15-.35-3.2-.11-.99-.2-1.98-.28-2.95-.09-1.03-.17-2.05-.23-3.05-.02-.25-.04-.51-.05-.77-.27-4.22-.36-8.21-.33-11.93,0-.4,0-.8,0-1.2.02-1.79.08-3.52.15-5.17.02-.42.04-.83.06-1.23.04-.81.09-1.6.14-2.36.03-.39.05-.77.08-1.14.03-.4.06-.8.09-1.18.04-.57.09-1.11.14-1.65.38.3.76.59,1.12.87.65.5,1.3,1,1.95,1.48.28.21.57.42.85.63.11.08.21.16.32.24.22.16.44.32.67.48.03.02.05.04.08.05.35.27.71.52,1.06.76.07.05.15.1.22.15.07.05.13.1.2.14.53.38,1.07.75,1.61,1.11.59.4,1.18.79,1.77,1.17.98.64,1.97,1.26,2.97,1.86,1.6.96,3.2,1.89,4.82,2.77,1.61.88,3.24,1.71,4.87,2.51.82.4,1.64.79,2.46,1.16.71.33,1.42.64,2.13.95.48.21.95.42,1.42.61.04.02.09.04.13.05.3.13.6.25.9.38.3.12.6.24.9.36.66.27,1.32.53,1.98.78.83.32,1.67.63,2.5.93.03.01.05.02.08.03.79.28,1.57.55,2.36.81.07.02.13.04.2.07.8.26,1.6.52,2.4.77,1.68.52,3.37,1,5.06,1.45.83.22,1.66.43,2.49.64.07,0,.14.03.21.05.79.19,1.59.37,2.38.55.57.13,1.14.25,1.71.36.08.02.16.04.24.05.09.02.19.04.28.06.26.06.53.11.79.16.06.01.13.03.19.04.63.13,1.25.25,1.88.36.05,0,.11.02.16.03.59.11,1.19.21,1.78.31.16.02.31.05.46.07.31.05.63.1.95.15.16.03.31.05.47.08.55.08,1.1.16,1.65.24.52.08,1.05.15,1.57.21.41.05.81.1,1.21.15.65.08,1.3.15,1.95.22.67.07,1.34.14,2.01.2.33.03.65.06.97.08.14.01.28.03.43.04.54.05,1.08.09,1.63.12.53.04,1.05.07,1.57.1h.04c.21.02.41.03.62.04s.41.02.62.03c.73.04,1.46.07,2.19.09.78.03,1.57.05,2.35.07.89.01,1.78.02,2.67.02,1.91,0,3.81-.04,5.71-.11,1.53-.06,3.05-.14,4.56-.25.43-.02.86-.06,1.29-.09,1.81-.14,3.61-.31,5.39-.51.77-.09,1.55-.18,2.32-.29.54-.07,1.08-.14,1.62-.22.64-.08,1.27-.17,1.9-.27.92-.14,1.83-.28,2.74-.44.45-.07.91-.15,1.36-.24.46-.08.91-.17,1.36-.25.88-.16,1.76-.34,2.63-.52.09-.02.17-.03.25-.05.21-.04.43-.09.64-.14.42-.09.84-.18,1.25-.27.19-.04.37-.09.56-.13.73-.16,1.46-.33,2.18-.51.05-.01.11-.02.16-.04.56-.13,1.11-.26,1.65-.41.1-.03.19-.05.29-.08.3-.07.59-.15.88-.22.06-.02.12-.03.18-.05.14-.04.28-.07.42-.11.13-.04.27-.07.4-.11.03,0,.06-.02.09-.03.5-.13.99-.27,1.49-.41.42-.12.84-.24,1.25-.36.42-.12.83-.24,1.25-.37.83-.25,1.65-.51,2.46-.77.4-.13.8-.26,1.2-.39.4-.13.79-.27,1.18-.4.94-.32,1.87-.64,2.78-.99.6-.21,1.18-.43,1.77-.65.02,0,.05-.02.07-.03.94-.36,1.86-.72,2.77-1.1.01,0,.01,0,.02,0,.62-.25,1.24-.5,1.85-.77.66-.28,1.32-.57,1.97-.86.21-.09.42-.19.62-.28.01-.01.03-.01.04-.02.57-.25,1.12-.52,1.67-.78h.02c.11-.05.22-.11.33-.16.04-.02.08-.04.12-.06.54-.26,1.08-.52,1.61-.79.62-.3,1.22-.61,1.82-.93.52-.26,1.03-.54,1.54-.82.53-.28,1.05-.57,1.57-.87.06-.03.12-.06.18-.1.5-.28,1-.57,1.49-.87.16-.09.32-.18.48-.29.1-.06.2-.12.3-.18.42-.25.84-.51,1.26-.77.58-.36,1.15-.73,1.71-1.1.55-.36,1.08-.73,1.61-1.09.01,0,.03-.02.04-.03.44,2.76.75,5.32,1.05,7.8.27,2.22.52,4.32.88,6.6.01.05.02.1.03.2.01.01.01.03.01.04.13.74.26,1.47.36,2.23l.09.48s.01.05.02.07c1.46,7.95,4.51,18.92,15.82,39.8,3.09,5.71,6.76,12.1,10.91,19,1.61,2.65,2.97,5.18,4.05,7.53,2.77,6,3.91,11.22,3.48,15.96ZM489.65,419.68c-19.65,27.71-41.41,32.17-56.19,31.03-19.21-1.48-34.73-13.2-40.14-24.01-3.76-7.52-6.16-13.24-7.74-18.52l-.04-.16c-4.97-16.66-2.05-31.08,9.75-48.22,17.87-25.94,38.88-13.77,39.77-13.24l1.03-1.72c-.24-.14-23.49-13.69-42.44,13.82-12.14,17.62-15.16,32.5-10.09,49.72-3.08,20.87-14.67,34.4-34.43,40.18-14.9,4.37-29.11,2.47-29.21,2.46l-1.54-.28c-1.08-2.28-2.39-4.72-3.93-7.26-3.88-6.43-7.34-12.43-10.29-17.84,9.46-3.06,24.51-11.36,27.98-33.44,1.37-8.75,1.45-17.29,1.52-25.56.19-21.77.37-42.34,21.99-67.78,14.71-17.3,38.55-27.96,63.79-28.52,23.6-.53,45.15,7.73,59.06,22.68,38.03,40.86,41.79,83.47,11.15,126.66Z"/>
  <path class="cls-6" d="M290.74,267.14c-.49,1.04-1.82,1.52-3.41,1.4-1.68-.13-3.24.84-4.05,2.31-4.14,7.53-12.4,19.33-27.36,29.77-.09.06-.19.11-.29.14-.02,0-.05.01-.07.02-1.07.33-1.78-1.12-.86-1.76,14.56-10.12,22.62-21.52,26.69-28.85.87-1.56.97-3.5.02-5-.58-.92-.75-1.88-.37-2.67.77-1.63,3.57-1.9,6.25-.62,2.68,1.28,4.23,3.64,3.45,5.26Z"/>
  <path class="cls-7" d="M203,334.9c-1.47,2.35-4.83,5.42-12.42,8.18-3.59-4.55-9.8-12.68-15-20.78.16.01.33.01.49.01,1.98,0,3.72-.31,5.13-.98,2.82-1.34,8.6-2.77,16.15-4.43,2.47,3.84,6.07,9.76,6.7,12.43.3,1.29.36,3.3-1.05,5.57Z"/>
  <path class="cls-7" d="M188.57,343.78c-2.12.69-4.52,1.35-7.26,1.97-20.63,4.69-30.89-16.75-31.97-19.15v-12.81c.38.19.75.36,1.12.54.79.38,1.57.75,2.35,1.1,7.46,3.41,14.59,5.96,20.26,6.67,5.21,8.32,11.63,16.76,15.5,21.68Z"/>
  <path class="cls-3" d="M183.32,309.87c0,14.15-21.04,22.01-43.15,19.23-32.57-4.09-37.53-24.15-37.53-38.3s16.34-28.27,40.34-20.49c21.19,6.87,40.34,25.41,40.34,39.56Z"/>
  <circle class="cls-9" cx="298.88" cy="244.33" r="15.42"/>
  <path class="cls-3" d="M206.23,191.81c.13-.3-.26-.55-.48-.3-3.74,4.39-14.63,19.42-5.85,36.88,10.47,20.81,20.3,11.11,20.94,9.57s7.79-7.28-6.13-27.96c0,0-4.89-5.83-13.06-3.71-.72.19-1.34-.54-1.05-1.23,1.27-3.02,3.85-9.13,5.63-13.25Z"/>
  <path class="cls-3" d="M134.37,181.06c.13-.3-.26-.55-.48-.3-3.74,4.39-14.63,19.42-5.85,36.88,10.47,20.81,20.3,11.11,20.94,9.57s7.79-7.28-6.13-27.96c0,0-4.89-5.83-13.06-3.71-.72.19-1.34-.54-1.05-1.23,1.27-3.02,3.85-9.13,5.63-13.25Z"/>
  <path class="cls-6" d="M260.72,416.69c-10.44-6.34-24.66-9.69-41.15-9.69-18.05,0-35.99,1.27-44.89,10.45-4.39,4.54-6.4,10.64-6.15,18.67.91,28.59,21.18,43.09,60.24,43.09,20.38,0,36.2-4.76,44.55-13.4,4.53-4.69,6.71-10.32,6.49-16.74-.49-13.9-7.08-25.1-19.09-32.38ZM271.88,464.42c-7.97,8.25-23.28,12.79-43.11,12.79-37.77,0-57.37-13.85-58.24-41.16-.24-7.45,1.59-13.08,5.59-17.21,8.38-8.65,25.84-9.84,43.45-9.84,35.6,0,57.36,15.01,58.24,40.14.2,5.85-1.79,10.99-5.93,15.28Z"/>
  <path class="cls-8" d="M277.81,449.14c.2,5.85-1.79,10.99-5.93,15.28-3.3,3.42-7.87,6.2-13.51,8.29-7.94,2.95-18,4.5-29.6,4.5-37.77,0-57.37-13.85-58.24-41.16-.24-7.45,1.59-13.08,5.59-17.21,4.48-4.62,11.55-7.12,19.85-8.43,7.24-1.15,15.4-1.41,23.6-1.41,35.6,0,57.36,15.01,58.24,40.14Z"/>
  <path class="cls-6" d="M216.51,444.63c.04-.08-.05-.16-.12-.1-1.24,1.15-5.57,5.76-3.7,12.36,2.17,7.66,13.47,6.26,13.47,5.23,0-.94,2.85-6.24-3.31-9.22-1.14-.55-2.4-.83-3.67-.88-1.09-.04-2.47,0-3.48.32-.47.15-.95-.19-.92-.69.12-1.62.51-4.57,1.73-7.03Z"/>
  <path class="cls-1" d="M160.87,379.81s-.06-.02-.09-.03c-.1-.03-.19-.07-.29-.11-.37-.13-.75-.28-1.12-.43-.41-.16-.82-.32-1.22-.48-.41-.16-.82-.32-1.22-.5-.61-.25-1.22-.5-1.83-.76-.06-.03-.12-.05-.17-.08-.03-.01-.06-.03-.09-.04-.01-.01-.03-.01-.04-.02-.06-.02-.11-.05-.17-.07-.52-.22-1.04-.46-1.56-.7-.12-.05-.25-.11-.37-.17-.06-.02-.11-.04-.16-.07-.56-.25-1.12-.52-1.67-.79-.46-.21-.92-.43-1.38-.67-.33-.15-.65-.32-.97-.48-.08-.04-.15-.08-.23-.12-.31-.16-.63-.32-.93-.48-.08-.04-.17-.08-.25-.13-.48-.24-.95-.5-1.42-.75-.04-.02-.07-.04-.11-.06-.11-.05-.21-.11-.31-.17-.76-.41-1.52-.83-2.27-1.26-1.37-.79-2.73-1.61-4.07-2.46-.17-.1-.35-.22-.53-.33-.17-.1-.34-.22-.52-.34-1.24-.79-2.47-1.61-3.69-2.47-.43-.29-.85-.59-1.27-.9-1.29-.92-2.56-1.87-3.82-2.85-.71-.55-1.4-1.11-2.1-1.68-.14-.11-.28-.23-.42-.34-.48-.39-.95-.79-1.43-1.2-.65-.55-1.31-1.13-1.96-1.71-.18-.15-.36-.32-.54-.48l-.02-.02s-.07-.06-.1-.09c-.43-.39-.86-.79-1.29-1.19-.59-.54-1.17-1.09-1.74-1.66h-.01c-.18-.17-.36-.35-.53-.52-.44-.43-.88-.87-1.31-1.3-46.17-46.85-26.41-83.78-20.85-92.15.1.4.2.8.31,1.2.13.54.27,1.07.41,1.59.04.12.07.24.1.36.13.49.27.98.4,1.46.14.49.28.98.41,1.46.25.88.51,1.74.76,2.57.31,1.03.62,2.03.92,2.99.27.84.53,1.65.8,2.43.01.06.03.11.05.16.25.75.5,1.48.74,2.17,0,0-20.76,53.73,60.43,94.58,0,0,5.75,9.77-1.26,9.09Z"/>
  <path class="cls-1" d="M258.37,472.71c-7.94,2.95-18,4.5-29.6,4.5-37.77,0-57.37-13.85-58.24-41.16-.24-7.45,1.59-13.08,5.59-17.21,4.48-4.62,11.55-7.12,19.85-8.43,5.13,5.47,5.34,14.14.62,20.28-5.39,7-10.43,18.94,4.86,29.91,14.35,10.29,23.27,8.39,28.04,5.35,5.34-3.41,11.62-5.09,17.91-4.28,6.93.9,13.44,3.62,10.97,11.04Z"/>
  <path class="cls-6" d="M159.71,36.91c-4.89,11.09-19.61,35.45-49.63,18.07.92-2.59,1.79-4.95,2.56-7.03.65-1.73,1.23-3.29,1.71-4.67,1.34-3.79.14-8.03-2.99-10.56-12.47-10.08-19.84-16.23-23.14-18.99,3.69-.42,7.28-.62,10.78-.62,24.59,0,44.69,9.99,60.71,23.8Z"/>
  <path class="cls-6" d="M395.23,39.28c-.6,2.98-4.28,10.55-22.15,27.76-.77.52-3.97,3.26-3.97,13.05,0,3.95.52,9.05,1.93,15.62-5.72,2.64-13.39,3.73-23.04.03-13.53-5.18-14.67-12.8-13.09-18.46,15.05-11.73,34.57-24.66,59.88-38.3.14-.08.26-.02.32.03.07.05.15.13.12.27Z"/>
  <path class="cls-5" d="M216.77,495.06c23.92,10.11,40.04,15.17,50.89,17.41-9.9,3.47-19.7,5.05-29.61,4.79-16.95-.41-34.06-6.44-50.85-17.92-7.07-4.84-13.63-10.21-19.51-15.97l-.32-.31c-19.78-19.52-32.64-44.05-38.23-72.92l-.05-.27c-.74-3.85-1.32-7.61-1.76-11.24-.13-1.08-.25-2.15-.35-3.2-.11-.99-.2-1.98-.28-2.95-.09-1.03-.17-2.05-.23-3.05-.02-.25-.04-.51-.05-.77-.27-4.22-.36-8.21-.33-11.93,0-.4,0-.8,0-1.2.02-1.79.08-3.52.15-5.17.02-.42.04-.83.06-1.23.04-.81.09-1.6.14-2.36.03-.39.05-.77.08-1.14.03-.4.06-.8.09-1.18.04-.57.09-1.11.14-1.65.38.3.76.59,1.12.87.65.5,1.3,1,1.95,1.48.28.21.57.42.85.63.11.08.21.16.32.24.22.16.44.32.67.48.03.02.05.04.08.05.35.27.71.52,1.06.76.07.05.15.1.22.15.07.05.13.1.2.14.53.38,1.07.75,1.61,1.11.59.4,1.18.79,1.77,1.17.98.64,1.97,1.26,2.97,1.86,1.6.96,3.2,1.89,4.82,2.77,1.61.88,3.24,1.71,4.87,2.51.82.4,1.64.79,2.46,1.16.71.33,1.42.64,2.13.95.48.21.95.42,1.42.61.04.02.09.04.13.05.3.13.6.25.9.38.3.12.6.24.9.36.66.27,1.32.53,1.98.78.83.32,1.67.63,2.5.93.03.01.05.02.08.03.79.28,1.57.55,2.36.81.07.02.13.04.2.07.8.26,1.6.52,2.4.77,1.68.52,3.37,1.01,5.06,1.45.83.22,1.66.43,2.49.64.07,0,.14.03.21.05.79.19,1.59.37,2.38.55.57.13,1.14.25,1.71.36.08.02.16.04.24.05.09.02.19.04.28.06.26.06.53.11.79.16.06.01.13.03.19.04.63.13,1.25.25,1.88.36.05,0,.11.02.16.03.59.11,1.19.21,1.78.31.16.02.31.05.46.07.31.05.63.1.95.15.16.03.31.05.47.08.55.08,1.1.16,1.65.24.52.08,1.05.15,1.57.21.41.05.81.1,1.21.15,0,0-34.75,3.57-36.25,21.53-2.22,26.44-9.7,54.02,62.81,84.65Z"/>
  <path class="cls-4" d="M506.8,385.37s-.03.11-.05.16c-10.85,35.53-62.44,42.1-83.86,21.35-21.44-20.78,12.17-60.32,12.17-60.32l1.03-1.72c-.05-.03-.99-.57-2.61-1.23-6.62-2.65-24.61-7.05-39.83,15.05-12.14,17.62-15.16,32.5-10.09,49.72-.07.47-.14.93-.22,1.39-3.38,20.08-14.89,33.14-34.21,38.79-14.9,4.37-29.11,2.47-29.21,2.46l-1.54-.28c-1.08-2.28-2.39-4.72-3.93-7.26-3.88-6.43-7.34-12.43-10.29-17.84,4.72-1.53,10.82-4.35,16.19-9.54,5.4-5.22,10.05-12.83,11.79-23.9,1.37-8.75,1.45-17.29,1.52-25.56.19-21.77.37-42.34,21.99-67.78,14.71-17.3,38.55-27.96,63.79-28.52,23.6-.53,45.15,7.73,59.06,22.68,27.92,30,37.37,60.93,28.3,92.35Z"/>
  <path class="cls-5" d="M506.75,385.53c-3.29,11.33-8.99,22.72-17.1,34.15-19.65,27.71-41.41,32.17-56.19,31.03-19.21-1.48-34.73-13.2-40.14-24.01-3.76-7.52-6.16-13.24-7.74-18.52l-.04-.16c-4.97-16.66-2.05-31.08,9.75-48.22,17.87-25.94,38.88-13.77,39.77-13.24,0,0-33.61,39.54-12.17,60.32,21.42,20.75,73.01,14.18,83.86-21.35Z"/>
  <path class="cls-5" d="M383.56,408.38c-.07.47-.14.93-.22,1.39-3.38,20.08-14.89,33.14-34.21,38.79-14.9,4.37-29.11,2.47-29.21,2.46l-1.54-.28c-1.08-2.28-2.39-4.72-3.93-7.26-3.88-6.43-7.34-12.43-10.29-17.84,4.72-1.53,10.82-4.35,16.19-9.54,0,0,6.68,44.15,63.21-7.72Z"/>
  <path class="cls-7" d="M451.57,280.06c-9.41-2.31-65.16-14.03-93.23,24.39-1.33,1.81-1.98,4.09-1.54,6.3.64,3.19,3.58,5.97,14.44-.54,17.5-10.5,47.97-28.83,79.68-22.64,1.62.32,3.34-.17,4.38-1.45.94-1.15,1.41-2.72-.47-4.41-.91-.82-2.05-1.35-3.25-1.64Z"/>
  <path class="cls-7" d="M485.17,308.57c5.61,6.2,20.35,26.51,18.07,66.75,0,0-1.02,6.13-3.83,0s-9.83-53.59-21.19-63.83c-4.81-4.34,2.04-8.81,4.43-5.89.82,1.01,1.65,2,2.53,2.97Z"/>
  <path class="cls-7" d="M433.27,355.45c-4.13,2.82-10.11,8.84-11.57,20.59-.18,1.45.11,2.95,1.01,4.1.66.84,1.66,1.56,3.14,1.5,1.97-.07,3.58-1.61,3.98-3.54.89-4.25,3.57-13.48,10.76-18.21,0,0,0-.01,0-.03.51-4.01-3.99-6.7-7.33-4.41Z"/>
  <path class="cls-7" d="M281.45,380.68s1.46,35.07,28.01,66.36c1.89,2.23,3.05,5.03,3.12,7.95.08,3.25-1.2,6.39-7.13,4.84-11.06-2.89-31.08-50.88-27.62-74.46,0,0,.9-7.24,3.62-4.69Z"/>
  <path class="cls-7" d="M228.34,322.47s10.38,10.21,33.02,5.79,39.66,3.74,32.34,17.36-69.11,10.38-69.79-12.26c0,0-2.28-14.93,4.43-10.89Z"/>
  <path class="cls-7" d="M241.43,413.9c6.24,1.51,27.98,8.48,33.83,32.95.85,3.54.3,7.32-1.65,10.39-1.63,2.56-3.99,4.43-6.93,1.69-5.82-5.44-5.75-28.91-25.58-38.47-.72-.35-1.42-.77-2-1.32-.93-.86-1.86-2.19-1.14-3.7.61-1.28,2.1-1.88,3.47-1.55Z"/>
  <path class="cls-7" d="M281.94,139.82c6.64,4.55,34.26,26.53,41.1,81.27.2,1.58.11,3.2-.35,4.72-.83,2.76-2.96,5.91-8.39,3.1-8.69-4.48,1.94-44.06-35.8-84.27,0,0-2.62-3.07-.3-4.83,1.09-.82,2.61-.76,3.74.01Z"/>
  <path class="cls-12" d="M120.95,419.92c-2.35,2.07-5.1,3.08-8.23,3.04-5.41-.08-10.28-3.57-12.42-8.88-12.18-30.07,4.35-47.98,13.7-55.21.21.07.33.11.33.11,0,0-23.71,49.28,6.62,60.94Z"/>
  <path class="cls-12" d="M304.16,402.89c-7.68-4.67-15.16-12.44-16.22-17.63h0s-.07-.39-.07-.39c-.1-.76-.23-1.53-.37-2.22-.01-.12-.04-.27-.05-.32-.34-2.18-.59-4.26-.85-6.47-.13-1.05-.26-2.11-.4-3.2-.03-.22-.06-.45-.08-.67-.02-.13-.04-.25-.05-.38-.1-.75-.21-1.51-.33-2.29-.05-.38-.11-.76-.18-1.15-.06-.39-.12-.78-.19-1.18.05-.04.11-.08.16-.12,0-.01.02-.01.03-.02.09-.07.18-.14.27-.2.92-.69,1.82-1.39,2.69-2.11.39-.32.77-.64,1.15-.97,1.38-1.2,2.64-2.31,4.15-3.68,1.1.15,2.16.47,3.18.98.31.15.64.32.98.49-2.96,7.23-7.12,23.78,6.18,41.53Z"/>
  <path class="cls-12" d="M318.47,479.21s0,.01-.03.05c.01-.02.02-.03.02-.05h0Z"/>
  <path class="cls-12" d="M356.51,533.74c-7.67,1.04-16.2,1.21-25.48-.09-36.57-5.15-39.97-19.06-42.23-28.26-.05-.22-.1-.44-.16-.66,2.48-1.47,5.03-3.1,7.59-4.84,1.63-1.11,3.17-2.2,4.63-3.27.48-.35.95-.7,1.42-1.05.46-.35.92-.7,1.37-1.05,1.35-1.04,2.62-2.07,3.81-3.09.39-.33.78-.67,1.16-1.01.48-.42.95-.84,1.4-1.27.27-.24.53-.49.78-.73.34-.33.68-.66,1.01-.98.33-.33.65-.66.96-.99.28-.29.55-.58.82-.87.22-.23.42-.46.62-.68.25-.29.49-.57.73-.85.68-.8,1.31-1.6,1.88-2.39-4.42,7.66-12.93,31.88,39.69,52.08Z"/>
  <path class="cls-12" d="M184.28,543.95c-12.2,2.82-23.2,4.04-32.9,3.64-16.47-.69-25.69-5.93-30.53-10.21-2.93-2.6-4.2-6.64-3.31-10.56,8.41-37.13,44.94-41.35,49.07-41.71.27.26.54.52.81.77.57.55,1.14,1.09,1.72,1.62.13.12.25.23.38.35l-.38,2.28s-45.67,23.68-31.36,41.29c10.17,12.52,29.56,13.8,46.5,12.53Z"/>
  <path class="cls-7" d="M144.31,281.52c0,3.79-6.62,4.79-14.17,6.86-14.17,3.9-14.17-3.07-14.17-6.86s3.28-8.07,11.11-8.07,17.23,4.28,17.23,8.07Z"/>
</svg>