<svg id="Layer_1" data-name="Layer 1" xmlns="http://www.w3.org/2000/svg" viewBox="0 0 566.93 566.93"><defs><style>.cls-1{fill:#a7ce39;}.cls-1,.cls-13,.cls-17,.cls-18,.cls-20,.cls-4,.cls-7{stroke:#231f20;}.cls-1,.cls-13,.cls-17{stroke-linecap:round;stroke-linejoin:round;}.cls-1,.cls-17,.cls-4,.cls-7{stroke-width:2px;}.cls-2{fill:#11773d;}.cls-3{fill:#231f20;}.cls-4{fill:#ffd79a;}.cls-18,.cls-20,.cls-4,.cls-7{stroke-miterlimit:10;}.cls-5{fill:#ffda9b;}.cls-6{fill:#fdc682;}.cls-7{fill:#ea3526;}.cls-13,.cls-8{fill:#f5eb26;}.cls-9{fill:#daca25;}.cls-10{fill:#c8bb2f;}.cls-11{fill:#fff;}.cls-12{fill:#be842b;}.cls-13{stroke-width:3px;}.cls-14{fill:#f15b24;}.cls-15{fill:#070909;}.cls-16{fill:#ab6427;}.cls-17{fill:none;}.cls-18{fill:#eb1e30;}.cls-18,.cls-20{stroke-width:1.5px;}.cls-19{fill:#f05656;}.cls-20{fill:#f8e700;}.cls-21{fill:#faf6ba;}</style></defs><path class="cls-1" d="M528.26,470.33c-1.54,3.6-24.77,3.48-24.77,3.48,0,4.27-8.94,7.47-8.94,7.47-24-5.1-45.95,5.61-45.95,5.61-14.17,19.78-98.81,10.47-98.81,10.47-12.51,12-43.66,7.24-43.66,7.24-29.28,25.53-124.94-5.79-133.45,1.36s-23.32,4.5-23.32,4.5c-4.76,5.86-14.13-.08-14.13-.08-8,.68-22.63-3.57-22.63-3.57-29.45-10.72-71.32-.17-61.28-8.34,7-5.67-6.32-8.39-12.82-9.17,3.63-.72,2-5.46,12-5.41,11.57.06,10-5.34,10-5.34-4.08-8.51,2.72-7,2.38-9.87s10.56.85,9.54-1.53,13.78-1.87,13.78-3.85,12.77-4.15,15.32-5.17.51-9.7,4.43-10.21,8,4.93,8,4.93-.85-7.83,1.36-7.48,4.42,3.74,6.64,0,1.53-2.05,6.3,2.55,6.46-.35,8.17-4.26,9-1.19,9-1.19c-.85-7,3.4-3.07,5.1-4.89s8.51,1.82,11.92,3.7,4.53-4.79,4.53-4.79c31.69-17.48,239.47,8,258.85,6.49s21.47,4.94,21.47,4.94c34.21-8.59,29.62,0,29.62,0,36,2.9,25.27,12.68,25.27,12.68C518.81,463.91,529.79,466.72,528.26,470.33Z"/><path class="cls-2" d="M463.13,465.41c-.48,9.91-28.25,13-28.25,13-1.11,14.47-73.48,10.38-73.48,10.38s-5.53,4.6-10,6.37c-1.65.66-13.74-.78-19.77-5-2.88-2,1.42-6.15-2-8.15-8.61-5.07-18.37-9-26.72-5.95-1.27.46-2.61.88-4,1.27a42.94,42.94,0,0,1-4.47,1.08c-16.85,2.87-33.26.65-38.74-3-2-1.36-4.56-2.09-5.26-5.06-1.68-7.12-8.68-2.84-8.68-2.84-4.88-1.74-6.45.36-9.9.8a19.87,19.87,0,0,0-2,.36,17.85,17.85,0,0,0-9.54,6q-.68.8-1.26,1.62c-11.26-1.37-30-2-33.49-4.68-2.19-1.67.36-4.28,3.43-6.44q-2.46-1.78-4.83-3.88a27.72,27.72,0,0,1,5.19-3.87c8.85-5.23,22.82-8.44,39.58-10.2,2.92-.31,5.93-.58,9-.8s6.05-.4,9.16-.54c5.51-.26,11.19-.4,17-.45l6.24,0,2.66,0,3,0c24.55.29,50.35,2,73,4,5.43.49,10.67,1,15.68,1.48,19.8,2,35.85,3.94,44.39,5l.42,0c3.51.42,5.66.67,6.17.67,1.26,0,4.38-.05,8.45,0a207.23,207.23,0,0,1,21.22,1.1C455.12,458.78,463.34,461,463.13,465.41Z"/><path class="cls-3" d="M454.79,462.38c-.45,7.15-34.28,7.68-34.28,7.68-1,10.45-59.49,9.17-59.49,9.17a46.9,46.9,0,0,1-9.19,4.6c-1,.32-3.21-.66-6.2-2.24S339.07,478,335,475.92c-8.65-4.34-19.09-8.36-27.86-5.86a89.62,89.62,0,0,1-13.88,2.54q-2.25.25-4.53.45c-10.49.92-21.14,1-26.78.9a5.11,5.11,0,0,1-4.84-3.65c-1.55-5.14-4-4.6-4-4.6-10.52-2.93-17.14-.69-21.21,2.59a17.91,17.91,0,0,0-3.91,4.38,8.13,8.13,0,0,1-7.9,3.7l-1-.12c-11.26-1.37-30-2-33.49-4.68-2.19-1.67.36-4.28,3.43-6.44a51.17,51.17,0,0,1,5.78-3.46l.72-.37c5.14-5.64,17.56-9.13,34-11.12,2.24-.28,4.56-.52,7-.74q4.31-.39,8.87-.68c7.25-.45,15-.7,22.95-.79l.92,0,4.62,0H277c23.82,0,49.32,1.32,71.63,2.85,5.48.37,10.76.76,15.77,1.15,22.11,1.72,39.09,3.44,44.8,3.94l.42,0c.81.06,1.33.1,1.54.1,1.7,0,7.06-.08,13.46.07a154.17,154.17,0,0,1,20.84,1.58C451,458.6,454.93,460.08,454.79,462.38Z"/><path class="cls-4" d="M425.8,237.36s-59.57,51.07-62.3,52.43-81.9,21.42-81.9,21.42-96.71-64.17-49-155.45C225,163.82,218.69,167.63,218,166c-1.53-3.58-16.09-23,0-42.64,13.94-17,27.51.08,30.87,4.93C295.33,57.94,332,67.67,332,67.67s100.63,68.4,76.82,124.42c0,0,27.57-25.2,41.19,2S425.8,237.36,425.8,237.36Z"/><polygon class="cls-5" points="271.75 449.06 231.58 463.3 225.79 431.7 259.24 433.49 271.75 449.06"/><path class="cls-6" d="M339.29,118.58s-20,35.05-49.21,7.84C290.08,126.42,331.59,111.29,339.29,118.58Z"/><path class="cls-6" d="M336.09,123.15s56.35,34.47,70.22,72.44l13.86-31.9-88.51-53.9Z"/><path class="cls-7" d="M450,189.21a27.34,27.34,0,0,0-34.21-1.47l-4.77,3.5a137.85,137.85,0,0,0-8.44-15.55h0l-.26-.42h0l-.47-.76c-12.78-20.35-39-52.94-79.32-60.87,0,0-19.41-16.85-20.94-17.88s-22-4.08-22-4.08,6.82-10.12,22.41-18C321,63.9,353.24,57.46,402.13,76.85a55.48,55.48,0,0,1,9,5.34h0A89.25,89.25,0,0,1,436,109.29h0C446.47,126.77,454.26,152.48,450,189.21Z"/><path d="M450,189.21a27.34,27.34,0,0,0-34.21-1.47l-4.77,3.5a141.84,141.84,0,0,0-9.19-16.75h0c1-2-.56-.58.75,1.2,2.79,3.8,17.65,7.88,20.22-.72a10.09,10.09,0,0,0-.63-7.08c-15-32.32-15.56-28-19.95-33.68-.53-.68-.35-.89.4-.47,24.23,13.59,20.69,39.78,35.12,36.3,12.25-2.95,3.07-47.91-6-62.87a14,14,0,0,1-1.63-4.89,0,0,0,0,1,.07,0c.89,1.12,5.22,6.57,5.89,7.05h0C446.47,126.77,454.26,152.48,450,189.21Z"/><path class="cls-6" d="M375.83,191.24l10.62,11.39a9.48,9.48,0,0,1-.83,13.67c-4.13,3.52-8.05,8.31-7,13.23,2.11,9.73-4.09,36.21-18.38,34.19s-18.39-1.18-33.2,8.36-25,14.63-31.15-.43-27.57,32.63-37.27,18-7.55-47.77-7.55-47.77Z"/><path class="cls-6" d="M323.27,173.71a21.65,21.65,0,0,0-2.24-2,5.1,5.1,0,0,0-8.25,3.83c-.37,10.56-8.08,26-47.81,31.12l26.43,19.42L346,184.5l-13.85-5.08A23.55,23.55,0,0,1,323.27,173.71Z"/><path class="cls-3" d="M432.6,210.47c-1-3.87-4-6.11-5.34-9.71a30.11,30.11,0,0,0-7.09,4.09c2.77-6.85,10.11-10.23,18.21-9-2.72,1.29-3.85,1.71-6.52,2.88C435,201.22,434.23,206.88,432.6,210.47Z"/><path class="cls-3" d="M233.23,145.4c-.83-3.08-2-4.53-3.57-7.15a56.81,56.81,0,0,0-7,6.64,11.49,11.49,0,0,1,5.1-9.4c-1.15-1.81-1.07-2.72-2.55-4.38C230.77,133.05,234.67,139.59,233.23,145.4Z"/><path class="cls-8" d="M433.53,435.06c-6.22,35.27-40.19,41.29-59,41.86a91.05,91.05,0,0,1-12.56-.41L367,462.76c-2.67,5.78-9.91,15.84-11.54,18.07l-.33.45-2.51-.77-13.94-4.29-3.47-1.07-61.78-24-25.54-15.83L202,444l-33.58-56.81C161.23,344.3,224,327.32,224,327.32c12.26,1,1.79-19.9,1.79-19.9s3-19.33,8.13-24c4.7-4.26,25.66,4.9,28.88,6.35-7-3.49-18.16-21.13-18.16-21.13,33.08,2.13,39.84,28.36,40.88,44.21l.05-3.27C324.28,284.87,360,286.19,368.86,287a6.34,6.34,0,0,1,3.62,1.56l19,16.85a6.5,6.5,0,0,0,3,1.54c1.45.28,3.75,1.41,5.07,5.56,2.05,6.38-12.25,14.55-11.48,15.58.5.67,8.18,12.71,13.38,20.88,2.7,4.26,4.74,7.46,4.74,7.46a86,86,0,0,1,20.27,27.11h0A83.18,83.18,0,0,1,433.53,435.06Z"/><path class="cls-9" d="M270,279.74s1.28,15.79-5.74,17.32-13.55,22.82-24.77,22.47-20.42-10.26-20.42-10.26l24.5-37.87,8.53-2.52S269.91,276.47,270,279.74Z"/><path class="cls-3" d="M407.36,355.43c-2.06-3.23-14.53-22.85-17.48-27.36.49-.44,1.24-1.06,1.88-1.6,4.37-3.6,11-9.06,9.24-14.42-1.59-5-4.57-6.25-6.21-6.57a5,5,0,0,1-2.28-1.19l-19-16.85A7.77,7.77,0,0,0,369,285.5c-9.82-.89-44.45-1.88-82.47,21.77-1.15-8.13-4-17.66-10.37-25.46-7.26-8.83-17.82-13.75-31.37-14.63a1.52,1.52,0,0,0-1.39.74,1.49,1.49,0,0,0,0,1.56A132.49,132.49,0,0,0,254.9,284.9c-7.89-2.94-18.29-5.85-22-2.55-5.34,4.84-8.28,22.8-8.6,24.83a1.51,1.51,0,0,0,.14.91c2.38,4.77,5.39,13.48,3.31,16.56-.24.35-1,1.4-3.63,1.17a1.8,1.8,0,0,0-.52.05,121.93,121.93,0,0,0-30.93,14c-19.92,12.92-28.85,29.36-25.82,47.53a1.49,1.49,0,0,0,.19.51l33.58,56.81a1.49,1.49,0,0,0,1.57.71l45.38-8.57,25,15.52a1.83,1.83,0,0,0,.24.13l61.79,24,.1,0,3.71,1.14.08,0,.22.06.14,0,15.77,4.86a1.62,1.62,0,0,0,.44.07,1.51,1.51,0,0,0,1.21-.61c.43-.59,2.1-2.86,4.1-5.77a1.48,1.48,0,0,0,.22.89,1.5,1.5,0,0,0,1.09.71,100.2,100.2,0,0,0,33.08-2.28c22.61-5.65,36.5-19.62,40.16-40.4C443.41,387.65,410.24,357.91,407.36,355.43Zm24.69,79.37c-3.48,19.78-16.21,32.56-37.85,38a93.88,93.88,0,0,1-19,2.6A101.12,101.12,0,0,1,364,475.2l4.4-11.94a13.93,13.93,0,0,0,.94-2.59,1.5,1.5,0,0,0-2.87-.85l-.89,2.41c-2.24,4.8-8.06,13.19-11.05,17.3l-15.67-4.82-3.17-1L274.12,449.8,248.71,434a1.54,1.54,0,0,0-1.07-.19l-44.93,8.48-32.89-55.66C163.5,347.12,220,330,224.2,328.83c3.48.21,5.22-1.23,6.08-2.5,3.49-5.14-1.61-16.48-2.89-19.15.91-5.56,3.82-19.2,7.57-22.6,3-2.7,17.62,2.19,27.3,6.61l.42.19a1.5,1.5,0,0,0,1.21-2.75l-.39-.18c-4.64-2.29-11.92-12.14-15.87-18,11.22,1.31,20,5.76,26.19,13.25,13.14,16,10.09,40.71,10.05,41a1.5,1.5,0,0,0,3,.39,70.1,70.1,0,0,0,.06-14.48c37.69-23.93,72.13-22.95,81.81-22.08a4.8,4.8,0,0,1,2.77,1.2l19,16.84a7.91,7.91,0,0,0,3.69,1.89c1.21.24,2.87,1.22,3.94,4.55s-5,8.48-8.3,11.19c-2.7,2.24-4.06,3.36-3,4.82.49.67,7.2,11.17,13.41,20.92,1.62,2.56,3.22,5.07,4.66,7.33a1.34,1.34,0,0,0,.31.36,86.22,86.22,0,0,1,20.59,28.34A81.57,81.57,0,0,1,432.05,434.8Z"/><path class="cls-3" d="M247.59,416.06c11.74.55,23.51,9.24,27.23,20.43-3.38-2.94-6.32-5.72-9.72-8.43a184.06,184.06,0,0,0-17.51-12Z"/><path class="cls-10" d="M338.5,477.72l.08,0-.08,0Z"/><path class="cls-9" d="M425.85,385.93c-2.68,9.59-17.24,41.89-40.43,45.9a7.29,7.29,0,0,0-6.07,6.25c-.63,5.31-1.88,13.06-4.14,18.17a11.39,11.39,0,0,0-.16,9.27c1,2.13,1.39,5.28.15,9.87h0A101.12,101.12,0,0,1,364,475.2l4.4-11.94a13.93,13.93,0,0,0,.94-2.59,1.52,1.52,0,0,0-1.11-1.79,1.57,1.57,0,0,0-1.79,1l-.86,2.32c-2.24,4.8-8.06,13.19-11.05,17.3l-15.67-4.82,11.48-85.52,49.91-39.29c1.62,2.56,3.22,5.07,4.66,7.33a1.34,1.34,0,0,0,.31.36A86.22,86.22,0,0,1,425.85,385.93Z"/><path class="cls-8" d="M406.27,401.9A41.13,41.13,0,0,1,398,412.51c-12.22,11-25.88,6.35-29.44,4.85-2.34-3.54-6.62-37.27-9.55-64.41-.47-4.32-.91-8.48-1.29-12.32,12.25-15.22,31.5-34.81,36.7-31.53a5.19,5.19,0,0,1,2.79,5.07c-.42,5-6.82,11.14-10.13,12.53a1.51,1.51,0,0,0-.65,2.25C386.77,329.43,420.1,377.32,406.27,401.9Z"/><path class="cls-9" d="M323.49,307.83s23.79-3.51,35.13,13.14l6.06-9.06-3.06-14.29-10.22,3.91S326,300.68,323.49,307.83Z"/><path d="M389.85,328.62c4-2.45,9.86-8.33,10.35-14.21a8.12,8.12,0,0,0-4.18-7.84c-9.42-5.95-35.82,26.16-41,32.66a1.49,1.49,0,0,0-.32,1.09c0,.09.39,3.85,1,9.67.79,7.42,2,18.2,3.31,29,4.92,39.66,6.86,40.51,8.15,41.06A33.32,33.32,0,0,0,380,422.64c7.53,0,17-2.73,25-13.42a51.49,51.49,0,0,0,3.81-5.85C422.43,379.31,395.49,337,389.85,328.62Zm16.42,73.28A41.13,41.13,0,0,1,398,412.51c-12.22,11-25.88,6.35-29.44,4.85-2.34-3.54-6.62-37.27-9.55-64.41-.47-4.32-.91-8.48-1.29-12.32,12.25-15.22,31.5-34.81,36.7-31.53a5.19,5.19,0,0,1,2.79,5.07c-.42,5-6.82,11.14-10.13,12.53a1.51,1.51,0,0,0-.65,2.25C386.77,329.43,420.1,377.32,406.27,401.9Z"/><path class="cls-9" d="M406.27,401.9A41.13,41.13,0,0,1,398,412.51l-3,1.4c2.89-1.61,13.77-8.08,10.46-26.08-2.84-15.44-8.94-32.91-12.51-43.15-1-3-7.66-16.21-13.16-10-6.4,7.25-20,13.95-20,13.95L359,353c-.47-4.32-.91-8.48-1.29-12.32,12.25-15.22,31.5-34.81,36.7-31.53a5.19,5.19,0,0,1,2.79,5.07c-.42,5-6.82,11.14-10.13,12.53a1.51,1.51,0,0,0-.65,2.25C386.77,329.43,420.1,377.32,406.27,401.9Z"/><path class="cls-3" d="M370.77,382.11s2.08-9.65,10.25-5.4c0,0,10.21-7.77,15.5,4.18,0,0,16.33,6.94,6.81,26C394.93,423.68,371.79,389.26,370.77,382.11Z"/><path class="cls-11" d="M367.23,387.82l1.71-6.13a8.58,8.58,0,0,1,11.57,0s3.06-7,9.7-4.08S394,389.69,394,389.69s10.89,3.07,9.19,15-17.53,18.22-32,15.32Z"/><path class="cls-3" d="M393.79,310.38c-.8,2.14-7.75,12-17.23,19.43-1.62,1.25-3.21,2.49-4.74,3.66a49.81,49.81,0,0,1-15.14,7.38c12.77,21.62,17.87,45.45,14.13,85.28s-33.87,64.05-33.87,64.05l-17.2-.05c-6.12,1-47.83-13.11-50-65.7s9.7-76.43,33-91.41,45.66,2.21,45.66,2.21c.52-3.52,7.58-11.4,10.24-14.26l.73-.77.27-.29.49-.42C373.75,307.78,387,306.28,391.92,308a5.61,5.61,0,0,1,1,.45,2.6,2.6,0,0,1,.76.7A1.3,1.3,0,0,1,393.79,310.38Z"/><path class="cls-3" d="M353.38,306.16s-12.7-6.42-28.88,1.52a1.41,1.41,0,0,1-1.94-1.77,9.51,9.51,0,0,1,.59-1.23c1.79-3.15,19.23-8.17,27.4-5.19,0,0,2.25-6.91,7.33-10.6Z"/><path class="cls-5" d="M439.71,260.09c-1.15,16.62-12.37,23.55-25.85,31.86l-3.92,2.44a157,157,0,0,0-18,13.63c-10.11,8.67-18.92,17.61-22.15,21l0,0a1,1,0,0,1-1.37.06,44.89,44.89,0,0,1-8.26-9.57,28.45,28.45,0,0,1-4.79-15.84c.26-11.1,8.06-21.84,23.19-31.92l.47-.32,0-.57c0-.27-1.28-27,7.22-37.5a5.2,5.2,0,0,1,4-1.91,5.44,5.44,0,0,1,1.19.14,5.24,5.24,0,0,1,.64.2c4.05,1.61,11.18,6.39,14.88,20.42l1.52,2a1,1,0,0,0,.74-1.21c-3.79-15.89-11.87-21.28-16.41-23.08a6.84,6.84,0,0,0-.72-.25,1,1,0,0,1-.74-.95,13.09,13.09,0,0,1,4.61-10.43,11.78,11.78,0,0,1,9-2.69,12.72,12.72,0,0,1,8.67,5A46.53,46.53,0,0,1,422.37,245a1,1,0,0,0,.95.94h.1a1,1,0,0,0,1.05-.93c.6-11.22-7.61-24.39-10.71-28.92a1,1,0,0,1,.37-1.45,7.7,7.7,0,0,1,5.54-.22c6.57,2,15,11.21,18.92,31.32A54.9,54.9,0,0,1,439.71,260.09Z"/><path class="cls-3" d="M406.91,252.19c.11.42.22.84.32,1.27a1,1,0,0,0,1,.78l.2,0h0Zm0,0c.11.42.22.84.32,1.27a1,1,0,0,0,1,.78l.2,0h0Zm0,0c.11.42.22.84.32,1.27a1,1,0,0,0,1,.78l.2,0h0Zm0,0c.11.42.22.84.32,1.27a1,1,0,0,0,1,.78l.2,0h0Z"/><path d="M440.56,245.34c-5.17-26.42-16.86-31.83-20.32-32.85s-6.78-.42-9,1.73a1.19,1.19,0,0,0-.22.33l-.38.87a14.58,14.58,0,0,0-5.49-1.81,13.79,13.79,0,0,0-10.54,3.15,15,15,0,0,0-5.32,11.87,1,1,0,0,1-.73,1,7.16,7.16,0,0,0-3.94,2.48c-8.07,10-7.88,32.45-7.71,37.76a1,1,0,0,1-.44.85c-15.11,10.29-22.9,21.37-23.16,32.93a30.68,30.68,0,0,0,5.3,17.35,44.65,44.65,0,0,0,10,10.86h0c1.53-1.17,3.12-2.41,4.74-3.66,4.19-4.26,11.82-11.78,20.31-19A152.91,152.91,0,0,1,411,296.08c1.32-.83,2.62-1.63,3.91-2.42,13.55-8.36,25.61-15.8,26.79-33.58A56.31,56.31,0,0,0,440.56,245.34Zm-.85,14.75c-1.15,16.62-12.37,23.55-25.85,31.86l-3.92,2.44a157,157,0,0,0-18,13.63c-10.11,8.67-18.92,17.61-22.15,21l0,0a1,1,0,0,1-1.37.06,44.89,44.89,0,0,1-8.26-9.57,28.45,28.45,0,0,1-4.79-15.84c.26-11.1,8.06-21.84,23.19-31.92l.47-.32,0-.57c0-.27-1.28-27,7.22-37.5a5.2,5.2,0,0,1,4-1.91,5.44,5.44,0,0,1,1.19.14,5.24,5.24,0,0,1,.64.2c4.05,1.61,11.18,6.39,14.88,20.42l1.52,2a1,1,0,0,0,.74-1.21c-3.79-15.89-11.87-21.28-16.41-23.08a6.84,6.84,0,0,0-.72-.25,1,1,0,0,1-.74-.95,13.09,13.09,0,0,1,4.61-10.43,11.78,11.78,0,0,1,9-2.69,12.72,12.72,0,0,1,8.67,5A46.53,46.53,0,0,1,422.37,245a1,1,0,0,0,.95.94h.1a1,1,0,0,0,1.05-.93c.6-11.22-7.61-24.39-10.71-28.92a1,1,0,0,1,.37-1.45,7.7,7.7,0,0,1,5.54-.22c6.57,2,15,11.21,18.92,31.32A54.9,54.9,0,0,1,439.71,260.09Z"/><path class="cls-12" d="M317.84,331.82a11.46,11.46,0,0,1,7.53,1.24c9.83,5.42,37.21,25.32,32.16,76.9-4.32,44.21-20.26,65-29.27,73.43A13,13,0,0,1,314.7,486c-15.12-5.83-48.08-25.19-42.27-82.19C278.48,344.43,307.07,333.74,317.84,331.82Z"/><path class="cls-5" d="M241.62,263.4c-8.14-6.92-15.15-3.57-15.15-3.57,8.28-20.48,7.95-30.42,6.58-35a5.34,5.34,0,0,0-4.71-3.76,4.52,4.52,0,0,0-.52,0c-4.91.09-9.06,2.63-12.42,6,.94-1,1.54-1.63,1.54-1.63-.23-4.5.14-11.06-.51-12.83-.72-2-5.49-2.54-7.32-1.49-23.33,13.35-17.73,38.29-13.82,50.64a29,29,0,0,0,7.07,11.68c23.33,23.55,17,26.89,17,26.89l11.91,9.87a108.32,108.32,0,0,0,11.16-6.58q2-1.31,4.5-2.95C258.5,292.93,252.15,272.37,241.62,263.4Zm-36.68-19.08A39,39,0,0,1,210,234,57.8,57.8,0,0,0,204.94,244.32Z"/><path class="cls-3" d="M242.27,262.64c-5.91-5-11.26-4.95-14.11-4.37,7.45-19,7.32-28.83,5.84-33.7a6.4,6.4,0,0,0-6.2-4.49,17.34,17.34,0,0,0-9.92,3.53c0-1.18,0-2.42,0-3.64,0-3.44,0-6.41-.48-7.69a3.85,3.85,0,0,0-2.5-2.13c-1.82-.67-4.66-.81-6.26.11-17.23,9.86-22,27.3-14.28,51.82a30.33,30.33,0,0,0,7.32,12.07c16.13,16.29,17.58,22.5,17.46,24.42a1.76,1.76,0,0,1-.26.89.87.87,0,0,0-.59.73,1,1,0,0,0,.42.92L230.6,311a1,1,0,0,0,1.05.14c.19-.09,4.71-2.2,15.8-9.61,4-2.67,6.29-7,6.61-12.45C254.59,280,249.63,268.91,242.27,262.64Zm9.8,26.3c-.28,4.82-2.27,8.59-5.73,10.91q-2,1.33-3.71,2.44c-6.42,4.16-10,6.08-11.26,6.74l-10.65-8.83a3.89,3.89,0,0,0,.34-1.09c.72-4.64-5.5-13.76-18-26.37a28.2,28.2,0,0,1-6.83-11.27C188.81,238,193.3,221.33,209.6,212a6.66,6.66,0,0,1,4.58,0,2.17,2.17,0,0,1,1.32.94c.34.95.35,4.16.35,7,0,1.73,0,3.5.07,5.08-.23.24-.58.6-1,1.07a40.54,40.54,0,0,0-6,7.73,39.87,39.87,0,0,0-5,10.34,1,1,0,0,0,1.91.6,57.46,57.46,0,0,1,5.28-10.64,61.1,61.1,0,0,1,4.86-6.21c3.23-3.29,7.2-5.77,11.86-5.86h.09a4.35,4.35,0,0,1,4.16,3.07c1.17,3.87,1.88,13.48-6.55,34.3a1,1,0,0,0,1.36,1.28c.06,0,6.51-3,14.07,3.44C247.78,270,252.55,280.62,252.07,288.94Z"/><path class="cls-13" d="M166.6,366.26s10.13-53.21,37.7-73.13c0,0,21.66-.66,31.1,17.08Z"/><path class="cls-3" d="M258.93,419.06c-.36,1.23-.74,2.44-1.13,3.63-1,3-2.07,5.81-3.23,8.55q-1.41,3.3-2.94,6.39c-1.43,2.89-2.94,5.63-4.47,8.21-.6,1-1.2,2-1.8,2.92-2.38,3.77-4.8,7.17-7.13,10.18a124.56,124.56,0,0,1-8.32,9.71l-.69.73a19.43,19.43,0,0,1-8.85,5.25,18.54,18.54,0,0,1-7.57.47,55,55,0,0,1-23.75-10q-2.46-1.78-4.83-3.88c-15.07-13.41-26.8-37.12-22.86-74.7,7.41-70.46,51.83-76.85,51.83-76.85l9.09-.67a18.54,18.54,0,0,1,15.15,6.11c9.32,10.51,24.91,33.68,25.8,71.67A104.78,104.78,0,0,1,258.93,419.06Z"/><path class="cls-12" d="M230.05,320.6c11.26,10.21,26.15,34.35,19.31,89,0,0-6.61,40.11-24.93,56.37a16.56,16.56,0,0,1-18.17,2.44c-13.74-6.66-41.65-24.2-42.14-74.16-.49-49.45,28.6-69.57,44.61-76.88A19.6,19.6,0,0,1,230.05,320.6Z"/><path class="cls-3" d="M329.11,279.74c-5.45,8.17-17,12-26.22,8.69,2.44-.43,4.74-.63,7-1.15a64,64,0,0,0,19.23-7.54Z"/><path class="cls-3" d="M423.84,436c.18,9-8,16.88-16.41,18.8a.1.1,0,0,1-.05-.19,22.69,22.69,0,0,0,10.12-7.52A89.5,89.5,0,0,0,423.65,436a.1.1,0,0,1,.19,0Z"/><path class="cls-11" d="M270.38,329.25c-4.61,0-8.23-5.41-8.23-12.31s3.62-12.32,8.23-12.32,8.24,5.41,8.24,12.32S275,329.25,270.38,329.25Z"/><path class="cls-3" d="M270.38,305.62c4,0,7.24,5.06,7.24,11.32s-3.24,11.32-7.24,11.32-7.23-5.07-7.23-11.32,3.24-11.32,7.23-11.32m0-2c-5.18,0-9.23,5.85-9.23,13.32s4.05,13.32,9.23,13.32,9.24-5.86,9.24-13.32-4.06-13.32-9.24-13.32Z"/><path class="cls-3" d="M176.58,424.17c7-6.51,16.44-9.79,25.87-10.63,9.32-1.14,19.27.07,27.43,4.83.19.12.05.46-.18.36-8.44-3.56-17.87-3.77-26.76-2-4.43.88-8.65,2.53-13,3.78s-8.71,2.73-13.18,4a.2.2,0,0,1-.2-.34Z"/><path class="cls-3" d="M283.35,435.66c9.42-8.81,23.28-9.64,35.43-8a82.57,82.57,0,0,1,9.06,1.83l5.27,1.68c2.3.82,4.54,1.83,6.79,2.75a.2.2,0,0,1,.11.26.19.19,0,0,1-.25.11c-3.26-.92-7.2-2.09-10.54-2.67-2-.47-5.12-.78-7.12-1.08a70.59,70.59,0,0,0-14.24,0A145.37,145.37,0,0,0,283.58,436c-.19.08-.39-.19-.23-.34Z"/><path class="cls-6" d="M439.71,260.09c-1.15,16.62-12.37,23.55-25.85,31.86l-3.92,2.44a157,157,0,0,0-18,13.63c-10.11,8.67-18.92,17.61-22.15,21C395.09,268.12,426.48,284.68,439.71,260.09Z"/><path class="cls-6" d="M252.07,288.94c-.28,4.82-2.27,8.59-5.73,10.91q-2,1.33-3.71,2.44c5.88-34.15-16.4-30.16-21.78-39.31-4.26-7.25,7.2-28.71,11.24-37.83,1.17,3.87,1.88,13.48-6.55,34.3a1,1,0,0,0,1.36,1.28c.06,0,6.51-3,14.07,3.44C247.78,270,252.55,280.62,252.07,288.94Z"/><path class="cls-11" d="M262.47,169.94c-1.48,5.11-1.39,9.63-6.5,8.15a9.64,9.64,0,0,1-6.59-11.94c1.49-5.12,10.37-8.6,15.48-7.12S264,164.82,262.47,169.94Z"/><path class="cls-11" d="M281.73,109.63a4,4,0,0,0,2.3-6.15c-1.26-1.73-3.62-2.76-8-1.26-10.61,3.65-20.71,23.09-20.46,25.54C255.8,129.91,272.13,111.8,281.73,109.63Z"/><path class="cls-14" d="M411.12,83.38c-25.74-8.16-49.05-3.77-65.3,2.18A40.41,40.41,0,0,1,302,74.8h0C321,65.09,353.24,58.65,402.13,78A55.48,55.48,0,0,1,411.12,83.38Z"/><path class="cls-3" d="M336.09,116.17S316,141,283.46,123.32c0,0,21.65-11.23,21.31-15.32s-31.66-30-57.54,3.74c0,0-11.57-12.93,2.73-36.42,0,0-21.45-18-47.66,23.83,0,0-21.79-33,12.93-60.6s73.15.65,85.11,22.13C312.78,83,336.09,116.17,336.09,116.17Z"/><path class="cls-11" d="M394,414.39l1-.46A7.42,7.42,0,0,1,394,414.39Z"/><path class="cls-11" d="M376.77,281.3a2.4,2.4,0,0,0-3.94-2c-4.07,3.47-10.74,10.34-11.21,18.36-.68,11.57,7.45,11.39,8.15,4.67C370.33,296.94,376.27,287.87,376.77,281.3Z"/><path class="cls-15" d="M344.17,134.81s-2.55,5.74-1.91,6.76,5.87,6.77,2.93,20.94c0,0,3.83,2.94,4.47,2.81s-10.34,4.85-20.81,1.53S336.26,136.34,344.17,134.81Z"/><path class="cls-15" d="M280.4,118.12a.26.26,0,0,0-.17.09Z"/><path class="cls-15" d="M370.81,216.6s5.45,41.19-14,43.57c0,0-6.47,1.36-15.66-8.85,0,0-16,23.83-37.45,20.42,0,0-5.78-4.76-3.74-12.25,0,0-24.08,17.87-56.29,7.15-42.43-14.13-30.52-53.35-29.5-55.44,0,0-8.17,7.78-10.21,7.44,0,0-5.11-31,8.17-37.45,0,0,1.19-5.1-2.72-4.59a26.09,26.09,0,0,1-8.17-.51s6.59-18,37.06-27.69c0,0,7.53,9.64,10.43,9.47a45.68,45.68,0,0,1,16.41-8.45c-5.34-19.48,13-30.09,15-31.2-1,.88-4,7.68-4,7.68,9.57,7,3.06,20,3.06,20a10.46,10.46,0,0,1,3.16,1.48l.19.1c-.71,0-1.84.12-3.27.28-11.94,1.28-44.91,7.67-33.12,38.83,14.3,37.79,80.86,19.67,83.41,3.06,1.44-9.44-4.09-14-4.09-14s32.68-9.67,47.32,2.49a54.29,54.29,0,0,1,17.7,29.17S372.17,212.51,370.81,216.6Z"/><path class="cls-16" d="M332.22,348.57c4.77,11.09,12.71,37.06,6.28,77.7,0,0,14,10.87,14.81,0,.76-10.13,6.59-58.76-18.3-79.78A1.79,1.79,0,0,0,332.22,348.57Z"/><path class="cls-16" d="M335.64,444.06a4.23,4.23,0,0,1,5.09-4c3.2.68,6.56,1.87,5.86,3.79-1.12,3.06-5.88,19.59-14.86,29.5a1.4,1.4,0,0,1-2.39-1.3C331.65,465.35,335.26,453.51,335.64,444.06Z"/><path class="cls-16" d="M212.87,330c8.35,4.25,21.15,26.29,12.92,76.24,0,0,10.22,14.29,18.79-2,9.16-17.45-4.18-93.82-31.76-79.57A3,3,0,0,0,212.87,330Z"/><path class="cls-16" d="M226.09,427.7c-.29-1.93.57-3.81,3.15-3.86,5-.09,10.5.29,10.5,2.43,0,3.94-6.07,16.81-13.52,23.91C219.87,456.22,227.51,437.08,226.09,427.7Z"/><path class="cls-11" d="M196.9,334.17c-6.25,6.17-16.83,18.5-18.84,32.93-.33,2.36-4.95,1.94-4.79-.43.26-3.8,1.73-9.16,5.46-16.7,5.47-11.06,10.72-16.19,14.8-18.49C195.71,330.24,198.57,332.53,196.9,334.17Z"/><path class="cls-11" d="M292.59,355c-2.22,3.66-15,14.45-14.1,41.46.11,3.36,3.11,4.91,4.68,2.07,0,0,.09-.1.09-.17-.62-12.57,16.93-44,11.06-44.46A2,2,0,0,0,292.59,355Z"/><path class="cls-17" d="M145.79,462s3.74,4.09,3.06,6.13-8.34-2.89-8.85,0-.17,4-7.32,2.16"/><path class="cls-2" d="M224.86,495.28s19.14-7.71,20.84-1.07c1.57,6.11,5.56,9.44-2,17.1a3.42,3.42,0,0,1-4.55.33C234.32,507.85,224.84,498.24,224.86,495.28Z"/><path class="cls-18" d="M196.65,497.52s-9-16.6-22.92-6.29-6.23,24.55,15.59,16.51S196.65,497.52,196.65,497.52Z"/><path class="cls-18" d="M213.2,498.91s15.77-14.62,26.45-6.7-2.12,26.74-9.74,26.12S209.22,510.51,213.2,498.91Z"/><path class="cls-18" d="M199.74,499.9s-17.5-7.07-7.52-17c9.35-9.36,31.8-9.59,32.62,4.61S199.74,499.9,199.74,499.9Z"/><path class="cls-18" d="M201.73,513.65s-8.88,26,9.28,23.87,23.67-16.12,15-22.36-20.39-11.07-20.39-11.07Z"/><path class="cls-18" d="M202,512.64s2.86,27.49-18.2,23c-1.05-.22-2.08-.49-3.13-.7-4.89-1-18.06-4.76-12.45-17.22C175.07,502.55,199.39,507.63,202,512.64Z"/><path class="cls-19" d="M195.23,521.32s-10.76,3.74-5.11,8.69S198.83,525.59,195.23,521.32Z"/><path class="cls-19" d="M221,517.83s8.86.18,5.64,7.24S217.78,519.8,221,517.83Z"/><path class="cls-19" d="M201.41,493.11s2.38-10.77-1.63-10.92-6.26,4-6,4.66A13.66,13.66,0,0,0,201.41,493.11Z"/><ellipse class="cls-20" cx="202.27" cy="504.48" rx="14.22" ry="8.15" transform="translate(-83.28 42.01) rotate(-9.85)"/><path class="cls-21" d="M198.17,501.54a2.93,2.93,0,0,0-3.44-1c-1.89.71-4,2.17-3.91,5.15.1,5.43,12.82,2.5,11.69-1C201.61,502,199.19,503,198.17,501.54Z"/></svg>