<svg id="Layer_1" data-name="Layer 1" xmlns="http://www.w3.org/2000/svg" xmlns:xlink="http://www.w3.org/1999/xlink" viewBox="0 0 566.93 566.93"><defs><style>.cls-1{fill:#21201f;}.cls-2{fill:#2180c4;}.cls-3{fill:#51c3f0;}.cls-4{fill:#d4ecfb;}.cls-12,.cls-5{fill:#231f20;}.cls-6,.cls-7{fill:#fff;}.cls-10,.cls-11,.cls-12,.cls-7{stroke:#231f20;}.cls-10,.cls-12,.cls-7{stroke-miterlimit:10;}.cls-10,.cls-11,.cls-7{stroke-width:3px;}.cls-8,.cls-9{opacity:0.7;}.cls-8{fill:url(#radial-gradient);}.cls-9{fill:url(#radial-gradient-2);}.cls-10,.cls-11{fill:none;}.cls-11{stroke-linecap:round;stroke-linejoin:round;}.cls-12{stroke-width:2px;}.cls-13{fill:#ec3134;}.cls-14{fill:#c4232a;}</style><radialGradient id="radial-gradient" cx="372.97" cy="329.05" r="15.05" gradientUnits="userSpaceOnUse"><stop offset="0" stop-color="#feea2e"/><stop offset="0.44" stop-color="#fef38f"/><stop offset="0.53" stop-color="#fef494"/><stop offset="0.61" stop-color="#fef6a9"/><stop offset="0.88" stop-color="#fffde7"/><stop offset="1" stop-color="#fff"/></radialGradient><radialGradient id="radial-gradient-2" cx="237.44" cy="296.37" r="15.05" xlink:href="#radial-gradient"/></defs><circle class="cls-1" cx="321.11" cy="269.31" r="191.36"/><circle class="cls-2" cx="321.11" cy="269.31" r="174.62"/><circle class="cls-3" cx="321.11" cy="269.31" r="155.11"/><circle class="cls-4" cx="321.11" cy="269.31" r="137.07"/><path class="cls-5" d="M264.51,532.83h-9.8A4.76,4.76,0,0,1,250,528.3l-4.35-90.84h28l-4.35,90.84A4.75,4.75,0,0,1,264.51,532.83Z"/><polygon class="cls-5" points="263.05 542.59 256.17 542.59 254.5 534.55 264.72 534.55 263.05 542.59"/><path class="cls-5" d="M259.89,384.2h-.55a27.15,27.15,0,0,0-27.15,27.15v.55a27.11,27.11,0,0,0,11.5,22.19h31.84A27.12,27.12,0,0,0,287,411.9v-.55A27.16,27.16,0,0,0,259.89,384.2Z"/><path class="cls-6" d="M282.29,412.23a.88.88,0,0,1-.89-.88,21.54,21.54,0,0,0-21.51-21.52.88.88,0,1,1,0-1.76,23.31,23.31,0,0,1,23.28,23.28A.88.88,0,0,1,282.29,412.23Z"/><rect class="cls-6" x="257.46" y="448.1" width="4.85" height="12.07" rx="2.4"/><rect class="cls-6" x="257.46" y="448.1" width="4.85" height="12.07" rx="2.4"/><path class="cls-5" d="M261.53,454.13V450.5a1.62,1.62,0,0,0-1.62-1.63h-.05a1.62,1.62,0,0,0-1.62,1.63v3.63Z"/><path class="cls-5" d="M359.5,450c8-9.45,50.72-123.24,56.32-135a6.62,6.62,0,0,0-12-5.7c-12.71,26.76-49.17,125.91-54.5,132.22-5.79,6.88-45.72,24.18-53.08,26.7v.09l-.55.08h0a6.63,6.63,0,0,0,2,13.09C302.56,480.91,350.6,460.54,359.5,450Z"/><path class="cls-5" d="M361,451.22c8.12-9.64,51-123.63,56.58-135.47a8.52,8.52,0,0,0-15.39-7.32c-12.66,26.67-49,125.65-54.22,131.81-5.53,6.56-46.84,24.51-52.66,26.26a8.52,8.52,0,0,0,2.65,16.81C302.86,482.78,351.85,462,361,451.22Zm-68.79,28.14a6.62,6.62,0,0,1,3.57-11h0l.55-.08v-.09c7.36-2.52,47.29-19.82,53.08-26.7,5.33-6.31,41.79-105.46,54.5-132.22a6.62,6.62,0,0,1,12,5.7c-5.6,11.81-48.35,125.6-56.32,135.05-8.9,10.55-56.94,30.92-61.79,31.44A6.59,6.59,0,0,1,292.16,479.36Z"/><path class="cls-5" d="M308.12,495.42a13.27,13.27,0,0,0,7.17-3.52c3-2.63,4-7.67,2.86-14.19-1.82-10.31-9.24-23.57-18.06-27-3.67-1.41-6.79-1.32-9.3.29a11.84,11.84,0,0,0-4.34,6,1.12,1.12,0,0,0-.22-.1c-1.19-.34-29.16-8.21-41.68-5.21-9.68,2.33-12.93,7.56-13.88,9.71a7.08,7.08,0,0,0-.63,4.24c-4.87,2.94-7.34,6.22-7.33,9.73a10.46,10.46,0,0,0,3.19,6.89,20.23,20.23,0,0,0,3.76,3.14c-2.93,3.25-4.14,6.56-3.59,9.87.83,5.05,5.49,8.47,7.33,9.63-.71,1.9-2.14,6.81.14,10.48a9.2,9.2,0,0,0,.85,1.1q2.49,2.67,7.74,3c.94,2.65,5.27,11.81,19.23,9.33C271.64,526.93,296.67,520,308.12,495.42ZM261,526.93c-14.38,2.56-17.16-8.14-17.28-8.6a.94.94,0,0,0-.89-.73c-3.85-.11-6.44-1.19-7.71-3.21-2.28-3.67.28-9.42.31-9.48a1,1,0,0,0-.41-1.22c-.07,0-6.25-3.47-7.11-8.72-.44-2.77.66-5.63,3.3-8.48a1.19,1.19,0,0,0,.18-.33,1,1,0,0,0,.57-.45.92.92,0,0,0-.36-1.27c-.06,0-7-4-7-9.06,0-2.94,2.34-5.78,7-8.46l0,0a.94.94,0,0,0,.34-1.3,4.66,4.66,0,0,1,.43-3.43c.83-1.89,3.71-6.49,12.58-8.63,12-2.89,40.43,5.11,40.72,5.2a.68.68,0,0,0,.2,0,22.47,22.47,0,0,0-.73,4.38.93.93,0,0,0,.89,1,.94.94,0,0,0,1-.9c0-.08.43-7.86,4.75-10.64,2-1.29,4.52-1.32,7.58-.11,8.21,3.19,15.15,15.76,16.88,25.56,1,5.85.23,10.27-2.24,12.44a11.09,11.09,0,0,1-6.71,3.13A8.35,8.35,0,0,1,301,491a.94.94,0,0,0-1.34-.1,1,1,0,0,0-.1,1.34l.09.1a10.66,10.66,0,0,0,6.36,3.15C294.77,518.57,270.91,525.15,261,526.93Z"/><path class="cls-6" d="M261,526.93c-14.38,2.56-17.16-8.14-17.28-8.6a.94.94,0,0,0-.89-.73c-3.85-.11-6.44-1.19-7.71-3.21-2.28-3.67.28-9.42.31-9.48a1,1,0,0,0-.41-1.22c-.07,0-6.25-3.47-7.11-8.72-.44-2.77.66-5.63,3.3-8.48a1.19,1.19,0,0,0,.18-.33,1,1,0,0,0,.57-.45.92.92,0,0,0-.36-1.27c-.06,0-7-4-7-9.06,0-2.94,2.34-5.78,7-8.46l0,0a.94.94,0,0,0,.34-1.3,4.66,4.66,0,0,1,.43-3.43c.83-1.89,3.71-6.49,12.58-8.63,12-2.89,40.43,5.11,40.72,5.2a.68.68,0,0,0,.2,0,22.47,22.47,0,0,0-.73,4.38.93.93,0,0,0,.89,1,.94.94,0,0,0,1-.9c0-.08.43-7.86,4.75-10.64,2-1.29,4.52-1.32,7.58-.11,8.21,3.19,15.15,15.76,16.88,25.56,1,5.85.23,10.27-2.24,12.44a11.09,11.09,0,0,1-6.71,3.13A8.35,8.35,0,0,1,301,491a.94.94,0,0,0-1.34-.1,1,1,0,0,0-.1,1.34l.09.1a10.66,10.66,0,0,0,6.36,3.15C294.77,518.57,270.91,525.15,261,526.93Z"/><path class="cls-5" d="M150.74,300.08c11.9,3.38,133.19-4.39,146.27-4.15a6.62,6.62,0,1,0,.27-13.24c-29.61-.59-135,6.9-142.93,4.64-8.65-2.46-40.83-31.74-46.15-37.42l-.08.05c-.1-.17-.2-.31-.29-.47h0a6.61,6.61,0,0,0-8.76-1.88,6.63,6.63,0,0,0-2.36,9.06C99.15,260.87,137.46,296.3,150.74,300.08Z"/><path class="cls-5" d="M150.21,301.91c12.13,3.44,133.66-4.34,146.76-4.08a8.52,8.52,0,0,0,.35-17c-29.51-.59-134.69,6.92-142.45,4.72-8.25-2.35-41.59-32.64-45.58-37.23A8.52,8.52,0,0,0,94.55,250a8.4,8.4,0,0,0,.51,7.6C97.57,261.91,136.65,298,150.21,301.91ZM96.3,250.75a6.5,6.5,0,0,1,2.75-3.15,6.61,6.61,0,0,1,8.76,1.88h0c.09.16.19.3.29.47l.08-.05c5.32,5.68,37.5,35,46.15,37.42,7.94,2.26,113.32-5.23,142.93-4.64a6.62,6.62,0,1,1-.27,13.24c-13.08-.24-134.37,7.53-146.27,4.15-13.28-3.78-51.59-39.21-54.05-43.42A6.56,6.56,0,0,1,96.3,250.75Z"/><path class="cls-5" d="M108.9,203a4.66,4.66,0,0,0-5.6,1.54c-1.36,1.9-2.15,4.85-2.35,8.85-1-1-2.46-2.18-4.25-3.67a182.23,182.23,0,0,1-19.16-18c-7.76-8.64-13.43-8.77-16.11-8.08a6.57,6.57,0,0,0-4.92,4.76,2.18,2.18,0,0,0-.07.52c-3.54-.64-6.42-.11-8.62,1.63-4,3.17-4,9.1-4,9.42a8.73,8.73,0,0,0,.61,2.4,5.41,5.41,0,0,0-5.27,1.56,9.5,9.5,0,0,0-1.94,9.86,9,9,0,0,0,.71,1.35,11.9,11.9,0,0,0-5,3.4,7.92,7.92,0,0,0-1.8,7.08c1.52,7,16.61,22.47,28.73,34.87,3.36,3.44,6.51,6.67,8.93,9.28,7.33,7.87,17.18,7.22,23.1,5.85.06.2,1.65,4.87,5.08,6.24a5.67,5.67,0,0,0,4.93-.48,26.22,26.22,0,0,0,2.79-1.92c7.76-6,24.16-22.48,23.28-32.72-.31-3.48-2.51-6-6.53-7.36,1.15-4.95,1.63-10.64-1-13.89-1.7-2.14-2.28-5.21-2.9-8.47C116.51,211.77,115.38,205.8,108.9,203Zm7.2,14.28c.66,3.43,1.27,6.68,3.2,9.09,4.63,5.81-2.24,21.65-2.31,21.81a.73.73,0,0,0,.37.95.69.69,0,0,0,.73-.09.78.78,0,0,0,.22-.28,60.89,60.89,0,0,0,2.74-8c3.42,1.19,5.19,3.18,5.45,6.05,1,11.13-20.7,30.73-25.33,33.25a4.2,4.2,0,0,1-3.71.41c-2.54-1-3.95-4.55-4.19-5.25A25.54,25.54,0,0,0,97,274l.14-.07a.71.71,0,0,0,.21-.87.72.72,0,0,0-1-.35c-.16.07-16.17,7.26-26.54-3.9-2.43-2.62-5.61-5.87-9-9.29C49.49,247.88,33.93,232,32.48,225.32a6.51,6.51,0,0,1,1.35-5.66,9.87,9.87,0,0,1,5-3.26c5,6.66,18.8,18.54,19.47,19.11a.71.71,0,0,0,.91,0l.11-.1a.74.74,0,0,0-.08-1c-.19-.16-18.65-16-20.67-21.14A8.11,8.11,0,0,1,40.14,205a4,4,0,0,1,4.53-1,.62.62,0,0,0,.48,0c4.69,8.83,19.83,20.63,20.56,21.2a.72.72,0,0,0,.89,0,.75.75,0,0,0,0-1.14c-.21-.17-20.67-16.09-21.38-24.12,0,0,0-5.49,3.5-8.23l.07-.06c1.92-1.48,4.57-1.88,7.86-1.18,2.12,7.33,19.07,22,21.18,23.8a.69.69,0,0,0,1-.08.73.73,0,0,0-.07-1C70.67,206.23,59.25,195,58,190v0a2.29,2.29,0,0,1-.1-.55,1.9,1.9,0,0,1,0-.72A5.15,5.15,0,0,1,61.79,185c2.37-.61,7.43-.43,14.67,7.65a185.06,185.06,0,0,0,19.32,18.17,56.64,56.64,0,0,1,5.12,4.55h0a63.56,63.56,0,0,0,.39,7.08.71.71,0,0,0,.79.63.69.69,0,0,0,.63-.78,62.47,62.47,0,0,1-.37-7.12.86.86,0,0,1,0-.16h0c.08-5.45,1.12-8.24,2.13-9.66a3.21,3.21,0,0,1,3.87-1.05C114.11,206.82,115.12,212.15,116.1,217.31Z"/><path class="cls-6" d="M116.1,217.31c.66,3.43,1.27,6.68,3.2,9.09,4.63,5.81-2.24,21.65-2.31,21.81a.73.73,0,0,0,.37.95.69.69,0,0,0,.73-.09.78.78,0,0,0,.22-.28,60.89,60.89,0,0,0,2.74-8c3.42,1.19,5.19,3.18,5.45,6.05,1,11.13-20.7,30.73-25.33,33.25a4.2,4.2,0,0,1-3.71.41c-2.54-1-3.95-4.55-4.19-5.25A25.54,25.54,0,0,0,97,274l.14-.07a.71.71,0,0,0,.21-.87.72.72,0,0,0-1-.35c-.16.07-16.17,7.26-26.54-3.9-2.43-2.62-5.61-5.87-9-9.29C49.49,247.88,33.93,232,32.48,225.32a6.51,6.51,0,0,1,1.35-5.66,9.87,9.87,0,0,1,5-3.26c5,6.66,18.8,18.54,19.47,19.11a.71.71,0,0,0,.91,0l.11-.1a.74.74,0,0,0-.08-1c-.19-.16-18.65-16-20.67-21.14A8.11,8.11,0,0,1,40.14,205a4,4,0,0,1,4.53-1,.62.62,0,0,0,.48,0c4.69,8.83,19.83,20.63,20.56,21.2a.72.72,0,0,0,.89,0,.75.75,0,0,0,0-1.14c-.21-.17-20.67-16.09-21.38-24.12,0,0,0-5.49,3.5-8.23l.07-.06c1.92-1.48,4.57-1.88,7.86-1.18,2.12,7.33,19.07,22,21.18,23.8a.69.69,0,0,0,1-.08.73.73,0,0,0-.07-1C70.67,206.23,59.25,195,58,190v0a2.29,2.29,0,0,1-.1-.55,1.9,1.9,0,0,1,0-.72A5.15,5.15,0,0,1,61.79,185c2.37-.61,7.43-.43,14.67,7.65a185.06,185.06,0,0,0,19.32,18.17,56.64,56.64,0,0,1,5.12,4.55h0a63.56,63.56,0,0,0,.39,7.08.71.71,0,0,0,.79.63.69.69,0,0,0,.63-.78,62.47,62.47,0,0,1-.37-7.12.86.86,0,0,1,0-.16h0c.08-5.45,1.12-8.24,2.13-9.66a3.21,3.21,0,0,1,3.87-1.05C114.11,206.82,115.12,212.15,116.1,217.31Z"/><path class="cls-5" d="M98.34,229.88c-5.4,5-6.26,12-3.35,18.53.39.91.85,1.79,1.22,2.73-.64-.76-1.23-1.59-1.84-2.41-4.25-6.26-2.94-15.26,4-18.85Z"/><path class="cls-5" d="M88.71,217.39C81.63,226.88,73,236.63,66.8,246.71a20.58,20.58,0,0,0-2.18,4.71c1.3-7,6-12.74,10.08-18.36a143.56,143.56,0,0,1,14-15.67Z"/><circle class="cls-7" cx="321.11" cy="269.31" r="115.65"/><circle class="cls-8" cx="376.19" cy="332.58" r="18.87"/><circle class="cls-9" cx="240.66" cy="299.89" r="18.87"/><path class="cls-10" d="M345.82,180s-126-28.94-185.19,12.25"/><path class="cls-10" d="M357.05,174.86s-134.8-54.81-144.34-15.66"/><path class="cls-10" d="M380.2,174.86S274.45,111.33,261.74,145.1"/><path d="M320,309.8a5.62,5.62,0,0,1-.8-.15c-2.41-.65-4.41-2.71-5.72-5.88a23.74,23.74,0,0,1-1.23-12.12,31.23,31.23,0,0,1,5.14-13.91l.19-.26a51.92,51.92,0,0,1,12.95-12.64l.74,1c-3.4,2.58-7,6.85-9.93,10.8a6.33,6.33,0,0,1,3.29-.42c5.56.77,9,8.9,7.75,18.16S325.54,310.57,320,309.8Z"/><path d="M285,299.89a5.51,5.51,0,0,1-.81-.05c-2.47-.36-4.71-2.15-6.39-5.15a23.73,23.73,0,0,1-2.69-11.88,31.2,31.2,0,0,1,3.42-14.42l.16-.29A51.79,51.79,0,0,1,290,254l.85,1c-3.06,3-6.09,7.64-8.55,11.92a6.5,6.5,0,0,1,3.22-.81c5.61.09,10,7.74,9.89,17.09S290.59,300,285,299.89Z"/><path class="cls-11" d="M337.71,223.5s30.3-5.45,37.79,28.25-16,49-34.72,62l22.81,2.73"/><path class="cls-11" d="M314.56,215s-25.87-30.64-51.4,4.08-4.77,63.66,4.43,74.22L247.5,283.07"/><path class="cls-12" d="M320.72,342.55a17,17,0,0,1-5.22,8.35l-.24.21a1.59,1.59,0,0,1-.24.2,20.89,20.89,0,0,1-7.81,4l-.31.08-.3.08a25.31,25.31,0,0,1-12.63-.19,25.68,25.68,0,0,1-6.07-2.47l-.26-.16a1.75,1.75,0,0,1-.27-.16,23.65,23.65,0,0,1-6.82-6.1l-.19-.26-.17-.25a17.92,17.92,0,0,1-3-15,17.4,17.4,0,0,1,7.48-10.08A24,24,0,0,1,304,318.1c7.57,2,13.34,7.13,15.9,13.18A17.3,17.3,0,0,1,320.72,342.55Z"/><path class="cls-6" d="M319.86,331.28c-4.93,1.25-11.31,1.13-17.95-.65-7.51-2-13.69-5.72-17.21-9.84A24,24,0,0,1,304,318.1C311.53,320.14,317.3,325.23,319.86,331.28Z"/><path class="cls-13" d="M306.9,355.42l-.3.08a25.31,25.31,0,0,1-12.63-.19,25.68,25.68,0,0,1-6.07-2.47l-.26-.16a1.75,1.75,0,0,1-.27-.16,23.65,23.65,0,0,1-6.82-6.1l-.19-.26a15.39,15.39,0,0,1,12.73-4.72,14.61,14.61,0,0,1,5.62,1.84l.39.24a3.14,3.14,0,0,1,.39.24A17.39,17.39,0,0,1,306.9,355.42Z"/><path class="cls-14" d="M299.92,343.69a3.62,3.62,0,0,0-.38-.26l-.39-.24a14.87,14.87,0,0,0-6-2.06,15.71,15.71,0,0,0-12.94,4.78l.17.25.19.26a15.14,15.14,0,0,1,12.51-4.68,16.07,16.07,0,0,1,2.09.4,15.07,15.07,0,0,1,3.12,1.25l.39.22.38.23a17.11,17.11,0,0,1,7.56,11.66l.3-.08.31-.08A17.81,17.81,0,0,0,299.92,343.69Z"/><path class="cls-13" d="M315.26,351.11a1.59,1.59,0,0,1-.24.2,20.89,20.89,0,0,1-7.81,4l-.31.08-.3.08a25.31,25.31,0,0,1-12.63-.19,25.68,25.68,0,0,1-6.07-2.47l-.26-.16a17,17,0,0,1,11-9.07l.44-.09.44-.09a14.17,14.17,0,0,1,4.17-.12A15.4,15.4,0,0,1,315.26,351.11Z"/><path class="cls-14" d="M314.68,349.63A15.53,15.53,0,0,0,303.75,343a15.07,15.07,0,0,0-4.6.19l-.44.09-.44.11a16.33,16.33,0,0,0-6.68,3.61,18.41,18.41,0,0,0-4.22,5.52,1.75,1.75,0,0,0,.27.16l.26.16a17.6,17.6,0,0,1,4.11-5.37,15.43,15.43,0,0,1,7-3.63l.45-.08a2.14,2.14,0,0,1,.43-.07,13.91,13.91,0,0,1,3.76-.08,16.22,16.22,0,0,1,2.1.4,15.13,15.13,0,0,1,8.4,6c.3.43.58.86.84,1.32a1.59,1.59,0,0,0,.24-.2l.24-.21C315.25,350.46,315,350,314.68,349.63Z"/></svg>