<svg xmlns="http://www.w3.org/2000/svg" xmlns:xlink="http://www.w3.org/1999/xlink" viewBox="0 0 200 419.19"><defs><radialGradient id="radial-gradient" cx="137.67" cy="131.49" r="16.83" gradientUnits="userSpaceOnUse"><stop offset="0" stop-color="#e68f9e"/><stop offset="0.15" stop-color="#e6909f" stop-opacity="0.98"/><stop offset="0.28" stop-color="#e793a1" stop-opacity="0.94"/><stop offset="0.41" stop-color="#e998a4" stop-opacity="0.86"/><stop offset="0.54" stop-color="#eb9fa9" stop-opacity="0.74"/><stop offset="0.66" stop-color="#eea9ae" stop-opacity="0.6"/><stop offset="0.78" stop-color="#f2b4b6" stop-opacity="0.42"/><stop offset="0.9" stop-color="#f6c1be" stop-opacity="0.21"/><stop offset="1" stop-color="#facfc7" stop-opacity="0"/></radialGradient><radialGradient id="radial-gradient-2" cx="61.05" cy="131.49" r="16.83" xlink:href="#radial-gradient"/></defs><g style="isolation:isolate"><g id="Layer_1" data-name="Layer 1"><path d="M41.05,271.1s0-26,8.09-44.08c2.61-17.34,5.41-34.5,10.67-44.05s11.28-12.12,11.28-12.12v42.52s-3.29,14.53-4.7,20.57a244.55,244.55,0,0,1-11.25,43.59c.87,2.66,3.37,11.45,3.77,13.05s0,4.51-1.08,4.85-2.08-.36-2.88-2.84c-.6-1.88-2.35-5.27-3.91-4.73-1,.35-1.71,3.71-1,6.16,1.43,5-.08,8.68-1.4,8.3C46.46,301.47,41.05,291.43,41.05,271.1Z" style="fill:#facfc7"/><path d="M159.73,271.1s0-26-8.09-44.08C149,209.68,146.23,192.52,141,183s-11.28-12.12-11.28-12.12v42.52s3.29,14.53,4.7,20.57a244.55,244.55,0,0,0,11.25,43.59c-.86,2.66-3.37,11.45-3.77,13.05s0,4.51,1.09,4.85c.93.28,2.07-.36,2.87-2.84.6-1.88,2.36-5.27,3.91-4.73,1,.35,1.71,3.71,1,6.16-1.43,5,.09,8.68,1.4,8.3C154.31,301.47,159.73,291.43,159.73,271.1Z" style="fill:#facfc7"/><path d="M56.4,267.41c-.21,3.64-.51,7.29-.71,10.94a2,2,0,0,0,2.14,1c1.08-.29,1.48-2.83,1.08-4.23C58.64,274.22,57.43,270.47,56.4,267.41Z" style="fill:#e3bea4;opacity:0.5;mix-blend-mode:multiply"/><path d="M59.81,181.86c-4.53,7.45-7.23,20-9.56,33.41,2.61,1.87,5,4.1,8.11,5a.2.2,0,0,1,.14.19c-.62,5.09-1.43,10.16-2,15.26a93.79,93.79,0,0,0-.72,13.41c.13,4.63.85,9.2.88,13.84,0,.28,0,.56,0,.84a206.75,206.75,0,0,0,9.75-35.71c1.41-5.48,4.7-18.68,4.7-18.68V170.85S65.07,173.19,59.81,181.86Z" style="fill:#e3bea4;opacity:0.5;mix-blend-mode:multiply"/><path d="M143.84,234.76c-.2-2.91-1.05-5.74-1.12-8.66a13.74,13.74,0,0,1,.35-3.19,2.27,2.27,0,0,1,.66-1.27,42.71,42.71,0,0,1,6.88-4.63c-2.35-13.95-5.06-27.09-9.65-34.85-5.26-8.91-11.28-11.31-11.28-11.31v39.66s3.29,13.56,4.7,19.19a216,216,0,0,0,9.44,35.81A222.23,222.23,0,0,0,143.84,234.76Z" style="fill:#e3bea4;opacity:0.5;mix-blend-mode:multiply"/><path d="M151.21,206s-8.63,9.74-20.08,11.11" style="fill:none;stroke:#4b8178;stroke-linecap:round;stroke-linejoin:round;stroke-width:0.513px"/><path d="M135.91,266.3s2.31-10.26,1.23-25.72c-1-14.14-3.65-27.94-4.81-41-1.19-13.41-2.65-28.7-2.65-28.7l-18.9-3.27V149.87H90V167.6l-18.9,3.27s-1.46,15.29-2.65,28.7c-1.16,13.07-3.81,26.87-4.8,41C62.55,256,64.86,266.3,64.86,266.3Z" style="fill:#facfc7"/><path d="M94.77,161.18a81,81,0,0,0,16-.57V149.87H90v10.66A38.4,38.4,0,0,0,94.77,161.18Z" style="fill:#e3bea4;opacity:0.5;mix-blend-mode:multiply"/><path d="M137.14,240.58c-1-14.14-3.65-27.94-4.81-41-1.19-13.41-2.65-28.7-2.65-28.7l-18.9-3.27v-.66c-6.33,3.13-14.86,4.23-20.79.25v.41l-18.9,3.27s-1.46,15.29-2.65,28.7c-1.16,13.07-3.81,26.87-4.8,41C62.55,256,64.86,266.3,64.86,266.3h71.05S138.22,256,137.14,240.58Z" style="fill:#e3bea4;opacity:0.5;mix-blend-mode:multiply"/><path d="M102.44,284.67c3.12,76,6.85,104.23,6.85,104.23V401h32c-1.22-6.18-5.73-5.83-8.89-6.6a65.24,65.24,0,0,1-8.06-2.68c1.57-54.57,11.61-120,11.61-120h-71S74.58,336.38,76.14,391a64.56,64.56,0,0,1-8.06,2.68c-3.16.77-7.34,1.22-8.56,7.4h32V388.9s3.73-28.2,6.85-104.23Z" style="fill:#facfc7"/><path d="M137.09,274.94v0c-.11.83-.19,1.4-.24,1.7-.09,1.57-.18,3.12-.27,4.66-3.24,52.86-9.93,92.59-10.51,97.23a.61.61,0,0,1-.47.59l-18.1,5.1c-.29,0-.55-.25-.58-.65-3.07-37.88-5.15-90.88-5.15-90.88H99s-2,53.32-5.08,91.2c0,.41-.29.69-.58.66L75.81,384a.61.61,0,0,1-.47-.59c-.58-4.62-7.87-48.86-11.09-101.28-.12-1.79-.22-3.61-.33-5.44q0-.27-.12-.84a198.56,198.56,0,0,1-1.1-35.3h75.37A203.42,203.42,0,0,1,137.09,274.94Z" style="fill:#ca9b4b"/><polyline points="100.39 244.03 100.39 276.76 96.14 273.63 96.14 244.03" style="fill:none;stroke:#a9533e;stroke-linecap:round;stroke-linejoin:round;stroke-width:0.513px"/><path d="M64.25,282a73.75,73.75,0,0,0,16.67,4.94c12.68,2.1,25.76,1,38.39-1.17a168.44,168.44,0,0,0,17.34-3.85q.14-1.9.27-3.84c.29-1.65,2.23-13.6,1.21-31.28H62.77c-1,17.68.92,29.63,1.21,31.28C64.07,279.37,64.16,280.67,64.25,282Z" style="fill:#76769f;opacity:0.5;mix-blend-mode:multiply"/><path d="M97.28,321c-.57,7.27-.93,14.61-2.23,21.72a62,62,0,0,1-6.75,19,39.49,39.49,0,0,1-5.36,7.59c-2,2.18-4.92,6.67-7.29,7.93l-.47.26,18.16,7c.29,0,.55-.25.58-.65,2.12-26.16,4.16-63.08,4.58-79C98.05,310.5,97.72,315.43,97.28,321Z" style="fill:#76769f;opacity:0.5;mix-blend-mode:multiply"/><path d="M102.29,304.78c.25,11.85,2.1,47.59,4.63,78.81,0,.4.29.69.58.65l18.1-5.1a.61.61,0,0,0,.47-.59l.08-.62c-2.73.38.36,2.38-2.36-.2-3.44-3.27-11.47-10.46-13.81-16.43-3.07-7.8-3.37-19.29-5-27.56-1.84-9.13-1.65-19.45-2.66-28.84" style="fill:#76769f;opacity:0.5;mix-blend-mode:multiply"/><path d="M136.43,278.07a.52.52,0,0,0,.34-.48c.12-2.09,4.15-13.85,3.16-29.4-.55-8.63-6.15-38.85-6.67-45.32-1.19-14.82-2.65-31.71-2.65-31.71l-.06-.78-17-3.24a.45.45,0,0,0-.37.09,20.68,20.68,0,0,1-25.58,0,.49.49,0,0,0-.38-.09l-17,3.24-.07.78s-1.46,16.89-2.65,31.71c-.52,6.47-6.12,36.69-6.67,45.32-1,15.55,2.94,27.11,3.06,29.2a.52.52,0,0,0,.34.48c2.06.78,10.88,4.22,36.14,4.22S134.37,278.85,136.43,278.07Z" style="fill:#788dc7"/><path d="M83.17,377.93l-1.51,1.87.24-2.16a53.44,53.44,0,0,0-7.69-.85l1.32,14.38c-1.2.33-4.41,1.18-7.45,1.7-2.35.4-8,1.9-9.46,7.18l-.28,1H92.42V392c.41-.75,2.19-10.62,2.19-10.62C86.36,378.19,83.17,377.93,83.17,377.93Z" style="fill:#29261f"/><rect x="58.34" y="401.03" width="34.1" height="3.2" style="fill:#f3d0b2"/><polyline points="77.5 380.97 74.76 382.26 77.74 384.34 75.04 385.86 77.74 387.92 75.45 389.56 77.18 392.17 72.24 392.01 72.74 394.52 68.08 392.87 69 395.12" style="fill:none;stroke:#f3d0b2;stroke-linecap:round;stroke-linejoin:round;stroke-width:0.513px"/><path d="M80.08,401c-.84.35-1.68.72-2.53,1.06-2.06.83-4.15,1.49-6.26,2.14H92.44V401Z" style="fill:#f3d0b2;opacity:0.5;mix-blend-mode:multiply"/><path d="M117.6,377.93l1.52,1.87-.25-2.16a53.68,53.68,0,0,1,7.7-.85l-1.33,14.38c1.2.33,4.42,1.18,7.45,1.7,2.35.4,8,1.9,9.47,7.18l.28,1H108.35V392c-.4-.75-2.18-10.62-2.18-10.62C114.41,378.19,117.6,377.93,117.6,377.93Z" style="fill:#29261f"/><rect x="108.34" y="401.03" width="34.1" height="3.2" transform="translate(250.77 805.26) rotate(180)" style="fill:#f3d0b2"/><polyline points="123.27 380.97 126.01 382.26 123.04 384.34 125.73 385.86 123.04 387.92 125.33 389.56 123.59 392.17 128.53 392.01 128.04 394.52 132.69 392.87 131.77 395.12" style="fill:none;stroke:#f3d0b2;stroke-linecap:round;stroke-linejoin:round;stroke-width:0.513px"/><path d="M120.69,401c.85.35,1.68.72,2.53,1.06,2.06.83,4.16,1.49,6.26,2.14H108.34V401Z" style="fill:#f3d0b2;opacity:0.5;mix-blend-mode:multiply"/><path d="M152.58,104.52s3.33-6.76,10.84-5.24c5.24,1.06,9.93,9.88,3.57,19.54-4.32,6.57-12.1,9.21-15.9,5.66Z" style="fill:#facfc7"/><path d="M154,121.86c1.24-3.8,2.33-7.66,3.9-11.34a19,19,0,0,1,4.33-6.91,24.67,24.67,0,0,1,4.05-2.93,6.56,6.56,0,0,0-2.85-1.4c-7.51-1.52-10.84,5.24-10.84,5.24l-1.49,20a5.45,5.45,0,0,0,1.61,1C153.16,124.32,153.59,123.1,154,121.86Z" style="fill:#e3bea4;opacity:0.5;mix-blend-mode:multiply"/><path d="M155.94,106.31a49.58,49.58,0,0,1,3.88-6.5l.53-.69c-5.35.52-7.77,5.4-7.77,5.4l-.93,12.41A68.77,68.77,0,0,1,155.94,106.31Z" style="fill:#e3bea4;opacity:0.5;mix-blend-mode:multiply"/><path d="M46.22,104.52s-3.34-6.76-10.84-5.24c-5.25,1.06-9.93,9.88-3.57,19.54,4.32,6.57,12.09,9.21,15.9,5.66Z" style="fill:#facfc7"/><path d="M34.5,100.22c5.88,2.77,8.22,10.21,9.7,16,.78,3,1.4,6.14,2.1,9.22a5.55,5.55,0,0,0,1.41-1l-1.49-20s-3.34-6.76-10.84-5.24a5.94,5.94,0,0,0-1.67.62A7.61,7.61,0,0,1,34.5,100.22Z" style="fill:#e3bea4;opacity:0.5;mix-blend-mode:multiply"/><path d="M155.56,88.18l-1.12,13.94L153.17,118a39,39,0,0,1-33,35.44l-9.67,1.46a72.43,72.43,0,0,1-21.9,0l-9.67-1.46a39,39,0,0,1-33-35.44l-1.21-15L43.48,88.18A56.28,56.28,0,0,1,96.62,27.52c.9-.05,1.82-.07,2.74-.07s2,0,2.92.07c.37,0,.75,0,1.12.07h0l.5.31s0,0,0,0a17.41,17.41,0,0,0,2.37,1.16c.78.32,2.13-.34,3.26-.71l-.35-.06a.17.17,0,0,0,.1,0l.32.05A56.23,56.23,0,0,1,155.56,88.18Z" style="fill:#facfc7"/><path d="M153,118l.09-1a19.47,19.47,0,1,0-21.22,32.61A39,39,0,0,0,153,118Z" style="opacity:0.38;mix-blend-mode:multiply;fill:url(#radial-gradient)"/><path d="M76.47,132.84A19.47,19.47,0,0,0,45.64,117l.08,1a39,39,0,0,0,21.14,31.58A19.46,19.46,0,0,0,76.47,132.84Z" style="opacity:0.38;mix-blend-mode:multiply;fill:url(#radial-gradient-2)"/><line x1="96.15" y1="139.06" x2="101.26" y2="137.69" style="fill:none;stroke:#cda58c;stroke-linecap:round;stroke-linejoin:round;stroke-width:2px"/><path d="M44.17,100v.07l0,0S44.16,100,44.17,100Z" style="fill:#265c5b;opacity:0.30000000000000004;mix-blend-mode:multiply"/><path d="M182.26,64.17a5.91,5.91,0,0,0,0-1.68A2.32,2.32,0,0,1,182.26,64.17Z" style="fill:#aa6c3f"/><path d="M95.12,70.47h0C95.46,70.47,94.3,70.93,95.12,70.47Z" style="fill:#aa6c3f"/><path d="M69.3,76.31a6,6,0,0,1-.08.66,0,0,0,0,1,0,0C69.22,76.75,69.27,76.53,69.3,76.31Z" style="fill:#aa6c3f"/><path d="M72.75,105.65S74,111.48,70,113.71" style="fill:none;stroke:#bb7b4a;stroke-linecap:round;stroke-miterlimit:10"/><path d="M122.14,105.65s-1.22,5.83,2.76,8.06" style="fill:none;stroke:#bb7b4a;stroke-linecap:round;stroke-miterlimit:10"/><ellipse cx="70.41" cy="103.78" rx="2.29" ry="5.89" style="fill:#b8884b;stroke:#aa6c3f;stroke-miterlimit:10;stroke-width:2px"/><path d="M72.75,103.84a15.38,15.38,0,0,1-.14,2.09c-.34,2.22-1.17,3.8-2.15,3.8s-1.8-1.58-2.13-3.8a13.89,13.89,0,0,1-.15-2.09c0-3.26,1-5.9,2.28-5.9S72.75,100.58,72.75,103.84Z" style="fill:#010101"/><path d="M72.55,105.88c-.33,2.22-1.16,3.79-2.14,3.79s-1.8-1.57-2.13-3.79a3.31,3.31,0,0,1,4.27,0Z" style="fill:#facfc7;stroke:#aa6c3f;stroke-miterlimit:10;stroke-width:0.75px"/><ellipse cx="124.54" cy="103.78" rx="2.29" ry="5.89" style="fill:#b8884b;stroke:#aa6c3f;stroke-miterlimit:10;stroke-width:2px"/><path d="M126.88,103.84a15.38,15.38,0,0,1-.14,2.09c-.34,2.22-1.17,3.8-2.15,3.8s-1.8-1.58-2.13-3.8a13.89,13.89,0,0,1-.15-2.09c0-3.26,1-5.9,2.28-5.9S126.88,100.58,126.88,103.84Z" style="fill:#010101"/><path d="M126.68,105.88c-.33,2.22-1.16,3.79-2.14,3.79s-1.8-1.57-2.13-3.79a3.31,3.31,0,0,1,4.27,0Z" style="fill:#facfc7;stroke:#aa6c3f;stroke-miterlimit:10;stroke-width:0.75px"/><path d="M96.92,94.94s1,8.59-1.36,11.43" style="fill:none;stroke:#aa6c3f;stroke-linecap:round;stroke-miterlimit:10;stroke-width:2px"/><path d="M98.93,107.14s-4.54-1-5.32,0-.13,4.22,0,5.59" style="fill:none;stroke:#aa6c3f;stroke-linecap:round;stroke-miterlimit:10;stroke-width:2px"/><path d="M86.19,133a22.42,22.42,0,0,0,21.9-2.11" style="fill:none;stroke:#aa6c3f;stroke-linecap:round;stroke-miterlimit:10;stroke-width:2px"/><path d="M99.16,108.26l-3.67-.37A1,1,0,0,0,94.42,109l.47,3.79Z" style="fill:#eea2a2;opacity:0.4;mix-blend-mode:multiply"/><path d="M164.74,115.18s-5.88-2.24-8.34,2.25l.54-1.39c1.17-5.14,5.45-9,5.45-9" style="fill:none;stroke:#cda58c;stroke-linecap:round;stroke-linejoin:round;stroke-width:2px"/><path d="M35.18,115.18s5.89-2.24,8.35,2.25L43,116c-1.17-5.14-5.45-9-5.45-9" style="fill:none;stroke:#cda58c;stroke-linecap:round;stroke-linejoin:round;stroke-width:2px"/><path d="M182.26,62.49a3.7,3.7,0,0,0-.7-1.21.31.31,0,0,1,.17.07A1.94,1.94,0,0,1,182.26,62.49Z" style="fill:#895826"/><path d="M55.83,31.87c-3,1.65-5.65-2.24-10-1.33-6,1.24-10.5,10.49-10,15.36a4.55,4.55,0,0,1-.24,2.44c-1.13,2.66-4.37,2.25-5.62,4.23-2,3.21,3.85,8.43,1.95,10.47-1,1.06-2.83-.12-4.15,1.11-1.8,1.68.74,4.76-1.22,7.34C25.37,73,24,72.66,23.59,73.94c-.65,2.27,3.18,5.57,3.18,5.57a3.54,3.54,0,0,1,2.68,1.11c.78,1.14-.48,2.34.25,3.56.84,1.41,3.15.85,3.66,2s-1.68,2.09-1.95,4.22c-.31,2.41,1.95,5.31,3.9,5.35S37,94.3,40,93.73c1.83-.35,2.47,1.69,2.6,2,1.25,2.69-2.43,6.84.43,10,1.66,1.87,2,2.08,2.2,2,1.19-.37.79-4.74,3.89-7.41,1.18-1,2.74-2.16,4.59-3.51.54-.39,3.11-2.27,2.93-4.89-.17-2.36-1.67-2-2.78-4.74C53.06,85.14,56.32,84,58,82.74c.91-.66.76,0,4.37-1,2.49-.69,3.75-1,4.39-1.78,1.32-1.49.2-2.92,1.47-4,1-.86,2-.16,4.64-.89,1.53-.42,3.07-.85,3.9-2,1.4-1.94-.41-4.3.74-5.12.39-.28,1-.29,4.15.89,4.69,1.77,5.8,2.74,7.81,2.45.32,0,2.23-.31,2.93-1.56s-.52-3,0-3.34c.83-.59,3.7,3.61,7.33,3.57s6.3-4.51,7.57-3.79c.65.37,0,1.52,1,3.12a5,5,0,0,0,2.2,2s1.79.71,9.28-3.11c0,0,2.64-.8,3.66,0,.86.67-.18,1.91.49,3.56s2.51,2.4,3.66,2.89c3.37,1.42,4.83,0,6.6,1.34,2.14,1.55.62,4,2.68,5.34s4.6-.55,6.84,1.11a4.85,4.85,0,0,1,1.47,2,6.69,6.69,0,0,1,.24,5.35c-.91,2-.14,1.22-.71,3a5.57,5.57,0,0,0,.67,4.42c1.53,2.11,3.77,3.54,5.23,5.22,2.56,3,.94,6.26,3,7.41.83.46.59-10.74,1.26-11.1,2.46-1.34,1-5.08,2.93-6,1.14-.55-1.69.26,3,1.74,3.08,1,4.64,1.44,5.38.89,1.63-1.22-1.43-5.18.73-7.79,1-1.18,1.92-.75,2.69-2,1.24-2-.78-4,.48-5.57,1-1.25,2.92-.84,3.18-1.78s-2.08-1.57-2.69-3.34c-1-2.89,4.07-5.29,3.18-8-.68-2.09-3.95-1.58-4.89-4-.7-1.82.95-2.63,1-6.23a8.84,8.84,0,0,0-1-4.67c-1.35-2.41-3.09-2.18-4.88-4.23-2.34-2.68-.65-4.54-2.44-8.68-.51-1.17-2.24-5.16-6.11-6.9-5-2.27-9.18,1.3-12.21-1.12-2.66-2.12-1.51-6.53-3.42-6.9-1.34-.26-2.12,1.9-3.91,1.78-2.15-.14-2.19-3.36-4.88-4.23-2.52-.8-3.8,1.59-6.84.89-2.29-.52-2.08-2-5.37-3.34-2.36-1-2.85-.36-4.64-1.33-2.74-1.48-2.32-3.25-4.15-3.78-2.44-.71-3.7,2.26-8.31,2.89-2.54.35-2.35-.53-6.35-.45-3.06.07-3.29.58-8.3,1.12-4.12.44-4.27.12-5.62.66-3,1.19-2.87,2.95-5.37,3.57-2.66.65-3.48-1.16-5.86-.45-2.75.82-2.64,3.51-5.62,4.23-1.78.43-2.16-.45-3.66,0C57.94,26.55,58.51,30.41,55.83,31.87Z" style="fill:#e3bea4;opacity:0.5;mix-blend-mode:multiply"/><path d="M55.83,27.17c-3,1.64-5.65-2.25-10-1.34-6,1.25-10.5,10.5-10,15.36a4.59,4.59,0,0,1-.24,2.45c-1.13,2.66-4.37,2.24-5.62,4.23-2,3.21,3.85,8.43,1.95,10.46-1,1.06-2.83-.11-4.15,1.11-1.8,1.69.74,4.77-1.22,7.35C25.37,68.3,24,68,23.59,69.24c-.65,2.27,3.18,5.56,3.18,5.56a3.58,3.58,0,0,1,2.68,1.12c.78,1.14-.48,2.34.25,3.56.84,1.41,3.15.85,3.66,2s-1.68,2.09-1.95,4.23c-.31,2.4,1.95,5.31,3.9,5.34S37,89.6,40,89c1.83-.34,2.47,1.7,2.6,2,1.25,2.68-2.43,6.83.43,10.05,1.66,1.87,1.5,5,1.74,4.93C46,105.6,46,98.31,49.14,95.64c1.18-1,2.74-2.16,4.59-3.51.54-.4,3.11-2.28,2.93-4.9-.17-2.36-1.67-2-2.78-4.74-.82-2,2.44-3.21,4.14-4.46.91-.66.76,0,4.37-1,2.49-.69,3.75-1,4.39-1.78,1.32-1.5.2-2.93,1.47-4,1-.86,2-.15,4.64-.89,1.53-.42,3.07-.84,3.9-2,1.4-1.95-.41-4.31.74-5.12.39-.28,1-.29,4.15.89,4.69,1.77,5.8,2.73,7.81,2.45.32-.05,2.23-.32,2.93-1.56.8-1.4-.52-3,0-3.34.83-.6,3.7,3.6,7.33,3.56s6.3-4.51,7.57-3.78c.65.36,0,1.52,1,3.11a5,5,0,0,0,2.2,2s1.79.71,9.28-3.12c0,0,2.64-.79,3.66,0,.86.67-.18,1.92.49,3.56s2.51,2.41,3.66,2.9c3.37,1.42,4.83.05,6.6,1.33,2.14,1.56.62,4,2.68,5.34s4.6-.55,6.84,1.12a4.73,4.73,0,0,1,1.47,2,6.66,6.66,0,0,1,.24,5.34c-.91,2-.14,1.23-.71,3a5.54,5.54,0,0,0,.67,4.41c1.53,2.11,3.77,3.54,5.23,5.22,2.56,3,1.42,9.2,3.52,10.36.84.45.11-13.68.78-14,2.46-1.34,1-5.08,2.93-6,1.14-.55-1.69.26,3,1.74,3.08,1,4.64,1.44,5.38.89,1.63-1.23-1.43-5.18.73-7.79,1-1.19,1.92-.75,2.69-2,1.24-2-.78-4,.48-5.56,1-1.26,2.92-.84,3.18-1.78s-2.08-1.58-2.69-3.34c-1-2.89,4.07-5.29,3.18-8-.68-2.09-3.95-1.59-4.89-4-.7-1.82.95-2.63,1-6.23a8.87,8.87,0,0,0-1-4.68C167.55,44.8,165.81,45,164,43c-2.34-2.68-.65-4.53-2.44-8.68-.51-1.16-2.24-5.16-6.11-6.9-5-2.26-9.18,1.31-12.21-1.11-2.66-2.13-1.51-6.54-3.42-6.9-1.34-.26-2.12,1.9-3.91,1.78-2.15-.15-2.19-3.37-4.88-4.23-2.52-.81-3.8,1.58-6.84.89-2.29-.52-2.08-2-5.37-3.34-2.36-1-2.85-.37-4.64-1.33-2.74-1.48-2.32-3.26-4.15-3.79-2.44-.7-3.7,2.26-8.31,2.89-2.54.35-2.35-.52-6.35-.44-3.06.06-3.29.58-8.3,1.11-4.12.44-4.27.13-5.62.67-3,1.19-2.87,2.95-5.37,3.56-2.66.65-3.48-1.15-5.86-.44-2.75.81-2.64,3.51-5.62,4.23-1.78.43-2.16-.45-3.66,0C57.94,21.84,58.51,25.71,55.83,27.17Z" style="fill:#6f5b4f"/><path d="M161.69,266.17a1.22,1.22,0,0,0,.11-1.33c-4.82-9-15-76.42-18.36-83.07-5.08-10.16-12.68-11.31-12.89-11.39l-1.72-.32V206.5s9.6,61.17,11.54,69.39a1.08,1.08,0,0,0,1.15.86C144.78,276.37,153.3,276.51,161.69,266.17Z" style="fill:#788dc7"/><path d="M160.65,261.85S152,271.6,140.57,273" style="fill:none;stroke:#4b8178;stroke-linecap:round;stroke-linejoin:round;stroke-width:0.513px"/><path d="M134.46,191.15,132.58,220s7,48.41,8,56.54c.45,3.84-2.85-15.07-2.85-15.07Z" style="fill:#6276b8"/><path d="M38.34,266.17a1.22,1.22,0,0,1-.11-1.33c4.82-9,15-76.42,18.36-83.07,5.08-10.16,12.57-11.2,12.78-11.28l1.72-.32.11,36.33s-9.6,61.17-11.54,69.39a1.08,1.08,0,0,1-1.15.86C55.25,276.37,46.73,276.51,38.34,266.17Z" style="fill:#788dc7"/><path d="M39.38,261.85S48,271.6,59.46,273" style="fill:none;stroke:#4b8178;stroke-linecap:round;stroke-linejoin:round;stroke-width:0.513px"/><path d="M65.57,191.15,67.45,220s-7.05,48.41-8,56.54c-.45,3.84,2.85-15.07,2.85-15.07Z" style="fill:#6276b8"/><path d="M75.51,128.63c-1-3.5,5.93-9.46,12.91-11.87a27.61,27.61,0,0,1,12.39-1c4.37.4,10.6,1,14,5.47.47.64,3,4.17,1.56,6.52a4.55,4.55,0,0,1-4,1.83c-.91,0-1.36-.86-3.39-1.57a3.7,3.7,0,0,0-1-.26c-1.59.05-1.77,2.42-3.26,2.81-1.87.48-3.65-2.73-5.28-2-.38.16-.28.33-1,1a7.6,7.6,0,0,1-2.54,1.44c-2.5.66-4.2-2.32-6.07-1.5-1,.43-.78,1.4-1.76,1.69-1.54.46-2.49-1.83-4.5-1.76-1.76.07-2.07,1.88-3.84,2A4.34,4.34,0,0,1,75.51,128.63Z" style="fill:#786357;stroke:#bb7b4a;stroke-miterlimit:10"/><path d="M77.39,85.65s.37.83-3.16,1.92-13.71,2.81-13.71,2.81a21.48,21.48,0,0,0,4.13-4.81c1.26-2.33,3.68-.51,3.68-.51s3.31-.72,4.09-1.79S76.88,83.89,77.39,85.65Z" style="fill:#786357;stroke:#bb7b4a;stroke-miterlimit:10"/><path d="M114,85.65s-.37.83,3.16,1.92,13.71,2.81,13.71,2.81a21.48,21.48,0,0,1-4.13-4.81c-1.26-2.33-3.67-.51-3.67-.51s-3.32-.72-4.1-1.79S114.49,83.89,114,85.65Z" style="fill:#786357;stroke:#bb7b4a;stroke-miterlimit:10"/><path d="M86.9,167.23l-6.17,2.94,3.09,2.64-4.61,1.88,20.31,9.08.87.31,20.47-9.39-4.6-1.88,3.08-2.64-6.16-2.94a21,21,0,0,1-26.28,0Z" style="fill:none;stroke:#b87445;stroke-miterlimit:10"/><polyline points="100.38 282.09 100.38 184.08 100.38 171.85" style="fill:none;stroke:#b87445;stroke-miterlimit:10"/><circle cx="103.52" cy="199.82" r="1.25" style="fill:#b87445"/><circle cx="103.52" cy="223.3" r="1.25" style="fill:#b87445"/><circle cx="103.52" cy="246.77" r="1.25" style="fill:#b87445"/><circle cx="103.52" cy="270.25" r="1.25" style="fill:#b87445"/><path d="M137.09,274.94v0l-.51,6.36a137.05,137.05,0,0,1-72.33.78c-.12-1.79-.22-3.61-.33-5.44q0-.27-.12-.84a185,185,0,0,0,73.29-.88Z" style="fill:#79797a"/><ellipse cx="98.85" cy="282.61" rx="9.68" ry="2.53" style="fill:#ffefa0"/><polygon points="122.67 284.51 117.28 285.13 117.28 278.08 122.67 277.44 122.67 284.51" style="fill:#ca9b4b"/><polygon points="81.91 285.51 76.52 284.72 76.52 277.78 81.91 278.33 81.91 285.51" style="fill:#ca9b4b"/></g></g></svg>