<?xml version="1.0" encoding="UTF-8"?>
<svg id="Layer_1" data-name="Layer 1" xmlns="http://www.w3.org/2000/svg" xmlns:xlink="http://www.w3.org/1999/xlink" viewBox="0 0 566.93 566.93">
  <defs>
    <style>
      .cls-1 {
        fill: #e7148c;
      }

      .cls-1, .cls-2, .cls-3, .cls-4, .cls-5, .cls-6, .cls-7, .cls-8, .cls-9, .cls-10 {
        stroke-width: 0px;
      }

      .cls-2 {
        fill: #f5eb28;
      }

      .cls-3 {
        fill: #f39bc2;
      }

      .cls-4 {
        fill: #de1964;
      }

      .cls-5, .cls-11 {
        fill: #fff;
      }

      .cls-6 {
        fill: #e90e8c;
      }

      .cls-7 {
        fill: url(#radial-gradient-2);
      }

      .cls-8 {
        fill: url(#radial-gradient);
      }

      .cls-11 {
        stroke: #e90e8c;
        stroke-miterlimit: 10;
        stroke-width: 3px;
      }

      .cls-9 {
        fill: #f06da9;
      }

      .cls-10 {
        fill: #d21b6a;
      }
    </style>
    <radialGradient id="radial-gradient" cx="285.83" cy="334.09" fx="285.83" fy="334.09" r="16.67" gradientUnits="userSpaceOnUse">
      <stop offset="0" stop-color="#e90e8c"/>
      <stop offset=".14" stop-color="#e9138e"/>
      <stop offset=".32" stop-color="#ea2394"/>
      <stop offset=".52" stop-color="#ec3e9e"/>
      <stop offset=".74" stop-color="#ef63ac"/>
      <stop offset=".97" stop-color="#f293bf"/>
      <stop offset="1" stop-color="#f39bc2"/>
    </radialGradient>
    <radialGradient id="radial-gradient-2" cx="129.28" cy="332.35" fx="129.28" fy="332.35" xlink:href="#radial-gradient"/>
  </defs>
  <path class="cls-3" d="M295.15,114.4c-.76,1.86-1.56,3.72-2.39,5.57-6.5,14.39-15.21,28.6-25.78,41.14-5.44,6.45-11.05,11.55-16.6,15.58-3.72-.95-7.45-1.79-11.16-2.54-1.1-.22-2.19-.43-3.28-.63-20.27-3.79-39.8-4.83-55.08-4.83-1.24,0-2.44.01-3.6.02-3.11.03-6.21.24-9.26.62-.08-.87-.16-1.98-.24-3.3-.38-6.96-.44-19.81,2.53-35.26.63-3.29,1.4-6.7,2.33-10.2.38-1.39.77-2.79,1.19-4.21.01-.01.01-.02.01-.02.43-1.42.88-2.86,1.37-4.3,3.26-9.75,7.88-19.95,14.35-29.96.72-1.11,1.46-2.22,2.22-3.32.51-.75,1.04-1.49,1.57-2.22.8-1.1,1.61-2.2,2.46-3.29t.01-.01c.84-1.09,1.71-2.18,2.6-3.26.61-.73,1.22-1.45,1.84-2.17.62-.71,1.25-1.43,1.89-2.14,0,0,0-.01.01-.01.64-.71,1.3-1.42,1.96-2.12.67-.71,1.35-1.41,2.04-2.11.35-.35.7-.7,1.05-1.05.71-.7,1.43-1.39,2.15-2.08.56-.53,1.12-1.05,1.69-1.56,2.05-1.88,4.19-3.71,6.43-5.52.64-.52,1.29-1.03,1.95-1.53,7.74-6.01,16.62-11.6,26.8-16.58,0,0,13.14-4.38,26.97-4.38,1.16,0,2.32.03,3.48.1.38.02.77.04,1.16.08.35.02.69.05,1.04.09.08,0,.15.01.23.02.35.04.69.08,1.03.12.34.04.68.09,1.02.13.15.03.31.05.46.08.27.04.53.08.8.13.36.06.71.13,1.06.2.13.03.25.05.38.08.27.06.54.11.8.18.2.05.4.09.6.15.21.05.41.1.62.16.26.07.52.14.78.22.21.06.42.12.63.19.82.26,1.63.55,2.42.88.22.09.44.18.65.28.91.39,1.78.83,2.63,1.32.29.17.58.35.87.52.36.24.72.48,1.07.73.26.18.52.37.77.56.27.22.54.44.8.66.14.12.28.24.42.37.19.17.38.35.57.53.16.15.32.31.47.47.52.53,1.01,1.09,1.48,1.68.11.15.22.3.34.45.36.48.71.99,1.03,1.52.1.15.2.31.29.47.34.56.65,1.15.95,1.76.1.22.2.44.3.67.03.06.06.13.08.19.11.24.21.49.31.75.12.29.23.59.34.89,6.07,17.17,2.75,43.08-7.91,69.04Z"/>
  <path class="cls-9" d="M295.15,114.4c-.76,1.86-1.56,3.72-2.39,5.57-6.5,14.39-15.21,28.6-25.78,41.14-5.44,6.45-11.05,11.55-16.6,15.58-3.72-.95-7.45-1.79-11.16-2.54-1.1-.22-2.19-.43-3.28-.63-20.27-3.79-39.8-4.83-55.08-4.83-1.24,0-2.44.01-3.6.02-3.11.03-6.21.24-9.26.62-.08-.87-.16-1.98-.24-3.3h.01c138.9,21.04,115.69-136.35,115.69-136.35.13.03.25.05.38.08.27.06.54.11.8.18.2.05.4.09.6.15.21.05.41.1.62.16.26.07.52.14.78.22.21.06.42.12.63.19.82.26,1.63.55,2.42.88.22.09.44.18.65.28.91.39,1.78.83,2.63,1.32.29.17.58.35.87.52.36.24.72.48,1.07.73.26.18.52.37.77.56.27.22.54.44.8.66.14.12.28.24.42.37.19.17.38.35.57.53.16.15.32.31.47.47.52.53,1.01,1.09,1.48,1.68.11.15.22.3.34.45.36.48.71.99,1.03,1.52.1.15.2.31.29.47.34.56.65,1.15.95,1.76.1.22.2.44.3.67.03.06.06.13.08.19.11.24.21.49.31.75.12.29.23.59.34.89,6.07,17.17,2.75,43.08-7.91,69.04Z"/>
  <path class="cls-6" d="M173.82,116.34c.43-1.42.89-2.86,1.37-4.3-.49,1.44-.94,2.88-1.37,4.3Z"/>
  <path class="cls-3" d="M481.42,116.85c0,.22-.01.45-.03.68-.01.2-.03.4-.06.61-.03.22-.06.45-.11.69-.03.21-.08.42-.13.63-.04.18-.08.37-.14.56-.04.17-.08.34-.14.52-.09.31-.19.64-.31.98-.09.27-.19.55-.3.84-.06.15-.12.31-.19.48-.1.26-.21.52-.33.79-.51,1.2-1.14,2.46-1.89,3.8-.2.36-.4.72-.62,1.08-.36.63-.76,1.27-1.17,1.92-.22.35-.45.71-.69,1.06-1.12,1.7-2.39,3.46-3.8,5.29-.33.42-.66.84-1,1.26-3.04,3.81-6.71,7.84-10.94,11.95-.47.46-.95.92-1.43,1.37-4.45,4.2-9.49,8.47-15.09,12.65-.5.37-1.01.75-1.53,1.12-.56.41-1.12.82-1.7,1.23-5.53,3.94-11.55,7.78-18.04,11.37-.5.28-1.01.56-1.52.84-1.26.68-2.53,1.35-3.82,2.01-.77.4-1.54.79-2.33,1.17-.78.39-1.57.78-2.36,1.16-.8.38-1.59.75-2.4,1.12-.55.26-1.11.51-1.67.76-1.75.79-3.53,1.56-5.33,2.3-.14.06-.27.12-.41.17-1.61.67-3.24,1.31-4.89,1.93-.14.05-.29.11-.43.16-.79.3-1.58.59-2.38.88-1.75.63-3.52,1.23-5.31,1.82-.04.01-.07.02-.11.04-1.03.33-2.06.66-3.1.97-1,.31-2,.6-3,.89-.14.05-.29.09-.44.13-1.03.29-2.06.58-3.1.85-.24.07-.49.14-.74.2-.84.22-1.69.44-2.54.65-.07.01-.13.03-.2.05-1.04.25-2.08.5-3.13.74-.05,0-.1.02-.15.03-1.01.23-2.03.45-3.05.66-1.4.29-2.81.57-4.23.83-.88.16-1.77.31-2.66.46-2.05.35-4.13.66-6.22.93-.66.09-1.32.17-1.98.26-4.05.48-8.17.84-12.36,1.06-.62.04-1.25.06-1.88.09-.67.03-1.34.05-2.02.07-.59.02-1.18.04-1.78.05-1.27.03-2.55.04-3.83.04-10.11,0-20.6-.83-31.45-2.67-8.74-5.92-18.24-10.7-28.08-14.53-.97-.39-1.93-.75-2.9-1.11-5-1.85-10.07-3.47-15.17-4.87h-12.64c-.08-.01-.16-.03-.24-.05,19.08-32.29,50.8-57.73,55.02-61.03.22-.17.44-.33.66-.49,2.21-1.63,4.47-3.23,6.78-4.81,27.35-18.77,61.83-34.21,101.22-34.21,15.17,0,31.07,2.29,47.58,7.57,0,0,.01,0,.02.01.05.02.22.09.47.19.12.06.25.12.41.18,2.7,1.2,11.02,5.19,17.77,11.75.21.2.42.41.62.62.63.63,1.23,1.28,1.81,1.95.2.22.39.45.58.68s.38.46.56.69c.74.94,1.43,1.91,2.06,2.92.15.24.3.49.45.73.15.27.31.55.46.82.14.26.28.53.41.8.14.27.27.54.39.81.32.68.61,1.39.86,2.1.06.17.12.35.18.52.75,2.27,1.18,4.68,1.18,7.23Z"/>
  <path class="cls-6" d="M329.38,423.06c-.63-.92-1.27-1.84-1.93-2.75-3.45-4.73-7.31-9.38-11.26-13.91-.8-.9-1.6-1.8-2.39-2.7-1.34-1.5-2.68-2.99-4.02-4.47h0c-.49-.56-.98-1.1-1.47-1.64-6.15-6.81-12.1-13.39-16.29-19.36-.62-.88-1.19-1.74-1.73-2.59-.62-.99-1.18-1.95-1.68-2.9-.5-.93-.93-1.85-1.29-2.74-.92.41-1.84.79-2.77,1.14.36.9.79,1.82,1.28,2.75.48.93,1.02,1.89,1.62,2.85.51.84,1.07,1.7,1.67,2.56.31.45.63.9.96,1.36.06.08.13.17.19.26.53.74,1.08,1.48,1.66,2.23.14.18.29.37.43.56.15.19.3.38.45.57.3.38.6.76.91,1.14,1.22,1.52,2.53,3.08,3.89,4.65.48.56.97,1.13,1.47,1.69.5.57,1,1.14,1.51,1.71,3.05,3.44,6.28,6.99,9.52,10.6.83.93,1.66,1.86,2.49,2.8,4.71,5.33,9.32,10.82,13.27,16.39.62.87,1.22,1.74,1.8,2.62,6.69,10.05,10.96,20.35,9.51,30.52-.1.75-.24,1.49-.41,2.24-.06.27-.12.54-.19.8-.5,2-1.17,3.94-2,5.83-.47,1.08-.99,2.15-1.57,3.19-5.1,9.24-14.11,16.79-25.66,21.62-1.05.45-2.13.87-3.23,1.26-.78.28-1.58.56-2.38.81t-.02.01c-.47.15-.94.3-1.41.43-1.14.35-2.29.66-3.46.96-.34.09-.68.17-1.03.25-.51.12-1.02.23-1.53.34-1.03.22-2.07.42-3.12.6-.52.09-1.05.18-1.58.26-.5.08-1,.15-1.5.22-.06,0-.12.01-.18.02-.49.07-.99.13-1.49.18-.02.01-.05.01-.08.01-.53.07-1.06.12-1.6.17-.52.05-1.05.1-1.58.13-1.01.08-2.03.14-3.06.18-.45.02-.91.04-1.36.04-.79.03-1.59.04-2.4.04-2.32,0-4.67-.09-7.05-.27-1.24-.09-2.48-.2-3.73-.35-10.48-1.18-21.5-4.12-32.62-9.14-2.18-.98-4.37-2.05-6.55-3.2-.77-.4-1.53-.82-2.3-1.24-22.62-12.49-32.76-35.17-36.97-56.93-.2-1.06-.39-2.11-.57-3.15-2.22-13.17-2.37-25.8-1.93-35.38.1-1.99.21-3.84.34-5.54.12-1.44.23-2.76.35-3.96.11-1.1.23-2.1.33-2.99-.98-.16-1.97-.34-2.97-.53-.11.88-.22,1.88-.33,2.98-.18,1.81-.37,3.9-.52,6.23-.08,1.13-.14,2.32-.2,3.56-.38,7.97-.34,18.04.93,28.87.17,1.41.35,2.8.55,4.18.21,1.41.44,2.8.68,4.18.18,1.04.38,2.07.58,3.08,2.01,9.98,5.03,19,9.02,26.93,6.92,13.74,16.76,24.2,29.26,31.09.05.03.09.05.14.07,1.15.64,2.3,1.25,3.46,1.85.77.39,1.54.78,2.32,1.15.62.3,1.24.6,1.87.89.93.43,1.86.85,2.8,1.25.78.34,1.56.67,2.34.99h.01s.01.02.02.02c.11.05.22.09.33.13.37.15.73.3,1.1.44.67.27,1.35.53,2.02.78.81.31,1.62.6,2.43.88,1.81.63,3.62,1.21,5.43,1.75.48.14.97.28,1.46.41.36.11.71.21,1.07.3,1,.27,2,.52,3,.76.51.13,1.03.25,1.54.36.48.11.96.21,1.44.31.66.14,1.33.28,1.99.4.67.13,1.33.25,2,.37.56.09,1.11.18,1.67.27.16.03.31.05.47.07.53.08,1.06.16,1.58.22.64.09,1.27.17,1.9.25.78.09,1.56.17,2.34.24,1.12.11,2.24.19,3.35.25,1.88.11,3.76.17,5.62.17,10.53,0,20.42-1.77,29.14-4.97.94-.35,1.87-.71,2.78-1.1,12.94-5.37,23-14.03,28.29-24.79.5-1,.95-2.03,1.35-3.07.61-1.52,1.12-3.08,1.53-4.68.09-.36.18-.72.26-1.08.14-.62.26-1.23.36-1.85,1.91-11.67-3.04-23.25-10.67-34.39Z"/>
  <path class="cls-9" d="M481.42,116.85c0,14.11-35.21,56.52-92.49,75.2l28.71-26.97s84.55-35.71,35.57-80.22c.86.34,28.21,11.55,28.21,31.99Z"/>
  <path class="cls-6" d="M434.09,127.27c-.59-4.13-3.45-7.64-7.44-9.16-20.55-7.78-92.56-26.16-156.44,64.31-15.47,21.91-19.4,38.67-11.68,49.81,8.19,11.81,28.52,15.75,52.05,15.75,8.47,0,17.35-.51,26.23-1.35,1.04-.1,2.09-.2,3.13-.31-.41-1-.83-1.99-1.27-2.98-1.05.11-2.11.21-3.16.31-32.36,3.03-64.28,1.64-74.51-13.13-6.93-10-3.01-25.6,11.66-46.37,40.23-56.98,83.6-69.98,114.8-69.98,17.36,0,30.96,4.03,38.12,6.75,2.98,1.13,5.1,3.72,5.55,6.78,3.84,26.58-33.3,59.49-33.67,59.82l-.84.74.43.93,1.26,2.74c.94-.36,1.87-.72,2.8-1.09l-.84-1.81c.51-.46,1.21-1.11,2.07-1.93,9-8.59,35.21-35.92,31.75-59.83Z"/>
  <path class="cls-4" d="M431.4,131.01c.58,25.92-33.59,56.19-33.94,56.51l-.84.74.43.93c-19.02,7.2-40.75,11.86-64.64,11.86-10.11,0-20.6-.83-31.45-2.67-2.12-.36-4.26-.75-6.41-1.19l-2.68-.91c2.68,1.54,5.31,3.18,7.86,4.93,10.21,6.98,19.33,15.55,26.59,26.08,1.53,2.19,2.97,4.47,4.32,6.84,1.81,3.18,3.44,6.35,4.87,9.52-27.97,2.62-55.61,1.94-69.2-7.83-2.13-1.54-3.92-3.3-5.31-5.3-6.93-10-3.01-25.6,11.66-46.37,39.16-55.47,81.3-69.26,112.29-69.95.85-.02,1.68-.03,2.51-.03,17.36,0,30.96,4.03,38.12,6.75,2.98,1.13,5.1,3.72,5.55,6.78.16,1.1.25,2.2.27,3.31Z"/>
  <path class="cls-10" d="M431.4,131.01c.58,25.92-33.59,56.19-33.94,56.51l-.84.74.43.93c-19.02,7.2-40.75,11.86-64.64,11.86-10.11,0-20.6-.83-31.45-2.67-2.12-.36-4.26-.75-6.41-1.19l-2.68-.91c2.68,1.54,5.31,3.18,7.86,4.93,10.21,6.98,19.33,15.55,26.59,26.08l-60.01,8.53c-2.13-1.54-3.92-3.3-5.31-5.3-6.93-10-3.01-25.6,11.66-46.37,39.16-55.47,81.3-69.26,112.29-69.95-15.66,7.92-55.29,30.58-67.08,62.49,0,0,90.19,16.58,113.53-45.68Z"/>
  <path class="cls-6" d="M407.65,505.3c-.97-6.74-9.75-16.79-21.85-25.03-8.37-5.7-25.42-15.26-45.59-15.26-.77,0-1.54,0-2.31.05-1.11.03-2.22.11-3.32.21-.47,1.08-.99,2.15-1.57,3.19,1.18-.16,2.36-.26,3.54-.33,1.22-.08,2.44-.12,3.66-.12,32.69,0,62.89,26.73,64.47,37.71,1.79,12.45-20.42,14.11-20.42,14.11-7.53,1.06-14.32,1.54-20.46,1.54-40.65,0-52.53-20.75-55.54-28.45-.69-1.76-.91-2.84-.91-2.84-1.05.45-2.13.87-3.23,1.26.2.19.4.36.6.52.17.55.41,1.29.76,2.16,1.28,3.3,3.97,8.58,9.26,13.83,7.58,7.53,22.25,16.52,49.06,16.52,6.47,0,13.46-.53,20.78-1.56,1.94-.15,14.99-1.44,20.62-8.46,2.08-2.59,2.93-5.72,2.45-9.05Z"/>
  <path class="cls-3" d="M396.81,516.77c-5.77,2.55-12.55,3.06-12.55,3.06-7.53,1.06-14.32,1.54-20.46,1.54-36.05,0-49.47-16.32-54.14-25.38h0c-.6-1.16-1.05-2.2-1.39-3.07,12.94-5.37,23-14.03,28.29-24.79,1.22-.08,2.44-.12,3.66-.12,32.69,0,62.89,26.73,64.47,37.71.8,5.57-3.2,8.98-7.87,11.05Z"/>
  <path class="cls-6" d="M270.72,498.82c-.39-1.07-.89-2.11-1.43-3.1-1.24-.09-2.48-.2-3.73-.35.66,1,1.29,2.08,1.81,3.2,1.53,3.3,2.07,6.89-.56,9.52-5.19,5.18-22.19,29.09-60.44,29.09-8.81,0-18.75-1.27-29.94-4.33,0,0-34-12.84,49.81-46.52.58-.24,1.17-.47,1.76-.71l4.94.61c-2.18-.98-4.37-2.05-6.55-3.2-1.22.49-2.43.97-3.61,1.45-37.89,15.45-56.28,28.56-56.17,40.01.06,7.79,8.4,11.03,8.76,11.17l.13.05.13.03c10.77,2.95,21.11,4.44,30.74,4.44,35.58,0,53.78-20.26,60.64-27.89.77-.85,1.43-1.6,1.92-2.08,1.79-1.8,2.73-4.11,2.72-6.7-.01-1.57-.37-3.16-.93-4.69Z"/>
  <path class="cls-3" d="M266.81,508.09c-4.57,4.56-18.3,23.65-47.65,28.14-3.97.61-8.23.95-12.79.95-8.81,0-18.75-1.27-29.94-4.33,0,0-34-12.84,49.81-46.52,3.08,1.57,6.19,3,9.33,4.28h.01s.01.02.02.02c10.45,4.28,21.18,6.96,31.77,7.94,1.53,3.3,2.07,6.89-.56,9.52Z"/>
  <path class="cls-6" d="M337.97,390.13c-.88-10.55-17.17-16.86-32.41-16.86-4.22,0-9.77.48-15.27,2.37-.95.32-1.9.68-2.84,1.1.51.84,1.07,1.7,1.67,2.56.94-.41,1.91-.76,2.9-1.07,4.25-1.35,8.91-1.96,13.54-1.96,14.5,0,28.74,5.99,29.42,14.11.78,9.34-14.06,12.39-21.18,13.32-2.12.27-3.55.36-3.69.37.83.93,1.66,1.86,2.49,2.8.99-.1,2.21-.25,3.59-.47,5.93-.92,14.67-3.11,19.04-8.13,2.04-2.34,2.99-5.15,2.74-8.14Z"/>
  <path class="cls-3" d="M313.8,403.7c-1.34-1.5-2.68-2.99-4.02-4.47h0c-.49-.56-.98-1.1-1.47-1.64-6.15-6.81-12.1-13.39-16.29-19.36,4.25-1.35,8.91-1.96,13.54-1.96,9.16,0,18.22,2.39,23.82,6.21,3.26,2.21,5.35,4.91,5.6,7.9.78,9.34-14.06,12.39-21.18,13.32Z"/>
  <path class="cls-6" d="M186.55,421.71c-.75.46-1.69,1.01-2.77,1.6-4.07,2.21-10.13,4.92-15.33,4.92-3.59,0-6.77-1.28-8.62-4.91-6.17-12.09-4.33-22.32,21.79-37.24.9-.52,1.84-1.04,2.8-1.57l.2,1.82c.1-1.99.21-3.84.34-5.54l-1.98,1.09c-.39.22-.78.43-1.16.64-13.7,7.64-21.82,14.38-25.52,21.19-4.5,8.28-1.9,15.56.86,20.97,2.18,4.29,6.09,6.55,11.29,6.55,5.46,0,11.57-2.56,15.91-4.84,1.03-.54,1.96-1.06,2.76-1.53-.2-1.06-.39-2.11-.57-3.15Z"/>
  <path class="cls-3" d="M183.78,423.31c-4.07,2.21-10.13,4.92-15.33,4.92-3.59,0-6.77-1.28-8.62-4.91-3.53-6.91-4.44-13.21.32-20.13,3.55-5.19,10.28-10.72,21.47-17.11-.38,7.97-.34,18.04.93,28.87.17,1.41.35,2.8.55,4.18.21,1.41.44,2.8.68,4.18Z"/>
  <path class="cls-6" d="M365.29,433.31c3.04-2.35,4.22-6.44,2.86-9.97-2.93-7.58-9.59-10.64-10.89-11.18-4.17-2.16-8.2-3.26-11.98-3.26-9.85,0-15.4,7.16-17.83,11.41-.65,1.12-1.07,2.05-1.3,2.58-.1.12-.19.25-.28.37.62.87,1.22,1.74,1.8,2.62.34-.48.7-.96,1.1-1.45,0,0,.2-.53.61-1.37,1.63-3.25,6.53-11.16,15.9-11.16,3.08,0,6.64.85,10.72,2.99,0,0,6.61,2.45,9.35,9.53.9,2.34.09,4.99-1.89,6.51l-1.76,1.37c-.71.54-.91,1.52-.47,2.29,2.25,3.92,7.8,15.5-2.17,20.13-4.98,2.32-9.85,3.3-13.96,3.3-1.85,0-3.56-.2-5.05-.57-1.07-.26-2.04-.61-2.87-1.05-.1.75-.24,1.49-.41,2.24-.06.27-.12.54-.19.8.87.38,1.82.7,2.85.94,1.71.42,3.61.64,5.67.64,4.92,0,10.19-1.23,15.23-3.58,3.51-1.63,5.83-4.13,6.88-7.44,1.8-5.69-.79-12.13-2.86-15.96l.94-.73Z"/>
  <path class="cls-2" d="M361.23,434.59c2.25,3.92,7.8,15.5-2.17,20.13-4.98,2.32-9.85,3.3-13.96,3.3-1.85,0-3.56-.2-5.05-.57,1.91-11.67-3.04-23.25-10.67-34.39,1.63-3.25,6.53-11.16,15.9-11.16,3.08,0,6.64.85,10.72,2.99,0,0,6.61,2.45,9.35,9.53.9,2.34.09,4.99-1.89,6.51l-1.76,1.37c-.71.54-.91,1.52-.47,2.29Z"/>
  <path class="cls-6" d="M284.55,371.14c-8.46,3.33-17.22,5.18-25.86,5.3-6.77.1-13.54.27-20.3.56-3.21.13-6.96.23-11.11.23-11.47,0-26.12-.74-41.64-3.39-.1.89-.22,1.89-.33,2.99,15.67,2.66,30.42,3.4,41.97,3.4,3.78,0,7.56-.08,11.24-.24,6.2-.26,12.81-.44,20.21-.55,8.99-.12,18.15-2.02,27.1-5.55-.49-.93-.92-1.85-1.28-2.75ZM284.55,371.14c-8.46,3.33-17.22,5.18-25.86,5.3-6.77.1-13.54.27-20.3.56-3.21.13-6.96.23-11.11.23-11.47,0-26.12-.74-41.64-3.39-.1.89-.22,1.89-.33,2.99,15.67,2.66,30.42,3.4,41.97,3.4,3.78,0,7.56-.08,11.24-.24,6.2-.26,12.81-.44,20.21-.55,8.99-.12,18.15-2.02,27.1-5.55-.49-.93-.92-1.85-1.28-2.75ZM284.55,371.14c-8.46,3.33-17.22,5.18-25.86,5.3-6.77.1-13.54.27-20.3.56-3.21.13-6.96.23-11.11.23-11.47,0-26.12-.74-41.64-3.39-.1.89-.22,1.89-.33,2.99,15.67,2.66,30.42,3.4,41.97,3.4,3.78,0,7.56-.08,11.24-.24,6.2-.26,12.81-.44,20.21-.55,8.99-.12,18.15-2.02,27.1-5.55-.49-.93-.92-1.85-1.28-2.75ZM339.94,246.32c-.41-1-.83-1.99-1.27-2.98-1.6-3.59-3.41-7.16-5.43-10.7-7.02-12.31-16.28-22.31-26.91-30.4-1.75-1.35-3.54-2.63-5.37-3.86-2.12-.36-4.26-.75-6.41-1.19l-2.68-.91c2.68,1.54,5.31,3.18,7.86,4.93,12.34,8.43,23.08,19.19,30.91,32.92,1.81,3.18,3.44,6.35,4.87,9.52.46.99.89,1.99,1.3,2.98,23.13,55.14-9.12,105.89-49.49,123.37-.92.41-1.84.79-2.77,1.14-8.46,3.33-17.22,5.18-25.86,5.3-6.77.1-13.54.27-20.3.56-3.21.13-6.96.23-11.11.23-11.47,0-26.12-.74-41.64-3.39-.1.89-.22,1.89-.33,2.99,15.67,2.66,30.42,3.4,41.97,3.4,3.78,0,7.56-.08,11.24-.24,6.2-.26,12.81-.44,20.21-.55,8.99-.12,18.15-2.02,27.1-5.55.93-.36,1.86-.75,2.78-1.15,4.44-1.93,8.81-4.27,13.08-7,13.67-8.75,25.18-20.86,33.28-35.03,8.03-14.08,12.39-29.87,12.59-45.66.16-13.03-2.4-26.01-7.62-38.73ZM284.55,371.14c-8.46,3.33-17.22,5.18-25.86,5.3-6.77.1-13.54.27-20.3.56-3.21.13-6.96.23-11.11.23-11.47,0-26.12-.74-41.64-3.39-.1.89-.22,1.89-.33,2.99,15.67,2.66,30.42,3.4,41.97,3.4,3.78,0,7.56-.08,11.24-.24,6.2-.26,12.81-.44,20.21-.55,8.99-.12,18.15-2.02,27.1-5.55-.49-.93-.92-1.85-1.28-2.75ZM284.55,371.14c-8.46,3.33-17.22,5.18-25.86,5.3-6.77.1-13.54.27-20.3.56-3.21.13-6.96.23-11.11.23-11.47,0-26.12-.74-41.64-3.39-.1.89-.22,1.89-.33,2.99,15.67,2.66,30.42,3.4,41.97,3.4,3.78,0,7.56-.08,11.24-.24,6.2-.26,12.81-.44,20.21-.55,8.99-.12,18.15-2.02,27.1-5.55-.49-.93-.92-1.85-1.28-2.75ZM284.55,371.14c-8.46,3.33-17.22,5.18-25.86,5.3-6.77.1-13.54.27-20.3.56-3.21.13-6.96.23-11.11.23-11.47,0-26.12-.74-41.64-3.39-.1.89-.22,1.89-.33,2.99,15.67,2.66,30.42,3.4,41.97,3.4,3.78,0,7.56-.08,11.24-.24,6.2-.26,12.81-.44,20.21-.55,8.99-.12,18.15-2.02,27.1-5.55-.49-.93-.92-1.85-1.28-2.75Z"/>
  <path class="cls-6" d="M254.1,177.67c16.43,4.48,32.66,11.09,46.86,20.71-2.12-.36-4.26-.75-6.41-1.19l-2.68-.91c-12.76-7.39-26.81-12.62-40.91-16.31-1.31-.34-2.62-.67-3.93-.98-1.7-.41-3.4-.8-5.1-1.17-1.04-.22-2.08-.44-3.11-.64-.53-.11-1.05-.22-1.58-.32-1.08-.22-2.16-.42-3.23-.61-19.83-3.61-38.74-4.56-53.15-4.56h-.01c-1.21,0-2.4.01-3.55.02-2.73.03-5.45.2-8.14.5-1.27.14-2.53.31-3.79.51-13.3,2.12-25.87,7.52-36.46,15.76-1.36-.24-3.86.37-6.97,1.98-2.93,1.5-6.41,3.89-9.99,7.25-.46.44-.93.89-1.4,1.36-.23.22-.45.45-.68.68-1.18,1.22-2.36,2.52-3.5,3.88-.34.42-.68.84-1.02,1.26-1.4,1.79-2.71,3.66-3.82,5.55-.13.22-.26.45-.39.68s-.25.45-.37.67c-.06.12-.12.23-.18.34-.11.2-.21.4-.3.6-.13.26-.26.52-.37.78-.12.24-.23.49-.33.73-.12.27-.23.54-.33.81-.1.25-.19.51-.28.76-.09.26-.17.52-.25.77-.08.25-.15.5-.21.75-.1.38-.19.76-.26,1.13,0,.01,0,.02-.01.03-.02.1-.04.21-.05.32-.03.18-.06.37-.08.56-.03.19-.05.39-.06.58-.07.78-.07,1.53.02,2.26.01.1.03.2.05.3.18.93.64,1.55,1.47,1.98.22.11.45.21.7.29,8.49,2.87,35.72-10.19,45.8-15.63l4.67-2.53-2.66,4.6c-2.85,4.92-3.53,7.88-3.59,9.49-.05,1.27.78,2.43,2.03,2.81,2.29.7,4.54,1.32,6.75,1.87.74.19,1.47.37,2.2.53.42.1.84.19,1.25.28.46.11.91.2,1.36.29.54.12,1.08.23,1.61.33.49.1.98.19,1.47.28.49.09.97.18,1.45.25.61.11,1.22.21,1.82.3.11.02.23.04.34.06.47.07.93.14,1.38.19.84.13,1.67.23,2.48.32.5.07.99.12,1.47.16.17.03.33.04.49.05.33.04.65.07.97.09.09.02.18.03.27.03.38.04.76.07,1.14.1h.03c.48.04.95.07,1.42.1.48.04.95.06,1.42.08.6.04,1.19.06,1.78.08.75.03,1.5.05,2.25.06.5.01,1,.01,1.49.01.81,0,1.61-.01,2.4-.03.11,0,.22,0,.33-.01.74-.01,1.47-.04,2.19-.08,1.15-.05,2.27-.12,3.38-.22.51-.03,1.01-.08,1.51-.13.7-.06,1.38-.14,2.06-.22.65-.07,1.28-.15,1.91-.24.63-.08,1.25-.17,1.86-.27,1.19-.19,2.36-.39,3.5-.61.22-.04.43-.09.65-.13.33-.07.67-.14,1-.21.75-.15,1.48-.32,2.21-.49.97-.23,1.92-.47,2.86-.72.26-.07.53-.15.79-.22,2.52-.71,4.91-1.48,7.16-2.31,1.5-.55,2.94-1.12,4.31-1.71.69-.29,1.36-.58,2.02-.88.33-.15.65-.3.97-.45.4-.19.79-.37,1.17-.56.39-.18.77-.37,1.14-.57.38-.18.74-.37,1.1-.56.51-.26.99-.52,1.47-.78.14-.07.27-.15.41-.23,1.84-1.02,3.48-2.01,4.91-2.94.42-.27.82-.54,1.21-.8,1.23-.83,2.28-1.6,3.15-2.26.09-.06.17-.12.25-.19.68-.53,1.24-.98,1.68-1.35.03-.03.06-.05.08-.06s.03-.02.05-.05c.21-.17.38-.32.52-.44.1-.09.19-.16.26-.24.04-.04.08-.07.11-.1t.02-.01c-1.23,1.3-9.33,9.51-24.16,15.78-8.73,3.69-20.87,7.06-36.05,7.06-10.08,0-21.5-1.48-34.15-5.36-2.55-.78-4.25-3.17-4.15-5.8.07-1.86.67-4.07,1.79-6.6-8.99,4.59-29.03,14.13-40.15,14.13-1.62,0-3.04-.2-4.22-.66-.21.44-.43.87-.63,1.31-.21.43-.41.87-.62,1.31-.22.46-.43.93-.64,1.4-.21.47-.42.94-.63,1.41-.62,1.41-1.21,2.83-1.77,4.27-.19.48-.38.96-.56,1.44-.23.58-.45,1.16-.66,1.75-.14.38-.27.77-.41,1.16-1.61,4.53-2.95,9.17-3.99,13.88-.11.46-.2.92-.3,1.37-.11.54-.22,1.08-.32,1.62-.11.53-.21,1.07-.3,1.61-.1.52-.19,1.03-.27,1.55-.31,1.87-.56,3.75-.77,5.64-.05.5-.1.99-.15,1.49-.05.51-.09,1.03-.13,1.54-.04.52-.08,1.03-.11,1.55-.03.42-.06.85-.07,1.27-.03.55-.06,1.1-.07,1.64-.64,18.61,4.03,37.47,16.35,54.44,19.33,26.61,50.81,38.83,79.78,44.2-.11.88-.22,1.88-.33,2.98-29.61-5.47-61.95-17.99-81.87-45.42-14.82-20.39-20.09-45.22-15.25-71.81,1.88-10.37,5.34-20.86,10.1-30.91.37-.79.76-1.59,1.15-2.38-.76-.86-1.21-1.95-1.36-3.21-.51-4.27,1.14-9.07,3.88-13.72,2.86-4.86,6.9-9.56,10.91-13.32,5.74-5.39,13.51-10.83,18.55-10.44,10.67-7.95,23.23-13.24,36.57-15.34-.62-6.73-1.67-27.06,5.11-51.44,4.8-17.24,12.55-32.91,23.03-46.56,13.1-17.05,30.51-30.95,51.74-41.33l.17-.09.19-.06c.56-.18,13.76-4.53,27.92-4.53h.01c17.08,0,28.39,6.44,32.7,18.63,6.08,17.19,3.26,41.87-6.21,66.76-.17.12-.35.24-.52.37-1.19.83-2.37,1.7-3.55,2.57v-.02s-.19.13-.46.36c10.66-25.96,13.98-51.87,7.91-69.04-.11-.3-.22-.6-.34-.89-.09-.26-.2-.51-.31-.75-.02-.06-.05-.13-.08-.19-.1-.23-.2-.45-.3-.67-.3-.61-.61-1.2-.95-1.76-.09-.16-.18-.32-.29-.47-.32-.53-.67-1.04-1.03-1.52-.12-.15-.23-.3-.34-.45-.47-.59-.96-1.15-1.48-1.68-.15-.16-.31-.32-.47-.47-.19-.18-.38-.36-.57-.53-.14-.13-.28-.25-.42-.37-.26-.22-.53-.44-.8-.66-.25-.19-.51-.38-.77-.56-.35-.25-.71-.49-1.07-.73-.29-.17-.58-.35-.87-.52-.85-.49-1.72-.93-2.63-1.32-.21-.1-.43-.2-.65-.28-.79-.33-1.6-.62-2.42-.88-.21-.07-.42-.13-.63-.19-.26-.08-.52-.15-.78-.22-.21-.06-.41-.11-.62-.16-.2-.06-.4-.1-.6-.15-.26-.07-.53-.12-.8-.18-.13-.03-.25-.05-.38-.08-.35-.07-.7-.14-1.06-.2-.27-.05-.53-.09-.8-.13-.15-.03-.31-.05-.46-.08-.34-.04-.68-.09-1.02-.13-.34-.04-.68-.08-1.03-.12-.08,0-.15-.02-.23-.02-.35-.04-.69-.07-1.04-.09-.39-.04-.78-.06-1.16-.08-1.16-.07-2.32-.1-3.48-.1-13.83,0-26.97,4.38-26.97,4.38-10.18,4.98-19.06,10.57-26.8,16.58-.66.5-1.31,1.02-1.95,1.53-2.24,1.81-4.38,3.64-6.43,5.52-.57.51-1.13,1.03-1.69,1.56-.72.69-1.44,1.38-2.15,2.08-.35.35-.7.7-1.05,1.05-.69.7-1.37,1.4-2.04,2.11-.66.7-1.32,1.41-1.96,2.12-.01,0-.01.01-.01.01-.64.71-1.27,1.43-1.89,2.14-.62.72-1.23,1.44-1.84,2.17-.89,1.08-1.76,2.17-2.6,3.26t-.01.01c-.85,1.09-1.66,2.19-2.46,3.29-.53.73-1.06,1.47-1.57,2.22-.76,1.1-1.5,2.21-2.22,3.32-6.47,10.01-11.09,20.21-14.35,29.96-.49,1.44-.94,2.88-1.37,4.3,0,0,0,.01-.01.02-.42,1.42-.81,2.82-1.19,4.21-.93,3.5-1.7,6.91-2.33,10.2-2.97,15.45-2.91,28.3-2.53,35.26.08,1.32.16,2.43.24,3.3,3.05-.38,6.15-.59,9.26-.62,1.16,0,2.36-.02,3.6-.02,15.28,0,34.81,1.04,55.08,4.83,1.09.2,2.18.41,3.28.63.42.08.83.17,1.25.26,1.04.21,2.08.43,3.12.66,2.26.5,4.53,1.04,6.79,1.62l3.72.98Z"/>
  <path class="cls-6" d="M296.73,116.96c-.78.62-2.21,1.76-4.13,3.36.05-.12.11-.23.16-.35,1.3-1.02,2.62-2.02,3.97-3.01Z"/>
  <path class="cls-6" d="M295.61,114.06c-.15.11-.31.23-.46.34.27-.23.43-.34.45-.36v.02Z"/>
  <path class="cls-6" d="M182.67,373.31c1,.19,1.99.37,2.97.53-.1.89-.22,1.89-.33,2.99-.98-.17-1.97-.35-2.97-.54.11-1.1.22-2.1.33-2.98Z"/>
  <path class="cls-6" d="M239.12,209.7s-.03.04-.05.05-.05.03-.08.06c.03-.02.05-.04.08-.07.02-.01.04-.03.05-.04Z"/>
  <path class="cls-3" d="M344.53,281.66v-.03c-.02-.69-.04-1.38-.07-2.07-.01-.12-.01-.24-.02-.37-.04-.69-.08-1.38-.14-2.07-.05-.74-.12-1.48-.19-2.23,0-.02,0-.04-.01-.06-.07-.76-.16-1.53-.26-2.3-.18-1.46-.4-2.93-.66-4.4-.02-.14-.04-.27-.08-.41-.11-.63-.23-1.25-.35-1.87-.03-.18-.07-.36-.11-.55-.14-.69-.29-1.38-.45-2.06-.17-.73-.35-1.47-.53-2.2,0-.05-.02-.1-.04-.15-.2-.79-.41-1.57-.64-2.36-.42-1.53-.89-3.06-1.41-4.6-.03-.08-.06-.17-.09-.26-.52-1.54-1.08-3.1-1.7-4.65-.31-.79-.64-1.59-.97-2.39-.41-.99-.84-1.99-1.3-2.98-.3-.67-.61-1.33-.93-2-.82-1.72-1.7-3.45-2.64-5.18-.42-.78-.86-1.56-1.3-2.34-.42-.74-.85-1.46-1.29-2.18-.14-.24-.28-.47-.43-.71-.31-.51-.63-1.01-.96-1.51-.17-.26-.34-.52-.51-.78-.36-.56-.74-1.12-1.13-1.66-.4-.59-.82-1.17-1.23-1.74-.07-.12-.16-.24-.27-.37-.4-.56-.81-1.1-1.23-1.64-.05-.09-.12-.18-.21-.28-.41-.53-.82-1.05-1.23-1.57-1.02-1.27-2.07-2.5-3.16-3.71-.4-.45-.81-.9-1.22-1.34-.15-.16-.3-.33-.46-.5-.39-.41-.78-.82-1.17-1.22-.19-.2-.39-.4-.6-.6-.46-.47-.93-.93-1.4-1.39-.01-.02-.02-.03-.03-.03-.55-.53-1.11-1.06-1.67-1.58-1.81-1.68-3.67-3.29-5.59-4.82-.29-.24-.58-.48-.88-.71-.42-.33-.84-.66-1.26-.98-.22-.17-.45-.34-.68-.51-.6-.46-1.21-.91-1.82-1.34-.82-.6-1.65-1.18-2.48-1.75-2.55-1.75-5.18-3.39-7.86-4.93-6.64-3.84-13.62-7.1-20.78-9.86-.96-.37-1.92-.74-2.89-1.09-5.68-2.08-11.46-3.84-17.24-5.36-1.31-.34-2.62-.67-3.93-.98-1.62-.39-3.24-.76-4.86-1.12-.08-.01-.16-.03-.24-.05-1.04-.22-2.08-.44-3.11-.64-.53-.11-1.05-.22-1.58-.32-1.08-.22-2.16-.42-3.23-.61-1.98-.36-3.96-.7-5.92-1.01-17.65-2.78-34.26-3.55-47.23-3.55h-.01c-1.21,0-2.4.01-3.55.02-2.73.03-5.45.2-8.14.5-1.27.14-2.53.31-3.79.51-13.3,2.12-25.87,7.52-36.46,15.76-1.36-.24-3.86.37-6.97,1.98-2.93,1.5-6.41,3.89-9.99,7.25-.46.44-.93.89-1.4,1.36-.23.22-.45.45-.68.68-1.18,1.22-2.36,2.52-3.5,3.88-.34.42-.68.84-1.02,1.26-1.4,1.79-2.71,3.66-3.82,5.55-.13.22-.26.45-.39.68-.13.22-.25.45-.37.67-.06.12-.12.23-.18.34-.1.2-.21.4-.3.6-.13.26-.26.52-.37.78-.12.24-.23.48-.33.73-.12.27-.23.54-.33.81-.1.26-.19.51-.28.76-.09.26-.17.52-.25.77-.08.25-.15.5-.21.75-.1.38-.19.76-.26,1.13,0,.01,0,.02-.01.03-.02.1-.04.21-.05.32-.03.19-.06.38-.08.56-.03.19-.05.39-.06.58-.07.78-.07,1.53.02,2.26.01.1.03.2.05.3.18.93.64,1.55,1.47,1.98.22.11.45.21.7.29,8.49,2.87,35.72-10.19,45.8-15.63l4.67-2.53-2.66,4.6c-2.85,4.92-3.53,7.88-3.59,9.49-.05,1.27.78,2.43,2.03,2.81,2.29.7,4.54,1.32,6.75,1.87.74.18,1.47.36,2.2.53.42.1.84.19,1.25.28.41.09.83.18,1.24.26.04.01.08.02.12.03.54.12,1.08.23,1.61.33.29.06.57.11.86.16.69.13,1.38.26,2.06.37.61.11,1.22.2,1.82.3.12.02.23.04.34.05.46.07.92.14,1.38.2.84.13,1.67.23,2.48.32.49.06.98.11,1.47.16.17.03.33.04.49.05.33.04.65.07.97.09.09.02.18.03.27.03.38.04.76.07,1.14.1h.03c.48.03.95.07,1.42.1.48.03.95.06,1.42.08.6.04,1.19.06,1.78.08.76.03,1.51.05,2.25.06.5.01,1,.01,1.49.01.81,0,1.61-.01,2.4-.03.11,0,.22,0,.33-.01.74-.01,1.47-.04,2.19-.08,1.15-.05,2.27-.12,3.38-.22.51-.03,1.01-.08,1.51-.13.7-.06,1.38-.14,2.06-.22.64-.07,1.28-.15,1.91-.24.62-.08,1.24-.17,1.86-.27,1.19-.19,2.36-.39,3.5-.61.22-.04.43-.09.65-.13.33-.07.67-.14,1-.21.75-.16,1.48-.32,2.21-.49.97-.23,1.92-.47,2.86-.72.27-.07.53-.15.79-.22,2.52-.71,4.91-1.48,7.16-2.31,1.5-.55,2.94-1.12,4.31-1.71.69-.29,1.36-.58,2.02-.88.32-.15.65-.3.97-.45.4-.19.79-.37,1.17-.56.39-.19.77-.38,1.14-.57.37-.18.74-.37,1.1-.56.51-.26.99-.52,1.47-.78.14-.08.28-.16.41-.23,1.84-1.02,3.48-2.01,4.91-2.94.42-.28.83-.54,1.21-.8,1.23-.83,2.28-1.6,3.15-2.26.09-.07.17-.13.25-.19.68-.53,1.24-.98,1.68-1.35.03-.03.06-.05.08-.06s.03-.02.05-.05c.21-.17.38-.32.52-.44.1-.1.19-.17.26-.24.04-.04.08-.07.11-.1t.02-.01c-1.23,1.3-9.33,9.51-24.16,15.78-8.73,3.69-20.87,7.06-36.05,7.06-10.08,0-21.5-1.48-34.15-5.36-2.55-.78-4.25-3.17-4.15-5.8.07-1.86.67-4.07,1.79-6.6-8.99,4.59-29.03,14.13-40.15,14.13-1.62,0-3.04-.2-4.22-.66-.21.44-.43.87-.63,1.31-.21.43-.41.87-.62,1.31-.22.46-.43.93-.64,1.4-.21.47-.42.94-.63,1.41-.62,1.41-1.21,2.83-1.77,4.27-.19.48-.38.96-.56,1.44-.23.58-.45,1.16-.66,1.75-.14.38-.27.77-.41,1.16-1.61,4.53-2.95,9.17-3.99,13.88-.11.46-.2.92-.3,1.37-.11.54-.22,1.08-.32,1.62-.11.53-.21,1.07-.3,1.61-.1.52-.19,1.03-.27,1.55-.31,1.87-.56,3.75-.77,5.64-.05.5-.1.99-.15,1.49-.05.51-.09,1.03-.13,1.54-.04.52-.08,1.03-.11,1.55-.03.42-.06.85-.07,1.27-.03.55-.06,1.1-.07,1.64-.64,18.61,4.03,37.47,16.35,54.44,19.33,26.61,50.81,38.83,79.78,44.2,1,.19,1.99.37,2.97.53,15.52,2.65,30.17,3.39,41.64,3.39,4.15,0,7.9-.1,11.11-.23,6.76-.29,13.53-.46,20.3-.56,8.64-.12,17.4-1.97,25.86-5.3.93-.35,1.85-.73,2.77-1.14,1.45-.63,2.9-1.3,4.33-2.02.95-.47,1.9-.97,2.84-1.48,3.3-1.8,6.52-3.81,9.63-6.04,1.34-.95,2.65-1.94,3.94-2.97,3.02-2.39,5.92-4.99,8.67-7.77.4-.39.79-.79,1.18-1.2,1.16-1.21,2.3-2.46,3.4-3.73.57-.66,1.14-1.33,1.68-2.01,2.68-3.24,5.16-6.68,7.41-10.29.61-.97,1.2-1.95,1.77-2.94,1.14-1.99,2.22-4.02,3.23-6.1.5-1.04.98-2.08,1.45-3.14,1.92-4.38,3.52-8.93,4.76-13.64.38-1.44.72-2.89,1.03-4.36,1.25-5.94,1.92-12.09,1.92-18.42,0-.74-.01-1.48-.03-2.23ZM159.83,307.4c-31.4,22.73-68.94-15.31-50.81-44.68,16.42-26.58,26.55-35.38,53.34-23.53,6.36,2.81,11.12,8.37,12.74,15.13,2.94,12.32,6.97,36.99-15.27,53.08ZM191.16,249.88c2.89-4.4,7.73-7.14,13-7.34,15.68-.58,50.9,2.56,68.52,40.92,21.19,46.16-44.94,51.01-65.62,34.41-16.41-13.17-34.92-39.04-15.9-67.99Z"/>
  <path class="cls-3" d="M337.18,456.4c-.1.75-.24,1.49-.41,2.24-.06.27-.12.54-.19.8-.5,2-1.17,3.94-2,5.83-.47,1.08-.99,2.15-1.57,3.19-5.1,9.24-14.11,16.79-25.66,21.62-1.05.45-2.13.87-3.23,1.26-.78.28-1.58.56-2.38.81-7.68,2.48-16.25,3.84-25.4,3.84-2.32,0-4.67-.09-7.05-.27-1.24-.09-2.48-.2-3.73-.35-10.48-1.18-21.5-4.12-32.62-9.14-2.18-.98-4.37-2.05-6.55-3.2-.77-.4-1.53-.82-2.3-1.24-22.62-12.49-32.76-35.17-36.97-56.93-.2-1.06-.39-2.11-.57-3.15-2.22-13.17-2.37-25.8-1.93-35.38.1-1.99.21-3.84.34-5.54.12-1.44.23-2.76.35-3.96,15.67,2.66,30.42,3.4,41.97,3.4,3.78,0,7.56-.08,11.24-.24,6.2-.26,12.81-.44,20.21-.55,8.99-.12,18.15-2.02,27.1-5.55.48.93,1.02,1.89,1.62,2.85.51.84,1.07,1.7,1.67,2.56.37.54.75,1.07,1.15,1.62,2.12,2.94,4.62,6,7.34,9.15,3.87,4.49,8.18,9.18,12.5,14,.83.93,1.66,1.86,2.49,2.8,4.71,5.33,9.32,10.82,13.27,16.39.62.87,1.22,1.74,1.8,2.62,6.69,10.05,10.96,20.35,9.51,30.52Z"/>
  <g>
    <path class="cls-2" d="M233.04,406.04c11.04-2.64,28.45-3.41,50.43,6.81,10.24,5.45,39.17,32,6.32,56.17-29.2,21.49-85.99-5.99-76.84-43.32,2.41-9.82,10.25-17.31,20.09-19.66Z"/>
    <path class="cls-1" d="M233,405.89c17.07-4.04,35.3-1.56,51.15,5.8,8.72,5.07,15.9,13.04,19.62,22.46,6.51,16.72-5.23,31.12-19.28,38.95-22.59,11.4-55.01.81-68.29-20.27-11.28-17.62-4.51-41.79,16.8-46.95h0ZM233.07,406.19c-24.06,6.4-25.19,35.39-9.42,51.17,14.76,15.42,40.05,23.01,60.16,14.35,8.81-4.39,17.14-11.68,19.91-21.42,3.74-14.79-8.39-28.27-19.98-35.73-15.51-7.62-33.41-12.49-50.68-8.37h0Z"/>
  </g>
  <path class="cls-11" d="M207.06,317.87c-16.41-13.17-34.92-39.04-15.9-67.99,2.89-4.4,7.73-7.14,13-7.34,15.68-.58,50.9,2.56,68.52,40.92,21.19,46.16-44.94,51.01-65.62,34.41Z"/>
  <path class="cls-11" d="M159.83,307.4c-31.4,22.73-68.94-15.31-50.81-44.68,16.42-26.58,26.55-35.38,53.34-23.53,6.36,2.81,11.12,8.37,12.74,15.13,2.94,12.32,6.97,36.99-15.27,53.08Z"/>
  <path class="cls-9" d="M344.56,283.89c0,6.33-.67,12.48-1.92,18.42-.31,1.47-.65,2.92-1.03,4.36-1.24,4.71-2.84,9.26-4.76,13.64-.47,1.06-.95,2.1-1.45,3.14-1.01,2.08-2.09,4.11-3.23,6.1-.57.99-1.16,1.97-1.77,2.94-2.25,3.61-4.73,7.05-7.41,10.29-.54.68-1.11,1.35-1.68,2.01-1.1,1.27-2.24,2.52-3.4,3.73-.39.41-.78.81-1.18,1.2-2.75,2.78-5.65,5.38-8.67,7.77-1.29,1.03-2.6,2.02-3.94,2.97-3.11,2.23-6.33,4.24-9.63,6.04-.94.51-1.89,1.01-2.84,1.48-1.43.72-2.88,1.39-4.33,2.02-.92.41-1.84.79-2.77,1.14-8.46,3.33-17.22,5.18-25.86,5.3-6.77.1-13.54.27-20.3.56-3.21.13-6.96.23-11.11.23-11.47,0-26.12-.74-41.64-3.39,67.98,5.86,104.82-17.47,124.13-39.3,17.92-20.26,21.93-49.36,10.56-73.91-2.05-4.43-4.41-8.66-7.03-12.67-.67-1.02-1.35-2.02-2.05-3.01-3.46-4.94-7.33-9.56-11.51-13.88-11.05-11.43-24.26-20.76-37.97-28.33-.87-.48-1.74-.96-2.62-1.43-43.06-23-89.99-29.1-89.99-29.1,2.69-.3,5.41-.47,8.14-.5,1.15,0,2.34-.02,3.55-.02h.01c12.97,0,29.58.77,47.23,3.55,1.96.31,3.94.65,5.92,1.01,1.07.19,2.15.39,3.23.61.53.1,1.05.21,1.58.32,1.03.2,2.07.42,3.11.64.08.02.16.04.24.05,1.62.36,3.24.73,4.86,1.12,1.31.31,2.62.64,3.93.98,5.78,1.52,11.56,3.28,17.24,5.36.97.35,1.93.72,2.89,1.09,7.16,2.76,14.14,6.02,20.78,9.86,2.68,1.54,5.31,3.18,7.86,4.93.83.57,1.66,1.15,2.48,1.75.61.43,1.22.88,1.82,1.34.23.17.46.34.68.51.42.32.84.65,1.26.98.3.23.59.47.88.71,1.92,1.53,3.78,3.14,5.59,4.82.56.52,1.12,1.05,1.67,1.58.01,0,.02.01.03.03.47.46.94.92,1.4,1.39.21.2.41.4.6.6.39.4.78.81,1.17,1.22.16.17.31.34.46.5.41.44.82.89,1.22,1.34,1.09,1.21,2.14,2.44,3.16,3.71.41.52.82,1.04,1.23,1.57.09.1.16.19.21.28.42.54.83,1.08,1.23,1.64.11.13.2.25.27.37.41.57.83,1.15,1.23,1.74.39.54.77,1.1,1.13,1.66.17.26.34.52.51.78.33.5.65,1,.96,1.51.15.24.29.47.43.71.44.72.87,1.44,1.29,2.18.44.78.88,1.56,1.3,2.34.94,1.73,1.82,3.46,2.64,5.18.32.67.63,1.33.93,2,.46.99.89,1.99,1.3,2.98.33.8.66,1.6.97,2.39.62,1.55,1.18,3.11,1.7,4.65.03.09.06.18.09.26.52,1.54.99,3.07,1.41,4.6.23.79.44,1.57.64,2.36.02.05.03.1.04.15.18.73.36,1.47.53,2.2.16.68.31,1.37.45,2.06.04.19.08.37.11.55.12.62.24,1.24.35,1.87.04.14.06.27.08.41.26,1.47.48,2.94.66,4.4.1.77.19,1.54.26,2.3.01.02.01.04.01.06.07.75.14,1.49.19,2.23.06.69.1,1.38.14,2.07.01.13.01.25.02.37.03.69.05,1.38.07,2.07v.03c.02.75.03,1.49.03,2.23Z"/>
  <path class="cls-9" d="M337.18,456.4c-.1.75-.24,1.49-.41,2.24-.06.27-.12.54-.19.8-.5,2-1.17,3.94-2,5.83-.47,1.08-.99,2.15-1.57,3.19-5.1,9.24-14.11,16.79-25.66,21.62-1.05.45-2.13.87-3.23,1.26-.78.28-1.58.56-2.38.81,33.96-38.24,2.77-77.48-10.55-91.21-3.01-3.1-7.5-4.18-11.64-2.93-48.15,14.46-94.24-21.18-94.24-21.18,15.67,2.66,30.42,3.4,41.97,3.4,3.78,0,7.56-.08,11.24-.24,6.2-.26,12.81-.44,20.21-.55,8.99-.12,18.15-2.02,27.1-5.55.48.93,1.02,1.89,1.62,2.85.51.84,1.07,1.7,1.67,2.56.37.54.75,1.07,1.15,1.62.53.74,1.08,1.48,1.66,2.23.28.37.58.75.88,1.13s.6.76.91,1.14c1.22,1.52,2.53,3.08,3.89,4.65,3.87,4.49,8.18,9.18,12.5,14,.83.93,1.66,1.86,2.49,2.8,4.71,5.33,9.32,10.82,13.27,16.39.62.87,1.22,1.74,1.8,2.62,6.69,10.05,10.96,20.35,9.51,30.52Z"/>
  <path class="cls-9" d="M396.81,516.77c-33.14-57.2-87.15-20.78-87.15-20.78h0c-.6-1.16-1.05-2.2-1.39-3.07,12.94-5.37,23-14.03,28.29-24.79,1.22-.08,2.44-.12,3.66-.12,32.69,0,62.89,26.73,64.47,37.71.8,5.57-3.2,8.98-7.87,11.05Z"/>
  <path class="cls-9" d="M266.81,508.09c-4.57,4.56-18.3,23.65-47.65,28.14,48.25-20.09,17.55-44.72,16.44-45.6,10.45,4.28,21.18,6.96,31.77,7.94,1.53,3.3,2.07,6.89-.56,9.52Z"/>
  <path class="cls-9" d="M313.8,403.7c-1.34-1.5-2.68-2.99-4.02-4.47h0c19.29-4.54,19.6-16.33,19.6-16.75,3.26,2.21,5.35,4.91,5.6,7.9.78,9.34-14.06,12.39-21.18,13.32Z"/>
  <path class="cls-9" d="M183.78,423.31c-4.07,2.21-10.13,4.92-15.33,4.92-3.59,0-6.77-1.28-8.62-4.91-3.53-6.91-4.44-13.21.32-20.13,0,0,2.74,21.7,22.95,15.94.21,1.41.44,2.8.68,4.18Z"/>
  <path class="cls-9" d="M240.01,208.92s-.07.06-.11.1c-.07.07-.16.14-.26.24-.14.12-.31.27-.52.44-.01,0-.03.03-.05.04h0s-.05.04-.08.07c-.44.37-1,.82-1.68,1.35-.08.06-.16.12-.25.19-.87.66-1.92,1.43-3.15,2.26-.38.26-.79.52-1.21.8-1.43.93-3.07,1.92-4.91,2.94-.13.07-.27.15-.41.23-.48.26-.96.52-1.47.78-.36.19-.73.38-1.1.56-.37.19-.75.38-1.14.57-.38.19-.77.37-1.17.56-.32.15-.65.3-.97.45-.66.3-1.33.59-2.02.88-1.37.59-2.81,1.16-4.31,1.71-2.25.83-4.64,1.6-7.16,2.31-.26.07-.52.15-.79.22-.94.25-1.89.49-2.86.72-.73.17-1.46.33-2.21.49-.33.07-.67.14-1,.21-.22.04-.43.09-.65.13-1.14.22-2.31.42-3.5.61-.62.1-1.24.19-1.86.27-.63.09-1.27.17-1.91.24-.68.08-1.36.16-2.06.22-.5.05-1,.1-1.51.13-1.11.1-2.23.17-3.38.22-.72.04-1.45.07-2.19.08-.11.01-.22.01-.33.01-.79.02-1.59.03-2.4.03-.49,0-.99,0-1.49-.01-.74-.01-1.49-.03-2.25-.06-.59-.02-1.18-.04-1.78-.08-.47-.02-.94-.04-1.42-.08-.47-.03-.94-.07-1.42-.1h-.03c-.38-.03-.76-.06-1.14-.1-.09,0-.18-.01-.27-.03-.32-.02-.64-.05-.97-.09-.16-.01-.32-.02-.49-.05-.48-.04-.97-.09-1.47-.16-.81-.09-1.64-.19-2.48-.32-.45-.05-.91-.12-1.38-.19h0c-.11-.02-.22-.04-.34-.06-.6-.1-1.21-.19-1.82-.3-.48-.08-.97-.16-1.45-.25-.49-.09-.98-.18-1.47-.28-.53-.1-1.07-.21-1.61-.33-.45-.09-.9-.18-1.36-.29-.41-.09-.83-.18-1.25-.28-.73-.17-1.46-.35-2.2-.53-2.21-.55-4.46-1.17-6.75-1.87-1.25-.38-2.08-1.54-2.03-2.81.06-1.61.74-4.57,3.59-9.49l2.66-4.6-4.67,2.53c-10.08,5.44-37.31,18.5-45.8,15.63-.25-.08-.48-.18-.7-.29-.83-.43-1.29-1.05-1.47-1.98-.02-.1-.04-.2-.05-.3-.09-.73-.09-1.48-.02-2.26.01-.19.03-.39.06-.58.02-.18.05-.37.08-.56.01-.11.03-.22.05-.32.01-.01.01-.02.01-.03.07-.37.16-.75.26-1.13.06-.25.13-.5.21-.75.08-.25.16-.51.25-.77.09-.25.18-.5.28-.76.1-.27.21-.54.33-.81.1-.25.21-.49.33-.73.11-.26.24-.52.37-.78.09-.2.2-.4.3-.6.06-.11.12-.22.18-.34.12-.22.24-.45.37-.67.13-.23.26-.46.39-.68,0,0,17.64,12.89,46.12-7.16,1.31-.92,2.9-1.43,4.49-1.21,1.83.26,3.46,1.49,1.72,5.67-5.54,13.32,47.3,23.76,86.15,1.18Z"/>
  <g>
    <path class="cls-6" d="M484.42,116.85c0,10.21-14.74,31.7-42.08,51.4-12.76,9.2-26.6,16.78-41.23,22.59-.93.37-1.86.73-2.8,1.09-1.24.47-2.48.93-3.73,1.37-20.07,7.13-40.99,10.75-62.17,10.75-8.62,0-17.35-.61-26.08-1.81-2.2-.31-4.4-.65-6.6-1.03-2.55-1.75-5.18-3.39-7.86-4.93l2.68.91c2.15.44,4.29.83,6.41,1.19,10.85,1.84,21.34,2.67,31.45,2.67,1.28,0,2.56-.01,3.83-.04.59-.01,1.19-.03,1.78-.05.68-.02,1.35-.04,2.02-.07.63-.03,1.26-.06,1.88-.09,4.19-.22,8.31-.58,12.36-1.06.66-.09,1.32-.17,1.98-.26,2.09-.27,4.17-.58,6.22-.93.89-.15,1.78-.3,2.66-.46,1.42-.26,2.83-.54,4.23-.83,1.02-.21,2.04-.43,3.05-.66.05-.01.1-.02.15-.03,1.05-.24,2.09-.49,3.13-.74.07-.02.13-.04.2-.05.85-.21,1.7-.43,2.54-.65.25-.06.5-.13.74-.2,1.04-.27,2.08-.55,3.1-.85.15-.04.3-.08.44-.13,1.01-.28,2.01-.58,3-.89,1.04-.31,2.07-.64,3.1-.97.04-.02.07-.03.11-.04,1.79-.59,3.56-1.19,5.31-1.82.8-.29,1.59-.58,2.38-.88.14-.05.29-.11.43-.16,1.65-.62,3.28-1.26,4.89-1.93.14-.05.27-.11.4-.16h0c1.8-.75,3.58-1.52,5.33-2.31.56-.24,1.11-.5,1.67-.76.8-.37,1.6-.74,2.4-1.12.79-.38,1.58-.77,2.36-1.16.78-.38,1.56-.77,2.33-1.17,1.29-.66,2.56-1.33,3.82-2.01.51-.28,1.02-.56,1.52-.84,6.49-3.59,12.51-7.43,18.04-11.37.57-.4,1.14-.81,1.7-1.23.52-.37,1.03-.75,1.53-1.12,5.6-4.18,10.64-8.45,15.09-12.65.48-.46.96-.91,1.43-1.37,4.23-4.11,7.9-8.14,10.94-11.95.35-.43.68-.85,1-1.26,1.41-1.83,2.68-3.59,3.8-5.29.24-.35.47-.71.69-1.06.41-.65.81-1.29,1.17-1.92.22-.36.43-.72.62-1.08.75-1.34,1.38-2.6,1.89-3.8.12-.27.23-.53.33-.79.07-.17.13-.33.19-.48.11-.29.21-.57.3-.84.12-.34.22-.67.31-.98.06-.18.1-.35.14-.52.06-.19.1-.38.14-.56.05-.21.1-.42.13-.63.05-.24.08-.47.11-.69.03-.21.05-.41.06-.61.02-.23.03-.46.03-.68,0-2.55-.43-4.96-1.18-7.23-.06-.17-.11-.35-.18-.52-.25-.71-.54-1.42-.86-2.1-.12-.27-.25-.54-.39-.81-.13-.27-.27-.54-.41-.8-.15-.27-.31-.55-.46-.82-.15-.24-.3-.49-.45-.73-.63-1.01-1.32-1.98-2.06-2.92-.18-.23-.37-.46-.56-.69s-.38-.46-.58-.68c-.58-.67-1.18-1.32-1.81-1.95-.2-.21-.41-.42-.62-.62-6.75-6.56-15.07-10.55-17.77-11.75-.16-.07-.29-.13-.41-.18-.25-.1-.42-.17-.47-.19-.01-.01-.02-.01-.02-.01-16.51-5.28-32.41-7.57-47.58-7.57-39.39,0-73.87,15.44-101.22,34.21-2.31,1.58-4.57,3.18-6.78,4.81-.22.16-.44.32-.66.49-.07.05-.14.11-.22.17-.78.62-2.21,1.76-4.13,3.36-9.95,8.33-33.17,29.2-49.01,54.75-1.04-.23-2.08-.45-3.12-.66,19.52-31.94,50.58-56.82,54.68-60.01.15-.11.31-.23.46-.34,1.18-.87,2.36-1.74,3.55-2.57.17-.13.35-.25.52-.37,11.79-8.35,23.84-15.36,35.99-20.92,11.55-5.28,23.2-9.26,34.88-11.92,11.69-2.66,23.4-4,35.06-4,16.17,0,32.49,2.6,48.5,7.71l.09.04.1.03c1.23.49,30.12,12.25,30.12,34.79Z"/>
    <path class="cls-6" d="M295.61,114.06c-.15.11-.31.23-.46.34.27-.23.43-.34.45-.36v.02Z"/>
  </g>
  <path class="cls-6" d="M254.1,177.67c16.43,4.48,32.66,11.09,46.86,20.71-2.12-.36-4.26-.75-6.41-1.19l-2.68-.91c-12.76-7.39-26.81-12.62-40.91-16.31-1.31-.34-2.62-.67-3.93-.98-1.7-.41-3.4-.8-5.1-1.17-1.04-.22-2.08-.44-3.11-.64-.53-.11-1.05-.22-1.58-.32-1.08-.22-2.16-.42-3.23-.61-19.83-3.61-38.74-4.56-53.15-4.56h-.01c-1.21,0-2.4.01-3.55.02-2.73.03-5.45.2-8.14.5-1.27.14-2.53.31-3.79.51-13.3,2.12-25.87,7.52-36.46,15.76-1.36-.24-3.86.37-6.97,1.98-2.93,1.5-6.41,3.89-9.99,7.25-.46.44-.93.89-1.4,1.36-.23.22-.45.45-.68.68-1.18,1.22-2.36,2.52-3.5,3.88-.34.42-.68.84-1.02,1.26-1.4,1.79-2.71,3.66-3.82,5.55-.13.22-.26.45-.39.68s-.25.45-.37.67c-.06.12-.12.23-.18.34-.11.2-.21.4-.3.6-.13.26-.26.52-.37.78-.12.24-.23.49-.33.73-.12.27-.23.54-.33.81-.1.25-.19.51-.28.76-.09.26-.17.52-.25.77-.08.25-.15.5-.21.75-.1.38-.19.76-.26,1.13,0,.01,0,.02-.01.03-.02.1-.04.21-.05.32-.03.18-.06.37-.08.56-.03.19-.05.39-.06.58-.07.78-.07,1.53.02,2.26.01.1.03.2.05.3.18.93.64,1.55,1.47,1.98.22.11.45.21.7.29,8.49,2.87,35.72-10.19,45.8-15.63l4.67-2.53-2.66,4.6c-2.85,4.92-3.53,7.88-3.59,9.49-.05,1.27.78,2.43,2.03,2.81,2.29.7,4.54,1.32,6.75,1.87.74.19,1.47.37,2.2.53.42.1.84.19,1.25.28.46.11.91.2,1.36.29.54.12,1.08.23,1.61.33.49.1.98.19,1.47.28.49.09.97.18,1.45.25.61.11,1.22.21,1.82.3.11.02.23.04.34.06.47.07.93.14,1.38.19.84.13,1.67.23,2.48.32.5.07.99.12,1.47.16.17.03.33.04.49.05.33.04.65.07.97.09.09.02.18.03.27.03.38.04.76.07,1.14.1h.03c.48.04.95.07,1.42.1.48.04.95.06,1.42.08.6.04,1.19.06,1.78.08.75.03,1.5.05,2.25.06.5.01,1,.01,1.49.01.81,0,1.61-.01,2.4-.03.11,0,.22,0,.33-.01.74-.01,1.47-.04,2.19-.08,1.15-.05,2.27-.12,3.38-.22.51-.03,1.01-.08,1.51-.13.7-.06,1.38-.14,2.06-.22.65-.07,1.28-.15,1.91-.24.63-.08,1.25-.17,1.86-.27,1.19-.19,2.36-.39,3.5-.61.22-.04.43-.09.65-.13.33-.07.67-.14,1-.21.75-.15,1.48-.32,2.21-.49.97-.23,1.92-.47,2.86-.72.26-.07.53-.15.79-.22,2.52-.71,4.91-1.48,7.16-2.31,1.5-.55,2.94-1.12,4.31-1.71.69-.29,1.36-.58,2.02-.88.33-.15.65-.3.97-.45.4-.19.79-.37,1.17-.56.39-.18.77-.37,1.14-.57.38-.18.74-.37,1.1-.56.51-.26.99-.52,1.47-.78.14-.07.27-.15.41-.23,1.84-1.02,3.48-2.01,4.91-2.94.42-.27.82-.54,1.21-.8,1.23-.83,2.28-1.6,3.15-2.26.09-.06.17-.12.25-.19.68-.53,1.24-.98,1.68-1.35.03-.03.06-.05.08-.06s.03-.02.05-.05c.21-.17.38-.32.52-.44.1-.09.19-.16.26-.24.04-.04.08-.07.11-.1t.02-.01c-1.23,1.3-9.33,9.51-24.16,15.78-8.73,3.69-20.87,7.06-36.05,7.06-10.08,0-21.5-1.48-34.15-5.36-2.55-.78-4.25-3.17-4.15-5.8.07-1.86.67-4.07,1.79-6.6-8.99,4.59-29.03,14.13-40.15,14.13-1.62,0-3.04-.2-4.22-.66-.21.44-.43.87-.63,1.31-.21.43-.41.87-.62,1.31-.22.46-.43.93-.64,1.4-.21.47-.42.94-.63,1.41-.62,1.41-1.21,2.83-1.77,4.27-.19.48-.38.96-.56,1.44-.23.58-.45,1.16-.66,1.75-.14.38-.27.77-.41,1.16-1.61,4.53-2.95,9.17-3.99,13.88-.11.46-.2.92-.3,1.37-.11.54-.22,1.08-.32,1.62-.11.53-.21,1.07-.3,1.61-.1.52-.19,1.03-.27,1.55-.31,1.87-.56,3.75-.77,5.64-.05.5-.1.99-.15,1.49-.05.51-.09,1.03-.13,1.54-.04.52-.08,1.03-.11,1.55-.03.42-.06.85-.07,1.27-.03.55-.06,1.1-.07,1.64-.64,18.61,4.03,37.47,16.35,54.44,19.33,26.61,50.81,38.83,79.78,44.2-.11.88-.22,1.88-.33,2.98-29.61-5.47-61.95-17.99-81.87-45.42-14.82-20.39-20.09-45.22-15.25-71.81,1.88-10.37,5.34-20.86,10.1-30.91.37-.79.76-1.59,1.15-2.38-.76-.86-1.21-1.95-1.36-3.21-.51-4.27,1.14-9.07,3.88-13.72,2.86-4.86,6.9-9.56,10.91-13.32,5.74-5.39,13.51-10.83,18.55-10.44,10.67-7.95,23.23-13.24,36.57-15.34-.62-6.73-1.67-27.06,5.11-51.44,4.8-17.24,12.55-32.91,23.03-46.56,13.1-17.05,30.51-30.95,51.74-41.33l.17-.09.19-.06c.56-.18,13.76-4.53,27.92-4.53h.01c17.08,0,28.39,6.44,32.7,18.63,6.08,17.19,3.26,41.87-6.21,66.76-.17.12-.35.24-.52.37-1.19.83-2.37,1.7-3.55,2.57v-.02s-.19.13-.46.36c10.66-25.96,13.98-51.87,7.91-69.04-.11-.3-.22-.6-.34-.89-.09-.26-.2-.51-.31-.75-.02-.06-.05-.13-.08-.19-.1-.23-.2-.45-.3-.67-.3-.61-.61-1.2-.95-1.76-.09-.16-.18-.32-.29-.47-.32-.53-.67-1.04-1.03-1.52-.12-.15-.23-.3-.34-.45-.47-.59-.96-1.15-1.48-1.68-.15-.16-.31-.32-.47-.47-.19-.18-.38-.36-.57-.53-.14-.13-.28-.25-.42-.37-.26-.22-.53-.44-.8-.66-.25-.19-.51-.38-.77-.56-.35-.25-.71-.49-1.07-.73-.29-.17-.58-.35-.87-.52-.85-.49-1.72-.93-2.63-1.32-.21-.1-.43-.2-.65-.28-.79-.33-1.6-.62-2.42-.88-.21-.07-.42-.13-.63-.19-.26-.08-.52-.15-.78-.22-.21-.06-.41-.11-.62-.16-.2-.06-.4-.1-.6-.15-.26-.07-.53-.12-.8-.18-.13-.03-.25-.05-.38-.08-.35-.07-.7-.14-1.06-.2-.27-.05-.53-.09-.8-.13-.15-.03-.31-.05-.46-.08-.34-.04-.68-.09-1.02-.13-.34-.04-.68-.08-1.03-.12-.08,0-.15-.02-.23-.02-.35-.04-.69-.07-1.04-.09-.39-.04-.78-.06-1.16-.08-1.16-.07-2.32-.1-3.48-.1-13.83,0-26.97,4.38-26.97,4.38-10.18,4.98-19.06,10.57-26.8,16.58-.66.5-1.31,1.02-1.95,1.53-2.24,1.81-4.38,3.64-6.43,5.52-.57.51-1.13,1.03-1.69,1.56-.72.69-1.44,1.38-2.15,2.08-.35.35-.7.7-1.05,1.05-.69.7-1.37,1.4-2.04,2.11-.66.7-1.32,1.41-1.96,2.12-.01,0-.01.01-.01.01-.64.71-1.27,1.43-1.89,2.14-.62.72-1.23,1.44-1.84,2.17-.89,1.08-1.76,2.17-2.6,3.26t-.01.01c-.85,1.09-1.66,2.19-2.46,3.29-.53.73-1.06,1.47-1.57,2.22-.76,1.1-1.5,2.21-2.22,3.32-6.47,10.01-11.09,20.21-14.35,29.96-.49,1.44-.94,2.88-1.37,4.3,0,0,0,.01-.01.02-.42,1.42-.81,2.82-1.19,4.21-.93,3.5-1.7,6.91-2.33,10.2-2.97,15.45-2.91,28.3-2.53,35.26.08,1.32.16,2.43.24,3.3,3.05-.38,6.15-.59,9.26-.62,1.16,0,2.36-.02,3.6-.02,15.28,0,34.81,1.04,55.08,4.83,1.09.2,2.18.41,3.28.63.42.08.83.17,1.25.26,1.04.21,2.08.43,3.12.66,2.26.5,4.53,1.04,6.79,1.62,5.55-4.03,11.16-9.13,16.6-15.58,10.48-12.44,19.14-26.52,25.62-40.79,1.92-1.6,3.35-2.74,4.13-3.36.08-.06.15-.12.22-.17.22-.17.44-.33.66-.49-6.83,16.41-16.5,32.69-28.34,46.74-4.97,5.9-10.08,10.71-15.17,14.63Z"/>
  <path class="cls-5" d="M395.18,85.49c-18.6,2.5-79.39,14.03-116.74,60.65-1.46,1.82-.97,4.64,1.11,5.69,1.28.64,3.06.6,5.47-1.27,6.07-4.72,65.25-57.03,124.85-55.88,1.63.03,3.21-.75,4-2.17.93-1.68.61-4.02-5.63-5.98-4.22-1.33-8.68-1.62-13.06-1.03Z"/>
  <path class="cls-5" d="M248.82,49.32c2.38-2.4-.38-6.29-3.45-4.88-21.43,9.84-60.68,36.08-70.18,98.62,0,0-1.75,11.91,7.91,11.57,9.05-.32,16.19-55.28,65.72-105.32Z"/>
  <path class="cls-5" d="M331.32,498.99c4.62,4.81,16.43,18.54,48.8,15.49,1.53-.14,2.02,2.02.57,2.54-8.37,3.03-23.35,5.8-42.69-1.67-18.65-7.2-17.44-7.69-17.41-11.78s8.93-6.45,10.72-4.58Z"/>
  <path class="cls-5" d="M218.12,500.97c3.44-2.28.52-7.57-3.24-5.89-13.85,6.17-36.75,17.68-39.81,27.56-4.43,14.3,35.4,14.64,36.43,8.51s-21.37.08-19.4-11.57c1.35-7.97,16.63-12.37,26.03-18.61Z"/>
  <path class="cls-5" d="M335.82,420.97c2.12-3.52,6.89-8.71,15.43-5.18,3.82,1.58,4.27,6.81.9,9.21-5.95,4.22-14.44,8.79-16.97,2.7-.91-2.19-.58-4.69.64-6.72Z"/>
  <path class="cls-5" d="M262,434.1c-7.45.86-21.57,4.3-21.57,15.69,0,4.12-2.55,6.81-7.28,7.69-6.5,1.21-14.78-6.17-13.5-21.14,1.75-20.46,31.89-29.66,44.35-15.33,3.52,4.05,3.33,12.47-2,13.09Z"/>
  <path class="cls-6" d="M244.64,447.19c-.17-.83-1.03-.94-1.1-.1-.33,3.9.08,12.57,4.63,13.16,5.88.76,10.13,2.34,10.23-.98.07-2.03-1.32-3.82-3.23-4.52-2.11-.78-5.23-1.18-8.26,1.14-.23.17-.55.08-.64-.19-.28-.83-1.05-5.73-1.64-8.51Z"/>
  <circle class="cls-8" cx="285.83" cy="334.09" r="16.67"/>
  <circle class="cls-7" cx="129.28" cy="332.35" r="16.67"/>
  <g>
    <path class="cls-6" d="M155.91,335.4c3.22,7.75,11.26,12.48,19.99,14.3,8.05,1.79,15.93.15,24.26-.11,1.42-.04,1.72,1.75.35,2.07-3.64.85-7.39,1.38-11.17,1.6-7.11.42-14.48-.36-20.95-3.19-6.37-2.77-11.9-8.32-12.48-14.67h0Z"/>
    <path class="cls-6" d="M231.37,351.94c-6.56,1.87-13.13,2.83-19.88,2.17-6.81-.45-14.14-2.91-18.07-8.17-1.98-2.59-2.99-5.62-3.14-8.59l.29-.05c1.15,2.77,2.62,5.32,4.71,7.36,4.26,4.16,10.4,6.03,16.57,6.96,6.38.81,13.08,1.36,19.52.32"/>
    <g>
      <path class="cls-5" d="M189.75,351.68l-15.96-1.06c-.73.07-5.72-2.3-5.36-1.73l12.88,23.74c.47.87,1.49,1.39,2.58,1.33l18.76-1.18-12.89-21.1Z"/>
      <path class="cls-1" d="M183.28,374.88c-1.08.07-2.11-.46-2.58-1.33l-13.47-24.82.45-.51c.6-.58,1.18-.35,3.61.61.79.31,2.08.83,2.48.9h0s16.59,1.1,16.59,1.1l13.89,22.73-20.98,1.32ZM170.35,350.4l11.56,21.3c.47.87,1.49,1.39,2.58,1.33l16.53-1.04-11.9-19.47-15.35-1.02c-.49-.01-1.28-.26-3.42-1.11h0Z"/>
    </g>
    <g>
      <path class="cls-5" d="M191.1,351.68l9.63-1.78s3.83,1.57,11.87,3.06l8.18,15.53c1.03,1.95-.51,4.21-2.94,4.31l-15.2.66-11.54-21.78Z"/>
      <path class="cls-1" d="M202.02,374.37l-12.36-23.33,11.19-2.06.3.12s3.85,1.55,11.65,2.99l.49.09,9.03,17.12c1.03,1.95-.51,4.21-2.94,4.31l-17.36.75ZM192.54,352.32l10.72,20.23,13.05-.57c2.43-.11,3.97-2.36,2.94-4.31l-7.34-13.93c-6.57-1.24-10.24-2.51-11.28-2.91l-8.07,1.49Z"/>
    </g>
  </g>
  <path class="cls-6" d="M160.06,322.96c-1.83-1.87-2.39-4.68-1.28-7.06,1.83-3.91,6.57-9.09,18.65-6.07,10.58,2.64,13.99,7.56,14.98,11.27.8,3.01-.45,6.14-2.99,7.94-1.79,1.27-4.44,2.54-8.12,2.97-6.23.72-12.46-1.39-17.26-5.43-1.38-1.16-2.82-2.44-3.98-3.62Z"/>
  <path class="cls-5" d="M163.99,319.82c-.28.13-.59-.11-.56-.42.15-1.7,1.06-5.71,6.16-6.26,6.51-.7,9.28,1.71,7.83,3.77-2.53,3.57-10.53,1.6-13.43,2.91Z"/>
  <path class="cls-6" d="M210.47,262.44c.1-.28-.25-.49-.45-.28-2.68,2.84-10.97,13.07-7.38,28.14,4.25,17.87,21.96,21.79,25.36,11.74s-5.76-24.98-20.54-25.47c-1.07-.04-1.88-.94-1.75-2,.35-2.92,3.33-8.14,4.76-12.13Z"/>
  <path class="cls-6" d="M143.22,256.2c.16-.23-.1-.51-.34-.36-3.13,1.91-13.14,9.15-13.59,23.69-.53,17.24,14.55,25.13,20.1,16.87s.91-24.05-12.37-28.12c-.96-.29-1.47-1.32-1.09-2.24,1.04-2.56,5.01-6.56,7.29-9.83Z"/>
</svg>