<?xml version="1.0" encoding="UTF-8"?>
<svg id="Layer_1" data-name="Layer 1" xmlns="http://www.w3.org/2000/svg" xmlns:xlink="http://www.w3.org/1999/xlink" viewBox="0 0 566.93 566.93">
  <defs>
    <style>
      .cls-1 {
        fill: #210f10;
      }

      .cls-1, .cls-2, .cls-3, .cls-4, .cls-5, .cls-6, .cls-7, .cls-8 {
        stroke-width: 0px;
      }

      .cls-2 {
        fill: #f59422;
      }

      .cls-3 {
        fill: #d57428;
      }

      .cls-4 {
        fill: #fff;
      }

      .cls-5 {
        fill: #f6eb22;
      }

      .cls-6 {
        fill: url(#radial-gradient);
      }

      .cls-7 {
        fill: #fbdb00;
      }

      .cls-8 {
        fill: #732e16;
      }
    </style>
    <radialGradient id="radial-gradient" cx="210.61" cy="146.98" fx="210.61" fy="146.98" r="20.45" gradientUnits="userSpaceOnUse">
      <stop offset="0" stop-color="#f5909c"/>
      <stop offset="1" stop-color="#f6eb22"/>
    </radialGradient>
  </defs>
  <path class="cls-2" d="M237.29,49.68l-40.74,1.28c-.08,0-.16.02-.25.03-9.43,1.89-34.3,5.2-43.04-.36.13-.08.28-.16.42-.23,4.29-2.39,14.1-7.42,24.35-9.66,3.52-.43,5.81-.91,6.12-.98.78-.17,1.29-.91,1.17-1.7-.13-.78-.84-1.34-1.63-1.26-1.97.19-3.95.51-5.92.92-8.15.98-23.37,1.71-34.81-4.13,5.35-3.96,24.18-15.06,59.25-7.66,5.48,1.16,10.68,3.04,15.45,5.57,4.72,2.49,9.02,5.63,12.79,9.33,3.07,3.02,5.37,5.99,6.84,8.85Z"/>
  <path class="cls-2" d="M284.02,50.26c-.35,3.76-2.63,16.24-17.48,27.13-1.9-.08-9.32-.69-13.24-5.74-2.59-3.34-3.21-8.05-1.83-14.02.06-.29.13-.57.2-.86,1.75-1.4,10.28-7.64,23.08-7.61,2.88.01,5.98.33,9.27,1.1Z"/>
  <path class="cls-3" d="M237.29,49.68l-40.74,1.28c-.08,0-.16.02-.25.03-9.32,1.87-33.75,5.13-42.74-.18-.39.03-1.1-.1-1.04-.32,16.58-.16,39.8-8.17,54.06-14.12,8.09-3.37,17.49-1.78,23.76,4.34.04.04.08.07.11.11,3.07,3.02,5.37,5.99,6.84,8.85Z"/>
  <path class="cls-3" d="M255.83,58.46c-1.7-.19-3.14-.47-4.36-.83.06-.29.13-.57.2-.86,1.75-1.4,10.28-7.64,23.08-7.61.16.64.23,1.01.23,1.01,0,0,7.79,11.36-19.15,8.29Z"/>
  <path class="cls-8" d="M240.98,50.57c-1.5-3.86-4.33-7.85-8.43-11.88-7.99-7.85-18.27-13.28-29.72-15.7-43.67-9.21-62.79,8.99-63.58,9.77-.33.32-.49.78-.44,1.24.06.46.32.87.72,1.11,7.92,4.76,17.71,6.19,26.11,6.31-8.78,3.42-15.35,7.45-15.79,7.73-.38.23-.64.63-.7,1.08-.05.44.09.89.4,1.22,3.82,4.04,12.11,5.26,20.7,5.26,12.14,0,24.89-2.43,26.52-2.75l42.86-1.35c.49-.01.93-.26,1.2-.67.27-.41.33-.92.15-1.37ZM196.55,50.96c-.08,0-.16.02-.25.03-9.43,1.89-34.3,5.2-43.04-.36,4.03-2.27,14.17-7.57,24.77-9.89,3.52-.43,5.81-.91,6.12-.98.78-.17,1.29-.91,1.17-1.7-.13-.78-.84-1.34-1.63-1.26-1.97.19-3.95.51-5.92.92-8.15.98-23.37,1.71-34.81-4.13,5.35-3.96,24.18-15.06,59.25-7.66,10.89,2.3,20.66,7.45,28.24,14.9,3.07,3.02,5.37,5.99,6.84,8.85l-40.74,1.28Z"/>
  <path class="cls-8" d="M287.08,49.07c-.02-.67-.47-1.25-1.12-1.42-21.8-5.75-36.02,6.62-36.61,7.15-.22.19-.38.45-.45.73-2.04,7.56-1.35,13.61,2.04,17.98,5.2,6.68,14.82,6.89,15.99,6.89h.11c.3,0,.6-.11.85-.29,19.3-13.9,19.2-30.34,19.19-31.04ZM266.54,77.39c-1.9-.08-9.32-.69-13.24-5.74-2.71-3.5-3.26-8.5-1.63-14.88,2.14-1.71,14.48-10.7,32.35-6.51-.35,3.76-2.63,16.24-17.48,27.13Z"/>
  <path class="cls-8" d="M263.17,427.95c.1.14.2.29.3.43v-.92c-.1.16-.2.32-.3.49Z"/>
  <path class="cls-8" d="M269.06,520.33c-1.27-11.56-3.48-23.5-6.58-35.47-.33-1.29-.71-2.6-1.09-3.91-.21-.72-.42-1.44-.61-2.11-.76-3.34-.96-6.89-1.13-9.99-.56-17.16,1.02-29.77,4.68-37.52l.11.16v-.39c.37-.77.76-1.48,1.17-2.15l.72-1.06-.73-1c-7.26-9.96-16.28-15.9-24.13-15.9h-.02c-5.54.01-10.4,2.83-14.43,8.4l-.39.48.28.55c10.99,24.68,14.53,46.28,10.5,64.2-2.18,9.61-6.73,19.26-13.93,29.54-.49.77-1.06,1.61-1.67,2.49-3.38,4.92-8.02,11.65-3.66,17.26l.11.12c3.66,3.43,10.19,4.54,16.79,4.54,6.06,0,12.16-.93,16.15-1.87,12.74-3.13,18.92-8.8,17.86-16.37ZM263.48,427.46v.92c-.11-.14-.21-.29-.31-.43.1-.17.2-.33.31-.49ZM264.24,522.42c-.3,2.08-1.75,3.97-4.31,5.61-8.97,5.77-27.49,6.49-33.72,4.66l-.4-.11c-1.82-.52-3.7-1.05-4.36-2.4-.73-2,.35-4.42,1.49-6.52,1.05-1.88,2.27-3.7,3.55-5.63l.86-1.28c7.2-10.42,11.92-20.93,14.03-31.25,3.86-19.06-.31-41.05-12.39-65.37,3.73-4.44,7.92-6.59,12.42-6.46,9.05.29,16.98,9.46,20.55,14.33-7.24,12.28-7.59,38.11-6.1,49.65.27,1.8.77,3.57,1.25,5.27.29,1.02.59,2.07.83,3.1,2.67,10.87,4.69,21.89,5.98,32.74.03.27.07.6.11.97.1.92.25,2.19.21,2.69Z"/>
  <path class="cls-2" d="M264.24,522.42c-.3,2.08-1.75,3.97-4.31,5.61-6.8,4.37-19.08,5.84-27.34,5.5-2.64-.1-4.87-.4-6.38-.84l-.4-.11c-1.82-.52-3.7-1.05-4.36-2.4-.73-2,.35-4.42,1.49-6.52,1.05-1.88,2.27-3.7,3.55-5.63l.86-1.28c7.2-10.42,11.92-20.93,14.03-31.25,1.67-8.24,1.84-17.03.51-26.32-1.74-12.19-6.04-25.25-12.9-39.05,3.73-4.44,7.92-6.59,12.42-6.46,9.05.29,16.98,9.46,20.55,14.33-7.24,12.28-7.59,38.11-6.1,49.65.27,1.8.77,3.57,1.25,5.27.29,1.02.59,2.07.83,3.1,2.67,10.87,4.69,21.89,5.98,32.74.03.27.07.6.11.97.1.92.25,2.19.21,2.69Z"/>
  <path class="cls-3" d="M264.24,522.42c-.3,2.08-1.75,3.97-4.31,5.61-6.8,4.37-19.08,5.84-27.34,5.5-4.99-16.27,14.59-4.3,17.75-27.92,1.35-10.09-2.96-28.45-8.45-46.43-1.74-12.19-6.04-25.25-12.9-39.05,3.73-4.44,7.92-6.59,12.42-6.46,9.05.29,16.98,9.46,20.55,14.33-7.24,12.28-7.59,38.11-6.1,49.65.27,1.8.77,3.57,1.25,5.27.29,1.02.59,2.07.83,3.1,2.67,10.87,4.69,21.89,5.98,32.74.03.27.07.6.11.97.1.92.25,2.19.21,2.69Z"/>
  <path class="cls-8" d="M348.87,404.56c-.34.16-.69.34-1.04.51.16.26.32.53.5.79.03.06.07.13.12.19-.05.12-.1.24-.16.36.11-.04.21-.09.31-.13.37-.17.74-.33,1.09-.49-.28-.4-.55-.81-.82-1.23ZM348.87,404.56c-.34.16-.69.34-1.04.51-5.87,2.97-12.88,7.18-16.51,11.59-.96,1.17-1.69,2.36-2.08,3.54-.21.6-.33,1.2-.35,1.8.07-.61.25-1.23.5-1.83.55-1.27,1.48-2.52,2.68-3.73,3.7-3.75,9.97-7.15,15.44-9.67.26-.12.53-.24.78-.36.11-.04.21-.09.31-.13.37-.17.74-.33,1.09-.49-.28-.4-.55-.81-.82-1.23Z"/>
  <path class="cls-8" d="M355.6,403.39c-.11,0-.37-.06-.5-.16l-.1-.08-.03-.02c.05.15.1.3.15.45.14-.06.27-.11.4-.16.08-.02.21-.05.08-.03ZM347.83,405.07c-5.87,2.97-12.88,7.18-16.51,11.59-.96,1.17-1.69,2.36-2.08,3.54-.21.6-.33,1.2-.35,1.8.07-.61.25-1.23.5-1.83.55-1.27,1.48-2.52,2.68-3.73,3.7-3.75,9.97-7.15,15.44-9.67.26-.12.53-.24.78-.36.11-.04.21-.09.31-.13.37-.17.74-.33,1.09-.49-.28-.4-.55-.81-.82-1.23-.34.16-.69.34-1.04.51Z"/>
  <path class="cls-8" d="M373.75,473.68c-.21-1.37-.41-2.66-.56-3.97v-.02c-.5-3.67-.75-6.9-.77-9.81.32-9.22-.55-19.38-2.67-31.09-.26-1.27-.52-2.56-.77-3.84l-.63-3.16c-1.1-5.4-2.47-11.66-4.81-17.56l-.23-.37c-.09-.12-.17-.19-.3-.31-.37-.3-.89-.46-1.41-.41-.35.06-.49.12-.6.16l-.12.05c-.22.09-.48.2-.78.34l-.74-.54.24.76c-1.22.56-2.91,1.38-4.89,2.43-.21.1-.42.21-.63.32l-1.42.74v.02c-5.39,3.01-12.19,7.39-15.85,12.16-1.09,1.41-1.85,2.8-2.25,4.11-.18.55-.26,1.33-.3,1.99-.03.46.05.9.21,1.33,4.46,11.63,8.99,29.02,5.99,47.02-.88,5.2-2.52,10.22-4.89,14.92l-.05.11c-.37,1.02-.51,1.98-.43,3.15.64,6.38,7.08,7.59,12.29,7.59,2.18,0,4.14-.2,5.37-.34l.22-.03c7.84-1.16,19.68-2.9,21.44-13.66.57-4.12-.05-8.16-.66-12.07ZM369.5,484.88c-1.12,6.69-9.04,8.03-15.4,9.1-.69.12-1.36.24-1.96.34-6,.83-10.6.33-12.01-1.33-.28-.33-.63-.9-.42-2.03,2.19-4.49,4.13-10.98,4.84-16.17,2.66-18.95-2.67-36.31-7.88-47.93-.34-.75-.4-1.62-.1-2.39,0,0,0,0,0-.01.48-1.18,1.31-2.41,2.47-3.67,2.99-3.23,8.09-6.63,15.15-10.12l.7-.35c.09-.03.17-.07.25-.11l1.21-.58c.5-.23.99-.45,1.48-.67,1.59-.71,3.38.24,3.84,2.01.66,2.54,1.27,5.28,1.86,8.29.17.89.34,1.79.5,2.69.47,2.51.9,5.04,1.33,7.57l.03.17c1.83,11.39,2.53,21.24,2.14,30.18,0,3.22.25,6.69.76,10.55.16,1.39.36,2.78.56,4.12.54,3.61,1.05,7.01.65,10.36Z"/>
  <path class="cls-2" d="M369.5,484.87c-1.12,6.69-9.04,8.03-15.4,9.1-.69.11-1.36.23-1.96.34-6,.83-10.6.33-12.01-1.33-.28-.33-.63-.9-.42-2.03.76-1.54,1.48-3.32,2.13-5.21,1.25-3.59,2.24-7.56,2.71-10.96,2.65-18.95-2.67-36.31-7.89-47.93-.33-.75-.39-1.62-.1-2.39t.01-.02c.48-1.17,1.31-2.4,2.47-3.67,2.99-3.23,8.09-6.63,15.15-10.12l.7-.35c.09-.03.17-.08.25-.11l1.21-.58c1.34-.62,2.62-1.19,3.79-1.68.21-.09.42-.18.62-.26.01.03.02.07.03.1,1,3.39,1.9,7.16,2.74,11.47.17.89.34,1.79.5,2.69.47,2.51.9,5.04,1.33,7.56l.03.18c.87,5.4,1.48,10.47,1.84,15.25.41,5.28.5,10.23.3,14.92,0,3.22.25,6.69.76,10.55.16,1.39.36,2.79.56,4.12.54,3.61,1.05,7.01.65,10.36Z"/>
  <path class="cls-3" d="M367.23,444.92c-5.21,17.12-13.97,38.77-25.39,40.82,1.25-3.59,2.24-7.56,2.71-10.96,2.65-18.95-2.67-36.31-7.89-47.93-.33-.75-.39-1.62-.1-2.39t.01-.02c.48-1.17,1.31-2.4,2.47-3.67,2.99-3.23,8.09-6.63,15.15-10.12l.7-.35c.09-.03.17-.08.25-.11l1.21-.58c1.34-.62,2.62-1.19,3.79-1.68l.65-.16c1,3.39,1.9,7.16,2.74,11.47.17.89.34,1.79.5,2.69.47,2.51.9,5.04,1.33,7.56l.03.18c.87,5.4,1.48,10.47,1.84,15.25Z"/>
  <path class="cls-5" d="M407.63,391.88c-4.45,20.94-5.49,42.48-4.01,63.78l.5,6.39.74,6.36c.15,1.6.59,4.76.86,6.35.54,3.65,1.45,9.09,2.23,12.62l.64,3.14c1.26,4.75.77,10.1-2.23,14.12-3.93,5.3-10.66,7.19-17.53,7.56-6.03.32-12.15-.52-16.58-1.27-2.67-1.44-3.1-4.67-1.84-7.37,1.39-2.88,3.69-5.89,4.98-8.97,8.82-18.81,10.4-42.4-1.4-60.29-1.92-2.92-4.13-5.64-6.51-8.19-.01-.01-.02-.02-.03-.03-.43-.42-1.08-1.06-1.8-1.75-.35-.35-.71-.7-1.07-1.05-1.05-1.02-2.09-2.02-2.65-2.58-2.18-2.2-4.16-4.59-5.9-7.13-.28-.4-.55-.81-.82-1.23-5.93-9.17-8.93-20.17-8.01-31.17.49-6.83,2.05-13.66,4.93-19.9-1.54,3.08-2.7,6.35-3.61,9.68-4.08,14.4-2,29.49,5.65,41.9.16.26.32.53.5.79-9.87,11.22-23.06,13.62-37.42,11.96.06-5.11.25-10.22.5-15.31-2.12,21.02-2.37,42.56,1.75,63.35.89,4.67,2.33,9.75,3.99,14.24,4.05,11.76,15.1,34.15,7.92,45.36-3.91,5.46-10.65,7.1-17.34,8-2.82.39-5.64.64-8.22,1-22.47,2.11-16.24-6.18-9.41-21,2.68-6.01,4.78-12.37,5.79-18.94,1.34-8.17.73-16.64-1.06-24.67-1.21-4.77-2.81-9.5-4.73-14.03-4.24-9.1-9.01-17.86-14.31-26.33-1.61-2.59-3.28-5.15-4.99-7.69-3.81-5.18-7.46-10.98-13.01-14.44,4.19,2.9,7.16,7.15,10,11.38-2.69.05-7.48.06-10.05,0h-.24c-.59-.02-1.18-.04-1.78-.07-6.47-.29-13.16-.89-19.45-2.13-4.95-.89-9.88-2.21-14.63-3.99t-.02,0h-.01c-11.73-4.38-22.39-11.56-29.7-21.86-11.49-15.99-15.19-36.25-14.85-56.18.15-8.45,1.02-16.83,2.33-24.82,1.86,2.15,4.35,4.58,6.17,6.56,2.47,2.32,5.02,4.54,7.55,6.77-17.04-16.87-34.19-41.4-26.5-66.25,1.97-4.41,3.96-8.89,5.81-13.35,3.4-8.2,6.71-16.5,9.72-24.89l1.25-.04c4.95-13.41,8.97-26.55,11.38-40.28,14.08,2.82,34.18,4.72,50.36-8.59,7.34-5.98,12.04-15.28,12.91-25.53.9-10.63-2.32-21-8.84-28.48-.46-.51-.93-.99-1.41-1.45l-.91.54c-11.26-10.37-29.18-5.46-41.17,1.6,13.59-7.53,30-10.66,40.48-1.2,3.01,2.71,5.53,6.46,7.35,11.44,3.96,10.55,3.27,23.04-2.73,32.65-7.97,13.28-24.09,18.74-39,17.96-12.05-.42-23.76-3.41-35.29-6.92-6.57-8.32-6.39-17.58-1.07-23.93-8.91,4.03-7.94,15.65-2.46,22.22.3.33.57.63.8.89-2.16-.67-4.31-1.35-6.45-2.02-7.36-2.05-15.71-6.26-23.13-2.08-10.46,6.31-12.45,19.52-19.37,28.6-3.86,4.92-10.34,8.32-16.78,8.76-4.31.3-8.59-.72-12.06-3.51-4.8-3.95-7.26-10.51-7.84-16.59.04-.76.23-1.53.56-2.23l1.35-2.47c1.38-2.67,2.57-5.36,3.28-8.33,2.96-11.53-8.49-14.35-17.03-9.88-.43.26-.98.24-1.26-.22-.01,0-.09-.15-.14-.25l-.17-.32c-.46-.86-2.81-5.36-3.32-6.34-2.7-5.63-5.99-11.19-7.57-17.22-.17-10.54,6.21-26,16.64-29.97,2.39-.95,5.55-1.07,8.2-1.72,12.34-2.74,24.16-7.6,34.86-14.3,12.73-7.57,14.19-16.08,20.99-27.31,1-1.54,2.14-2.95,3.47-4.12,1.29-1.17,2.8-2.1,4.46-2.66l10.91-3.41c7.3-2.28,14.63-4.41,22.04-6.22,19.93-4.57,48.83-10.7,64.38,6.25,7.97,8.59,8.81,22.95,22.57,24.97,7.75,1.5,15.43-1.08,22.98-1.89,12.82-.95,4,9.52-.53,13.8-.64.59-1.29,1.16-1.96,1.71-8.09,6.67-18.64,10.9-29.19,9.53-.25-.03-.51-.07-.76-.11-3.5-.53-6.94-1.66-10.04-3.37-3.63-2.31-3.59-6.61-1.98-10.19-1.68,3.63-1.83,7.92,1.86,10.38,3.19,1.84,6.7,3.06,10.33,3.65.18.04.35.06.53.09,3.38.49,6.77.41,10.09-.14,18.77,24.61,23.51,58.82,17.77,88.62-1.74,9.8-5.04,20.57-8.33,29.31-2.44,4.8-4.45,9.68-6.16,14.73-4.83,14.69-8.27,32.31.21,46.31-4.03-7.7-4.46-16.46-3.34-24.92,13.15-10.17,35.18-25.26,54.09-27.4,4.7-.53,9.2-.27,13.33,1.07,16.7,5.99,26.46,26.73,33.37,44.41,1.57,4,2.99,7.85,4.31,11.33,7.26,17.72,15.67,34.92,23.8,52.24,1.82,3.8,3.66,7.46,4.57,11.55,1.4,5.98,1.23,12.3-.53,18.18-2.19,5.99-4.27,12.13-5.51,18.39Z"/>
  <g>
    <path class="cls-7" d="M407.63,391.88c-4.45,20.94-5.49,42.48-4.01,63.78l.5,6.39.74,6.36c.15,1.6.59,4.76.86,6.35.54,3.65,1.45,9.09,2.23,12.62l.64,3.14c1.26,4.75.77,10.1-2.23,14.12-3.93,5.3-10.66,7.19-17.53,7.56.47-.37.97-.74,1.5-1.11,26.11-18.18-13.01-27.78,1.8-97.43,14.81-69.65,1.7-65.32-6.98-85.24-6.39-14.66-2.4-37.43-4.16-48.23,1.57,4,2.99,7.85,4.31,11.33,7.26,17.72,15.67,34.92,23.8,52.24,1.82,3.8,3.66,7.46,4.57,11.55,1.4,5.98,1.23,12.3-.53,18.18-2.19,5.99-4.27,12.13-5.51,18.39Z"/>
    <path class="cls-7" d="M334.29,234.71s-.02,0-.03,0c-67.24,32.76-18.55,68.85-49.19,60.78-21.34-5.62-16.42-37.39-11.47-56.16s7.66-37,7.99-55.88c.88-49.31-11.77-74.26-11.77-74.26l-.39-1.08c.18.04.35.06.53.09,3.38.49,6.77.41,10.09-.14,18.77,24.61,23.51,58.82,17.77,88.62-1.74,9.8-5.04,20.57-8.33,29.31-2.44,4.8-4.45,9.68-6.16,14.73-4.83,14.69-8.27,32.31.21,46.31-4.03-7.7-4.46-16.46-3.34-24.92,13.15-10.17,35.18-25.26,54.09-27.4Z"/>
    <path class="cls-7" d="M257.15,166.97c-7.97,13.28-24.09,18.74-39,17.96-12.05-.42-23.76-3.41-35.29-6.92-6.57-8.32-6.39-17.58-1.07-23.93-8.91,4.03-7.94,15.65-2.46,22.22.3.33.57.63.8.89-2.16-.67-4.31-1.35-6.45-2.02-7.36-2.05-15.71-6.26-23.13-2.08-10.46,6.31-12.45,19.52-19.37,28.6-3.86,4.92-10.34,8.32-16.78,8.76.68-.33,1.42-.75,2.19-1.29,3.32-2.31,7.06-6.69,8.14-14.87,2.04-15.57,13.02-23.23,31.66-29.61,18.64-6.38,34.72-31.66,31.15-10.73-3.58,20.94,19.91,17.88,43.4,9.19,23.2-8.57,20.76-38.96,20.69-39.72h0s.9-.54.9-.54c3.01,2.71,5.53,6.46,7.35,11.44,3.96,10.55,3.27,23.04-2.73,32.65Z"/>
    <path class="cls-7" d="M243.55,178.52l-1.26,3.18s-1.7,1.57-5.15,3.62c-35.31,20.97-27.56,61.74-67.5,84.38-2.48,1.4,10.44-21.06,9.12-18.5-4.22,8.21-7.15,11.34-9.12,11.05.82-1.96,1.68-3.87,2.51-5.73,1.01-2.25,2.05-4.57,3-6.85,3.28-7.78,6.51-15.52,9.55-23.24,5.38-13.63,10.2-27.23,13.81-41.07-4.96-1.06-9.82-2.36-14.59-3.72l2.71-3.54c9.91,2.9,20.51,5.44,31.55,5.83,7.96.42,17.36-1.02,25.37-5.41Z"/>
    <path class="cls-7" d="M282.17,437.27h-.04c-1.61-2.58-3.28-5.14-4.99-7.68-3.81-5.18-7.46-10.98-13.01-14.44,4.19,2.9,7.16,7.15,10,11.38-2.69.05-7.48.06-10.05,0h-.24c-.59-.02-1.18-.04-1.78-.07-6.47-.29-13.16-.89-19.45-2.13-4.95-.89-9.88-2.21-14.63-3.99t-.02,0h-.01c-11.73-4.38-22.39-11.56-29.7-21.86-11.49-15.99-15.19-36.25-14.85-56.18,2.95,8.95,20.21,56.78,53.54,63.43,7.32,1.46,14.86.08,21.52-3.29,3.46-1.75,8.06-2.75,10.72,2.13,4.71,8.64,15.64,21.09,12.99,32.7Z"/>
    <path class="cls-7" d="M356.03,413.57c-.28-.4-.55-.81-.82-1.23-5.93-9.17-8.93-20.17-8.01-31.17.49-6.83,2.05-13.66,4.93-19.9-1.54,3.08-2.7,6.35-3.61,9.68-4.08,14.4-2,29.49,5.65,41.9.16.26.32.53.5.79-9.87,11.22-23.06,13.62-37.42,11.96.06-5.11.25-10.22.5-15.31-2.12,21.02-2.37,42.56,1.75,63.35.89,4.67,2.33,9.75,3.99,14.24,4.05,11.76,15.1,34.15,7.92,45.36-3.91,5.46-10.65,7.1-17.34,8,4.11-13.81,9.41-41.31-3.16-66.46-11.59-23.21-14.7-51.64-15.47-68.44-.4-8.87,8-15.51,16.53-13.05,5.71,1.65,11.59,4.89,15.29,11.11,1.7,2.85,4.77,4.73,8.07,4.42,3.02-.29,5.62-2.29,3.95-9.14-3.33-13.72-5.83-39.93,10.4-46.4,16.23-6.47,8.74,9.7-3.09,37.87"/>
  </g>
  <path class="cls-8" d="M252.66,55.09c-.14-.11-.3-.2-.44-.31.49.37.99.75,1.47,1.14-.34-.29-.68-.56-1.03-.83Z"/>
  <path class="cls-8" d="M497.28,339.88c-11.35-8.33-36.63-13.26-52.01-2.37-13.5,9.57-31.2,2.02-34.96.22-.71-1.48-1.41-2.96-2.11-4.43-6.7-14.02-13.61-28.53-19.8-43.01l-1.21-3.1c-7.67-19.72-18.19-46.73-38.79-53.82-21.06-6.55-50.12,12.91-66.82,26.3.16-.95.34-1.94.56-2.98,2.05-9.62,5.64-19.38,10.7-29.1,3.96-9.76,6.95-19.91,8.9-30.17,6.33-33.11-1.24-66.9-19.77-88.7,7.22-1.56,14.45-5.34,20.51-10.75,3.69-3.23,9.48-9.88,7.72-14.27-.96-2.39-3.86-3.49-8.68-3.29-2.4.22-4.82.61-7.16.99-5.22.85-10.16,1.65-15.19.65-8-1.27-10.96-7.3-14.38-14.28-3.19-6.43-6.76-11.09-10.92-14.27-22.22-16.63-62.46-4.28-89.08,3.9-2.51.77-4.89,1.5-7.2,2.19-7.58,2.81-11.05,9.78-14.42,16.52-1.96,3.95-4,8.03-6.8,11.06-5.04,5.26-11.78,8.95-18.3,12.16-7.07,3.36-14.17,5.95-21.1,7.67-1.32.32-2.69.62-4.06.88-.56.1-1.12.19-1.68.27-1.86.28-3.79.57-5.76,1.33-11.8,4.5-19.08,20.37-19.3,33.19.17,2.65,1.25,5.06,2.28,7.39.24.54.48,1.07.71,1.62,1.69,3.8,3.75,7.73,5.73,11.54.71,1.35,1.4,2.68,2.1,4.04.15.26.29.53.43.82.39.78.84,1.67,1.59,2.29,1.45,1.28,3.67,1.5,5.36.57,2.62-1.28,7.51-2.99,10.84-.19,2.9,2.78-.65,10.03-2.16,13.13l-.98,1.78c-1.39,2.23-1.71,5.07-.93,7.94.34,1.82.89,3.74,1.67,5.87,3.07,8.73,10.8,14.64,19.22,14.71.97.02,1.94-.02,2.9-.11,7.56-.65,14.54-4.34,19.13-10.19,2.72-3.67,4.68-7.73,6.58-11.65,1.41-2.89,2.86-5.89,4.58-8.65,7.12-11.58,13.49-9.6,25.03-6.02.8.25,1.62.5,2.46.76l2.69.8c2.81.84,5.65,1.69,8.52,2.52,4.77,1.36,9.63,2.66,14.59,3.72-3.61,13.84-8.43,27.44-13.81,41.07-3.04,7.72-6.27,15.46-9.55,23.24-.95,2.28-1.99,4.6-3,6.85-.83,1.86-1.69,3.77-2.51,5.73-.21.49-.42.98-.62,1.48-4.58,14.51-.5,32.16,11.2,48.45.29.38,1.15,1.44,2,2.52.83,1.02,1.65,2.06,1.98,2.48.12.16.25.31.38.47-5.62,22.44-5.46,44.34.49,63.37,6.81,21.46,21.97,36.4,43.83,43.21.08.03.17.06.26.09,10.07,3.1,21.4,4.48,33.65,4.1.62-.02,1.23-.05,1.93-.08,2.96-.14,5.96-.38,8.92-.72.66,1.01,1.33,2,1.98,2.94,3,4.71,5.97,9.9,9.63,16.83,10.31,18.83,16.53,35.27,13.37,54.33-.94,5.78-2.81,11.65-5.7,17.94-.38.84-.93,1.97-1.55,3.24-1.73,3.57-3.89,8.01-4.52,10.43-1.21,3.93-.9,7.06.93,9.3,2.52,3.1,7.52,3.9,12.42,3.9,2.09,0,4.15-.14,6-.32,13.17-1.36,31.2-3.24,31.41-21.42-.08-9.67-3.5-18.72-6.81-27.47l-.6-1.59c-.48-1.19-.97-2.39-1.46-3.59-1.93-4.72-3.93-9.6-5.19-14.48-3.79-14.66-5.49-30.73-5.34-50.44,12.52,4.74,29.37-2.09,36.54-11.62,1.62,2.36,3.45,4.62,5.48,6.74.51.51,1.36,1.37,2.26,2.28l2.24,2.26c.37.38.69.71.91.93.56.61,1.12,1.23,1.66,1.87,3.92,4.62,6.91,9.64,8.9,14.92,5.42,14.37,4.03,32.06-3.85,48.58-.75,1.71-1.67,3.17-2.64,4.72-.83,1.32-1.7,2.69-2.47,4.26-1.62,3.3-1.49,8.26,1.9,10.91.51.45,1.03.77,1.66,1.1l.46.14c10.43,1.93,22.48,3.13,32.75-2.58,6.23-3.73,9.78-11.23,8.82-18.7-.36-2.24-.83-4.55-1.28-6.78-.39-1.92-.8-3.9-1.12-5.8-.21-1.3-.53-3.41-.83-5.42l-.61-3.92c-.08-.79-.27-2.42-.46-4.13-.24-2.11-.5-4.36-.59-5.27l-.46-6.31c-1.43-22.16-.11-43.26,3.92-62.71,1.03-4.78,2.05-8.6,3.18-11.99,1.55-3.98,3.1-8.25,3.53-12.76,1-7.79-.74-16.1-5.18-24.74,7.33,2.71,21.04,5.96,32.96-1.32,18.89,12.8,31.07,17.01,39.17,17.01,7.59,0,11.6-3.7,14.21-7.47,2.58-3.75,1.7-8.82-2.01-11.54ZM252.66,55.09c.35.27.69.54,1.03.83-.48-.39-.98-.77-1.47-1.14.14.11.3.2.44.31ZM412.19,373.17c-2.13,5.82-4.27,12.09-5.54,18.5-4.24,19.96-5.59,41.51-4.03,64.07l.51,6.43.73,6.33c.16,1.63.6,4.79.87,6.41.57,3.82,1.48,9.23,2.24,12.67l.65,3.2c1.29,4.85.52,9.8-2.06,13.26-7.52,10.13-26.48,7.03-32.97,5.93-2.19-1.29-2.21-3.98-1.28-5.98.59-1.22,1.35-2.47,2.16-3.79,1.03-1.69,2.09-3.43,2.83-5.19,9.98-21.28,9.41-44.75-1.47-61.26-1.85-2.81-4.02-5.54-6.68-8.38-.63-.62-1.76-1.72-2.87-2.81l-.87-.84c-.72-.7-1.37-1.33-1.77-1.72-2.14-2.16-4.09-4.52-5.79-7-.27-.39-.54-.79-.8-1.2-5.94-9.19-8.73-20.04-7.85-30.56.51-7.12,2.14-13.7,4.84-19.55l-1.8-.87c-1.46,2.92-2.67,6.15-3.68,9.86-4.05,14.28-2.08,29.57,5.37,42.06-8.52,9.34-19.88,13.16-34.67,11.64.08-5.21.29-10.01.49-14.04l-2-.15c-2.46,24.41-1.88,45.23,1.77,63.64.88,4.64,2.32,9.76,4.02,14.37.71,2.05,1.63,4.43,2.6,6.94,4.69,12.12,11.1,28.71,5.46,37.52-4.48,6.25-13.17,7.23-20.84,8.1-1.39.16-2.75.31-4,.48-8.1.77-12.71.17-14.1-1.82-1.64-2.35.74-7.35,3.76-13.67.62-1.3,1.27-2.67,1.93-4.1,2.95-6.62,4.93-13.08,5.87-19.19,1.27-7.74.91-16.17-1.08-25.08-1.22-4.79-2.83-9.56-4.79-14.2-5.43-11.67-11.95-23.16-19.4-34.19-.55-.75-1.1-1.51-1.65-2.27-3.31-4.61-6.73-9.36-11.64-12.43l-1.1,1.67c3.48,2.41,6.07,5.75,8.7,9.59-2.61.02-6.07.02-8.18-.02h-.21c-.58-.02-1.17-.04-1.77-.07-7.48-.33-13.79-1.03-19.31-2.11-4.96-.9-9.77-2.2-14.29-3.89l-.15-.13h-.22c-12.36-4.65-22.41-12.06-29.07-21.44-16.67-23.19-16.23-54.92-12.67-78.19.78.83,1.6,1.68,2.4,2.52.84.87,1.66,1.71,2.43,2.54,2.13,2,4.35,3.96,6.5,5.85l1.07.94,1.36-1.46c-16.2-16.04-33.9-40.37-26.26-65.19,2.01-4.49,3.96-8.89,5.79-13.32,1.1-2.66,2.18-5.29,3.24-7.89,2.41-5.9,4.69-11.68,6.81-17.42,4.95-13.41,8.97-26.55,11.38-40.28,10.13,2.03,23.37,3.58,36.03-.67,4.94-1.65,9.79-4.18,14.33-7.92,7.34-5.98,12.04-15.28,12.91-25.53.9-10.63-2.32-21-8.84-28.48-.46-.51-.93-.99-1.41-1.45-11.44-10.78-29.88-6.21-42.59,1.28l.99,1.73c12.05-6.67,23.93-8.64,32.6-5.41,2.42.9,4.58,2.19,6.5,3.87h0c3.12,2.74,5.57,6.5,7.31,11.26,3.99,10.61,2.97,22.78-2.65,31.79-3.22,5.37-7.7,9.3-12.74,12.06-8.01,4.39-17.41,5.83-25.37,5.41-11.04-.39-21.64-2.93-31.55-5.83-1.07-.31-2.13-.63-3.18-.95-5.82-7.56-6.17-16.12-.89-22.43l2.81-3.36-3.99,1.81c-3.61,1.63-5.98,4.53-6.86,8.38-1.01,4.39.08,9.57,2.8,13.72-.37-.12-.73-.24-1.1-.35l-2.27-.71c-1.34-.38-2.7-.82-4.14-1.29-6.24-2.02-13.32-4.32-19.78-.69-6.84,4.13-10.19,11.09-13.42,17.82-1.83,3.81-3.73,7.76-6.22,11.02-3.22,4.11-8.41,7.13-13.8,8.09-.44.09-.89.16-1.34.21-3.31.38-8.12.13-12.27-3.2-4.1-3.37-6.82-9.14-7.48-15.84.04-.61.2-1.23.44-1.73l1.36-2.49c1.14-2.21,2.56-5.18,3.36-8.54,1.2-4.67.23-8.54-2.73-10.88-3.75-2.97-10.22-3.02-15.73-.14h-.02s-.03-.03-.04-.05l-.17-.32c-.46-.86-2.8-5.35-3.3-6.3-.66-1.38-1.35-2.75-2.05-4.12-1.55-3.06-3.14-6.19-4.33-9.41,2.78-2.36,10.38-8.4,16.78-9.42,8-1.27,16.76-12.42,4.59-12.93-8.78-.38-17.85,9.42-22.21,14.91,1.24-10.06,7.3-21.65,15.76-24.86,1.35-.54,3.06-.8,4.72-1.06,1.12-.17,2.27-.35,3.33-.61,12.47-2.77,24.3-7.63,35.15-14.42,9.79-5.82,13.13-12.28,17-19.75,1.3-2.52,2.65-5.12,4.32-7.88,1.04-1.59,2.11-2.87,3.3-3.92,1.25-1.13,2.63-1.95,4.09-2.45l10.91-3.41c8.36-2.61,15.34-4.58,21.96-6.2,17.91-4.1,47.89-10.97,63.43,5.96,2.65,2.85,4.53,6.46,6.35,9.95,3.57,6.85,7.27,13.93,16.76,15.32,5.61,1.09,11.16.11,16.54-.84,2.22-.39,4.51-.8,6.7-1.03,3.06-.23,5,.22,5.46,1.26.91,2.06-2.71,7-6.74,10.8-8.89,8.19-20.23,12.29-30.34,10.99-3.7-.47-7.31-1.64-10.39-3.33-4.06-2.59-2.26-7.5-1.61-8.94l-.91-.41-.91-.42c-2.25,4.86-1.42,9.21,2.27,11.67,3.42,1.97,7.19,3.27,11.22,3.86,3.18.46,6.47.44,9.79-.05,16.98,22.6,23.42,55.2,17.23,87.37-2.08,11.71-6.07,23.22-8.27,29.08-2.37,4.67-4.4,9.52-6.19,14.82-4.27,12.97-8.88,31.98.3,47.14l1.75-.98c-3.42-6.54-4.5-14.36-3.29-23.92,19.8-15.28,47.23-32.05,66.14-25.93,18.88,6.77,28.68,32.81,35.83,51.83.43,1.14.85,2.25,1.26,3.35,5.87,14.31,12.58,28.5,19.08,42.23,1.58,3.35,3.17,6.7,4.75,10.06l.39.82c1.69,3.51,3.28,6.83,4.11,10.53,1.36,5.84,1.19,11.94-.51,17.63ZM496,349.14c-2.79,4.04-10.1,14.62-46.44-9.63,13.89-8.01,35.69-3.5,45.36,3.59,1.95,1.43,2.43,4.09,1.08,6.04Z"/>
  <path class="cls-5" d="M496,349.14c-2.79,4.04-10.1,14.62-46.44-9.63,13.89-8.01,35.69-3.5,45.36,3.59,1.95,1.43,2.43,4.09,1.08,6.04Z"/>
  <circle class="cls-6" cx="210.61" cy="146.98" r="20.45"/>
  <path class="cls-4" d="M227.01,243.5c-5.87,11.51-15.76,35.38-12.91,61.31.73,6.66-6.64,11.23-12.3,7.64-3.34-2.12-7-5.72-10.66-11.7-11.58-18.89-10.34-44.88,31.9-61.58,2.7-1.07,5.28,1.75,3.96,4.33Z"/>
  <path class="cls-4" d="M316.11,275.32c-4.39-1.24-6.5-6.24-4.46-10.32,3.07-6.14,10.92-14.86,30.86-16.33,31.28-2.3,4.98,30.77-19.79,27.7,0,0-3.28-.12-6.61-1.06Z"/>
  <path class="cls-4" d="M367.39,376.38c-1.31,4.57-4.14,17.51,2.55,26.63,1.15,1.56,1.12,3.77-.17,5.22-.8.9-2.02,1.44-3.89.75-4.67-1.71-15.93-14.95-9.52-34.58.26-.8.73-1.51,1.38-2.05,1.85-1.53,5.92-4.01,9.07.42.74,1.04.92,2.38.57,3.61Z"/>
  <path class="cls-4" d="M277.46,392.16c.55.31,1.03.75,1.41,1.25,2.46,3.2,16.48,7.64,11.48,29.4-3,13.08-10.53-21.78-20.26-26.08-3.5-1.55,3.86-6.46,7.23-4.64.04.02.09.05.14.07Z"/>
  <path class="cls-4" d="M211.44,351.62c-6.51-.3-11.35,5.91-9.73,12.22,2.47,9.64,8.53,25.58,21.15,22.58,17.89-4.25,2.68-30.31-2.01-32.66-2.02-1.01-5.7-1.98-9.41-2.15Z"/>
  <path class="cls-1" d="M162.65,81.75c-.15-.36.09-.76.47-.78,4.22-.25,29.07-.6,35.13,24.73,6.64,27.7-11.62,34.6-22.85,24.89-11.23-9.7-9.96-37.02-2.43-45.57,0,0-9.1-.42-10.33-3.27Z"/>
  <ellipse class="cls-4" cx="174.17" cy="96.08" rx="2.47" ry="4.43"/>
  <path class="cls-4" d="M226,64.32c-1.47-4.95-6.32-8.11-11.45-7.53-14.95,1.7-45.32,6.03-56.8,14.1-15.22,10.7,39.88-.61,61.19,13.03,1.37.88,3.06,1.19,4.63.79,3.29-.84,7.05-4.81,2.43-20.4Z"/>
  <path class="cls-4" d="M133.82,98.77c2.71-2.03,6.5-2.24,9.2-.19,2.38,1.81,3.49,4.75-1.62,9.26-9.02,7.96-33.15,7.7-45.48,9.87-1.87.33-2.8-2.21-1.14-3.13,2.66-1.47,7.36-3.24,15.6-5.17,6.93-1.62,13.58-4.26,19.61-8.04,1.32-.83,2.62-1.7,3.82-2.6Z"/>
</svg>