<svg id="Layer_1" data-name="Layer 1" xmlns="http://www.w3.org/2000/svg" viewBox="0 0 566.93 566.93"><defs><style>.cls-1{fill:#ffd79a;}.cls-1,.cls-11,.cls-13,.cls-6,.cls-8{stroke:#231f20;stroke-miterlimit:10;}.cls-1,.cls-11,.cls-6,.cls-8{stroke-width:3px;}.cls-2{fill:#fbb36c;}.cls-3{fill:#231f20;}.cls-4{fill:#f5eb22;}.cls-5{fill:#fec714;}.cls-6{fill:#6abd46;}.cls-7{fill:#f6a4b2;}.cls-8{fill:#eb1e30;}.cls-9{fill:#faf4a2;}.cls-10{fill:#f05656;}.cls-11{fill:#f8e700;}.cls-12{fill:#faf6ba;}.cls-13,.cls-15{fill:#fff;}.cls-13{stroke-width:2px;}.cls-14{fill:#ddd;}</style></defs><path class="cls-1" d="M356.53,226.09c6.62,22.51-15.23-19.56-15.23-19.56s18.34-18.35,10.22-42.81A18.43,18.43,0,0,1,356,144.39a11.17,11.17,0,0,1,6.27-3.17c4.25-.5,9.45,2,15.59,10.34,11,15.06-15.53,40.95-21.09,62.2A22.86,22.86,0,0,0,356.53,226.09Z"/><path class="cls-1" d="M262.86,189.2S265.11,156,241,150.57a10.89,10.89,0,0,1-8.48-11.2c.29-4.43,3.41-8.86,13.92-10.13A26.33,26.33,0,0,1,275,148.36c2.43,8.73,3.48,21.16.62,38.58C275.63,186.94,269.5,193.79,262.86,189.2Z"/><path class="cls-1" d="M520,407.8c-1,3.57-41.39,10.95-68.15,5.84-8.95-1.71-16.37-4.82-20.29-9.93C415.93,383.31,445.18,369,445.18,369A98.82,98.82,0,0,1,474.77,379a80.39,80.39,0,0,1,9.23,5.66,174.26,174.26,0,0,0,26.83,15.9C516.14,403,520.59,405.77,520,407.8Z"/><path class="cls-2" d="M475,380.76c-5.71,10.39-29,14-18.09,32.26-8.95-1.71-18.35-2.95-22.94-8.46-17.09-20.53,11.57-34,11.57-34A103.85,103.85,0,0,1,475,380.76Z"/><path class="cls-3" d="M470.36,258.51c-30-40.39-63.71-46.33-86.74-44.19a102.35,102.35,0,0,0-39.4,12.19,86.81,86.81,0,0,1-8.58,4.14A213.91,213.91,0,0,0,301,249c-26.52,17.59-41.47,38-43.23,58.92-2.95,35,29.42,71.77,96.2,109.34l.34.19h.39c21.54.08,55.14,1,59.4,3.12a18.53,18.53,0,0,0,7.68,1.24c6.8,0,15.59-1.72,20.74-4.12,3.14-1.46,5-3.16,5.57-5.05a1.59,1.59,0,0,0,.06-.43l0-21.91a1.47,1.47,0,0,1,.63-1.21A105.78,105.78,0,0,0,481,352.88C492.22,331.54,499.53,297.84,470.36,258.51Zm7.93,93c-15.35,29.08-44.67,46.89-58.09,46.34-18.24-.71-40.48-5.14-42.87-22.15A16,16,0,0,1,386.17,359c7.39-3.61,15.28-3.33,23.45.84a13.17,13.17,0,0,1,7.26,9.71,7.17,7.17,0,0,1-1.39,5.83c-1.94,2.29-5.74,3.62-11.33,3.95a1.5,1.5,0,0,0-1.39,1.5v0a1.51,1.51,0,0,0,1.61,1.45c6.42-.39,10.92-2.08,13.4-5a10,10,0,0,0,2.07-8.18,16.17,16.17,0,0,0-8.87-12c-11.27-5.76-20.43-3.65-26.13-.86a19,19,0,0,0-10.49,19.73c2.12,15.1,17.92,23.65,45.72,24.74,5.66.2,13.93-2.56,22.84-7.89a1.5,1.5,0,0,1,2.27,1.29v17.3a1.53,1.53,0,0,1-.23.81,8.74,8.74,0,0,1-3.71,2.65c-7.75,3.61-22,4.82-25.8,2.91-6-3-51.66-3.38-60-3.43a1.53,1.53,0,0,1-.73-.19c-65.2-36.81-96.83-72.5-94-106.09,4.09-48.56,80.23-76.45,81-76.73l.33-.16a99,99,0,0,1,41.93-14c32.35-2.95,60.59,11.52,83.94,43C496.19,298.37,489.16,330.9,478.29,351.48Z"/><path class="cls-4" d="M478.29,351.48c-15.35,29.08-44.67,46.89-58.09,46.34-18.24-.71-40.48-5.14-42.87-22.15A16,16,0,0,1,386.17,359c7.39-3.61,15.28-3.33,23.45.84a13.17,13.17,0,0,1,7.26,9.71,7.17,7.17,0,0,1-1.39,5.83c-1.94,2.29-5.74,3.62-11.33,3.95a1.5,1.5,0,0,0-1.39,1.5v0a1.51,1.51,0,0,0,1.61,1.45c6.42-.39,10.92-2.08,13.4-5a10,10,0,0,0,2.07-8.18,16.17,16.17,0,0,0-8.87-12c-11.27-5.76-20.43-3.65-26.13-.86a19,19,0,0,0-10.49,19.73c2.12,15.1,17.92,23.65,45.72,24.74,5.66.2,13.93-2.56,22.84-7.89a1.5,1.5,0,0,1,2.27,1.29v17.3a1.53,1.53,0,0,1-.23.81,8.74,8.74,0,0,1-3.71,2.65c-7.75,3.61-22,4.82-25.8,2.91-6-3-51.66-3.38-60-3.43a1.53,1.53,0,0,1-.73-.19c-65.2-36.81-96.83-72.5-94-106.09,4.09-48.56,80.23-76.45,81-76.73l.33-.16a99,99,0,0,1,41.93-14c32.35-2.95,60.59,11.52,83.94,43C496.19,298.37,489.16,330.9,478.29,351.48Z"/><path class="cls-5" d="M354.8,230.26s46.32,11,32,65.59-61.73,58.1-84.2,32.57S354.8,230.26,354.8,230.26Z"/><path class="cls-1" d="M330.21,339.09s41.5,34.69,30.62,66c-3.58,10.3-14.17,13.38-26.95,12.75-26.05-1.28-61.24-17.95-64.89-20.23l-91.84-42.86s90.48-12.24,40.14-49.66c-21.71-16.13-27.73-34.68-27.56-50.55.23-20.36,11.2-39,28.35-50,24.61-15.77,67.72-30.14,117.86-2.13q4.21,2.35,8.2,5.05a105.46,105.46,0,0,1,32.4,34.28C415.87,309.3,330.21,339.09,330.21,339.09Z"/><path class="cls-2" d="M328.21,338.31a.53.53,0,0,0-.17.91c5.54,4.76,41.38,37,31.33,65.89-3.49,10-14.23,11.62-26.6,11.11a.54.54,0,0,1-.43-.86,12.83,12.83,0,0,1,1.46-1.62c17-16.22-5.69-58.92-14.4-73.71a5.92,5.92,0,0,1,2.08-8.09c52.09-30.89,47.25-69.15,34.77-94.58-4.52-9.19-1.58-16-.44-18a.54.54,0,0,1,.84-.13,103.54,103.54,0,0,1,17.47,21.28C413.83,304.44,337.33,335,328.21,338.31Z"/><path class="cls-6" d="M230.18,399.62l22.47-39.83,27.06,15.32s20.94,4.6,29.62,24.51,17.87,17.87,17.87,17.87S251.12,448.64,230.18,399.62Z"/><path class="cls-6" d="M156.14,376.09c1.53.51-36.26,9.19-56.68,61.79,0,0,6.64-5.62,41.36-3.07s40.85-20.93,50.55-50.55S156.14,376.09,156.14,376.09Z"/><path class="cls-6" d="M129.58,371.49a28.74,28.74,0,0,1-5.52,7c-14.54,13.45-40.91,10.34-51.27.33a16.37,16.37,0,0,1-1.93-2.19,37.31,37.31,0,0,0-24-14.81c30.13-31.66,60.25-22.47,60.25-22.47S142.35,349,129.58,371.49Z"/><path class="cls-3" d="M112.86,356.86c-7.73-2.2-16.66-1.89-23.75,2.22L87,360.52a29.39,29.39,0,0,1,2.73-2.16,30.3,30.3,0,0,1,16.74-4.95,35.48,35.48,0,0,1,7.21.55l-.77,2.9Z"/><path class="cls-3" d="M150.78,404.43c6.87-7.93,17.87-19.8,28.82-20.9l.06,3c-10.13.3-21.83,11-28.88,17.9Z"/><path class="cls-3" d="M282.78,394.73c-7.95-8-19.53-11.52-30.6-10.76l-.08-3c11.49.22,23.21,4.85,30.68,13.76Z"/><path class="cls-3" d="M353.48,290.58a1.41,1.41,0,0,1-.63.14,1.51,1.51,0,0,1-1.36-.86,11.72,11.72,0,0,0-3-3.62C334,302,315.17,310,293.15,310A106,106,0,0,1,268.47,307,156.36,156.36,0,0,1,224,288.23a1.5,1.5,0,0,1,1.65-2.5,153.69,153.69,0,0,0,43.61,18.34c31.85,7.58,57.63,1,76.67-19.5a17.59,17.59,0,0,0-5.78-1.78,1.5,1.5,0,0,1,.4-3c10.15,1.37,13.54,8.47,13.68,8.77A1.51,1.51,0,0,1,353.48,290.58Z"/><ellipse class="cls-7" cx="343.99" cy="267.13" rx="14.14" ry="11.55"/><ellipse class="cls-7" cx="219.32" cy="251.46" rx="14.14" ry="11.55"/><path class="cls-8" d="M198.17,304.6s-5.91-46-46.79-34.72-36,50.55,21,51.57S198.17,304.6,198.17,304.6Z"/><path class="cls-8" d="M234.78,322.47s49-19.4,66.38,8.17-28.59,59.24-45.45,51.07S215.37,345.45,234.78,322.47Z"/><path class="cls-8" d="M203.12,312.77s-33.72-31.69-2-45.64c29.69-13.08,81.19,6.32,70.46,39.51S203.12,312.77,203.12,312.77Z"/><path class="cls-8" d="M195.46,346s-43.4,51.58,0,62.81,68.42-15.83,54.13-37.79-36.77-43.4-36.77-43.4Z"/><path class="cls-8" d="M197,343.92s-17.87,65.36-62,36.41c-2.2-1.44-4.33-3-6.55-4.38-10.31-6.53-37.05-26.92-13.14-50.41C144.4,296.94,195.46,330.13,197,343.92Z"/><path class="cls-9" d="M394.66,229.59a4.59,4.59,0,0,1,2.41-8.68,51.31,51.31,0,0,1,11.84,2.5c21.7,6.89,76.08,44.42,60.25,63.57C454.32,304.94,437.86,251.29,394.66,229.59Z"/><path class="cls-9" d="M391.2,366.27a7,7,0,0,1,2.18-1.76,4.25,4.25,0,0,0,2-3.59c.35-3.83-11.5-1.74-11.67,4C383.57,370.13,388.17,370.15,391.2,366.27Z"/><path class="cls-9" d="M373.6,361.57a25.84,25.84,0,0,1,8.39-9.45c3.55-2.26,1.14-7.14-2.55-5.12-2.17,1.19-4.91,3.47-8,7.71-5,6.79-5.26,9.24-3,10C370.45,365.41,372.57,363.49,373.6,361.57Z"/><path class="cls-10" d="M173.8,357.74s-27.92-1-19.41,15.32S178.22,370.68,173.8,357.74Z"/><path class="cls-10" d="M235.87,372.68s20.08,8.26,6.46,21.54S226.68,374.29,235.87,372.68Z"/><path class="cls-10" d="M213,298.76s15-22.52,6-26.41-17.87,3.6-17.87,5.3S203.1,290.59,213,298.76Z"/><ellipse class="cls-11" cx="204.83" cy="325.5" rx="19.99" ry="34.88" transform="translate(-154.71 462.02) rotate(-78.61)"/><path class="cls-12" d="M198.09,315.15a7.21,7.21,0,0,0-7-5.31c-5,0-11,1.45-13.49,8.29-4.6,12.51,27.06,17.11,27.57,8.17C205.57,319.15,199.12,319.36,198.09,315.15Z"/><path class="cls-2" d="M355.2,214c-4.65-4.71,4.88-20.9,9.45-44.23,2.88-14.7-.13-22-3.45-26.74,3.3-1.13,8.78.54,15.09,8.77C387.81,166.76,360.76,192.7,355.2,214Z"/><path class="cls-13" d="M326.3,248c0-.09.06-.19.08-.28a28.46,28.46,0,0,0,1-6.17c.36-7.82-2.78-14.37-8.22-15.9-6.88-1.95-14.84,4.91-17.77,15.32,0,.13-.07.27-.1.4h0c-2.09,7.85-.7,15.41,3.12,19.39a9.14,9.14,0,0,0,4.15,2.55C315.42,265.27,323.38,258.41,326.3,248Z"/><path class="cls-14" d="M325.64,247.16c0-.09.05-.18.07-.27a35.15,35.15,0,0,0,.68-7c-1.17-1.21-1.24-1.51-2.83-1.95-6.88-1.95-14.84,4.91-17.77,15.32-.05.14-.07.27-.11.41h0a27.57,27.57,0,0,0-.95,6,9.21,9.21,0,0,0,4.15,2.61C315.76,264.21,322.72,257.56,325.64,247.16Z"/><ellipse cx="313.84" cy="244.49" rx="10.34" ry="6.85" transform="translate(-22.37 457.18) rotate(-70.24)"/><ellipse class="cls-15" cx="321.04" cy="242.41" rx="2.2" ry="2.53" transform="translate(-79.78 276.71) rotate(-41.95)"/><ellipse class="cls-15" cx="320.59" cy="238.19" rx="1.28" ry="1.47" transform="translate(-67.58 144.2) rotate(-23)"/><path class="cls-13" d="M272.86,235c0-.09.07-.19.09-.28a28.81,28.81,0,0,0,1.28-6.12c.74-7.79-2.09-14.48-7.44-16.27-6.79-2.28-15.06,4.19-18.5,14.45l-.12.4h0c-2.47,7.73-1.45,15.35,2.18,19.51a9.19,9.19,0,0,0,4,2.75C261.16,251.75,269.44,245.29,272.86,235Z"/><path class="cls-14" d="M272.15,233.88c0-.09.06-.18.08-.27a32.3,32.3,0,0,0,1.08-6.66c-1.1-1.26-1-1.48-2.6-2-6.78-2.28-15.06,4.19-18.49,14.45-.05.13-.08.26-.12.4h0a27.87,27.87,0,0,0-1.24,5.9,9.24,9.24,0,0,0,4,2.81C261.66,250.78,268.73,244.13,272.15,233.88Z"/><ellipse cx="260.87" cy="230.04" rx="10.34" ry="6.85" transform="translate(-51.53 382.94) rotate(-67.49)"/><ellipse class="cls-15" cx="268.36" cy="229.77" rx="2.2" ry="2.53" transform="matrix(0.99, -0.13, 0.13, 0.99, -27.98, 37.43)"/><ellipse class="cls-15" cx="268.29" cy="225.48" rx="1.28" ry="1.47" transform="translate(-39.89 58.61) rotate(-11.61)"/></svg>