<?xml version="1.0" encoding="UTF-8"?>
<svg id="Layer_1" data-name="Layer 1" xmlns="http://www.w3.org/2000/svg" xmlns:xlink="http://www.w3.org/1999/xlink" viewBox="0 0 566.93 566.93">
  <defs>
    <style>
      .cls-1 {
        fill: #c1c1c1;
      }

      .cls-1, .cls-2, .cls-3, .cls-4, .cls-5, .cls-6, .cls-7, .cls-8, .cls-9, .cls-10, .cls-11, .cls-12, .cls-13, .cls-14, .cls-15, .cls-16, .cls-17, .cls-18, .cls-19, .cls-20, .cls-21 {
        stroke-width: 0px;
      }

      .cls-2 {
        fill: #2e358f;
      }

      .cls-3 {
        fill: #b3a7c0;
      }

      .cls-4 {
        fill: #424645;
      }

      .cls-5 {
        fill: #2f3192;
      }

      .cls-6 {
        fill: #e2e1e1;
      }

      .cls-7 {
        fill: #2e3092;
      }

      .cls-22 {
        stroke: #2e3092;
        stroke-miterlimit: 10;
        stroke-width: 2px;
      }

      .cls-22, .cls-10 {
        fill: #fff;
      }

      .cls-8 {
        fill: #ac9cbf;
      }

      .cls-9 {
        fill: #e7e3ce;
      }

      .cls-11 {
        fill: #706f6f;
      }

      .cls-12 {
        fill: url(#radial-gradient-2);
      }

      .cls-13 {
        fill: #7dc8e6;
      }

      .cls-14 {
        fill: url(#radial-gradient);
      }

      .cls-15 {
        fill: #000009;
      }

      .cls-16 {
        fill: #bbd6e3;
      }

      .cls-17 {
        fill: #f6e888;
      }

      .cls-18 {
        fill: #00000a;
      }

      .cls-19 {
        fill: #dde0e2;
      }

      .cls-20 {
        fill: #636363;
      }

      .cls-21 {
        fill: #e8e3c9;
      }
    </style>
    <radialGradient id="radial-gradient" cx="323.62" cy="210.83" fx="323.62" fy="210.83" r="16.84" gradientUnits="userSpaceOnUse">
      <stop offset="0" stop-color="#e769a3"/>
      <stop offset="1" stop-color="#b3a7c0"/>
    </radialGradient>
    <radialGradient id="radial-gradient-2" cx="168.45" cy="196.89" fx="168.45" fy="196.89" r="16.84" gradientUnits="userSpaceOnUse">
      <stop offset="0" stop-color="#e769a3"/>
      <stop offset="1" stop-color="#c1c1c1"/>
    </radialGradient>
  </defs>
  <path class="cls-11" d="M384.05,375.13c0,7.28-1.82,14.22-6.36,20.22-1.67,2.21-4.42,3.38-7.2,3.03-6.99-.86-21.77-5.23-34.46-25.75-4.1-6.63-7.99-14.93-11.32-25.35.31-.25.61-.51.91-.77.34-.26.68-.55,1.01-.84.52-.44,1.04-.89,1.55-1.37.3-.24.59-.51.88-.78.47-.42.93-.85,1.39-1.3.28-.24.55-.5.82-.77.72-.69,1.42-1.39,2.12-2.1.34-.34.67-.69.99-1.03.41-.42.81-.85,1.2-1.27.32-.35.64-.7.96-1.05.54-.6,1.07-1.21,1.6-1.83.54-.63,1.08-1.26,1.6-1.91.03-.03.05-.07.08-.1.64-.78,1.27-1.58,1.88-2.38,3.68-4.8,7.04-9.51,11.14-15.7.32-.5.64-.99.95-1.48.01-.01.02-.01.02-.02l1.19-1.05c3.91,4.83,18.61,23.74,25.47,44.12,2.19,6.48,3.58,13.11,3.58,19.48Z"/>
  <path class="cls-11" d="M492.47,462.24c-7.6.56-35.54,2.73-58.2,5.72-2.87.38-5.65.77-8.3,1.18-.81.12-1.6.24-2.38.37-18.81,3.01-49.68-1.63-68.19-10.17.06-.24.11-.49.16-.74.08-.35.16-.71.22-1.07.09-.43.16-.87.23-1.31.07-.41.14-.82.19-1.24.05-.37.1-.74.14-1.12,0-.08.02-.17.03-.25.04-.36.07-.72.1-1.08.02-.16.03-.31.04-.47.03-.34.05-.69.07-1.04.01-.21.02-.41.03-.62.02-.32.03-.65.04-.98.03-.98.03-1.98,0-2.98-.02-.77-.05-1.53-.09-2.3-.03-.49-.05-.98-.08-1.47-.02-.27-.04-.54-.06-.81-.05-.76-.12-1.52-.19-2.27-.03-.38-.07-.76-.12-1.14-.04-.38-.09-.76-.13-1.13-.07-.6-.15-1.2-.23-1.8-.07-.56-.16-1.12-.25-1.69-.03-.23-.07-.45-.1-.67-.09-.58-.2-1.17-.31-1.76-.01-.12-.04-.23-.06-.35-.06-.35-.13-.71-.21-1.07-.01-.07-.02-.13-.04-.2-.05-.27-.1-.54-.15-.81,2.11-1.61,7-5.11,14.1-8.74,10.66-5.47,26.3-11.26,45.01-11.48,13.24-.16,28.02,2.47,43.64,9.98.23.11,23.23,11.73,35.09,43.51Z"/>
  <path class="cls-11" d="M426.88,537.83c-5.09,7.5-21.37,11.24-41.45,9.51-3.55-.31-7.22-.8-10.92-1.47-7.61-1.38-15.31-3.54-22.16-6.44-10.18-4.31-18.49-10.26-21.87-17.74-5.21-11.5-7.7-21.77-7.41-30.56.29-.09.58-.17.86-.27.19-.05.38-.11.56-.17.05-.02.11-.04.16-.05.39-.13.77-.26,1.15-.39.05-.02.1-.03.15-.05.3-.1.6-.21.9-.32.28-.1.56-.2.83-.31.37-.13.74-.28,1.1-.43.05-.02.09-.04.14-.06.23-.08.46-.18.68-.28.44-.18.88-.37,1.31-.57.01,0,.01-.01.02-.01.09-.04.18-.08.26-.12.5-.22,1-.46,1.49-.71.52-.25,1.04-.52,1.54-.8.27-.14.53-.29.79-.43.03-.02.07-.04.1-.06.97-.54,1.91-1.12,2.82-1.72.53-.35,1.06-.72,1.57-1.09.4-.28.79-.58,1.17-.88.14-.1.28-.21.41-.32.02,0,.03-.03.05-.04.45-.36.89-.72,1.32-1.1.39-.34.78-.68,1.15-1.04.12-.1.24-.22.36-.34.3-.28.59-.57.88-.87.16-.15.3-.3.43-.45.06-.06.13-.13.18-.19.24-.24.46-.48.68-.73.03-.04.06-.08.1-.12.1-.1.19-.2.27-.3.3-.35.6-.7.88-1.06.07-.08.13-.15.19-.22.08-.1.16-.21.24-.31.22-.28.44-.56.65-.85.08-.1.15-.2.22-.3,5.7,1.72,13.49,4.31,22.02,7.81,20.77,8.51,45.94,22.4,55.87,42.28,2.68,5.36,2.78,9.92.31,13.57Z"/>
  <path class="cls-1" d="M353.67,447.99c0,4.15-.49,8.11-1.47,11.8-1.13,4.29-2.93,8.26-5.36,11.78-5.52,8.06-14.14,13.77-25.62,16.97-20.55,5.72-49.27,2.86-83.05-8.24-1.64-.54-3.25-1.13-4.82-1.76-.59-.24-1.17-.48-1.75-.73l-.52-.22c-8.82-3.86-16.89-9.33-23.99-16.27l-.56-.55c-25.28-25.11-34.66-64.99-38.08-94.34l-.06-.53c-.39-3.37-.69-6.62-.94-9.69-.06-.77-.12-1.52-.17-2.26v-.02c-.05-.74-.1-1.46-.15-2.18v-.03c-.05-.72-.09-1.43-.13-2.13-.11-2.09-.2-4.07-.27-5.93v-.04c-.02-.6-.04-1.2-.06-1.78v-.04c-.01-.37-.02-.73-.03-1.08-.02-1.06-.04-2.08-.06-3.03v-.04c-.03-1.88-.03-3.54-.02-4.95.79.75,1.6,1.48,2.42,2.21.41.36.82.73,1.24,1.09.42.36.84.72,1.27,1.08.43.36.86.71,1.29,1.07,1.34,1.1,2.71,2.18,4.12,3.24.5.38,1.01.76,1.53,1.13.53.39,1.06.77,1.59,1.15.58.41,1.15.82,1.74,1.21.51.36,1.02.71,1.54,1.05,1.66,1.12,3.37,2.21,5.11,3.28,5.92,3.63,11.84,6.81,17.74,9.54,1.65.77,3.31,1.5,4.96,2.19.56.24,1.11.47,1.66.69.39.16.78.32,1.17.46,1.08.44,2.16.85,3.25,1.25,1.47.55,2.93,1.06,4.4,1.54,2.93.97,5.86,1.82,8.78,2.57.61.16,1.22.31,1.84.45.73.17,1.46.34,2.19.5.11.03.23.05.34.07.49.11.99.21,1.48.31.49.11.98.2,1.48.29.78.15,1.57.29,2.35.42.46.09.93.16,1.4.23,1.03.16,2.06.31,3.09.44.28.04.57.08.85.1,1.05.13,2.09.25,3.13.34,1.2.11,2.4.21,3.6.27,2.16.14,4.31.2,6.46.2.46,0,.93,0,1.39-.01,1.39-.01,2.78-.05,4.17-.13.64-.03,1.28-.07,1.91-.12,1.98-.14,3.94-.34,5.89-.6.57-.06,1.15-.14,1.71-.23.72-.1,1.43-.21,2.14-.33.52-.09,1.04-.18,1.56-.28.49-.08.97-.18,1.46-.28.41-.08.83-.16,1.24-.25,1.67-.35,3.33-.75,4.98-1.19.51-.13,1.03-.27,1.54-.42.4-.11.79-.22,1.18-.34.5-.14,1-.3,1.5-.45,5.23-1.63,10.34-3.67,15.28-6.12.55-.27,1.1-.55,1.64-.83.57-.29,1.13-.59,1.7-.9.56-.3,1.12-.61,1.68-.93.5-.28,1-.57,1.5-.86,1.2-.71,2.39-1.44,3.57-2.19,1.05-.67,2.08-1.36,3.11-2.08h.01c.52-.35,1.03-.71,1.54-1.08,4.05,10.9,9.1,21.09,13.98,30.96,7.56,15.27,14.69,29.7,18.21,46.11l.03.16c1.29,6,1.99,11.83,2.15,17.84,0,.49.02.98.02,1.47Z"/>
  <path class="cls-11" d="M245.11,506.61c-7.99,15.44-63.69,27.38-94.37,23.89-1.51-.17-2.96-.38-4.34-.63-5.71-1.03-12.62-3.2-13.17-7.74-4.87-40.13,53.11-54.5,72.32-58.12.27.26.55.52.83.78.47.44.94.87,1.42,1.3.33.29.66.59.99.87,2.3,2,4.68,3.86,7.15,5.57.82.58,1.66,1.14,2.5,1.68.97.62,1.96,1.23,2.96,1.82.04.02.09.05.13.07,1.08.63,2.17,1.24,3.28,1.81,1.21.63,2.43,1.23,3.67,1.79.29.14.59.28.89.41,2,3.97,6.33,9.25,12.9,15.7,3.76,3.7,4.69,7.23,2.84,10.8Z"/>
  <path class="cls-19" d="M367.31,268.41c0,11.49-5.29,25.62-15.82,42.23-.04.06-.08.12-.12.18-3.46,5.45-7.52,11.22-12.05,17.14-4.97,6.49-10.79,12.42-17.29,17.63-.27.22-.54.43-.8.64-.72.57-1.44,1.11-2.13,1.63-.69.51-1.43,1.05-2.21,1.59-.78.56-1.61,1.12-2.49,1.69-.44.29-.88.58-1.34.87-.46.3-.93.59-1.42.88-.48.3-.98.6-1.48.89-.45.27-.91.54-1.38.8-.38.22-.77.44-1.16.65-.43.24-.87.48-1.31.71-.53.28-1.06.56-1.61.84-.52.27-1.05.53-1.59.8-1.71.83-3.52,1.65-5.41,2.45-.01.01-.03.01-.04.02-.4.16-.8.33-1.21.49-.22.09-.43.18-.65.26-.64.25-1.29.5-1.95.75-.41.15-.84.31-1.27.47-.08.02-.15.05-.23.08-.22.08-.45.16-.68.23-.05.02-.1.04-.16.06-.22.08-.45.15-.68.23h0c-.46.16-.92.31-1.38.46-.06.02-.11.03-.18.05h0c-.53.18-1.05.34-1.59.5-.53.16-1.07.32-1.62.47-.54.16-1.09.31-1.65.45-.51.14-1.02.27-1.53.4-.05.01-.09.02-.14.03-.57.14-1.14.28-1.71.41-.53.12-1.07.24-1.61.35-.33.07-.67.14-1,.21-.66.14-1.34.26-2.01.38-.67.12-1.35.24-2.04.35-.45.07-.91.14-1.37.21h-.05c-.91.13-1.83.26-2.76.36-.48.06-.95.11-1.43.16-.52.05-1.04.1-1.56.15-.45.04-.9.07-1.34.1-.22.02-.43.03-.64.05-.21.02-.43.03-.64.04-.56.03-1.12.06-1.69.09-.91.04-1.84.07-2.77.08-.2.01-.41.01-.61.01h-.28c-.3.01-.6.01-.9.01-.51.01-1.01,0-1.53-.01-.29-.01-.58-.01-.87-.01-.11-.01-.21-.01-.31-.01s-.21-.01-.31-.01c-.53-.02-1.05-.03-1.59-.06-.13,0-.26,0-.39-.02-.38-.01-.77-.03-1.16-.06-.53-.03-1.05-.06-1.57-.1-.06,0-.12-.01-.18-.01-.92-.07-1.85-.15-2.78-.25-.08,0-.15,0-.23-.02-.53-.06-1.07-.12-1.61-.18-.65-.08-1.3-.16-1.96-.25-.18-.02-.36-.05-.55-.07-.27-.04-.53-.07-.8-.12-.12-.02-.25-.04-.37-.06-.62-.09-1.24-.19-1.86-.3-.22-.03-.44-.07-.66-.11-.41-.06-.82-.14-1.22-.21h0c-.11-.03-.22-.05-.33-.07-.73-.14-1.47-.29-2.21-.44-.13-.03-.25-.05-.38-.08-.35-.07-.71-.14-1.07-.23-.09-.02-.17-.04-.26-.06-.16-.04-.32-.07-.49-.11-.15-.04-.31-.07-.47-.11-.25-.05-.5-.11-.76-.18-.78-.18-1.56-.38-2.35-.58-.43-.12-.85-.23-1.28-.35-.43-.12-.86-.24-1.3-.36-.08-.02-.17-.05-.25-.07-.73-.21-1.47-.43-2.21-.66-.07-.02-.13-.04-.2-.06-.24-.07-.47-.14-.71-.22-.16-.05-.33-.11-.49-.16-.6-.18-1.2-.38-1.8-.58-.45-.15-.91-.31-1.36-.47-.44-.15-.89-.31-1.33-.47-.92-.33-1.85-.67-2.78-1.03-.3-.11-.61-.23-.92-.36-.25-.09-.51-.2-.77-.3-.67-.26-1.34-.53-2.02-.82-.62-.26-1.24-.52-1.87-.79-.65-.28-1.3-.56-1.95-.86-.76-.34-1.52-.69-2.29-1.05-1.12-.52-2.24-1.07-3.37-1.63-.11-.05-.22-.11-.33-.17-.43-.21-.86-.43-1.29-.65-.54-.28-1.08-.56-1.63-.85-.45-.23-.9-.47-1.35-.72-1.25-.67-2.51-1.36-3.77-2.09-.63-.35-1.26-.72-1.89-1.1-.97-.56-1.95-1.15-2.93-1.75-5.11-3.14-9.88-6.48-14.28-10-1.46-1.17-2.88-2.36-4.25-3.57-.42-.37-.83-.74-1.24-1.11-.82-.74-1.62-1.49-2.41-2.24-.4-.38-.79-.76-1.17-1.14l-.45-.44h0c-.86-.85-1.68-1.71-2.48-2.56-5.77-6.14-10.62-12.83-14.42-19.85-17.53-32.41-7.71-63.07-7.61-63.38l3.27-9.86-5.92,8.53c-1.62,2.33-4.62,2.29-6.1,2.11-1.47-9.24,10.31-27.81,16.35-36.1.23-.32.45-.62.66-.9.76.03,1.53.05,2.3.08.64,1.05,1.42,1.99,2.36,2.77,9.87,8.24,16.99,16.55,30.47,35.56,12.64,17.82,25.78,32.55,58.26,32.31,17.87-.14,38.39-14.16,54.74-27.01,3.87-3.04,7.51-6.02,10.83-8.73,8.54-6.98,15.29-12.5,19.37-13.85,4.01-1.32,8.45-2.29,12.75-3.23.34-.07.68-.15,1.03-.22.54.85,1.16,1.74,1.83,2.67,1.43,1.98,3.14,4.15,5.05,6.59,4.08,5.2,9.15,11.66,14.16,19.65,2.83,4.51,4.24,9.74,4.24,15.68Z"/>
  <path class="cls-11" d="M165.35,365.71c-3.1,4.89-6.96,11.13-11.48,18.55-6.22,10.21-12.4,15.6-17.89,15.6h-.07c-3.02-.03-5.39-1.7-6.92-3.23-1.14-1.13-1.82-2.18-1.96-2.42-11.19-24.8,1.48-54.09,12.42-72.41h0c3.01-5.02,5.87-9.22,8.09-12.27.08-.11.15-.21.23-.32.1.17.2.35.3.52.03.05.06.09.09.14.52.89,1.06,1.78,1.62,2.66.28.45.56.89.85,1.32.55.86,1.13,1.7,1.71,2.54.32.46.64.91.97,1.36.31.43.63.85.95,1.28.38.51.77,1.02,1.17,1.52.24.31.48.62.74.93.52.67,1.06,1.32,1.62,1.97.5.61,1.01,1.21,1.54,1.8.71.81,1.44,1.61,2.18,2.4.68.72,1.37,1.45,2.09,2.17v.12c0,.41-.02.87-.03,1.37-.03,2.59-.03,6.3.11,10.86.01.46.02.94.04,1.43.02.31.03.62.04.94.02.63.05,1.27.08,1.93.04.77.08,1.56.12,2.36,0,.31.03.62.05.94.09,1.66.21,3.39.34,5.18.06.76.11,1.52.18,2.29.11,1.3.22,2.63.35,3.99.07.66.13,1.32.2,1.99.09.82.18,1.65.27,2.49Z"/>
  <path class="cls-2" d="M257.49,424.73c-12.44-1.91-20.95-.72-26.03,3.64-3.92,3.36-5.82,8.56-5.82,15.9,0,10.59,10.74,23.61,34.32,27.15,3.55.53,6.95.79,10.17.79,10.02,0,18.36-2.54,24.03-7.43,4.7-4.04,7.18-9.42,7.18-15.53v-.04c-.02-15.92-25.04-21.6-43.85-24.48ZM292.86,463.27c-7.05,6.08-18.63,8.27-32.6,6.17-22.41-3.37-32.62-15.41-32.62-25.17,0-6.72,1.67-11.42,5.12-14.38,3.15-2.71,7.88-4.05,14.33-4.05,2.99,0,6.35.29,10.1.87,9.04,1.38,19.57,3.42,27.85,6.9,8.27,3.48,14.29,8.41,14.3,15.6,0,5.53-2.23,10.39-6.48,14.06Z"/>
  <path class="cls-10" d="M299.34,449.21c0,5.53-2.23,10.39-6.48,14.06-7.05,6.08-18.63,8.27-32.6,6.17-22.41-3.37-32.62-15.41-32.62-25.17,0-6.72,1.67-11.42,5.12-14.38,3.15-2.71,7.88-4.05,14.33-4.05,2.99,0,6.35.29,10.1.87,9.04,1.38,19.57,3.42,27.85,6.9,8.27,3.48,14.29,8.41,14.3,15.6Z"/>
  <path class="cls-18" d="M253.04,446.99c.07-.33-.35-.52-.54-.25-1.36,1.89-3.53,6.06.27,9.95,5.11,5.23,9.26-2.04,4.4-3.57-4.51-1.43-5.33-.86-4.13-6.13Z"/>
  <path class="cls-8" d="M353.67,447.99c0,4.15-.49,8.11-1.47,11.8-1.13,4.29-2.93,8.26-5.36,11.78-5.52,8.06-14.14,13.77-25.62,16.97-20.55,5.72-49.27,2.86-83.05-8.24-1.64-.54-3.25-1.13-4.82-1.76,45.84,6.47,91.36,4.96,91.36-38.18,0-31.24-86.79-66.9-105.46-74.15-2.09-.81-3.9-2.2-5.23-4l-.08-.11c1.08.44,2.16.85,3.25,1.25,1.47.55,2.93,1.06,4.4,1.54,2.93.97,5.86,1.82,8.78,2.57.61.16,1.22.31,1.84.45.73.17,1.46.34,2.19.5.11.03.23.05.34.07.49.11.99.21,1.48.31.49.11.98.2,1.48.29.78.15,1.57.29,2.35.42.46.09.93.16,1.4.23,1.03.16,2.06.31,3.09.44.28.04.57.08.85.1,1.05.13,2.09.25,3.13.34,1.2.11,2.4.21,3.6.27,2.16.14,4.31.2,6.46.2.46,0,.93,0,1.39-.01,1.39-.01,2.78-.05,4.17-.13.64-.03,1.28-.07,1.91-.12,1.98-.14,3.94-.34,5.89-.6.57-.06,1.15-.14,1.71-.23.72-.1,1.43-.21,2.14-.33.52-.09,1.04-.18,1.56-.28.49-.08.97-.18,1.46-.28.41-.08.83-.16,1.24-.25,1.67-.35,3.33-.75,4.98-1.19.51-.13,1.03-.27,1.54-.42.4-.11.79-.22,1.18-.34.5-.14,1-.3,1.5-.45,5.23-1.63,10.34-3.67,15.28-6.12.55-.27,1.1-.55,1.64-.83.57-.29,1.13-.59,1.7-.9.56-.3,1.12-.61,1.68-.93.5-.28,1-.57,1.5-.86,1.2-.71,2.39-1.44,3.57-2.19,1.05-.67,2.08-1.36,3.11-2.08h.01c.52-.35,1.03-.71,1.54-1.08,4.05,10.9,9.1,21.09,13.98,30.96,7.56,15.27,14.69,29.7,18.21,46.11l.03.16c1.29,6,1.99,11.83,2.15,17.84,0,.49.02.98.02,1.47Z"/>
  <path class="cls-17" d="M199.28,409.01c-1.72-7.38-7.28-32.53-7.13-49.21.04-4.43-3.46-8.25-7.89-8.31-2.68-.04-5.47,1.32-7.46,5.89-5.11,11.74,4.81,51.99,10.72,57.06,4.21,3.62,8.59,2.75,10.68.09,1.21-1.54,1.52-3.61,1.07-5.52Z"/>
  <path class="cls-13" d="M356.36,308.46c-.78,1.31-1.6,2.63-2.45,3.97-.03.05-.06.1-.1.15,0,0-.01,0-.02.02-.31.49-.63.98-.95,1.48-4.1,6.19-7.46,10.9-11.14,15.7-.61.8-1.24,1.6-1.88,2.38-.03.03-.05.07-.08.1-.52.65-1.06,1.28-1.6,1.91-.53.62-1.06,1.23-1.6,1.83-.32.35-.64.7-.96,1.05-.39.42-.79.85-1.2,1.27-.32.34-.65.69-.99,1.03-.7.71-1.4,1.41-2.12,2.1-.27.27-.54.53-.82.77-.46.45-.92.88-1.39,1.3-.29.27-.58.54-.88.78-.51.48-1.03.93-1.55,1.37-.33.29-.67.58-1.01.84-.3.26-.6.52-.91.77-.26.22-.53.44-.8.65-.57.46-1.14.91-1.71,1.34-.13.11-.27.21-.41.32-.3.23-.6.45-.9.67-1.04.78-2.09,1.53-3.15,2.27h-.01c-1.03.72-2.06,1.41-3.11,2.08-1.18.75-2.37,1.48-3.57,2.19-.5.29-1,.58-1.5.86-.56.32-1.12.63-1.68.93-.57.31-1.13.61-1.7.9-.54.28-1.09.56-1.64.83-4.94,2.45-10.05,4.49-15.28,6.12-.5.15-1,.31-1.5.45-.39.12-.78.23-1.18.34-.51.15-1.03.29-1.54.42-1.65.44-3.31.84-4.98,1.19-.41.09-.83.17-1.24.25-.49.1-.97.2-1.46.28-.52.1-1.04.19-1.56.28-.71.12-1.42.23-2.14.33-.56.09-1.14.17-1.71.23-1.95.26-3.91.46-5.89.6-.63.05-1.27.09-1.91.12-1.39.08-2.78.12-4.17.13-.46.01-.93.01-1.39.01-.41,0-.83,0-1.24-.02-.27.01-.54,0-.81-.01-.09.01-.18,0-.27,0-.18,0-.36-.01-.54-.02-.44-.01-.89-.02-1.33-.04-.15-.01-.3-.01-.45-.02-.06-.01-.11-.01-.16-.01-.56-.02-1.11-.05-1.66-.08-1.2-.06-2.4-.16-3.6-.27-.69-.07-1.38-.14-2.07-.22-.36-.04-.71-.08-1.06-.12-.28-.02-.57-.06-.85-.1-1.03-.13-2.06-.28-3.09-.44-.47-.07-.94-.14-1.4-.23-.78-.13-1.57-.27-2.35-.42-.5-.09-.99-.18-1.48-.29-.49-.1-.98-.21-1.48-.31-.11-.02-.23-.04-.34-.07-.73-.16-1.46-.33-2.19-.5-.62-.14-1.23-.29-1.84-.45-2.92-.75-5.85-1.6-8.78-2.57-1.46-.48-2.93-1-4.4-1.54-1.48-.54-2.95-1.11-4.42-1.71-.55-.22-1.1-.45-1.66-.69-1.39-.58-2.78-1.2-4.18-1.84-2.21-2.1-4.49-4.25-4.29-4.56.13-.21,9.45,6.35,9.66,6.18.72-.57,1.77-.98,3.13-1.29,11.38-2.57,44.31,1.89,84.4-19.33,25.16-13.32,37.56-34.24,43.16-52.68.03-.1.06-.2.09-.29,4.62-15.38,4.53-29.01,3.22-35.03-2.9-13.28-22.98-6.81-30.3,0-6.2,5.77-15.09,2.49-17.66,1.36-.46-.21-.72-.34-.72-.34l.43-3.27c3.87-3.04,7.51-6.02,10.83-8.73,8.54-6.98,15.29-12.5,19.37-13.85,4.01-1.32,8.45-2.29,12.75-3.23.34-.07.68-.15,1.03-.22,1.03-.23,2.09-.47,3.13-.72.55.83,1.19,1.71,1.88,2.64.56.76,1.16,1.55,1.79,2.36.26.33.52.67.79,1.01.53.69,1.08,1.39,1.65,2.12,4.12,5.25,9.24,11.78,14.34,19.9,8.53,13.6,5.42,32.87-9.25,57.33Z"/>
  <path class="cls-17" d="M168.98,254.61c-3.03,11.41-3.83,33.51,19.21,62.68,1.45,1.84,2.26,4.14,2.1,6.48-.18,2.74-1.63,5.51-7.07,4.59-9.51-1.61-47.42-29.33-33.91-87.5,1.47-6.33,9.13-8.83,14.01-4.53.15.13.3.26.45.4,4.98,4.48,6.92,11.42,5.2,17.89Z"/>
  <path class="cls-4" d="M380.47,355.65c-7.65-2.75-15.13-4.04-20.9-2.1-13.94,4.69-20.82,14.2-23.54,19.08-4.1-6.63-7.99-14.93-11.32-25.35.31-.25.61-.51.91-.77.34-.26.68-.55,1.01-.84.52-.44,1.04-.89,1.55-1.37.3-.24.59-.51.88-.78.47-.42.93-.85,1.39-1.3.28-.24.55-.5.82-.77.72-.69,1.42-1.39,2.12-2.1.34-.34.67-.69.99-1.03.41-.42.81-.85,1.2-1.27.32-.35.64-.7.96-1.05.54-.6,1.07-1.21,1.6-1.83.54-.63,1.08-1.26,1.6-1.91.03-.03.05-.07.08-.1.64-.78,1.27-1.58,1.88-2.38,3.68-4.8,7.04-9.51,11.14-15.7.32-.5.64-.99.95-1.48.01-.01.02-.01.02-.02l1.19-1.05c3.91,4.83,18.61,23.74,25.47,44.12Z"/>
  <path class="cls-4" d="M165.35,365.71c-3.1,4.89-6.96,11.13-11.48,18.55-6.22,10.21-12.4,15.6-17.89,15.6h-.07c-3.02-.03-5.39-1.7-6.92-3.23,4.52-2.38,9.64-7.3,15.01-16.53,16.13-27.76-1.91-54.64-4.55-58.3h0c3.01-5.02,5.87-9.22,8.09-12.27l.53.2s.06.09.09.14c.52.89,1.06,1.78,1.62,2.66.28.45.56.89.85,1.32.55.86,1.13,1.7,1.71,2.54.32.46.64.91.97,1.36.31.43.63.85.95,1.28.38.51.77,1.02,1.17,1.52.24.31.48.62.74.93.52.67,1.06,1.32,1.62,1.97.5.61,1.01,1.21,1.54,1.8.71.81,1.44,1.61,2.18,2.4.68.72,1.37,1.45,2.09,2.17v.12c0,.41-.02.87-.03,1.37-.03,2.59-.03,6.3.11,10.86.01.46.02.94.04,1.43.02.31.03.62.04.94.02.63.05,1.27.08,1.93.04.77.08,1.56.12,2.36,0,.31.03.62.05.94.09,1.66.21,3.39.34,5.18.06.76.11,1.52.18,2.29.11,1.3.22,2.63.35,3.99.07.66.13,1.32.2,1.99.09.82.18,1.65.27,2.49Z"/>
  <path class="cls-4" d="M245.11,506.61c-7.99,15.44-63.69,27.38-94.37,23.89,8.23-8.77,55.26-21.78,60.15-30.91,2.63-4.91,1.06-9.98-1.35-13.99-3.85-6.39-5.41-13.9-4.05-21.24l.07-.35,10.39,8.52c.82.58,1.66,1.14,2.5,1.68.97.62,1.96,1.23,2.96,1.82.04.02.09.05.13.07,1.08.63,2.17,1.24,3.28,1.81,1.21.63,2.43,1.23,3.67,1.79l1.28,1.15c2.14,3.88,6.34,8.9,12.51,14.96,3.76,3.7,4.69,7.23,2.84,10.8Z"/>
  <path class="cls-4" d="M374.51,545.87c-7.61-1.38-15.31-3.54-22.16-6.44-10.18-4.31-18.49-10.26-21.87-17.74-5.21-11.5-7.7-21.77-7.41-30.56.29-.09.58-.17.86-.27.19-.05.38-.11.56-.17.05-.02.11-.04.16-.05.39-.13.77-.26,1.15-.39.05-.02.1-.03.15-.05.3-.1.6-.21.9-.32.28-.1.56-.2.83-.31.37-.13.74-.28,1.1-.43.05-.02.09-.04.14-.06.23-.08.46-.18.68-.28.44-.18.88-.37,1.31-.57.01,0,.01-.01.02-.01.09-.04.18-.08.26-.12.5-.22,1-.46,1.49-.71.52-.25,1.04-.52,1.54-.8.27-.14.53-.29.79-.43.03-.02.07-.04.1-.06.97-.54,1.91-1.12,2.82-1.72.53-.35,1.06-.72,1.57-1.09.4-.28.79-.58,1.17-.88.14-.1.28-.21.41-.32.02,0,.03-.03.05-.04.45-.36.89-.72,1.32-1.1.39-.34.78-.68,1.15-1.04.12-.1.24-.22.36-.34.3-.28.59-.57.88-.87.16-.15.3-.3.43-.45.06-.06.13-.13.18-.19.24-.24.46-.48.68-.73.03-.04.06-.08.1-.12.1-.1.19-.2.27-.3.3-.35.6-.7.88-1.06.07-.08.13-.15.19-.22.08-.1.16-.21.24-.31.22-.28.44-.56.65-.85.08-.1.15-.2.22-.3,5.7,1.72,13.49,4.31,22.02,7.81-7.87,7.1-32.62,30.74-25.51,41.1,6.4,9.31,20.47,15.52,29.32,22.79Z"/>
  <path class="cls-22" d="M240.41,279.84s7.39,14.48,19.7,9.71,15.69-20.47,15.69-20.47c0,0-28.43-12.06-35.39,10.76Z"/>
  <path class="cls-22" d="M186.47,249.55s-2.21,19.23,6.98,25.7,12.7-10.38,12.7-10.38c0,0,.74-19.4-19.68-15.32Z"/>
  <g>
    <path class="cls-7" d="M356.36,308.46s-.04-.04-.05-.06l-.99-1.15-3.83,3.39c-.04.06-.08.12-.12.18-3.46,5.45-7.52,11.22-12.05,17.14-4.97,6.49-10.79,12.42-17.29,17.63-.27.22-.54.43-.8.64l.31.98c.22.7.44,1.38.66,2.06,14.23,43.38,38.18,50.89,47.92,52.09.45.05.89.08,1.33.08,3.37,0,6.59-1.57,8.64-4.28,24.11-31.88-21.13-85.65-23.73-88.7ZM377.69,395.35c-1.67,2.21-4.42,3.38-7.2,3.03-9.25-1.14-32.13-8.42-45.78-51.1.31-.25.61-.51.91-.77.34-.26.68-.55,1.01-.84.52-.44,1.04-.89,1.55-1.37.3-.24.59-.51.88-.78.47-.42.93-.85,1.39-1.3.28-.24.55-.5.82-.77.72-.69,1.42-1.39,2.12-2.1.34-.34.67-.69.99-1.03.41-.42.81-.85,1.2-1.27.32-.35.64-.7.96-1.05.54-.6,1.07-1.21,1.6-1.83.54-.63,1.08-1.26,1.6-1.91.03-.03.05-.07.08-.1.64-.78,1.27-1.58,1.88-2.38,3.68-4.8,7.04-9.51,11.14-15.7.32-.5.64-.99.95-1.48.01-.01.02-.01.02-.02l1.19-1.05c5.16,6.36,29.05,37.2,29.05,63.6,0,7.28-1.82,14.22-6.36,20.22Z"/>
    <path class="cls-7" d="M495.96,463.09c-12.06-34.39-36.24-46.56-37.27-47.06-51.78-24.9-94.54,2.25-104.77,9.73-.86.63-1.49,1.12-1.88,1.43l-.57.46v.72l.03.31c1.29,6,1.99,11.83,2.15,17.84,0,.49.02.98.02,1.47,0,4.15-.49,8.11-1.47,11.8l-.32,1.19,1.12.54c.53.25,1.06.5,1.61.75,15.04,6.81,37.75,11.15,56.06,11.15,4.85,0,9.39-.31,13.4-.95,26.68-4.28,70.15-7.35,70.58-7.38l1.97-.14-.66-1.86ZM423.59,469.51c-18.81,3.01-49.68-1.63-68.19-10.17.06-.24.11-.49.16-.74.08-.35.16-.71.22-1.07.09-.43.16-.87.23-1.31.07-.41.14-.82.19-1.24.05-.37.1-.74.14-1.12,0-.08.02-.17.03-.25.04-.36.07-.72.1-1.08.02-.16.03-.31.04-.47.03-.34.05-.69.07-1.04.01-.21.02-.41.03-.62.02-.32.03-.65.04-.98.03-.98.03-1.98,0-2.98-.02-.77-.05-1.53-.09-2.3-.03-.49-.05-.98-.08-1.47-.02-.27-.04-.54-.06-.81-.05-.76-.12-1.52-.19-2.27-.03-.38-.07-.76-.12-1.14-.04-.38-.09-.76-.13-1.13-.07-.6-.15-1.2-.23-1.8-.07-.56-.16-1.12-.25-1.69-.03-.23-.07-.45-.1-.67-.09-.58-.2-1.17-.31-1.76-.01-.12-.04-.23-.06-.35-.06-.35-.13-.71-.21-1.07-.01-.07-.02-.13-.04-.2-.05-.27-.1-.54-.15-.81,7.51-5.74,50.37-35.43,102.75-10.24.23.11,23.23,11.73,35.09,43.51-8.85.65-45.33,3.49-68.88,7.27Z"/>
    <path class="cls-7" d="M348.51,470.98l-1.05-.31-.62.9c-5.52,8.06-14.14,13.77-25.62,16.97l-1.03.29-.07,1.07c-.04.67-.07,1.35-.07,2.04.67-.16,1.32-.33,1.97-.51.65-.18,1.28-.37,1.91-.57.19-.05.38-.11.56-.17.05-.02.11-.04.16-.05.39-.13.77-.26,1.15-.39.05-.02.1-.03.15-.05.3-.1.6-.21.9-.32.28-.1.56-.2.83-.31.37-.13.74-.28,1.1-.43.05-.02.09-.04.14-.06.23-.08.46-.18.68-.28.44-.18.88-.37,1.31-.57.01,0,.01-.01.02-.01.09-.04.18-.08.26-.12.5-.22,1-.46,1.49-.71.52-.25,1.04-.52,1.54-.8.27-.14.53-.29.79-.43.03-.02.07-.04.1-.06.97-.54,1.91-1.12,2.82-1.72.53-.35,1.06-.72,1.57-1.09.4-.28.79-.58,1.17-.88.14-.1.28-.21.41-.32.02,0,.03-.03.05-.04.45-.36.89-.72,1.32-1.1.39-.34.78-.68,1.15-1.04.12-.1.24-.22.36-.34.3-.28.59-.57.88-.87.16-.15.3-.3.43-.45.06-.06.13-.13.18-.19.24-.24.46-.48.68-.73.03-.04.06-.08.1-.12.1-.1.19-.2.27-.3.3-.35.6-.7.88-1.06.07-.08.13-.15.19-.22.08-.1.16-.21.24-.31.22-.28.44-.56.65-.85.08-.1.15-.2.22-.3.22-.29.43-.59.64-.9.38-.56.75-1.13,1.11-1.71-.67-.2-1.31-.4-1.92-.58Z"/>
    <path class="cls-7" d="M429.36,539.51c-5.64,8.32-20.33,11.23-34.69,11.23-3.22,0-6.42-.15-9.5-.41-23.31-2-50.11-11.25-57.43-27.4-5.22-11.53-7.8-21.94-7.69-30.99.67-.16,1.32-.33,1.97-.51.65-.18,1.28-.37,1.91-.57-.28.1-.57.18-.86.27-.29,8.79,2.2,19.06,7.41,30.56,3.38,7.48,11.69,13.43,21.87,17.74,10.17,4.31,22.22,6.98,33.08,7.91,3.4.29,6.7.43,9.84.42-1.7-7.45-6.16-14.71-13.57-17.47,4.36.94,8.33,3.45,11.27,6.84,2.69,3.12,4.76,6.66,6.16,10.53,12.04-.53,21.53-3.38,26.21-7.99-4.97-7.04-12.02-12.98-20.28-15.73,4.71.87,9.25,2.7,13.32,5.27,3.39,2.14,6.44,4.55,9.21,7.41,1.71-3.43,1.37-7.58-1.02-12.36-14.01-28.04-58.34-44.18-77.89-50.09.22-.29.43-.59.64-.9.38-.56.75-1.13,1.11-1.71,20.35,6.25,64.51,22.71,78.82,51.36,3.2,6.4,3.24,11.98.11,16.59Z"/>
    <path class="cls-7" d="M217.19,363.34c1.47.55,2.93,1.06,4.4,1.54-1.46-.48-2.93-1-4.4-1.54ZM217.19,363.34c1.47.55,2.93,1.06,4.4,1.54-1.46-.48-2.93-1-4.4-1.54ZM201.72,356.62c1.48.73,2.95,1.45,4.43,2.13-1.47-.68-2.95-1.39-4.43-2.13ZM217.19,363.34c1.47.55,2.93,1.06,4.4,1.54-1.46-.48-2.93-1-4.4-1.54ZM201.72,356.62c1.48.73,2.95,1.45,4.43,2.13-1.47-.68-2.95-1.39-4.43-2.13ZM217.19,363.34c1.47.55,2.93,1.06,4.4,1.54-1.46-.48-2.93-1-4.4-1.54ZM212.64,358.31c-.62-.26-1.24-.52-1.87-.79-.65-.28-1.3-.56-1.95-.86-.76-.34-1.52-.69-2.29-1.05-1.12-.52-2.24-1.07-3.37-1.63-.11-.05-.22-.11-.33-.17-.43-.21-.86-.43-1.29-.65-.54-.28-1.08-.56-1.63-.85-.45-.23-.9-.47-1.35-.72-1.25-.67-2.51-1.36-3.77-2.09-.63-.35-1.26-.72-1.89-1.1-.97-.56-1.95-1.15-2.93-1.75-5.11-3.14-9.88-6.48-14.28-10-1.46-1.17-2.88-2.36-4.25-3.57-.42-.37-.83-.74-1.24-1.11-.82-.74-1.62-1.48-2.41-2.24-.4-.38-.79-.76-1.17-1.14l-.03,1.41c0,.41-.01.86-.02,1.35-.01.42-.01.86-.01,1.34h0c.79.76,1.6,1.49,2.42,2.22.41.36.82.73,1.24,1.09.42.36.84.72,1.27,1.08.43.36.86.71,1.29,1.07,1.34,1.1,2.71,2.18,4.12,3.24.5.38,1.01.76,1.53,1.13.53.39,1.06.77,1.59,1.15.58.41,1.15.82,1.74,1.21.51.36,1.02.71,1.54,1.05,1.66,1.12,3.37,2.21,5.11,3.28,2.22,1.36,4.44,2.66,6.66,3.89.73.41,1.45.81,2.18,1.2.75.41,1.51.8,2.26,1.19.72.38,1.45.75,2.17,1.11.01.01.03.01.04.02,1.48.73,2.95,1.45,4.43,2.13.26.12.52.24.78.35-2.21-2.1-4.49-4.25-4.29-4.56.13-.21,9.45,6.35,9.66,6.18.72-.57,1.77-.98,3.13-1.29-.25-.09-.51-.2-.77-.3-.67-.26-1.34-.53-2.02-.82ZM356.56,444.14c-.03-.49-.05-.98-.08-1.47-.02-.27-.04-.54-.06-.81-.05-.76-.12-1.52-.19-2.27-.03-.38-.07-.76-.12-1.14-.04-.38-.09-.76-.13-1.13-.07-.6-.15-1.2-.23-1.8-.07-.56-.16-1.12-.25-1.69-.03-.23-.07-.45-.1-.67-.09-.58-.2-1.17-.31-1.76-.01-.12-.04-.23-.06-.35-.06-.35-.13-.71-.21-1.07-.01-.07-.02-.13-.04-.2-.05-.27-.1-.54-.15-.81-.05-.25-.11-.51-.16-.76l-.03-.16c-.16-.77-.34-1.53-.52-2.29-3.73-15.89-10.66-29.9-17.97-44.68-4.97-10.05-10.11-20.43-14.16-31.49-.13-.35-.26-.69-.38-1.04l-.68-1.91-1.63,1.22c-.69.51-1.43,1.05-2.21,1.59-.78.56-1.61,1.12-2.49,1.69-.44.29-.88.58-1.34.87-.46.3-.93.59-1.42.88-.48.3-.98.6-1.48.89-.45.27-.91.54-1.38.8-.38.22-.77.44-1.16.65-.43.24-.87.48-1.31.71-.53.28-1.06.56-1.61.84-.52.27-1.05.53-1.59.8-1.71.83-3.52,1.65-5.41,2.45-.01.01-.03.01-.04.02-.4.16-.8.33-1.21.49-.22.09-.43.18-.65.26-.64.25-1.29.5-1.95.75-.41.15-.84.31-1.27.47-.07.02-.15.05-.23.08-.28.1-.56.2-.84.29-.23.08-.45.16-.68.24-.46.15-.92.3-1.38.45-.06.02-.12.04-.18.06-.53.17-1.05.33-1.59.49-.53.16-1.07.32-1.62.47-.54.16-1.09.31-1.65.45-.51.14-1.02.27-1.53.4-.61.15-1.23.3-1.85.44-.53.12-1.07.24-1.61.35-.33.07-.67.14-1,.21-.66.14-1.34.26-2.01.38-.67.12-1.35.24-2.04.35-.45.07-.91.14-1.37.21h-.05c-.91.13-1.83.26-2.76.36-.48.06-.95.11-1.43.16-.52.05-1.04.1-1.56.15-.45.04-.9.07-1.34.1-.43.04-.85.06-1.28.09-.56.03-1.12.06-1.69.09-.91.04-1.84.07-2.77.08-.21.01-.41.01-.61.01h-.28c-.3.01-.6.01-.9.01-.51.01-1.01,0-1.53-.01-.29-.01-.58-.01-.87-.01-.11-.01-.21-.01-.31-.01s-.21-.01-.31-.01c-.53-.02-1.05-.03-1.59-.06-.13,0-.26,0-.39-.02-.38-.01-.77-.03-1.16-.06-.53-.03-1.05-.06-1.57-.1-.06,0-.12-.01-.18-.01-.92-.07-1.85-.15-2.78-.25-.08,0-.15,0-.23-.02-.53-.06-1.07-.12-1.61-.18-.65-.08-1.3-.16-1.96-.25-.18-.02-.36-.05-.55-.07-.27-.04-.53-.07-.8-.12-.12-.02-.25-.04-.37-.06-.83-.11-1.67-.25-2.52-.41-.41-.06-.82-.14-1.22-.21-.11-.02-.22-.04-.33-.07-.73-.14-1.47-.29-2.21-.44-.13-.03-.25-.05-.38-.08-.35-.07-.71-.14-1.07-.23-.09-.02-.17-.04-.26-.06-.16-.04-.32-.07-.49-.11-.15-.03-.31-.07-.47-.11-.25-.05-.5-.11-.76-.18-.78-.18-1.56-.38-2.35-.58-.43-.12-.85-.23-1.28-.35-.43-.11-.87-.24-1.3-.36-.08-.02-.17-.05-.25-.07-.73-.21-1.47-.43-2.21-.66-.07-.02-.13-.04-.2-.06-.24-.07-.47-.14-.71-.22-.16-.05-.33-.11-.49-.16-.6-.18-1.2-.38-1.8-.58-.45-.15-.91-.31-1.36-.47-.44-.15-.89-.31-1.33-.47-.92-.33-1.85-.67-2.78-1.03-.3-.11-.61-.23-.92-.36-.25-.09-.51-.2-.77-.3-.67-.26-1.34-.53-2.02-.82-.62-.26-1.24-.52-1.87-.79-.65-.28-1.3-.56-1.95-.86-.76-.34-1.52-.69-2.29-1.05-1.12-.52-2.24-1.07-3.37-1.63-.11-.05-.22-.11-.33-.17-.43-.21-.86-.43-1.29-.65-.54-.28-1.08-.56-1.63-.85-.45-.23-.9-.47-1.35-.72-1.25-.67-2.51-1.36-3.77-2.09-.63-.35-1.26-.72-1.89-1.1-.97-.56-1.95-1.15-2.93-1.75-5.11-3.14-9.88-6.48-14.28-10-1.46-1.17-2.88-2.36-4.25-3.57-.42-.37-.83-.74-1.24-1.11-.82-.74-1.62-1.48-2.41-2.24-.4-.38-.79-.76-1.17-1.14l-.45-.44-2.5-2.5-.07,4.17v.12c0,.41-.02.87-.03,1.37-.03,2.59-.03,6.3.11,10.86.01.46.02.94.04,1.43.02.31.03.62.04.94.02.63.05,1.27.08,1.93.04.77.08,1.56.12,2.36,0,.31.03.62.05.94.09,1.66.21,3.39.34,5.18.06.76.11,1.52.18,2.29.11,1.3.22,2.63.35,3.99.07.66.13,1.32.2,1.99.09.82.18,1.65.27,2.49.02.18.04.35.06.53.16,1.37.33,2.77.51,4.19,3.74,28.84,13.28,66.31,37.07,91.01.65.69,1.32,1.36,2,2.02.46.45.92.89,1.39,1.33.47.44.94.87,1.42,1.3.33.29.66.59.99.87,3.07,2.67,6.29,5.09,9.65,7.25.97.62,1.96,1.23,2.96,1.82.04.02.09.05.13.07,1.08.63,2.18,1.23,3.28,1.81,1.21.63,2.43,1.23,3.67,1.79.29.14.59.28.89.41.17.07.34.14.51.22,1.35.59,2.74,1.16,4.16,1.69,1.04.39,2.11.77,3.19,1.12,22.74,7.48,43.27,11.27,60.69,11.27,8.08,0,15.49-.82,22.13-2.47.67-.16,1.32-.33,1.97-.51.65-.18,1.28-.37,1.91-.57.19-.05.38-.11.56-.17.05-.02.11-.04.16-.05.39-.13.77-.26,1.15-.39.05-.02.1-.03.15-.05.3-.1.6-.21.9-.32.28-.1.56-.2.83-.31.37-.13.74-.28,1.1-.43.05-.02.09-.04.14-.06.23-.08.46-.18.68-.28.44-.18.88-.37,1.31-.57.01,0,.01-.01.02-.01.09-.04.18-.08.26-.12.5-.22,1-.46,1.49-.71.52-.25,1.04-.52,1.54-.8.27-.14.53-.29.79-.43.03-.02.07-.04.1-.06.97-.54,1.91-1.12,2.82-1.72.53-.35,1.06-.72,1.57-1.09.4-.28.79-.58,1.17-.88.14-.1.28-.21.41-.32.02,0,.03-.03.05-.04.45-.36.89-.72,1.32-1.1.39-.34.78-.68,1.15-1.04.12-.1.24-.22.36-.34.3-.28.59-.57.88-.87.16-.15.3-.3.43-.45.06-.06.13-.13.18-.19.24-.24.46-.48.68-.73.03-.04.06-.08.1-.12.1-.1.19-.2.27-.3.3-.35.6-.7.88-1.06.07-.08.13-.15.19-.22.08-.1.16-.21.24-.31.22-.28.44-.56.65-.85.08-.1.15-.2.22-.3.22-.29.43-.59.64-.9.38-.56.75-1.13,1.11-1.71,1.76-2.87,3.16-5.98,4.18-9.29.17-.57.34-1.14.49-1.72.11-.4.21-.8.3-1.21.06-.24.11-.49.16-.74.08-.35.16-.71.22-1.07.09-.43.16-.87.23-1.31.07-.41.14-.82.19-1.24.05-.37.1-.74.14-1.12,0-.08.02-.17.03-.25.04-.36.07-.72.1-1.08.02-.16.03-.31.04-.47.03-.34.05-.69.07-1.04.01-.21.02-.41.03-.62.02-.32.03-.65.04-.98.03-.98.03-1.98,0-2.98-.02-.77-.05-1.53-.09-2.3ZM346.84,471.57c-5.52,8.06-14.14,13.77-25.62,16.97-20.55,5.72-49.27,2.86-83.05-8.24-2.26-.75-4.47-1.58-6.57-2.49l-.52-.22c-8.82-3.86-16.89-9.33-23.99-16.27l-.56-.55c-25.28-25.11-34.66-64.99-38.08-94.34l-.06-.53c-.39-3.37-.69-6.62-.94-9.69-.06-.77-.12-1.52-.17-2.26v-.02c-.05-.74-.1-1.46-.15-2.18v-.03c-.05-.72-.09-1.43-.13-2.13-.06-1.04-.11-2.06-.15-3.05-.05-.99-.09-1.95-.12-2.88v-.04c-.02-.6-.04-1.2-.06-1.78v-.04c-.01-.37-.02-.73-.03-1.08-.01-.27-.01-.53-.02-.79-.01-.19-.01-.39-.01-.58-.01-.32-.02-.63-.02-.93,0-.25-.01-.49-.01-.73v-.04c-.03-1.88-.03-3.54-.02-4.95.79.75,1.6,1.48,2.42,2.21.41.36.82.73,1.24,1.09.42.36.84.72,1.27,1.08.43.36.86.71,1.29,1.07,1.34,1.1,2.71,2.18,4.12,3.24.5.38,1.01.76,1.53,1.13.53.39,1.06.77,1.59,1.15.58.41,1.15.82,1.74,1.21.51.36,1.02.71,1.54,1.05,1.66,1.12,3.37,2.21,5.11,3.28,2.22,1.36,4.44,2.66,6.66,3.89.73.41,1.45.81,2.18,1.2.75.41,1.51.8,2.26,1.19.72.38,1.45.75,2.17,1.11.01.01.03.01.04.02,1.48.73,2.95,1.45,4.43,2.13.26.12.52.24.78.35,1.4.64,2.79,1.26,4.18,1.84.56.24,1.11.47,1.66.69,1.47.6,2.94,1.17,4.42,1.71,1.47.55,2.93,1.06,4.4,1.54,2.93.97,5.86,1.82,8.78,2.57.61.16,1.22.31,1.84.45.73.17,1.46.34,2.19.5.11.03.23.05.34.07.5.1.99.21,1.48.31.49.11.98.2,1.48.29.78.15,1.57.29,2.35.42.46.09.93.16,1.4.23.4.06.81.12,1.21.17.63.09,1.25.18,1.88.27.28.04.57.08.85.1.35.04.7.08,1.06.12.69.08,1.38.15,2.07.22.55.05,1.09.09,1.63.13.65.05,1.31.1,1.97.14.55.03,1.1.06,1.66.08.05,0,.1,0,.16.01.15,0,.3,0,.45.02.44.02.89.03,1.33.04.18,0,.36.02.54.02.09,0,.18.01.27,0,.27.01.54.02.81.01.41.02.83.02,1.24.02.46,0,.93,0,1.39-.01,1.39-.01,2.78-.05,4.17-.13.64-.03,1.28-.07,1.91-.12,1.98-.14,3.94-.34,5.89-.6.57-.06,1.15-.14,1.71-.23.72-.1,1.43-.21,2.14-.33.52-.09,1.04-.18,1.56-.28.49-.08.97-.18,1.46-.28.41-.08.83-.16,1.24-.25,1.67-.35,3.33-.75,4.98-1.19.51-.13,1.03-.27,1.54-.42.4-.11.79-.22,1.18-.34.5-.14,1-.3,1.5-.45,5.23-1.63,10.34-3.67,15.28-6.12.55-.27,1.1-.55,1.64-.83.57-.29,1.13-.59,1.7-.9.56-.3,1.12-.61,1.68-.93.5-.28,1-.57,1.5-.86,1.2-.71,2.39-1.44,3.57-2.19,1.05-.67,2.08-1.36,3.11-2.08h.01c.52-.35,1.03-.71,1.54-1.08,4.05,10.9,9.1,21.09,13.98,30.96,7.56,15.27,14.69,29.7,18.21,46.11l.03.16c1.29,6,1.99,11.83,2.15,17.84,0,.49.02.98.02,1.47,0,4.15-.49,8.11-1.47,11.8-1.13,4.29-2.93,8.26-5.36,11.78ZM201.72,356.62c1.48.73,2.95,1.45,4.43,2.13-1.47-.68-2.95-1.39-4.43-2.13ZM217.19,363.34c1.47.55,2.93,1.06,4.4,1.54-1.46-.48-2.93-1-4.4-1.54ZM201.72,356.62c1.48.73,2.95,1.45,4.43,2.13-1.47-.68-2.95-1.39-4.43-2.13ZM217.19,363.34c1.47.55,2.93,1.06,4.4,1.54-1.46-.48-2.93-1-4.4-1.54ZM201.72,356.62c1.48.73,2.95,1.45,4.43,2.13-1.47-.68-2.95-1.39-4.43-2.13ZM217.19,363.34c1.47.55,2.93,1.06,4.4,1.54-1.46-.48-2.93-1-4.4-1.54ZM217.19,363.34c1.47.55,2.93,1.06,4.4,1.54-1.46-.48-2.93-1-4.4-1.54ZM257.34,371.05c.41.02.83.02,1.24.02.46,0,.93,0,1.39-.01-.87.01-1.75,0-2.63-.01Z"/>
    <path class="cls-7" d="M365.61,251.13c-5.1-8.12-10.22-14.65-14.34-19.9-.57-.73-1.12-1.43-1.65-2.12-.27-.34-.53-.68-.79-1.01-.63-.81-1.23-1.6-1.79-2.36-.69-.93-1.33-1.81-1.88-2.64-1.04.25-2.1.49-3.13.72.54.85,1.16,1.74,1.83,2.67,1.43,1.98,3.14,4.15,5.05,6.59,4.08,5.2,9.15,11.66,14.16,19.65,2.83,4.51,4.24,9.74,4.24,15.68,0,11.49-5.29,25.62-15.82,42.23-.04.06-.08.12-.12.18-3.46,5.45-7.52,11.22-12.05,17.14-4.97,6.49-10.79,12.42-17.29,17.63-.27.22-.54.43-.8.64-.72.57-1.44,1.11-2.13,1.63-.69.51-1.43,1.05-2.21,1.59-.78.56-1.61,1.12-2.49,1.69-.44.29-.88.58-1.34.87-.46.3-.93.59-1.42.88-.48.3-.98.6-1.48.89-.45.27-.91.54-1.38.8-.38.22-.77.44-1.16.65-.43.24-.87.48-1.31.71-.53.28-1.06.56-1.61.84-.52.27-1.05.53-1.59.8-1.71.83-3.52,1.65-5.41,2.45-.01.01-.03.01-.04.02-.4.16-.8.33-1.21.49-.22.09-.43.18-.65.26-.64.25-1.29.5-1.95.75-.41.15-.84.31-1.27.47-.07.02-.15.05-.23.08-.22.08-.45.16-.68.23-.05.02-.1.04-.16.06-.22.08-.45.15-.68.23-.52.18-1.04.35-1.56.51-.53.17-1.06.34-1.59.5-.53.16-1.07.32-1.62.47-.54.16-1.09.31-1.65.45-.51.14-1.02.27-1.53.4-.05.01-.09.02-.14.03-.57.14-1.14.28-1.71.41-.53.12-1.07.24-1.61.35-.33.07-.67.14-1,.21-.66.14-1.34.26-2.01.38-.67.12-1.35.24-2.04.35-.45.07-.91.14-1.37.21h-.05c-.91.13-1.83.26-2.76.36-.48.06-.95.11-1.43.16-.52.05-1.04.1-1.56.15-.65.06-1.31.11-1.98.15-.21.02-.43.03-.64.04-.56.03-1.12.06-1.69.09-.91.04-1.84.07-2.77.08-.2.01-.41.01-.61.01h-.28c-.3.01-.6.01-.9.01-.51.01-1.01,0-1.53-.01-.29-.01-.58-.01-.87-.01-.11-.01-.21-.01-.31-.01s-.21-.01-.31-.01c-.53-.02-1.05-.03-1.59-.06-.13,0-.26,0-.39-.02-.38-.01-.77-.03-1.16-.06-.53-.03-1.05-.06-1.57-.1-.06,0-.12-.01-.18-.01-.92-.07-1.85-.15-2.78-.25-.08,0-.15,0-.23-.02-.53-.06-1.07-.12-1.61-.18-.65-.08-1.3-.16-1.96-.25-.18-.02-.36-.05-.55-.07-.26-.04-.53-.08-.8-.12-.12-.02-.25-.04-.37-.06-.67-.09-1.36-.21-2.05-.33-.22-.04-.44-.08-.66-.12-.34-.06-.69-.11-1.03-.18-.11-.02-.22-.04-.33-.06-.73-.14-1.47-.29-2.21-.44-.13-.03-.25-.05-.38-.08-.35-.07-.71-.14-1.07-.23-.09-.02-.17-.04-.26-.06-.16-.04-.32-.07-.49-.11-.15-.04-.31-.07-.47-.11-.25-.05-.5-.11-.76-.18-.78-.18-1.56-.38-2.35-.58-.43-.12-.85-.23-1.28-.35-.43-.12-.86-.24-1.3-.36-.08-.02-.17-.05-.25-.07-.73-.21-1.47-.43-2.21-.66-.07-.02-.13-.04-.2-.06-.24-.07-.47-.14-.71-.22-.16-.05-.33-.11-.49-.16-.6-.18-1.2-.38-1.8-.58-.45-.15-.91-.31-1.36-.47-.44-.15-.89-.31-1.33-.47-.92-.33-1.85-.67-2.78-1.03-.3-.11-.61-.23-.92-.36-.25-.09-.51-.2-.77-.3-.67-.26-1.34-.53-2.02-.82-.62-.26-1.24-.52-1.87-.79-.65-.28-1.3-.56-1.95-.86-.76-.34-1.52-.69-2.29-1.05-1.12-.52-2.24-1.07-3.37-1.63-.11-.05-.22-.11-.33-.17-.43-.21-.86-.43-1.29-.65-.54-.28-1.08-.56-1.63-.85-.45-.23-.9-.47-1.35-.72-1.25-.67-2.51-1.36-3.77-2.09-.63-.35-1.26-.72-1.89-1.1-.97-.56-1.95-1.15-2.93-1.75-5.11-3.14-9.88-6.48-14.28-10-1.46-1.17-2.88-2.36-4.25-3.57-.42-.37-.83-.74-1.24-1.11-.82-.74-1.62-1.49-2.41-2.24-.4-.38-.79-.76-1.17-1.14l-.45-.44h0c-.86-.85-1.68-1.71-2.48-2.56-5.77-6.14-10.62-12.83-14.42-19.85-17.53-32.41-7.71-63.07-7.61-63.38l3.27-9.86-5.92,8.53c-1.62,2.33-4.62,2.29-6.1,2.11-1.47-9.24,10.31-27.81,16.35-36.1.23-.32.45-.62.66-.9.76.03,1.53.05,2.3.08-.57-.94-1.03-1.96-1.39-3.05-.99-.04-1.54-.06-1.59-.06l-.78-.03-.46.62s-.05.07-.1.13c-1.75,2.31-21.15,28.5-17.69,41.01l.23.83.83.22c.2.05,3.4.87,6.47-.26-2.09,9.65-5.34,34.56,8.44,60.69.15.28.3.56.45.84.49.91,1,1.81,1.53,2.71.52.89,1.06,1.78,1.62,2.66.28.45.56.89.85,1.32.55.86,1.13,1.7,1.71,2.54.32.46.64.91.97,1.36.31.43.63.85.95,1.28.38.51.77,1.02,1.17,1.52.24.31.48.62.74.93.52.67,1.06,1.32,1.62,1.97.5.61,1.01,1.21,1.54,1.8.71.81,1.44,1.61,2.18,2.4.68.72,1.37,1.45,2.09,2.17.15.15.3.3.45.45.82.82,1.65,1.63,2.51,2.42h0c.79.76,1.6,1.49,2.42,2.22.41.36.82.73,1.24,1.09.42.36.84.72,1.27,1.08.43.36.86.71,1.29,1.07,1.34,1.1,2.71,2.18,4.12,3.24.5.38,1.01.76,1.53,1.13.53.39,1.06.77,1.59,1.15.58.41,1.15.82,1.74,1.21.51.36,1.02.71,1.54,1.05,1.66,1.12,3.37,2.21,5.11,3.28,2.22,1.36,4.44,2.66,6.66,3.89.73.41,1.45.81,2.18,1.2.75.41,1.51.8,2.26,1.19.72.38,1.45.75,2.17,1.11.01.01.03.01.04.02,1.48.73,2.95,1.45,4.43,2.13.26.12.52.24.78.35,1.4.64,2.79,1.26,4.18,1.84.56.24,1.11.47,1.66.69,1.47.6,2.94,1.17,4.42,1.71,1.47.54,2.94,1.06,4.4,1.54,2.93.97,5.86,1.82,8.78,2.57.61.16,1.22.31,1.84.45.73.17,1.46.34,2.19.5.11.03.23.05.34.07.5.1.99.21,1.48.31.49.11.98.2,1.48.29.78.15,1.57.29,2.35.42.46.09.93.16,1.4.23,1.03.16,2.06.31,3.09.44.28.04.57.08.85.1.35.04.7.08,1.06.12.69.08,1.38.15,2.07.22,1.2.11,2.4.21,3.6.27.55.03,1.1.06,1.66.08.05,0,.1,0,.16.01.15,0,.3,0,.45.02.44.02.89.03,1.33.04.18,0,.36.02.54.02.09,0,.18.01.27,0,.27.01.54.02.81.01.41.02.83.02,1.24.02.46,0,.93,0,1.39-.01,1.39-.01,2.78-.05,4.17-.13.64-.03,1.28-.07,1.91-.12,1.98-.14,3.94-.34,5.89-.6.57-.06,1.15-.14,1.71-.23.72-.1,1.43-.21,2.14-.33.52-.09,1.04-.18,1.56-.28.49-.08.97-.18,1.46-.28.41-.08.83-.16,1.24-.25,1.67-.35,3.33-.75,4.98-1.19.51-.13,1.03-.27,1.54-.42.4-.11.79-.22,1.18-.34.5-.14,1-.3,1.5-.45,5.23-1.63,10.34-3.67,15.28-6.12.55-.27,1.1-.55,1.64-.83.57-.29,1.13-.59,1.7-.9.56-.3,1.12-.61,1.68-.93.5-.28,1-.57,1.5-.86,1.2-.71,2.39-1.44,3.57-2.19,1.05-.67,2.08-1.36,3.11-2.08h.01c1.06-.74,2.11-1.49,3.15-2.27.3-.22.6-.44.9-.67.14-.11.28-.21.41-.32.57-.43,1.14-.88,1.71-1.34.27-.21.54-.43.8-.65.31-.25.61-.51.91-.77.34-.26.68-.55,1.01-.84.52-.44,1.04-.89,1.55-1.37.3-.24.59-.51.88-.78.47-.42.93-.85,1.39-1.3.28-.24.55-.5.82-.77.72-.69,1.42-1.39,2.12-2.1.34-.34.67-.69.99-1.03.41-.42.81-.85,1.2-1.27.32-.35.64-.7.96-1.05.54-.6,1.07-1.21,1.6-1.83.54-.63,1.08-1.26,1.6-1.91.03-.03.05-.07.08-.1.64-.78,1.27-1.58,1.88-2.38,3.68-4.8,7.04-9.51,11.14-15.7.32-.5.64-.99.95-1.48.01-.01.02-.01.02-.02.04-.05.07-.1.1-.15.85-1.34,1.67-2.66,2.45-3.97,14.67-24.46,17.78-43.73,9.25-57.33Z"/>
    <path class="cls-7" d="M168.39,365.9c-.39-3.37-.69-6.62-.94-9.69-.06-.77-.12-1.52-.17-2.26v-.02c-.05-.74-.1-1.46-.15-2.18v-.03c-.05-.72-.09-1.43-.13-2.13-.06-1.04-.11-2.06-.15-3.05-.05-.99-.09-1.95-.12-2.88v-.04c-.03-.61-.05-1.2-.06-1.78v-.04c-.01-.37-.02-.73-.03-1.08-.01-.27-.01-.53-.02-.79-.01-.19-.01-.39-.01-.58-.01-.32-.02-.63-.02-.93,0-.25-.01-.49-.01-.73v-.04c-.03-1.88-.03-3.54-.02-4.95h0c0-.49,0-.93.01-1.35.01-.49.02-.94.02-1.35l.03-1.41-.45-.44h0c-.86-.85-1.68-1.71-2.48-2.56-5.77-6.14-10.62-12.83-14.42-19.85l-1.11-2.06-1.41,1.87c-.18.24-.37.5-.57.77-9.82,13.2-37.36,54.99-21.85,89.21l.07.13c.17.29,4.19,7.11,11.45,7.19.05.01.09.01.14.01,6.68,0,13.55-5.73,20.44-17.04,3.6-5.92,6.78-11.07,9.49-15.39.79-1.26,1.54-2.45,2.25-3.56l.28-.44-.06-.53ZM153.87,384.26c-6.22,10.21-12.4,15.6-17.89,15.6h-.07c-5.26-.05-8.53-5.08-8.88-5.65-14.36-31.84,10.59-71.07,20.74-85,.13.22.25.44.39.66.52.89,1.06,1.78,1.62,2.66.28.45.56.89.85,1.32.55.86,1.13,1.7,1.71,2.54.32.46.64.91.97,1.36.31.43.63.85.95,1.28.38.51.77,1.02,1.17,1.52.24.31.48.62.74.93.52.67,1.06,1.32,1.62,1.97.5.61,1.01,1.21,1.54,1.8.71.81,1.44,1.61,2.18,2.4.68.72,1.37,1.45,2.09,2.17v.12c0,.41-.02.87-.03,1.37-.03,2.59-.03,6.3.11,10.86.01.46.02.94.04,1.43.02.31.03.62.04.94.02.63.05,1.27.08,1.93.04.77.08,1.56.12,2.36,0,.31.03.62.05.94.09,1.66.21,3.39.34,5.18.06.76.11,1.52.18,2.29.11,1.3.22,2.63.35,3.99.07.66.13,1.32.2,1.99.09.82.18,1.65.27,2.49-3.1,4.89-6.96,11.13-11.48,18.55Z"/>
  </g>
  <path class="cls-5" d="M387.08,57.58l-.26-.21-.32-.08c-27.27-7.03-62.49,20.22-75.58,31.5-.85.72-1.61,1.38-2.26,1.97.91.89.81,2,.42,2.75-.19.35-.89,1.45-2.39,1.16l-4.2-.93-.14.03,2.21,2.65,2.96-.54.32-.31c.08-.08,1.69-1.6,4.45-3.97,12.23-10.52,47.13-37.83,73.08-31.51.92,1,4.59,5.7,4.43,17.14-44.24,8.27-55.78,39.41-55.89,39.73l-.4,1.11.98.64c21.65,14.32,35.31,31.08,40.61,49.83,3.93,13.91,1.95,25.37.35,29.49-.43,1.11-1.12,1.81-2.1,2.15-2.96,1.02-7.88-1.29-9.52-2.26l-10.57-6.27,8.75,8.63c.86.85,3.26,3.71,3.01,5.69-.06.41-.25,1.04-1.3,1.64-4.18,2.38-7.89-2.02-8.05-2.2l-2.16-2.65-.48,3.38c-.05.31-1.06,7.63,1.25,13.06.11.26.06.35.02.42-.66,1.28-4.77,2.46-9.14,3.48-1.04.25-2.1.49-3.13.72-.35.07-.69.15-1.03.22-4.3.94-8.74,1.91-12.75,3.23-4.08,1.35-10.83,6.87-19.37,13.85-3.32,2.71-6.96,5.69-10.83,8.73-16.35,12.85-36.87,26.87-54.74,27.01-32.48.24-45.62-14.49-58.26-32.31-13.48-19.01-20.6-27.32-30.47-35.56-.94-.78-1.72-1.72-2.36-2.77-.57-.94-1.03-1.96-1.39-3.05-2.57-7.6-.56-18.31.55-23t.01-.02c.36-1.33-.43-2.7-1.76-3.06l-.51-.14c-.06.19-.35,1.16-.71,2.68-.72,2.56-1.33,3.97-1.74,4.75-4.93-15.64,5.46-35.54,9.54-42.47.85-1.43.44-3.26-.93-4.2-1.3,1.87-2.97,3.7-4.66,5.33-1.68,1.63-3.37,3.06-4.69,4.12,3.04-14.04,34-43.06,47.79-55.98l2.75-2.58c3.74-3.52,4.02-9.3.66-13.17-19.71-22.6-41.17-27.43-49.41-28.47.84-6.59,2.76-13.47,5.75-20.61,1.98.04,13.58,2.96,72,47.16.54.41,1.08.82,1.62,1.23l1.23.76c1.05-.52,2.13-1.03,3.22-1.53l-2.69-1.66c-.12-.09-.23-.18-.35-.27-31.46-23.84-70.1-51.45-76.55-48.4-.65.3-.99.81-1.13,1.27-3.34,7.9-5.22,15.16-6.02,21.79-.13,1.02-.23,2.01-.3,3-1.24,16.19,3.96,28.38,9.64,36.63,7.85,11.43,17.81,17.51,20.49,19-15.94,15.83-33.19,35.18-31.86,45.18l.32,2.45,2.03-1.42c.15-.11,1.99-1.41,4.34-3.4-4.82,10.1-10.12,25.75-5.07,38.8l.14.27c.39.6,1.21,1.14,2.2.97.06-.02.13-.03.2-.04-.55,4.96-.6,10.77.97,15.69.36,1.13.81,2.2,1.36,3.21.86,1.62,1.98,3.06,3.4,4.25,9.64,8.05,16.63,16.23,29.95,35,12.55,17.69,26.58,33.57,59.91,33.57h.81c18.36-.14,38.25-13.33,55.01-26.4,4.39-3.43,8.57-6.84,12.44-10.01,7.97-6.53,14.86-12.16,18.41-13.33,3.87-1.27,8.23-2.23,12.45-3.15.77-.17,1.51-.33,2.22-.48,1.13-.26,2.19-.51,3.18-.75,5.52-1.34,8.81-2.56,9.93-4.74.48-.93.5-1.96.07-2.98-1.15-2.71-1.32-6.12-1.26-8.52,2.4,1.64,5.86,2.75,9.43.71,2.04-1.16,2.64-2.74,2.78-3.86.16-1.24-.14-2.49-.64-3.63,2.2.68,4.77,1.06,6.97.3,1.82-.62,3.18-1.98,3.93-3.91,3.82-9.84,5.64-36.92-19.31-63.86,16.54-4.67,25.58-22.62,25.98-23.42l.06-.13c16.03-42.06,2.68-53.65,2.1-54.12ZM156.54,84.53c-7.08-10.36-10.13-21.91-9.13-34.54,7.8,1.05,28.65,5.84,47.45,27.41,2.31,2.65,2.11,6.61-.44,9.01l-2.75,2.58c-4.11,3.86-9.35,8.76-14.85,14.17-3.2-1.87-13.18-8.26-20.28-18.63ZM382.2,110.56c-.59,1.15-9.87,18.74-25.64,22.2-5.31-5.36-11.7-10.69-19.38-15.86,2.41-5.36,15.16-29.36,52.5-36.59-.52,7.44-2.56,17.32-7.48,30.25ZM297.62,253.12l.43-3.27c-16.35,12.85-36.87,26.87-54.74,27.01-32.48.24-45.62-14.49-58.26-32.31-13.48-19.01-20.6-27.32-30.47-35.56-.94-.78-1.72-1.72-2.36-2.77-.77-.03-1.54-.05-2.3-.08-.21.28-.43.58-.66.9.86,1.62,1.98,3.06,3.4,4.25,9.64,8.05,16.63,16.23,29.95,35,12.55,17.69,26.58,33.57,59.91,33.57h.81c18.36-.14,38.25-13.33,55.01-26.4-.46-.21-.72-.34-.72-.34Z"/>
  <path class="cls-1" d="M375.1,168.54c3.93,13.91,1.95,25.37.35,29.49-.43,1.11-1.12,1.81-2.1,2.15-2.96,1.02-7.88-1.29-9.52-2.26l-10.57-6.27,8.75,8.63c.86.85,3.26,3.71,3.01,5.69-.06.41-.25,1.04-1.3,1.64-4.18,2.38-7.89-2.02-8.05-2.2l-2.16-2.65-.48,3.38c-.05.31-1.06,7.63,1.25,13.06.11.26.06.35.02.42-.87,1.69-7.76,3.2-13.3,4.42-4.3.94-8.74,1.91-12.75,3.23-4.08,1.35-10.83,6.87-19.37,13.85-17.31,14.16-43.47,35.57-65.57,35.74-13.72.1-23.99-2.47-32.23-6.82-11.26-5.94-18.73-15.2-26.03-25.49-13.48-19.01-20.6-27.32-30.47-35.56-7.62-6.36-4.65-22.7-3.2-28.82t.01-.02c.36-1.33-.43-2.7-1.76-3.06l-.51-.14c-.06.19-.35,1.16-.71,2.68-.72,2.56-1.33,3.97-1.74,4.75-4.93-15.64,5.46-35.54,9.54-42.47.85-1.43.44-3.26-.93-4.2-1.3,1.87-2.97,3.7-4.66,5.33-1.68,1.63-3.37,3.06-4.69,4.12,3.04-14.04,34-43.06,47.79-55.98l2.75-2.58c3.74-3.52,4.02-9.3.66-13.17-19.71-22.6-41.17-27.43-49.41-28.47.84-6.59,2.76-13.47,5.75-20.61,2,.04,13.79,3.01,73.62,48.39l44.7,27.62,35.73-6.48.32-.31c.46-.44,45.72-43.23,77.53-35.48.92,1,4.59,5.7,4.43,17.14-44.24,8.27-55.78,39.41-55.89,39.73l-.4,1.11.98.64c21.65,14.32,35.31,31.08,40.61,49.83Z"/>
  <path class="cls-21" d="M389.68,80.31c-.52,7.44-2.56,17.32-7.48,30.25-.59,1.15-9.87,18.74-25.64,22.2-5.31-5.36-11.7-10.69-19.38-15.86,2.41-5.36,15.16-29.36,52.5-36.59Z"/>
  <path class="cls-9" d="M194.42,86.41l-2.75,2.58c-4.11,3.86-9.35,8.76-14.85,14.17-3.2-1.87-13.18-8.26-20.28-18.63-7.08-10.36-10.13-21.91-9.13-34.54,7.8,1.05,28.65,5.84,47.45,27.41,2.31,2.65,2.11,6.61-.44,9.01Z"/>
  <path class="cls-3" d="M375.1,168.54c3.93,13.91,1.95,25.37.35,29.49-.43,1.11-1.12,1.81-2.1,2.15-2.96,1.02-7.88-1.29-9.52-2.26l-10.57-6.27,8.75,8.63c.86.85,3.26,3.71,3.01,5.69-.06.41-.25,1.04-1.3,1.64-4.18,2.38-7.89-2.02-8.05-2.2l-2.16-2.65-.48,3.38c-.05.31-1.06,7.63,1.25,13.06.11.26.06.35.02.42-.87,1.69-7.76,3.2-13.3,4.42-4.3.94-8.74,1.91-12.75,3.23-4.08,1.35-10.83,6.87-19.37,13.85-17.31,14.16-43.47,35.57-65.57,35.74-13.72.1-23.99-2.47-32.23-6.82,75.3-2.1,93.23-83.34,112.15-78.11,19.41,5.36,30.64-6.64,29.46-20.17-.91-10.33-22.05-41.92-32.01-56.3-2.89-4.18-2.03-9.89,1.98-13.01,7.6-5.92,20.67-15.48,36.06-24.14,24.51-13.78,31.08-1.08,31.08-1.08-44.24,8.27-55.78,39.41-55.89,39.73l-.4,1.11.98.64c21.65,14.32,35.31,31.08,40.61,49.83Z"/>
  <path class="cls-6" d="M492.47,462.24c-7.6.56-35.54,2.73-58.2,5.72-3.38-1.8-8.85-3.57-17.14-5.22-.81-.69-1.64-1.43-2.49-2.21-13.28-12.26,5.36-19.15,5.36-19.15,0,0-13.28,1.53-19.15-11.49-4.68-10.39,7.7-18.35,12.89-21.14,13.24-.16,28.02,2.47,43.64,9.98.23.11,23.23,11.73,35.09,43.51Z"/>
  <path class="cls-16" d="M434.27,467.96c-2.15.29-4.26.58-6.29.88-.62.09-1.23.18-1.84.27-.06.01-.11.02-.17.03-2.54-1.49-5.5-3.56-8.84-6.4,8.29,1.65,13.76,3.42,17.14,5.22Z"/>
  <path class="cls-4" d="M425.97,469.14c-.81.12-1.6.24-2.38.37-18.81,3.01-49.68-1.63-68.19-10.17.06-.24.11-.49.16-.74.08-.35.16-.71.22-1.07.09-.43.16-.87.23-1.31.07-.41.14-.82.19-1.24.05-.37.1-.74.14-1.12,0-.08.02-.17.03-.25.04-.36.07-.72.1-1.08.02-.16.03-.31.04-.47.03-.34.05-.69.07-1.04.01-.21.02-.41.03-.62.02-.32.03-.65.04-.98.03-.98.03-1.98,0-2.98-.02-.77-.05-1.53-.09-2.3-.03-.49-.05-.98-.08-1.47-.02-.27-.04-.54-.06-.81-.05-.76-.12-1.52-.19-2.27-.03-.38-.07-.76-.12-1.14-.04-.38-.09-.76-.13-1.13-.07-.6-.15-1.2-.23-1.8-.07-.56-.16-1.12-.25-1.69-.03-.23-.07-.45-.1-.67-.09-.58-.2-1.17-.31-1.76-.01-.12-.04-.23-.06-.35-.06-.35-.13-.71-.21-1.07-.01-.07-.02-.13-.04-.2-.05-.27-.1-.54-.15-.81,2.11-1.61,7-5.11,14.1-8.74l4.93-3.17s-8.55,36.06,41.23,45.25c.77.14,1.52.28,2.24.43,3.34,2.84,6.3,4.91,8.84,6.4Z"/>
  <path class="cls-7" d="M244.37,493.67c-4.63-4.55-8.09-8.45-10.33-11.65-.96-1.36-1.69-2.59-2.2-3.69l-.24-.52-.52-.22c-8.82-3.86-16.89-9.33-23.99-16.27l-.56-.55-.76.14c-.86.16-1.79.34-2.78.53-10.93,2.19-29.02,6.79-44.42,15.38-17.63,9.86-27.18,22.24-28.48,36.91-.02.21-.04.42-.06.64-.07.95-.1,1.92-.1,2.89,0,1.71.1,3.46.32,5.23.62,5.1,5.88,8.58,15.61,10.33,4.6.83,10.14,1.22,16.23,1.22,31.44,0,77.64-10.49,85.69-26.05,1.72-3.32,2.52-8.5-3.41-14.32ZM245.11,506.61c-7.11,13.74-52.02,24.72-83.44,24.49.08-.22.15-.44.22-.66,2.15-6.21,6.01-11.76,10.9-16.17-6.42,4.06-11.88,9.79-15.08,16.75-4.1-.16-7.91-.54-11.31-1.15-5.71-1.03-12.62-3.2-13.17-7.74-.2-1.6-.29-3.16-.29-4.68,0-.5.01-.99.03-1.48.74-1.64,2.17-3.23,3.29-4.71,3.64-4.78,8.75-8.44,14.63-9.88-6.42.52-12.38,3.57-17.02,8,7.21-30.51,54.66-42.16,71.68-45.37.27.26.55.52.83.78.47.44.94.87,1.42,1.3.33.29.66.59.99.87,3.07,2.67,6.29,5.09,9.65,7.25.97.62,1.96,1.23,2.96,1.82.04.02.09.05.13.07,1.08.63,2.17,1.24,3.28,1.81,1.21.63,2.43,1.23,3.67,1.79.29.14.59.28.89.41,2,3.97,6.33,9.25,12.9,15.7,3.76,3.7,4.69,7.23,2.84,10.8Z"/>
  <path class="cls-7" d="M342.14,297.81c5.66-6.34,10.76-13.2,14.44-20.87,0,0,.2.02.2.02.04.55.04,1.12.03,1.69-.46,3.92-2.81,7.28-5.36,10.12-2.81,3.33-5.87,6.39-9.17,9.18,0,0-.14-.14-.14-.14h0Z"/>
  <path class="cls-7" d="M339.09,240.29c9.74,4.01,17.73,12.83,16.89,23.93-.29,4.3-1.16,8.64-3.09,12.52-2.19,4.39-5.47,8.45-9.88,10.71,0,0-.1-.17-.1-.17,3.65-3.12,6.32-7.11,8.16-11.38,1.41-3.18,2.41-6.63,2.97-10.07,1.12-5.77-.31-11.81-3.99-16.49-2.87-3.77-6.78-6.79-11.05-8.86,0,0,.07-.19.07-.19h0Z"/>
  <path class="cls-15" d="M264.53,231.09c0,10.81-9.72,21.86-37.11,19.57s-39.25-21.37-39.25-32.18,10.5-26.39,38.18-20.17c34.84,7.83,38.18,21.97,38.18,32.78Z"/>
  <path class="cls-10" d="M226.98,216.76c0,4.2-6.06,6.68-13.4,7.6-15.45,1.91-13.4-3.4-13.4-7.6s1.4-10.53,13.4-7.6c7.19,1.76,13.4,3.4,13.4,7.6Z"/>
  <path class="cls-15" d="M202.56,200.37l-.96-.29c2.83-9.38,19.66-20.61,20.37-21.08l.55.83c-.17.11-17.24,11.5-19.97,20.54Z"/>
  <path class="cls-15" d="M222.44,262.69c-.23-.01-5.78-.46-9.55-15.37l.97-.25c3.56,14.06,8.64,14.62,8.64,14.62l-.06,1Z"/>
  <path class="cls-5" d="M309.19,97.3c1.06-.46,1.95-1.28,2.54-2.39.55-1.05.73-2.21.56-3.31-.15-1.03-.62-2.02-1.37-2.81-.05-.06-.1-.12-.16-.17-7.77-7.59-27.67-25.39-44.67-26.95-10.54-.97-25.3,4.53-37.59,10.37-1.03.49-2.04.98-3.03,1.47-7.55,3.74-13.86,7.41-17.18,9.41-1.07.65-1.6,1.86-1.37,3.09.24,1.22,1.18,2.13,2.39,2.33,4.25.7,13.13-1.55,19.61-3.18,2.13-.54,4.52-1.14,5.41-1.27-6.78,5.03-21.31,16.67-21.82,24.4-.12,1.75.47,3.3,1.68,4.47,1.26,1.2,2.76,1.76,4.46,1.65,5.7-.37,12.31-8.63,16.69-14.09.53-.66,1.09-1.36,1.6-1.98.01.55.03,1.16.05,1.78.55,19.62,1.62,27.18,4.11,28.89.66.45,1.43.55,2.17.29,4.39-1.55,7.12-17.04,8.16-24.35.84,2.07,1.86,4.78,2.75,7.16,5.48,14.64,7.91,19.93,10.57,19.93.26,0,.51-.05.77-.14,4.15-1.45,3.54-15.42,3.13-20.89,13.41,14.54,27.3,18.6,30.12,16.35.48-.39.77-.95.81-1.58.1-1.58-1.37-3.22-3.81-5.73-.33-.34-.73-.76-1.1-1.16,1.16.1,2.65.27,4.04.42,10.04,1.12,17.91,1.76,20.39-.91,3.22-3.48-4.12-13.93-9.91-21.1ZM316.9,116.36c-1.65,1.78-13.01.51-17.86-.03-4.68-.52-6.26-.66-7.15-.38-.65.2-1.12.68-1.28,1.31-.36,1.4.91,2.71,3.01,4.88.74.76,1.95,2.01,2.58,2.87-3.42-.17-15.22-4.01-27.46-18.43l-.35-.41-.52-.1c-.49-.09-1.22.01-1.77.56-.61.6-.81,1.51-.6,2.71.47,2.69.85,16.91-.74,19.45-1.89-2.02-5.68-12.14-7.77-17.73-2.96-7.9-4.09-10.74-5.15-11.61-.33-.27-.73-.41-1.14-.41-.24,0-.48.05-.7.15-.48.22-1.05.74-1.09,1.94-.26,4.14-3.65,22.79-6.32,25.14-1.3-1.98-2.17-10.79-2.61-26.23-.07-2.75-.12-4.21-.19-4.84-.11-.89-.71-1.37-1.23-1.52-1.43-.4-2.3.69-5.56,4.76-3.81,4.75-10.17,12.69-14.54,12.98-.85.06-1.54-.21-2.19-.83-.58-.56-.83-1.23-.77-2.11.36-5.45,11.59-15.55,21.1-22.54.94-.69,1.35-1.86,1.05-2.98-.28-1.1-1.19-1.9-2.32-2.04-.19-.03-.4-.04-.64-.05-.88-.03-2.62.4-6.5,1.38-5.78,1.46-14.47,3.65-18.21,3.16,2.73-1.64,9.77-5.77,18.34-9.91,1.05-.52,2.13-1.03,3.22-1.53,11.46-5.31,24.89-10.17,34.28-9.31,16.49,1.51,36.96,20.36,42.84,26.1.91.89.81,2,.42,2.75-.19.35-.89,1.45-2.39,1.16l-4.2-.93-.2-.04.06.07,2.21,2.65.55.65c7.16,8.54,12.77,17.74,11.79,19.29Z"/>
  <path class="cls-20" d="M316.9,116.36c-1.65,1.78-13.01.51-17.86-.03-4.68-.52-6.26-.66-7.15-.38-.65.2-1.12.68-1.28,1.31-.36,1.4.91,2.71,3.01,4.88.74.76,1.95,2.01,2.58,2.87-3.42-.17-15.22-4.01-27.46-18.43l-.35-.41-.52-.1c-.49-.09-1.22.01-1.77.56-.61.6-.81,1.51-.6,2.71.47,2.69.85,16.91-.74,19.45-1.89-2.02-5.68-12.14-7.77-17.73-2.96-7.9-4.09-10.74-5.15-11.61-.33-.27-.73-.41-1.14-.41-.24,0-.48.05-.7.15-.48.22-1.05.74-1.09,1.94-.26,4.14-3.65,22.79-6.32,25.14-1.3-1.98-2.17-10.79-2.61-26.23-.07-2.75-.12-4.21-.19-4.84-.11-.89-.71-1.37-1.23-1.52-1.43-.4-2.3.69-5.56,4.76-3.81,4.75-10.17,12.69-14.54,12.98-.85.06-1.54-.21-2.19-.83-.58-.56-.83-1.23-.77-2.11.36-5.45,11.59-15.55,21.1-22.54.94-.69,1.35-1.86,1.05-2.98-.28-1.1-1.19-1.9-2.32-2.04-.19-.03-.4-.04-.64-.05-.88-.03-2.62.4-6.5,1.38-5.78,1.46-14.47,3.65-18.21,3.16,2.73-1.64,9.77-5.77,18.34-9.91,1.05-.52,2.13-1.03,3.22-1.53,11.46-5.31,24.89-10.17,34.28-9.31,16.49,1.51,36.96,20.36,42.84,26.1.91.89.81,2,.42,2.75-.19.35-.89,1.45-2.39,1.16l-4.2-.93-.2-.04.06.07,2.21,2.65.55.65c7.16,8.54,12.77,17.74,11.79,19.29Z"/>
  <path class="cls-5" d="M214.84,137.97c.02-.6,0-1.21-.09-1.79-.29-3.45-2.1-6.47-4.12-9.16-2.55-3.62-5.54-6.91-8.92-9.75l-.21.21c2.67,3.39,5.03,7.03,7.08,10.8,1.26,2.76,2.41,5.32,3.8,7.9-6.91-4.7-13.69-6.49-18.78-4.92-7.76,2.39-12.21,11.41-12.21,24.75s9.95,23.5,24.18,23.5c.4,0,.8,0,1.2-.01-1.26.57-2.53,1.05-3.81,1.46-2.86.92-5.93,1.88-9.03,1.99-.62-.01-2.26-.02-2.86-.01-2.2-.13-4.53-.44-6.7-.83-1.26-.32-2.53-.62-3.81-.92l-.1.29c8.56,3.92,22.62,6.84,28.83-2.06,10.32-.5,20.72-3.58,20.72-17.49,0-8.42-7.69-18.12-15.17-23.96ZM205.57,176.51c-12.66,0-21.18-8.23-21.18-20.5s3.78-19.94,10.09-21.88c.92-.28,1.92-.42,2.99-.42,4.18,0,9.41,2.1,14.63,5.95,8.64,6.38,14.91,15.75,14.91,22.27,0,10.5-6.01,14.58-21.44,14.58Z"/>
  <path class="cls-10" d="M227.01,161.93c0,10.5-6.01,14.58-21.44,14.58-12.66,0-21.18-8.23-21.18-20.5s3.78-19.94,10.09-21.88c.92-.28,1.92-.42,2.99-.42,4.18,0,9.41,2.1,14.63,5.95,8.64,6.38,14.91,15.75,14.91,22.27Z"/>
  <path class="cls-5" d="M298.45,143.86c-6.88-3.17-16.52-1.01-24.18,2.44,3.23-2.79,6.6-5.38,10.61-6.97,2.84-1.19,6.15-2.07,9.18-1.14l.14-.26c-3.08-1.46-6.66-.9-9.82-.02-7.94,2.76-15.38,7.66-20.34,14.48-5.06,3.86-9.35,8.74-10.24,13.88-1.79,10.36,4.1,15.57,12.31,18.55,1.13,1.68,2.45,3.23,3.85,4.7,5.99,5.65,17.2,12.62,25.61,9.63l-.08-.28c-7.69,1.28-14.63-3.72-20.07-8.58-1.58-1.42-3.16-2.78-4.79-4.09,2.23.57,4.55,1.04,6.87,1.44,2.13.37,4.19.55,6.18.55,12.52,0,22.03-7.04,23.99-18.42,2.17-12.56-1.28-22.25-9.22-25.91ZM304.72,169.26c-2.01,11.63-12.74,17.84-26.71,15.43-15.01-2.59-21.52-7.02-21.52-14.95,0-.93.09-1.92.27-2.96.92-5.34,7.23-11.79,16.07-16.44,6.28-3.3,12.54-5.04,17.69-5.04,2.54,0,4.8.42,6.67,1.28,6.73,3.11,9.48,11.37,7.53,22.68Z"/>
  <path class="cls-10" d="M304.72,169.26c-2.01,11.63-12.74,17.84-26.71,15.43-15.01-2.59-21.52-7.02-21.52-14.95,0-.93.09-1.92.27-2.96.92-5.34,7.23-11.79,16.07-16.44,6.28-3.3,12.54-5.04,17.69-5.04,2.54,0,4.8.42,6.67,1.28,6.73,3.11,9.48,11.37,7.53,22.68Z"/>
  <path class="cls-15" d="M269.89,160.28c.05-.1-.07-.19-.14-.12-1.72,1.82-7.95,8.89-6,13.6,2.26,5.45,11.32,7.4,15.19,2.17,3.01-4.06-5.27-7.87-9.12-9.37-1.15-.45-1.76-1.72-1.37-2.89.28-.86.73-1.99,1.44-3.4Z"/>
  <path class="cls-15" d="M210.48,150.85c.05-.1-.07-.19-.14-.12-1.72,1.82-7.95,8.89-6,13.6,2.26,5.45,11.32,7.4,15.19,2.17,3.01-4.06-5.27-7.87-9.12-9.37-1.15-.45-1.76-1.72-1.37-2.89.28-.86.73-1.99,1.44-3.4Z"/>
  <circle class="cls-14" cx="323.62" cy="210.83" r="16.84"/>
  <circle class="cls-12" cx="168.45" cy="196.89" r="16.84"/>
</svg>