<svg id="Layer_1" data-name="Layer 1" xmlns="http://www.w3.org/2000/svg" xmlns:xlink="http://www.w3.org/1999/xlink" viewBox="0 0 566.93 566.93"><defs><style>.cls-1{fill:#231f20;}.cls-2{fill:#efe923;}.cls-3{fill:#56b947;}.cls-4{fill:#1eac4b;}.cls-5{fill:#a8cf3a;}.cls-6,.cls-9{fill:#fff;}.cls-7{fill:#59b847;}.cls-8{stroke:#000;fill:url(#linear-gradient);}.cls-8,.cls-9{stroke-miterlimit:10;}.cls-9{stroke:#231f20;}.cls-10{fill:#e61e25;}.cls-11{fill:#ef5ea2;opacity:0.7;}</style><linearGradient id="linear-gradient" x1="191.6" y1="183.84" x2="166.89" y2="111.85" gradientUnits="userSpaceOnUse"><stop offset="0.3" stop-color="#59b847"/><stop offset="0.42" stop-color="#98c93b"/><stop offset="0.44" stop-color="#a5cd39"/><stop offset="0.46" stop-color="#96c93c"/><stop offset="0.52" stop-color="#70be43"/><stop offset="0.54" stop-color="#5fb946"/><stop offset="0.97" stop-color="#59b847"/></linearGradient></defs><path class="cls-1" d="M301.37,399.4c-3.58-13.31-4.24-13.61-4.49-13.73-.84-.38-6.95-1.6-7.46-1.69a49.47,49.47,0,0,0-5.87-.09l-1.5,0a98.66,98.66,0,0,0-11.2,1.6c-3.42.7-23.6,5.85-24.45,6.07l-.61.16.29.55c.22.44,5.49,10.77,6.45,12.18.6.88,7,1.12,14.13,1.12,4.46,0,9.19-.09,12.92-.2l21.92-5.5Zm-21.88,5c-11.89.32-25.09.24-26.13-.49-.81-1.18-5-9.3-6.11-11.51,3.47-.89,20.73-5.28,23.8-5.91a99.19,99.19,0,0,1,11-1.58l1.51,0c1.85,0,4.94-.07,5.68.07,1.4.26,6.29,1.29,7.15,1.59.53.82,2.35,7,3.88,12.62Z"/><path class="cls-2" d="M300.27,399.17l-20.78,5.23c-11.89.32-25.09.24-26.13-.49-.81-1.18-5-9.3-6.11-11.51,3.47-.89,20.73-5.28,23.8-5.91a99.19,99.19,0,0,1,11-1.58l1.51,0c1.85,0,4.94-.07,5.68.07,1.4.26,6.29,1.29,7.15,1.59C296.92,387.37,298.74,393.51,300.27,399.17Z"/><path class="cls-1" d="M245.45,416c-13.32-31.46-12.4-39.14-12.39-39.21l.13-.8L210.33,383l-6.92,2.1.06.43c0,.15,2,16.15-12.53,40.87-3.51,6-1.42,9.81.95,12,3.91,3.61,11.42,5.36,19.64,5.36,9.93,0,20.89-2.55,27.8-7.41,3.73-2.63,7.51-6.73,7.7-12.63A18.06,18.06,0,0,0,245.45,416Zm-6.7,19.45c-.64.45-1.31.87-2,1.28-.47.28-1,.54-1.44.79-.67.35-1.36.67-2.07,1a41.29,41.29,0,0,1-4.38,1.64c-.87.27-1.74.52-2.63.75-.66.17-1.32.33-2,.47s-1.59.33-2.39.47a59,59,0,0,1-13.69.81l-.88-.07q-1-.08-2-.21l-1-.13-1-.16-.56-.1-.55-.11c-.46-.09-.9-.19-1.34-.3s-1-.27-1.55-.43h0l-1.14-.38-.3-.11-.69-.27q-.31-.12-.63-.27l0,0c-.22-.09-.43-.19-.64-.3a15.87,15.87,0,0,1-2.11-1.25l-.4-.3q-.39-.3-.75-.63c-3.05-2.81-3.3-6.43-.76-10.76a112.45,112.45,0,0,0,5.78-11.16c.37-.82.72-1.62,1-2.41s.64-1.57.94-2.33c.16-.42.32-.84.47-1.26.32-.85.61-1.67.88-2.47.14-.43.28-.85.41-1.27s.29-.9.42-1.35.21-.69.31-1c.22-.79.42-1.54.61-2.28.09-.34.17-.67.25-1,.37-1.58.67-3.05.9-4.4.05-.33.11-.65.15-1a41,41,0,0,0,.53-9.16l5.69-1.73L232,377.43c0,2.55,1.12,12.15,12.49,39a16.29,16.29,0,0,1,1.41,8.17C245.39,429.63,242.05,433.17,238.75,435.49Z"/><path class="cls-3" d="M238.75,435.49c-8.8,6.19-24.28,8.57-35.48,6.61-4.5-.78-8.31-2.26-10.71-4.47-3.05-2.81-3.3-6.43-.76-10.76a98.34,98.34,0,0,0,10.87-25.56c2.16-8.51,2-14,1.83-15.52L232,377.43c0,2.55,1.12,12.15,12.49,39C248.57,426,243.62,432.07,238.75,435.49Z"/><path class="cls-4" d="M247,423.68c-.36.33-.72.63-1.09.92s-.73.56-1.09.82c-8.8,6.19-24.28,8.57-35.48,6.61a2.41,2.41,0,0,1,.39-1c4.58-7,1.51-27.25-1-39.8a63.94,63.94,0,0,0,1.42-7.18c.06-.38.1-.74.14-1.09L233.19,376l-.13.8c0,.07-.93,7.75,12.39,39.21A18.06,18.06,0,0,1,247,423.68Z"/><path class="cls-1" d="M296,377.68l-.4-.67L279,401.15l0,.21a29.91,29.91,0,0,1-2,16.38c-1.66,3.85-3,9.17-.16,12.62,1.84,2.22,5.18,3.33,10,3.33A55.9,55.9,0,0,0,299.06,432c4.59-1.05,7.75-3.55,9.4-7.43C314.87,409.59,296.75,379,296,377.68Zm11.57,46.54c-1.52,3.57-4.45,5.87-8.71,6.85-11.17,2.56-18.3,2.11-21.19-1.35-2.55-3.06-1.23-8,.32-11.58a30.69,30.69,0,0,0,2.11-16.77l15.44-22.5C298.17,383.53,313.24,410.86,307.54,424.22Z"/><path class="cls-3" d="M307.54,424.22c-1.52,3.57-4.45,5.87-8.71,6.85-11.17,2.56-18.3,2.11-21.19-1.35-2.55-3.06-1.23-8,.32-11.58a30.69,30.69,0,0,0,2.11-16.77l3.91-5.7,11.53-16.8c2.14,3.76,12.37,22.27,13.25,36.3A20,20,0,0,1,307.54,424.22Z"/><path class="cls-4" d="M308.76,415.17c-7.61,10.47-16,18.08-15.37,10.33.86-10.7-5.58-23.37-9.41-29.83l11.53-16.8C297.65,382.63,307.88,401.14,308.76,415.17Z"/><path class="cls-5" d="M234.9,451.58c-9.45,0-21.5-3.4-26.27-9.89-2.55-3.47-2.63-7.28-.23-11.32,7.85-13.25,12.73-34.15,13.68-38.45A5.82,5.82,0,0,1,219.3,396a4.58,4.58,0,0,1-2.05.46,7,7,0,0,1-2.73-.61c-.28-.05-.56-.1-.85-.17-7.9-1.67-22-8.72-27.4-37.28-2.74-14.49.06-19.81,3.62-26.54A54.2,54.2,0,0,0,195.12,319a57.44,57.44,0,0,0,1.36-7.63c1.12-9.75,1.07-22-.17-36.54l-.09-1c-.07-.82-.14-1.61-.22-2.39s-.14-1.39-.21-2.05c-.76-7.37-1.54-12.51-1.69-13.47l-7.33-5-7.11-4.83-7.14-4.84,27.71-28.85.12-.11,10.43-10.88.35.53a64.6,64.6,0,0,1,6.3,12.09l0,.11a30.86,30.86,0,0,1,1.47,5.16,16.17,16.17,0,0,1,.26,4.72c0,.26-.07.49-.11.72l0,.19a3.15,3.15,0,0,1-.09.42c-.07.29-.13.63-.19,1-.67,4.34-.69,14.23-.06,29.43l.14,3.29c.59,13,1.42,24.92,1.46,25.41,1,9.12,4.14,13.05,6.57,14.74a7.16,7.16,0,0,0,3.89,1.42c5.65.35,11.13.76,16.35,1.22,3.34.3,6.54.61,9.62.93,18.69,2,34.6,4.67,47.3,8,4.35,1.15,8.3,2.37,11.72,3.61a60.45,60.45,0,0,1,13.74,6.6,41,41,0,0,0,3.73,2.28,48.8,48.8,0,0,0,8,3.51c15.48,5.17,24.78,13,31.57,18.81a67.93,67.93,0,0,0,7.12,5.56c6.81,4.28,13.09,6.45,18.64,6.45a19.51,19.51,0,0,0,6.15-1c8.9-3,12.28-11.67,12.31-11.76,9.18-24.27,22.6-25.41,28.34-25.9l.23,0c.45,0,.86-.07,1.22-.13a12.62,12.62,0,0,1,1.51-.1c5,0,9.57,3.16,10.42,7.2,1,4.58-3.1,8.57-11.16,10.93-12.71,3.73-20.51,13.94-22.59,22.4A60.87,60.87,0,0,1,417.79,377c-8,12.79-17.44,19-29,19a39.4,39.4,0,0,1-6.17-.52,53.54,53.54,0,0,1-15-4.9l-.1-.05-.12-.06a69.48,69.48,0,0,0-29.74-6.68h-1.65l-2.31,0a6.49,6.49,0,0,1-2.45-.25c-1-.5-2-5.37-2-5.42a17.23,17.23,0,0,0,.83,5.55,25.87,25.87,0,0,0,1.87,4.48c.83,1.59,1.77,3.13,2.76,4.77a62.67,62.67,0,0,1,4.63,8.56l.37.89-.4.33.46-.2c2.53,6,7.23,17,2.57,26.19-3,5.9-9.5,10.06-19.35,12.36-1.21.28-2.39.53-3.52.75a59.62,59.62,0,0,1-11.27,1.25c-5.76,0-10-1.32-12.65-3.91-3-3-3.91-7.65-2.56-13.79,1.76-8,.85-29.69.65-34h0a5,5,0,0,1-1.12,3.56,2.4,2.4,0,0,1-1.77.66l-.43,0c-4.08-.49-4.55-3.05-4.6-3.83v-.08a2,2,0,0,1-.76,1.51c-1.84,1.59-6.59,1.93-10.25,1.93a52.16,52.16,0,0,1-8.27-.58c-1.76-.36-2.6-2.25-3-3.35-.12-.47-.2-.79-.23-.87a7.45,7.45,0,0,0,.24.89,32.62,32.62,0,0,1,.9,4.52,4.64,4.64,0,0,1-2.57,2.67,3.88,3.88,0,0,1-1.47.31,4.13,4.13,0,0,1-2.38-.82c-1-.71-1-2.93-1-3a63.58,63.58,0,0,0,.1,6.66,50.15,50.15,0,0,0,.68,5.55v.12a27.59,27.59,0,0,0,1.24,4.73c4.38,16.43,4.89,26.05,1.65,31.26-2.68,4.36-7.58,5.36-13.78,6.63-1.33.27-2.86.59-4.45,1a30,30,0,0,1-4.4.66C237,451.54,235.94,451.58,234.9,451.58Zm-12.64-60.5,0,.05v.07l-.12.55c.06-.25.11-.49.16-.74Z"/><path class="cls-1" d="M210.71,202.22a65.4,65.4,0,0,1,6.25,12s0,.09,0,.13a30.89,30.89,0,0,1,1.44,5.05,15.57,15.57,0,0,1,.25,4.57c0,.23-.06.46-.1.69s-.07.38-.12.57a10.58,10.58,0,0,0-.2,1.08c-.81,5.19-.57,17.52-.07,29.52,0,1.1.09,2.2.14,3.29.58,12.82,1.39,24.44,1.46,25.43,1.06,9.31,4.27,13.36,6.78,15.11a7.68,7.68,0,0,0,4.19,1.51h.05c5.54.35,11,.76,16.25,1.22q5,.45,9.61.93c18.62,2,34.51,4.65,47.22,8,4.33,1.15,8.26,2.36,11.68,3.6a60.12,60.12,0,0,1,13.63,6.54,41,41,0,0,0,3.77,2.31,48.76,48.76,0,0,0,8.13,3.54c15.39,5.14,24.65,13,31.41,18.72a68.37,68.37,0,0,0,7.17,5.6c6.92,4.34,13.25,6.53,18.91,6.53a19.71,19.71,0,0,0,6.31-1c9-3,12.48-11.68,12.62-12.05,9.07-24,22.27-25.1,27.91-25.58.56-.05,1.06-.09,1.48-.15a11.61,11.61,0,0,1,1.44-.1c4.66,0,9.11,2.95,9.93,6.8.91,4.3-3,8.07-10.81,10.35-12.91,3.79-20.82,14.16-22.94,22.76a60.34,60.34,0,0,1-7.19,17.54c-9.57,15.41-20.1,18.76-28.6,18.76a39.55,39.55,0,0,1-6.09-.51,53,53,0,0,1-14.91-4.86l-.1-.05a1.09,1.09,0,0,0-.21-.09,69.62,69.62,0,0,0-29.86-6.7h-1.66l-2.31,0a6.6,6.6,0,0,1-2.23-.2c-.42-.21-1.24-2.59-1.74-5.07a.5.5,0,0,0-.51-.4h0a.5.5,0,0,0-.46.49,18,18,0,0,0,.85,5.71l0,.05a26.1,26.1,0,0,0,1.89,4.51c.85,1.63,1.83,3.24,2.82,4.87a62.71,62.71,0,0,1,4.55,8.42l.37.89.06.14c2.53,6,7.11,16.88,2.59,25.76-2.93,5.77-9.33,9.84-19,12.1q-1.82.42-3.51.75a58.66,58.66,0,0,1-11.17,1.24c-5.64,0-9.75-1.26-12.3-3.77-2.92-2.88-3.73-7.36-2.42-13.32,1.88-8.52.74-32.44.66-34.16a.35.35,0,0,0,0-.07.49.49,0,0,0-.48-.46h-.05a.49.49,0,0,0-.46.52v0c0,.29.05,2.29-1,3.24a1.94,1.94,0,0,1-1.43.52l-.38,0c-3.72-.44-4.11-2.72-4.15-3.36v-.22a.5.5,0,0,0-1,0v.17a1.51,1.51,0,0,1-.59,1.13c-1.61,1.4-5.88,1.81-9.92,1.81a52.93,52.93,0,0,1-8.17-.57c-1.48-.3-2.24-2-2.57-3-.13-.51-.22-.86-.24-.9a.48.48,0,0,0-.47-.37h-.11a.48.48,0,0,0-.39.57,8.24,8.24,0,0,0,.26,1,33,33,0,0,1,.88,4.39,4.5,4.5,0,0,1-2.27,2.19,3.22,3.22,0,0,1-1.27.27,3.59,3.59,0,0,1-2.09-.73c-.58-.41-.78-1.82-.77-2.61a.51.51,0,0,0-.49-.51.53.53,0,0,0-.51.48,63,63,0,0,0,.1,6.71.42.42,0,0,0,0,.07,49.56,49.56,0,0,0,.68,5.54v0a28.13,28.13,0,0,0,1.27,4.91c4.33,16.22,4.86,25.73,1.7,30.82-2.58,4.18-7.4,5.16-13.5,6.41-1.43.29-2.91.6-4.43,1a28.17,28.17,0,0,1-4.32.65c-1,.08-2,.12-3,.12-9.73,0-21.3-3.46-25.87-9.69-2.42-3.29-2.49-6.91-.2-10.77,7.94-13.39,12.79-34.27,13.76-38.68q.1-.4.18-.84a.5.5,0,0,0-.4-.58h-.09a.49.49,0,0,0-.49.4s-.06.3-.17.8a5.42,5.42,0,0,1-2.54,3.81,4.09,4.09,0,0,1-1.83.41,6.27,6.27,0,0,1-2.51-.56.33.33,0,0,0-.13,0c-.27-.05-.54-.1-.82-.17-7.8-1.64-21.68-8.62-27-36.88-2.71-14.32.06-19.57,3.57-26.22a54.45,54.45,0,0,0,5.27-12.93,58.31,58.31,0,0,0,1.38-7.69c1.36-11.84.76-25.71-.17-36.64l-.09-1c-.07-.82-.14-1.61-.22-2.39s-.14-1.39-.21-2c-.82-8-1.68-13.39-1.7-13.52a.51.51,0,0,0-.21-.34l-7.33-5-7.11-4.83-6.65-4.51,21.14-22,3.27-3.4,2.89-3,.11-.11,10-10.43m.15-1.6-.87.91L200,212l-.1.09-2.9,3-3.27,3.4-21.14,22-.82.85,1,.67,6.65,4.51,7.11,4.83,7.14,4.84c.22,1.39,1,6.35,1.67,13.26.07.66.14,1.35.2,2.05s.15,1.56.22,2.37l.09,1c1.23,14.46,1.29,26.72.18,36.44a57.82,57.82,0,0,1-1.36,7.55,53.16,53.16,0,0,1-5.16,12.66l0,0c-3.6,6.82-6.45,12.21-3.67,26.88,5.46,28.84,19.76,36,27.8,37.67l.8.16a7.13,7.13,0,0,0,2.87.63,4.93,4.93,0,0,0,2.28-.52,4.62,4.62,0,0,0,1.18-.84c-1.91,7.77-6.33,23.73-12.74,34.54-2.48,4.17-2.39,8.28.25,11.87,5.1,6.94,17.4,10.1,26.68,10.1,1.06,0,2.1,0,3.1-.12a29.43,29.43,0,0,0,4.47-.68c1.58-.37,3.11-.69,4.4-.95,6.36-1.3,11.35-2.33,14.15-6.86,3.31-5.34,2.83-15.09-1.58-31.61l0-.06,0-.05a26.37,26.37,0,0,1-1.2-4.63h0l0-.12a47.75,47.75,0,0,1-.66-5.43v0l0-.12,0,.07v0c-.08-1.09-.13-2.21-.14-3.35l.23.2a4.64,4.64,0,0,0,2.67.91,4.3,4.3,0,0,0,1.66-.35,5.17,5.17,0,0,0,2.87-3v-.19a12.23,12.23,0,0,0-.22-1.54,3.5,3.5,0,0,0,1.66.86,53.17,53.17,0,0,0,8.37.59c5.45,0,9-.69,10.57-2.05a3.22,3.22,0,0,0,.32-.32c.62,1.33,2.06,2.53,4.65,2.83l.5,0a3,3,0,0,0,2.12-.8,3.21,3.21,0,0,0,.42-.48c.28,7.65.67,23.84-.79,30.43-1.39,6.33-.48,11.12,2.7,14.25,2.73,2.69,7.11,4.06,13,4.06a59.75,59.75,0,0,0,11.36-1.26c1.14-.22,2.33-.47,3.55-.76,10-2.33,16.61-6.57,19.68-12.62,4.76-9.35,0-20.57-2.56-26.6l0-.09h0l0,0-.37-.89a63.21,63.21,0,0,0-4.62-8.56l0-.07c-1-1.63-1.92-3.17-2.74-4.74a24.71,24.71,0,0,1-1.82-4.34h0a1.22,1.22,0,0,0,.45.41,6.27,6.27,0,0,0,2.68.31l2.33,0h1.64a68.72,68.72,0,0,1,29.43,6.6l.11.06h0l0,0,.1,0a54.1,54.1,0,0,0,15.2,5,40.47,40.47,0,0,0,6.25.52c11.78,0,21.41-6.29,29.45-19.23a61.11,61.11,0,0,0,7.31-17.83c2.05-8.32,9.73-18.36,22.25-22,8.35-2.45,12.54-6.64,11.51-11.52-.9-4.25-5.69-7.59-10.91-7.59a11.6,11.6,0,0,0-1.57.11c-.34.05-.74.08-1.19.12l-.25,0c-5.82.5-19.46,1.66-28.76,26.23,0,.08-3.33,8.57-12,11.45a18.94,18.94,0,0,1-6,.95c-5.46,0-11.64-2.15-18.38-6.38a67,67,0,0,1-7-5.47l-.05,0c-6.83-5.79-16.17-13.71-31.74-18.91a47.36,47.36,0,0,1-8-3.47,41.69,41.69,0,0,1-3.68-2.25A60.66,60.66,0,0,0,315.93,314c-3.43-1.25-7.39-2.47-11.76-3.63-12.73-3.36-28.67-6.07-47.38-8-3.09-.33-6.33-.64-9.62-.94-5.23-.45-10.7-.87-16.28-1.22h-.11a6.77,6.77,0,0,1-3.62-1.33c-2.34-1.63-5.34-5.45-6.36-14.4,0-.46-.86-12.25-1.45-25.37,0-.55,0-1.11-.07-1.67s-.05-1.07-.07-1.62c-.63-15.15-.61-25,.06-29.32a8.2,8.2,0,0,1,.18-1,3.12,3.12,0,0,0,.09-.44l0-.17c0-.28.08-.53.11-.77a16.27,16.27,0,0,0-.26-4.89A32.88,32.88,0,0,0,218,214l0-.05h0a.3.3,0,0,1,0-.1,66.38,66.38,0,0,0-6.34-12.17l-.69-1Z"/><path class="cls-6" d="M446.09,325.1a26.12,26.12,0,0,0-13.23,7.34,2.23,2.23,0,0,1-3.67-2.46,14.12,14.12,0,0,1,3.32-3.83c7.06-6.12,18.05-6.35,15.62-2.42A3.14,3.14,0,0,1,446.09,325.1Z"/><circle class="cls-6" cx="427.59" cy="335.15" r="1.97"/><path class="cls-7" d="M407.28,379.06a1.37,1.37,0,0,1,2,1.81c-4.25,6-10.74,12.64-18.71,12.78-13.58.25-21.56-8.27-34.17-11.3a1.6,1.6,0,0,1-.31-3c2.53-1,7.52-1.12,17.23,3.17C388.28,389.08,396.28,389,407.28,379.06Z"/><path class="cls-1" d="M304.63,310.91a3.18,3.18,0,0,0-.16-.32l-.11-.18-.2-.05c-12.75-3.37-28.69-6.08-47.37-8l-.32,0-.16.28a18.42,18.42,0,0,0-2.81,9.24c0,3.47,1.29,7.2,4.92,10.84,5.28,5.27,15.31,8.12,24.87,8.12,7,0,13.75-1.52,18.22-4.73C305.07,323.48,308.51,318.8,304.63,310.91Zm-3.71,14.31c-10.06,7.2-33.1,5.39-41.79-3.29-5.4-5.4-6.11-11.65-2.12-18.59,18.38,2,34.09,4.62,46.69,7.93l.08.16C306.57,317.12,305.58,321.88,300.92,325.22Z"/><path class="cls-3" d="M305.32,317.75a9.51,9.51,0,0,1-4.4,7.47c-8.69,6.22-27.07,5.72-37.51-.13a19.39,19.39,0,0,1-4.28-3.16c-5.4-5.4-6.11-11.65-2.12-18.59,18.38,2,34.09,4.62,46.69,7.93l.08.16A13.22,13.22,0,0,1,305.32,317.75Z"/><path class="cls-4" d="M305.32,317.75a9.51,9.51,0,0,1-4.4,7.47c-8.69,6.22-27.07,5.72-37.51-.13C280.44,329,298.92,321,305.32,317.75Z"/><path class="cls-1" d="M333.46,322.89a38.82,38.82,0,0,1-3.67-2.25A61.29,61.29,0,0,0,315.93,314l-.48-.17-.17.48c-2.25,6.65-.79,11.33,4.23,13.55a10.64,10.64,0,0,0,4.33,1c4.18,0,7.46-2.77,9.75-5.13l.46-.47Zm-13.54,4c-5.44-2.4-5.16-7.65-3.85-11.82a59.58,59.58,0,0,1,13.15,6.36c1,.72,2.1,1.38,3.19,2C328.06,327.75,324.19,328.82,319.92,326.92Z"/><path class="cls-3" d="M332.41,323.45c-4.35,4.3-8.22,5.37-12.49,3.47a7.91,7.91,0,0,1-3.14-2.35c-2.09-2.68-1.68-6.37-.71-9.47a59.58,59.58,0,0,1,13.15,6.36c.77.53,1.55,1,2.35,1.5Z"/><path class="cls-4" d="M332.41,323.45c-4.35,4.3-8.22,5.37-12.49,3.47a7.91,7.91,0,0,1-3.14-2.35c7.57,2.31,12.4.13,14.79-1.61Z"/><path class="cls-1" d="M249,303.64a11.88,11.88,0,0,0-1.51-2.1l-.13-.15-.2,0c-5.24-.45-10.71-.86-16.34-1.21a6.75,6.75,0,0,1-3.67-1.33l-.63-.44-.14.76a16.8,16.8,0,0,0-.33,3.2,9.24,9.24,0,0,0,4.72,8.57,16.8,16.8,0,0,0,8.36,2.22c3.65,0,6.92-1.19,8.82-3A5.14,5.14,0,0,0,249,303.64Zm-1.75,5.74c-3.06,3-10.22,4-16,.68-3.4-1.95-4.75-5.31-4-10a7.24,7.24,0,0,0,3.59,1.09c5.48.34,10.88.74,16,1.19a10.91,10.91,0,0,1,1.25,1.76A4.16,4.16,0,0,1,247.26,309.38Z"/><path class="cls-3" d="M247.26,309.38c-3.06,3-10.22,4-16,.68a8.61,8.61,0,0,1-1.83-1.38h0c-2-2-2.76-4.89-2.19-8.6a7.24,7.24,0,0,0,3.59,1.09c5.48.34,10.88.74,16,1.19a10.6,10.6,0,0,1,1.19,1.66l.06.1A4.16,4.16,0,0,1,247.26,309.38Z"/><path class="cls-4" d="M247.26,309.38c-3.06,3-10.22,4-16,.68a8.61,8.61,0,0,1-1.83-1.38C241,313,246.09,307.42,248.07,304l.06.1A4.16,4.16,0,0,1,247.26,309.38Z"/><path class="cls-3" d="M218.21,255.83c0,1.1.09,2.2.14,3.29-2.22,5.72-5.29,10-9.54,11.25-.26.07-.53.14-.8.19l-1.56.27a46.26,46.26,0,0,1-8.66.57q-.14-1.39-.27-2.7c-.81-7.62-1.62-12.74-1.64-12.87a.51.51,0,0,0-.21-.34L187.59,250l-6.36-4.32c4.62-9.23,10.63-19.85,14.49-26.52l2-3.4,1.9-3.23,1.1.11,1.18.11L217,214.22l1.34.13.15,5.05.13,4.74,0,.52,0,1.17-.35.48C217.47,231.5,217.71,243.83,218.21,255.83Z"/><path d="M182.32,255.87l0,0h0Z"/><path class="cls-5" d="M222.24,155.44c-2.09,0-4-4.45-4.37-5.34l-.1-.25.16-.22c.06-.09,6.06-8.69,2.9-15.74-2.13-4.75-4-7-5.23-8.13a8.54,8.54,0,0,1-2.63-4.1c-.82-3-.09-5.23,2.1-6.3a5.39,5.39,0,0,1,2.36-.51,8.78,8.78,0,0,1,6.65,3.53c3.2,4,6.18,12.65,2.16,31.64-.05.19-1.13,4-3.26,5.22A1.49,1.49,0,0,1,222.24,155.44Z"/><path class="cls-1" d="M217.43,115.35c5.3,0,14.16,7,8.32,34.57,0,0-1,3.79-3,4.88a1,1,0,0,1-.5.14c-1.86,0-3.91-5-3.91-5s6.28-8.83,3-16.24c-2.19-4.87-4.14-7.2-5.35-8.29a8,8,0,0,1-2.49-3.86c-.54-2-.59-4.53,1.84-5.72a4.83,4.83,0,0,1,2.14-.46m0-1h0a6.07,6.07,0,0,0-2.58.56c-2.4,1.18-3.24,3.62-2.37,6.88a9,9,0,0,0,2.79,4.34c1.17,1.06,3,3.29,5.1,8,3,6.79-2.79,15.16-2.85,15.25l-.32.44.21.51c.54,1.33,2.48,5.65,4.83,5.65a2.06,2.06,0,0,0,1-.26c2.26-1.26,3.37-5.07,3.49-5.5v-.06c4.06-19.18,1-28-2.26-32.05a9.29,9.29,0,0,0-7-3.72Z"/><path class="cls-5" d="M225.24,158.87c-1.22-.65-4-2.3-3.85-3.58.07-.5.5-.83,1.26-1,1.55-.3,6.2-6.19,11.84-15a1.88,1.88,0,0,1,1.58-.87,2,2,0,0,1,.55.08c1.3.4,2.78,1.75,2.53,5.92-.4,6.44-12.88,14.09-13.41,14.42l-.24.15Z"/><path class="cls-1" d="M236.07,138.94a1.45,1.45,0,0,1,.41.06c1.05.33,2.41,1.49,2.17,5.41-.38,6.25-13.17,14-13.17,14s-5.73-3.05-2.74-3.63c2.61-.51,10.29-12.28,12.17-15.22a1.37,1.37,0,0,1,1.16-.64m0-1a2.37,2.37,0,0,0-2,1.1c-6,9.4-10.35,14.55-11.52,14.78s-1.58.89-1.66,1.4c-.17,1.17,1.21,2.55,4.12,4.09l.5.27.49-.3c.54-.32,13.24-8.11,13.65-14.81.27-4.49-1.42-6-2.88-6.42a2.38,2.38,0,0,0-.7-.11Z"/><path d="M223.79,155.35c-3.12-3.73-8-7.46-11.42-9.85-18-12.6-59.54-10.84-84.55,18.14-17.13,19.84-20.51,39.17-20.34,51.89.22,15.64,5.68,27.74,10.28,33.35,6.59,8,21.8,15.3,37.82,15.3a46.71,46.71,0,0,0,19-3.86,39.66,39.66,0,0,0,7.19-4.44l0,0,.14-.11.86-.61c.65,1.19.86,3.82-1.09,9.59l-.13.38a1.22,1.22,0,0,1-.08.17c-.38.64-2.2,4-.58,6.63,1.33,2.17,4.52,3.27,9.52,3.27.73,0,1.51,0,2.32-.07,1.26-.08,2.43-.19,3.53-.32,6.24-.8,9.85-2.57,12-4.43a10.35,10.35,0,0,0,3.24-5.16c.08-.24.14-.45.21-.6.7-1.6,1.47-30.83,1.54-35.36a1,1,0,0,1,1.24-.89,2,2,0,0,0,2.05-.56c.37-.43.77-.93,1.19-1.49l.35-.48a129.69,129.69,0,0,0,7-11.72l0-.07C243.09,185.69,232,165.1,223.79,155.35Zm.52,58.18-.06.12c0,.07-3.18,6-6.09,10.31l-.12.17a31.75,31.75,0,0,1-2.24,3,1,1,0,0,1-1,.28,1.76,1.76,0,0,0-.6-.1,2,2,0,0,0-2,1.92c-.14,8.9-.95,33.62-1.46,35-.07.18-.15.41-.24.7a9.7,9.7,0,0,1-4.65,5.92,24.64,24.64,0,0,1-9.73,3c-1.08.14-2.25.25-3.5.33-5.85.35-9.63-.6-10.92-2.72s.25-5.05.57-5.58a1.92,1.92,0,0,0,.19-.41l.11-.35c.67-2,2.65-7.83.91-10.58,1-.8,2.27-1.9,3.67-3.19l.17.14a4.25,4.25,0,0,1,1.4,2.51c.78,5-3.64,11.19-1.68,14.12a2.83,2.83,0,0,0,.84.81,8.07,8.07,0,0,0,7.81.48,10.43,10.43,0,0,0,1.23-.65c2.64-1.62,5.36-4.78,7.75-10.17l.13-.3c5.33-12.3,3.56-25.58-4.79-26.25s-8.65,2.25-6.89,2.81a25.86,25.86,0,0,0,3.23.65c.26,4.47-4.95,10.4-9.36,14.57l-.54.51c-2.44,2.27-4.54,3.93-5.18,4.43l-.2.15a39.23,39.23,0,0,1-7,4.31c-20.8,9.21-46.83-.46-55.61-11.16-4.51-5.48-9.84-17.35-10.06-32.73-.17-12.54,3.17-31.61,20.1-51.21,24.63-28.55,65.9-27.85,82.44-17.61a48.76,48.76,0,0,1,11.13,9.54C230.18,165.78,241.92,185.71,224.31,213.53Z"/><path class="cls-5" d="M190.42,274.68c-4.81,0-7.86-1-9.09-3-1.49-2.44.21-5.51.57-6.1a1.48,1.48,0,0,0,.15-.31l.1-.34c.64-1.89,2.58-7.62,1-10.16l-.24-.38.34-.28c.83-.67,2.13-1.77,3.65-3.17l.29-.26.33.21a1.57,1.57,0,0,1,.24.21,4.68,4.68,0,0,1,1.54,2.78c.39,2.46-.44,5.21-1.17,7.63s-1.49,4.94-.58,6.29a2.21,2.21,0,0,0,.69.67,7.45,7.45,0,0,0,4,1.18,8.16,8.16,0,0,0,3.33-.74,9,9,0,0,0,1.17-.62c2.86-1.76,5.41-5.1,7.55-9.94l.13-.29c3.58-8.26,4-17.12,1-22a6.7,6.7,0,0,0-5.41-3.53c-.82-.07-1.6-.1-2.31-.1-3.72,0-4.84.9-4.92,1.37,0,.22.19.45.53.56a25.18,25.18,0,0,0,3.11.63l.4.06.07.41c.27,4.67-5,10.72-9.52,15l-.54.51c-2.25,2.09-4.23,3.7-5.21,4.46l-.13.1,0,0-.07.05a40.34,40.34,0,0,1-7.07,4.36,45.46,45.46,0,0,1-18.5,3.73c-16.65,0-31.57-7.56-37.7-15-4.55-5.54-10-17.51-10.17-33-.17-12.64,3.2-31.84,20.22-51.55,13.3-15.41,33.4-24.24,55.16-24.24,9.57,0,18.51,1.78,25.17,5,1,.51,1.93,1,2.75,1.51a49.29,49.29,0,0,1,11.25,9.65c10.11,12,18.7,31.82,2.2,57.89l-.08.16c-.78,1.45-3.53,6.48-6.07,10.28l-.15.2a31.72,31.72,0,0,1-2.25,3,1.48,1.48,0,0,1-1.09.49,1.54,1.54,0,0,1-.43-.06,1.19,1.19,0,0,0-.45-.08,1.47,1.47,0,0,0-1.45,1.43c-.12,7.86-.92,33.62-1.49,35.15a6.29,6.29,0,0,0-.23.67,10.6,10.6,0,0,1-1.85,3.62,11.51,11.51,0,0,1-3,2.58,25.55,25.55,0,0,1-9.93,3c-1.08.14-2.26.25-3.53.33C191.91,274.66,191.14,274.68,190.42,274.68Z"/><path class="cls-1" d="M183.36,140.23c9.81,0,18.64,1.9,24.95,5,1,.48,1.87,1,2.71,1.49a48.76,48.76,0,0,1,11.13,9.54c8,9.55,19.77,29.48,2.16,57.3l-.06.12c0,.07-3.18,6-6.09,10.31l-.12.17a31.75,31.75,0,0,1-2.24,3,1,1,0,0,1-.71.32.86.86,0,0,1-.28,0,1.76,1.76,0,0,0-.6-.1,2,2,0,0,0-2,1.92c-.14,8.9-.95,33.62-1.46,35-.07.18-.15.41-.24.7a9.87,9.87,0,0,1-1.76,3.46h0a10.88,10.88,0,0,1-2.88,2.45,24.64,24.64,0,0,1-9.73,3c-1.08.14-2.25.25-3.5.33-.79.05-1.55.07-2.26.07-4.57,0-7.54-1-8.66-2.79-1.33-2.17.25-5.05.57-5.58a1.92,1.92,0,0,0,.19-.41l.11-.35c.67-2,2.65-7.83.91-10.58,1-.8,2.27-1.9,3.67-3.19l.17.14a4.25,4.25,0,0,1,1.4,2.51c.78,5-3.64,11.19-1.68,14.12a2.83,2.83,0,0,0,.84.81,7.92,7.92,0,0,0,4.28,1.26,8.69,8.69,0,0,0,3.53-.78,10.43,10.43,0,0,0,1.23-.65c2.64-1.62,5.36-4.78,7.75-10.17l.13-.3c5.33-12.3,3.56-25.58-4.79-26.25-.87-.07-1.65-.1-2.35-.1-6.11,0-6.12,2.41-4.54,2.91a25.86,25.86,0,0,0,3.23.65c.26,4.47-4.95,10.4-9.36,14.57l-.54.51c-2.44,2.27-4.54,3.93-5.18,4.43l-.2.15a39.23,39.23,0,0,1-7,4.31,45.1,45.1,0,0,1-18.3,3.69c-15.78,0-31-7.16-37.31-14.85-4.51-5.48-9.84-17.35-10.06-32.73-.17-12.54,3.17-31.61,20.1-51.21,15.17-17.58,36.65-24.07,54.78-24.07m0-1v0c-21.91,0-42.15,8.9-55.54,24.42-17.12,19.82-20.51,39.15-20.34,51.87.22,15.67,5.68,27.76,10.29,33.36,6.2,7.55,21.28,15.21,38.08,15.21a45.75,45.75,0,0,0,18.7-3.78,40.14,40.14,0,0,0,7.17-4.41l.06-.05h0l.13-.09.82-.65c.92,1.59.56,4.83-1.07,9.64l-.11.37a1.07,1.07,0,0,1-.09.19c-.39.64-2.22,3.94-.57,6.62,1.32,2.17,4.52,3.27,9.51,3.27.73,0,1.51,0,2.32-.07,1.28-.08,2.48-.2,3.57-.34a25.84,25.84,0,0,0,10.12-3.1,11.91,11.91,0,0,0,3.1-2.63h0l.05-.05a10.87,10.87,0,0,0,1.92-3.74v0c.09-.28.16-.48.22-.65.64-1.69,1.42-28.57,1.53-35.32a1,1,0,0,1,1-.94.8.8,0,0,1,.27,0,1.94,1.94,0,0,0,.61.1,2,2,0,0,0,1.46-.65,32.06,32.06,0,0,0,2.3-3.07l.14-.21c2.57-3.82,5.32-8.86,6.1-10.31l0-.07.05-.11c16.63-26.3,7.95-46.29-2.26-58.43a49.83,49.83,0,0,0-11.37-9.75c-.84-.52-1.75-1-2.8-1.54C202,141,193,139.23,183.36,139.23Zm10,94.53c.25-.27,1.36-.89,4.38-.89.7,0,1.46,0,2.27.1a6.26,6.26,0,0,1,5,3.28c2.87,4.79,2.44,13.46-1.08,21.57a.64.64,0,0,1-.06.14c0,.06,0,.13-.08.19-2.09,4.71-4.56,8-7.34,9.69a10,10,0,0,1-1.11.58,7.56,7.56,0,0,1-3.13.7,7,7,0,0,1-3.74-1.1,1.86,1.86,0,0,1-.55-.53c-.77-1.15-.08-3.44.65-5.87s1.59-5.27,1.19-7.85a5.22,5.22,0,0,0-1.71-3.08.64.64,0,0,0-.15-.13c6.53-6.21,9.72-11.32,9.5-15.19l0-.81-.8-.12a24.44,24.44,0,0,1-3.08-.61l-.14-.07Z"/><path class="cls-8" d="M194.48,165.21s-5.5-16.91-17.55-17.93a3.26,3.26,0,0,0-3.56,3.44l.56,8.62Z"/><path class="cls-9" d="M146.36,181.29C141,200,148.13,219,162.63,222.52c13.85,3.33,32.74-8.41,35.64-26.34,3.26-20.18-2.82-38.74-17.47-41.52C169.84,152.58,151.71,162.64,146.36,181.29Z"/><path d="M166.14,208.7a4.48,4.48,0,0,1-.64.05c-1.95,0-3.89-1.14-5.53-3.27a18.67,18.67,0,0,1-3.42-8.91,24.5,24.5,0,0,1,1-11.57l.09-.24a40.69,40.69,0,0,1,7.2-12.22l.77.64a44.89,44.89,0,0,0-5.29,10.2,5.07,5.07,0,0,1,2.4-1c4.36-.56,8.65,4.88,9.59,12.14S170.5,208.14,166.14,208.7Z"/><path class="cls-10" d="M204.52,256.83l0,.81c-5.25,12.28-12.13,12.84-16,10.23a1,1,0,0,1-.6-.89c.52-3,2.13-10.26,8.92-14C201.45,250.46,203.62,254.22,204.52,256.83Z"/><ellipse class="cls-6" cx="167.3" cy="189.29" rx="1.85" ry="2.96"/><path class="cls-6" d="M142.85,159s-10.22,5.69-12.94,13a1.47,1.47,0,0,1-1.8.93c-.94-.32-1.52-1.6,1-5.9C133.57,159.61,144.7,154.83,142.85,159Z"/><path class="cls-6" d="M124.84,174.89c-8,12.34-18.65,35.09-8.47,59.09a1.35,1.35,0,0,0,2.57-.28,26.8,26.8,0,0,0,.19-5.49c-.38-7.6-9.5-11.2,8.06-52A1.34,1.34,0,0,0,124.84,174.89Z"/><path class="cls-7" d="M224.31,213.53l-.06.12c0,.07-3.18,6-6.09,10.31l-.12.17a33.41,33.41,0,0,1-2.24,3,1.06,1.06,0,0,1-1.05.25,1.64,1.64,0,0,0-.54-.08,2,2,0,0,0-2,1.92c-.14,8.9-.95,33.62-1.46,35-.07.18-.15.41-.24.7a9.87,9.87,0,0,1-1.76,3.46c-.49-6.4,1.45-27.89.9-35.73a16.07,16.07,0,0,1,2.21-9.34c24-40.14,7.14-68.17-3.6-78.09,1,.48,1.87,1,2.71,1.49a48.76,48.76,0,0,1,11.13,9.54C230.18,165.78,241.92,185.71,224.31,213.53Z"/><path class="cls-1" d="M211.52,386.22c-2.1-1.33-5-4.49-6.9-12-2.42-9.6-1-23.45.22-34.59.63-5.87,1.16-10.95,1-14.16a7,7,0,0,0-2.33-5.19c-2.35-2-5.88-2.07-8.44-1.8l-.34,0-.09.34a52.64,52.64,0,0,1-5.19,12.71c-3.46,6.55-6.44,12.2-3.66,26.87,5.45,28.83,19.76,36,27.8,37.67h2.47v-2A9.47,9.47,0,0,0,211.52,386.22Zm3.53,8.92h-1.31c-7.81-1.66-21.65-8.66-27-36.87-2.71-14.32.06-19.57,3.57-26.22a55.14,55.14,0,0,0,5.18-12.59c2-.18,5.28-.14,7.34,1.6a6.06,6.06,0,0,1,2,4.48c.17,3.14-.36,8.18-1,14-1.19,11.21-2.67,25.16-.2,34.94,1.59,6.27,4.06,10.5,7.33,12.57a8.46,8.46,0,0,1,4.07,7.1Z"/><path class="cls-2" d="M215.05,394.16v1h-1.31c-7.81-1.66-21.65-8.66-27-36.87-2.71-14.32.06-19.57,3.57-26.22a55.14,55.14,0,0,0,5.18-12.59c2-.18,5.28-.14,7.34,1.6a6.06,6.06,0,0,1,2,4.48c.17,3.14-.36,8.18-1,14-1.19,11.21-2.67,25.16-.2,34.94,1.59,6.27,4.06,10.5,7.33,12.57A8.46,8.46,0,0,1,215.05,394.16Z"/><path class="cls-6" d="M187.35,342.54s-2.55,8.16,1.66,19c0,0,.61.19.35-1.81S186.59,351.36,187.35,342.54Z"/><path class="cls-6" d="M199.06,283.46s2.4,28.8-1.27,33.05c0,0,2,.85,3.23-7.4S200.34,284.21,199.06,283.46Z"/><path class="cls-6" d="M205.53,353.87s-1.5,12.83,1.35,22.46a17.11,17.11,0,0,0,5.22,7.94c1.78,1.56,4,3.91,4.86,6.39a.4.4,0,0,0,.78-.17c-.2-1.77-1.49-4.79-6.08-9.64C211.66,380.85,206.34,377.34,205.53,353.87Z"/><path class="cls-6" d="M222.92,410l-9,20.68s-4.05,12.09,3.78,13c4.13.48-1.69-5.85.75-15.05,1.73-6.56,5.26-14,6.29-18A1,1,0,0,0,222.92,410Z"/><path class="cls-6" d="M297.79,401.59a1.85,1.85,0,0,0-1.4,1.89c.08,4.58-.86,23.11-1.5,25.19-1.18,3.91,2.81,11,6.61,11,4.63,0-.09-7-1.23-13.07C299.25,421.09,302.42,400.72,297.79,401.59Z"/><path class="cls-3" d="M341.81,428.5c-2.93,5.77-9.33,9.84-19,12.1q-1.82.42-3.51.75c27.66-5.77,17-40.36,12.14-52.93.85,1.63,1.83,3.24,2.82,4.87a62.71,62.71,0,0,1,4.55,8.42l.37.89.06.14C341.75,408.7,346.33,419.62,341.81,428.5Z"/><path class="cls-3" d="M260.17,442.94c-2.58,4.18-7.4,5.16-13.5,6.41-1.43.29-2.91.6-4.43,1a28.17,28.17,0,0,1-4.32.65c20.43-4.66,20.35-31.81,19.28-43.75a28.13,28.13,0,0,0,1.27,4.91C262.8,428.34,263.33,437.85,260.17,442.94Z"/><ellipse class="cls-11" cx="203.72" cy="222.28" rx="5.33" ry="4.53" transform="translate(-55.9 68.96) rotate(-16.93)"/></svg>