<?xml version="1.0" encoding="UTF-8"?>
<svg id="Layer_1" data-name="Layer 1" xmlns="http://www.w3.org/2000/svg" viewBox="0 0 566.93 566.93">
  <defs>
    <style>
      .cls-1 {
        fill: #fefefe;
      }

      .cls-1, .cls-2, .cls-3, .cls-4, .cls-5, .cls-6, .cls-7, .cls-8, .cls-9, .cls-10, .cls-11, .cls-12 {
        stroke-width: 0px;
      }

      .cls-2 {
        fill: #fecf08;
      }

      .cls-4 {
        fill: #e00516;
      }

      .cls-5 {
        fill: #d30505;
      }

      .cls-6 {
        fill: #1fb8ea;
      }

      .cls-7 {
        fill: #fff;
      }

      .cls-8 {
        fill: #2ac5f4;
      }

      .cls-9 {
        fill: #b974b1;
      }

      .cls-10 {
        fill: #b465a8;
      }

      .cls-11 {
        fill: #ef4f9d;
      }

      .cls-12 {
        fill: #007ec6;
      }
    </style>
  </defs>
  <g>
    <path class="cls-8" d="M428.07,458.44c-.33,0-.67,0-1-.01-24.08-1.02-45.44-14.43-61.36-26-1.67-1.26-2.93-1.81-4.04-2.29-.93-.4-1.81-.78-2.88-1.56l1.49-14.21c13.06,11.22,43.73,34.89,70.02,34.89,8.86,0,16.44-2.76,22.52-8.19,20.46-18.62,25.38-52.2,11.46-78.11-9.05-17.53-25.84-30.95-44.91-35.88-13.75-3.28-28.93-8.28-37.38-20.59-1.39-2-2.64-4.5-3.72-7.43-6.39-18.38-4.27-40.37,5.68-58.81,8.41-15.58,22.93-27.4,40.9-33.28,10.82-3.51,22.85-5.36,34.81-5.36,9.73,0,18.85,1.21,27.12,3.6,10.71,3.18,19.87,9.4,25.78,17.49,9.88,13.74,10.53,30.45,9.34,42.04-.66,12.48-7.03,24.15-17.48,32.05-9.28,7.09-20.62,10.68-33.72,10.68-17.07,0-32.81-6-43.02-11.03-2.51-1.32-4.81-2.85-6.87-4.54.55.42,1.12.83,1.71,1.23,5.87,4.18,12.81,6.57,19.53,8.88.53.16,1.05.32,1.61.49,1.48.45,3.15.96,4.38,1.25,7.56,1.99,14.86,3,21.68,3,4.08,0,8.05-.36,11.8-1.08,21.75-3.82,37.99-21.13,38.62-41.14.83-9.41.43-23.23-6.25-35.36-4.55-8.51-12.45-15.38-22.23-19.33-8.59-3.38-18.31-5.02-29.71-5.02-3.84,0-7.84.18-12.21.56-36.88,3.22-62.61,24.4-68.84,56.67-2.63,13.78-2.08,33.76,8.13,44.73,8.2,8.55,21.32,12.3,31.84,14.61,29.47,7.04,53.17,32.88,57.64,62.83,4.07,26.28-6.23,53.22-25.63,67.05-.35.2-.83.48-1.35.79-1.47.88-3.3,1.98-4.58,2.45l-.06.02-.05.03c-1.26.71-2.9,1.22-4.49,1.71-.67.21-1.33.41-1.93.62-4.29,1.02-8.47,1.55-12.34,1.55Z"/>
    <path class="cls-3" d="M459.66,202.35c9.65,0,18.7,1.2,26.89,3.56,10.56,3.14,19.58,9.25,25.39,17.21,9.75,13.56,10.39,30.07,9.21,41.53v.04s0,.04,0,.04c-.33,6.27-2.14,12.33-5.2,17.8,2.99-5.49,4.74-11.58,4.95-17.94.84-9.56.42-23.51-6.34-35.77-4.64-8.68-12.67-15.67-22.62-19.69-8.68-3.41-18.48-5.07-29.98-5.07-3.86,0-7.88.18-12.27.56-37.23,3.25-63.21,24.66-69.51,57.27-2.66,13.95-2.08,34.2,8.33,45.4,8.28,8.64,20.93,12.34,32.18,14.81,29.19,6.97,52.66,32.56,57.09,62.22,4.02,25.97-6.13,52.6-25.27,66.28-.4.23-.87.51-1.36.8-1.44.86-3.24,1.94-4.46,2.39l-.11.04-.1.06c-1.2.67-2.8,1.17-4.34,1.65-.66.21-1.29.4-1.89.61-4.29,1.02-8.38,1.53-12.17,1.53-.33,0-.65,0-.95-.01-23.89-1.01-45.13-14.35-60.94-25.84-1.76-1.33-3.05-1.89-4.2-2.39-.81-.35-1.54-.67-2.39-1.24l1.29-12.35c13.68,11.6,43.6,34.15,69.42,34.15,9.05,0,16.79-2.82,23.03-8.39,20.7-18.84,25.69-52.81,11.62-79-9.15-17.73-26.12-31.29-45.43-36.28-13.6-3.24-28.62-8.19-36.93-20.29-1.35-1.95-2.57-4.39-3.63-7.24-6.33-18.2-4.23-39.96,5.62-58.23,8.32-15.41,22.69-27.1,40.47-32.93,10.74-3.48,22.7-5.32,34.58-5.32h0M459.65,200.85c-12.06,0-24.26,1.9-35.04,5.4-17.44,5.71-32.55,17.37-41.33,33.64-9.66,17.91-12.47,40.02-5.72,59.43.96,2.6,2.22,5.31,3.81,7.6,8.59,12.51,23.76,17.54,37.81,20.89,18.94,4.9,35.5,18.19,44.44,35.51,13.16,24.5,9.63,58.15-11.3,77.2-6.36,5.68-13.91,8-22.02,8-24.69,0-54.45-21.57-70.62-35.65l-1.68,16.06c2.69,2.07,4.13,1.74,7.27,4.11,18.19,13.22,38.64,25.16,61.78,26.14.34,0,.67.01,1.01.01,4.2,0,8.52-.62,12.6-1.59,2.02-.71,4.65-1.33,6.54-2.39,1.81-.67,4.48-2.41,6.11-3.34,20.98-14.95,29.79-42.92,25.94-67.77-4.52-30.32-28.46-56.34-58.22-63.45-11.15-2.45-23.55-6.15-31.45-14.39-9.98-10.73-10.57-30.31-7.94-44.08,6.67-34.54,34.49-53.12,68.17-56.06,4.02-.35,8.09-.55,12.14-.55,10.04,0,20.06,1.28,29.43,4.96,9.13,3.69,17.18,10.27,21.85,19,5.77,10.47,7.21,23.1,6.16,34.97-.65,20.83-18.16,36.94-38.01,40.43-3.84.74-7.75,1.07-11.66,1.07-7.25,0-14.53-1.14-21.51-2.98-1.67-.4-4.22-1.22-5.88-1.71-6.71-2.31-13.58-4.67-19.39-8.81-10.62-7.12-15.26-19.42-11.76-31.77,3.23-11.7,11.99-22.14,23.36-26.69,3.07-1.18,6.66-1.96,10.17-1.96,4.79,0,9.45,1.46,12.47,5.38,2.53,3.23,3.28,7.78,1.84,11.67,1.5-3.87.81-8.46-1.7-11.77-3.09-4.12-7.95-5.65-12.94-5.65-3.46,0-6.98.73-10.02,1.85-15.36,6-26.94,22.62-25.27,39.35,1.05,10.76,9.03,19.35,18.26,24.2,13.08,6.45,28.43,11.1,43.35,11.1,12.16,0,24.04-3.09,34.17-10.83,10.29-7.78,17.08-19.54,17.77-32.57,1.51-14.65-.67-30.31-9.48-42.56-6.37-8.72-15.92-14.72-26.18-17.77-8.54-2.47-17.89-3.63-27.33-3.63h0Z"/>
  </g>
  <path class="cls-8" d="M325.55,535.11c-2.76,2.5-9.49,4.43-17.13,5.34-9.44,1.12-20.27.7-26.77-2.11-3.3-1.43-4.99-3.31-5.03-5.57-.24-13.39,22.92-18.36,23.15-18.41l.73-.15-2.27-11.6c.19-.01.38-.02.57-.04.9-.04,1.79-.11,2.69-.18.14-.01.27-.02.41-.03.72-.06,1.45-.12,2.16-.2h.01c.83-.09,1.65-.18,2.47-.28.89-.11,1.78-.22,2.66-.36.22-.03.43-.06.65-.09v12.6l.64.09c.11.02,11.15,1.86,16.25,17.87.34,1.07-.05,2.09-1.19,3.12Z"/>
  <path class="cls-8" d="M273.67,521.9c0,.36-.02.72-.07,1.08-.45,3.23-6.54,6.56-15.53,8.47-.2.04-.4.08-.61.12-11.06,2.25-24.29,1.82-27.54-3.4-1.54-2.47-1.88-4.9-1.03-7.43,2.97-8.82,19.38-15.16,19.55-15.22l.54-.21-.06-.57c-.01-.08-.76-6.86-1.01-10.47.15.05.3.1.46.15.14.06.29.11.44.15.52.18,1.04.34,1.57.5.51.16,1.03.31,1.55.46.09.02.17.05.26.07.44.12.88.24,1.33.35,1.88.49,3.8.91,5.76,1.26.44.08.88.16,1.32.22.13.03.26.05.39.07l-.3,10.48.46.21c.12.06,12.52,5.66,12.52,13.71Z"/>
  <path class="cls-3" d="M153.75,300.1c-.02-.38-.04-.75-.06-1.12-.01-.12-.01-.24-.02-.36-.03-.53-.07-1.04-.11-1.55-.01-.16-.02-.32-.04-.47-.01-.15-.02-.31-.04-.46-.02-.31-.05-.61-.08-.92-.05-.56-.11-1.11-.16-1.65-.05-.39-.1-.78-.15-1.16-.08-.64-.16-1.26-.25-1.87-.07-.44-.13-.87-.2-1.3-.03-.13-.05-.25-.07-.38-.07-.41-.14-.82-.22-1.22-.27-1.41-.57-2.75-.9-4.02-.11-.45-.23-.89-.36-1.32-.13-.43-.25-.85-.39-1.27-.07-.22-.14-.44-.22-.66-.07-.22-.14-.43-.22-.64-.31-.85-.63-1.66-.97-2.43-.17-.38-.35-.76-.53-1.13-.18-.36-.36-.72-.55-1.07-.18-.32-.36-.63-.54-.94h0c-.13-.22-.25-.43-.39-.63-.11-.17-.22-.34-.34-.51-.02-.03-.04-.07-.06-.1-.01-.02-.02-.03-.04-.05-.07-.1-.14-.21-.22-.32-.07-.1-.15-.21-.23-.31-.01-.02-.02-.04-.04-.06-.02-.02-.04-.05-.05-.07-.04-.05-.08-.09-.11-.14-.12-.15-.24-.31-.36-.45-.02-.03-.04-.05-.06-.08-.2-.24-.4-.47-.61-.7-.1-.12-.21-.23-.32-.34-.14-.15-.27-.28-.42-.43h-.01s0-.02,0-.02c-.33-.32-.66-.62-1.01-.91-.01-.01-.03-.02-.04-.03-.15-.13-.3-.25-.47-.37-.08-.07-.17-.13-.26-.2-.15-.1-.3-.21-.45-.31-.12-.09-.25-.18-.38-.25-.02-.01-.03-.02-.05-.03-.19-.13-.4-.25-.61-.36-.28-.16-.57-.31-.86-.45-.13-.07-.27-.13-.41-.2-.14-.06-.28-.11-.42-.17-.05-.03-.1-.05-.15-.06-.26-.11-.52-.2-.79-.29-.02-.01-.03-.01-.04-.01-.08-.03-.16-.06-.24-.08-.07-.02-.15-.04-.23-.07-.15-.05-.31-.09-.47-.13-.16-.04-.32-.08-.48-.12-.16-.04-.32-.07-.49-.1-.33-.07-.66-.12-1-.17-.19-.03-.37-.05-.55-.07l-.26-.04v.02c-.02.27-.03.54-.04.8-.01.23-.02.46-.02.68-.01.01,0,.02,0,.02.23.02.45.04.67.07.21.03.42.06.62.1.07.01.13.03.2.04h.03c.09.02.19.04.28.06.18.04.36.08.54.13.08.02.15.03.23.06.06.02.11.03.17.05.13.03.26.07.39.12.01,0,.03.01.04.01.19.06.37.12.55.19,0,0,.02.01.03.01.04,0,.07.03.1.04.06.01.11.03.17.06.1.04.2.08.3.12s.2.09.3.14c.19.08.37.16.55.26.1.04.2.1.29.15.07.03.14.07.2.11.03.02.07.04.1.06.22.12.44.26.66.4.01.01.02.01.03.02.1.07.22.14.32.21.01,0,.01.02.02.02.14.09.27.19.4.29.05.04.1.08.15.12h.01c.25.19.49.38.72.59.22.18.43.38.64.59l.06.06c.21.2.4.41.6.63.05.05.09.09.13.14.12.14.25.28.36.43.24.27.47.56.68.86.1.14.2.27.3.41.11.15.21.3.31.45.01.02.02.03.03.05.21.31.42.64.61.97.21.35.41.71.61,1.08.18.33.35.68.51,1.03.17.36.34.73.5,1.1.16.36.31.74.45,1.12.16.39.3.78.44,1.19.24.7.48,1.43.7,2.19.07.25.14.51.21.77.08.3.17.62.24.93.09.33.17.67.25,1.02.02.09.04.18.06.27.02.08.04.16.06.24.07.32.13.65.2.99.02.11.05.23.07.34h0c.05.23.09.46.13.68.06.28.11.55.15.84.08.4.14.82.21,1.24.02.13.04.27.06.41.06.36.11.73.16,1.1.07.49.13.99.19,1.5.04.34.07.68.11,1.03.03.26.06.53.08.8.02.08.02.16.03.25.02.18.04.37.05.56.05.56.1,1.12.14,1.69.04.54.08,1.08.11,1.63.01.11.01.22.02.34h0s.29.22.29.22c.29.21.58.42.89.64l.39.29v-.02l-.03-.44Z"/>
  <path class="cls-3" d="M238.85,160.63c-25.68,0-46.58,25.8-46.58,57.51s20.9,57.52,46.58,57.52,46.58-25.8,46.58-57.52-20.9-57.51-46.58-57.51ZM238.85,274.16c-24.86,0-45.08-25.13-45.08-56.02s20.22-56.01,45.08-56.01,45.08,25.13,45.08,56.01-20.22,56.02-45.08,56.02Z"/>
  <path class="cls-3" d="M347.92,167.2c-.1.15-.19.31-.28.45l.27-.47v.02Z"/>
  <path class="cls-3" d="M315.92,431.4h-.01s.37,2.59.37,2.59l-.36-2.59ZM299.76,429.12v.02s.01-.02.01-.02h-.01Z"/>
  <path class="cls-8" d="M355.71,380.18c-.47-.2-.96-.4-1.45-.6-.28-.12-.56-.23-.84-.34-.52-.2-1.05-.4-1.59-.6-.68-.25-1.36-.49-2.06-.73-.57-.2-1.14-.39-1.73-.58-.07-.03-.15-.05-.23-.07-.28-.1-.57-.19-.86-.27-.09-.04-.19-.07-.29-.09-3.08-.95-6.39-1.82-9.93-2.6-.45-.1-.9-.2-1.37-.3-.69-.15-1.39-.29-2.1-.43-.87-.18-1.76-.35-2.66-.51-.89-.17-1.8-.33-2.72-.48-2.83-.48-5.78-.91-8.84-1.29-.71-.09-1.43-.18-2.16-.26-.02-.8-.05-1.59-.09-2.37-.02-.58-.05-1.16-.08-1.73-.05-.9-.1-1.78-.16-2.66-.03-.44-.06-.88-.09-1.31-.05-.76-.11-1.52-.17-2.26-.12-1.38-.24-2.74-.39-4.07-.07-.75-.16-1.5-.24-2.24,0-.11-.03-.23-.04-.34-.07-.61-.15-1.21-.22-1.81-.04-.33-.08-.65-.13-.97-.07-.57-.15-1.14-.23-1.7-.05-.38-.1-.74-.16-1.11-.11-.74-.22-1.47-.33-2.18-.04-.24-.08-.49-.12-.73-.07-.47-.15-.93-.23-1.38-.23-1.38-.47-2.71-.71-3.99-.1-.5-.2-1-.29-1.48-.65-3.21-1.3-6.06-1.91-8.49-.02-.09-.04-.18-.06-.27h-.01c-.06-.24-.12-.47-.17-.69-.44-1.69-.84-3.15-1.2-4.36-.05-.16-.09-.32-.14-.47-.13-.46-.26-.87-.37-1.25-.08-.25-.15-.49-.22-.7-.07-.23-.14-.44-.2-.63.11-.16.17-.34.17-.54,0-.59-.55-1.07-1.23-1.07s-1.22.48-1.22,1.07c0,.47.35.88.84,1.02.06.19.13.4.21.64.04.13.08.27.13.41.05.15.1.31.15.48.04.15.09.3.14.46.23.75.48,1.63.76,2.63.01.02.01.04.02.06.07.28.15.56.23.85.45,1.69.96,3.68,1.49,5.94.1.43.2.88.3,1.33.1.49.21.99.33,1.51.1.49.21,1,.31,1.51.09.46.19.92.28,1.39.17.85.34,1.74.5,2.65.26,1.41.5,2.87.75,4.38.08.51.16,1.03.24,1.56.13.88.26,1.77.38,2.68.05.37.1.75.15,1.14.14,1.07.27,2.18.4,3.3.05.46.1.93.15,1.41.05.4.09.81.13,1.22.17,1.71.32,3.48.45,5.28.03.35.05.69.07,1.04.03.43.06.86.08,1.3.03.4.05.81.07,1.22.07,1.36.13,2.75.18,4.15-3.95-.44-8-.8-12.04-1.08-8.47-.58-16.32-1.08-23.53-1.47-1.11-.06-2.2-.12-3.27-.17-1.08-.05-2.15-.1-3.2-.15-1.05-.05-2.07-.09-3.09-.14-3.06-.13-5.98-.23-8.78-.3-.92-.03-1.83-.05-2.72-.06-3.9-.08-7.52-.09-10.84-.03-.47,0-.93.02-1.39.03-.46.01-.91.02-1.36.04-.67.02-1.32.04-1.96.07-.66.03-1.29.06-1.91.1-.83.05-1.63.1-2.41.16-.39.03-.77.06-1.15.09-.63.06-1.24.12-1.84.18-.24.03-.48.05-.71.08-.56.07-1.1.14-1.62.21-.36.05-.72.1-1.06.16,3.5-11.21,7.87-23.3,12.98-35.95,2.28-5.62,4.38-10.54,6.11-14.49,1.42-3.22,2.58-5.79,3.4-7.58l.21-.06c1.58-.41,3.17-.84,4.78-1.29.82-.23,1.64-.47,2.47-.71,1.18-.34,2.36-.7,3.56-1.07,1.83-.56,3.66-1.16,5.51-1.77,1.84-.62,3.7-1.26,5.57-1.93.93-.34,1.87-.68,2.81-1.02,1.86-.69,3.73-1.4,5.6-2.13,2.02-.8,4.05-1.62,6.09-2.47.65-.27,1.3-.54,1.96-.83.13-.05.25-.1.38-.16.8-.34,1.6-.68,2.4-1.03,1.21-.52,2.42-1.06,3.64-1.61,2.15-.96,4.24-1.96,6.28-2.99.39-.2.79-.4,1.18-.6,1.38-.71,2.74-1.43,4.06-2.17.44-.24.88-.49,1.3-.73.42-.23.83-.47,1.24-.71.68-.4,1.36-.8,2.03-1.21.99-.6,1.96-1.2,2.91-1.81.96-.63,1.9-1.25,2.82-1.89.46-.31.91-.63,1.36-.95.09-.06.18-.13.27-.19,1.58,17.29,8.54,50.85,19.14,71.47.86,1.68,1.91,3.52,3.01,5.48,3.36,5.93,7.48,13.23,10.14,22Z"/>
  <path class="cls-8" d="M440.54,58.49c-3.88-1.55-8.29-2.74-13.32-3.44-27.99-3.89-51.25,7.82-69.12,34.83-9.34,14.1-15.06,29.36-18.18,39.52-.24.79-.47,1.54-.68,2.26-.1.34-.19.67-.28.99-.04.13-.07.25-.11.38-.12.44-.24.86-.36,1.27-.19.71-.37,1.37-.52,1.98-.07.27-.14.52-.2.77-.19.74-.35,1.39-.48,1.94-.04.18-.08.35-.12.52-.04.16-.07.31-.1.45-.03.14-.06.26-.09.38-.05.23-.09.42-.12.55-.33,1.58-.77,3.23-1.32,4.93h.01c-.11.35-.22.7-.34,1.05-.02.08-.05.16-.08.24-.47,1.42-1,2.86-1.56,4.28-.24.6-.48,1.2-.72,1.79-.04.11-.09.22-.14.33-.29.71-.58,1.4-.88,2.08-.15.35-.3.69-.45,1.02-.07.15-.14.31-.21.47-.22.51-.45,1.01-.68,1.5-.44.96-.88,1.89-1.31,2.77-.28.59-.56,1.15-.83,1.69v.02c-1.93,3.87-3.41,6.46-3.44,6.52l-1.3-.74c.07-.12,6.89-12.16,10.37-23.06-3.62-4.19-7.91-7.73-12.74-10.51-5.43-3.1-11.13-5.85-16.97-8.14l-.26-.1c-6.26-2.44-13.7-4.75-22.06-6.25,0,0-.01,0-.01,0-15.97-2.88-35.26-2.82-55.89,4.9l-.97.37c-2.79,1.06-5.64,2.3-8.5,3.68-56.41,27.14-78.67,104.22-80.35,136.02.11.02.21.04.32.07.17.03.33.06.49.1.16.04.32.08.48.12.16.04.32.08.47.13.08.03.16.05.23.07.08.02.16.05.24.08,0,0,.02,0,.04.01.27.09.53.18.79.29.05.01.1.03.15.06.14.06.28.11.42.17.14.07.28.13.41.2.29.14.58.29.86.45.21.11.42.23.61.36.02.01.03.02.05.03.13.07.26.16.38.25.15.1.3.21.45.31.09.07.18.13.26.2.17.12.32.24.47.37.01.01.03.02.04.03.35.29.68.59,1.01.91h0s.01.02.01.02c.15.15.28.28.42.43.11.11.22.22.32.34.21.23.41.46.61.7.02.03.04.05.06.08.12.14.24.3.36.45.03.05.07.09.11.14.01.02.03.05.05.07.02.02.03.04.04.06.08.1.16.21.23.31.08.11.15.22.22.32.02.02.03.03.04.05.02.03.04.07.06.1.12.17.23.34.34.51.14.2.26.41.39.62h0c.18.32.36.63.54.95.19.35.38.7.55,1.07.18.37.36.75.53,1.13.34.77.66,1.58.97,2.43.08.21.15.42.22.64.08.22.15.44.22.66.14.42.26.84.39,1.27.13.43.25.87.36,1.32.34,1.27.64,2.61.9,4.02.08.4.15.81.22,1.22.02.13.04.25.07.38.07.43.13.86.2,1.3.09.61.17,1.23.25,1.87.05.38.1.77.15,1.16.05.54.11,1.09.16,1.65.03.31.06.61.08.92.02.15.03.31.04.46.02.15.03.31.04.47.04.51.08,1.02.11,1.55,9.11,6.59,25,14.65,49.28,16.17,5.66.37,11.64.35,17.78-.06,6.88-.45,14.04-1.39,21.29-2.79,3.86-.74,7.79-1.61,11.68-2.59t.02-.01l.54-.15c14.28-3.64,29.45-9.05,45.09-16.07,9.13-4.11,17.29-8.77,24.26-13.88,26.91-19.65,37.88-46.34,32.61-79.37-2.69,4.03-5.16,8.9-7.52,14.81l-1.4-.56c2.66-6.65,5.47-12.01,8.57-16.38l.18-.26c12.23-17.04,29.5-20.43,67.4-26.46,26.59-4.23,44.8-39.09,44.52-67.72-.1-11.05-3.26-35.13-27.43-44.81ZM256.02,142.57c2.51.58,5.07,1.35,7.22,3,2.09,1.59,3.69,4.29,2.95,6.95l-.29-.07c.09-6.07-7.29-7.39-12.09-7.65-4.33.02-8.63-.09-12.9-1.1l-.03-.3c4.84-2.01,10.12-2.18,15.14-.83ZM238.85,275.66c-25.68,0-46.58-25.8-46.58-57.52s20.9-57.51,46.58-57.51,46.58,25.8,46.58,57.51-20.9,57.52-46.58,57.52ZM309.3,279.01l-3.07,6.42c-.29.4-.59.8-.91,1.19-.64.78-1.34,1.53-2.1,2.25-.66.63-1.35,1.23-2.09,1.79-.23.19-.47.37-.71.54-1.82,1.35-3.86,2.51-6.05,3.44-.52.22-1.04.43-1.58.63-.27.1-.54.19-.81.28-3.39,1.13-7.95,2.26-12.54,2.26-1.63,0-3.27-.14-4.86-.48-6.15-1.29-10-5.25-11.14-11.46-.25-1.37-.34-2.74-.28-4.1.37-8.87,7.15-17.11,17.4-20.52,6.06-2.02,12.34-2.15,17.7-.38.81.27,1.58.57,2.32.92,4.2,1.95,7.18,5.09,8.49,9.02.87,2.62.95,5.38.23,8.2ZM406.83,148.76c.16,4.11-.02,8.65-.64,13.64l-.06.48-.46.15c-.18.05-11.92,3.6-27.38,6.03-8.08,1.27-17.19,2.24-26.2,2.24-1.18,0-2.37-.02-3.55-.05h-.04c-.2,0-.4-.01-.6-.01-.21-.01-.42-.01-.62-.02h-.01c-4.9,8.39-7.49,14.34-7.71,17.7l-1.5-.1c.23-3.54,2.7-9.34,7.53-17.69.19-.35.4-.7.61-1.06.19-.34.4-.67.6-1.01l.37-.63s.06-.09.08-.14c.04-.06.08-.13.12-.19.09-.15.18-.3.27-.45l.27-.47v.02c10.33-16.95,26.89-39.33,39.1-55.3.12-.16.25-.32.37-.48,13.28-17.37,24.27-30.89,24.38-31.02l1.16.94c-.11.14-10.98,13.53-24.18,30.78,3.55,2.03,17.12,11.49,18.09,36.64Z"/>
  <path class="cls-6" d="M467.97,103.3c.28,28.63-17.93,63.49-44.52,67.72-37.9,6.03-55.17,9.42-67.4,26.46l-.18.26c-3.1,4.37-5.91,9.73-8.57,16.38l1.4.56c2.36-5.91,4.83-10.78,7.52-14.81,5.27,33.03-5.7,59.72-32.61,79.37-6.97,5.11-15.13,9.77-24.26,13.88-15.64,7.02-30.81,12.43-45.09,16.07l-.54.15s0,0-.02.01c-3.89.98-7.82,1.85-11.68,2.59-7.25,1.4-14.41,2.34-21.29,2.79-6.14.41-12.12.43-17.78.06-24.28-1.52-40.17-9.58-49.28-16.17,42.9,2.67,79.87-4.77,109.49-16.85,14.22-5.79,26.75-12.65,37.42-19.98,24.11-16.55,38.79-35.44,42.19-49.69,5.81-24.34,15.28-29.77,35.52-43.04,7.78-5.1,17.16-11.36,28.54-20.3,40.96-32.19,33.71-90.27,33.71-90.27,24.17,9.68,27.33,33.76,27.43,44.81Z"/>
  <g>
    <path class="cls-3" d="M238.85,160.63c-25.68,0-46.58,25.8-46.58,57.51s20.9,57.52,46.58,57.52,46.58-25.8,46.58-57.52-20.9-57.51-46.58-57.51ZM238.85,274.16c-24.86,0-45.08-25.13-45.08-56.02s20.22-56.01,45.08-56.01,45.08,25.13,45.08,56.01-20.22,56.02-45.08,56.02ZM309.07,270.81c-1.54-4.62-5.38-8.15-10.81-9.94-5.36-1.77-11.64-1.64-17.7.38-11.82,3.93-19.02,14.29-17.12,24.62,1.14,6.21,4.99,10.17,11.14,11.46,1.59.34,3.23.48,4.86.48,4.59,0,9.15-1.13,12.54-2.26.27-.09.54-.18.81-.28.54-.2,1.06-.41,1.58-.63,2.19-.93,4.23-2.09,6.05-3.44.24-.17.48-.35.71-.54.74-.56,1.43-1.16,2.09-1.79.76-.72,1.46-1.47,2.1-2.25.32-.39.62-.79.91-1.19l3.07-6.42c.72-2.82.64-5.58-.23-8.2ZM307.84,278.65c-1.69,6.66-8.11,12.74-16.34,15.48-6.23,2.07-12.13,2.69-16.61,1.74-5.59-1.18-8.94-4.63-9.97-10.27-1.77-9.59,5.01-19.23,16.12-22.93,3.08-1.02,6.22-1.54,9.25-1.54,2.62,0,5.15.39,7.5,1.16,4.97,1.64,8.47,4.84,9.86,9,.42,1.27.63,2.59.63,3.94,0,1.12-.14,2.26-.44,3.42ZM309.07,270.81c-1.54-4.62-5.38-8.15-10.81-9.94-5.36-1.77-11.64-1.64-17.7.38-11.82,3.93-19.02,14.29-17.12,24.62,1.14,6.21,4.99,10.17,11.14,11.46,1.59.34,3.23.48,4.86.48,4.59,0,9.15-1.13,12.54-2.26.27-.09.54-.18.81-.28.54-.2,1.06-.41,1.58-.63,2.19-.93,4.23-2.09,6.05-3.44.24-.17.48-.35.71-.54.74-.56,1.43-1.16,2.09-1.79.76-.72,1.46-1.47,2.1-2.25.32-.39.62-.79.91-1.19l3.07-6.42c.72-2.82.64-5.58-.23-8.2ZM307.84,278.65c-1.69,6.66-8.11,12.74-16.34,15.48-6.23,2.07-12.13,2.69-16.61,1.74-5.59-1.18-8.94-4.63-9.97-10.27-1.77-9.59,5.01-19.23,16.12-22.93,3.08-1.02,6.22-1.54,9.25-1.54,2.62,0,5.15.39,7.5,1.16,4.97,1.64,8.47,4.84,9.86,9,.42,1.27.63,2.59.63,3.94,0,1.12-.14,2.26-.44,3.42ZM238.85,160.63c-25.68,0-46.58,25.8-46.58,57.51s20.9,57.52,46.58,57.52,46.58-25.8,46.58-57.52-20.9-57.51-46.58-57.51ZM238.85,274.16c-24.86,0-45.08-25.13-45.08-56.02s20.22-56.01,45.08-56.01,45.08,25.13,45.08,56.01-20.22,56.02-45.08,56.02ZM309.07,270.81c-1.54-4.62-5.38-8.15-10.81-9.94-5.36-1.77-11.64-1.64-17.7.38-11.82,3.93-19.02,14.29-17.12,24.62,1.14,6.21,4.99,10.17,11.14,11.46,1.59.34,3.23.48,4.86.48,4.59,0,9.15-1.13,12.54-2.26.27-.09.54-.18.81-.28.54-.2,1.06-.41,1.58-.63,2.19-.93,4.23-2.09,6.05-3.44.24-.17.48-.35.71-.54.74-.56,1.43-1.16,2.09-1.79.76-.72,1.46-1.47,2.1-2.25.32-.39.62-.79.91-1.19l3.07-6.42c.72-2.82.64-5.58-.23-8.2ZM307.84,278.65c-1.69,6.66-8.11,12.74-16.34,15.48-6.23,2.07-12.13,2.69-16.61,1.74-5.59-1.18-8.94-4.63-9.97-10.27-1.77-9.59,5.01-19.23,16.12-22.93,3.08-1.02,6.22-1.54,9.25-1.54,2.62,0,5.15.39,7.5,1.16,4.97,1.64,8.47,4.84,9.86,9,.42,1.27.63,2.59.63,3.94,0,1.12-.14,2.26-.44,3.42ZM238.85,160.63c-25.68,0-46.58,25.8-46.58,57.51s20.9,57.52,46.58,57.52,46.58-25.8,46.58-57.52-20.9-57.51-46.58-57.51ZM238.85,274.16c-24.86,0-45.08-25.13-45.08-56.02s20.22-56.01,45.08-56.01,45.08,25.13,45.08,56.01-20.22,56.02-45.08,56.02Z"/>
    <path class="cls-3" d="M388.74,112.12c13.2-17.25,24.07-30.64,24.18-30.78l-1.16-.94c-.11.13-11.1,13.65-24.38,31.02-.12.16-.25.32-.37.48-12.21,15.97-28.77,38.35-39.09,55.3-.1.15-.19.31-.28.45-.09.15-.18.3-.27.45-.04.06-.08.13-.12.19-.02.05-.05.09-.08.14l-.37.63c-.2.34-.41.67-.6,1.01-.21.36-.42.71-.61,1.06-4.83,8.35-7.3,14.15-7.53,17.69l1.5.1c.22-3.36,2.81-9.31,7.71-17.7h.01c.2.01.41.01.62.02.2,0,.4.01.6.01h.04c1.18.03,2.37.05,3.55.05,26.23,0,53.3-8.19,53.58-8.27l.46-.15.06-.48c4.39-35.49-13.32-47.91-17.45-50.28ZM348.66,168.87c11.36-16.02,26.79-39.36,39.16-55.55,3.34,1.86,20.29,12.99,17.18,46.1-.13,1.39-1.09,2.56-2.43,2.93-7.79,2.13-31.35,7.99-53.52,7.41,0,0-1.05.04-.39-.89Z"/>
  </g>
  <path class="cls-8" d="M328.75,96.26c-7.67,19.49-17.48,26.68-24.46,29.27-.34-.13-.68-.26-1.03-.39-1.39-.53-2.82-1.04-4.31-1.54-.75-.25-1.51-.49-2.28-.74-3.09-.97-6.38-1.86-9.84-2.63-.81-.18-1.62-.36-2.45-.52-.53-.11-1.06-.21-1.6-.31-.41-.08-.83-.15-1.25-.22-1.02-.18-2.05-.35-3.1-.5-.35-.05-.7-.1-1.05-.15-1.53-.21-3.08-.39-4.66-.53-.36-.04-.72-.07-1.08-.1-2.93-.25-5.94-.38-9.02-.38-.86,0-1.73,0-2.6.03-.58.02-1.17.04-1.76.06-2.29.09-4.61.26-6.97.52-.67.07-1.34.15-2.02.24-.76.09-1.53.2-2.3.32-.72.1-1.44.22-2.16.35-.69.11-1.39.24-2.08.37-.53.1-1.05.21-1.58.33-.53.1-1.05.22-1.58.34-.61.13-1.22.27-1.83.43-.18.04-.36.08-.54.13-.57.14-1.14.29-1.71.44-.28.07-.56.15-.85.23-.51.14-1.02.28-1.52.43-.34.1-.69.21-1.03.32-.41.11-.83.24-1.24.38-.5.15-1,.31-1.49.49-.23.07-.46.14-.69.23-.54.17-1.07.36-1.61.56-.18.06-.37.12-.55.19-.4-15.23.93-61.92,29.3-92.74,9.66-10.51,23.99-15.32,37.41-12.57,5.6,1.15,10.86,3.5,15.62,6.9,6.07,4.35,11.32,10.42,15.39,17.93,8.91,16.42,10.68,37.16,4.52,52.83Z"/>
  <path class="cls-3" d="M233.01,452.4v.02s.02-.01.02-.01t-.02-.01ZM272.67,469.67v.45s.01-.01.01-.02v-.21c0-.07,0-.15-.01-.22Z"/>
  <path class="cls-8" d="M191.76,417.35c-4.28,1.47-7.44,1.31-9.4-.47-4.4-3.99-1.89-14.8-1.86-14.9l.89-3.74-2.23,3.13c-1.89,2.65-7.7,9.49-11.94,9.36-1.32-.04-2.38-.75-3.26-2.17-1.43-2.3-1.84-4.77-1.22-7.33,1.81-7.56,11.84-13.7,11.95-13.76l1.48-.9-1.67-.47c-.07-.02-7.14-2.04-9.54-6.76-.98-1.94-1.04-4.11-.17-6.45,1.03-2.77,2.68-4.38,4.9-4.76,4.4-.76,10.09,3.29,12.71,6.41,3.05,3.62,9.16,5.11,12.5,5.66-3.26,2.01-9.37,6.82-11.1,15.39l1.47.3c1.82-8.98,9.02-13.66,11.48-15.02,1.17,5.41,6.37,32.57-4.99,36.48Z"/>
  <path class="cls-3" d="M295.84,432.25c.51.09.99.09,1.41,0-.43.08-.9.08-1.41,0ZM295.84,432.25c.51.09.99.09,1.41,0-.43.08-.9.08-1.41,0ZM331.25,463.89h-.01l.04.07s-.02-.05-.03-.07ZM272.67,469.67v.45s.01-.01.01-.02v-.21c0-.07,0-.15-.01-.22ZM268.92,483.51c.26-.97.57-1.98.93-3.04-.37,1.06-.68,2.07-.93,3.04ZM272.67,469.67v.45s.01-.01.01-.02v-.21c0-.07,0-.15-.01-.22ZM331.25,463.89h-.01l.04.07s-.02-.05-.03-.07ZM295.84,432.25c.51.09.99.09,1.41,0-.43.08-.9.08-1.41,0Z"/>
  <path class="cls-8" d="M330.24,425.99c0,.56-.03,1.13-.11,1.7-.37,2.79-1.68,5.27-3.69,6.97-1.44,1.21-2.87,1.77-4.28,1.64-1.54-.13-3.08-1.11-4.56-2.89l-1.68-2.01h-.01s.37,2.59.37,2.59c.22,1.61.37,6.1-1.6,7.57-1.01.75-2.55.66-4.58-.27-8.39-3.83-8.83-11.77-8.84-12.11l-1.49-.06h-.01v.02s-.02.15-.06.3c-.01.05-.02.1-.04.16-.02.11-.06.23-.11.37-.04.14-.1.28-.17.43-.1.23-.22.46-.38.68-.05.08-.11.15-.17.22s-.12.15-.19.21c-.13.14-.28.26-.44.36-.11.08-.23.14-.35.2-.09.04-.19.08-.29.1-.1.04-.21.06-.31.08-.43.08-.9.08-1.41,0-.26-.04-.54-.1-.82-.19-1.52-.46-3.59-3.25-3.52-7.31.05-2.76,1.23-8.36,9.04-13.29,3.24-2.05,7.61-3.98,13.5-5.54.06.03.14.08.23.12.04.03.09.05.14.08.09.05.2.11.32.18.18.1.37.21.59.34.15.09.3.18.47.28.32.19.68.41,1.06.66.19.12.38.25.59.38.2.13.41.27.62.42.31.21.64.44.98.69.22.16.45.33.68.5.12.08.23.17.35.27.23.17.46.35.7.55.11.09.23.18.35.28.83.67,1.68,1.41,2.5,2.22.12.11.24.23.35.35,1.65,1.66,3.19,3.55,4.33,5.63.06.12.13.24.18.36.16.3.31.6.44.9.14.3.27.61.38.92.12.29.22.58.31.88.33,1.06.54,2.16.61,3.29.01.25.02.51.02.77Z"/>
  <path class="cls-2" d="M271.18,469.91c.01.93.01,1.83,0,2.71-.2-.02-.39-.05-.59-.09-.42-.07-.85-.14-1.27-.22-.95-.18-1.88-.38-2.8-.59-.44-.11-.89-.22-1.33-.33-.38-.1-.77-.2-1.15-.31-.49-.14-.98-.28-1.46-.43-.43-.12-.86-.26-1.28-.41-1.28-.42-2.53-.89-3.77-1.4-.41-.16-.82-.34-1.23-.52-.41-.18-.81-.36-1.21-.56-.71-.32-1.41-.67-2.1-1.04-1.68-.86-3.31-1.82-4.91-2.87-.73-.47-1.45-.97-2.16-1.48-.35-.26-.71-.52-1.06-.79-.35-.26-.71-.53-1.05-.81-1.05-.82-2.08-1.69-3.09-2.6-.33-.3-.67-.6-1-.92-.33-.31-.66-.62-.99-.95-.66-.63-1.32-1.3-1.96-1.98-.26-.27-.52-.55-.78-.83-.38-.41-.75-.83-1.13-1.26.02-.02.03-.04.05-.06.08-.1.16-.19.24-.28.11-.11.22-.21.34-.31.01-.01.03-.02.04-.03.12-.09.23-.17.36-.24.12-.08.26-.14.39-.2,0,0,.02-.01.03-.01.07-.04.13-.06.2-.08.07-.03.14-.05.21-.06.08-.03.16-.05.24-.06.08-.02.16-.03.24-.05.15-.02.31-.03.46-.03.23,0,.45.02.68.07,19.32,3.77,28.81,12.96,31.99,16.74.54.63.84,1.44.85,2.28Z"/>
  <path class="cls-3" d="M362.02,413.76s-.07,10.06-1.68,16.06l1.68-16.06Z"/>
  <path class="cls-9" d="M370.19,393.24c-.39-1.27-2.43-5.71-12.61-10.57-.33-.16-.66-.31-1.01-.47-4.97-2.27-10.86-4.23-17.63-5.85-6.53-1.58-13.89-2.85-22.02-3.81.07,2.99.07,5.99,0,8.96.35.06.68.13,1.02.19l-.27,1.47c-.26-.05-.52-.09-.79-.14-.23,7.32-.88,14.6-1.93,21.68.89.48,2.87,1.59,5.16,3.25.3.22.6.44.91.68.52.39,1.05.81,1.58,1.26.23.19.45.38.67.57.17.15.34.3.5.46.14.12.27.24.4.36,2.1,1.96,4.11,4.3,5.53,6.97.09.17.18.34.26.51.68,1.35,1.19,2.78,1.49,4.29.04.18.07.37.1.56.03.19.06.38.08.58.03.19.05.38.06.58.08,1.01.06,2.05-.08,3.12-.21,1.58-.68,3.07-1.4,4.41-.71,1.34-1.66,2.53-2.81,3.5-1.75,1.48-3.56,2.16-5.37,2-1.42-.13-2.81-.77-4.13-1.93.02,2.16-.32,5.39-2.33,6.89-.71.53-1.56.8-2.54.8-1.04,0-2.23-.3-3.55-.91-6.17-2.81-8.43-7.68-9.25-10.71-.31.43-.7.85-1.2,1.18-1.19.78-2.68.91-4.44.38-2.32-.7-4.67-4.17-4.59-8.78,0-.25.02-.53.05-.83.1-1.25.43-2.86,1.23-4.65.19-.42.41-.85.66-1.29.7-1.25,1.66-2.57,2.95-3.89l.36-.36c.37-.36.76-.72,1.18-1.08.14-.12.28-.24.43-.36.14-.12.29-.23.44-.35.15-.12.31-.24.47-.36.15-.12.32-.24.48-.35.41-.3.83-.59,1.28-.87.28-.18.56-.36.86-.53.19-.12.38-.23.58-.35.8-.46,1.65-.91,2.55-1.34.22-.11.44-.21.67-.31.25-.12.49-.23.75-.34.48-.21.98-.43,1.5-.63.26-.11.52-.21.79-.31.27-.1.54-.2.81-.3.28-.1.56-.2.84-.3.57-.2,1.15-.39,1.76-.58.9-.28,1.84-.56,2.82-.82,1.06-7.11,1.71-14.43,1.93-21.78-.82-.14-1.67-.29-2.53-.43l.25-1.48c.79.13,1.56.26,2.32.4.06-2.93.05-5.91-.02-8.86-4-.45-8.08-.82-12.17-1.09-33.65-2.31-58.71-3.37-71.69-1.02-.24.04-.48.09-.72.13-6.77,1.34-10.09,3.59-10.42,7.06l-.02.1c.06,0,.6,1,5.03,1,.88,0,1.91-.04,3.11-.13,3.83-.3,8.7-1.07,14.47-2.28l.3,1.46c-5.57,1.18-10.33,1.94-14.13,2.28-.26.93-.5,1.85-.74,2.76-7.69,29.14-8.03,49.25-.99,59.86,2.05,3.09,4.19,5.95,6.35,8.5l.07.08c.22-.25.46-.49.72-.69.13-.1.27-.2.41-.29.14-.09.28-.17.43-.24.1-.05.2-.1.3-.14.1-.05.21-.09.31-.12.07-.03.14-.05.21-.07.11-.04.23-.07.35-.09.14-.03.27-.06.41-.07.06-.02.12-.02.19-.02.16-.02.32-.03.48-.03.31,0,.63.03.95.09,19.8,3.87,29.57,13.35,32.85,17.25.11.12.21.25.3.39.05.07.11.15.15.23.22.34.38.7.51,1.08.05.16.1.32.13.48.01.02.01.04.02.06h0c.03.14.05.28.06.42.02.11.03.23.03.35.01.07.01.15.01.22v.21c5.14-10.13,11.67-19.03,11.74-19.13l1.2.9c-.07.1-7.76,10.58-12.95,21.69-.02.05-.05.1-.07.15h0l-.04.09s-.01.02-.01.03c-.07.14-.13.28-.19.42-.19.41-.37.81-.54,1.2-.17.39-.34.78-.49,1.16-.25.58-.48,1.15-.68,1.7-.08.18-.14.36-.21.55-.21.55-.41,1.09-.58,1.61-.36,1.06-.67,2.07-.93,3.04-.12.44-.23.87-.32,1.29,0,.04-.02.09-.03.14-.11.46-.2.92-.27,1.36-.15.86-.25,1.68-.3,2.45-.01.06-.01.12-.01.17-.03.36-.04.72-.04,1.06,0,2.28.47,4.16,1.4,5.65,1.05,1.71,2.78,2.91,5.15,3.58,1.77.49,3.72.9,5.81,1.21,4.93.76,10.7,1,16.99.73,4.41-.2,8.84-.65,13.18-1.34l.87-.14c15.17-2.56,25.68-7.5,26.9-12.68,1.52-6.45-2.07-13.42-5.23-19.58-.49-.95-.97-1.89-1.42-2.8l-.32-.65-.04-.07c-1.66-3.45-2.7-6.29-2.54-8.8l1.5.1c-.15,2.32,1.04,5.24,2.43,8.12.52-.22,1.03-.44,1.54-.68.37-.17.74-.35,1.1-.53.16-.07.32-.16.48-.24.48-.24.95-.49,1.41-.75.42-.23.83-.47,1.24-.71.54-.33,1.06-.66,1.58-1.01.36-.23.71-.47,1.05-.72.42-.29.82-.59,1.22-.9.4-.3.79-.61,1.17-.93.38-.31.74-.62,1.1-.94.39-.34.76-.68,1.12-1.03.34-.33.68-.66,1.01-1,.25-.26.5-.52.73-.78.22-.23.43-.46.64-.7.02-.03.04-.05.07-.08.2-.23.4-.46.59-.7.31-.36.61-.73.9-1.1.25-.32.49-.65.73-.98.28-.37.55-.76.81-1.14.77-1.12,1.47-2.27,2.12-3.44.14-.25.28-.5.41-.75.2-.36.38-.72.56-1.08.19-.36.36-.72.53-1.09.09-.18.17-.36.25-.54.17-.37.33-.74.49-1.11.08-.19.16-.38.24-.57.15-.37.3-.74.45-1.12.45-1.18.86-2.36,1.23-3.56.08-.23.15-.46.22-.69.26-.9.5-1.8.73-2.7.09-.36.17-.72.26-1.07.09-.39.17-.78.25-1.17.09-.39.16-.77.24-1.16.07-.38.15-.77.21-1.16.07-.39.14-.77.2-1.16.06-.39.12-.77.17-1.16.07-.45.13-.89.18-1.33.05-.32.08-.65.12-.98.08-.75.16-1.5.22-2.24.02-.19.04-.39.05-.59.14-1.75.22-3.46.26-5.14,0-.34.01-.68.01-1.01.01-.83.01-1.64,0-2.43,0-.33-.01-.65-.02-.96-.01-.62-.03-1.23-.06-1.83-.02-.51-.04-1.01-.07-1.5,0-.11-.01-.22-.02-.33-.03-.61-.07-1.2-.11-1.78-.01-.03-.01-.06-.01-.09-.06-.77-.12-1.52-.19-2.24-.07-.73-.14-1.44-.22-2.12-.05-.45-.1-.89-.16-1.31-.03-.29-.07-.58-.11-.86-.07-.57-.15-1.11-.23-1.63-5.91-1.71-11.95-4.45-12.01-4.48l.62-1.36c.06.03,6.32,2.86,12.26,4.54,7.43,2.09,9.39,1.03,9.89.22.34-.54.37-1.29.11-2.17ZM327.23,385.15c-1.49-.34-3.08-.69-4.77-1.04l.31-1.47c1.7.35,3.3.71,4.8,1.05l-.34,1.46ZM303.39,379.36c1.68.22,3.3.46,4.87.69l-.23,1.49c-1.56-.24-3.17-.47-4.84-.7l.2-1.48ZM293.64,378.18c1.67.17,3.3.36,4.88.55l-.18,1.49c-1.57-.19-3.19-.37-4.86-.55l.16-1.49ZM283.87,377.27c1.66.13,3.29.27,4.89.42l-.14,1.49c-1.59-.14-3.21-.29-4.87-.42l.12-1.49ZM274.07,376.6c1.66.09,3.3.2,4.9.3l-.1,1.5c-1.6-.11-3.23-.21-4.88-.3l.08-1.5ZM264.26,376.16c1.66.06,3.3.12,4.91.19l-.07,1.5c-1.6-.07-3.23-.13-4.89-.19l.05-1.5ZM254.45,375.94c1.66.02,3.29.05,4.91.08l-.04,1.5c-1.61-.03-3.24-.06-4.89-.08l.02-1.5ZM247.02,375.9h2.5v1.5h-2.5v-1.5ZM336.68,387.59c-1.49-.43-3.07-.87-4.7-1.28l.37-1.46c1.64.43,3.24.86,4.75,1.3l-.42,1.44ZM343.63,389.86s-.78-.31-2.3-.83l.47-1.42c1.58.53,2.36.85,2.4.86l-.57,1.39Z"/>
  <path class="cls-3" d="M257.53,468.84c1.24.52,2.49.98,3.77,1.4-1.28-.42-2.53-.89-3.77-1.4ZM270.59,472.53c.2.04.39.07.59.1h0c-.2-.03-.39-.06-.59-.1Z"/>
  <path class="cls-9" d="M270.78,474.08c-1.08,2.41-1.95,4.66-2.62,6.75-.12.35-.22.7-.32,1.04-.11.34-.2.68-.29,1.01-.1.33-.18.66-.25.98-.08.33-.16.65-.22.96-.07.32-.13.63-.19.93-.06.31-.11.61-.15.91-.03.22-.06.43-.09.64,0,.04-.01.08-.01.12-.02.09-.02.17-.03.25-.17,1.45-.19,2.78-.06,4,.02.24.05.48.09.7.03.23.07.46.12.67.03.15.06.3.1.44.02.1.04.2.07.3.03.1.06.21.1.31.18.63.43,1.23.72,1.78-.72.54-1.65.79-2.58.69-.89-.1-1.77-.21-2.64-.34l-.66-.1c-5.1-.76-9.98-1.99-14.51-3.64-11.51-4.16-18.25-10.08-21.24-13.23-.95-1-1.22-2.48-.71-3.76l8.72-21.81c1.77,1.98,3.59,3.81,5.47,5.5.29.27.59.54.9.8.25.22.5.43.75.65.29.24.58.48.88.72.35.29.7.56,1.05.84.35.27.7.54,1.06.81.71.53,1.43,1.04,2.16,1.53.67.46,1.35.91,2.04,1.34.13.07.25.15.37.22.66.4,1.32.79,1.99,1.17,1.16.64,2.34,1.25,3.54,1.81.23.11.47.22.71.33,2.29,1.04,4.64,1.94,7.08,2.68.44.14.88.27,1.33.39.38.11.76.22,1.15.32.51.13,1.03.26,1.55.38.46.11.92.21,1.38.31.36.08.72.15,1.09.22.71.14,1.43.26,2.15.38Z"/>
  <path class="cls-3" d="M153.78,300.56s-.01-.02-.01-.02h0c0-.16-.01-.3-.02-.44-.02-.38-.04-.75-.06-1.12-.01-.12-.01-.24-.02-.36-.03-.53-.07-1.04-.11-1.55-.01-.16-.02-.32-.04-.47-.01-.15-.02-.31-.04-.46-.02-.31-.05-.61-.08-.92-.05-.56-.11-1.11-.16-1.65-.05-.39-.1-.78-.15-1.16-.08-.64-.16-1.26-.25-1.87-.07-.44-.13-.87-.2-1.3-.03-.13-.05-.25-.07-.38-.07-.41-.14-.82-.22-1.22-.27-1.41-.57-2.75-.9-4.02-.11-.45-.23-.89-.36-1.32-.13-.43-.25-.85-.39-1.27-.07-.22-.14-.44-.22-.66-.07-.22-.14-.43-.22-.64-.31-.85-.63-1.66-.97-2.43-.17-.38-.35-.76-.53-1.13-.18-.36-.36-.72-.55-1.07-.18-.32-.36-.63-.54-.94h0c-.13-.22-.25-.43-.39-.63-.11-.17-.22-.34-.34-.51-.02-.03-.04-.07-.06-.1-.01-.02-.02-.03-.04-.05-.07-.1-.14-.21-.22-.32-.07-.1-.15-.21-.23-.31-.01-.02-.02-.04-.04-.06-.02-.02-.04-.05-.05-.07-.04-.05-.08-.09-.11-.14-.12-.15-.24-.31-.36-.45-.02-.03-.04-.05-.06-.08-.2-.24-.4-.47-.61-.7-.1-.12-.21-.23-.32-.34-.14-.15-.27-.28-.42-.43h-.01s0-.02,0-.02c-.33-.32-.66-.62-1.01-.91-.01-.01-.03-.02-.04-.03-.15-.13-.3-.25-.47-.37-.08-.07-.17-.13-.26-.2-.15-.1-.3-.21-.45-.31-.12-.09-.25-.18-.38-.25-.02-.01-.03-.02-.05-.03-.19-.13-.4-.25-.61-.36-.28-.16-.57-.31-.86-.45-.13-.07-.27-.13-.41-.2-.14-.06-.28-.11-.42-.17-.05-.03-.1-.05-.15-.06-.26-.11-.52-.2-.79-.29-.02-.01-.03-.01-.04-.01-.08-.03-.16-.06-.24-.08-.07-.02-.15-.04-.23-.07-.15-.05-.31-.09-.47-.13-.16-.04-.32-.08-.48-.12-.16-.04-.32-.07-.49-.1-.33-.07-.66-.12-1-.17-.19-.03-.37-.05-.55-.07-.09,0-.18-.01-.26-.02-.47-.04-.95-.06-1.45-.07-12.02-.11-25.41,5.85-35.69,16.02-8.37,8.28-13.18,17.87-13.18,26.31,0,19.13,14.14,34.7,31.52,34.7s38-15.48,38-34.7c0-2.53-.05-4.97-.16-7.25ZM115.94,341.01c-16.55,0-30.02-14.89-30.02-33.2,0-8.04,4.64-17.24,12.74-25.25,9.89-9.78,22.65-15.58,34.23-15.58h.38c.49.01.95.03,1.41.07.23.02.45.04.67.07.21.03.42.06.62.1.07.01.13.03.2.04h.03c.09.02.19.04.28.06.18.04.36.08.54.13.08.02.15.03.23.06.03.01.07.01.1.02.02,0,.03.01.05.01.11.04.24.07.34.11.02.01.05.02.07.03.01,0,.03.01.04.01.07.02.14.04.2.06.12.04.24.07.35.13,0,0,.02.01.03.01.04,0,.07.03.1.04.06.01.11.03.17.06.1.04.2.08.3.12s.2.09.3.14c.19.08.37.16.55.26.1.04.2.1.29.15.07.03.14.07.2.11.03.02.07.04.1.06.22.12.44.26.66.4.01.01.02.01.03.02.1.07.22.14.32.21.01,0,.01.02.02.02.14.09.27.19.4.29.05.04.1.08.15.12h.01c.25.19.49.38.72.59.22.19.43.39.64.59l.06.06c.21.2.4.41.6.63.05.05.09.09.13.14.12.14.25.28.36.43.24.27.47.56.68.86.1.14.2.27.3.41.11.15.21.3.31.45.01.02.02.03.03.05.21.31.42.64.61.97.21.35.41.71.61,1.08.18.33.35.68.51,1.03.17.36.34.73.5,1.1.16.36.31.74.45,1.12.16.39.3.78.44,1.19.24.7.48,1.43.7,2.19.07.25.14.51.21.77.08.3.17.62.24.93.09.33.17.67.25,1.02.02.09.04.18.06.27.02.08.04.16.06.24.07.32.13.65.2.99.02.11.05.23.07.34h0c.05.23.09.46.13.68.06.28.11.55.15.84.08.4.14.82.21,1.24.02.13.04.27.06.41.06.36.11.73.16,1.1.07.49.13.99.19,1.5.04.34.07.68.11,1.03.03.26.06.53.08.8.02.08.02.16.03.25.01.08.02.16.03.25h0c.01.11.01.21.02.31.05.49.09.98.13,1.47,0,.08.01.15.01.22.04.54.08,1.08.11,1.63.01.11.01.22.02.34h0c.16,2.62.23,5.44.23,8.4,0,18.39-19.97,33.2-36.5,33.2Z"/>
  <path class="cls-4" d="M152.44,307.81c0,18.39-19.97,33.2-36.5,33.2s-30.02-14.89-30.02-33.2c0-1.53.17-3.09.49-4.69,1.4-6.8,5.69-14.07,12.25-20.56,9.89-9.78,22.65-15.58,34.23-15.58h.38c.49.01.95.03,1.41.07.23.02.45.04.67.07.21.03.42.06.62.1.07.01.13.03.2.04h.03c.09.02.19.04.28.06.18.04.36.08.54.13.08.02.15.03.23.06.06.02.11.03.17.05.13.03.26.07.39.12.01,0,.03.01.04.01.19.06.37.12.55.19,0,0,.02.01.03.01.04,0,.07.03.1.04.06.01.11.03.17.06.1.04.2.08.3.12s.2.09.3.14c.19.08.37.16.55.26.1.04.19.09.29.15.07.03.14.07.2.11.03.02.07.04.1.06.22.12.44.26.66.4.01.01.02.01.03.02.1.07.22.14.32.21.01,0,.01.02.02.02.14.09.27.19.4.29.05.04.1.08.15.12h.01c.25.19.49.38.72.59.22.19.43.39.64.59l.06.06c.21.2.4.41.6.63.05.05.09.09.13.14.12.14.25.28.36.43.23.28.46.56.68.86.1.14.2.27.3.41.11.15.21.3.31.45.01.02.02.03.03.05.21.31.42.64.61.97.21.35.41.71.61,1.08.18.33.35.68.51,1.03.17.36.34.73.5,1.1.16.36.31.74.45,1.12.15.39.3.78.44,1.19.24.7.48,1.43.7,2.19.07.25.14.51.21.77.08.3.17.62.24.93.09.33.17.67.25,1.02.02.09.04.18.06.27.02.08.04.16.06.24.07.32.13.65.2.99.02.11.05.23.07.34h0c.05.23.09.46.13.68.06.28.11.55.15.84.08.4.14.82.21,1.24.02.13.04.27.06.41.06.36.11.73.16,1.1.07.49.13.99.19,1.5.04.34.07.68.11,1.03.03.26.06.53.08.8.02.08.02.16.03.25.02.18.04.37.05.56.05.56.1,1.12.14,1.69.04.54.08,1.08.11,1.63.01.11.01.22.02.34h0c.16,2.62.23,5.44.23,8.4Z"/>
  <path class="cls-3" d="M309.07,270.81c-1.54-4.62-5.38-8.15-10.81-9.94-5.36-1.77-11.64-1.64-17.7.38-11.82,3.93-19.02,14.29-17.12,24.62,1.14,6.21,4.99,10.17,11.14,11.46,1.59.34,3.23.48,4.86.48,4.59,0,9.15-1.13,12.54-2.26.27-.09.54-.18.81-.28.54-.2,1.06-.41,1.58-.63,2.19-.93,4.23-2.09,6.05-3.44.24-.17.48-.35.71-.54.74-.56,1.43-1.16,2.09-1.79.76-.72,1.46-1.47,2.1-2.25.32-.39.62-.79.91-1.19l3.07-6.42c.72-2.82.64-5.58-.23-8.2ZM307.84,278.65c-1.69,6.66-8.11,12.74-16.34,15.48-6.23,2.07-12.13,2.69-16.61,1.74-5.59-1.18-8.94-4.63-9.97-10.27-1.77-9.59,5.01-19.23,16.12-22.93,3.08-1.02,6.22-1.54,9.25-1.54,2.62,0,5.15.39,7.5,1.16,4.97,1.64,8.47,4.84,9.86,9,.42,1.27.63,2.59.63,3.94,0,1.12-.14,2.26-.44,3.42Z"/>
  <path class="cls-3" d="M238.85,160.63c-25.68,0-46.58,25.8-46.58,57.51s20.9,57.52,46.58,57.52,46.58-25.8,46.58-57.52-20.9-57.51-46.58-57.51ZM238.85,274.16c-24.86,0-45.08-25.13-45.08-56.02s20.22-56.01,45.08-56.01,45.08,25.13,45.08,56.01-20.22,56.02-45.08,56.02Z"/>
  <path class="cls-3" d="M252.79,234.82c0,16.22-7.89,29.37-17.62,29.37s-17.62-13.15-17.62-29.37c0-9.26,2.57-21.16,6.6-26.54.47-.63.94-1.24,1.38-1.88,4.67-6.75,9.28-12.26,14.63-15.52l.07.16c.38.9.31,1.93-.18,2.77-2.14,3.7-6.83,6.45-4.98,11.65,4.87,0,9.29,3.29,12.51,8.6,3.21,5.31,5.21,12.65,5.21,20.76Z"/>
  <path class="cls-7" d="M238.85,162.13c-24.86,0-45.08,25.13-45.08,56.01s20.22,56.02,45.08,56.02,45.08-25.13,45.08-56.02-20.22-56.01-45.08-56.01ZM235.17,264.19c-9.73,0-17.62-13.15-17.62-29.37,0-9.26,2.57-21.16,6.6-26.54.47-.63.94-1.24,1.38-1.88,4.67-6.75,9.28-12.26,14.63-15.52l.07.16c.38.9.31,1.93-.18,2.77-2.14,3.7-6.83,6.45-4.98,11.65,4.87,0,9.29,3.29,12.51,8.6,3.21,5.31,5.21,12.65,5.21,20.76,0,16.22-7.89,29.37-17.62,29.37Z"/>
  <path class="cls-11" d="M308.28,275.23c0,1.12-.14,2.26-.44,3.42-1.69,6.66-8.11,12.74-16.34,15.48-6.23,2.07-12.13,2.69-16.61,1.74-5.59-1.18-8.94-4.63-9.97-10.27-1.77-9.59,5.01-19.23,16.12-22.93,3.08-1.02,6.22-1.54,9.25-1.54,2.62,0,5.15.39,7.5,1.16,4.97,1.64,8.47,4.84,9.86,9,.42,1.27.63,2.59.63,3.94Z"/>
  <path class="cls-12" d="M405,159.42c-.13,1.39-1.09,2.56-2.43,2.93-7.79,2.13-31.35,7.99-53.52,7.41-.17,0-.34,0-.51-.01h-.4l.32-.55c.07-.11.13-.22.2-.33,10.14-16.82,26.79-39.36,39.16-55.55,3.34,1.86,20.29,12.99,17.18,46.1Z"/>
  <path class="cls-3" d="M266.19,152.52l-.29-.07c.09-6.07-7.29-7.39-12.09-7.65-4.33.02-8.63-.09-12.9-1.1l-.03-.3c4.84-2.01,10.12-2.18,15.14-.83,2.51.58,5.07,1.35,7.22,3,2.09,1.59,3.69,4.29,2.95,6.95Z"/>
  <path class="cls-6" d="M328.75,96.26c-7.67,19.49-17.48,26.68-24.46,29.27-.34-.13-.68-.26-1.03-.39-1.39-.53-2.82-1.04-4.31-1.54-.75-.25-1.51-.49-2.28-.74-3.09-.97-6.38-1.86-9.84-2.63-.81-.18-1.62-.36-2.45-.52-.53-.11-1.06-.21-1.6-.31-.41-.08-.83-.15-1.25-.22,42.03-21.49,30.21-81.47,27.31-93.68,6.07,4.35,11.32,10.42,15.39,17.93,8.91,16.42,10.68,37.16,4.52,52.83Z"/>
  <path class="cls-6" d="M355.71,380.18c-.47-.2-.96-.4-1.45-.6-.28-.12-.56-.23-.84-.34-.52-.2-1.05-.4-1.59-.6-.68-.25-1.36-.49-2.06-.73-.57-.2-1.14-.39-1.73-.58-.07-.03-.15-.05-.23-.07-.28-.1-.57-.19-.86-.27-.09-.04-.19-.07-.29-.09-3.08-.95-6.39-1.82-9.93-2.6-.45-.1-.9-.2-1.37-.3-.69-.15-1.39-.29-2.1-.43-.87-.18-1.76-.35-2.66-.51-.89-.17-1.8-.33-2.72-.48-2.83-.48-5.78-.91-8.84-1.29,1.54-5.5,1.52-14.74-2.76-30.28-1.2-4.34-2.92-8-5.05-11.07h-.01c-.74-1.08-1.52-2.07-2.35-3-18.3-20.53-57.28-8.8-57.28-8.8,1.42-3.22,2.58-5.79,3.4-7.58l.21-.06c1.58-.41,3.17-.84,4.78-1.29.82-.23,1.64-.47,2.47-.71,1.18-.34,2.36-.7,3.56-1.07,1.83-.56,3.66-1.16,5.51-1.77,1.84-.62,3.7-1.26,5.57-1.93.93-.34,1.87-.68,2.81-1.02,1.86-.69,3.73-1.4,5.6-2.13,2.02-.8,4.05-1.62,6.09-2.47.65-.27,1.3-.54,1.96-.83.13-.05.25-.1.38-.16.8-.34,1.6-.68,2.4-1.03,1.21-.52,2.42-1.06,3.64-1.61,2.15-.96,4.24-1.96,6.28-2.99.39-.2.79-.4,1.18-.6,1.38-.71,2.74-1.43,4.06-2.17.44-.24.88-.49,1.3-.73.42-.23.83-.47,1.24-.71.68-.4,1.36-.8,2.03-1.21.99-.6,1.96-1.2,2.91-1.81.96-.63,1.9-1.25,2.82-1.89.46-.31.91-.63,1.36-.95.09-.06.18-.13.27-.19,1.58,17.29,8.54,50.85,19.14,71.47.86,1.68,1.91,3.52,3.01,5.48,3.36,5.93,7.48,13.23,10.14,22Z"/>
  <g>
    <path class="cls-3" d="M459.52,71.07c-7.32-9.67-18.12-15.56-32.1-17.5-28.61-3.99-52.35,7.95-70.58,35.48-8.68,13.12-14.26,27.23-17.56,37.4-2.44,7.54-3.62,12.91-3.88,14.13-.24,1.14-.54,2.31-.89,3.51-3.61-4.01-7.82-7.41-12.53-10.12-5.03-2.88-10.29-5.45-15.69-7.64,2.61-1.14,5.51-2.89,8.49-5.57.76-.67,1.53-1.41,2.3-2.22,4.5-4.7,9.08-11.61,13.07-21.74,6.31-16.06,4.51-37.29-4.6-54.08-7.47-13.79-18.85-22.88-32.03-25.58-13.93-2.87-28.8,2.12-38.81,13.01-29.08,31.59-30.13,79.48-29.69,94.31-2.98,1.12-6.03,2.43-9.09,3.9-56.93,27.4-79.44,104.99-81.19,137.17l.26.04c.18.02.36.04.55.07.34.05.67.1,1,.17-.11-.03-.21-.05-.32-.07,1.68-31.8,23.94-108.88,80.35-136.02,2.86-1.38,5.71-2.62,8.5-3.68l.97-.37c20.63-7.72,39.92-7.78,55.89-4.9,0,0,.01,0,.01,0,8.36,1.5,15.8,3.81,22.06,6.25l.26.1c5.84,2.29,11.54,5.04,16.97,8.14,4.83,2.78,9.12,6.32,12.74,10.51-3.48,10.9-10.3,22.94-10.37,23.06l1.3.74c.03-.06,1.51-2.66,3.44-6.54,2.15-4.32,4.88-10.23,6.78-15.93.03-.08.06-.16.08-.24l.33-1.04h0c.55-1.71.99-3.36,1.32-4.94.23-1.07,1.17-5.35,3.06-11.49,3.12-10.16,8.84-25.42,18.18-39.52,17.87-27.01,41.13-38.72,69.12-34.83,36.4,5.07,40.63,35.43,40.75,48.25.28,28.63-17.93,63.49-44.52,67.72-37.9,6.03-55.17,9.42-67.4,26.46l-.18.26c-3.1,4.37-5.91,9.73-8.57,16.38l1.4.56c2.36-5.91,4.83-10.78,7.52-14.81,5.27,33.03-5.7,59.72-32.61,79.37-6.97,5.11-15.13,9.77-24.26,13.88-15.64,7.02-30.81,12.43-45.09,16.07l-.54.15s0,0-.02.01c-3.89.98-7.82,1.85-11.68,2.59-7.25,1.4-14.41,2.34-21.29,2.79-6.14.41-12.12.43-17.78.06-24.28-1.52-40.17-9.58-49.28-16.17.01.12.01.24.02.36.02.37.04.74.06,1.12l.03.44c9.3,6.48,24.9,14.07,48.2,15.69h.01c1.52,3.05,11.22,21.67,20.37,21.67.23,0,.47,0,.7-.03,3.56-.38,5.75-1.48,6.51-3.26.23-.54.3-1.09.27-1.61.19.1.38.18.57.24.7.23,1.91.53,3.32.53,1.65,0,3.59-.41,5.33-1.85,3.64-3.01,4.96-9.27,3.91-18.63,3.36-.65,6.77-1.41,10.16-2.26-1.78,3.87-4.68,10.41-8.07,18.66-2.36,2.41-40.92,41.64-48.07,49.28-1.79-.2-10.01-1.33-13.44-5.4-2.66-3.16-8.85-7.83-14.12-6.92-2.78.48-4.81,2.41-6.05,5.72-1.02,2.75-.94,5.32.25,7.65,2,3.92,6.58,6.11,8.97,7.02-2.91,2.01-9.75,7.31-11.32,13.83-.72,2.97-.24,5.82,1.4,8.48,1.15,1.85,2.66,2.82,4.49,2.88,4.11.12,8.82-4.63,11.35-7.63-.48,3.78-.68,10.21,2.83,13.38,1.36,1.24,3.13,1.86,5.3,1.86,1.64,0,3.51-.36,5.59-1.07,13.22-4.55,6.76-34.82,5.86-38.79,6.24-6.67,36.32-37.31,45.48-46.64-5.03,12.51-9.31,24.45-12.74,35.53-7.71,1.46-11.51,4.15-11.92,8.42-.03.21-.05.72.41,1.26,1.03,1.2,3.8,1.69,8.26,1.44-8.39,30.78-8.86,52.09-1.4,63.34,2.19,3.31,4.49,6.36,6.82,9.06h0s.01.02.02.02c0,0-.01,0-.01.01-.01.03-.03.06-.04.09l-8.97,22.42c-.72,1.83-.33,3.92,1.02,5.35,3.04,3.21,9.84,9.18,21.35,13.44.16,2.91.78,8.75.98,10.61-2.99,1.21-16.98,7.28-19.89,15.93-.99,2.94-.6,5.87,1.17,8.71,2.37,3.8,8.93,5.4,16.48,5.4,4.3,0,8.92-.52,13.26-1.45,1.86-.39,5.83-1.35,9.44-2.95,3.61-1.6,6.86-3.84,7.26-6.79,1.22-8.87-10.34-14.94-12.87-16.15l.28-9.31c.83.13,1.67.24,2.52.33.19.03.37.04.56.04,1.08,0,2.13-.34,2.99-.96,1.27,1.66,3.12,2.84,5.54,3.52,4.97,1.39,11.24,2.11,18.34,2.11,1.4,0,2.82-.03,4.28-.09l2.02,10.39c-4.11.97-23.62,6.3-23.62,19.49v.24c.05,2.91,2.05,5.24,5.93,6.92,4.43,1.92,11.07,2.8,18,2.8,11.19,0,23.09-2.3,27.5-6.29,1.99-1.79,1.98-3.54,1.62-4.69-4.74-14.88-14.24-18.14-16.82-18.76v-11.58c12.75-2.12,26.72-6.85,28.36-13.86,1.64-6.98-2.08-14.22-5.36-20.6-.36-.7-.71-1.39-1.05-2.06,16.65-7.03,24.08-20.87,27.04-34.85l1.68-16.06c.08-6.5-.48-12.38-1.12-16.83,5.8,1.5,9.23,1.26,10.46-.73.56-.91.66-2.09.26-3.39-1.18-3.93-6.32-8.23-14.12-11.82-2.67-9.49-7.07-17.27-10.62-23.55-1.1-1.94-2.14-3.78-2.98-5.42-10.7-20.82-17.67-54.96-19.06-71.82,27.56-20.3,38.53-47.92,32.61-82.1,11.88-16.34,28.96-19.67,66.24-25.6,12.52-1.99,24.26-10.78,33.03-24.73,8.25-13.12,12.9-29.33,12.75-44.48-.12-12.64-3.56-23.78-9.95-32.22ZM303.26,125.14c-1.39-.53-2.82-1.04-4.31-1.54-.75-.25-1.51-.49-2.28-.74-2.41-.76-4.94-1.46-7.58-2.1-.74-.19-1.5-.36-2.26-.53-.81-.18-1.62-.36-2.45-.52-.53-.11-1.06-.21-1.6-.31-.41-.08-.83-.15-1.25-.22-1.02-.18-2.05-.35-3.1-.5-.35-.05-.7-.1-1.05-.15-1.53-.21-3.08-.39-4.66-.53-.36-.04-.72-.07-1.08-.1-2.93-.25-5.94-.38-9.02-.38-.86,0-1.73,0-2.6.03-.58.02-1.17.04-1.76.06-2.29.09-4.61.26-6.97.52-.67.07-1.34.15-2.02.24-.76.09-1.53.2-2.3.32-.72.1-1.44.22-2.16.35-.69.11-1.39.24-2.08.37-.53.1-1.05.21-1.58.33-.53.1-1.05.22-1.58.34-.61.13-1.22.27-1.83.43-.18.04-.36.08-.54.13-.57.14-1.14.29-1.71.44-.28.07-.56.15-.85.23-.51.14-1.02.28-1.52.43-.34.1-.69.21-1.03.32-.41.11-.83.24-1.24.38-.5.15-1,.31-1.49.49-.23.07-.46.14-.69.23-.54.17-1.07.36-1.61.56-.18.06-.37.12-.55.19-.4-15.23.93-61.92,29.3-92.74,9.66-10.51,23.99-15.32,37.41-12.57,12.74,2.62,23.75,11.44,31.01,24.83,8.91,16.42,10.68,37.16,4.52,52.83-4.98,12.65-10.86,20.12-16.28,24.5-2.93,2.38-5.73,3.86-8.18,4.77-.34-.13-.68-.26-1.03-.39ZM228.19,334.03c-.53,1.22-2.35,2.03-5.29,2.35-7.7.81-16.79-15.5-19.17-20.04,2.44.14,4.92.21,7.46.21,2.98,0,6.01-.1,9.08-.29,1.32,3.55,4.21,10.75,7.21,14.55.02.02.03.04.04.06.22.31,1.23,1.86.67,3.16ZM238.1,330.76c-2.65,2.2-5.94,1.47-7.23,1.06h0c-.31-.1-.82-.38-1.54-1.15-.2-.21-.39-.43-.59-.68-.02-.03-.04-.06-.07-.09-2.79-3.53-5.62-10.51-6.84-13.74.13-.01.25-.02.38-.03h.02c.54-.04,1.1-.09,1.65-.13.09-.01.18-.01.27-.02.11-.01.22-.02.32-.03.13-.01.25-.02.38-.04.55-.05,1.11-.1,1.66-.16.75-.07,1.49-.15,2.24-.24.89-.1,1.78-.21,2.68-.33.56-.07,1.12-.15,1.69-.23.04-.01.08-.01.12-.02.94-.13,1.87-.27,2.81-.42.99-.15,1.97-.32,2.96-.49.71-.12,1.43-.25,2.15-.39.12-.02.23-.04.35-.06.93,8.64-.24,14.58-3.41,17.19ZM191.76,417.35c-4.28,1.47-7.44,1.31-9.4-.47-4.4-3.99-1.89-14.8-1.86-14.9l.89-3.74-2.23,3.13c-1.89,2.65-7.7,9.49-11.94,9.36-1.32-.04-2.38-.75-3.26-2.17-1.43-2.3-1.84-4.77-1.22-7.33,1.81-7.56,11.84-13.7,11.95-13.76l1.48-.9-1.67-.47c-.07-.02-7.14-2.04-9.54-6.76-.98-1.94-1.04-4.11-.17-6.45,1.03-2.77,2.68-4.38,4.9-4.76,4.4-.76,10.09,3.29,12.71,6.41,3.05,3.62,9.16,5.11,12.5,5.66-3.26,2.01-9.37,6.82-11.1,15.39l1.47.3c1.82-8.98,9.02-13.66,11.48-15.02,1.17,5.41,6.37,32.57-4.99,36.48ZM273.67,521.9c0,.36-.02.72-.07,1.08-.45,3.23-6.54,6.56-15.53,8.47-3.14.67-6.47,1.12-9.72,1.31-.55-4.13.03-8.69,2.97-11.81-3.52,2.81-4.77,7.51-4.84,11.89-4.82.13-9.32-.36-12.52-1.65.27-4.95,2.2-10.16,6.51-12.96-4.63,2.25-7.26,7.15-8.3,12.07-.97-.6-1.73-1.3-2.25-2.13-1.54-2.47-1.88-4.9-1.03-7.43,2.97-8.82,19.38-15.16,19.55-15.22l.54-.21-.06-.57c-.01-.08-.76-6.86-1.01-10.47.15.05.3.1.46.15.14.06.29.11.44.15.52.18,1.04.34,1.57.5.6.19,1.2.36,1.81.53.44.12.88.24,1.33.35,1.88.49,3.8.91,5.76,1.26.44.08.88.16,1.32.22.13.03.26.05.39.07l-.3,10.48.46.21c.12.06,12.52,5.66,12.52,13.71ZM266.55,491.67c.02.24.05.48.09.7.03.23.07.46.12.67.03.15.06.3.1.44.02.1.04.2.07.3.03.1.06.21.1.31.18.63.43,1.23.72,1.78-.72.54-1.65.79-2.58.69-.89-.1-1.77-.21-2.64-.34l-.66-.1c-5.1-.76-9.98-1.99-14.51-3.64-11.51-4.16-18.25-10.08-21.24-13.23-.95-1-1.22-2.48-.71-3.76l8.72-21.81c1.77,1.98,3.59,3.81,5.47,5.5.29.27.59.54.9.8.25.22.5.43.75.65.29.24.58.48.88.72.35.29.7.56,1.05.84.35.27.7.54,1.06.81.71.53,1.43,1.04,2.16,1.53.67.46,1.35.91,2.04,1.34.13.07.25.15.37.22.66.4,1.32.79,1.99,1.17,1.16.64,2.34,1.25,3.54,1.81.23.11.47.22.71.33,2.29,1.04,4.64,1.94,7.08,2.68.44.14.88.27,1.33.39.38.11.76.22,1.15.32.51.13,1.03.26,1.55.38.46.11.92.21,1.38.31.36.08.72.15,1.09.22.71.14,1.43.26,2.15.38-1.08,2.41-1.95,4.66-2.62,6.75-.12.35-.22.7-.32,1.04-.11.34-.2.68-.29,1.01-.1.33-.18.66-.25.98-.08.33-.16.65-.22.96-.07.32-.13.63-.19.93-.06.31-.11.61-.15.91-.03.22-.06.43-.09.64,0,.04-.01.08-.01.12-.02.09-.02.17-.03.25-.17,1.45-.19,2.78-.06,4ZM234.86,452.23s.03-.04.05-.06c.08-.1.16-.19.24-.28.11-.11.22-.21.34-.31.01-.01.03-.02.04-.03.12-.09.23-.17.36-.24.12-.08.26-.14.39-.2,0,0,.02-.01.03-.01.07-.04.13-.06.2-.08.07-.03.14-.05.21-.06.08-.03.16-.05.24-.06.08-.02.16-.03.24-.05.15-.02.31-.03.46-.03.23,0,.45.02.68.07,19.32,3.77,28.81,12.96,31.99,16.74.54.63.84,1.44.85,2.28.01.93.01,1.83,0,2.71h0c-.2-.02-.39-.05-.59-.09-.42-.07-.85-.14-1.27-.22-.95-.18-1.88-.38-2.8-.59-.44-.11-.89-.22-1.33-.33-.38-.1-.77-.2-1.15-.31-.49-.14-.98-.28-1.46-.43-.43-.12-.86-.26-1.28-.41-1.28-.42-2.53-.88-3.77-1.4-.41-.16-.82-.34-1.23-.52-.41-.18-.81-.36-1.21-.56-.71-.32-1.41-.67-2.1-1.04-1.68-.86-3.31-1.82-4.91-2.87-.73-.47-1.45-.97-2.16-1.48-.35-.26-.71-.52-1.06-.79-.35-.26-.71-.53-1.05-.81-1.05-.82-2.08-1.69-3.09-2.6-.33-.3-.67-.6-1-.92-.33-.31-.66-.62-.99-.95-.66-.63-1.32-1.3-1.96-1.98-.26-.27-.52-.55-.78-.83-.38-.41-.75-.83-1.13-1.26ZM326.74,531.99c.34,1.07-.05,2.09-1.19,3.12-3.64,3.29-14.16,5.59-24.59,5.89-.63-5.11.96-10.52,4.63-14.21-4.28,3.37-6.55,8.84-6.58,14.24-5.7.02-11.24-.58-15.47-1.98.44-6.52,4.21-12.69,9.71-16.22-5.96,3.04-10.33,8.96-11.57,15.52-.01,0-.02-.01-.03-.01-3.3-1.43-4.99-3.31-5.03-5.57-.24-13.39,22.92-18.36,23.15-18.41l.73-.15-2.27-11.6c.19-.01.38-.02.57-.04.9-.04,1.79-.11,2.69-.18.86-.07,1.72-.14,2.57-.23h.01c.83-.09,1.65-.18,2.47-.28.89-.11,1.78-.22,2.66-.36.22-.03.43-.06.65-.09v12.6l.64.09c.11.02,11.15,1.86,16.25,17.87ZM357.58,382.67c10.18,4.86,12.22,9.3,12.61,10.57.26.88.23,1.63-.11,2.17-.5.81-2.46,1.87-9.89-.22-5.94-1.68-12.2-4.51-12.26-4.54l-.62,1.36c.06.03,6.1,2.77,12.01,4.48.08.52.16,1.06.23,1.63.04.28.08.57.11.86.06.42.11.86.16,1.31.08.68.15,1.39.22,2.12.07.72.13,1.47.19,2.24,0,.03,0,.06.01.09.04.58.08,1.17.11,1.78.01.11.02.22.02.33.03.49.05.99.07,1.5.03.6.05,1.21.06,1.83.01.31.02.63.02.96.01.79.01,1.6,0,2.43,0,.33-.01.67-.01,1.01-.04,1.68-.12,3.39-.26,5.14-.01.2-.03.4-.05.59-.06.74-.14,1.49-.22,2.24-.04.33-.07.66-.12.98-.05.44-.11.88-.18,1.33-.05.39-.11.77-.17,1.16-.06.39-.13.77-.2,1.16-.06.39-.14.78-.21,1.16-.08.39-.15.77-.24,1.16-.08.39-.16.78-.25,1.17-.09.35-.17.71-.26,1.07-.23.9-.47,1.8-.73,2.7-.07.23-.14.46-.22.69-.37,1.2-.78,2.38-1.23,3.56-.15.38-.3.75-.45,1.12-.08.19-.16.38-.24.57-.16.37-.32.74-.49,1.11-.08.18-.16.36-.25.54-.17.37-.34.73-.53,1.09-.18.36-.36.72-.56,1.08-.13.25-.27.5-.41.75-.65,1.17-1.35,2.32-2.12,3.44-.26.38-.53.77-.81,1.14-.24.33-.48.66-.73.98-.29.37-.59.74-.9,1.1-.19.24-.39.47-.59.7-.03.03-.05.05-.07.08-.21.24-.42.47-.64.7-.23.26-.48.52-.73.78-.33.34-.67.67-1.01,1-.36.35-.73.69-1.12,1.03-.36.32-.72.64-1.1.94-.38.32-.77.63-1.17.93-.4.31-.8.61-1.22.9-.34.25-.69.49-1.05.72-.52.35-1.04.68-1.58,1.01-.4.24-.82.48-1.24.71-.46.26-.93.51-1.41.75-.16.08-.32.17-.48.24-.36.18-.73.36-1.1.53-.51.24-1.02.46-1.54.68-1.39-2.88-2.58-5.8-2.43-8.12l-1.5-.1c-.16,2.51.88,5.35,2.54,8.8h.01s.02.04.03.07l.32.65c.45.91.93,1.85,1.42,2.8,3.16,6.16,6.75,13.13,5.23,19.58-1.22,5.18-11.73,10.12-26.9,12.68l-.87.14c-4.34.69-8.77,1.14-13.18,1.34-8.96.39-16.85-.28-22.8-1.94-2.37-.67-4.1-1.87-5.15-3.58-.93-1.49-1.4-3.37-1.4-5.65,0-.34.01-.7.04-1.06,0-.05,0-.11.01-.17.05-.77.15-1.59.3-2.45.07-.44.16-.9.27-1.36.01-.05.02-.1.03-.14.09-.42.2-.85.32-1.29.25-.97.56-1.98.93-3.04.17-.52.37-1.06.58-1.61.07-.19.13-.37.21-.55.2-.55.43-1.12.68-1.7.15-.38.32-.77.49-1.16.17-.39.35-.79.54-1.2.06-.14.12-.28.19-.42,0-.01.01-.02.01-.03l.04-.09h0c.02-.05.05-.1.07-.15,5.19-11.11,12.88-21.59,12.95-21.69l-1.2-.9c-.07.1-6.6,9-11.74,19.13t-.01.02v-.45c0-.12-.01-.24-.03-.35-.01-.14-.03-.28-.06-.41h0s-.01-.05-.02-.07c-.03-.16-.08-.32-.13-.48-.13-.38-.29-.74-.51-1.08-.04-.08-.1-.16-.15-.23-.09-.14-.19-.27-.3-.39-3.28-3.9-13.05-13.38-32.85-17.25-.32-.06-.64-.09-.95-.09-.16,0-.32.01-.48.03-.07,0-.13,0-.19.02-.14.01-.27.04-.41.07-.12.02-.24.05-.35.09-.07.02-.14.04-.21.07-.1.03-.21.07-.31.12-.1.04-.2.09-.3.14-.15.07-.29.15-.43.24-.14.09-.28.19-.41.29-.26.2-.5.44-.72.69l-.07-.08c-2.16-2.55-4.3-5.41-6.35-8.5-7.26-10.94-6.67-31.99,1.73-62.62,3.8-.34,8.56-1.1,14.13-2.28l-.3-1.46c-5.77,1.21-10.64,1.98-14.47,2.28-1.2.09-2.23.13-3.11.13-4.43,0-4.97-1-5.03-1l.02-.1c.33-3.47,3.65-5.72,10.42-7.06.24-.04.48-.09.72-.13,12.98-2.35,38.04-1.29,71.69,1.02,4.09.27,8.17.64,12.17,1.09.07,2.95.08,5.93.02,8.86-.01.3-.01.59-.02.88,0,.21,0,.42-.02.63-.22,7.35-.87,14.67-1.93,21.78-.98.26-1.92.54-2.82.82-.61.19-1.19.38-1.76.58-.28.1-.56.2-.84.3-.27.1-.54.2-.81.3-.27.1-.53.2-.79.31-.52.2-1.02.42-1.5.63-.26.11-.5.22-.75.34-.23.1-.45.2-.67.31-.9.43-1.75.88-2.55,1.34-.2.12-.39.23-.58.35-.77.45-1.48.92-2.14,1.4-.16.11-.33.23-.48.35-.16.12-.32.24-.47.36-.15.12-.3.23-.44.35-.15.12-.29.24-.43.36-.42.36-.81.72-1.18,1.08l-.36.36c-1.29,1.32-2.25,2.64-2.95,3.89-.25.44-.47.87-.66,1.29-.8,1.79-1.13,3.4-1.23,4.65-.03.3-.05.58-.05.83-.08,4.61,2.27,8.08,4.59,8.78,1.76.53,3.25.4,4.44-.38.5-.33.89-.75,1.2-1.18.82,3.03,3.08,7.9,9.25,10.71,1.32.61,2.51.91,3.55.91.98,0,1.83-.27,2.54-.8,2.01-1.5,2.35-4.73,2.33-6.89,1.32,1.16,2.71,1.8,4.13,1.93,1.81.16,3.62-.52,5.37-2,1.15-.97,2.1-2.16,2.81-3.5.72-1.34,1.19-2.83,1.4-4.41.14-1.07.16-2.11.08-3.12-.01-.2-.03-.39-.06-.58-.02-.2-.05-.39-.08-.58-.03-.19-.06-.38-.1-.56-.3-1.51-.81-2.94-1.49-4.29-.08-.17-.17-.34-.26-.51-1.42-2.67-3.43-5.01-5.53-6.97-.13-.12-.26-.24-.4-.36-.16-.16-.33-.31-.5-.46-.22-.19-.44-.38-.67-.57-.53-.45-1.06-.87-1.58-1.26-.31-.24-.61-.46-.91-.68-2.29-1.66-4.27-2.77-5.16-3.25,1.05-7.08,1.7-14.36,1.93-21.68.01-.29.02-.58.03-.87.01-.22.01-.43.01-.65.07-2.97.07-5.97,0-8.96,8.13.96,15.49,2.23,22.02,3.81,6.77,1.62,12.66,3.58,17.63,5.85.35.16.68.31,1.01.47ZM316.28,433.99c.22,1.61.37,6.1-1.6,7.57-1.01.75-2.55.66-4.58-.27-8.39-3.83-8.83-11.77-8.84-12.11l-1.49-.06s0,.01-.01.02c-.01.05-.02.15-.06.3-.01.05-.02.1-.04.16-.02.11-.06.23-.11.37-.04.14-.1.28-.17.43-.1.23-.22.46-.38.68-.05.08-.11.15-.17.22s-.12.15-.19.21c-.13.14-.28.26-.44.36-.11.08-.23.14-.35.2-.09.04-.19.08-.29.1-.1.04-.21.06-.31.08-.42.09-.9.09-1.41,0-.26-.04-.54-.1-.82-.19-1.52-.46-3.59-3.25-3.52-7.31.07-3.9,2.41-13.5,22.54-18.83.06.03.14.08.23.12.04.03.09.05.14.08.09.05.2.11.32.18.18.1.37.21.59.34.15.09.3.18.47.28.32.19.68.41,1.06.66.19.12.38.25.59.38.2.13.41.27.62.42.31.21.64.44.98.69.22.16.45.33.68.5.12.08.23.17.35.27.23.17.46.35.7.55.11.09.23.18.35.28.83.67,1.68,1.41,2.5,2.22.12.11.24.23.35.35,1.65,1.66,3.19,3.55,4.33,5.63.06.12.13.24.18.36.16.3.31.6.44.9.14.3.27.61.38.92.12.29.22.58.31.88.33,1.06.54,2.16.61,3.29.01.25.02.51.02.77,0,.56-.03,1.13-.11,1.7-.37,2.79-1.68,5.27-3.69,6.97-1.44,1.21-2.87,1.77-4.28,1.64-1.54-.13-3.08-1.11-4.56-2.89l-1.68-2.01.36,2.59ZM342.56,352.7c.86,1.68,1.91,3.52,3.01,5.48,3.36,5.93,7.48,13.23,10.14,22-.47-.2-.96-.4-1.45-.6-.28-.12-.56-.23-.84-.34-.52-.2-1.05-.4-1.59-.6-.68-.25-1.36-.49-2.06-.73-.57-.2-1.14-.39-1.73-.58-.07-.03-.15-.05-.23-.07-.28-.1-.57-.19-.86-.27-.09-.04-.19-.07-.29-.09-3.08-.95-6.39-1.82-9.93-2.6-.45-.1-.9-.2-1.37-.3-.69-.15-1.39-.29-2.1-.43-.87-.18-1.76-.35-2.66-.51-.89-.17-1.8-.33-2.72-.48-3.49-.59-7.16-1.11-11-1.55-.02-.8-.05-1.59-.09-2.37-.02-.58-.05-1.16-.08-1.73-.05-.9-.1-1.78-.16-2.66-.03-.44-.06-.88-.09-1.31-.05-.76-.11-1.51-.17-2.26-.12-1.38-.24-2.74-.39-4.07-.07-.75-.16-1.5-.24-2.24,0-.11-.03-.23-.04-.34-.07-.61-.15-1.21-.22-1.81-.04-.33-.08-.65-.13-.97-.07-.57-.15-1.14-.23-1.7-.05-.38-.1-.74-.16-1.11-.11-.74-.22-1.47-.33-2.18-.04-.24-.08-.49-.12-.73-.07-.47-.15-.93-.23-1.38-.23-1.38-.47-2.71-.71-3.99-.1-.5-.2-1-.29-1.48-.65-3.21-1.3-6.06-1.91-8.49-.08-.33-.17-.65-.24-.96-.44-1.69-.84-3.15-1.2-4.36-.05-.16-.09-.32-.14-.47-.13-.46-.26-.87-.37-1.25-.08-.25-.15-.49-.22-.7-.07-.23-.14-.44-.2-.63.11-.16.17-.34.17-.54,0-.59-.55-1.07-1.23-1.07s-1.22.48-1.22,1.07c0,.47.35.88.84,1.02.06.19.13.4.21.64.04.13.08.27.13.41.05.15.1.31.15.48.04.15.09.3.14.46.23.77.49,1.67.78,2.69.07.28.15.56.23.85.45,1.69.96,3.68,1.49,5.94.1.43.2.88.3,1.33.1.49.21.99.33,1.51.1.49.21,1,.31,1.51.09.46.19.92.28,1.39.17.85.34,1.74.5,2.65.26,1.41.5,2.87.75,4.38.08.51.16,1.03.24,1.56.13.88.26,1.77.38,2.68.05.37.1.75.15,1.14.14,1.07.27,2.18.4,3.3.05.46.1.93.15,1.41.05.4.09.81.13,1.22.17,1.71.32,3.48.45,5.28.03.35.05.69.07,1.04.03.43.06.86.08,1.3.03.4.05.81.07,1.22.07,1.36.13,2.75.18,4.15-3.95-.44-8-.8-12.04-1.08-8.47-.58-16.32-1.08-23.53-1.47-1.11-.06-2.2-.11-3.27-.17-1.08-.05-2.15-.1-3.2-.15-1.05-.05-2.07-.09-3.09-.14-3.06-.13-5.98-.23-8.78-.3-.92-.03-1.83-.05-2.72-.06-3.9-.08-7.52-.09-10.84-.03-.47,0-.93.02-1.39.03-.46.01-.91.02-1.36.04-.67.02-1.32.04-1.96.07-.66.03-1.29.06-1.91.1-.83.05-1.63.1-2.41.16-.39.03-.77.06-1.15.09-.63.06-1.24.12-1.84.18-.24.03-.48.05-.71.08-.56.07-1.1.14-1.62.21-.36.05-.72.1-1.06.16,3.5-11.21,7.87-23.3,12.98-35.95,4.15-10.21,7.68-18.1,9.51-22.07l.21-.06c1.58-.41,3.17-.84,4.78-1.29.82-.23,1.64-.47,2.47-.71,1.18-.34,2.36-.7,3.56-1.07,1.83-.56,3.66-1.16,5.51-1.77,1.84-.62,3.7-1.26,5.57-1.93.93-.34,1.87-.68,2.81-1.02,1.86-.69,3.73-1.4,5.6-2.13,2.02-.8,4.05-1.62,6.09-2.47.65-.27,1.3-.54,1.96-.83.13-.05.25-.1.38-.16.8-.34,1.6-.68,2.4-1.03,1.21-.52,2.42-1.06,3.64-1.61,2.15-.96,4.24-1.96,6.28-2.99.39-.2.79-.4,1.18-.6,1.38-.71,2.74-1.43,4.06-2.17.44-.24.88-.49,1.3-.73.42-.23.83-.47,1.24-.71.68-.4,1.36-.8,2.03-1.21.99-.6,1.96-1.2,2.91-1.81.96-.63,1.9-1.25,2.82-1.89.46-.31.91-.63,1.36-.95.09-.06.18-.13.27-.19,1.58,17.29,8.54,50.85,19.14,71.47Z"/>
    <path class="cls-1" d="M238.1,330.76c-2.65,2.2-5.94,1.47-7.23,1.06h0c-.31-.1-.82-.38-1.54-1.15-.2-.21-.39-.43-.59-.68-.02-.03-.04-.06-.07-.09-2.79-3.53-5.62-10.51-6.84-13.74.13-.01.25-.02.38-.03h.02c.54-.04,1.1-.09,1.65-.13.09-.01.18-.01.27-.02.11-.01.22-.02.32-.03.13-.01.25-.02.38-.04.55-.05,1.11-.1,1.66-.16.75-.07,1.49-.15,2.24-.24.89-.1,1.78-.21,2.68-.33.56-.07,1.12-.15,1.69-.23.04-.01.08-.01.12-.02.94-.13,1.87-.27,2.81-.42.99-.15,1.97-.32,2.96-.49.71-.12,1.43-.25,2.15-.39.12-.02.23-.04.35-.06.93,8.64-.24,14.58-3.41,17.19Z"/>
    <path class="cls-1" d="M228.19,334.03c-.53,1.22-2.35,2.03-5.29,2.35-7.7.81-16.79-15.5-19.17-20.04,2.44.14,4.92.21,7.46.21,2.98,0,6.01-.1,9.08-.29,1.32,3.55,4.21,10.75,7.21,14.55.02.02.03.04.04.06.22.31,1.23,1.86.67,3.16Z"/>
    <path class="cls-3" d="M153.77,300.54h0c-.13-.09-.26-.18-.38-.27-.31-.22-.6-.43-.89-.64l-.29-.21h0c-.01-.13-.01-.24-.02-.35-.03-.55-.07-1.09-.11-1.63,0-.07-.01-.14-.01-.22-.04-.49-.08-.98-.13-1.47-.01-.1-.01-.2-.02-.3h0c-.01-.1-.02-.18-.03-.26-.01-.09-.01-.17-.03-.25-.02-.27-.05-.54-.08-.8-.04-.35-.07-.69-.11-1.03-.06-.51-.12-1.01-.19-1.5-.05-.37-.1-.74-.16-1.1-.02-.14-.04-.28-.06-.41-.07-.42-.13-.84-.21-1.24-.04-.29-.09-.56-.15-.84-.04-.22-.08-.45-.13-.67h0c-.02-.12-.05-.24-.07-.35-.07-.34-.13-.67-.2-.99-.02-.08-.04-.16-.06-.24-.02-.09-.04-.18-.06-.27-.08-.35-.16-.69-.25-1.02-.07-.31-.16-.63-.24-.93-.07-.26-.14-.52-.21-.77-.22-.76-.46-1.49-.7-2.19-.14-.41-.28-.8-.44-1.19-.14-.38-.29-.76-.45-1.12-.16-.37-.33-.74-.5-1.1-.16-.35-.33-.7-.51-1.03-.2-.37-.4-.73-.61-1.08-.19-.33-.4-.66-.61-.97-.01-.02-.02-.03-.03-.05-.1-.15-.2-.3-.31-.45-.1-.14-.2-.27-.3-.41-.21-.3-.44-.59-.68-.86-.11-.15-.24-.29-.36-.43-.04-.05-.08-.09-.13-.14-.2-.22-.39-.43-.6-.63l-.06-.06c-.21-.2-.42-.4-.64-.59-.23-.21-.47-.4-.72-.59h-.01c-.05-.04-.1-.08-.15-.12-.13-.1-.26-.2-.4-.29,0,0,0-.01-.02-.02-.1-.07-.22-.14-.32-.21-.01-.01-.02-.01-.03-.02-.22-.14-.44-.28-.66-.4-.03-.02-.07-.04-.1-.06-.06-.04-.13-.08-.2-.11-.1-.06-.19-.11-.29-.15-.18-.1-.36-.18-.55-.26-.1-.05-.2-.1-.3-.14s-.2-.08-.3-.12c-.06-.03-.11-.05-.17-.06-.03-.01-.06-.03-.1-.04-.01,0-.02-.01-.03-.01-.12-.05-.23-.09-.35-.13-.06-.02-.13-.04-.2-.06,0,0-.03-.01-.04-.01-.02-.01-.05-.02-.07-.03-.1-.04-.21-.07-.32-.09t-.02-.02s-.03-.01-.05-.01c-.03,0-.07,0-.1-.02-.08-.03-.15-.04-.23-.06-.18-.05-.36-.09-.54-.13-.09-.02-.19-.04-.28-.06h-.03c-.07-.01-.13-.03-.2-.04-.2-.04-.41-.07-.62-.1l-.67-.09h-.01l.03-.68c.01-.26.02-.53.04-.8v-.02l.26.04c.18.02.36.04.55.07.34.05.67.1,1,.17.17.03.33.06.49.1.16.04.32.08.48.12.16.04.32.08.47.13.08.03.16.05.23.07.08.02.16.05.24.08,0,0,.02,0,.04.01.27.09.53.18.79.29.05.01.1.03.15.06.14.06.28.11.42.17.14.07.28.13.41.2.29.14.58.29.86.45.21.11.42.23.61.36.02.01.03.02.05.03.13.07.26.16.38.25.15.1.3.21.45.31.09.07.18.13.26.2.17.12.32.24.47.37.01.01.03.02.04.03.35.29.68.59,1.01.91h0s.01.02.01.02c.15.15.28.28.42.43.11.11.22.22.32.34.21.23.41.46.61.7.02.03.04.05.06.08.12.14.24.3.36.45.03.05.07.09.11.14.01.02.03.05.05.07.02.02.03.04.04.06.08.1.16.21.23.31.08.11.15.22.22.32.02.02.03.03.04.05.02.03.04.07.06.1.12.17.23.34.34.51.14.2.26.41.39.62h0c.18.32.36.63.54.95.19.35.37.71.55,1.07.18.37.36.75.53,1.13.34.77.66,1.58.97,2.43.08.21.15.42.22.64.08.22.15.44.22.66.14.42.26.84.39,1.27.13.43.25.87.36,1.32.34,1.27.64,2.61.9,4.02.08.4.15.81.22,1.22.02.13.04.25.07.38.07.43.13.86.2,1.3.09.61.17,1.23.25,1.87.05.38.1.77.15,1.16.05.54.11,1.09.16,1.65.03.31.06.61.08.92.02.15.03.31.04.46.02.15.03.31.04.47.04.51.08,1.02.11,1.55.01.12.01.24.02.36.02.37.04.74.06,1.12l.03.44h-.01Z"/>
    <path class="cls-3" d="M335.55,145.82c-.11.35-.22.7-.34,1.05l.33-1.04h0s.01-.01.01-.01Z"/>
  </g>
  <path class="cls-6" d="M333.98,145.78c-3.48,10.9-10.3,22.94-10.37,23.06-.55-26.16-40.41-47.41-41.66-48.06,8.36,1.5,15.8,3.81,22.06,6.25l.26.1c5.84,2.29,11.54,5.04,16.97,8.14,4.83,2.78,9.12,6.32,12.74,10.51Z"/>
  <path class="cls-10" d="M228.43,382.64c.24-.91.48-1.83.74-2.76,3.8-.34,8.56-1.1,14.13-2.28l-.3-1.46c-5.77,1.21-10.64,1.98-14.47,2.28-1.2.09-2.23.13-3.11.13-4.43,0-4.97-1-5.03-1l.02-.1c.33-3.47,3.65-5.72,10.42-7.06.24-.04.48-.09.72-.13,12.98-2.35,38.04-1.29,71.69,1.02,4.09.27,8.17.64,12.17,1.09.07,2.95.08,5.93.02,8.86-.76-.14-1.53-.27-2.32-.4l-.25,1.48c.86.14,1.71.29,2.53.43-.22,7.35-.87,14.67-1.93,21.78-.98.26-1.92.54-2.82.82-.61.19-1.19.38-1.76.58-.28.1-.56.2-.84.3-.27.1-.54.2-.81.3-.27.1-.53.2-.79.31-.52.2-1.02.42-1.5.63-.26.11-.5.22-.75.34-.23.1-.45.2-.67.31-.9.43-1.75.88-2.55,1.34-.2.12-.39.23-.58.35-.3.17-.58.35-.86.53-25.3-27.62-69.11-27.7-71.1-27.69Z"/>
  <path class="cls-10" d="M370.08,395.41c-.5.81-2.46,1.87-9.89-.22-5.94-1.68-12.2-4.51-12.26-4.54l-.62,1.36c.06.03,6.1,2.77,12.01,4.48.08.52.16,1.06.23,1.63.04.28.08.57.11.86.06.42.11.86.16,1.31.08.68.15,1.39.22,2.12.07.72.13,1.47.19,2.24,0,.03,0,.06.01.09.04.58.08,1.17.11,1.78.01.11.02.22.02.33.03.49.05.99.07,1.5.03.6.05,1.21.06,1.83.01.31.02.63.02.96.01.79.01,1.6,0,2.43,0,.33-.01.67-.01,1.01-.04,1.68-.12,3.39-.26,5.14-.01.2-.03.4-.05.59-.06.74-.14,1.49-.22,2.24-.04.33-.07.66-.12.98-.05.44-.11.88-.18,1.33-.05.39-.11.77-.17,1.16-.06.39-.13.77-.2,1.16-.06.39-.14.78-.21,1.16-.08.39-.15.77-.24,1.16-.08.39-.16.78-.25,1.17-.09.35-.17.71-.26,1.07-.23.9-.47,1.8-.73,2.7-.07.23-.14.46-.22.69-.37,1.2-.78,2.38-1.23,3.56-.15.38-.3.75-.45,1.12-.08.19-.16.38-.24.57-.16.37-.32.74-.49,1.11-.08.18-.16.36-.25.54-.17.37-.34.73-.53,1.09-.18.36-.36.72-.56,1.08-.13.25-.27.5-.41.75-.65,1.17-1.35,2.32-2.12,3.44-.26.38-.53.77-.81,1.14-.24.33-.48.66-.73.98-.29.37-.59.74-.9,1.1-.19.24-.39.47-.59.7-.03.03-.05.05-.07.08-.21.24-.42.47-.64.7-.23.26-.48.52-.73.78-.33.34-.67.67-1.01,1-.36.35-.73.69-1.12,1.03-.36.32-.72.63-1.1.94-.38.32-.77.63-1.17.93-.4.31-.8.61-1.22.9-.34.25-.69.49-1.05.72-.52.35-1.04.68-1.58,1.01-.41.24-.82.48-1.24.71-.46.26-.93.51-1.41.75-.16.08-.32.17-.48.24-.36.18-.73.36-1.1.53-.51.24-1.02.46-1.54.68-1.39-2.88-2.58-5.8-2.43-8.12l-1.5-.1c-.16,2.51.88,5.35,2.54,8.8l.04.07.32.65c.45.91.93,1.85,1.42,2.8,3.16,6.16,6.75,13.13,5.23,19.58-1.22,5.18-11.73,10.12-26.9,12.68l-.87.14c-4.34.69-8.77,1.14-13.18,1.34-6.29.27-12.06.03-16.99-.73,13.72-1.36,44.69-9.69,35.26-57.66,2.01-1.5,2.35-4.73,2.33-6.89,1.32,1.16,2.71,1.8,4.13,1.93,1.81.16,3.62-.52,5.37-2,1.15-.97,2.1-2.16,2.81-3.5.72-1.34,1.19-2.83,1.4-4.41.14-1.07.16-2.11.08-3.12-.01-.2-.03-.39-.06-.58-.02-.2-.05-.39-.08-.58-.03-.19-.06-.38-.1-.56-.3-1.51-.81-2.94-1.49-4.29-.08-.17-.17-.34-.26-.51-1.42-2.67-3.43-5.01-5.53-6.97-.13-.12-.26-.24-.4-.36-.16-.16-.33-.31-.5-.46-.22-.19-.44-.38-.67-.57-.53-.45-1.06-.87-1.58-1.26-.31-.24-.61-.46-.91-.68-2.29-1.66-4.27-2.77-5.16-3.25,1.05-7.08,1.7-14.36,1.93-21.68.27.05.53.09.79.14l.27-1.47c-.34-.06-.67-.13-1.02-.19.07-2.97.07-5.97,0-8.96,8.13.96,15.49,2.23,22.02,3.81,6.77,1.62,12.66,3.58,17.63,5.85.35.16.68.31,1.01.47,10.18,4.86,12.22,9.3,12.61,10.57.26.88.23,1.63-.11,2.17Z"/>
  <g>
    <path class="cls-3" d="M344.2,388.47l-.57,1.39s-.78-.31-2.3-.83l.47-1.42c1.58.53,2.36.85,2.4.86Z"/>
    <path class="cls-3" d="M254.45,375.94l-.02,1.5c1.65.02,3.28.05,4.89.08l.04-1.5c-1.62-.03-3.25-.06-4.91-.08ZM264.26,376.16l-.05,1.5c1.66.06,3.29.12,4.89.19l.07-1.5c-1.61-.07-3.25-.13-4.91-.19ZM274.07,376.6l-.08,1.5c1.65.09,3.28.19,4.88.3l.1-1.5c-1.6-.1-3.24-.21-4.9-.3ZM283.87,377.27l-.12,1.49c1.66.13,3.28.28,4.87.42l.14-1.49c-1.6-.15-3.23-.29-4.89-.42ZM293.64,378.18l-.16,1.49c1.67.18,3.29.36,4.86.55l.18-1.49c-1.58-.19-3.21-.38-4.88-.55ZM303.39,379.36l-.2,1.48c1.67.23,3.28.46,4.84.7l.23-1.49c-1.57-.23-3.19-.47-4.87-.69ZM316.92,381.5c0,.22,0,.43-.01.65,0,.29-.02.58-.03.87.27.05.53.09.79.14l.27-1.47c-.34-.06-.67-.13-1.02-.19ZM313.11,380.83l-.25,1.48c.86.14,1.71.29,2.53.43.01-.21.01-.42.02-.63.01-.29.01-.58.02-.88-.76-.14-1.53-.27-2.32-.4ZM322.77,382.64l-.31,1.47c1.69.35,3.28.7,4.77,1.04l.34-1.46c-1.5-.34-3.1-.7-4.8-1.05ZM332.35,384.85l-.37,1.46c1.63.41,3.21.85,4.7,1.28l.42-1.44c-1.51-.44-3.11-.87-4.75-1.3Z"/>
    <rect class="cls-3" x="247.02" y="375.9" width="2.5" height="1.5"/>
  </g>
  <g>
    <path class="cls-2" d="M343.51,448.4c-.7-.04-1.36-.38-1.8-.93-.45-.55-.64-1.27-.53-1.97,1.88-12.06,4.57-28.23,6.49-39.67.23-1.36,1.39-2.34,2.76-2.34.07,0,.14,0,.21,0,2.48.18,6.64.47,9.62.65l.47.03v.47c.05.64.09,1.23.12,1.85.01.1.02.23.02.35.03.44.05.92.07,1.4.03.68.05,1.29.06,1.92,0,.31.02.63.02.97.01.79.01,1.6,0,2.44v1c-.05,1.83-.14,3.52-.27,5.18,0,.19-.03.4-.05.6-.06.7-.13,1.41-.21,2.13l-.05.43c-.03.23-.05.46-.09.68-.05.43-.11.87-.18,1.33-.05.36-.1.73-.16,1.11-.06.4-.12.74-.18,1.08l-.03.14c-.04.28-.1.56-.15.85l-.14.7c-.05.27-.11.53-.17.8-.08.38-.16.78-.25,1.17-.05.2-.26,1.08-.26,1.08-.23.91-.47,1.81-.73,2.72-.08.27-.15.49-.23.72-.36,1.17-.77,2.34-1.24,3.57-.15.39-.51,1.27-.51,1.27l-.18.44c-.17.38-.33.75-.5,1.13-.08.18-.16.37-.26.55-.17.36-.34.73-.54,1.1-.18.36-.36.72-.56,1.09-.13.24-.27.5-.41.75-.7,1.26-1.4,2.4-2.14,3.48l-.16.23-7.86-.51Z"/>
    <path class="cls-3" d="M350.42,403.99c.06,0,.12,0,.18,0,2.48.18,6.65.47,9.63.65,0,.03,0,.06.01.09.04.58.08,1.17.11,1.78.01.11.02.22.02.33.03.49.05.99.07,1.5.03.6.05,1.21.06,1.83.01.31.02.63.02.96.01.79.01,1.6,0,2.43,0,.33-.01.67-.01,1.01-.04,1.68-.12,3.39-.26,5.14-.01.2-.03.4-.05.59-.06.74-.14,1.49-.22,2.24-.04.33-.07.66-.12.98-.05.44-.11.88-.18,1.33-.05.39-.11.77-.17,1.16-.06.39-.13.77-.2,1.16-.06.39-.14.78-.21,1.16-.08.39-.15.77-.24,1.16-.08.39-.16.78-.25,1.17-.09.35-.17.71-.26,1.07-.23.9-.47,1.8-.73,2.7-.07.23-.14.46-.22.69-.37,1.2-.78,2.38-1.23,3.56-.15.38-.3.75-.45,1.12-.08.19-.16.38-.24.57-.16.37-.32.74-.49,1.11-.08.18-.16.36-.25.54-.17.37-.34.73-.53,1.09-.18.36-.36.72-.56,1.08-.13.25-.27.5-.41.75-.65,1.17-1.35,2.32-2.12,3.44l-7.58-.49c-1.19-.07-2.05-1.15-1.87-2.32,2.18-13.97,5.43-33.35,6.49-39.66.19-1.12,1.15-1.93,2.26-1.93M350.42,402.99h0c-1.61,0-2.98,1.16-3.25,2.76-2.77,16.51-5.02,30.23-6.49,39.67-.13.84.1,1.7.64,2.36.53.66,1.32,1.06,2.16,1.11l7.57.49.57.04.32-.47c.75-1.09,1.46-2.24,2.17-3.52.14-.26.29-.52.42-.77.19-.35.38-.72.57-1.09.2-.38.38-.76.54-1.12.08-.16.17-.35.25-.55.17-.37.33-.75.5-1.12l.24-.58c.16-.38.31-.76.46-1.14.48-1.25.89-2.44,1.26-3.63.07-.21.15-.45.22-.69.24-.83.48-1.72.74-2.74.04-.17.08-.34.12-.5.05-.19.09-.38.14-.57.1-.42.18-.82.26-1.22.06-.26.11-.53.17-.81l.07-.35.07-.34c.05-.29.11-.57.15-.86l.02-.13c.06-.34.12-.68.18-1.03l.02-.14c.05-.35.11-.7.15-1.05.07-.44.13-.89.18-1.34.03-.19.06-.43.08-.66l.04-.31c.08-.77.16-1.53.22-2.28.02-.18.04-.4.05-.62.13-1.64.22-3.34.26-5.17,0-.19,0-.36,0-.52,0-.17,0-.34,0-.51.01-.83.01-1.64,0-2.44,0-.33-.01-.66-.02-.98,0-.62-.03-1.24-.06-1.85-.02-.5-.04-1-.07-1.48,0-.13-.01-.26-.02-.39-.03-.58-.07-1.17-.11-1.76v-.12s-.01-.83-.01-.83l-.93-.07c-2.77-.17-6.83-.45-9.62-.65-.08,0-.17,0-.25,0h0Z"/>
  </g>
  <path class="cls-5" d="M152.44,307.81c0,18.39-19.97,33.2-36.5,33.2s-30.02-14.89-30.02-33.2c0-1.53.17-3.09.49-4.69,29.17,29.88,65.8-3.7,65.8-3.7.16,2.61.23,5.43.23,8.39Z"/>
  <path class="cls-1" d="M90.55,303.99c-.07,10.08,5.01,13.98,8.26,13.98s6.89-8.71,6.89-15.87,1.46-14.85-1.79-14.85-13.28,5.19-13.36,16.75Z"/>
  <path class="cls-6" d="M325.55,535.11c-2.76,2.5-9.49,4.43-17.13,5.34,1.21-2.95,2.17-6.86,2.45-12.01.72-13.26-6.05-22.67-8.97-26.08.72-.06,1.45-.12,2.16-.2h.01c.83-.09,1.65-.18,2.47-.28.89-.11,1.78-.22,2.66-.36.22-.03.43-.06.65-.09v12.6l.64.09c.11.02,11.15,1.86,16.25,17.87.34,1.07-.05,2.09-1.19,3.12Z"/>
  <path class="cls-6" d="M273.67,521.9c0,.36-.02.72-.07,1.08-.45,3.23-6.54,6.56-15.53,8.47-.2.04-.4.08-.61.12,0-2.97.02-6.42.07-10.34.13-11.84-3.78-21.76-5.6-25.7.09.02.17.05.26.07.44.12.88.24,1.33.35,1.88.49,3.8.91,5.76,1.26.44.08.88.16,1.32.22.13.03.26.05.39.07l-.3,10.48.46.21c.12.06,12.52,5.66,12.52,13.71Z"/>
  <path class="cls-6" d="M330.24,425.99c0,.56-.03,1.13-.11,1.7-.37,2.79-1.68,5.27-3.69,6.97-1.44,1.21-2.87,1.77-4.28,1.64-1.54-.13-3.08-1.11-4.56-2.89l-1.68-2.01h-.01s.37,2.59.37,2.59c.22,1.61.37,6.1-1.6,7.57-.75-13.54-10.88-26.32-14.14-30.1,3.24-2.05,7.61-3.98,13.5-5.54.06.03.14.08.23.12.04.03.09.05.14.08.09.05.2.11.32.18.18.1.37.21.59.34.15.09.3.18.47.28.32.19.68.41,1.06.66.19.12.38.25.59.38.2.13.41.27.62.42.31.21.64.44.98.69.22.16.45.33.68.5.12.08.23.17.35.27.23.17.46.35.7.55.11.09.23.18.35.28.83.67,1.68,1.41,2.5,2.22.12.11.24.23.35.35,1.65,1.66,3.19,3.55,4.33,5.63.06.12.13.24.18.36.16.3.31.6.44.9.14.3.27.61.38.92.12.29.22.58.31.88.33,1.06.54,2.16.61,3.29.01.25.02.51.02.77Z"/>
  <path class="cls-1" d="M248.61,363.33c4.6,2.28,8.19-2.15,7.95-4.56-1.32-13.28,10.63-18.75,6.04-21.02s-12.79-2.7-17.91,7.62c-5.12,10.33-.67,15.69,3.93,17.96Z"/>
  <path class="cls-1" d="M163.39,211.78c-4.29,5.19-13.82,19.96-6.88,42.57.8,2.6-.15,5.48-2.44,6.95-1.77,1.13-4.2,1.31-7.18-1.78-6.62-6.87-.4-37.51,12.48-54.68,0,0,3.63-3.87,5.21.24.87,2.26.36,4.82-1.19,6.7Z"/>
  <path class="cls-3" d="M353.87,401.25c.23.2.41.43.58.66.19.75.37,1.58.48,2.34.11.79.19,1.6.15,2.41-.46.9-.41.9-.75-.03.05-1.27-.15-2.54-.43-3.78-.18-.54-.21-1.03-.03-1.6h0Z"/>
  <path class="cls-3" d="M347.67,445.61c.32.57.29,1.19.07,1.79-.41,1.43-1.19,2.74-2.21,3.82-1,.43-.97.48-.54-.52,1.12-1.19,1.93-2.69,2.22-4.31,0,0,.47-.78.47-.78h0Z"/>
  <path class="cls-3" d="M342.77,421.11c.12-.26.27-.48.43-.7l.65-.34c1.21-.48,3.17-1.6,4.28-.49-.88.39-1.78.25-2.68.63-.93.24-1.68.99-2.68.89h0Z"/>
  <path class="cls-3" d="M342.03,425.5c.14-.57.48-.93.98-1.2,1.09-.69,2.34-1.28,3.66-1.23.27.12.51.29.72.48-.28.1-.52.14-.74.27-1.92-.14-3.01,1.41-4.62,1.68h0Z"/>
  <path class="cls-3" d="M258.58,455.54c.17.23.29.47.4.71l-.02.73c-.17,1.29-.15,3.55-1.66,3.98.08-.96.65-1.68.76-2.65.24-.93-.05-1.95.53-2.78h0Z"/>
  <path class="cls-3" d="M255.11,452.76c.43.39.58.88.57,1.44.07,1.29-.02,2.67-.71,3.8-.24.17-.5.31-.77.39.05-.3.13-.52.13-.78,1.06-1.6.23-3.31.78-4.85h0Z"/>
  <path class="cls-7" d="M294.59,23.52c-8.42-.34-39.88,1.28-49.36,43.09-.58,2.55.53,5.3,2.86,6.48,1.43.73,3.12.73,4.7-1.4,3.68-4.95,16.71-40.02,45.32-41.12,3.09-.12,4.05-4.29,1.34-5.77-.05-.03-.11-.06-.16-.09-1.45-.76-3.06-1.12-4.7-1.19Z"/>
  <path class="cls-7" d="M406.65,63.27c-6.84-.91-32.6-1.95-43.46,31.42-.66,2.04.03,4.36,1.84,5.5,1.11.7,2.48.83,3.94-.79,3.37-3.76,16.62-31.36,40.02-30.12,2.52.13,3.63-3.19,1.53-4.6-.04-.03-.08-.06-.13-.08-1.12-.73-2.41-1.14-3.74-1.32Z"/>
</svg>