<svg id="Layer_1" data-name="Layer 1" xmlns="http://www.w3.org/2000/svg" viewBox="0 0 566.93 566.93"><defs><style>.cls-1{fill:#ef6724;}.cls-2{fill:#fedbaa;}.cls-3{fill:#faf39f;}.cls-4{fill:#f5eb28;}.cls-5{fill:#c7eafb;stroke-width:2px;}.cls-5,.cls-6{stroke:#ef6724;stroke-miterlimit:10;}.cls-6,.cls-9{fill:#fff;}.cls-7{fill:#f9ad81;}.cls-8{fill:#e5d51f;}.cls-10{fill:#fcdf7d;}.cls-11{fill:#f06796;opacity:0.75;}</style></defs><path class="cls-1" d="M459.23,34c1.12-.32,2.26-.62,3.43-.89C461.5,33.38,460.35,33.67,459.23,34ZM382.92,537.77c.84.26,1.67.49,2.49.67C384.59,538.25,383.76,538,382.92,537.77Zm-2.56-.89c.86.34,1.72.63,2.56.89C382.08,537.51,381.22,537.21,380.36,536.88ZM291.94,36.8A12.46,12.46,0,0,0,281,27.44c-.24,0-.48,0-.72,0q-4.36,0-8.56.41c-64.46,6.05-99.88,79-110.87,122.86a62.24,62.24,0,0,0-2.12,14.85A63.47,63.47,0,0,1,160.84,151c11-43.85,46.42-116.83,110.89-122.86q4.18-.41,8.54-.41c.24,0,.48,0,.72,0a12.46,12.46,0,0,1,10.95,9.36,30.55,30.55,0,0,1,.92,6.55A30.26,30.26,0,0,0,291.94,36.8ZM258.05,139.47c-1.39-1.35-3.93-1.91-7-1.94-8-.09-19.57,3.25-24.71,5.06l-6.9,2.43-.68.58,7.58-2.67c5.14-1.81,16.75-5.15,24.71-5.06,3.08,0,5.62.59,7,1.94a3.42,3.42,0,0,1,.86,2.4A3.61,3.61,0,0,0,258.05,139.47Z"/><path class="cls-2" d="M301.16,495.61c0,7.51-1.37,14.54-4.45,20.24-.16.29-.32.58-.49.86s-.33.57-.51.84c-.42.67-.87,1.32-1.34,1.93-.2.27-.41.53-.63.79s-.51.62-.77.91-.52.56-.79.82l0,0c-.24.24-.48.48-.72.7s-.47.43-.71.62a5.37,5.37,0,0,1-.53.44,21.26,21.26,0,0,1-2.27,1.62c-.28.19-.57.36-.86.52a22.73,22.73,0,0,1-2,1.06c-.39.18-.78.35-1.18.51s-.92.36-1.39.53l-1.08.35c-.42.13-.85.25-1.28.36s-.87.22-1.32.32l-1.36.26c-.4.08-.82.14-1.24.2l-.45.06-1.13.13c-.49,0-1,.09-1.48.12l-1.24.07c-.61,0-1.24,0-1.87,0-1.18,0-2.39-.05-3.64-.13-10.59-.72-19.22-5-25.67-12.62-15.37-18.25-14.26-50.81-13.75-58.61a125.45,125.45,0,0,0,16.74-2,101.81,101.81,0,0,0,24.62-7.91,145.49,145.49,0,0,0,16.75-1.15C294.51,460,301.16,479,301.16,495.61Z"/><path class="cls-2" d="M411.81,522a23,23,0,0,1-7,12,20.51,20.51,0,0,1-4.53,3.08c-.34.17-.69.33-1,.47a17.33,17.33,0,0,1-2,.73l-.29.08a19.5,19.5,0,0,1-4.21.7l-.33,0a20.18,20.18,0,0,1-2.2,0c-.34,0-.69,0-1-.07l-.87-.1-.6-.08q-1.11-.17-2.25-.42c-.82-.18-1.65-.41-2.49-.67s-1.7-.55-2.56-.89c-.43-.17-.87-.34-1.31-.53-.87-.37-1.76-.78-2.65-1.23s-1.8-.93-2.72-1.45-1.84-1.07-2.78-1.67c-27.37-17.36-40.55-63-45.23-94-.16-1-.3-2-.43-3-.62-4.42-1-8.5-1.31-12.09a1.5,1.5,0,1,0-3,.22c.28,3.81.74,8.16,1.41,12.89l-.81.28c-2.06.7-4.09,1.34-6.11,1.94h0c-2.34-2.14-9.49-9.36-9.69-18-.12-5.37,2.47-10.43,7.69-15a37.56,37.56,0,0,1,23.45-9.19c1.23-.05,2.5-.07,3.8-.05h.75c.5,0,1,0,1.52.05l.76,0c.7,0,1.4.09,2.1.17l1.5.18.49.06.43.07c.41.06.82.13,1.23.22l.7.14c.4.08.8.18,1.2.28l.45.13a20.83,20.83,0,0,1,2.63.9l.45.2a13.54,13.54,0,0,1,1.32.66l.24.14c.26.15.51.31.76.48l.13.09a10.15,10.15,0,0,1,2.88,3c2.17,3.56,1.72,8.67-1.32,15.21h0c-1,.65-1.93,1.29-2.9,1.91l-9.19-7.53a1.5,1.5,0,0,0-1.9,2.32l8.41,6.89,2.46,2c13.28,10.9,34.44,28.27,37.87,31.24l.1.09C412.09,470.74,418.34,494,411.81,522Z"/><path class="cls-2" d="M292.85,46.21c0,.28,0,.57,0,.86-1.13,17.13-14.12,46.87-68,93l-.24.21-5.86,5,.68-.24,6.9-2.43c5.14-1.81,16.75-5.15,24.71-5.06,3.08,0,5.62.59,7,1.94a3.61,3.61,0,0,1,.86,2.74h0a0,0,0,0,1,0,0,0,0,0,0,1,0,0,10.43,10.43,0,0,1-.59,3.12c-3.4,10.22-22.68,31.23-71.34,37.65l-.25.06c-.15,0-15.08,4.59-23-2.87a14.81,14.81,0,0,1-3.93-6.53,18.78,18.78,0,0,1-.66-2.73l-.06-.35a31.81,31.81,0,0,1-.39-4.75v-.34a62.24,62.24,0,0,1,2.12-14.85c11-43.85,46.41-116.81,110.87-122.86q4.2-.41,8.56-.41c.24,0,.48,0,.72,0a12.46,12.46,0,0,1,10.95,9.36,30.26,30.26,0,0,1,.92,6.89C292.89,44.49,292.89,45.34,292.85,46.21Z"/><path class="cls-3" d="M265.5,282.44c-13.4-40.52-50-60.78-78.33-70.64l-2.75-.93q-1.35-.45-2.7-.87l-1.43-.45-2.66-.8c-2.64-.78-5.25-1.49-7.78-2.13l-2.23-.56c-1.62-.4-3.2-.77-4.75-1.11l-2-.44c-2.69-.58-5.29-1.08-7.75-1.52a207.2,207.2,0,0,0-24.94-3,143.77,143.77,0,0,0-20.41,30.42,160.69,160.69,0,0,0-8,18.71c-7.54,21.37-10.92,45-10.12,70.75a.27.27,0,0,1,0,.09c.07,2.42.19,4.86.34,7.32a1.21,1.21,0,0,1,0,.19c.15,2.43.33,4.87.56,7.34.11,1.26.24,2.53.37,3.8s.27,2.56.43,3.84.31,2.57.48,3.86c.15,1.11.3,2.23.47,3.35.08.63.17,1.26.28,1.9.14,1,.3,2.05.47,3.07q.9,5.64,2,11.4c.21,1.08.43,2.17.66,3.26.33,1.6.68,3.21,1,4.82l.18.81.1.44-.16.43a32.81,32.81,0,0,0-1.16,3.82,0,0,0,0,0,0,0c-.06.22-.11.45-.17.68-.11.49-.22,1-.33,1.55a1.77,1.77,0,0,0,0,.2c0,.2-.07.4-.11.6a2,2,0,0,0-.06.35c-.13.78-.25,1.6-.35,2.46,0,.22-.06.44-.07.66a40.88,40.88,0,0,0,.1,9.22c.09.64.18,1.28.3,1.93l0,.15c.2,1,.44,2.08.74,3.13.21.74.46,1.48.73,2.22.12.33.25.66.38,1l0,.06c.28.69.6,1.39.94,2.08.17.35.35.7.55,1.05s.31.57.47.85l.23.38c.39.65.82,1.3,1.27,1.94.22.3.44.61.67.91.53.7,1.11,1.39,1.73,2.08l.06.07c.29.32.59.63.89.94s.48.49.74.73l.44.42c.27.25.54.5.83.74l.06.06.14.12a2.11,2.11,0,0,0,.23.19l0,0a43.07,43.07,0,0,0,8.88,5.75l.5.24.22.51a64.51,64.51,0,0,0,3.71,7l.1.17.57.91h0c.7,1.11,1.48,2.26,2.33,3.4l.28.37c.77,1,1.59,2,2.46,3a30.43,30.43,0,0,0,3.66,3.45l.56.43.61.44c.35.24.71.47,1.07.69s.62.36.94.52l.81.39a13.8,13.8,0,0,0,1.34.53l.57.18.69.17c11.68,2.59,20.26.05,20.34,0l.51-.16.49.2c.08,0,1.22.47,3.24,1.17.81.28,1.77.61,2.87,1l.84.27,1.88.58,1.39.42c.91.27,1.87.55,2.88.83l1.91.52.37.1,1.25.33,1.44.36,1.07.27.11,0,2.16.52,1.68.38c2.37.53,4.87,1,7.5,1.54l1.19.21.59.11.24,0,1.37.23,1.77.29,1.47.23,1.49.21h.07c.88.13,1.78.25,2.68.36l.68.08,1.35.16c.45.06.9.1,1.36.15l1,.1,1.26.13.94.08,1.58.13.52,0c.72.06,1.45.11,2.18.15,1,.07,2,.12,2.93.16l1.84.07,2,.06c2.67.05,5.39,0,8.13-.06l1.78-.07h0l2.15-.12h.13l2.58-.19.9-.08.2,0,2.24-.23,1.28-.15,1.28-.16,1.29-.18,1.28-.19c.86-.13,1.71-.27,2.57-.42s1.87-.35,2.8-.54l1.17-.24,1.62-.37,1.39-.33,1.39-.35c.94-.24,1.87-.5,2.8-.77l1.77-.53c.6-.18,1.2-.37,1.8-.58l1.9-.65c.74-.26,1.47-.53,2.2-.81.58-.22,1.17-.45,1.75-.69,1.69-.69,3.36-1.42,5-2.22l.57-.21c9.81-8.57,15.38-30.49,15.3-60.39C283.2,353.4,276.88,316.88,265.5,282.44Zm-146.7,142a63,63,0,0,0,11.75,1h.27c14,0,16.69,6.25,17.2,8.49a16.55,16.55,0,0,1-12.37,2.49C127.94,434.83,121.68,428.06,118.8,424.42Z"/><path class="cls-4" d="M512.32,257.76c-.27.93-.59,1.85-.94,2.74-.09.23-.18.46-.28.69s-.32.75-.49,1.11-.22.49-.35.73-.21.42-.32.63q-.48.94-1,1.83l-.07.12c-.22.35-.43.7-.66,1s-.6.88-.91,1.31-.45.6-.68.89l-.86,1a31.37,31.37,0,0,1-8.38,6.88c-.35.2-.71.4-1.08.58-.65.34-1.31.65-2,.93l-.72.29c-.33.14-.68.27-1,.39-22.76,8-43.1,3.31-60.43-14l-.06-.06a20.45,20.45,0,0,1-5.28-9.35c-2.06-8.06-4.52-12.1-4.68-12.36L420.71,241a.69.69,0,0,0-1.28.34l-.11,2.62A58.63,58.63,0,0,0,422,255.53c1.91,5.83,4.08,11.56,4.45,17.69l.06.95c.95,18.14-2.15,48.67-22.34,91.14a130.09,130.09,0,0,1-40.81,49.43c1.78-5.51,1.59-10.07-.56-13.62-4.53-7.46-16.65-8.58-26-8.21a40.63,40.63,0,0,0-25.32,9.94c-5.91,5.23-8.84,11.08-8.7,17.36.2,8.58,6,15.63,9.34,18.94a182.52,182.52,0,0,1-39.8,6.41c.42-.48.83-1,1.23-1.52l.4-.54a36.68,36.68,0,0,0,2.47-3.9c.16-.28.31-.57.47-.87s.45-.88.67-1.34.45-.93.66-1.41c.09-.19.17-.38.25-.57s.29-.67.44-1q.94-2.29,1.78-4.85c.18-.56.36-1.13.53-1.71s.36-1.22.54-1.84c.29-1.05.57-2.13.83-3.24.07-.28.14-.57.2-.86.12-.5.23-1,.34-1.51s.27-1.27.39-1.92.26-1.34.38-2c.1-.51.19-1,.27-1.55s.17-1.05.25-1.58c.13-.8.24-1.61.35-2.42.34-2.45.62-5,.84-7.63.07-.78.13-1.56.19-2.36s.11-1.51.15-2.28.11-1.84.15-2.77.07-1.62.09-2.44.05-1.64.07-2.47c.05-1.86.07-3.75.06-5.68-.07-32.18-6.44-69-17.92-103.76-10.92-33-38.67-58.1-80.27-72.56a234.48,234.48,0,0,0-57.36-11.82A104.86,104.86,0,0,1,149,181.24q2.19-1.44,4.37-2.93c1.29-.87,2.58-1.73,3.86-2.56a17.37,17.37,0,0,0,4.47,7c3.68,3.47,8.46,4.76,12.91,5A39,39,0,0,0,186,186.76c1.22-.29,2.47-.53,3.72-.71,1.52-.22,3-.45,4.46-.7l2.16-.38,1.72-.32,1.43-.28q3.66-.74,7.06-1.58l1.92-.49,1.89-.5,1.84-.53c1.33-.38,2.62-.78,3.89-1.19h0l1.35-.45c.57-.18,1.13-.38,1.69-.58s1.09-.38,1.62-.58q2.46-.89,4.75-1.85l1.39-.59c.46-.19.92-.39,1.36-.6l.43-.19,1.21-.56c.47-.21.93-.43,1.39-.66l1.36-.67,1.48-.76c.41-.21.81-.43,1.21-.65l1.17-.65c.41-.23.82-.46,1.22-.7a78.43,78.43,0,0,0,8.53-5.71l.55-.43c1.59-1.24,3-2.49,4.35-3.73.4-.38.79-.75,1.17-1.13,1.13-1.12,2.14-2.23,3.06-3.31.61-.72,1.17-1.44,1.68-2.13.26-.35.51-.69.74-1l.05-.07c.22-.32.42-.63.62-.94s.42-.66.61-1,.37-.64.54-1c.35-.65.66-1.28.92-1.89.12-.25.22-.5.32-.74,0,0,0,0,0,0,.1-.27.19-.54.28-.8,1.3-3.91.94-7.11-1-9a6.9,6.9,0,0,0-1.12-.88,187.41,187.41,0,0,1,21-1.19q1.58,0,3.12,0h.68l1.77.05c1.93.05,3.83.14,5.7.26s3.8.27,5.66.45l1.61.16,2.35.26a4.26,4.26,0,0,1,.5.06c.78.08,1.55.18,2.31.28l.2,0,2.35.34c2.74.4,5.4.86,8,1.36l2.22.45.2,0,1.81.39.76.17,2,.46c.95.22,1.89.45,2.81.69,41.48,10.63,66.34,33,66.59,33.26l2.56,2.34-.05-3.47c0-.32-.33-32.5,8.6-65.84q.63-2.35,1.34-4.77c.1-.32.19-.65.29-1,.44-1.48.91-3,1.41-4.48.16-.49.33-1,.5-1.48s.33-1,.51-1.49.35-1,.53-1.49c.28-.77.56-1.54.85-2.31.48-1.29,1-2.57,1.51-3.86l.68-1.65c.37-.88.75-1.75,1.14-2.63s.78-1.73,1.18-2.58.75-1.58,1.14-2.37c.59-1.2,1.21-2.39,1.84-3.58.26-.48.51-1,.78-1.42s.38-.7.58-1l.21-.38c.39-.69.79-1.37,1.2-2l.06-.11c.51-.84,1-1.68,1.55-2.5s1.1-1.7,1.66-2.53l1-1.39c.53-.74,1.06-1.47,1.6-2.2l.15-.2c.3-.4.61-.81.93-1.21s.63-.81,1-1.2.87-1.07,1.32-1.6c.1-.13.21-.25.31-.37.45-.52.89-1,1.35-1.53l1-1.13q.7-.75,1.41-1.47l.33-.32.74-.74.75-.72c.44-.43.89-.84,1.35-1.26.3-.27.6-.54.91-.8,1-.89,2-1.75,3.12-2.57.55-.43,1.1-.85,1.66-1.26a3.62,3.62,0,0,1,.32-.22c.53-.39,1.06-.77,1.61-1.13a1.88,1.88,0,0,1,.23-.16c.3-.2.6-.4.91-.59l1.2-.76c.23-.15.47-.29.71-.43s.47-.29.71-.42l1.45-.82,1.47-.78,1.5-.74,1.53-.71.92-.4c.73-.32,1.47-.62,2.23-.9l1.21-.45,1.22-.42c.82-.28,1.65-.55,2.49-.79h0c1.12-.33,2.27-.62,3.43-.89s2.36-.51,3.56-.72A21.58,21.58,0,0,1,489,43.17c6.06,11.18,11.86,33.41,5.07,76-.05.44-5.57,44.41-38.25,70L453,191.34h.11l3.39.48c.37.06,37.14,5.45,52,28.49C515.26,230.77,516.54,243.37,512.32,257.76Z"/><circle class="cls-5" cx="93" cy="125.86" r="17.45"/><circle class="cls-5" cx="81.06" cy="84.04" r="17.45"/><circle class="cls-5" cx="86.53" cy="167.68" r="17.45"/><circle class="cls-5" cx="58.54" cy="140.87" r="9.37"/><circle class="cls-5" cx="103.83" cy="205.32" r="6.76"/><ellipse class="cls-6" cx="72.05" cy="87.18" rx="4.97" ry="7.08" transform="translate(-20.75 22.53) rotate(-15.57)"/><path class="cls-6" d="M88.05,123.57c-2.83,4.07-3.87,9.31-6.13,7.74s-5.44-9.11-2.61-13.18,7-6.1,9.21-4.53S90.88,119.5,88.05,123.57Z"/><path class="cls-6" d="M74.62,167.76c3.48,4.07.78,8.1,4,8.1s5.74-4.34,5.74-9.7-2.57-9.7-5.74-9.7S69.77,162.08,74.62,167.76Z"/><path class="cls-7" d="M411.81,522a23,23,0,0,1-7,12,20.51,20.51,0,0,1-4.53,3.08C417.77,488.55,325,403.69,343,409.61c18.26,6,14.17-10,14.17-10l.13.09a10.15,10.15,0,0,1,2.88,3c2.17,3.56,1.72,8.67-1.32,15.21h0c-1,.65-1.93,1.29-2.9,1.91l-9.19-7.53a1.5,1.5,0,0,0-1.9,2.32l8.41,6.89,2.46,2c13.28,10.9,34.44,28.27,37.87,31.24l.1.09C412.09,470.74,418.34,494,411.81,522Z"/><path class="cls-7" d="M301.16,495.61c0,7.51-1.37,14.54-4.45,20.24-.16.29-.32.58-.49.86s-.33.57-.51.84c-.42.67-.87,1.32-1.34,1.93-.2.27-.41.53-.63.79s-.51.62-.77.91-.52.56-.79.82l0,0c-.24.24-.48.48-.72.7s-.47.43-.71.62a5.37,5.37,0,0,1-.53.44,21.26,21.26,0,0,1-2.27,1.62c-.28.19-.57.36-.86.52a22.73,22.73,0,0,1-2,1.06c-.39.18-.78.35-1.18.51s-.92.36-1.39.53l-1.08.35C307,467.68,227,458.58,227,458.58a125.45,125.45,0,0,0,16.74-2,101.81,101.81,0,0,0,24.62-7.91,145.49,145.49,0,0,0,16.75-1.15C294.51,460,301.16,479,301.16,495.61Z"/><path class="cls-8" d="M508.92,265.49l-.07.12c-.22.35-.43.7-.66,1s-.6.88-.91,1.31-.45.6-.68.89l-.86,1a31.37,31.37,0,0,1-8.38,6.88c-.35.2-.71.4-1.08.58-.65.34-1.31.65-2,.93l-.72.29c-.33.14-.68.27-1,.39-22.76,8-43.1,3.31-60.43-14l-.06-.06a20.45,20.45,0,0,1-5.28-9.35c-2.06-8.06-4.52-12.1-4.68-12.36L420.71,241a.69.69,0,0,0-1.28.34l-.11,2.62A58.63,58.63,0,0,0,422,255.53c1.91,5.83,4.08,11.56,4.45,17.69l.06.95c.95,18.14-2.15,48.67-22.34,91.14a130.09,130.09,0,0,1-40.81,49.43c1.78-5.51,1.59-10.07-.56-13.62-4.53-7.46-16.65-8.58-26-8.21a40.63,40.63,0,0,0-25.32,9.94c-5.91,5.23-8.84,11.08-8.7,17.36.2,8.58,6,15.63,9.34,18.94a182.52,182.52,0,0,1-39.8,6.41c.42-.48.83-1,1.23-1.52l.4-.54a36.68,36.68,0,0,0,2.47-3.9c.16-.28.31-.57.47-.87s.45-.88.67-1.34.45-.93.66-1.41c.09-.19.17-.38.25-.57s.29-.67.44-1q.94-2.29,1.78-4.85c.18-.56.36-1.13.53-1.71s.36-1.22.54-1.84c.29-1.05.57-2.13.83-3.24.07-.28.14-.57.2-.86.12-.5.23-1,.34-1.51s.27-1.27.39-1.92.26-1.34.38-2c.1-.51.19-1,.27-1.55s.17-1.05.25-1.58c.13-.8.24-1.61.35-2.42.34-2.45.62-5,.84-7.63.07-.78.13-1.56.19-2.36s.11-1.51.15-2.28.11-1.84.15-2.77c1.32-.05,120.7-5.33,122.86-163.18,0,0,14.63,2.41,23.15,6.14S459.51,285,508.92,265.49Z"/><path class="cls-8" d="M494,119.12c-.05.44-5.57,44.41-38.25,70L453,191.34c-1.17-.16-1.95-1.44-2.47-3.07a14.13,14.13,0,0,1,2-12.22c51.15-74.18,6.67-142,6.67-142h0c1.12-.33,2.27-.62,3.43-.89s2.36-.51,3.56-.72A21.58,21.58,0,0,1,489,43.17C495,54.35,500.83,76.58,494,119.12Z"/><path class="cls-8" d="M291.26,136c-4.88,29.79-73,43.69-75.16,44.12l1.35-.45c.57-.18,1.13-.38,1.69-.58s1.09-.38,1.62-.58q2.46-.89,4.75-1.85l1.39-.59c.46-.19.92-.39,1.36-.6l.43-.19,1.21-.56c.47-.21.93-.43,1.39-.66l1.36-.67,1.48-.76c.41-.21.81-.43,1.21-.65l1.17-.65c.41-.23.82-.46,1.22-.7a78.43,78.43,0,0,0,8.53-5.71l.55-.43c1.59-1.24,3-2.49,4.35-3.73.4-.38.79-.75,1.17-1.13,1.13-1.12,2.14-2.23,3.06-3.31.61-.72,1.17-1.44,1.68-2.13.26-.35.51-.69.74-1l.05-.07c.22-.32.42-.63.62-.94s.42-.66.61-1,.37-.64.54-1c.35-.65.66-1.28.92-1.89.12-.25.22-.5.32-.74,0,0,0,0,0,0,.1-.27.19-.54.28-.8,1.3-3.91.94-7.11-1-9a6.9,6.9,0,0,0-1.12-.88,187.41,187.41,0,0,1,21-1.19q1.58,0,3.12,0h.68l1.77.05C287.49,135.74,289.39,135.83,291.26,136Z"/><path class="cls-7" d="M292.85,46.21c0,.28,0,.57,0,.86-1.13,17.13-14.12,46.87-68,93l-.24.21-5.86,5,.68-.24,6.9-2.43c5.14-1.81,16.75-5.15,24.71-5.06,3.08,0,5.62.59,7,1.94a3.61,3.61,0,0,1,.86,2.74h0a0,0,0,0,1,0,0,0,0,0,0,1,0,0,10.43,10.43,0,0,1-.59,3.12c-3.4,10.22-22.68,31.23-71.34,37.65l-.25.06c-.15,0-15.08,4.59-23-2.87a14.81,14.81,0,0,1-3.93-6.53,18.78,18.78,0,0,1-.66-2.73c42.71,10.3,76.75-16.24,77.63-16.94-16.86,8.67-50.39-1.54-30.62-13.17,64.24-45.65,66.09-109.15,66.09-109.15a17.37,17.37,0,0,1-.54-3.55c0-.11,0-.23,0-.34q4.2-.41,8.56-.41c.24,0,.48,0,.72,0a12.46,12.46,0,0,1,10.95,9.36,30.26,30.26,0,0,1,.92,6.89C292.89,44.49,292.89,45.34,292.85,46.21Z"/><path class="cls-1" d="M308.7,285.78a1,1,0,0,1-.2-2c3.14-.63,5-4.09,5.05-7.08s-1.2-5.88-3.73-9.23c-2.27-3-6.22-3.66-10-4.28a27.87,27.87,0,0,1-5.31-1.2,1,1,0,0,1-.46-1.52c1.66-2.31,4.19-3.55,6.63-4.74.68-.33,1.35-.66,2-1,2.53-1.37,4.31-3.27,4.78-5.1a4.47,4.47,0,0,0-.74-3.64,7.13,7.13,0,0,0-2-2c-3.4-2.22-14.48-8.69-22.87-4.68-.69.44-1.37.84-2,1.2a1,1,0,0,1-1.08-1.68,14.15,14.15,0,0,1,2.12-1.27c3.2-2.06,6.74-5.09,7.92-9.52a8.46,8.46,0,0,0-1.54-7.79c-3.29-3.74-8.83-2.83-14.32-1.28-2.9.81-4.85,1.18-6.74,1.54s-3.75.72-6.57,1.51a1,1,0,0,1-1.19-.59,1,1,0,0,1,.46-1.26,8.87,8.87,0,0,0,1.87-1.31,5.64,5.64,0,0,0,1.29-7.36A12.65,12.65,0,0,0,248.43,206l-10.21,2.73a1,1,0,0,1-.52-1.93L247.92,204a14.56,14.56,0,0,1,15.81,6.56,7.43,7.43,0,0,1-.5,8.51c.9-.19,1.71-.35,2.52-.5,1.93-.37,3.75-.72,6.57-1.51,6.12-1.72,12.34-2.68,16.36,1.89a10.43,10.43,0,0,1,2,9.63,16.13,16.13,0,0,1-4.73,7.57c8.17-.83,16.81,4.22,19.82,6.19a9.05,9.05,0,0,1,2.61,2.54,6.38,6.38,0,0,1,1,5.22c-.85,3.41-4.31,5.6-5.76,6.38-.67.36-1.37.7-2.07,1a19.83,19.83,0,0,0-4.93,3c1.07.27,2.26.47,3.51.67,4,.65,8.56,1.39,11.32,5.05s4.15,7.13,4.13,10.44c0,3.74-2.36,8.17-6.66,9Z"/><path class="cls-1" d="M318.48,353.87a1.37,1.37,0,0,1-.61-.14,1,1,0,0,1-.46-1.34,1,1,0,0,1,1-.55l0,0a82.73,82.73,0,0,0,9-8.57c3-3.3,5.75-7.25,3.85-11.61a8.74,8.74,0,0,0-3.64-3.95c-4-2.35-8.74-2-12.87-1.43a1,1,0,0,1-1-.53,1,1,0,0,1,.19-1.16l5.25-5.3c1.86-1.89,4-4,4.73-6.66a7.72,7.72,0,0,0-8-9.83c-1.05.07-2.09.05-3.1,0-.69,0-1.37,0-2,0h0a1,1,0,0,1,0-2c.69,0,1.4,0,2.13,0,1,0,2,0,2.92,0a9.73,9.73,0,0,1,10,12.38c-.89,3.13-3.31,5.56-5.24,7.52l-3.23,3.26c3.72-.33,7.71-.09,11.3,2a10.69,10.69,0,0,1,4.45,4.87c2.38,5.43-1,10.2-4.19,13.75a84.77,84.77,0,0,1-9.21,8.77A1.9,1.9,0,0,1,318.48,353.87Z"/><path class="cls-1" d="M352.64,294.06a1,1,0,0,1-.9-.56,1,1,0,0,1,.46-1.34c3.09-1.49,6.28-3,8.25-5.91a8.37,8.37,0,0,0,1.28-4.75c0-5.5-2.87-6.72-6.22-8.13a14,14,0,0,1-5.45-3.39,1,1,0,0,1-.23-.85,1,1,0,0,1,.53-.7l.12-.06a6.54,6.54,0,0,0,3.53-6.53,6.71,6.71,0,0,0-4.84-5.9L342.72,254a1,1,0,0,1-.64-.59,1,1,0,0,1,.06-.87l5.8-9.92c1.56-2.66,3.32-5.68,3.06-8.91a5.54,5.54,0,0,0-1.85-3.8c-4.69-4-10-1.67-12.78,0a1,1,0,0,1-1.06-1.7c5.57-3.44,10.94-3.4,15.13.13a7.55,7.55,0,0,1,2.55,5.17c.32,3.86-1.61,7.16-3.32,10.08l-5.16,8.82,5.23,1.55a8.68,8.68,0,0,1,6.26,7.63,8.48,8.48,0,0,1-3.55,7.86,16.22,16.22,0,0,0,3.84,2c3.5,1.48,7.47,3.15,7.44,10a10.3,10.3,0,0,1-1.63,5.87c-2.27,3.31-5.86,5.05-9,6.58A1,1,0,0,1,352.64,294.06Z"/><path class="cls-9" d="M506.69,241.67c-4.46,4.77-12.72-9-27.1-9.13-20-.11-15.43-21.64-11-26.41s16.59-.69,27.1,9.13S511.15,236.9,506.69,241.67Z"/><path class="cls-9" d="M447.51,46.76c-10.4,9.1-50.73,49.32-46.43,123.22a4.92,4.92,0,0,0,4,4.62c2.17.33,4.85-.86,6.9-6.92,4-11.79,7-74.46,40.06-106.06A22.77,22.77,0,0,0,458.18,52c1.15-3.75,1.11-7.61-3.87-7.77A10,10,0,0,0,447.51,46.76Z"/><path class="cls-9" d="M187.49,106.53c2.87-9.16,15.23-44.53,33.12-39.43.54.15.94,1.64.88,3.64a9.09,9.09,0,0,1-2.12,6.05c-3.14,3.35-18.71,5-28.51,34a14.46,14.46,0,0,1-2.75,5.34c-1,1-1.94.86-1.67-3.59A26.24,26.24,0,0,1,187.49,106.53Z"/><path class="cls-9" d="M370.77,178.9c-2.92.85-10.75-3-24.95-.45-12.62,2.3-30.27-3.8-18-17.26,3.38-3.71,13.08-4.44,24.94.45S385.41,174.65,370.77,178.9Z"/><path class="cls-9" d="M353.18,508.81c10.74,14.81,23.42,23.92,28.34,20.36s-13.69-14.71-22.66-30.35-11.3-26.85-16.22-23.28S342.44,494,353.18,508.81Z"/><path class="cls-9" d="M248.14,495.1c2.13,7.8,9.61,20.48,6.41,22.72s-9.77-1.63-14.66-8.63-6.25-14.49-3-16.73S245.9,486.86,248.14,495.1Z"/><path class="cls-10" d="M283.27,385.27c.08,29.9-5.49,51.82-15.3,60.39l-.57.21c-1.66.8-3.33,1.53-5,2.22-.58.24-1.17.47-1.75.69-1.36.52-2.73,1-4.1,1.46l-1.8.58-1.77.53c-.93.27-1.86.53-2.8.77l-1.39.35-1.39.33-1.62.37-1.17.24c-.93.19-1.86.37-2.8.54s-1.71.29-2.57.42-1.71.26-2.57.37-1.71.22-2.56.31l-2.44.25-.9.08-2.58.19c-4.82.31-9.59.36-14.24.2l-1.84-.07c-1,0-2-.09-2.93-.16-.73,0-1.46-.09-2.18-.15l-.52,0-1.58-.13c-1.06-.09-2.12-.2-3.16-.31s-1.82-.2-2.71-.31l-.68-.08c-.9-.11-1.8-.23-2.68-.36h-.07l-3-.44-1.77-.29-1.61-.27-.59-.11-1.19-.21c-2.63-.49-5.13-1-7.5-1.54l-1.68-.38-2.16-.52c3.45.54,89.77,12.9,87.81-96.52-2-111.65-110.85-150.29-110.85-150.29V203c2.46.44,5.06.94,7.75,1.52l2,.44c1.55.34,3.13.71,4.75,1.11l2.23.56c3.38.85,6.88,1.83,10.44,2.93l1.43.45q1.35.42,2.7.87l2.75.93c28.34,9.86,64.93,30.12,78.33,70.64C276.88,316.88,283.2,353.4,283.27,385.27Z"/><path class="cls-9" d="M168.9,372.2c-10.37,3.77-20.68,3-29.82-2.21-12.26-7-20.91-21-24.36-39.55-.18-1-.35-1.91-.5-2.85,3.12,1.28,8,2.51,15.28,2.51,13.75,0,36-4.38,71-21a.56.56,0,0,1,0,.12,2.41,2.41,0,0,0,.08.25,60.32,60.32,0,0,1,2.26,11.22C206,352,191.58,364,168.9,372.2Z"/><path class="cls-4" d="M199.57,306.22c-57.25,27.19-79.75,21-85.91,17.73-3.2-22.72,0-41,9.06-52,6.11-7.35,14.85-11.23,25.29-11.23,11.12,0,24.24,7,35.09,18.67a80.76,80.76,0,0,1,13.56,19.81A70.15,70.15,0,0,1,199.57,306.22Z"/><path class="cls-9" d="M132.29,268.58c-4.47,3.92-20.42,20.37-14.69,51a3.84,3.84,0,0,0,1.73,2.61c1,.57,2,.45,1.83-2.92-.26-6.13.59-21.71,14.55-48.77,0,0,2.34-2.81-.44-3A4.16,4.16,0,0,0,132.29,268.58Z"/><path d="M135,331.38c-.43,2.71-2.26,15.73,1.53,19.17a.22.22,0,0,0,.35-.09c.72-2,5.56-13.22,21.35-3.57,17.27,10.55,12,29.27,0,28.17-11-1-25.72-12.29-28.1-34a10.65,10.65,0,0,1,4.53-9.92h0A.21.21,0,0,1,135,331.38Z"/><path class="cls-1" d="M225,304.6a1.51,1.51,0,0,0-2,.69c-3.88,7.9-14,10.13-17.68,10.69a60.86,60.86,0,0,0-1.53-6.55c2.25-1.61,8.14-6.12,11.7-11.88A1.5,1.5,0,1,0,212.9,296c-2.89,4.67-7.61,8.57-10.09,10.43-8.74-25.88-33.08-48.67-54.8-48.67-11.36,0-20.9,4.26-27.59,12.32S109.9,290.24,109.5,304.9l-2.94-1.17,2.9,4a120.42,120.42,0,0,0,1.14,16c.09.71.19,1.44.31,2.17.25,1.69.54,3.4.86,5.14,3.62,19.39,12.79,34.16,25.82,41.61a36.87,36.87,0,0,0,18.42,5,40.67,40.67,0,0,0,13.64-2.45l23.51.93-18.11-3c18.6-7.69,34.08-20.34,30.84-52.68,0-.47-.1-.94-.16-1.41,4.19-.61,15.39-3.08,19.93-12.33A1.51,1.51,0,0,0,225,304.6ZM122.72,272c6.11-7.35,14.85-11.23,25.29-11.23,11.12,0,24.24,7,35.09,18.67a80.76,80.76,0,0,1,13.56,19.81,70.15,70.15,0,0,1,2.91,7c-57.25,27.19-79.75,21-85.91,17.73C110.46,301.23,113.62,282.92,122.72,272ZM168.9,372.2a41.35,41.35,0,0,1-4.39,1.32,35.29,35.29,0,0,1-9.34,1A33.8,33.8,0,0,1,139.08,370c-12.26-7-20.91-21-24.36-39.55-.18-1-.35-1.91-.5-2.85,3.12,1.28,8,2.51,15.28,2.51,13.75,0,36-4.38,71-21a.56.56,0,0,1,0,.12,2.41,2.41,0,0,0,.08.25,60.32,60.32,0,0,1,2.26,11.22C206,352,191.58,364,168.9,372.2Z"/><path class="cls-1" d="M102.86,413.17a19.19,19.19,0,0,0,3.1,3A35.5,35.5,0,0,1,102.86,413.17Z"/><path class="cls-1" d="M511,218.68c-13.1-20.28-41.17-27.36-50.82-29.25,31.38-26.62,36.76-69.52,36.8-69.9,6.92-43.3.88-66.2-5.4-77.79a24.55,24.55,0,0,0-25.9-12.3C434,35,410.8,61.67,398.76,106.67c-7.37,27.56-8.49,54.33-8.65,63.37-7.35-5.91-30.62-22.91-65.24-31.81a183.77,183.77,0,0,0-75.2-3.32,76,76,0,0,0-17.45,3c62.87-55.4,66.34-87.3,62.63-101.57a15.42,15.42,0,0,0-14.59-11.62c-71.74.08-110.65,78.95-122.33,125.54-2.27,9.06-2.78,16.56-1.54,22.42-1.57,1-3.13,2.05-4.7,3.11s-2.89,1.95-4.34,2.91c-6,3.93-26.64,19.17-42.3,50.29C84.9,269.09,81.18,318.24,94,375.12c-1.39,4.07-10.56,34.31,19.32,49.46,1.47,3.24,9.72,20.2,21.59,22.83a47.32,47.32,0,0,0,21.35.12c3.93,1.48,31.09,11.27,62.66,11.27,1.67,0,3.33,0,5-.08-.59,8.74-1.57,41.32,14.49,60.39,7,8.3,16.33,12.91,27.76,13.69,1.34.1,2.62.14,3.87.14,17.11,0,25.37-8.36,29.32-15.66,10.54-19.51,2.44-51.19-11.26-70.16a190.29,190.29,0,0,0,26.82-5.66l1.31-.38h0q3-.91,6.18-2l.38-.13c4.87,31.61,18.44,77.74,46.5,95.55,8.82,5.59,16.1,7.63,22,7.63a22.69,22.69,0,0,0,15.47-5.9,25.91,25.91,0,0,0,8-13.61c6.71-28.76-.05-53.65-19-70.1l-.1-.08c-3.32-2.88-22.58-18.7-35.9-29.63l-1.27-1c.94-.61,1.86-1.23,2.8-1.87h0a133.54,133.54,0,0,0,45.63-53.35c20.53-43.19,23.63-74.34,22.61-92.86-.16-2.87-.42-5.53-.74-8,.4.44.83.88,1.26,1.32,18.23,18.22,39.61,23.18,63.56,14.73a34.9,34.9,0,0,0,21.65-23.19C519.68,243.33,518.28,229.9,511,218.68ZM158.72,165.54a62.24,62.24,0,0,1,2.12-14.85c11-43.85,46.41-116.81,110.87-122.86q4.2-.41,8.56-.41c.24,0,.48,0,.72,0a12.46,12.46,0,0,1,10.95,9.36,30.26,30.26,0,0,1,.92,6.89c0,.8,0,1.65,0,2.52,0,.28,0,.57,0,.86-.95,17.07-13.75,46.9-68,93.31l-.24.21L219.43,145l6.9-2.43c5.14-1.81,16.75-5.15,24.71-5.06,3.08,0,5.62.59,7,1.94a3.61,3.61,0,0,1,.86,2.74h0a0,0,0,0,1,0,0,0,0,0,0,1,0,0,9.92,9.92,0,0,1-.59,3.46C254.92,156,235.64,177,187,183.39l-.25.06c-.15.05-15.08,4.59-23-2.87a14.81,14.81,0,0,1-3.93-6.53,20.12,20.12,0,0,1-.72-3.08,31.23,31.23,0,0,1-.39-5.09ZM225.87,455.7l-1.78.07c-2.74.1-5.46.11-8.13.06l-2-.06-1.84-.07c-1,0-2-.09-2.93-.16-.73,0-1.46-.09-2.18-.15l-.52,0-1.58-.13-.94-.08-1.26-.13-1-.1c-.46-.05-.91-.09-1.36-.15L199,454.6l-.68-.08c-.9-.11-1.8-.23-2.68-.36h-.07l-1.49-.21-1.47-.23-1.77-.29-1.37-.23-.24,0-.59-.11-1.19-.21c-2.63-.49-5.13-1-7.5-1.54l-1.68-.38-2.16-.52-1.18-.29-1.44-.36-1.25-.33-.37-.1-1.91-.52c-1-.28-2-.56-2.88-.83l-1.39-.42-1.88-.58-.84-.27c-1.1-.35-2.06-.68-2.87-1,2.89-1.77,7.24-5.13,7.73-9.44l-.44,0a4,4,0,0,0-3.38,1.95c-1.77,2.89-5.8,5.28-7.64,6.15l-.51.16c-.08,0-8.66,2.56-20.34,0l-.69-.17-.57-.18a13.8,13.8,0,0,1-1.34-.53l-.81-.39c-.32-.16-.63-.34-.94-.52s-.72-.45-1.07-.69l-.61-.44-.56-.43a30.43,30.43,0,0,1-3.66-3.45c-.87-1-1.69-2-2.46-3l-.28-.37c-.85-1.14-1.63-2.29-2.33-3.4h0l-.57-.91-.1-.17c3.62,3.79,9,8.17,15.52,9.48a19.12,19.12,0,0,0,3.82.39,20.33,20.33,0,0,0,11.61-3.85,1.52,1.52,0,0,0,.66-1.28c0-.5-.54-12.18-20.32-12.18h-.1a51.62,51.62,0,0,1-14.89-1.84h0a20.65,20.65,0,0,1-8.91-3.67c-.24-.16-.47-.34-.69-.51l0,0a2.11,2.11,0,0,1-.23-.19l-.14-.12a19,19,0,0,1-3-2.89l-.06-.07c-.62-.69-1.2-1.38-1.73-2.08-.23-.3-.45-.61-.67-.91-.45-.64-.88-1.29-1.27-1.94l-.23-.38-.47-.85c-.2-.35-.38-.7-.55-1.05-.35-.69-.66-1.39-.94-2.08l0-.06c-.13-.33-.26-.66-.38-1-.27-.74-.52-1.48-.73-2.22-.3-1.05-.55-2.09-.74-3.13l0-.15c-.12-.65-.22-1.29-.3-1.93a40.31,40.31,0,0,1-.1-9.22c0-.22,0-.44.07-.66.09-.87.21-1.69.35-2.46a2,2,0,0,1,.06-.35c0-.2.07-.4.11-.6a1.77,1.77,0,0,1,0-.2c.1-.55.21-1.06.33-1.55l.09-.4c0-.09,0-.19.08-.28a0,0,0,0,1,0,0,4,4,0,0,1,3.44-2.79c6.3-.54,9.81,2,11.32,3.58a1.77,1.77,0,0,0,2.18.28l1.27-.79c-.21-.33-5-7.87-17.17-5.78-.36-1.61-.71-3.22-1-4.82-.23-1.09-.45-2.18-.66-3.26q-1.15-5.76-2-11.4c-.17-1-.33-2.05-.47-3.07-.11-.64-.2-1.27-.28-1.9-.17-1.12-.32-2.24-.47-3.35-.17-1.29-.33-2.58-.48-3.86s-.3-2.56-.43-3.84-.26-2.54-.37-3.8c-.22-2.47-.41-4.91-.56-7.34a1.21,1.21,0,0,0,0-.19q-.22-3.69-.34-7.32a.27.27,0,0,0,0-.09c-.8-25.74,2.58-49.38,10.12-70.75a160.69,160.69,0,0,1,8-18.71A143.77,143.77,0,0,1,128.14,200a207.2,207.2,0,0,1,24.94,3c2.46.44,5.06.94,7.75,1.52.67.14,1.35.28,2,.44,1.55.34,3.13.71,4.75,1.11l2.23.56c2.53.64,5.14,1.35,7.78,2.13l2.66.8,1.43.45q1.35.42,2.7.87l2.75.93c28.34,9.86,64.93,30.12,78.33,70.64,11.38,34.44,17.7,71,17.77,102.83.08,29.9-5.49,51.82-15.3,60.39l-.57.21c-1.66.8-3.33,1.53-5,2.22-.58.24-1.17.47-1.75.69-.73.28-1.46.55-2.2.81l-1.9.65c-.6.21-1.2.4-1.8.58l-1.77.53c-.93.27-1.86.53-2.8.77l-1.39.35-1.39.33-1.62.37-1.17.24c-.93.19-1.86.37-2.8.54s-1.71.29-2.57.42l-1.28.19-1.29.18-1.28.16-1.28.15-2.24.23-.2,0-.9.08-2.58.19H228l-2.15.12ZM118.8,424.42a63,63,0,0,0,11.75,1h.27c14,0,16.69,6.25,17.2,8.49a16.55,16.55,0,0,1-12.37,2.49C127.94,434.83,121.68,428.06,118.8,424.42Zm182.36,71.19c0,7.51-1.37,14.54-4.45,20.24-.16.29-.32.58-.49.86s-.33.57-.51.84c-.42.67-.87,1.32-1.34,1.93-.2.27-.41.53-.63.79s-.51.62-.77.91-.52.56-.79.82l0,0c-.24.24-.48.48-.72.7s-.47.43-.71.62a5.37,5.37,0,0,1-.53.44,21.26,21.26,0,0,1-2.27,1.62c-.28.19-.57.36-.86.52a22.73,22.73,0,0,1-2,1.06c-.38.18-.78.35-1.18.51s-.92.36-1.39.53-.71.24-1.08.35-.85.26-1.28.36-.87.22-1.32.32-.9.19-1.36.26-.82.14-1.24.2l-.45.06-1.13.13c-.49,0-1,.09-1.48.12l-1.24.07c-.61,0-1.24,0-1.87,0-1.18,0-2.4,0-3.64-.13-10.59-.72-19.22-5-25.67-12.62-15.37-18.25-14.26-50.81-13.75-58.61a125.45,125.45,0,0,0,16.74-2,101.81,101.81,0,0,0,24.62-7.91,145.49,145.49,0,0,0,16.75-1.15C294.51,460,301.16,479,301.16,495.61Zm57.73-77.72h0c-1,.65-1.93,1.29-2.9,1.91l-9.19-7.53a1.5,1.5,0,0,0-1.9,2.32l8.41,6.89,2.46,2c13.28,10.9,34.44,28.27,37.87,31.24l.1.09C412.09,470.74,418.34,494,411.81,522a23,23,0,0,1-7,12,20.51,20.51,0,0,1-4.53,3.08c-.34.17-.69.33-1,.47a17.33,17.33,0,0,1-2,.73l-.29.08a19.5,19.5,0,0,1-4.21.7l-.33,0a20.18,20.18,0,0,1-2.2,0c-.34,0-.69,0-1-.07l-.87-.1-.6-.08q-1.11-.17-2.25-.42c-.82-.18-1.65-.41-2.49-.67s-1.7-.55-2.56-.89c-.43-.17-.87-.34-1.31-.53-.87-.37-1.76-.78-2.65-1.23s-1.8-.93-2.72-1.45-1.84-1.07-2.78-1.67c-27.37-17.36-40.55-63-45.23-94-.16-1-.3-2-.43-3-.62-4.42-1-8.5-1.31-12.09a1.5,1.5,0,1,0-3,.22c.28,3.81.74,8.16,1.41,12.89l-.81.28c-2.06.7-4.09,1.34-6.11,1.94h0c-2.34-2.14-9.49-9.36-9.69-18-.12-5.37,2.47-10.43,7.69-15a37.56,37.56,0,0,1,23.45-9.19c1.23-.05,2.5-.07,3.8-.05h.75c.5,0,1,0,1.52.05l.76,0c.7,0,1.4.09,2.1.17.5.05,1,.1,1.5.18l.49.06.43.07c.41.06.82.13,1.23.22.23,0,.47.08.7.14.4.08.8.18,1.2.28l.45.13a20.83,20.83,0,0,1,2.63.9l.45.2a13.54,13.54,0,0,1,1.32.66l.24.14c.26.15.51.31.76.48l.13.09a10.15,10.15,0,0,1,2.88,3C362.38,406.24,361.93,411.35,358.89,417.89ZM512.32,257.76c-.27.93-.59,1.85-.94,2.74-.09.23-.18.46-.28.69s-.32.75-.49,1.11-.22.49-.35.73-.21.42-.32.63q-.48.94-1,1.83l-.07.12c-.21.36-.43.7-.66,1s-.6.88-.91,1.31-.44.6-.68.89-.56.71-.86,1a31.37,31.37,0,0,1-8.38,6.88c-.35.2-.71.4-1.08.58-.65.34-1.31.65-2,.93l-.72.29c-.33.14-.68.27-1,.39-22.76,8-43.1,3.31-60.43-14l-.06-.06a20.45,20.45,0,0,1-5.28-9.35c-2.06-8.06-4.52-12.1-4.68-12.36L420.71,241a.69.69,0,0,0-1.28.34l-.11,2.62A58.63,58.63,0,0,0,422,255.53c1.91,5.83,4.08,11.56,4.45,17.69l.06.95c.95,18.14-2.15,48.67-22.34,91.14a130.09,130.09,0,0,1-40.81,49.43c1.78-5.51,1.59-10.07-.56-13.62-4.53-7.46-16.65-8.58-26-8.21a40.63,40.63,0,0,0-25.32,9.94c-5.91,5.23-8.84,11.08-8.7,17.36.2,8.58,6,15.63,9.34,18.94a182.52,182.52,0,0,1-39.8,6.41c.42-.48.83-1,1.23-1.52l.4-.54a36.68,36.68,0,0,0,2.47-3.9c.16-.28.31-.57.47-.87s.45-.88.67-1.34.45-.93.66-1.41c.09-.19.17-.38.25-.57s.29-.67.44-1q.94-2.29,1.78-4.85c.18-.56.36-1.13.53-1.71s.36-1.22.54-1.84c.29-1.05.56-2.13.83-3.24.07-.28.14-.57.2-.86.12-.5.23-1,.34-1.51s.27-1.27.39-1.92.26-1.34.38-2c.1-.51.19-1,.27-1.55s.17-1.05.25-1.58c.13-.8.24-1.61.35-2.42.34-2.45.62-5,.84-7.63.07-.78.13-1.57.19-2.36s.11-1.51.15-2.28.11-1.84.15-2.77.07-1.62.09-2.44.05-1.64.07-2.47c.05-1.86.07-3.75.06-5.68-.07-32.18-6.44-69-17.92-103.76-10.92-33-38.67-58.1-80.27-72.56a234.48,234.48,0,0,0-57.36-11.82A104.86,104.86,0,0,1,149,181.24q2.19-1.44,4.37-2.93c1.29-.87,2.58-1.73,3.86-2.56a17.37,17.37,0,0,0,4.47,7c3.68,3.47,8.46,4.76,12.91,5A39,39,0,0,0,186,186.76c1.22-.29,2.47-.53,3.72-.71,1.52-.22,3-.45,4.46-.7l2.16-.38,1.72-.32,1.43-.28q3.66-.74,7.06-1.58l1.92-.49,1.89-.5,1.84-.53c1.33-.38,2.62-.78,3.89-1.19h0l1.35-.45,1.69-.58,1.62-.58q2.46-.89,4.75-1.85l1.39-.59,1.36-.6.43-.19,1.21-.56c.47-.21.93-.43,1.39-.66l1.36-.67,1.48-.76c.41-.21.81-.43,1.21-.65l1.17-.65c.41-.23.82-.46,1.22-.7a78.43,78.43,0,0,0,8.53-5.71l.55-.43c1.59-1.24,3-2.49,4.35-3.73.4-.38.79-.75,1.17-1.13,1.13-1.12,2.14-2.23,3.06-3.31.61-.72,1.17-1.44,1.68-2.13.26-.35.51-.69.74-1l.05-.07c.22-.32.42-.63.62-.94s.42-.66.61-1,.37-.64.54-1c.35-.65.66-1.28.92-1.89.12-.25.22-.5.32-.74,0,0,0,0,0,0,.1-.27.19-.54.28-.8,1.3-3.91.94-7.11-1-9a6.9,6.9,0,0,0-1.12-.88,187.41,187.41,0,0,1,21-1.19q1.58,0,3.12,0h.68l1.77.05c1.93.05,3.83.14,5.7.26s3.8.27,5.66.45c.54,0,1.08.1,1.61.16.79.07,1.58.16,2.35.26a4.26,4.26,0,0,1,.5.06c.78.08,1.55.18,2.31.28l.2,0,2.35.34c2.74.4,5.4.86,8,1.36l2.22.45.2,0c.61.13,1.21.25,1.81.39l.76.17,2,.46c.95.22,1.89.45,2.81.69,41.48,10.63,66.34,33,66.59,33.26l2.56,2.34-.05-3.47c0-.32-.33-32.5,8.6-65.84q.63-2.35,1.34-4.77c.1-.32.19-.65.29-1,.44-1.48.91-3,1.41-4.48.16-.49.32-1,.5-1.48s.33-1,.51-1.49.34-1,.53-1.49c.27-.77.55-1.54.85-2.31.48-1.29,1-2.57,1.51-3.86l.68-1.65c.37-.88.75-1.75,1.14-2.63s.78-1.73,1.18-2.58.75-1.58,1.14-2.37c.59-1.2,1.21-2.39,1.84-3.58.26-.48.51-1,.78-1.42s.38-.7.58-1l.21-.38c.39-.69.79-1.37,1.2-2l.06-.11c.51-.84,1-1.68,1.55-2.5s1.1-1.7,1.66-2.53l1-1.39c.52-.74,1.06-1.48,1.6-2.2l.15-.2c.3-.4.61-.81.93-1.21s.62-.81,1-1.2.87-1.08,1.32-1.6c.1-.13.21-.25.31-.37.45-.52.89-1,1.35-1.53s.68-.76,1-1.13.93-1,1.41-1.47l.33-.32.74-.74.75-.72c.44-.43.89-.84,1.35-1.26.3-.27.6-.54.91-.8,1-.89,2-1.75,3.12-2.57.54-.44,1.1-.85,1.66-1.26a3.62,3.62,0,0,1,.32-.22c.53-.39,1.06-.77,1.61-1.13a1.88,1.88,0,0,1,.23-.16c.3-.2.6-.4.91-.59s.8-.52,1.2-.76c.23-.15.47-.29.71-.43s.47-.29.71-.42c.48-.29,1-.56,1.45-.82l1.47-.78c.49-.26,1-.51,1.5-.74s1-.48,1.53-.71l.92-.4c.73-.32,1.47-.62,2.23-.9l1.21-.45,1.22-.42c.82-.28,1.65-.55,2.49-.79h0c1.12-.33,2.27-.62,3.43-.89s2.36-.51,3.56-.72A21.58,21.58,0,0,1,489,43.17c6.06,11.18,11.86,33.41,5.07,76-.05.44-5.57,44.41-38.25,70L453,191.34h.11l3.39.48c.37.06,37.14,5.45,52,28.49C515.26,230.77,516.54,243.37,512.32,257.76Z"/><path class="cls-9" d="M148,433.9a16.55,16.55,0,0,1-12.37,2.49c-7.71-1.56-14-8.33-16.85-12a63,63,0,0,0,11.75,1h.27C144.83,425.41,147.51,431.66,148,433.9Z"/><path class="cls-1" d="M106,416.18a19.19,19.19,0,0,1-3.1-3A35.5,35.5,0,0,0,106,416.18Z"/><circle class="cls-11" cx="226.95" cy="385.41" r="22.09"/><path class="cls-9" d="M222.29,368.42c2.54,1.59-2.95,6.53-1.72,13,1.71,9-8.38,8.85-10.92,7.27s-1.77-7.41,1.72-13S219.75,366.84,222.29,368.42Z"/></svg>