<svg id="Layer_1" data-name="Layer 1" xmlns="http://www.w3.org/2000/svg" xmlns:xlink="http://www.w3.org/1999/xlink" viewBox="0 0 566.93 566.93"><defs><style>.cls-1{fill:#77732f;}.cls-2{fill:#e0932b;}.cls-3{fill:#da6b28;}.cls-4{fill:#f2eb41;}.cls-5{fill:#e9d917;}.cls-6{fill:#e9d91c;}.cls-7{fill:url(#radial-gradient);}.cls-8{fill:url(#radial-gradient-2);}.cls-10,.cls-9{fill:#fff;}.cls-10{stroke:#77732f;stroke-linecap:round;stroke-linejoin:round;stroke-width:3px;}.cls-11{fill:#231f20;}.cls-12{fill:#f3eb3f;}</style><radialGradient id="radial-gradient" cx="364.04" cy="198.72" r="14.69" gradientUnits="userSpaceOnUse"><stop offset="0" stop-color="#d46386"/><stop offset="0.15" stop-color="#d77080"/><stop offset="0.42" stop-color="#de926e"/><stop offset="0.78" stop-color="#eac853"/><stop offset="1" stop-color="#f2eb41"/></radialGradient><radialGradient id="radial-gradient-2" cx="237.31" cy="229.57" r="14.69" xlink:href="#radial-gradient"/></defs><path class="cls-1" d="M345.08,417.64c.89,0,2.07,0,2.95.06a3.43,3.43,0,0,1,.57.06c.66.09.56.25.64.4,2.1,4.27,1.83,9,2.2,13.66.51,4.88.18,9.84.34,14.76.2,7.38,1,14.71,1,22.1,0,1.23,0,2.47-.06,3.7a4.2,4.2,0,0,1-1.91,3.89l-1.09.11a4.21,4.21,0,0,1-2.63-3.45c-2-8.4-2.65-17-4.08-25.49-1.44-7.26-2.68-14.51-3.5-21.86a21.07,21.07,0,0,1,.48-6.52c.06-.16-.07-.3.56-.51a16.18,16.18,0,0,1,2.23-.57,16,16,0,0,1,2.29-.34Z"/><path class="cls-1" d="M259.05,394.05c.72.54,1.7,1.19,2.35,1.78a2.65,2.65,0,0,1,.43.38c.48.46.31.53.29.7-.81,4.69-3.82,8.41-6.23,12.35-2.45,4.26-5.62,8.09-8.38,12.16-4.17,6.1-7.79,12.52-12.14,18.5-.71,1-1.48,2-2.21,3a4.21,4.21,0,0,1-3.83,2l-1-.55a4.19,4.19,0,0,1-.11-4.33c3.31-8,7.81-15.33,11.65-23,2.2-4.39,4-9,6.48-13.27,1.23-2.12,2.24-4.37,3.49-6.48a20.77,20.77,0,0,1,4.21-5c.14-.1.12-.29.75-.1A18.45,18.45,0,0,1,257,393a18.15,18.15,0,0,1,2.05,1.07Z"/><path class="cls-2" d="M277.1,398.72s-2.33,9.68-15.67,7.34a42.06,42.06,0,0,1-10.49-3.49c-22.7-10.55,0-27.07,0-27.07l14.58,12.94Z"/><path class="cls-3" d="M277.1,398.72s-2.33,9.68-15.67,7.34c-1.77-12.51.74-17.32.74-17.32a25.22,25.22,0,0,1,3.35-.3Z"/><path class="cls-1" d="M265.35,407.94c-4.27,0-9.3-1.34-15.05-4-6.76-3.14-10.43-7.19-10.9-12-.89-9.11,10.18-17.28,10.65-17.62a1.5,1.5,0,1,1,1.77,2.42c-.1.08-10.16,7.51-9.44,14.92.37,3.69,3.45,6.92,9.19,9.58,8.22,3.83,14.9,4.72,19.31,2.59a9.05,9.05,0,0,0,4.76-5.43,1.5,1.5,0,0,1,2.92.7,12.08,12.08,0,0,1-6.38,7.43A15.54,15.54,0,0,1,265.35,407.94Z"/><path class="cls-2" d="M365.57,407.92c-2.51,8.52-9.74,16.49-23.85,16.1-24.85-.68-15.26-19.34-15.26-19.34l16.12-5.88L364.07,391C366.67,394.64,367.49,401.44,365.57,407.92Z"/><path class="cls-3" d="M365.57,407.92c-10.12.06-18.63-5.56-23-9.12L364.07,391C366.67,394.64,367.49,401.44,365.57,407.92Z"/><path class="cls-1" d="M342.67,425.53h-1c-8.62-.24-14.32-2.62-17-7.08-3.72-6.28.23-14.12.4-14.45a1.5,1.5,0,0,1,2-.65,1.52,1.52,0,0,1,.65,2c-.05.09-3.36,6.73-.48,11.57,2.08,3.5,6.94,5.38,14.45,5.59,12.12.33,17.9-5.66,20.62-10.75,3.88-7.24,3.26-16,.46-19.93a1.5,1.5,0,0,1,2.45-1.74c3.38,4.78,4.21,14.72-.26,23.09C360.76,421.17,352.84,425.53,342.67,425.53Z"/><path class="cls-4" d="M218.83,355.39a1.5,1.5,0,0,1-1.38-.9,73.54,73.54,0,0,1-6.15-33.17c.9-19,8.57-31.31,8.65-31.43,3.25-5,14.91-21.15,19.3-27.24l2.27-3.14a1.51,1.51,0,0,1,1.73-.53,1.5,1.5,0,0,1,1,1.52L238.91,338a1.37,1.37,0,0,1,0,.19c-2.32,11.59-18.91,16.94-19.61,17.16A1.41,1.41,0,0,1,218.83,355.39Z"/><path class="cls-1" d="M242.74,260.39l-.26,3.77-1.26,18.34-3.8,55.36c-2.17,10.86-18.59,16-18.59,16a72.12,72.12,0,0,1-6-32.5c.78-16.53,6.93-28.41,8.41-30.68,3.18-4.87,14.41-20.46,19.26-27.19l2.27-3.13m0-3a3,3,0,0,0-2.43,1.24L238,261.76c-4.4,6.11-16.08,22.31-19.35,27.31-2.21,3.4-8.12,15.79-8.89,32.18a74.94,74.94,0,0,0,6.28,33.84,3,3,0,0,0,2.75,1.8,2.82,2.82,0,0,0,.9-.14c.74-.23,18.14-5.84,20.63-18.3,0-.13,0-.25,0-.38l3.8-55.36,1.26-18.34.26-3.77a3,3,0,0,0-2-3,3,3,0,0,0-1-.18Zm0,6Z"/><path class="cls-5" d="M249.47,266.4s-3.44,7.05-8.25,16.1c-8.22,15.44-20.44,36.72-26.39,38.67a5,5,0,0,1-2,.22c.78-16.53,6.93-28.41,8.41-30.68,3.18-4.87,14.41-20.46,19.26-27.19l2,.64Z"/><path class="cls-4" d="M311.06,407.21c-2,0-4-.06-5.95-.17-39.86-2.33-57-28.07-64.4-49.25-5.5-15.78-6.41-31.94-5.68-39,.71-6.78,2-18.67,3.23-30.6l.48-4.55,3.3-30.9.23-2.17.72-.36.08-.08.07,0,.2-.19h.23c20.09-10.62,39-16,56.3-16,24.1,0,36.21,10.44,36.71,10.89s1,1,1.47,1.4l1.32,1.28c.4.39.8.78,1.18,1.17.69.69,1.32,1.31,1.93,2l.09.09,0,0c33.55,34.39,41.32,67.81,42.9,77.06,4.79-3.26,8.89-4.91,12.19-4.91h.2a4.14,4.14,0,0,1,2.91,1.28,4,4,0,0,1,1.12,2.9c-.94,34.32-19.71,53.75-35.29,64a98.57,98.57,0,0,1-33.84,14.13A128.85,128.85,0,0,1,311.06,407.21Z"/><path class="cls-1" d="M299.87,235.46c23.81,0,35.72,10.51,35.72,10.51l1.43,1.36.05,0,1.26,1.22,1.22,1.21c.63.63,1.25,1.25,1.86,1.88l.08.09c39.38,40.34,42.87,78.7,42.87,78.7,6.66-5,10.89-6.06,13.32-6.06h.17a2.59,2.59,0,0,1,2.56,2.64c-1.78,65.18-67.88,76.7-67.88,76.7a126.24,126.24,0,0,1-21.47,1.95c-2,0-4,0-5.86-.17-37.78-2.21-55.28-25.89-63.07-48.25-5.78-16.59-6.21-32.45-5.6-38.3.71-6.78,2-18.67,3.23-30.59.15-1.4.31-2.94.48-4.56.33-3.08.66-6.13,1-9,.94-8.83,1.75-16.45,2.17-20.37.06-.59.12-1.09.16-1.5l.14-1.34.22-.11,0,0h0c22.95-12.2,41.59-16,55.92-16m0-3c-17.43,0-36.49,5.38-56.67,16h-.49l-.54.53-1.27.64-.21,1.65-.14,1.34c0,.22,0,.44-.07.68s-.06.53-.09.83c-.31,2.94-.85,8-1.5,14.08l-.67,6.28c-.18,1.76-.38,3.58-.58,5.43l-.39,3.6-.12,1.23c-.13,1.17-.24,2.29-.36,3.33-1.27,11.93-2.52,23.82-3.23,30.6-.64,6.15-.26,22.34,5.75,39.6,7.53,21.61,25,47.88,65.73,50.26,2,.11,4,.17,6,.17a130.67,130.67,0,0,0,22-2,100.22,100.22,0,0,0,34.42-14.36c15.87-10.45,35-30.25,36-65.22a5.54,5.54,0,0,0-1.53-4,5.63,5.63,0,0,0-4-1.75h-.23c-3.14,0-6.86,1.32-11.1,3.92a117.38,117.38,0,0,0-6.1-20.18c-5.38-13.58-16.11-34.19-36.72-55.34v0l-.19-.19c-.62-.65-1.25-1.28-1.89-1.92-.41-.41-.83-.83-1.25-1.23l-.64-.62-.62-.6,0,0-.05,0-.07-.07-1.38-1.32,0,0,0,0c-.52-.46-13-11.26-37.7-11.26Z"/><path class="cls-5" d="M355.79,239.94l-.35.3-4.66,3.94-3.53,3-.16.14q-3.68,1.4-7.54,2.5c.63.63,1.25,1.25,1.86,1.88h0a168.57,168.57,0,0,1-21.79,13.46,46.37,46.37,0,0,0-24.26,30.2c-5.22,20.92-8,52.79,9.83,82.77-28.79-21.56-17.56-81.1-12.22-103a179.12,179.12,0,0,1-41.38,5.48c-9.34.21-11.31,7.83-11.83,7.83.15-1.4.31-2.94.48-4.56,1-10.15,2.39-23.67,3-29.44.05-.58.1-1.08.14-1.49.08-.85.13-1.32.13-1.32l.26-.13.17,0q7.56,1,15.73,1.38c.87,0,1.74.09,2.62.11h.07c.8,0,1.61.06,2.42.07l.59,0,2.2,0,3,0q4.74,0,9.31,0c1.56,0,3.1,0,4.63-.06q3.45-.06,6.79-.15l2.23-.07q2.26-.06,4.47-.18c1.41-.06,2.81-.13,4.19-.21,12.75-.75,24.34-2.21,34.75-5l.16,0A84.66,84.66,0,0,0,355.79,239.94Z"/><path class="cls-4" d="M401.12,153.41c-2.9,22.37-7.66,39.71-14.24,53.14a84.22,84.22,0,0,1-9.46,15.22,67.23,67.23,0,0,1-20.71,17.52l-.56.3a84.81,84.81,0,0,1-18.37,7.14c-10.46,2.84-22.13,4.3-35,5-1.38.09-2.78.16-4.19.21s-3,.14-4.47.18l-2.23.07q-3.35.1-6.79.15c-1.53,0-3.07,0-4.63.06q-4.58,0-9.31,0l-3,0-2.2,0-.59,0c-.81,0-1.62,0-2.42-.07H263l-2.62-.11c-3.47-.17-6.85-.43-10.16-.77q-2.81-.27-5.52-.63h0c-17.94-2.36-33.34-7.2-45.91-14.19-27.27-15.15-41.17-40.42-38.61-72.49,4.09-51.06,47.05-119.49,120.51-119.49q5.33,0,10.5.37a61,61,0,0,1,13.08-1.52l.86.13c2.42.4,4.83.86,7.21,1.39a9.38,9.38,0,0,1,1.13.62,6.93,6.93,0,0,1,2.86,3.44C370.77,63,407.05,107.65,401.12,153.41Z"/><path class="cls-6" d="M406.41,527.28a8.17,8.17,0,0,1-4.29-1.22l-46.23-31.43c2,5.26.67,8.8-.41,10.54a3.45,3.45,0,0,1-3,1.65,3.29,3.29,0,0,1-.82-.1c-25-6.2-32.52-24-32.83-24.77l-.29-.7.39-.65c3.49-5.73,11-10.18,21-12.52a73.8,73.8,0,0,1,16.64-1.81c17.81,0,40.74,6,51.68,22.8,4.29,6.6,7,12.75,8,18.28,1.46,8.08-.94,13.46-3.22,16.54A8.3,8.3,0,0,1,406.41,527.28Z"/><path class="cls-1" d="M356.65,467.77c19.22,0,40.47,6.82,50.43,22.12,4.58,7,6.88,12.9,7.75,17.72,1.32,7.33-.66,12.28-2.95,15.39a6.79,6.79,0,0,1-5.47,2.78,6.67,6.67,0,0,1-3.5-1l-48-32.64a.93.93,0,0,0-.49-.15.86.86,0,0,0-.78,1.25c2.91,5.72,1.64,9.41.57,11.14a1.94,1.94,0,0,1-1.68.94,1.82,1.82,0,0,1-.46-.06c-24.55-6.09-31.8-23.88-31.8-23.88,3.44-5.66,10.86-9.7,20.08-11.84a72.39,72.39,0,0,1,16.3-1.77m0-3v0a75,75,0,0,0-17,1.85c-10.47,2.43-18.27,7.12-22,13.2l-.78,1.3.57,1.4c.32.78,8.12,19.27,33.85,25.65a4.94,4.94,0,0,0,5.44-2.24,11.86,11.86,0,0,0,1.54-7.84l42.9,29.17.06,0,.06,0a9.68,9.68,0,0,0,5.07,1.44,9.82,9.82,0,0,0,7.88-4c2.45-3.32,5-9.09,3.49-17.7-1-5.73-3.79-12.06-8.19-18.82-11.27-17.32-34.73-23.49-52.93-23.49Z"/><path class="cls-4" d="M203.84,475.43c-7.28,0-8.71-1.56-9.18-2.08a2.59,2.59,0,0,1-.71-2c.23-2.52,3.23-5.53,8.94-9q-4.5.78-8.82,1.2c-3.35.32-6.67.49-9.87.49-17,0-27.6-4.6-32.38-7.34a3.27,3.27,0,0,1,.08-5.71c9.91-5.27,22.66-8.14,29.38-9.38,2.14-.4,4.47-.87,7.33-1.49a102.68,102.68,0,0,1,21.31-2.57c22.85,0,29.55,11.45,31.51,18.27a21.63,21.63,0,0,1,.89,6.91l0,.58-.41.39C233.43,471.79,214.55,475.43,203.84,475.43Z"/><path class="cls-1" d="M209.92,439c21.46,0,28.06,10.21,30.07,17.18a20.28,20.28,0,0,1,.84,6.39c-7.93,7.62-26.2,11.33-37,11.33-5.11,0-8.54-.83-8.39-2.48.34-3.78,10-9,15-11.53a.33.33,0,0,0-.16-.63h-.08A122.82,122.82,0,0,1,193.93,462c-3.46.34-6.7.49-9.73.49-16.87,0-27.21-4.6-31.63-7.14a1.77,1.77,0,0,1,0-3.09c9.94-5.29,23-8.13,28.95-9.23,2.47-.46,4.92-1,7.37-1.5a100.77,100.77,0,0,1,21-2.53m0-3h0a104.35,104.35,0,0,0-21.63,2.6c-2.9.63-5.15,1.09-7.28,1.48-6.8,1.26-19.73,4.17-29.81,9.53a4.77,4.77,0,0,0-.13,8.34c4.91,2.82,15.75,7.54,33.13,7.54,3.24,0,6.61-.17,10-.5.85-.08,1.71-.18,2.58-.28-4.06,3.36-4.25,5.43-4.34,6.44a4.06,4.06,0,0,0,1.1,3.18c1,1.1,3.16,2.57,10.28,2.57,11,0,30.33-3.77,39.06-12.16l.84-.8.08-1.15a23.23,23.23,0,0,0-.95-7.43c-2.08-7.23-9.12-19.36-33-19.36Z"/><path class="cls-1" d="M349.31,282.08c-.41,1.66-.69,3.64-1,5.74-.62,4.55-1.4,10.22-4.08,15.83a47.63,47.63,0,0,0-4.58,22.79c1,20.28-.74,36-5.21,46.65a19.66,19.66,0,0,1-18.17,12.15h0A19.88,19.88,0,0,1,305.45,382a37.36,37.36,0,0,1-4.94-3.84,41.65,41.65,0,0,1-7.22-8.76c-5.12-8.15-8.32-18.76-9.53-31.57a147.62,147.62,0,0,1-.1-24.05,247.66,247.66,0,0,1,8.22-46.41c.25-.88.4-1.37.41-1.4a1.49,1.49,0,0,1,1.87-1l.8.58a1.5,1.5,0,0,1,.19,1.29c-.26.86-25.36,84.77,10,111.28.61.48,1.25.92,1.9,1.35a16.83,16.83,0,0,0,9.17,2.77h0a16.67,16.67,0,0,0,15.41-10.31c4.28-10.25,6-25.51,5-45.35a50.64,50.64,0,0,1,4.88-24.23c2.47-5.18,3.19-10.36,3.81-14.94a59.73,59.73,0,0,1,1-6.05,1.5,1.5,0,0,1,2.92.72Z"/><path class="cls-1" d="M295,265.55l-.8-.58A1.48,1.48,0,0,1,295,265.55Z"/><path class="cls-1" d="M335.23,196.48c-2.6-7.73-7.94-10.82-8.82-11.28-9.3-6.44-18.06-8.5-26-6.11-12.25,3.66-18.43,16.49-19.59,19.14-8.75,5.6-13.4,14.21-12.78,23.7.69,10.51,7.74,20.28,17.95,24.9a20.28,20.28,0,0,0,8.44,1.89c14,0,24.12-15.54,25.73-18.18,4.18,1.29,7,2.27,7.06,2.3a1.52,1.52,0,0,0,1.84-.74C336.27,217.79,338.36,205.81,335.23,196.48Zm-8.31,33.09c-5.46-1.85-27-8.86-39.12-8.48a6.48,6.48,0,0,0-6.33,6.33c-.07,3.77,2.08,9,12.7,12.68a13.5,13.5,0,0,0,4.73.79c3.41-.07,11.52-1.35,15.44-11.49l2.42.83c-3.36,5.06-15.07,20.42-29.57,13.87-9.22-4.17-15.58-12.95-16.19-22.37-.57-8.62,3.61-16.15,11.77-21.21a1.44,1.44,0,0,0,.6-.71c.06-.14,5.88-14.27,17.87-17.85a20,20,0,0,1,5.72-.83c5.54,0,11.51,2.2,17.82,6.59l.2.11s5,2.52,7.41,9.6C335.13,205.61,333.24,216.7,326.92,229.57Z"/><path class="cls-2" d="M281.47,227.42c-.07,3.77,2.08,9,12.7,12.68a13.5,13.5,0,0,0,4.73.79,16.93,16.93,0,0,0,6.81-1.6c3.16-1.51,6.51-4.41,8.63-9.89l2.42.83A45.45,45.45,0,0,1,306.9,241c-5.26,4-12.1,6.58-19.71,3.14-9.22-4.17-15.58-12.95-16.19-22.37-.57-8.62,3.61-16.15,11.77-21.21a1.44,1.44,0,0,0,.6-.71c.06-.14,5.88-14.27,17.87-17.85a20,20,0,0,1,5.72-.83c5.54,0,11.51,2.2,17.82,6.59l.2.11s5,2.52,7.41,9.6c2.74,8.18.85,19.27-5.47,32.14-2.87-1-10.16-3.36-18.19-5.36h0c-7.28-1.81-15.16-3.3-20.92-3.12A6.48,6.48,0,0,0,281.47,227.42Z"/><path class="cls-3" d="M326.92,229.57c-2.87-1-10.16-3.36-18.19-5.36C336,221,325,187.83,325,187.83s5,2.52,7.41,9.6C335.13,205.61,333.24,216.7,326.92,229.57Z"/><circle class="cls-7" cx="364.04" cy="198.72" r="14.69"/><circle class="cls-8" cx="237.31" cy="229.57" r="14.69"/><path class="cls-9" d="M310,190.55c-4.83,3.33-12.85,2.54-16.78,7.64a2,2,0,0,1-3.36-2.26c.76-1.42,2.35-2.64,3.82-5.49,2.94-5.69,7.46-7.88,14.35-7.75C311.41,182.75,315.64,186.69,310,190.55Z"/><path class="cls-10" d="M374.14,141.81c.7,25.51-15.64,46.34-36.25,47.74-26.3,1.79-45-25.26-45-50.78s14.37-48.2,37.35-48.2C350.89,90.57,373.12,104.27,374.14,141.81Z"/><path class="cls-10" d="M294.74,168.94c.69,25.51-19.34,47.3-40,48.7-26.3,1.78-40-17.63-40-43.15s27.32-56.68,50.3-56.68C285.78,117.81,293.72,131.41,294.74,168.94Z"/><path class="cls-11" d="M355.89,111.55S373.5,117,368.53,146c0,0-2.68,14.68-11.11,13.4s-12.51-26.68-.89-31.78c0,0,3.61-1.77,5.58-2.52a.91.91,0,0,0,.52-1.23C361.43,121.19,357.88,113.44,355.89,111.55Z"/><path class="cls-11" d="M269.59,145.08s17.62,5.49,12.64,34.47c0,0-2.68,14.68-11.11,13.41s-12.51-26.69-.89-31.79c0,0,3.61-1.77,5.59-2.52a.91.91,0,0,0,.51-1.22C275.13,154.72,271.58,147,269.59,145.08Z"/><path class="cls-5" d="M305.2,405.54c-37.78-2.21-55.28-25.89-63.07-48.25h0a13.94,13.94,0,0,1,16.3,7.66C263.69,376.49,276.2,394.44,305.2,405.54Z"/><path class="cls-5" d="M210.94,69.36s8.54-2.67,10.27,7.68c5.7,10.64,45.61,23.66,31.24,1-.33-.52-1.46-3.21-1.46-3.2,12,12.61,51.48,15.19,54.32,5.28,1.21-4.23-2.32-10.24-13.55-18l10.52-2.54s28,24.28-3.29,32.66c-23.49,6.3-36.52-5.63-36.81-6.39.11,1,2.15,20.73-19.44,13-22.13-7.94-27.91-14.73-27.91-14.73s-93.63,113.65,34.64,168q-2.81-.27-5.52-.63h0C226,249.1,210.6,244.26,198,237.27c-27.27-15.15-41.17-40.42-38.61-72.49s20.43-70.9,51.52-95.42"/><path class="cls-1" d="M380.3,84.87a122.47,122.47,0,0,0-42.74-30.78,138.9,138.9,0,0,0-19.91-7,10.3,10.3,0,0,0-3.33-3.37c-6.1-3.89-16.74-2.67-24.15-1.11-3.38-.24-6.8-.35-10.24-.35-43.24,0-72,22.64-88.53,41.63-19.67,22.6-32.74,52.74-35,80.62-1.85,23.12,4.72,43.51,19,59a85,85,0,0,0,22.41,17.12c12.7,6.84,27.92,11.47,45.35,13.77h0l.18,0a208.5,208.5,0,0,0,27.11,1.69c25.75,0,49.26-.6,69.06-6.31q3.87-1.11,7.54-2.5l.37-.14A78.68,78.68,0,0,0,360,241.1a72.38,72.38,0,0,0,25.28-25.95q1.41-2.39,2.72-4.94c.55-1.07,1.08-2.16,1.6-3.27,6.47-13.77,11-31,13.77-52.5C406.54,130.11,398.34,105.4,380.3,84.87Zm20.11,69.19c-2.9,22.37-7.66,39.71-14.24,53.14a84.22,84.22,0,0,1-9.46,15.22A67.23,67.23,0,0,1,356,239.94l-.56.3a84.81,84.81,0,0,1-18.37,7.14c-10.46,2.84-22.13,4.3-35,5-1.38.09-2.78.16-4.19.21s-3,.14-4.47.18l-2.23.07q-3.35.1-6.79.15c-1.53,0-3.07,0-4.63.06q-4.57,0-9.31,0l-3,0-2.2,0-.59,0c-.81,0-1.62,0-2.42-.07h-.07l-2.62-.11c-3.47-.17-6.85-.43-10.16-.77q-2.81-.27-5.52-.63h0C226,249.1,210.6,244.26,198,237.27c-27.27-15.15-41.17-40.42-38.61-72.49,4.09-51.06,47.05-119.49,120.51-119.49h1.31c3.1,0,6.17.15,9.19.36a61,61,0,0,1,13.08-1.52,19.93,19.93,0,0,1,8.07,1.52,9.38,9.38,0,0,1,1.13.62,6.93,6.93,0,0,1,2.86,3.44,7.79,7.79,0,0,1,.51,2,2.55,2.55,0,0,1-1,1.64c-4.84,4.4-22.39,6.73-29.31,6.07a1.5,1.5,0,0,0-.61,2.92c4.67,1.53,17.2,6.94,19.05,13.46.62,2.19,0,4.35-1.91,6.61-2.41,2.86-6.78,4.24-12.94,4.12-14.33-.3-32.89-8.5-36.43-11.24-.34-.41-.59-.69-.71-.83a1.5,1.5,0,0,0-2.59,1.27,2.53,2.53,0,0,0,.8,1.25c2.28,2.7,5.81,8,4.52,10.39-.92,1.69-4.82,2.12-10.67,1.17C222.46,85,222.47,73.22,222.48,72.73A1.49,1.49,0,0,0,221,71.18a1.51,1.51,0,0,0-1.56,1.44c0,.61-.27,14.9,24.32,18.9a37.25,37.25,0,0,0,5.88.54c4.13,0,6.74-1.07,7.92-3.23,1.27-2.34.4-5.37-1-8.06a112.48,112.48,0,0,0,17.47,6.36c10.5,2.8,24.31,4.59,30.51-2.76,2.56-3,3.4-6.2,2.5-9.37-1.6-5.65-8.61-10-14.1-12.66,8.34-.62,19.72-2.76,24.11-6.75a5.31,5.31,0,0,0,2-3.94c0-.06,0-.11,0-.17,0-.3-.08-.59-.14-.87C371.55,65.45,406.22,109.25,400.41,154.06Z"/><path class="cls-12" d="M414.83,507.61a120.07,120.07,0,0,1-68-31.51,4.63,4.63,0,0,1,2.7-8c20.84-1.91,46.37,4.56,57.59,21.8C411.66,496.93,414,502.79,414.83,507.61Z"/><path class="cls-5" d="M240.83,462.6c-11.69,11.23-45.84,14-45.38,8.85.34-3.78,10-9,15-11.53a.33.33,0,0,0-.24-.62A122.82,122.82,0,0,1,193.93,462c15.44-7.6,38.25-6.48,46.06-5.82A20.28,20.28,0,0,1,240.83,462.6Z"/><path class="cls-9" d="M288.44,204.22c.8-1,2.61-1.75,2.22-3a2.36,2.36,0,0,0-3-1.55,3.31,3.31,0,0,0-1.72,3.66C286.37,204.59,287.71,205.16,288.44,204.22Z"/></svg>