<?xml version="1.0" encoding="UTF-8"?>
<svg id="Layer_1" data-name="Layer 1" xmlns="http://www.w3.org/2000/svg" xmlns:xlink="http://www.w3.org/1999/xlink" viewBox="0 0 566.93 566.93">
  <defs>
    <style>
      .cls-1 {
        fill: #f28ab6;
      }

      .cls-1, .cls-2, .cls-3, .cls-4, .cls-5, .cls-6, .cls-7, .cls-8, .cls-9, .cls-10 {
        stroke-width: 0px;
      }

      .cls-2 {
        fill: #a8258b;
      }

      .cls-3 {
        fill: #fff;
      }

      .cls-4 {
        fill: #f6eb22;
      }

      .cls-5 {
        fill: #a863a6;
      }

      .cls-6 {
        fill: url(#radial-gradient-2);
      }

      .cls-7 {
        fill: #f3dc0b;
      }

      .cls-8 {
        fill: url(#radial-gradient);
      }

      .cls-9 {
        fill: #985198;
      }

      .cls-10 {
        fill: #f39bc0;
      }
    </style>
    <radialGradient id="radial-gradient" cx="204.61" cy="210.08" fx="204.61" fy="210.08" r="17.35" gradientUnits="userSpaceOnUse">
      <stop offset="0" stop-color="#e93995"/>
      <stop offset="1" stop-color="#f39bc0"/>
    </radialGradient>
    <radialGradient id="radial-gradient-2" cx="313.55" cy="177.61" fx="313.55" fy="177.61" r="16.2" xlink:href="#radial-gradient"/>
  </defs>
  <path class="cls-10" d="M344.61,79.8s-.01-.02-.01-.02c-.62-.75-1.26-1.5-1.93-2.23-.02-.04-.05-.07-.1-.11-.56-.64-1.14-1.27-1.73-1.9-.14-.15-.28-.31-.43-.46-.64-.67-1.3-1.34-1.97-2-.69-.69-1.39-1.36-2.1-2.03-.12-.11-.23-.22-.35-.31-.56-.53-1.13-1.05-1.71-1.56-.2-.19-.4-.37-.61-.54-.66-.58-1.33-1.15-2.01-1.71-.02-.03-.05-.05-.07-.06-.78-.65-1.57-1.29-2.37-1.92-.99-.77-2-1.53-3.03-2.26-.65-.48-1.31-.95-1.97-1.4-.05-.04-.1-.08-.15-.1-.7-.49-1.41-.97-2.13-1.44-.26-.18-.53-.35-.8-.52-.75-.48-1.5-.96-2.27-1.42-.84-.52-1.68-1.02-2.54-1.51-1.11-.64-2.24-1.26-3.38-1.86-.71-.39-1.43-.76-2.15-1.11-.3-.17-.61-.32-.92-.46-.56-.29-1.12-.56-1.69-.82-.4-.2-.8-.39-1.21-.57-.64-.3-1.28-.59-1.93-.87-.23-.11-.47-.21-.71-.31-.32-.14-.64-.28-.97-.41-.1-.05-.21-.1-.32-.14-1.38-.58-2.79-1.14-4.2-1.67-.86-.33-1.73-.64-2.61-.95-.87-.3-1.75-.6-2.64-.89-.88-.29-1.77-.57-2.67-.84-.88-.27-1.77-.53-2.67-.78-.02,0-.04-.01-.07-.02-.87-.24-1.75-.47-2.63-.7-.03,0-.05,0-.08-.02-.88-.23-1.77-.44-2.67-.65-.19-.05-.39-.09-.59-.14-.76-.18-1.53-.35-2.3-.51-1.89-.4-3.81-.76-5.74-1.08-.96-.16-1.93-.31-2.89-.45-.96-.14-1.93-.27-2.89-.39h-.04c-.99-.13-1.97-.24-2.96-.34-.71-.07-1.43-.14-2.15-.2-.07-.01-.14-.02-.21-.02-.39-.04-.78-.07-1.18-.1-.81-.06-1.62-.12-2.44-.17h-.02c-.79-.05-1.57-.09-2.37-.12-.36-.02-.73-.04-1.1-.05-.67-.03-1.34-.05-2.01-.06-.39-.01-.78-.02-1.17-.03-.84-.01-1.69-.02-2.54-.02-.74,0-1.47.01-2.2.03-1.47.02-2.93.08-4.38.18-.36.02-.72.04-1.08.07h-.04c-.68.05-1.36.11-2.04.17-.28.02-.56.05-.84.08-.28.02-.56.06-.84.09-.58.06-1.15.13-1.72.2-.58.07-1.15.14-1.72.23-.4.05-.8.11-1.19.17-2.25.35-4.46.76-6.65,1.24-.45.1-.9.2-1.35.31-2.55.59-5.07,1.28-7.55,2.05-.49.16-.99.31-1.48.48-.53.17-1.06.35-1.59.53-.49.17-.98.34-1.47.52-.56.2-1.12.41-1.68.62-.51.19-1.02.39-1.52.59-1.43.57-2.84,1.16-4.24,1.79-.57.25-1.13.51-1.69.77-.29.13-.58.27-.87.41-1.23.58-2.44,1.18-3.64,1.81-.68.35-1.35.71-2.02,1.08-4.75,2.6-9.3,5.52-13.63,8.72-.54.4-1.08.8-1.61,1.21-.01,0-.01.01-.02.02-.5.38-.99.76-1.48,1.15-1.89,1.49-3.73,3.04-5.52,4.63-.45.4-.91.81-1.36,1.23-1.19,1.09-2.36,2.2-3.51,3.34-.3.29-.59.58-.87.88-.28.27-.54.53-.8.8-.44.45-.88.91-1.31,1.37-.45.47-.89.94-1.32,1.42-.43.45-.84.91-1.25,1.37-.75.84-1.49,1.69-2.21,2.54-.62.73-1.23,1.46-1.82,2.2-.59.73-1.18,1.47-1.76,2.22-.01,0-.01.02-.02.02-.57.74-1.14,1.49-1.7,2.25-.53.71-1.05,1.43-1.56,2.15-.04.05-.07.1-.1.15-.54.76-1.07,1.52-1.58,2.28-.04.05-.07.1-.1.15-.41.61-.82,1.22-1.21,1.83-.61.94-1.21,1.87-1.78,2.81-.44.71-.86,1.42-1.28,2.13-.06.09-.11.18-.16.28-.46.77-.9,1.54-1.32,2.32-.06.09-.11.17-.15.26-.43.77-.84,1.54-1.25,2.31-.87,1.65-1.7,3.31-2.49,4.99-.37.77-.73,1.55-1.08,2.34-.07.15-.14.3-.2.45-.29.63-.56,1.27-.82,1.9-.07.15-.14.31-.2.46-.62,1.48-1.2,2.97-1.76,4.46-.03.07-.06.15-.08.22-.13.34-.25.68-.37,1.02-.2.54-.39,1.08-.58,1.63-.05.14-.1.29-.15.44-.27.8-.54,1.61-.79,2.42-.26.82-.51,1.63-.75,2.45-.31,1.06-.6,2.12-.87,3.18-.15.57-.29,1.13-.42,1.69-.08.29-.15.58-.21.86-.1.42-.2.83-.28,1.25-.1.42-.2.84-.28,1.27-.32,1.49-.6,2.99-.85,4.49-.06.39-.13.78-.18,1.17-.07.43-.14.86-.19,1.3-.05.31-.1.62-.14.94l-.18,1.47c-.12,1.02-.22,2.03-.31,3.04-.04.43-.07.85-.1,1.27-.03.41-.06.82-.08,1.23-.03.36-.05.72-.06,1.08-.04.69-.06,1.37-.08,2.05-.03.87-.04,1.74-.04,2.6,0,.77.01,1.54.03,2.3v.12c.02.77.06,1.54.1,2.3.03.58.07,1.16.11,1.73.03.37.06.74.09,1.11.05.54.1,1.08.16,1.61.04.37.08.74.13,1.11.16,1.3.35,2.59.57,3.85.1.54.2,1.07.31,1.6.04.24.09.48.14.71.11.57.24,1.13.37,1.69.12.55.26,1.1.41,1.65.05.25.12.5.19.74.2.77.42,1.53.66,2.28.11.41.24.82.38,1.22.07.24.15.47.23.7.19.56.38,1.11.58,1.66.02.05.03.09.05.13.2.56.42,1.1.64,1.65.06.17.13.34.2.51.22.55.46,1.1.7,1.65.02.05.04.11.07.16.27.62.55,1.23.85,1.84.22.48.46.95.7,1.42.12.23.23.45.35.67.29.56.59,1.12.9,1.66.34.62.69,1.23,1.06,1.83.36.6.74,1.2,1.12,1.79.38.6.77,1.18,1.18,1.76.4.58.81,1.16,1.23,1.73.89,1.2,1.82,2.38,2.8,3.52.34.41.69.81,1.04,1.21,1.02,1.15,2.08,2.27,3.18,3.36.46.46.94.92,1.42,1.38.58.54,1.17,1.08,1.78,1.61,1.1.97,2.24,1.92,3.41,2.84.59.47,1.18.92,1.79,1.37.6.45,1.22.89,1.84,1.33.5.35,1.01.7,1.53,1.05.16.11.32.21.48.32.48.32.96.63,1.45.93,1.49.95,3.04,1.87,4.63,2.75.63.35,1.26.69,1.91,1.03.69.36,1.38.72,2.09,1.07.62.31,1.24.61,1.87.91.38.18.77.36,1.16.53,3,1.38,6.13,2.65,9.39,3.81.05.01.09.03.14.05,11.34,3.62,50.89,11.93,111.92-21.36,72.51-39.55,43.49-126.54,43.08-127.77ZM304.08,158.87c-3.72,0-7.71-.59-11.78-1.71.55,2.18.55,4.01-.09,5.25-.61,1.19-1.25,3.11-1.98,5.33-3.1,9.35-8.29,25-24.34,26.7-1.15.12-2.31.18-3.46.18-9.25,0-18.35-3.69-26.49-6.99-2.16-.87-4.2-1.7-6.14-2.42-3.27-1.2-5.77-4.01-6.99-7.54-2.23,2.58-4.68,4.88-7.35,6.86-7.14,5.29-16.06,8.11-25.26,8.11-2.5,0-5.02-.21-7.54-.64-11.89-2-22.1-8.47-28.76-18.22-3.87-5.67-5.94-15.6-5.94-26.67,0-6.4.69-13.19,2.12-19.76,3.98-18.36,12.97-32.6,25.32-40.08,8.39-5.08,19.46-5.54,30.4-1.26,14.08,5.52,24.96,17.45,29.12,31.93,1.46,5.1,2.26,10.36,2.44,15.64,3.21-2.33,6.91-3.81,11.09-4.44,2.15-.32,4.21-.46,6.2-.43-3.05-5.54-4.67-11.32-4.67-16.97,0-22.88,3.22-46.58,27.12-48.82,18.49-1.73,38.39,5.3,53.23,18.81,10.67,9.73,16.8,21.35,16.8,31.89,0,24.53-19.71,45.25-43.05,45.25Z"/>
  <path class="cls-3" d="M222.01,171.39c-.03.41-.05.81-.05,1.22,0,.92.08,1.82.24,2.69-2.37,2.89-5.02,5.46-7.93,7.62-8.65,6.41-20.05,9-31.28,7.11-11.34-1.91-21.09-8.08-27.43-17.38-5.83-8.54-7.32-27.41-3.53-44.87,3.87-17.83,12.53-31.6,24.4-38.8,7.86-4.75,18.29-5.16,28.64-1.11,13.5,5.3,23.94,16.74,27.93,30.62,1.55,5.42,2.33,11.05,2.39,16.67-7.6,6.75-12.08,18.87-13.38,36.23Z"/>
  <path class="cls-3" d="M345.13,113.62c0,23.44-18.8,43.25-41.05,43.25-4.02,0-8.25-.68-12.49-1.94-.95-2.48-2.48-5.26-4.49-8.06-3.08-4.29-13.41-16.75-30.05-18.05-3.18-5.38-5.07-11.19-5.07-17.08,0-23.09,3.06-44.75,25.3-46.83,1.8-.17,3.6-.25,5.41-.25,16.35,0,33.3,6.73,46.29,18.55,10.26,9.35,16.15,20.43,16.15,30.41Z"/>
  <path class="cls-2" d="M405.1,209.26c-8.06-1.54-29.07,7.39-48.89,20.76-14.07,9.48-38.89,28.82-49.06,52.87-8.82-8.67-18.23-19.57-19.74-21.32h0c-1.69-14.04.95-22.93,2.67-26.99,17.22-4.95,32.68-13.19,45.3-24.33,21.19-18.7,32.86-43.93,32.86-71.03s-11.67-52.53-32.85-71.44c-21.84-19.49-52.09-30.23-85.18-30.23-2.93,0-5.84.11-8.74.34,6.66-12.52,23.25-18.79,36.32-21.84-14.54,2.45-32.45,8.25-39.72,22.17-8.65.95-17.11,2.91-25.26,5.85,2.3-8.75,13.45-20.47,18.89-26.2-6.67,5.98-20.04,17.84-22.07,27.39-16.6,6.55-31.82,17.14-44.66,31.33-20.53,22.67-32.78,52.61-32.78,80.09,0,52.21,44.12,83.38,118.02,83.38,2.81,0,5.6-.08,8.37-.23,2.46,3.1,6.01,9.57,8.36,22.57h0c-1.84,2.01-10.55,11.77-20.19,27.12-4.02-2.73-22.65-15.02-45.36-23.22-34.03-12.29-61.77-9.9-80.19,6.92-.68.62-.97,1.52-.77,2.41.19.89.83,1.58,1.69,1.86,8,2.53,27.83,8.28,39.35,6.97,13.28-1.52,32.4,13.93,36.18,35.37,3.42,19.36,20.06,25.02,24.31,26.16-3.09,12.01-5,24.91-5,38.44,0,14.58,3.59,26.69,9.36,36.52.54-.38,1.11-.74,1.7-1.08-5.59-9.54-9.06-21.29-9.06-35.44,0-61.79,40.42-110.49,48.41-119.52.22,1.41.43,2.89.62,4.45l1.98-.25c-.07-.59-.15-1.17-.23-1.74-.15-1.13-.32-2.23-.49-3.29-.08-.55-.18-1.1-.27-1.63-.18-.98-.36-1.92-.54-2.82-.01-.08-.03-.16-.05-.25-.17-.82-.34-1.62-.52-2.39-.22-.97-.46-1.9-.7-2.79-.1-.37-.2-.73-.3-1.08-.11-.39-.22-.77-.33-1.14-.11-.37-.22-.73-.34-1.09-.37-1.16-.74-2.24-1.13-3.23-.06-.15-.11-.3-.17-.44-.29-.74-.58-1.44-.88-2.1-.1-.23-.21-.46-.31-.67-.1-.22-.21-.44-.31-.65-.31-.63-.62-1.22-.93-1.76-.2-.35-.4-.69-.59-1.02-.1-.16-.2-.32-.3-.47-.09-.14-.18-.28-.27-.42-.11-.15-.21-.3-.31-.45h-.01c9.2-.65,18.12-2.13,26.62-4.41-1.32,3.54-2.78,9.28-2.78,17.35,0,.51.01,1.02.02,1.54.03,1.19.09,2.43.18,3.71h0c.19,2.59.52,5.37,1.04,8.34.2,1.16.43,2.35.69,3.58.14.66.29,1.33.45,2v.04h0c.06.28.12.55.19.83l.57-.14,1.37-.33c-.59-2.43-1.05-4.75-1.41-6.96,5.43,6.22,19.3,21.75,27.81,27.92,6.64,4.82,62.63,48.16,34.02,119.09.34-.04.56-.06.62-.07l.17-.02.16.04s.43.11,1.1.32c15.61-39.13,5.96-70-7.19-90.82,2.11-2.7,9.52-14.07,9.82-40.06.17-14.99,14.72-26,28.8-36.65,13.2-9.98,25.66-19.42,25.67-31.62,0-1.26-.5-3.47-3.82-4.1ZM241.54,298.23c-.35.62-.7,1.23-1.04,1.86-1.04,1.87-2.07,3.8-3.1,5.78h0v.02c-.82,1.59-1.63,3.22-2.43,4.88-.29.6-.58,1.19-.86,1.8-.39.83-.78,1.67-1.16,2.51-.75,1.64-1.48,3.3-2.2,5-.21.49-.42.98-.62,1.48-2.91,7.05-5.54,14.58-7.67,22.52-3.89-.99-19.57-6.07-22.84-24.59-.21-1.17-.46-2.33-.75-3.46-.12-.49-.26-.98-.4-1.46-.13-.46-.27-.91-.42-1.36-.06-.18-.11-.36-.18-.54-.03-.08-.05-.16-.08-.24-.15-.42-.3-.85-.46-1.26-.2-.54-.41-1.06-.63-1.58-.2-.5-.42-1-.64-1.49-.25-.53-.5-1.05-.76-1.57,0-.01-.01-.01-.01-.01-.59-1.18-1.23-2.34-1.91-3.46-.22-.38-.46-.74-.69-1.11-.48-.75-.97-1.47-1.49-2.19-.51-.71-1.03-1.4-1.57-2.08-1.29-1.6-2.65-3.1-4.06-4.48-.37-.36-.75-.72-1.13-1.07-.48-.44-.97-.87-1.46-1.28-.44-.37-.89-.74-1.35-1.1-1.26-.98-2.56-1.88-3.86-2.69-.45-.27-.89-.53-1.34-.78-.99-.57-1.99-1.07-2.99-1.51-.3-.14-.61-.27-.91-.39-.1-.05-.2-.09-.3-.13-.38-.15-.76-.29-1.15-.43-.4-.14-.8-.28-1.2-.4-2.99-.91-5.92-1.25-8.63-.95-11.45,1.3-32.38-4.95-38.52-6.89-.25-.08-.32-.27-.35-.38-.02-.09-.04-.32.16-.5,22.54-20.57,54.93-14.91,78.13-6.53,22.68,8.18,41.24,20.47,45.02,23.04-1.37,2.23-2.77,4.58-4.15,7.02ZM259.49,237.77c-.9.06-1.8.11-2.71.15h-.01c-2.17.09-4.35.14-6.56.14-1.45,0-2.89-.01-4.32-.04h-.14c-1.23-.02-2.44-.05-3.65-.1-.33,0-.66-.01-.99-.03-1.15-.04-2.3-.09-3.43-.15-.14,0-.28-.01-.41-.01-1.37-.08-2.73-.16-4.07-.26-1.29-.09-2.56-.19-3.82-.31-.23-.02-.45-.04-.66-.06-.86-.08-1.7-.16-2.54-.25-.55-.05-1.1-.11-1.64-.18-1.08-.12-2.15-.25-3.21-.39-.42-.05-.85-.11-1.27-.18-.9-.11-1.8-.24-2.69-.38-1.2-.18-2.39-.38-3.56-.58-.12-.02-.23-.03-.34-.06-.58-.1-1.15-.2-1.72-.31-.61-.11-1.22-.23-1.83-.35-.39-.07-.79-.15-1.18-.23-.4-.08-.79-.16-1.18-.25-.42-.09-.84-.18-1.25-.27-.59-.13-1.18-.27-1.77-.4-.41-.1-.82-.2-1.23-.29-1.64-.4-3.26-.82-4.85-1.26-.77-.21-1.53-.43-2.29-.66-.62-.18-1.24-.37-1.86-.57-.52-.16-1.04-.32-1.56-.5-1.06-.34-2.11-.69-3.14-1.06-.05-.02-.09-.04-.14-.05-3.26-1.16-6.39-2.43-9.39-3.81-.39-.17-.78-.35-1.16-.53-.63-.3-1.25-.6-1.87-.91-.71-.35-1.4-.71-2.09-1.07-.65-.34-1.28-.68-1.91-1.03-1.59-.88-3.14-1.8-4.63-2.75-.49-.3-.97-.61-1.45-.93-.16-.11-.32-.21-.48-.32-.52-.35-1.03-.7-1.53-1.05-.62-.44-1.24-.88-1.84-1.33-.61-.45-1.2-.9-1.79-1.37-1.17-.92-2.31-1.87-3.41-2.84-.61-.53-1.2-1.07-1.78-1.61-.48-.46-.96-.92-1.42-1.38-1.1-1.09-2.16-2.21-3.18-3.36-.35-.4-.7-.8-1.04-1.21-.98-1.14-1.91-2.32-2.8-3.52-.42-.57-.83-1.15-1.23-1.73-.41-.58-.8-1.16-1.18-1.76-.38-.59-.76-1.19-1.12-1.79-.37-.6-.72-1.21-1.06-1.83-.31-.54-.61-1.1-.9-1.66-.12-.22-.23-.44-.35-.67-.24-.47-.48-.94-.7-1.42-.3-.61-.58-1.22-.85-1.84-.03-.05-.05-.11-.07-.16-.24-.55-.48-1.1-.7-1.65-.07-.17-.14-.34-.2-.51-.22-.55-.44-1.09-.64-1.65-.02-.04-.03-.08-.05-.13-.2-.55-.39-1.1-.58-1.66-.08-.23-.16-.46-.23-.7-.14-.4-.27-.81-.38-1.22-.24-.75-.46-1.51-.66-2.28-.07-.24-.14-.49-.19-.74-.15-.55-.29-1.1-.41-1.65-.13-.56-.26-1.12-.37-1.69-.05-.23-.1-.47-.14-.71-.11-.53-.21-1.06-.31-1.6-.22-1.26-.41-2.55-.57-3.85-.05-.37-.09-.74-.13-1.11-.06-.53-.11-1.07-.16-1.61-.03-.37-.06-.74-.09-1.11-.04-.57-.08-1.15-.11-1.73-.04-.76-.08-1.53-.1-2.3v-.12c-.02-.76-.03-1.53-.03-2.3,0-.86.01-1.73.04-2.6.02-.68.04-1.36.08-2.05.01-.36.03-.72.06-1.08.02-.41.05-.82.08-1.23.03-.42.06-.84.1-1.27.09-1.01.19-2.02.31-3.04l.18-1.47c.04-.32.09-.63.14-.94.05-.44.12-.87.19-1.3.05-.39.12-.78.18-1.17.25-1.5.53-3,.85-4.49.08-.43.18-.85.28-1.27.08-.42.18-.83.28-1.25.06-.28.13-.57.21-.86.13-.56.27-1.12.42-1.69.27-1.06.56-2.12.87-3.18.24-.82.49-1.63.75-2.45.25-.81.52-1.62.79-2.42.05-.15.1-.3.15-.44.19-.55.38-1.09.58-1.63.12-.34.24-.68.37-1.02.02-.07.05-.15.08-.22.55-1.49,1.14-2.98,1.76-4.46.06-.15.13-.31.2-.46.26-.63.53-1.27.82-1.9.06-.15.13-.3.2-.45.34-.78.7-1.56,1.08-2.34.78-1.68,1.62-3.34,2.49-4.99.4-.77.82-1.54,1.25-2.31.04-.09.09-.17.15-.26.42-.78.86-1.55,1.32-2.32.05-.1.1-.19.16-.28.42-.71.84-1.42,1.28-2.13.57-.94,1.17-1.87,1.78-2.81.39-.61.79-1.22,1.21-1.83.03-.05.06-.1.1-.15.51-.76,1.04-1.52,1.58-2.28.03-.05.06-.1.1-.15.51-.72,1.03-1.44,1.56-2.15.56-.76,1.12-1.51,1.7-2.25.01,0,.01-.01.02-.02.57-.75,1.16-1.49,1.76-2.22.59-.74,1.2-1.47,1.82-2.2.72-.85,1.46-1.7,2.21-2.54.41-.46.82-.92,1.25-1.37.43-.48.87-.95,1.32-1.42.43-.46.87-.92,1.31-1.37.26-.27.52-.53.8-.8.28-.3.57-.59.87-.88,1.15-1.14,2.32-2.25,3.51-3.34.45-.42.91-.83,1.36-1.23,1.79-1.59,3.63-3.14,5.52-4.63.49-.39.98-.77,1.48-1.15,0-.01,0-.02.02-.02.53-.41,1.07-.81,1.61-1.21,4.33-3.2,8.88-6.12,13.63-8.72.67-.37,1.34-.73,2.02-1.08,1.2-.63,2.41-1.23,3.64-1.81.29-.14.57-.28.87-.41.56-.26,1.12-.52,1.69-.77,1.4-.63,2.81-1.22,4.24-1.79.5-.2,1.01-.4,1.52-.59.56-.21,1.12-.42,1.68-.62.49-.18.98-.35,1.47-.52.53-.18,1.06-.36,1.59-.53.49-.17.99-.32,1.48-.48,2.48-.77,5-1.46,7.55-2.05.45-.11.9-.21,1.35-.31,2.19-.48,4.4-.89,6.65-1.24.39-.06.79-.12,1.19-.17.57-.09,1.14-.16,1.72-.23.57-.07,1.14-.14,1.72-.2.28-.03.56-.07.84-.09.28-.03.56-.06.84-.08.68-.06,1.36-.12,2.04-.17h.04c.36-.03.72-.05,1.08-.07,1.45-.1,2.91-.16,4.38-.18.73-.02,1.46-.03,2.2-.03.85,0,1.7.01,2.54.02.39,0,.78.02,1.17.03.67.01,1.34.03,2.01.06.37.01.74.03,1.1.05.8.03,1.58.07,2.37.12h.02c.82.05,1.63.11,2.44.17.4.03.79.06,1.18.1.07,0,.14.01.21.02.72.06,1.44.13,2.15.2.99.1,1.97.21,2.96.34h.04c.96.12,1.93.25,2.89.39.96.14,1.93.29,2.89.45,1.93.32,3.85.68,5.74,1.08.77.16,1.54.33,2.3.51.2.05.4.09.59.14.9.21,1.79.42,2.67.65.03.01.05.01.08.02.88.23,1.76.46,2.63.7.03.01.05.02.07.02.9.25,1.79.51,2.67.78.9.27,1.79.55,2.67.84.89.29,1.77.59,2.64.89.88.31,1.75.62,2.61.95,1.41.53,2.82,1.09,4.2,1.67.11.04.22.09.32.14.33.13.65.27.97.41.24.1.48.2.71.31.65.28,1.29.57,1.93.87.41.18.81.37,1.21.57.57.26,1.13.53,1.69.82.31.14.62.29.92.46.72.35,1.44.72,2.15,1.11,1.14.6,2.27,1.22,3.38,1.86.86.49,1.7.99,2.54,1.51.77.46,1.52.94,2.27,1.42.27.17.54.34.8.52.72.47,1.43.94,2.13,1.44.05.02.1.06.15.1.66.45,1.32.92,1.97,1.4,1.03.73,2.04,1.49,3.03,2.26.8.63,1.59,1.27,2.37,1.92.02.01.05.03.07.06.68.55,1.35,1.12,2.01,1.71.21.17.41.35.61.54.58.5,1.15,1.02,1.71,1.56.12.09.23.2.35.31.71.67,1.41,1.34,2.1,2.03.67.66,1.33,1.33,1.97,2,.15.15.29.31.43.46.59.63,1.17,1.26,1.73,1.9.05.04.08.07.1.11.67.73,1.31,1.48,1.93,2.23,0,0,.02.01.01.02.44.51.86,1.03,1.27,1.55.85,1.05,1.67,2.11,2.46,3.19.26.36.52.72.78,1.09.59.82,1.16,1.65,1.72,2.48.29.43.58.87.86,1.31,1.25,1.94,2.42,3.93,3.52,5.95.33.6.64,1.19.95,1.8.85,1.66,1.66,3.34,2.4,5.05.3.67.58,1.34.86,2.02.26.64.52,1.28.76,1.93.72,1.87,1.38,3.77,1.97,5.7.17.54.33,1.08.48,1.63.06.16.1.32.14.48.19.66.37,1.32.54,1.99.03.1.06.19.07.29.21.78.4,1.57.58,2.36,0,.03.01.06.02.08.17.8.34,1.6.5,2.4,0,.01.01.03,0,.04.17.81.31,1.61.45,2.42.01.04.02.09.02.13.14.82.27,1.65.38,2.48.12.85.23,1.71.32,2.57.09.81.17,1.62.24,2.43.02.17.03.33.03.5.07.71.12,1.43.15,2.14.01.07.02.14.01.21.06.85.09,1.7.11,2.55.03.88.04,1.76.04,2.65,0,43.9-30.28,79.4-74.95,92.93-.89.27-1.78.53-2.69.78-9.17,2.57-18.92,4.22-29.11,4.84ZM406.77,215.51c-.04.29-.09.59-.15.88-.07.36-.15.72-.25,1.08-.07.28-.15.55-.24.83-.05.16-.1.31-.16.47-.07.2-.14.4-.22.6-.05.13-.1.25-.15.37-.05.14-.11.28-.17.42-.47,1.08-1.05,2.13-1.71,3.18-.2.32-.41.64-.63.95-.01.01-.01.02-.02.03-.21.31-.43.61-.66.91-.23.32-.47.63-.72.94-.7.89-1.47,1.77-2.29,2.64-.28.31-.57.61-.87.91-.22.23-.45.45-.68.68-.2.2-.4.4-.61.6-.2.19-.41.39-.63.59-.38.36-.76.72-1.16,1.07-.47.43-.97.87-1.47,1.3-.78.68-1.58,1.35-2.4,2.02-.81.66-1.64,1.33-2.49,2-.38.3-.76.6-1.15.9-.41.32-.82.64-1.24.96-.51.4-1.02.79-1.54,1.18-1.03.79-2.07,1.58-3.12,2.37-14.46,10.94-29.41,22.25-29.59,38.22-.27,23.64-6.66,34.94-8.99,38.28-2.76-4.18-5.64-7.93-8.44-11.23-2.71-3.19-5.36-5.96-7.77-8.3-.31-.3-.61-.59-.91-.87-.02-.03-.05-.05-.08-.08-.27-.26-.54-.51-.8-.75-.66-.62-1.3-1.2-1.9-1.73-.19-.18-.39-.34-.58-.51-1.11-.98-2.12-1.83-3-2.53-.25-.22-.49-.41-.72-.58-.19-.15-.37-.3-.54-.43-.13-.1-.25-.19-.37-.28-.59-.46-1.07-.82-1.42-1.07-2.39-1.73-5.24-4.26-8.23-7.13,7.16-17.5,24.84-36.68,48.63-52.73,21.34-14.39,40.86-21.69,47.39-20.45,1.95.37,2.2,1.34,2.2,2.14,0,.72-.05,1.44-.15,2.15Z"/>
  <path class="cls-10" d="M245.69,291.21c-2.75,4.47-5.56,9.37-8.29,14.67h0c-5.74,11.15-11.14,24.03-14.94,38.2-3.89-.99-19.57-6.07-22.84-24.59-.81-4.62-2.32-8.97-4.32-12.96,0-.01-.01-.01-.01-.01-.79-1.58-1.66-3.11-2.6-4.57-8.18-12.74-21.36-20.61-31.44-19.48-11.45,1.3-32.38-4.95-38.52-6.89-.25-.08-.32-.27-.35-.38-.02-.09-.04-.32.16-.5,22.54-20.57,54.93-14.91,78.13-6.53,22.68,8.18,41.24,20.47,45.02,23.04Z"/>
  <path class="cls-10" d="M406.92,213.36c0,3.86-1.44,7.48-3.85,10.96-4.57,6.62-12.65,12.73-21.03,19.07-14.46,10.94-29.41,22.25-29.59,38.22-.27,23.64-6.66,34.94-8.99,38.28-2.76-4.18-5.64-7.93-8.44-11.23-8.23-9.68-15.87-15.52-18.09-17.13-2.39-1.73-5.24-4.26-8.23-7.13,7.16-17.5,24.84-36.68,48.63-52.73,21.34-14.39,40.86-21.69,47.39-20.45,1.95.37,2.2,1.34,2.2,2.14Z"/>
  <path class="cls-2" d="M229.09,421.64c-.59.32-1.16.68-1.7,1.07-.38-.58-.73-1.16-1.07-1.76.54-.38,1.11-.74,1.7-1.08.34.6.7,1.19,1.07,1.77Z"/>
  <path class="cls-2" d="M351.82,412.51c-.24.61-.49,1.24-.75,1.86h0c-.57,1.39-1.18,2.77-1.82,4.17-4.53,9.93-11.28,18.18-19.84,24.36-.56.41-1.13.8-1.7,1.18-3.39,2.28-7.04,4.24-10.94,5.88-8.58,3.6-18.09,5.43-27.75,5.43-5.47,0-10.98-.58-16.41-1.76-1.31-.29-2.64-.61-3.97-.99-.65-.17-1.3-.36-1.95-.56.26-.61.49-1.24.69-1.89.64.2,1.29.38,1.93.56,1.25.35,2.49.65,3.73.92,17.55,3.82,38,1.55,54.03-9.43.58-.4,1.16-.81,1.73-1.24,7.58-5.61,14.06-13.27,18.63-23.29.51-1.11.99-2.21,1.45-3.3h.01c.3-.73.6-1.45.88-2.17.34-.04.56-.06.62-.07l.17-.02.16.04s.43.11,1.1.32Z"/>
  <path class="cls-2" d="M264.9,427.73c-5.57-6.85-14.36-11.11-22.94-11.11-5.49,0-10.2,1.14-13.94,3.25-.59.34-1.16.7-1.7,1.08-5.12,3.61-8,9.34-8,16.63,0,12.19,8.8,29.07,23.21,30.02.42.03.85.04,1.28.04.26,0,.52,0,.78-.01,6.99-.12,12.87-1.89,17.34-5.1,3.45-2.47,6.06-5.8,7.71-9.89.24-.61.47-1.24.67-1.89.27-.85.5-1.72.69-2.63,1.52-7.22-.3-14.47-5.1-20.39ZM266.69,452.08c-3.62,8.68-12.09,13.56-23.88,13.56-13.73,0-22.49-16.62-22.49-28.06,0-6.48,2.54-11.59,7.07-14.87.54-.39,1.11-.75,1.7-1.07,3.44-1.96,7.78-3.02,12.87-3.02,7.99,0,16.19,3.97,21.38,10.37,3.4,4.2,5.18,9.11,5.18,14.17,0,1.51-.16,3.03-.48,4.55-.18.85-.4,1.68-.66,2.48-.2.65-.43,1.28-.69,1.89Z"/>
  <path class="cls-5" d="M268.52,443.16c0,1.51-.16,3.03-.48,4.55-.18.85-.4,1.68-.66,2.48-.2.65-.43,1.28-.69,1.89-3.62,8.68-12.09,13.56-23.88,13.56-5.43,0-10.08-2.6-13.72-6.45-5.57-5.88-8.77-14.69-8.77-21.61,0-6.48,2.54-11.59,7.07-14.87.54-.39,1.11-.75,1.7-1.07,3.44-1.96,7.78-3.02,12.87-3.02,7.2,0,14.58,3.23,19.75,8.55h0c.58.59,1.12,1.19,1.63,1.82,3.4,4.2,5.18,9.11,5.18,14.17Z"/>
  <path class="cls-2" d="M351.82,412.51c-.67-.21-1.07-.31-1.1-.32l-.16-.04-.17.02c-.06.01-.28.03-.62.07-.28.72-.58,1.44-.88,2.17.74-.13,1.27-.2,1.52-.23.14.04.36.1.66.19h0c3.62,1.12,17.91,6.43,17.21,20.05-.46,8.86-10.9,18.54-21.49,19.92-4.77.62-13.26-.09-17.38-11.44-.13-.35-.25-.71-.37-1.08-.09-.28-.17-.55-.24-.82-.57.43-1.15.84-1.73,1.24.02.06.04.13.06.19.18.57.38,1.12.58,1.65,3.11,8.03,9.02,12.42,16.62,12.42.88,0,1.79-.05,2.72-.18,1.24-.16,2.47-.42,3.68-.78.01,0,.03-.01.04-.01.7-.2,1.4-.43,2.08-.69,9.28-3.52,17-12.09,17.43-20.32.76-14.8-14.23-20.66-18.46-22.01Z"/>
  <path class="cls-5" d="M368.28,434.42c-.46,8.86-10.9,18.54-21.49,19.92-3.24.42-8.19.23-12.33-3.49-1.95-1.76-3.73-4.31-5.05-7.95,8.56-6.18,15.31-14.43,19.84-24.36.64-1.4,1.25-2.78,1.82-4.16.66.2,1.68.55,2.9,1.06,5.45,2.27,14.88,7.85,14.31,18.98Z"/>
  <path class="cls-10" d="M315.75,293.15c-8.51-6.17-22.38-21.7-27.81-27.92.36,2.21.82,4.53,1.41,6.96l-1.37.33-.57.14c-.07-.28-.13-.55-.19-.82h0v-.05c-1.2-5.15-1.88-9.78-2.18-13.91h0c-.8-10.89.99-18.34,2.58-22.61-8.5,2.28-17.42,3.76-26.62,4.4h.01c3.05,4.38,6.93,12.95,8.97,29.44l-1.98.25c-.19-1.56-.4-3.04-.62-4.45-7.99,9.03-48.41,57.73-48.41,119.52,0,14.15,3.47,25.9,9.06,35.44,3.74-2.11,8.45-3.25,13.94-3.25,8.58,0,17.37,4.26,22.94,11.11,1.95,2.41,3.4,5.03,4.34,7.78,1.39,4.02,1.66,8.32.76,12.61-.19.91-.42,1.78-.69,2.63,1.25.35,2.49.65,3.73.92,17.55,3.82,38,1.55,54.03-9.43.58-.4,1.16-.81,1.73-1.24,7.58-5.61,14.06-13.27,18.63-23.29.51-1.11.99-2.21,1.45-3.3h.01c.3-.73.6-1.45.88-2.17,28.61-70.93-27.38-114.27-34.02-119.09ZM325.11,356.13s-.01,0-.04-.01c-1.26-.2-29.06-4.58-47.81,3.95h-.01c-5.81,2.64-10.76,6.52-13.77,12.15l-1.77-.95c13.59-25.36,61.69-17.45,63.74-17.11l-.34,1.97Z"/>
  <path class="cls-2" d="M243.77,466.91s-.07.27-.18.72c-.26.01-.52.01-.78.01-.43,0-.86-.01-1.28-.04.17-.69.29-1.12.32-1.23l1.92.54Z"/>
  <path class="cls-2" d="M352.85,454.84c-.68.26-1.38.49-2.08.69-.01,0-.03.01-.04.01-.22-.26-.34-.39-.35-.4l1.34-1.49c.08.07.5.45,1.13,1.19Z"/>
  <path class="cls-2" d="M418.29,498.31c-3.06-1.62-7.57-1.05-11.18-.14,27.33-21.77,29.08-43.61,28.48-52.31-.22-3.2-2.9-5.71-6.11-5.73h-.29c-19.6,0-34.79,10.32-43.95,29.88-1.63,3.47-2.93,6.96-3.97,10.26-.24-6.48-1.68-10.87-4.2-11.44-4.97-1.13-9.17,11.85-11.83,22.94-.17.69-.32,1.36-.48,2.03-1.27-24.32-8.97-35.52-11.91-38.96-.68.26-1.38.49-2.08.69-.01,0-.03.01-.04.01,1.93,2.36,11.44,15.29,13.3,41.61h0c-7.05,33.77,2.68,38.35,3.18,38.56,2.42.82,4.97,1.19,7.6,1.19,12.1,0,25.73-7.87,34.86-15.76,6.37-5.51,12.86-13.15,11.95-18.09-.4-2.18-1.52-3.77-3.33-4.74ZM408.36,519.63c-11.55,9.99-28.55,18.25-40.42,14.22-.09-.04-9.53-5.04-.75-41.62,4.09-17.08,7.77-21.47,9.28-21.47.06,0,.11,0,.16.02,1.71.39,3.44,6.9,2.35,18.11-1.4,6.42-1.72,10.88-1.72,10.96l1.97.27c.81-3.76,1.37-7.41,1.7-10.8,1.15-5.28,3.05-11.93,6.14-18.52,8.94-19.03,23.1-28.67,42.11-28.67h.29c2.17.01,3.98,1.71,4.13,3.87.61,8.86-1.35,31.88-32.56,54.25l-7.73,5.54,8.71-3.81c2.88-1.26,11.26-4.06,15.33-1.9,1.26.67,2.02,1.76,2.31,3.34.61,3.32-3.93,9.84-11.3,16.21Z"/>
  <path class="cls-4" d="M419.66,503.42c.61,3.32-3.93,9.84-11.3,16.21-11.55,9.99-28.55,18.25-40.42,14.22-.06-.03-4.28-2.26-4.48-14.6h0c-.1-6.17.81-14.84,3.73-27.02,4.09-17.08,7.77-21.47,9.28-21.47.06,0,.11,0,.16.02,1.71.39,3.44,6.9,2.35,18.11-1.4,6.42-1.72,10.88-1.72,10.96l1.97.27c.81-3.76,1.37-7.41,1.7-10.8,1.15-5.28,3.05-11.93,6.14-18.52,8.91-18.96,23-28.6,41.91-28.67h.49c2.17.01,3.98,1.71,4.13,3.87.61,8.86-1.35,31.88-32.56,54.25l-7.73,5.54,8.71-3.81c2.88-1.26,11.26-4.06,15.33-1.9,1.26.67,2.02,1.76,2.31,3.34Z"/>
  <path class="cls-2" d="M254.56,499.93c-3.25-2.32-6.77-2.99-10.48-2-4.26-12.92-1.3-27-.49-30.3-.26.01-.52.01-.78.01-.43,0-.86-.01-1.28-.04-.99,4.16-3.69,17.97.65,30.98-.16.06-.32.13-.48.2-1.67.75-2.69,2.41-2.61,4.23.08,1.8.87,4.49,3.38,8.35-10.21-8.4-25.22-18.51-37.58-17.73-5.46.34-9.92,2.8-13.27,7.31-2.99,4.03-3.74,8.09-2.21,12.06,4.79,12.44,31.14,20.93,45.92,24.78-6.55.12-14.19,1.04-16.66,4.47-.72,1-1.34,2.7-.26,5.13,2.65,5.97,15.26,8.54,26.91,8.54,3.89,0,7.68-.29,10.95-.83,8.82-1.46,13.88-4.55,14.26-8.7.73-8.21-3.76-37.74-15.97-46.46ZM268.53,546.21c-.27,3.06-4.98,5.65-12.59,6.91-13.75,2.28-32.93-.29-35.71-6.55-.56-1.27-.54-2.3.07-3.15,2.08-2.9,10.02-3.63,16.81-3.63,3.33,0,6.38.17,8.33.36l.29-1.98c-.48-.1-48.26-9.8-54.45-25.88-1.29-3.34-.65-6.67,1.95-10.16,2.98-4.01,6.94-6.2,11.78-6.51,17.3-1.11,41.25,21.41,46.68,26.76.37.37.75.75,1.14,1.14l1.42-1.4c-.14-.15-.66-.69-1.5-1.51-9.87-10.11-11.56-15.4-11.66-17.69-.05-.98.53-1.91,1.43-2.31.11-.05.23-.1.34-.14.64-.28,1.28-.49,1.9-.65,3.07-.78,5.91-.21,8.63,1.74,10.83,7.72,15.97,35.47,15.14,44.65Z"/>
  <path class="cls-4" d="M268.53,546.21c-.27,3.06-4.98,5.65-12.59,6.91-12.12,2.01-28.46.25-34.07-4.48-.75-.64-1.31-1.33-1.64-2.07-.56-1.27-.54-2.3.07-3.15,2.08-2.9,10.02-3.63,16.81-3.63,3.33,0,6.38.17,8.33.36l.29-1.98c-.48-.1-48.26-9.8-54.45-25.88-1.29-3.34-.65-6.67,1.95-10.16,2.98-4.01,6.94-6.2,11.78-6.51,17.3-1.11,41.25,21.41,46.68,26.76.37.37.75.75,1.14,1.14l1.42-1.4c-.14-.15-.66-.69-1.5-1.51-9.87-10.11-11.56-15.4-11.66-17.69-.05-.98.53-1.91,1.43-2.31.11-.05.23-.1.34-.14.64-.28,1.28-.49,1.9-.65,1.07-.27,2.12-.38,3.14-.32,1.9.1,3.72.79,5.49,2.06,10.83,7.72,15.97,35.47,15.14,44.65Z"/>
  <path class="cls-2" d="M330.33,81.73c-14.84-13.51-34.74-20.54-53.23-18.81-23.9,2.24-27.12,25.94-27.12,48.82,0,5.65,1.62,11.43,4.67,16.97.37.68.77,1.37,1.19,2.05.88.03,1.75.11,2.59.23-.49-.71-.94-1.44-1.38-2.17-3.18-5.38-5.07-11.19-5.07-17.08,0-23.09,3.06-44.75,25.3-46.83,1.8-.17,3.6-.25,5.41-.25,16.35,0,33.3,6.73,46.29,18.55,10.26,9.35,16.15,20.43,16.15,30.41,0,23.44-18.8,43.25-41.05,43.25-4.02,0-8.25-.68-12.49-1.94-.85-.25-1.7-.53-2.55-.83.39.84.7,1.63.95,2.37.77.25,1.54.48,2.31.69,4.07,1.12,8.06,1.71,11.78,1.71,23.34,0,43.05-20.72,43.05-45.25,0-10.54-6.13-22.16-16.8-31.89Z"/>
  <path class="cls-2" d="M237.4,136.12c0-.85-.01-1.7-.04-2.54-.18-5.28-.98-10.54-2.44-15.64-4.16-14.48-15.04-26.41-29.12-31.93-10.94-4.28-22.01-3.82-30.4,1.26-12.35,7.48-21.34,21.72-25.32,40.08-1.43,6.57-2.12,13.36-2.12,19.76,0,11.07,2.07,21,5.94,26.67,6.66,9.75,16.87,16.22,28.76,18.22,2.52.43,5.04.64,7.54.64,9.2,0,18.12-2.82,25.26-8.11,2.67-1.98,5.12-4.28,7.35-6.86.53-.61,1.04-1.24,1.54-1.88-.23-.93-.35-1.88-.38-2.8-.57.79-1.16,1.56-1.77,2.31-2.37,2.89-5.02,5.46-7.93,7.62-8.65,6.41-20.05,9-31.28,7.11-11.34-1.91-21.09-8.08-27.43-17.38-5.83-8.54-7.32-27.41-3.53-44.87,3.87-17.83,12.53-31.6,24.4-38.8,7.86-4.75,18.29-5.16,28.64-1.11,13.5,5.3,23.94,16.74,27.93,30.62,1.55,5.42,2.33,11.05,2.39,16.67.03.95.02,1.89-.01,2.83.63-.68,1.31-1.31,2.02-1.87Z"/>
  <path class="cls-2" d="M292.3,157.16c-.18-.71-.42-1.45-.71-2.23-.95-2.48-2.48-5.26-4.49-8.06-3.08-4.29-13.41-16.75-30.05-18.05-.78-.07-1.58-.11-2.4-.11-1.99-.03-4.05.11-6.2.43-4.18.63-7.88,2.11-11.09,4.44-.68.48-1.34,1.01-1.97,1.58-7.6,6.75-12.08,18.87-13.38,36.23-.03.41-.05.81-.05,1.22,0,.92.08,1.82.24,2.69.13.82.34,1.61.61,2.37,1.22,3.53,3.72,6.34,6.99,7.54,1.94.72,3.98,1.55,6.14,2.42,8.14,3.3,17.24,6.99,26.49,6.99,1.15,0,2.31-.06,3.46-.18,16.05-1.7,21.24-17.35,24.34-26.7.73-2.22,1.37-4.14,1.98-5.33.64-1.24.64-3.07.09-5.25ZM290.43,161.5c-.68,1.32-1.34,3.31-2.1,5.61-2.95,8.89-7.88,23.77-22.65,25.34-9.92,1.06-20.05-3.05-28.98-6.67-2.18-.88-4.24-1.72-6.21-2.44-3.42-1.26-5.37-4.32-6.14-7.55-.23-.93-.35-1.88-.38-2.8-.02-.5,0-.98.03-1.45,1.18-15.7,4.99-26.91,11.38-33.55.63-.68,1.31-1.31,2.02-1.87,3.22-2.68,7.01-4.35,11.34-5,2.48-.37,4.85-.48,7.1-.36.88.03,1.75.11,2.59.23,14.91,1.86,24.2,13.1,27.05,17.05,1.53,2.13,2.72,4.2,3.56,6.06.39.84.7,1.63.95,2.37.78,2.31.92,4.11.44,5.03Z"/>
  <path class="cls-4" d="M290.43,161.5c-.68,1.32-1.34,3.31-2.1,5.61-2.95,8.89-7.88,23.77-22.65,25.34-8.43.9-17.01-1.93-24.88-5.02h0c-1.39-.55-2.76-1.11-4.1-1.65-2.18-.88-4.24-1.72-6.21-2.44-3.42-1.26-5.37-4.32-6.14-7.55-.23-.93-.35-1.88-.38-2.8-.02-.5,0-.98.03-1.45,1.18-15.7,4.99-26.91,11.38-33.55.63-.68,1.31-1.31,2.02-1.87,3.22-2.68,7.01-4.35,11.34-5,2.48-.37,4.85-.48,7.1-.36.88.03,1.75.11,2.59.23,14.91,1.86,24.2,13.1,27.05,17.05,1.53,2.13,2.72,4.2,3.56,6.06.39.84.7,1.63.95,2.37.78,2.31.92,4.11.44,5.03Z"/>
  <path class="cls-2" d="M325.45,354.16l-.34,1.97c-.49-.08-48.72-8.01-61.63,16.09l-1.77-.95c13.59-25.36,61.69-17.45,63.74-17.11Z"/>
  <path class="cls-1" d="M349.77,412.24c-.28.72-.58,1.44-.88,2.17h-.01c-.46,1.09-.94,2.19-1.45,3.3-4.57,10.02-11.05,17.68-18.63,23.29-.57.43-1.15.84-1.73,1.24-16.03,10.98-36.48,13.25-54.03,9.43-1.24-.27-2.48-.57-3.73-.92.27-.85.5-1.72.69-2.63.9-4.29.63-8.59-.76-12.61,48.76.63,59.87-27.51,60.17-51.51.3-23.86-51.55-23.93-52.15-23.93,18.21-10.84,46.6-4.24,47.81-3.95.03.01.04.01.04.01,7.75-4.13,6.04-11.8,6.04-11.8,2.83-28.88-37.11-66.31-43.17-71.81l1.37-.33c-.59-2.43-1.05-4.75-1.41-6.96,5.43,6.22,19.3,21.75,27.81,27.92,6.64,4.82,62.63,48.16,34.02,119.09Z"/>
  <path class="cls-1" d="M403.07,224.32c-4.57,6.62-12.65,12.73-21.03,19.07-14.46,10.94-29.41,22.25-29.59,38.22-.27,23.64-6.66,34.94-8.99,38.28-2.76-4.18-5.64-7.93-8.44-11.23,8.52-8.85,4.61-37.45,10.11-50.02,4.67-10.68,43.08-27.96,57.94-34.32Z"/>
  <path class="cls-1" d="M237.4,305.88h0c-5.74,11.15-11.14,24.03-14.94,38.2-3.89-.99-19.57-6.07-22.84-24.59-.81-4.62-2.32-8.97-4.32-12.96,3.95,6.25,11.62,15.82,17.89,8.11,8.85-10.9,24.38-9.08,24.21-8.76Z"/>
  <path class="cls-1" d="M366.24,139.22c0,43.9-30.28,79.4-74.95,92.93-.89.27-1.78.53-2.69.78-9.17,2.57-18.92,4.22-29.11,4.84-.9.06-1.8.11-2.71.15h-.01c-2.17.09-4.35.14-6.56.14-1.45,0-2.89-.01-4.32-.04h-.14c-1.23-.02-2.44-.05-3.65-.1-.33,0-.66-.01-.99-.03-1.15-.04-2.3-.09-3.43-.15-.14,0-.28-.01-.41-.01-1.37-.08-2.73-.16-4.07-.26-1.29-.09-2.56-.19-3.82-.31-.23-.02-.45-.04-.66-.06-.86-.08-1.7-.16-2.54-.25-.55-.05-1.1-.11-1.64-.18-1.08-.12-2.15-.25-3.21-.39-.42-.05-.85-.11-1.27-.18-.9-.11-1.8-.24-2.69-.38-1.2-.18-2.39-.38-3.56-.58-.12-.02-.23-.03-.34-.06-.58-.1-1.15-.2-1.72-.31-.61-.11-1.22-.23-1.83-.35-.39-.07-.79-.15-1.18-.23-.4-.08-.79-.16-1.18-.25-.42-.09-.84-.18-1.25-.27-.59-.13-1.18-.27-1.77-.4-.41-.1-.82-.2-1.23-.29-1.64-.4-3.26-.82-4.85-1.26-.77-.21-1.53-.43-2.29-.66-.62-.18-1.24-.37-1.86-.57-.52-.16-1.05-.33-1.56-.5-1.06-.34-2.11-.69-3.14-1.06,11.34,3.62,50.89,11.93,111.92-21.36,72.51-39.55,43.49-126.54,43.08-127.77.43.51.85,1.03,1.27,1.55.84,1.05,1.66,2.11,2.46,3.19.26.36.52.72.78,1.09.59.82,1.16,1.65,1.72,2.48.29.43.58.87.86,1.31,1.25,1.94,2.42,3.93,3.52,5.95.33.6.64,1.19.95,1.8.85,1.66,1.66,3.34,2.4,5.05.3.67.58,1.34.86,2.02.26.64.52,1.28.76,1.93.72,1.87,1.38,3.77,1.97,5.7.17.54.33,1.08.48,1.63.06.16.1.32.14.48.19.66.37,1.32.54,1.99.03.1.06.19.07.29.21.78.4,1.57.58,2.36,0,.03.01.06.02.08.17.8.34,1.6.5,2.4,0,.01.01.03,0,.04.17.81.31,1.61.45,2.42.01.04.02.09.02.13.14.82.27,1.65.38,2.48.12.85.23,1.71.32,2.57.09.81.17,1.62.24,2.43.02.17.03.33.03.5.07.71.12,1.43.15,2.14.01.07.02.14.01.21.06.85.09,1.7.11,2.55.03.88.04,1.76.04,2.65Z"/>
  <path class="cls-9" d="M334.46,450.85c-1.95-1.76-3.73-4.31-5.05-7.95,8.56-6.18,15.31-14.43,19.84-24.36.64-1.4,1.25-2.78,1.82-4.16.66.2,1.68.55,2.9,1.06,1.3,7.51,1.07,23.4-19.51,35.41Z"/>
  <path class="cls-9" d="M268.52,443.16c0,1.51-.16,3.03-.48,4.55-.18.85-.4,1.68-.66,2.48-.2.65-.43,1.28-.69,1.89-3.62,8.68-12.09,13.56-23.88,13.56-5.43,0-10.08-2.6-13.72-6.45,35.04.03,32.68-31.26,32.62-32.01.58.58,1.12,1.18,1.63,1.81,3.4,4.2,5.18,9.11,5.18,14.17Z"/>
  <path class="cls-7" d="M419.66,503.42c.61,3.32-3.93,9.84-11.3,16.21-11.55,9.99-28.55,18.25-40.42,14.22-.06-.03-4.28-2.26-4.48-14.6,0,0,2.84,2.54,14.07,2.62,11.24.09,15.78-16.08,15.78-16.08l8.71-3.81c2.88-1.26,11.26-4.06,15.33-1.9,1.26.67,2.02,1.76,2.31,3.34Z"/>
  <path class="cls-7" d="M401.04,500.25l-7.73,5.54c22.63-18.51,33.32-54.78,35.67-63.66h.49c2.17.01,3.98,1.71,4.13,3.87.61,8.86-1.35,31.88-32.56,54.25Z"/>
  <path class="cls-7" d="M268.53,546.21c-.27,3.06-4.98,5.65-12.59,6.91-12.12,2.01-28.46.25-34.07-4.48,6.15-1.11,17.66-1.21,27.07-11.53,15.83-17.37-1.04-37.61-1.04-37.61,1.9.1,3.72.79,5.49,2.06,10.83,7.72,15.97,35.47,15.14,44.65Z"/>
  <path class="cls-7" d="M290.43,161.5c-.68,1.32-1.34,3.31-2.1,5.61-2.95,8.89-7.88,23.77-22.65,25.34-8.43.9-17.01-1.93-24.88-5.02h0s29.24-1.81,31.29-23.6c2.04-21.79-16.25-33.07-16.25-33.07.88.03,1.75.11,2.59.23,14.91,1.86,24.2,13.1,27.05,17.05,1.53,2.13,2.72,4.2,3.56,6.06.39.84.7,1.63.95,2.37.78,2.31.92,4.11.44,5.03Z"/>
  <path class="cls-2" d="M192.07,116.27c.07-.17-.15-.3-.26-.15-2.99,3.93-14.19,20.14-6.62,33.49,8.68,15.32,16.23,8.77,17.11,7.49,4.51-6.63,2.3-20.43-5.45-24.51-3.2-1.69-5.34-2.49-6.75-2.85s-2.18-1.71-1.85-3.07c.76-3.13,2.8-7.98,3.82-10.4Z"/>
  <path class="cls-2" d="M286.87,91.42c.07-.17-.15-.3-.26-.15-2.99,3.93-14.19,20.14-6.62,33.49,8.68,15.32,16.23,8.77,17.11,7.49,4.51-6.63,2.3-20.43-5.45-24.51-3.2-1.69-5.34-2.49-6.75-2.85s-2.18-1.71-1.85-3.07c.76-3.13,2.8-7.98,3.82-10.4Z"/>
  <path class="cls-1" d="M285.03,257.87c-3.69-9.15-23.41-17.92-24.03-18.19h-.01c9.2-.65,18.12-2.13,26.62-4.41-1.59,4.27-3.38,11.72-2.58,22.6Z"/>
  <path class="cls-3" d="M259.06,282.59c-1.16.33-2.13,1.14-2.77,2.17-4.36,6.91-24.75,40.21-28.58,63.59-4.3,26.21,21.07,12.6,22.51-7.49,1.32-18.34,9.81-47.18,11.28-52.05.24-.8.43-1.62.51-2.45.18-1.91-.03-4.59-2.94-3.76Z"/>
  <path class="cls-3" d="M226.47,382.2c-.36-6.39,4.48-11.95,10.87-12.29,3.75-.2,7.89.76,11.46,4.38,6.8,6.89.39,19.48,3.96,28.27,2.59,6.38-2.68,13.24-9.54,12.75-.18-.01-.36-.03-.54-.04-12.54-.99-15.54-21.14-16.21-33.08Z"/>
  <path class="cls-3" d="M196.88,510.83c-2.36,0-3.32,3.07-1.41,4.46,5.18,3.78,16.36,10.97,28.02,12.28,13.47,1.51-14.9-16.78-26.61-16.74Z"/>
  <path class="cls-3" d="M389.75,472.82c-.61,2.28,2.1,4.01,3.94,2.53,5-4.01,14.86-12.93,19.16-23.85,4.97-12.61-20.09,10.01-23.1,21.32Z"/>
  <path class="cls-3" d="M238.88,138.92c-3.65,4.42-11.25,15.31-11.61,29.74-.08,3.19,1.39,6.32,4.14,7.93,1.19.7,2.64,1.15,4.32.98,4.26-.42,7.14-4.62,6.33-8.82-1.05-5.44-2.07-14.67.96-22.07.5-1.22,1.15-2.36,1.87-3.47s1.9-3.48-.17-5.09c-1.79-1.39-4.39-.95-5.84.79Z"/>
  <circle class="cls-8" cx="204.61" cy="210.08" r="17.35"/>
  <circle class="cls-6" cx="313.55" cy="177.61" r="16.2"/>
  <path class="cls-3" d="M301.75,365.36c-.64-1.18-1.97-1.8-3.3-1.73-6.09.35-28.24,2.64-31.76,17.81-2.34,10.07.99,12.01,4.28,11.82,2.58-.15,4.83-1.75,6.1-3.99,2.31-4.1,8.5-12.34,22.93-18.16,0,0,3.27-2.93,1.75-5.74Z"/>
</svg>