<?xml version="1.0" encoding="UTF-8"?>
<svg id="Layer_1" data-name="Layer 1" xmlns="http://www.w3.org/2000/svg" xmlns:xlink="http://www.w3.org/1999/xlink" viewBox="0 0 566.93 566.93">
  <defs>
    <style>
      .cls-1 {
        fill: #a04323;
      }

      .cls-1, .cls-2, .cls-3, .cls-4, .cls-5, .cls-6, .cls-7, .cls-8, .cls-9, .cls-10, .cls-11, .cls-12, .cls-13 {
        stroke-width: 0px;
      }

      .cls-2 {
        fill: #f59422;
      }

      .cls-3 {
        fill: #94341f;
      }

      .cls-4 {
        fill: #321414;
      }

      .cls-5 {
        fill: #f4caa0;
      }

      .cls-6 {
        fill: #fff;
      }

      .cls-7 {
        fill: #f6eb22;
      }

      .cls-8 {
        fill: #bc722b;
      }

      .cls-9 {
        fill: #231f20;
      }

      .cls-10 {
        fill: url(#radial-gradient);
      }

      .cls-11 {
        fill: #fedbaa;
      }

      .cls-12 {
        fill: #711311;
      }

      .cls-13 {
        fill: #f16926;
      }
    </style>
    <radialGradient id="radial-gradient" cx="277.46" cy="316.82" fx="277.46" fy="316.82" r="30.49" gradientUnits="userSpaceOnUse">
      <stop offset="0" stop-color="#ec709a"/>
      <stop offset=".28" stop-color="#f1919e"/>
      <stop offset=".76" stop-color="#fac6a6"/>
      <stop offset="1" stop-color="#fedbaa"/>
    </radialGradient>
  </defs>
  <path class="cls-12" d="M335.99,334.72c-7.24,5.94-14.54,11.43-21.89,16.46-1.19.81-2.38,1.62-3.58,2.4-.85.58-1.71,1.14-2.57,1.7-1.12.72-2.25,1.44-3.37,2.15-19.5,12.23-39.31,21.27-59.2,26.98-2.54.73-5.08,1.41-7.62,2.02-1.4.35-2.81.68-4.22.98-13.25,2.94-26.52,4.41-39.7,4.41-7.39,0-14.75-.46-22.07-1.39-33.89-4.29-56.88-17.14-64.63-22.05-.03-.02-.05-.03-.07-.04-4.56-2.75-13.3-3.63-18.8-3.91-.57.03-1.14.05-1.71.05-1.08,0-2.16-.06-3.24-.18-19.83-2.23-35.37-16.34-35.37-32.13,0-.8.04-1.61.11-2.4v-.03c0-.08.01-.15.02-.23.91-15.71,14.99-25.58,24.86-30.61,4.24-2.16,7.24-6.16,8.16-10.83,7.41-37.76,10.58-68.62,10.61-68.95l.03-.18c9.84-51.07,26.46-78.95,38.67-93.34,8.58-10.11,16.21-15.21,20.72-17.61,0,0-55.73-7.14-72.69,31.87-.78,1.78-2.32,3.2-4.03,2.26-.44-.24-.75-.59-.79-1.1-.17-2.04,5.29-40.57,50.04-39.16,25.67.81,36.9,1.48,41.81,1.9,16.71-3.01,35.48-2.41,55.11,1.63,10.27,2.11,20.78,5.17,31.34,9.15h.01c7.13,2.68,14.29,5.78,21.42,9.29,3.29,1.62,6.54,3.3,9.73,5.06,7.46,4.07,14.63,8.48,21.45,13.19,13.09,9,24.9,19.04,35.03,29.77,10.79,11.4,19.69,23.56,26.24,36.07,2.29,4.38,4.27,8.75,5.94,13.1,15.94,41.52,3.53,81.47-35.75,113.7Z"/>
  <path class="cls-12" d="M257.62,485.37c-2.5-4.39-9.75-7.74-21.55-9.97-1.71-.39-33.23-7.32-46.1,17.73-2.69,5.23-1.93,10.56,2.15,15.01,6.12,6.69,18.49,10.5,30.76,10.49,6.43,0,12.83-1.04,18.29-3.27,11.43-4.66,17.56-13.84,17.26-25.87.15-.76.24-2.28-.81-4.12ZM254.43,489.34c.43,13.3-7.79,19.48-14.77,22.32-15.69,6.39-37.22,1.83-44.59-6.22-2.95-3.22-3.47-6.74-1.55-10.48,7.23-14.06,20.93-16.85,30.65-16.85,6.04,0,10.54,1.08,11.01,1.19l.11.03c13.46,2.53,17.49,5.95,18.69,7.76.54.81.55,1.36.54,1.55l-.11.18.02.52Z"/>
  <path class="cls-2" d="M254.42,489.01v.33c.43,13-7.42,19.2-14.29,22.12-.16.07-.31.14-.47.2-3.64,1.48-7.6,2.38-11.63,2.77-13.3,1.31-27.3-2.81-32.96-8.99-2.95-3.22-3.47-6.74-1.55-10.48,5.97-11.61,16.35-15.54,25.26-16.55,1.88-.22,3.7-.3,5.39-.3,2.7,0,5.08.22,6.94.46,2.32.31,3.81.67,4.07.73l.11.03c6.43,1.21,10.71,2.62,13.55,3.97,3.12,1.46,4.51,2.84,5.14,3.79.54.81.55,1.36.54,1.55l-.11.18v.19Z"/>
  <path class="cls-12" d="M402.53,484.13c-10.64-11.31-37.36-10.6-52.34-9.17-6.42.61-11.98,4.41-14.88,10.16-6.17,12.24-2.96,20.33.82,24.97,6.54,8.04,19.34,11.65,31.98,11.65,5.59,0,11.16-.71,16.14-2.05,12.89-3.48,21.12-10.77,22.58-19.99.98-6.25-.46-11.48-4.3-15.57ZM402.88,499.07c-1.21,7.6-8.38,13.71-19.68,16.76-16.83,4.54-36.56.84-43.97-8.26-2.27-2.78-3.4-5.97-3.4-9.53,0-3.37,1.02-7.08,3.05-11.11,2.28-4.52,6.65-7.51,11.7-7.99,3.75-.36,9.25-.75,15.29-.75,12.42,0,27.13,1.66,33.74,8.69,2.99,3.17,4.06,7.16,3.27,12.19Z"/>
  <path class="cls-2" d="M402.88,499.07c-1.21,7.6-8.38,13.71-19.68,16.76-11.9,3.21-25.25,2.3-34.67-1.72-3.67-1.57-6.74-3.61-8.89-6.07-.15-.15-.28-.31-.41-.47-2.27-2.78-3.4-5.97-3.4-9.53,0-3.37,1.02-7.08,3.05-11.11,2.28-4.52,6.65-7.51,11.7-7.99,2.62-.25,6.08-.52,9.99-.65,1.69-.06,3.47-.1,5.3-.1,1.62,0,3.27.03,4.94.09,11.17.43,23.05,2.49,28.8,8.6,2.99,3.17,4.06,7.16,3.27,12.19Z"/>
  <path class="cls-13" d="M254.42,489.01v.33c.43,13-7.42,19.2-14.29,22.12-8.14-14.35-9.06-27.34-9.02-32.89,2.32.31,3.81.67,4.07.73l.11.03c6.43,1.21,10.71,2.62,13.55,3.97,3.12,1.46,4.51,2.84,5.14,3.79.54.81.55,1.36.54,1.55l-.11.18v.19Z"/>
  <path class="cls-13" d="M360.57,478.29c-1.48,7.15-6.16,19.6-20.93,29.75-.15-.15-.28-.31-.41-.47-2.27-2.78-3.4-5.97-3.4-9.53,0-3.37,1.02-7.08,3.05-11.11,2.28-4.52,6.65-7.51,11.7-7.99,2.62-.25,6.08-.52,9.99-.65Z"/>
  <path class="cls-12" d="M253.8,414.81l-13.28-22.46-.23-.3c-.65-.65-1.21-1.21-11.96,4.02-5.17,2.52-12.62,6.48-18.72,11.1-9.03,6.82-12.16,12.87-9.3,17.99,2.2,3.94,7.17,5.44,13.47,5.44,7.81,0,17.64-2.31,26.72-5.12,1.32-.4,2.63-.82,3.92-1.25l.45-.15.28-.37c2.29-3.06,5.06-5,8.25-5.76l1.98-.47-1.58-2.67ZM250.24,415.84c-.18.07-.35.15-.53.22-.18.09-.36.18-.54.27-.33.17-.66.35-.98.54-.57.34-1.11.72-1.65,1.14-.24.17-.47.37-.7.57-.32.27-.63.55-.93.85-.14.13-.27.27-.4.41-.13.12-.25.25-.35.38-.13.12-.25.25-.36.39-.26.29-.51.6-.76.92-22.2,7.29-36.81,8.09-40.11,2.17-.85-1.52-.83-3.19.05-5.12,4.7-10.24,30.15-21.8,35.54-23.73l12.27,20.77c-.18.07-.37.14-.55.22Z"/>
  <path class="cls-2" d="M250.79,415.62c-.18.07-.37.14-.55.22-.18.07-.36.15-.53.22-.18.09-.36.18-.54.27-.33.17-.66.35-.98.54-.57.34-1.11.72-1.65,1.14-.23.17-.47.36-.7.57-.32.27-.63.55-.93.85-.14.13-.27.27-.4.41-.13.12-.25.25-.35.38-.13.13-.25.26-.36.39-.26.29-.51.6-.76.92-22.2,7.29-36.81,8.09-40.11,2.17-.85-1.52-.83-3.19.05-5.12,4.7-10.24,30.15-21.8,35.54-23.73l12.27,20.77Z"/>
  <path class="cls-12" d="M360.97,425.83c-.51-1.44-1.08-2.88-1.7-4.33-2.49-5.92-5.77-11.86-9.76-17.69-4.55-6.66-10.04-13.18-16.4-19.4-.19-.19-15.84-16.79-19.01-33.23-.29-1.51-.48-3.01-.54-4.5-1.28.89-2.55,1.75-3.81,2.59.17,1.44.43,2.88.77,4.31,4,16.97,18.95,32.81,19.74,33.64,5.81,5.68,10.87,11.61,15.12,17.65,4.7,6.67,8.41,13.47,11.06,20.21.1.25.19.49.28.74.45,1.15.85,2.29,1.22,3.43,3.92,11.88,4.44,23.42,1.16,33.56-6.38,19.71-25.86,32.53-56.33,37.08-39.19,5.86-58.31-5.89-67.45-16.77-10.06-11.97-11.28-26.55-9.68-31.34,2.56-7.67,8.91-45.61,12.12-65.35.27-1.6.51-3.09.72-4.42-1.42.36-2.82.7-4.22,1.02-.22,1.35-.46,2.81-.72,4.38-3.27,20.02-9.32,55.98-11.69,63.11-1.9,5.68-.79,21.84,10.41,35.17,8.03,9.56,23.1,19.76,50.86,19.76,6.11,0,12.84-.49,20.24-1.6,40.52-6.05,54.75-24.99,59.54-39.81,3.74-11.56,2.93-24.77-1.93-38.21Z"/>
  <path class="cls-12" d="M333.46,331.62c-6.72,5.51-13.36,10.52-19.9,15.06-1.28.89-2.55,1.75-3.81,2.59-1.3.88-2.59,1.73-3.88,2.56-1.13.73-2.26,1.45-3.38,2.15-22.82,14.29-44.37,23.03-64.01,28.03-1.42.36-2.82.7-4.22,1.02-24.01,5.56-45.01,5.56-61.78,3.46-39.55-4.95-64.58-22.35-65.81-23.23-1.31-1.09-31.45-26.96-23.26-66.43,8.38-40.46,12.06-75.19,12.27-77.22,9.63-49.88,25.7-77.06,37.5-91.09,10.01-11.9,18.69-16.57,21.99-18.04.83-.37,1.32-.54,1.41-.57.83-.24,1.67-.46,2.51-.67,31.64-8.09,72.46-1.53,112.5,18.18,40.7,20.03,73.75,50.05,90.67,82.36,23.2,44.29,12.97,87.57-28.8,121.84Z"/>
  <path class="cls-2" d="M359.1,462.81c-6.38,19.71-25.86,32.53-56.33,37.08-9.01,1.35-16.96,1.76-23.96,1.47h-.02c-23.48-.97-36.43-9.86-43.47-18.24-10.06-11.97-11.28-26.55-9.68-31.34,2.35-7.04,7.89-39.58,11.27-60.14.3-1.84.59-3.59.85-5.21,2.54-.61,5.08-1.29,7.62-2.02,13.64-3.92,27.25-9.4,40.74-16.41,6.18-3.21,12.34-6.73,18.46-10.57,1.12-.71,2.25-1.43,3.37-2.15.86-.56,1.72-1.12,2.57-1.7.63,2.68,1.54,5.33,2.62,7.9,5.75,13.7,16.45,25.04,17.12,25.74,12.24,11.97,21.14,25.03,26.18,37.86.55,1.39,1.05,2.79,1.5,4.17,3.92,11.88,4.44,23.42,1.16,33.56Z"/>
  <path class="cls-13" d="M359.1,462.81c-6.38,19.71-25.86,32.53-56.33,37.08-9.01,1.35-16.96,1.76-23.96,1.47,1.67-.5,86.57-25.66,62.04-72.73-24.76-47.53-103.94-36.99-103.94-36.99.3-1.84.59-3.59.85-5.21,2.54-.61,5.08-1.29,7.62-2.02,13.64-3.92,27.25-9.4,40.74-16.41l27.02-6.52c5.75,13.7,16.45,25.04,17.12,25.74,12.24,11.97,21.14,25.03,26.18,37.86.55,1.39,1.05,2.79,1.5,4.17,3.92,11.88,4.44,23.42,1.16,33.56Z"/>
  <path class="cls-12" d="M237.76,386.43s72.2-24.94,92.5.79l-20.51-37.95-74.96,36.01,2.97,1.15Z"/>
  <path class="cls-11" d="M333.46,331.62c-6.72,5.51-13.36,10.52-19.9,15.06-1.28.89-2.55,1.75-3.81,2.59-1.3.88-2.59,1.73-3.88,2.56-1.13.73-2.26,1.45-3.38,2.15-22.82,14.29-44.37,23.03-64.01,28.03-1.42.36-2.82.7-4.22,1.02-8.96,2.07-17.5,3.37-25.56,4.07-13.54,1.2-25.71.71-36.22-.61-27.55-3.45-48.06-12.94-58.38-18.68-5.92-3.29-12.17-5.93-18.68-7.82-13.47-3.91-33.73-11.22-37.97-26.29-7.15-25.4,23.44-24.72,25.96-36.87,6.98-33.72,10.7-63.45,11.87-73.6.31-2.71.74-5.41,1.29-8.08,9.71-47.05,25.17-73.02,36.61-86.63,10.01-11.9,18.69-16.57,21.99-18.04.83-.37,1.32-.54,1.41-.57.83-.24,1.67-.46,2.51-.67,31.64-8.09,72.46-1.53,112.5,18.18,40.7,20.03,73.75,50.05,90.67,82.36,23.2,44.29,12.97,87.57-28.8,121.84Z"/>
  <path class="cls-5" d="M333.46,331.62c-6.72,5.51-13.36,10.52-19.9,15.06-1.28.89-2.55,1.75-3.81,2.59-1.3.88-2.59,1.73-3.88,2.56-1.13.73-2.26,1.45-3.38,2.15-22.82,14.29-44.37,23.03-64.01,28.03-1.42.36-2.82.7-4.22,1.02-8.96,2.07-17.5,3.37-25.56,4.07,73.83-29.67,157.74-59.57,128.07-164.72-23.49-83.23-162.14-109.96-176.47-112.9-.29-.06-.29-.47,0-.54,31.47-7.63,71.77-.99,111.31,18.48,40.7,20.03,73.75,50.05,90.67,82.36,23.2,44.29,12.97,87.57-28.8,121.84Z"/>
  <path class="cls-1" d="M445.04,192.2c2.2,4.53,53.45,111.45,32.91,147.12-.28.48-.75.81-1.29.89-.29.05-.87.06-1.39-.42-5.92-5.41-16.12-17.76-17.8-39.71-.1-1.23-1.1-2.15-2.33-2.15h-.01c-1.22,0-2.21.93-2.3,2.16-3.33,48.39-10.86,105.14-21.99,119.29-.41.52-.97.54-1.19.52-.23,0-.8-.12-1.15-.73-3.64-6.47-9.1-22.36-5.21-56.68.13-1.11-.65-2.12-1.75-2.27h0c-1.09-.15-2.11.58-2.3,1.67-1.65,9.46-9.6,50.84-25.27,67.72-4.12,4.43-9.51,4.36-13.18,2.82-3.73-1.57-7.6-5.42-7.31-11.56.27-5.81,1.37-12.48,3.27-19.84.33-1.26-.35-2.56-1.58-3.01-.29-.11-.58-.16-.88-.16-.94,0-1.83.53-2.26,1.42-4.59,9.41-8.97,17-12.75,22.21-5.35-12.67-14.22-25.42-26.16-37.09-.19-.19-15.84-16.79-19.01-33.23,7.35-5.03,14.65-10.52,21.89-16.46,43.4-35.61,53.99-80.64,29.81-126.8-17.3-33.04-51-63.7-92.45-84.09-39.51-19.45-79.9-26.33-111.97-19.25,5.57-6.43,17.24-18.7,34.79-31.19,21.32-15.18,55.57-33.54,101.31-38.84-12.9,5.11-32.57,12.76-43.03,16.14-1.21.39-3.04.99-2.67,2.86.36,1.83,2.24,1.73,3.37,1.67.85-.04,2.1-.14,3.73-.27,87.3-6.91,169.51,16.36,232.57,65.65-18.72-5.51-60.71-17.78-99.23-28.44-1.1-.31-2.24.27-2.64,1.35-.4,1.07.08,2.25,1.12,2.74,15.44,7.26,93.01,47.82,112.47,137.19-7.59-2.4-27.91-11.4-54.65-43.48-.68-.81-1.86-.98-2.74-.41l-1.5,1.06.76,1.59Z"/>
  <path class="cls-12" d="M294.42,420.18c-.79-1.01-2.41-.53-2.52.75-.41,5.13.43,11.55,4.01,19.11,3.4,7.16,6.93,11.11,10.78,12.07.65.16,1.28.23,1.89.23,3.2,0,5.88-1.99,7.93-3.52l.26-.19c2.99-2.2,4.67-5.92,4.41-9.73-1.37-19.28-6.81-26.95-10.79-31.04-2.14-2.2-5.54-4.49-8.09-2.85-1.31.84.38,2.98.38,2.98.29-.04.57-.06.85-.06,1.76,0,3.44.71,4.7,2.02,3.66,3.75,8.66,10.87,9.95,29.17.2,2.78-1.02,5.5-3.19,7.09l-.28.21c-2.16,1.61-4.62,3.44-7.29,2.78-2.89-.72-5.85-4.24-8.79-10.44-3.23-6.79-4.12-12.53-3.81-17.23.03-.49-.11-.97-.4-1.35h0Z"/>
  <path class="cls-2" d="M315,446.21l-.28.21c-2.16,1.61-4.62,3.44-7.29,2.78-2.89-.72-5.85-4.24-8.79-10.44-6.15-12.95-3.84-22.07-.83-27.44,1.03-1.85,2.82-3.06,4.88-3.33.29-.04.57-.06.85-.06,1.76,0,3.44.71,4.7,2.02,3.66,3.75,8.66,10.87,9.95,29.17.2,2.78-1.02,5.5-3.19,7.09Z"/>
  <g>
    <path class="cls-7" d="M290.79,450.8c0,3.9-.54,8.13-1.6,12.58-.89,3.77-5.59,10.44-8.97,12.74-5.81,3.94-20.68,5.7-30.76-.52-8.52-5.26-12.03-15.41-10.16-29.42v-.19c.01-.13.59-13.58,6.65-21.68,2.15-2.87,4.73-4.69,7.69-5.39,1.02-.25,2.07-.37,3.22-.37,2,0,4.18.39,6.56,1.17l.19.05c10.53,2.21,18.14,6.93,22.65,14.03,3,4.73,4.53,10.46,4.53,17Z"/>
    <path class="cls-12" d="M287.94,432.72c-4.8-7.56-12.84-12.58-23.88-14.9l-.09-.02c-3.98-1.32-7.69-1.59-10.8-.82-3.42.81-6.38,2.87-8.82,6.13-6.4,8.55-7.04,22.72-7.04,22.79v.08c-1.98,14.78,1.86,25.62,11.1,31.32,5.02,3.1,11.18,4.33,16.95,4.33,6.58,0,12.65-1.6,15.98-3.85,3.84-2.61,8.78-9.65,9.79-13.94,1.1-4.6,1.66-8.99,1.66-13.04,0-6.93-1.63-13.01-4.85-18.08ZM249.46,475.6c-8.52-5.26-12.03-15.41-10.16-29.42v-.19c.01-.13.59-13.58,6.65-21.68,2.15-2.87,4.73-4.69,7.69-5.39,1.02-.25,2.07-.37,3.22-.37,2,0,4.18.39,6.56,1.17l.19.05c10.53,2.21,18.14,6.93,22.65,14.03,3,4.73,4.53,10.46,4.53,17,0,3.9-.54,8.13-1.6,12.58-.89,3.77-5.59,10.44-8.97,12.74-5.81,3.94-20.68,5.7-30.76-.52Z"/>
  </g>
  <path class="cls-12" d="M256.86,238.11c-6.34-34.7-26.85-54.24-42.94-64.52-19.21-12.28-43.09-18.13-63.88-15.68-18.28,2.17-29.55,22.71-35.79,39.57-7.65,20.69-10.62,43.68-10.13,56.28.87,22.61,10.85,41.68,28.87,55.17,15.44,11.55,36.13,18.18,56.76,18.18,19.49,0,38.23-9.07,51.42-24.88,14.49-17.37,20.06-40.14,15.69-64.12ZM238.86,300.31c-12.61,15.12-30.51,23.8-49.11,23.8-39.72,0-80.85-24.21-82.63-70.47-.48-12.31,2.43-34.81,9.95-55.12,5.94-16.07,16.55-35.64,33.32-37.63,2.78-.32,5.69-.49,8.71-.49,35.29,0,84.7,22.89,94.8,78.25,4.22,23.08-1.13,44.98-15.04,61.66Z"/>
  <path class="cls-6" d="M238.86,300.31c-12.61,15.12-30.51,23.8-49.11,23.8-39.72,0-80.85-24.21-82.63-70.47-.48-12.31,2.43-34.81,9.95-55.12,5.94-16.07,16.55-35.64,33.32-37.63,2.78-.32,5.69-.49,8.71-.49,35.29,0,84.7,22.89,94.8,78.25,4.22,23.08-1.13,44.98-15.04,61.66Z"/>
  <path class="cls-4" d="M116.2,331.15c0,8.05-4.2,16.8-10.96,22.85-6.25,5.58-13.91,8.18-21.58,7.32-18.04-2.03-32.71-15.1-32.71-29.15,0-15.52,14.51-29.14,31.05-29.14,17.58,0,34.2,13.67,34.2,28.12Z"/>
  <path class="cls-12" d="M249.9,457.85c-.05-.15-.27-.13-.29.03-.26,2.4-.56,10.35,6.43,11.87,0,0,4.06.64,3.36-3.79-.47-2.96-4.4.17-6.36-1.79-1.52-1.52-2.7-4.9-3.14-6.33Z"/>
  <circle class="cls-10" cx="277.46" cy="316.82" r="30.49"/>
  <path class="cls-9" d="M141.43,223.23c.1-.6-.77-.81-.95-.23-4.45,14.31-13.88,50.61-1.33,67.81,15.83,21.7,35.23,6.77,34.21-8.94-.88-13.47-9.93-34.23-32.29-28.94-2.28.54-4.38-1.4-3.99-3.71l4.35-26Z"/>
  <g>
    <path class="cls-9" d="M237.31,350.86c-.96-.33-1.99-.49-3.13-.49-1.54,0-3.07.3-4.54.59-1.45.28-2.82.55-4.19.55h-2.87c-9.33-.51-18.82-1.92-28-3.27l-.36-.06h-.08s-.09-.01-.09-.01c-.53,0-.98.38-1.08.91-.09.53.21,1.05.71,1.23,3.56,1.23,7.37,2.25,11.36,3.01,3.96.82,7.9,1.29,11.72,1.4-.1.57-.19,1.19-.18,1.73-.21,3.5.88,6.63,3.16,9.06,3,3.2,8.01,5.11,13.4,5.11.99,0,1.97-.06,2.92-.19,4.24-.29,7.22-3.32,7.78-7.91.55-4.47-1.55-10.08-6.53-11.66ZM240.51,364.08c-1.15,2.97-3.97,3.38-6.74,3.38-.74,0-1.48-.03-2.18-.05-5.4-.24-11.98-2.5-12.83-8.22-.29-1.93.65-3.7.84-5.45,3.92-.06,7.83-.52,11.64-1.44.75-.18,1.53-.28,2.31-.28,2,0,3.97.64,5.37,2.12,2.43,2.56,2.93,6.78,1.59,9.94Z"/>
    <path class="cls-9" d="M240.51,364.08c-1.15,2.97-3.97,3.38-6.74,3.38-.74,0-1.48-.03-2.18-.05-5.4-.24-11.98-2.5-12.83-8.22-.29-1.93.65-3.7.84-5.45,3.92-.06,7.83-.52,11.64-1.44.75-.18,1.53-.28,2.31-.28,2,0,3.97.64,5.37,2.12,2.43,2.56,2.93,6.78,1.59,9.94Z"/>
  </g>
  <path class="cls-12" d="M422.06,389.9c-.57,6.63,9.77,12.42,7.13,29.89-.2,1.35-.4,2.69-.59,3.99-1.5-.33-2.8-1.28-3.58-2.64-2.31-4.11-5.32-11.72-6.53-24.71-.29-3.08-.47-6.46-.52-10.16-4.26,15.94-11.12,35.33-21.08,46.07-3.09,3.33-7.15,5.08-11.38,5.08-2.08,0-4.21-.42-6.28-1.29-6.25-2.63-10.08-8.69-9.76-15.44.15-3.07.51-6.36,1.09-9.84-3.03,5.53-6.33,10.88-9.59,14.98-.8,1-1.59,1.92-2.38,2.75-.63-.93-1.26-1.85-1.87-2.76-.09-.25-.18-.49-.28-.74-2.65-6.74-6.36-13.54-11.06-20.21,1.16-.05,2.58-.32,4.13-1.06,1.86-.91,3.92-2.49,5.96-5.18,1.37-1.81,2.44-3.83,3.29-5.93,4.51-11.07,19.73-59.26,21.86-89.36.26-3.67,6.7-2.17,7.14,1.49,2.47,20.44,8.3,69.18,2.45,82.94-7.83,18.43,8.63,20.04,16.06-.68,7.43-20.72-.59-61.34,10.5-57.48,21.53,7.49,6.31,48.37,5.29,60.28Z"/>
  <path class="cls-3" d="M506.59,237.05c-.75.72-1.79.99-2.79.73-5.54-1.43-24.24-8.03-49.57-35.27,13.83,30.9,44.98,107.91,27.19,138.8-.89,1.55-2.4,2.59-4.14,2.86-1.72.26-3.43-.25-4.7-1.42-5-4.56-12.81-13.68-16.81-28.66-.4,4.82-.89,10.27-1.48,16.11v.03c-.08.8-.16,1.61-.24,2.43-.28,2.75-.59,5.58-.92,8.46-3.55,31.29-9.62,68.63-19.14,80.73-1.12,1.42-2.86,2.18-4.65,2.04-1.81-.14-3.42-1.17-4.32-2.75-2.31-4.11-5.32-11.72-6.53-24.71.96-2.17,2.14-4.36,3.57-6.53,10.12-15.34,13.61-48.08,14.52-59.09.18-2.16.52-4.29.85-6.43,6.74-43.6-92-120.83-53-126.5,39.83-5.78,76.93,91.15,80,93.96,3.06,2.81,4.08-5.5,4.08-5.5-6.76-53.47-75.23-126.42-70.3-145.48,4.94-19.06,74.51,44.51,77.58,47.45,3.06,2.93,4.98,1.4,4.98,1.4-47.75-89.87-141.45-92.08-163.07-94.54-21.61-2.46-9.02-13.88-9.02-13.88,61.72-7.25,99.35,8.53,118.28,20.64,3.97,2.54,7.11,4.91,9.48,6.87-9.47-2.72-19.4-5.54-29.35-8.33,28.8,16.93,84.7,58.64,100.36,133.84.21,1.01-.11,2.04-.86,2.75Z"/>
  <path class="cls-6" d="M240.51,364.08c-1.46,3.76-5.58,3.41-8.92,3.33-5.4-.24-11.98-2.5-12.83-8.22-.29-1.93.65-3.7.84-5.45,3.92-.06,7.83-.52,11.64-1.44,2.67-.65,5.74-.22,7.68,1.84,2.43,2.56,2.93,6.78,1.59,9.94Z"/>
  <path class="cls-3" d="M352.07,64.8c-2.39.86-4.97,1.03-7.5.74-77.36-8.88-115.69,45.67-127.8,24.84-12.26-21.06,35.01-36.83,35.01-36.83,1.72-.9,7.85-2.04,16.37-3.27,16.98-1.02,46.89-1.66,83.34,4.71,1.48.26,2.95.53,4.42.81-.07,1.71-.02,3.2.2,4.25h0c.52,2.45-1.69,3.91-4.04,4.75Z"/>
  <path class="cls-8" d="M337.45,79.23s-77.93.15-85.52,35.31h-.01c-10.56-3.98-21.07-7.04-31.34-9.15,4.69-5.23,48.98-51.88,116.87-26.16Z"/>
  <path class="cls-8" d="M399.89,139s-3.72,3.38-6.78,3.55c-3.05.17-73.99-24.87-88.58-.47-6.82-4.71-13.99-9.12-21.45-13.19,7.02-7.36,38.23-31.4,116.81,10.11Z"/>
  <path class="cls-8" d="M391.4,242.25s-11.23-20.3-19.66-21.23c-1.67-4.35-3.65-8.72-5.94-13.1-6.55-12.51-15.45-24.67-26.24-36.07,10.69,1.65,58.19,12.3,51.84,70.4Z"/>
  <path class="cls-12" d="M353,117.73c-14.4-11.19-41.5-5.15-58.75-6.62-2.94-.23-6.47-1.92-4.63-5.49,3.68-6.34,25.95-6.61,37.08-7.38-14.82-2.6-30.06-3.42-44.94-1.02-8.33,1.11-16.25,3.97-24.35,6.05-1.47.31-3.07-.17-2.39-2.22.65-1.7,2.27-2.74,3.69-3.69,5.81-3.44,12.29-5.51,18.71-7.46.2-.05.26.23.08.29-6.31,2.07-12.73,4.28-18.38,7.8-1.4,1.02-3.27,2.15-3.37,3.98.03.21.08.31.18.37.24.14.83.1,1.33.01,1.61-.32,3.17-.9,4.75-1.41,14.83-5.28,30.66-7.66,46.4-6.85,7.91.45,15.72,1.24,23.5,2.75.53.16,1.23.29,1.67.81.09.1.32.45.31.86.02.36-.19.7-.36.89-.16.2-.54.39-.73.45-5.12,1.11-10.23,1.04-15.31,1.62-4.43.4-8.86.85-13.2,1.56-3.9.77-8.55,1.22-11.66,3.72-.21.21-.31.4-.39.65,0,0-.01,0-.01,0t-.02-.01c0,.06.02.1.02.05,0-.01.01-.02.01-.03.15.12.55.29.98.4,6.94,1.21,14.22.3,21.31.47,8.99.04,18.12.38,26.84,2.82,4.31,1.3,8.63,3.18,11.84,6.42.13.12-.06.34-.21.22Z"/>
  <path class="cls-12" d="M292.24,107.4s-.01.02-.01.03c0,.05-.01.01-.02-.05t.02.01s.01,0,.01,0Z"/>
  <path class="cls-12" d="M386.1,184.88c.05.16-.2.28-.28.11-7.73-14.64-25.41-20.78-40.62-24.27-.84-.13-1.41-.93-1.25-1.76.48-1.52,2.48-2.16,3.7-2.4,3.07-.45,6.09.37,8.91,1.21,5.29,1.63,10.68,4.18,15.7,6.44,1.45.62,2.92,1.37,4.38,1.89-.31-.33-.64-.63-.96-.89-4.29-3.42-9.48-5.65-14.48-7.92-10.26-4.47-20.82-8.23-31.46-11.7-.17-.05-.1-.35.09-.29,11.22,3.38,42.51,12.28,49.21,20.58.88,1.01.9,2.45-.53,2.69-2.49-.07-4.9-1.54-7.13-2.35-4.93-2.08-10.47-4.5-15.56-5.9-.03-.01-.06-.01-.09-.02,8.85,2.83,17.19,7.26,23.74,13.89,2.93,3.07,5.29,6.72,6.63,10.69Z"/>
  <path class="cls-12" d="M370.52,189.22c7.06,2.62,13.38,7.01,18.91,12.1,5.71,5,10.33,11.37,12.32,18.78.04.14-.16.27-.26.14-1.3-1.42-2.36-2.94-3.51-4.38-3.45-4.23-6.63-8.75-10.25-12.84-4.98-5.38-10.79-10.12-17.32-13.52-.16-.06-.07-.35.11-.28h0Z"/>
  <path class="cls-12" d="M507.45,234.3c-15.66-75.2-71.56-116.91-100.36-133.84,9.95,2.79,19.88,5.61,29.35,8.33,29.9,8.57,55.25,16.05,62.05,18.05,1.02.31,2.17-.05,2.72-.96.6-.99.38-2.22-.5-2.96-41.31-34.26-90-56.84-144.8-67.12-1.47-.28-2.94-.55-4.42-.81-36.45-6.37-66.36-5.73-83.34-4.71-.18.01-.35.02-.52.03,18.43-6.76,43.53-16.92,43.84-17.05l11.17-4.52-12.03.67c-53.5,2.99-93.1,23.84-116.9,40.82-23.72,16.91-36.6,33.02-38.95,36.09-.2.27-.33.44-.37.5l-.79,1.07,1.57,2.59c.83-.37,1.32-.54,1.41-.57.83-.24,1.67-.46,2.51-.67l-.67-1.1c.63-.79,1.62-2,2.96-3.56,5.57-6.43,17.24-18.7,34.79-31.19,21.32-15.18,55.57-33.54,101.31-38.84-12.9,5.11-32.57,12.76-43.03,16.14-1.21.39-3.04.99-2.67,2.86.36,1.83,2.24,1.73,3.37,1.67.85-.04,2.1-.14,3.73-.27,33.42-2.65,66.09-.87,97.23,5.1h0c50.21,9.62,96.42,30.13,135.34,60.55-13.13-3.86-37.7-11.05-64.49-18.68-11.41-3.25-23.23-6.58-34.74-9.76-1.1-.31-2.24.27-2.64,1.35-.4,1.07.08,2.25,1.12,2.74,15.44,7.26,93.01,47.82,112.47,137.19-7.59-2.4-27.91-11.4-54.65-43.48-.68-.81-1.86-.98-2.74-.41l-1.5,1.06.76,1.59c2.2,4.53,53.45,111.45,32.91,147.12-.28.48-.75.81-1.29.89-.29.05-.87.06-1.39-.42-5.92-5.41-16.12-17.76-17.8-39.71-.1-1.23-1.1-2.15-2.33-2.15h-.01c-1.22,0-2.21.93-2.3,2.16-.58,8.45-1.29,17.17-2.14,25.86-.38,4.02-.79,8.04-1.23,12.02-4.04,36.73-10.33,70.88-18.62,81.41-.41.52-.97.54-1.19.52-.1,0-.27-.03-.46-.11-.23-.1-.5-.28-.69-.62-2.48-4.42-5.82-13.22-6.44-29.27-.3-7.47-.01-16.51,1.23-27.41.12-1.1-.65-2.11-1.76-2.27-.09-.01-.19-.02-.28-.02-.98,0-1.85.7-2.02,1.7-1.65,9.46-9.6,50.83-25.27,67.72-4.12,4.43-9.51,4.36-13.18,2.82-3.73-1.57-7.6-5.42-7.31-11.56.27-5.81,1.37-12.48,3.27-19.84.33-1.26-.35-2.56-1.58-3.01-.29-.11-.58-.16-.88-.16-.94,0-1.83.53-2.26,1.42-4.59,9.41-8.97,17-12.75,22.21-.99,1.36-1.93,2.56-2.83,3.58.1.25.19.49.28.74.45,1.15.85,2.29,1.22,3.43.22-.22.43-.44.65-.67.79-.83,1.58-1.75,2.38-2.75,3.26-4.1,6.56-9.45,9.59-14.98-.58,3.48-.94,6.77-1.09,9.84-.32,6.75,3.51,12.81,9.76,15.44,2.07.87,4.2,1.29,6.28,1.29,4.23,0,8.29-1.75,11.38-5.08,9.96-10.74,16.82-30.13,21.08-46.07.05,3.7.23,7.08.52,10.16,1.21,12.99,4.22,20.6,6.53,24.71.78,1.36,2.08,2.31,3.58,2.64.24.05.49.09.74.11,1.79.14,3.53-.62,4.65-2.04,9.52-12.1,15.59-49.44,19.14-80.73.43-3.75.82-7.4,1.16-10.92.59-5.84,1.08-11.29,1.48-16.11,4,14.98,11.81,24.1,16.81,28.66,1.27,1.17,2.98,1.68,4.7,1.42,1.74-.27,3.25-1.31,4.14-2.86,17.79-30.89-13.36-107.9-27.19-138.8,25.33,27.24,44.03,33.84,49.57,35.27,1,.26,2.04-.01,2.79-.73.75-.71,1.07-1.74.86-2.75ZM305.87,351.83c-1.13.73-2.26,1.45-3.38,2.15l2.09,3.45c1.12-.71,2.25-1.43,3.37-2.15l-2.08-3.45Z"/>
</svg>