<svg xmlns="http://www.w3.org/2000/svg" xmlns:xlink="http://www.w3.org/1999/xlink" viewBox="0 0 200 419.19"><defs><radialGradient id="radial-gradient" cx="144.84" cy="149.86" r="19.4" gradientUnits="userSpaceOnUse"><stop offset="0" stop-color="#e68f9e"/><stop offset="0.15" stop-color="#e6909f" stop-opacity="0.98"/><stop offset="0.28" stop-color="#e793a1" stop-opacity="0.94"/><stop offset="0.41" stop-color="#e998a4" stop-opacity="0.86"/><stop offset="0.54" stop-color="#eb9fa9" stop-opacity="0.74"/><stop offset="0.66" stop-color="#eea9ae" stop-opacity="0.6"/><stop offset="0.78" stop-color="#f2b4b6" stop-opacity="0.42"/><stop offset="0.9" stop-color="#f6c1be" stop-opacity="0.21"/><stop offset="1" stop-color="#facfc7" stop-opacity="0"/></radialGradient><radialGradient id="radial-gradient-2" cx="56.53" cy="149.86" r="19.4" xlink:href="#radial-gradient"/></defs><g style="isolation:isolate"><g id="Layer_1" data-name="Layer 1"><path d="M39.27,284.13s0-24,8.59-40.77c2.77-16,5.74-31.9,11.33-40.73s12-11.21,12-11.21v39.32S65,242.68,63.52,248.27c-3.84,21.63-9.29,41.8-9.29,41.8.92,2.46,3.58,10.59,4,12.07s0,4.18-1.15,4.49S54.88,306.3,54,304c-.65-1.74-2.51-4.87-4.16-4.37-1.1.33-1.81,3.43-1.07,5.69,1.52,4.64-.09,8-1.49,7.68C45,312.21,39.27,302.93,39.27,284.13Z" style="fill:#facfc7"/><path d="M165.25,284.13s0-24-8.58-40.77c-2.78-16-5.75-31.9-11.33-40.73s-12-11.21-12-11.21v39.32s6.39,12.69,7.88,18.27c3.85,21.64,9,41.06,9,41.06-.92,2.46-3.58,10.59-4,12.07s0,4.18,1.15,4.49c1,.26,2.21-.33,3.05-2.63.64-1.74,2.51-4.87,4.16-4.37,1.1.33,1.81,3.43,1.07,5.69-1.52,4.64.09,8,1.49,7.68C159.51,312.21,165.25,302.93,165.25,284.13Z" style="fill:#facfc7"/><path d="M58.12,202.16c-4.81,7.59-7.68,20.4-10.15,34,2.77,1.91,5.33,4.17,8.61,5.13a.18.18,0,0,1,.14.19c-.65,5.19,2.4,10.34,1.77,15.53a90.4,90.4,0,0,0-.76,13.66c.13,4.72-3,9.39-3,14.11,0,.29,0,.57,0,.85,2.55-6.57,5.94-21.08,8.73-36.78,1.5-5.58,6.61-18.61,6.61-18.61V190.94S63.7,193.33,58.12,202.16Z" style="fill:#e3bea4;opacity:0.5;mix-blend-mode:multiply"/><path d="M148.39,254.78c-.21-2.88-1.11-5.69-1.19-8.58a12,12,0,0,1,.38-3.16,2.18,2.18,0,0,1,.7-1.27,47,47,0,0,1,7.3-4.59c-2.5-13.82-5.38-26.86-10.24-34.55-5.59-8.83-12-11.21-12-11.21v39.32s6.39,12.69,7.88,18.27c2.67,15,4.49,29.35,7.13,36.26A205.5,205.5,0,0,0,148.39,254.78Z" style="fill:#e3bea4;opacity:0.5;mix-blend-mode:multiply"/><path d="M44.39,229a1.15,1.15,0,0,1-.12-1.31C49.39,218.83,53,208.53,56.56,202,62,192.08,70,190.68,70.25,190.6l1.82-.32v35.94A64.34,64.34,0,0,1,70,240.61a1.13,1.13,0,0,1-1.21.85C65.33,241.08,53.29,239.07,44.39,229Z" style="fill:#90bde6"/><path d="M48.31,225.76s9.17,9.54,21.32,10.87" style="fill:none;stroke:#4b8178;stroke-linecap:round;stroke-linejoin:round;stroke-width:0.513px"/><path d="M67.22,206.91c-2.07,8.7-5.69,17.72-12,24.26a17.49,17.49,0,0,1-4.46,3.44,40.5,40.5,0,0,0,18,6.85,1.13,1.13,0,0,0,1.21-.85,64.34,64.34,0,0,0,2.06-14.39V190.28l-1,.18C69.49,195.87,68.52,201.44,67.22,206.91Z" style="fill:#568bc8;opacity:0.5;mix-blend-mode:multiply"/><path d="M160.13,229a1.13,1.13,0,0,0,.13-1.31c-5.12-8.82-8.77-19.12-12.3-25.63-5.38-9.94-13.45-11.34-13.68-11.42l-1.82-.32v35.94a64.34,64.34,0,0,0,2.06,14.39,1.12,1.12,0,0,0,1.21.85C139.2,241.08,151.23,239.07,160.13,229Z" style="fill:#90bde6"/><path d="M156.21,225.76s-9.16,9.54-21.31,10.87" style="fill:none;stroke:#4b8178;stroke-linecap:round;stroke-linejoin:round;stroke-width:0.513px"/><path d="M154.18,231.66c-3.59-.49-6.34-3.15-8.34-6A49,49,0,0,1,140,213c-1.63-4.89-2.88-9.89-4.06-14.9-.59-2.49-1.14-5-1.75-7.48l-1.7-.3v35.94a64.63,64.63,0,0,0,2,14.39,1.13,1.13,0,0,0,1.22.85,39.75,39.75,0,0,0,21.92-10A9.82,9.82,0,0,1,154.18,231.66Z" style="fill:#568bc8;opacity:0.5;mix-blend-mode:multiply"/><path d="M140,292.75s-.64-10.82-1.79-27.22c-1.06-15-.78-29.75-2-43.62-1.26-14.24-2.81-30.47-2.81-30.47L113.3,188V169.15H91.23V188l-20.07,3.46s-1.54,16.23-2.81,30.47c-1.22,13.87.69,28.37-.37,43.39a231,231,0,0,1-3.42,27.45Z" style="fill:#facfc7"/><path d="M96.3,181.16a87.13,87.13,0,0,0,17-.6V169.15H91.23v11.32A42.91,42.91,0,0,0,96.3,181.16Z" style="fill:#e3bea4;opacity:0.5;mix-blend-mode:multiply"/><path d="M136.69,266.5c-1.06-15,.71-30.72-.52-44.59-1.26-14.24-2.81-30.47-2.81-30.47L113.3,188v-.71c-6.73,3.33-15.78,4.49-22.07.26V188l-20.07,3.46s-1.54,16.23-2.81,30.47c-1.22,13.87,1.49,27.69.44,42.7a170.45,170.45,0,0,1-4.23,28.14H140A204.71,204.71,0,0,1,136.69,266.5Z" style="fill:#e3bea4;opacity:0.5;mix-blend-mode:multiply"/><path d="M104.44,304c3.31,66.06,7.27,90.56,7.27,90.56v10.54h33.93c-1.29-5.36-5.92-7.54-9.28-8.21a78.72,78.72,0,0,1-8.55-2.33C129.47,347.13,140,292.75,140,292.75H64.56s10.5,54.38,12.16,101.79a78.72,78.72,0,0,1-8.55,2.33c-3.36.67-8,2.85-9.28,8.21H92.82V394.54s4-24.5,7.27-90.56Z" style="fill:#facfc7"/><path d="M133.36,265.38c1.09,15.49,7.92,26,7.61,27.41-3.46,42.09-10.92,82.73-11.56,86.36,0,.25,1.59-.29,1.33-.27L109.19,383a.56.56,0,0,1-.61-.5c-3.26-28.73-4.85-77.51-4.85-77.51h-2.94s-1.85,48.53-5.11,77.27a.56.56,0,0,1-.61.49l-19.62-3.11a.54.54,0,0,1-.5-.44c-.63-3.63-7.93-44.3-11.4-86.39-.3-1.45,1.57-11.92,2.65-27.41Z" style="fill:#9595b9"/><polyline points="102.27 269.1 102.27 303.85 97.76 300.52 97.76 269.1" style="fill:none;stroke:#a9533e;stroke-linecap:round;stroke-linejoin:round;stroke-width:0.513px"/><path d="M63.84,296.23a90.5,90.5,0,0,0,17.69,4.33c13.47,1.84,27.35.9,40.75-1,6.16-.89,12.35-2,18.41-3.38.1-1.12.19-2.24.28-3.37.31-1.45-6.52-11.92-7.61-27.41H66.2c-1.08,15.49-3,26-2.65,27.41C63.65,294,63.75,295.09,63.84,296.23Z" style="fill:#76769f;opacity:0.5;mix-blend-mode:multiply"/><path d="M99,338.75c-.61,5.51-1,11.09-2.37,16.48a39.28,39.28,0,0,1-7.17,14.43,32.6,32.6,0,0,1-5.68,5.76A26.77,26.77,0,0,1,76.67,379l-.5.2,18.88,3.29a.57.57,0,0,0,.62-.49c2.25-19.84,3.7-43.6,4.14-55.69C99.33,330.55,99.43,334.51,99,338.75Z" style="fill:#76769f;opacity:0.5;mix-blend-mode:multiply"/><path d="M122.67,377.48c-4.61-1.47-6.53-6.39-7.94-10.59-2.08-6.18-3.91-12.47-5.68-18.75-2-6.92-2.76-14-3.83-21.08-.28-1.82-.17-3.21-.48-5-.07-.44-.35-1.66-.42-2.1.27,9,1.68,38.87,4.37,62.55a.56.56,0,0,0,.61.5L129,379.6a.54.54,0,0,0,.5-.45c0-.13,0-.29.08-.47C126.7,379,125.47,378.37,122.67,377.48Z" style="fill:#76769f;opacity:0.5;mix-blend-mode:multiply"/><path d="M144.57,293.08a.5.5,0,0,0,.36-.46c.13-2-5.59-10.82-6.64-25.77-.58-8.3-.58-38.81-1.13-45-1.26-14.24-2.81-30.47-2.81-30.47l-.07-.75-18-3.12a.52.52,0,0,0-.4.09,23.76,23.76,0,0,1-27.15,0,.57.57,0,0,0-.4-.09l-18,3.12-.07.75s-1.55,16.23-2.81,30.47c-.55,6.22-.58,35.27-1.17,43.56-1,14.94-6.73,25.23-6.61,27.24a.52.52,0,0,0,.36.46c2.19.75,15.49,4.88,42.31,4.88S142.38,293.83,144.57,293.08Z" style="fill:#90bde6"/><path d="M120.59,189.24a28.09,28.09,0,0,1-36.65,0" style="fill:none;stroke:#4b8178;stroke-linecap:round;stroke-linejoin:round;stroke-width:0.513px"/><path d="M62.66,287.07c5.41,1.44,18.2,4.07,39.6,4.07s34.19-2.63,39.6-4.07" style="fill:none;stroke:#4b8178;stroke-linecap:round;stroke-linejoin:round;stroke-width:0.513px"/><path d="M84,377.27l-1.61,2.34.26-2.7c-2.21-.74-8.16-1.05-8.16-1.05l1.4,17.92A76.64,76.64,0,0,1,68,395.9c-2.49.5-8.46,2.37-10,9l-.29,1.22H93.81V394.76c.43-.93,2.32-13.24,2.32-13.24C87.38,377.59,84,377.27,84,377.27Z" style="fill:#ffea87"/><rect x="57.63" y="406.07" width="36.2" height="2.81" style="fill:#f3d0b2"/><polyline points="77.97 381.06 75.06 382.67 78.22 385.27 75.36 387.16 78.22 389.73 75.79 391.77 77.63 395.03 72.39 394.83 72.91 397.96 67.97 395.9 68.95 398.71" style="fill:none;stroke:#f3d0b2;stroke-linecap:round;stroke-linejoin:round;stroke-width:0.513px"/><path d="M80.71,406.07,78,407c-2.2.73-4.42,1.31-6.65,1.88H93.83v-2.81Z" style="fill:#f3d0b2;opacity:0.5;mix-blend-mode:multiply"/><path d="M120.54,377.27l1.61,2.34-.26-2.7c2.21-.74,8.16-1.05,8.16-1.05l-1.4,17.92a76.64,76.64,0,0,0,7.91,2.12c2.49.5,8.46,2.37,10.05,9l.29,1.22H110.72V394.76c-.43-.93-2.32-13.24-2.32-13.24C117.15,377.59,120.54,377.27,120.54,377.27Z" style="fill:#ffea87"/><rect x="110.7" y="406.07" width="36.2" height="2.81" transform="translate(257.6 814.95) rotate(180)" style="fill:#f3d0b2"/><polyline points="126.56 381.06 129.47 382.67 126.31 385.27 129.17 387.16 126.31 389.73 128.74 391.77 126.9 395.03 132.14 394.83 131.62 397.96 136.56 395.9 135.58 398.71" style="fill:none;stroke:#f3d0b2;stroke-linecap:round;stroke-linejoin:round;stroke-width:0.513px"/><path d="M123.82,406.07c.89.31,1.78.63,2.68.93,2.19.73,4.42,1.31,6.65,1.88H110.7v-2.81Z" style="fill:#f3d0b2;opacity:0.5;mix-blend-mode:multiply"/><path d="M162,118.78s3.84-7.79,12.5-6c6,1.22,11.44,11.39,4.11,22.53-5,7.57-13.94,10.61-18.33,6.52Z" style="fill:#facfc7"/><path d="M163.65,138.77c1.43-4.38,2.68-8.83,4.5-13.08,1.25-2.92,2.61-5.81,5-8a27.81,27.81,0,0,1,4.67-3.38,7.72,7.72,0,0,0-3.29-1.61c-8.66-1.75-12.5,6-12.5,6l-1.72,23a6.48,6.48,0,0,0,1.86,1.21C162.69,141.6,163.18,140.19,163.65,138.77Z" style="fill:#e3bea4;opacity:0.5;mix-blend-mode:multiply"/><path d="M165.9,120.84a57.07,57.07,0,0,1,4.47-7.48l.61-.81c-6.16.61-9,6.23-9,6.23L161,133.09A79.27,79.27,0,0,1,165.9,120.84Z" style="fill:#e3bea4;opacity:0.5;mix-blend-mode:multiply"/><path d="M39.43,118.78s-3.84-7.79-12.49-6c-6.05,1.22-11.45,11.39-4.12,22.53,5,7.57,13.94,10.61,18.33,6.52Z" style="fill:#facfc7"/><path d="M25.93,113.82C32.7,117,35.4,125.6,37.11,132.26c.89,3.5,1.61,7.08,2.42,10.62a6.68,6.68,0,0,0,1.62-1.09l-1.72-23s-3.84-7.79-12.49-6a7,7,0,0,0-1.92.72C25.35,113.57,25.66,113.7,25.93,113.82Z" style="fill:#e3bea4;opacity:0.5;mix-blend-mode:multiply"/><path d="M165.46,99.94,164.17,116l-1.47,18.35a45,45,0,0,1-38.07,40.84l-11.14,1.68a83.43,83.43,0,0,1-25.24,0L77.11,175.2A45,45,0,0,1,39,134.36L37.65,117,36.28,99.94A64.87,64.87,0,0,1,97.52,30c1-.06,2.1-.08,3.17-.08s2.24,0,3.36.08c.42,0,.87,0,1.29.08l0,0,.58.35h0a18.61,18.61,0,0,0,2.72,1.34c.91.36,2.45-.39,3.77-.81a3,3,0,0,1-.41-.08.13.13,0,0,0,.12,0l.37.06A64.81,64.81,0,0,1,165.46,99.94Z" style="fill:#facfc7"/><path d="M162.51,134.37l.1-1.2a22.45,22.45,0,1,0-24.46,37.6A44.92,44.92,0,0,0,162.51,134.37Z" style="opacity:0.38;mix-blend-mode:multiply;fill:url(#radial-gradient)"/><path d="M74.3,151.43a22.45,22.45,0,0,0-35.54-18.26l.1,1.2a44.92,44.92,0,0,0,24.36,36.4A22.45,22.45,0,0,0,74.3,151.43Z" style="opacity:0.38;mix-blend-mode:multiply;fill:url(#radial-gradient-2)"/><path d="M155.71,101.78c-1.12-3.18-3.08-8.1-3.7-10.56-1.86-7.36-6.47-22-19.83-21.37-9.87,8.54-18.61,13.33-31.31,19.12-15.25,4.79-23,1.23-23,2.09l-12.34-9c-2.2-2-4.37-4-5.24-4.71C63.92,85.52,61.68,95,55,99.23c-8.71,2.35-10.68,1.23-12.15,3.63-.88,2,.37,9.83-1.23,11.39a10,10,0,0,1-4,2.78l-.17.06L36.09,99.94A64.84,64.84,0,0,1,97.52,30c1.07-.06,2.17-.08,3.26-.08s3.17.07,4.37.16l.21,0,.58.35h0a18.61,18.61,0,0,0,2.72,1.34c.91.36,2.45-.39,3.77-.81a64.8,64.8,0,0,1,52.8,68.92l-1.3,16.3-.29-.57C160,113.62,157.44,105.52,155.71,101.78Z" style="fill:#e3bea4;opacity:0.5;mix-blend-mode:multiply"/><line x1="96.9" y1="151.16" x2="102.33" y2="149.71" style="fill:none;stroke:#cda58c;stroke-linecap:round;stroke-linejoin:round;stroke-width:2px"/><path d="M37.07,113.55v.07l0,0A.05.05,0,0,0,37.07,113.55Z" style="fill:#265c5b;opacity:0.30000000000000004;mix-blend-mode:multiply"/><path d="M51.31,44.23a17.11,17.11,0,0,1,1.42-6.8C53.58,35.82,59,21.57,78,18.25c1.48-.27,3.45-.52,5.4-.71a26.43,26.43,0,0,0-11.62-.72c-42.14,7.77-52.93,33.3-58.5,60A7.41,7.41,0,0,0,13.31,80c1.23,5.25,2.72,7.44,4.31,9,1.76,1.66,3.65,2.46,5.49,5.58,2.2,3.75.6,13.23,4.77,15.82a4.48,4.48,0,0,0,2.55.68c7.57,0,8.4,8.51,8.4,8.51,6.66-10.5-1.35-18.19,3.07-19.42C45,99,56.15,96.35,57.52,89.19l.33-.91c2.18-4.35-1.12-16-1.47-16.73.1.08.18.18.26.25a21.31,21.31,0,0,1-1-2.16c-.7-1.89-1.33-3.84-1.87-5.79a80.52,80.52,0,0,1-1.9-9" style="fill:#844e29;stroke:#b5754a;stroke-miterlimit:10;stroke-width:0.75px"/><path d="M81.84,87.37A16.32,16.32,0,0,1,76.33,87a18.77,18.77,0,0,1-5.54-2.39l-.15-.1a36.14,36.14,0,0,0,5.89,2A32.64,32.64,0,0,0,81.84,87.37Z" style="fill:#aa6c3f"/><path d="M113.07,30.84c-.18,0-.33.1-.52.16l-.08,0a3,3,0,0,1-.41-.08.13.13,0,0,0,.12,0C112.47,30.92,112.76,30.88,113.07,30.84Z" style="fill:#aa6c3f"/><path d="M185.28,88.14a6.19,6.19,0,0,0,0-1.72A2.43,2.43,0,0,1,185.28,88.14Z" style="fill:#aa6c3f"/><path d="M95.8,79.53h0C96.19,79.53,94.85,80.07,95.8,79.53Z" style="fill:#aa6c3f"/><path d="M66,86.27c0,.27-.06.52-.1.75,0,0,0,0,0,0C65.94,86.77,66,86.52,66,86.27Z" style="fill:#aa6c3f"/><ellipse cx="132.18" cy="95.71" rx="1.83" ry="9.35" transform="translate(21.27 215.42) rotate(-83.1)" style="fill:#b8884b;stroke:#aa6c3f;stroke-miterlimit:10;stroke-width:2px"/><ellipse cx="64.68" cy="95.71" rx="9.35" ry="1.83" transform="translate(-11.04 8.47) rotate(-6.9)" style="fill:#b8884b;stroke:#aa6c3f;stroke-miterlimit:10;stroke-width:2px"/><ellipse cx="67.32" cy="117.93" rx="2.63" ry="6.79" style="fill:#b8884b;stroke:#aa6c3f;stroke-miterlimit:10;stroke-width:2px"/><path d="M70,118a16.81,16.81,0,0,1-.17,2.42c-.39,2.55-1.35,4.37-2.47,4.37s-2.08-1.82-2.46-4.37a15.49,15.49,0,0,1-.17-2.42c0-3.75,1.18-6.79,2.63-6.79S70,114.24,70,118Z" style="fill:#010101"/><path d="M69.78,120.35c-.38,2.55-1.34,4.37-2.46,4.37s-2.08-1.82-2.46-4.37a3.81,3.81,0,0,1,4.92,0Z" style="fill:#facfc7;stroke:#aa6c3f;stroke-miterlimit:10;stroke-width:0.75px"/><ellipse cx="129.71" cy="117.93" rx="2.63" ry="6.79" style="fill:#b8884b;stroke:#aa6c3f;stroke-miterlimit:10;stroke-width:2px"/><path d="M132.41,118a16.81,16.81,0,0,1-.17,2.42c-.39,2.55-1.35,4.37-2.47,4.37s-2.08-1.82-2.46-4.37a15.49,15.49,0,0,1-.17-2.42c0-3.75,1.18-6.79,2.63-6.79S132.41,114.24,132.41,118Z" style="fill:#010101"/><path d="M132.18,120.35c-.39,2.55-1.35,4.37-2.47,4.37s-2.08-1.82-2.46-4.37a4,4,0,0,1,2.46-.9A4,4,0,0,1,132.18,120.35Z" style="fill:#facfc7;stroke:#aa6c3f;stroke-miterlimit:10;stroke-width:0.75px"/><path d="M97.87,107.74s1.2,9.9-1.57,13.17" style="fill:none;stroke:#aa6c3f;stroke-linecap:round;stroke-miterlimit:10;stroke-width:2px"/><path d="M100.19,121.81s-5.24-1.2-6.13,0-.15,4.86,0,6.43" style="fill:none;stroke:#aa6c3f;stroke-linecap:round;stroke-miterlimit:10;stroke-width:2px"/><path d="M85.74,145.65A25.87,25.87,0,0,0,111,143.23" style="fill:none;stroke:#aa6c3f;stroke-linecap:round;stroke-miterlimit:10;stroke-width:2px"/><path d="M100.45,123.09l-4.23-.43A1.12,1.12,0,0,0,95,123.92l.54,4.37Z" style="fill:#eea2a2;opacity:0.4;mix-blend-mode:multiply"/><path d="M176,131.07s-6.78-2.59-9.61,2.59l.61-1.6c1.36-5.92,6.29-10.36,6.29-10.36" style="fill:none;stroke:#cda58c;stroke-linecap:round;stroke-linejoin:round;stroke-width:2px"/><path d="M26.71,131.07s6.78-2.59,9.62,2.59l-.62-1.6c-1.35-5.92-6.28-10.36-6.28-10.36" style="fill:none;stroke:#cda58c;stroke-linecap:round;stroke-linejoin:round;stroke-width:2px"/><path d="M185.73,87c-8.18,17.41-14.48-1.21-21.11,27.87-4.84,2.59-2.09-9.62-6.55-14C150.75,86.63,150.49,58,128.29,68c-20.11,14.77-56.78,32-72.15.46C40.4,39.33,50.51,17.62,90.37,16.06c7.39.3,9.9,11.84,18.78,14.62,22.13-6.26,47.45-18.51,64.82,0,11.18,14.83,1,34.72,2.12,49.71C177.35,83.23,186.85,81.43,185.73,87Z" style="fill:#844e29;stroke:#b5754a;stroke-miterlimit:10;stroke-width:2px"/><path d="M185.28,86.42a4,4,0,0,0-.72-1.23.45.45,0,0,1,.18.07A2,2,0,0,1,185.28,86.42Z" style="fill:#895826"/><path d="M55.23,29.47a45.74,45.74,0,0,0,16.16,14.7,47.62,47.62,0,0,0,28.93,5.39C117.43,47.45,115.91,46,127.24,42c9.08-3.19,14.81-1.26,19.58,5,4.49,5.83,4.37,6.85,15.09,27,2.2,4.13,2.7,4.9,3.61,5.91,5.25,5.71,13.48,6.85,20.28,6.7" style="fill:none;stroke:#b5754a;stroke-miterlimit:10;stroke-width:2px"/><path d="M50.67,55.41c6.22,5.75,16.59,13,30.59,14.37,3.69.36,23.85,2.35,33.49-7.69,1.48-1.56,5.89-6.7,13.19-9.12a15.89,15.89,0,0,1,5.91-1c4.32.17,8.36,2.63,12.45,7.14,11,12.15,7.54,23.12,16.88,33.53a31,31,0,0,0,7.79,6.2" style="fill:none;stroke:#b5754a;stroke-miterlimit:10;stroke-width:2px"/><path d="M75.18,17.9c4.5,6.34,13.38,15.7,27.44,18,14.56,2.4,25.94-4.21,28.93-6.08A42.82,42.82,0,0,0,141,21.77" style="fill:none;stroke:#b5754a;stroke-miterlimit:10;stroke-width:2px"/><path d="M27.88,110.37c5.17-2.82,6.72-5.6,7.11-7.72.32-1.92-.39-3,.5-4.93,1.29-2.91,4-3.55,7.63-5.93s7.53-4.63,8.38-8.38c.4-1.74.06-2.9-2.71-13.81-1-4.09-1.54-6.16-1.23-7.88a11.16,11.16,0,0,1,3.24-5.79" style="fill:none;stroke:#b5754a;stroke-miterlimit:10;stroke-width:2px"/><path d="M17.62,89c8.06-7.66,11.69-14.89,13.43-20.72,1.43-4.83,2.58-12.11,8.74-17.86a25.89,25.89,0,0,1,9.26-5.49" style="fill:none;stroke:#b5754a;stroke-miterlimit:10;stroke-width:2px"/></g></g></svg>