<svg id="Layer_1" data-name="Layer 1" xmlns="http://www.w3.org/2000/svg" xmlns:xlink="http://www.w3.org/1999/xlink" viewBox="0 0 426.92 774.38"><defs><radialGradient id="radial-gradient" cx="371.58" cy="308.44" r="43.61" gradientUnits="userSpaceOnUse"><stop offset="0" stop-color="#eca4af"/><stop offset="0.28" stop-color="#eda7b1"/><stop offset="0.53" stop-color="#efb2b9"/><stop offset="0.76" stop-color="#f4c4c6"/><stop offset="0.99" stop-color="#faddd8"/><stop offset="1" stop-color="#fadfd9"/></radialGradient><radialGradient id="radial-gradient-2" cx="229.31" cy="309.52" r="26.32" xlink:href="#radial-gradient"/></defs><path d="M379.52,385.15c-1.07,7.54,2.11,16.63,7.56,26.1-29.1,5-52.56,3.14-68.45.14a142.68,142.68,0,0,1-25.5-7.19c-.28-.1-.54-.21-.81-.32a76.68,76.68,0,0,1-8.59-3.95c4.73-13.5,10.45-24.81,16.79-31.62.38-.41.77-.81,1.15-1.17,3.69-3.61,7.57-5.69,11.58-5.8a3.05,3.05,0,0,0,.13.4,5,5,0,0,0,.86,1.37c1.79,2.12,6.57,5,19.32,5,7.57,0,12.74-1.68,15.36-5a8.1,8.1,0,0,0,1.66-3.67,7.1,7.1,0,0,0,.13-1.16,8.79,8.79,0,0,0,0-1.29l0-.23h0c4.1.23,29.4,2.11,39.31,13.89a13,13,0,0,0-2.18.74C383.31,373.43,380.52,378.05,379.52,385.15Z" transform="translate(-76.89 -67.51)" style="fill:#b3decf"/><path d="M349.85,358.63a7.53,7.53,0,0,1-1.6,3.95c-2.45,3.1-7.39,4.67-14.69,4.67-15.07,0-18.54-4-19.32-5.69v-4.92q1.86.06,3.78.06a119.32,119.32,0,0,0,31.81-4.23V357A8.36,8.36,0,0,1,349.85,358.63Z" transform="translate(-76.89 -67.51)" style="fill:#fadfd9"/><path d="M404.74,435.54c-54.31,9.38-97.81-1.24-117.09-7.55l-.82-.27c-6.15-2-9.63-3.58-10-3.72a230.15,230.15,0,0,1,6.58-23.25,81.52,81.52,0,0,0,8.68,4l.81.32a144.93,144.93,0,0,0,25.49,7.18,179.47,179.47,0,0,0,33.13,3,210.57,210.57,0,0,0,36-3.18A171.17,171.17,0,0,0,404.74,435.54Z" transform="translate(-76.89 -67.51)" style="fill:#5dc19b"/><path d="M414.37,446.27C368,457.27,333.29,455,311.79,451a147,147,0,0,1-27.63-7.87l-.8-.33a74.19,74.19,0,0,1-9.39-4.51c.79-4.52,1.7-9,2.7-13.44.8.35,4.25,1.82,10,3.72l.81.27a242.25,242.25,0,0,0,74,11.27,254.91,254.91,0,0,0,43.9-3.81C408.34,439.73,411.37,443.08,414.37,446.27Z" transform="translate(-76.89 -67.51)" style="fill:#b3decf"/><path d="M405.42,551.32a20.08,20.08,0,0,0,.88,2.58l-.64.26-.08.06c-.84.63-20.58,15.68-22,20.77-1.77,6.28.18,10.42,5.64,12,2.89.83,3.75,3.43,4.66,6.18s1.78,5.41,4.75,6.06a10.44,10.44,0,0,1,5.13,2.95l1,.88c-16.42,4.14-40.16,6.24-71-.74-61.23-13.88-84.47-30.24-86.9-32,1-4.2,13.66-54.85,21.08-94.44.08-.39.15-.79.23-1.19.91-4.89,1.73-9.59,2.45-14,1.07.53,3.74,1.79,7.85,3.4l.8.31a193.18,193.18,0,0,0,35.84,9.85,218.64,218.64,0,0,0,38.16,3.31,231.34,231.34,0,0,0,73.85-12.21q2.1,18.19,3.3,40.06A505.67,505.67,0,0,1,405.48,551l-.11.16Z" transform="translate(-76.89 -67.51)" style="fill:#b3decf"/><path d="M414.66,595.36l-1-.83A8,8,0,0,1,414.66,595.36Z" transform="translate(-76.89 -67.51)" style="fill:#b3decf"/><path d="M424.13,592.68c-.45,1.22-2.63,1.91-3.45,2.08-3.16.37-4.73.18-5.51-.11h0a7.11,7.11,0,0,0-.75-.67s0,0,0,0c-.25-.18-.52-.38-.81-.55l-.18-.12.25-.16c.54-.36,1.28-.88,2.16-1.54l0,0,.11-.1.21-.14a9.52,9.52,0,0,1,4.77-1.8,3.2,3.2,0,0,1,2.62,1.23A2.1,2.1,0,0,1,424.13,592.68Z" transform="translate(-76.89 -67.51)" style="fill:#b3decf"/><path d="M432,574.93q0,8.16-.13,16.65a51.42,51.42,0,0,1-6.85,4,12.36,12.36,0,0,0-4,.54,14.8,14.8,0,0,0-2-.39c.52,0,1.09-.09,1.69-.16h0c.13,0,3.38-.71,4.08-2.63a2.79,2.79,0,0,0-.67-2.75c-1.39-1.78-3.49-1.8-5.39-1.2,3.76-3.54,7.95-8.91,8.32-15.54,0-.19,0-.38,0-.57C429.55,574,431.33,574.69,432,574.93Z" transform="translate(-76.89 -67.51)" style="fill:#b3decf"/><path d="M427,464.4c-46.2,15.57-86.25,13.45-111.73,8.93a194.12,194.12,0,0,1-35.82-9.84l-.82-.32c-4.36-1.72-7.07-3-7.89-3.44.52-3.28,1-6.39,1.36-9.29.48-3.74,1.06-7.5,1.7-11.25a81.28,81.28,0,0,0,9.34,4.45l.8.32a148.07,148.07,0,0,0,27.62,7.86,204.87,204.87,0,0,0,37.86,3.35A282.07,282.07,0,0,0,415.05,447c3.88,4.11,7.69,7.95,11.23,11.38C426.54,460.35,426.78,462.36,427,464.4Z" transform="translate(-76.89 -67.51)" style="fill:#5dc19b"/><path d="M350.66,356.76l0,.23v-.23Z" transform="translate(-76.89 -67.51)" style="fill:#bf7c43"/><path d="M495.76,487.42c-7.49,18-24.48,47.56-62.88,86.18l-.54.54A2.74,2.74,0,0,1,432,574a51.49,51.49,0,0,1-4.79-2l-.86-.41c-6.11-3-15.07-8.68-18.94-17.2-.12-.26-.23-.53-.33-.79a19.26,19.26,0,0,1-.8-2.32c1.15-1.84,11.8-18.84,24.21-44.18.27-.56.55-1.12.82-1.69,6-12.31,12.32-26.51,18.18-41.83l-.79-.31c-1.39,3.63-2.81,7.18-4.23,10.68-1.45-1.24-8.44-7.33-17.32-16l-1.09-1.07c-3.16-3.1-6.53-6.52-9.95-10.15l-.68-.72c-3-3.17-6-6.5-8.95-9.92l-.65-.75a177.56,177.56,0,0,1-17.32-23.48l-.47-.79c-5.5-9.43-8.74-18.44-7.7-25.8,1-6.79,3.59-11.19,7.82-13.1a11.38,11.38,0,0,1,2.44-.78,7.89,7.89,0,0,1,1-.18c11-1.59,26.9,8.87,33.27,13.07.83.54,1.51,1,2,1.29,6.84,4.24,57.75,43.14,76,71.65C503,458.31,503.53,468.78,495.76,487.42Z" transform="translate(-76.89 -67.51)" style="fill:#5dc19b"/><path d="M300.36,367.36c-13.83,14.49-24.74,49.57-29.09,83-.95,7.24-2.39,15.81-4.1,25L226.78,503c-3.15-.86-46-13.51-88.92-77l-.05-.06c.28-.26.72-.67,1.3-1.25h0c3.76-3.74,14.66-13.07,12.75-20.76h0c6.35,2.21,26.64,10.83,85.65,44.42l.43-.74-6.52-3.7C275.87,373.92,296.15,367.81,300.36,367.36Z" transform="translate(-76.89 -67.51)" style="fill:#5dc19b"/><path d="M416,591.46l-.11.1.32-.24Z" transform="translate(-76.89 -67.51)" style="fill:#bf7c43"/><path d="M416,591.46l-.11.1.32-.24Zm-2.27,3.07,1,.83A8,8,0,0,0,413.71,594.53Zm2.27-3.07-.11.1.32-.24Z" transform="translate(-76.89 -67.51)" style="fill:#bf7c43"/><path d="M424.13,592.68c-.45,1.22-2.63,1.91-3.45,2.08-3.16.37-4.73.18-5.51-.11h0a7.11,7.11,0,0,0-.75-.67s0,0,0,0c-.25-.18-.52-.38-.81-.55l-.18-.12.25-.16c.54-.36,1.28-.88,2.16-1.54l0,0,.32-.24a9.52,9.52,0,0,1,4.77-1.8,3.2,3.2,0,0,1,2.62,1.23A2.1,2.1,0,0,1,424.13,592.68Z" transform="translate(-76.89 -67.51)" style="fill:#fadfd9"/><path d="M111.62,391.13l-.12-.05.22.11Z" transform="translate(-76.89 -67.51)" style="fill:#bf7c43"/><path d="M503.74,457v-.1l-.06-.09c-18.32-28.62-69.5-67.74-76.37-72-.48-.3-1.15-.74-2-1.28-6.54-4.31-23-15.14-34.39-13.11-10-12.42-36.21-14.32-40.25-14.54v-3.67a115.36,115.36,0,0,0,26.84-11.48c19.47-11.4,29.83-23.72,35.18-34.7l-.37.06.26-.69c.78-2.09,1.43-4.16,2-6.16-4.12,12.26-14.25,27.15-37.46,40.75a114.23,114.23,0,0,1-26.42,11.33l-.86.24a119.94,119.94,0,0,1-35.59,4.2l-.86,0a132.67,132.67,0,0,1-19.54-2.18c-24.62-4.6-44.42-15-53.89-22.54-13.5-10.72-12.48-23.44-10.63-46.52,1.24-15.5,2.94-36.72.6-65.21-2-24.47,6.66-41.24,17.26-52.43l-.52-.69c-10.8,11.34-19.63,28.34-17.59,53.18a344.06,344.06,0,0,1,.73,45.51c.18.22.34.45.5.66l-.5-.54c-.36,7.31-.88,13.76-1.33,19.45-1.87,23.38-2.91,36.26,10.95,47.26,9.55,7.58,29.49,18.08,54.27,22.71a134.61,134.61,0,0,0,19.69,2.19v3.87c-4.21.07-8.29,2.22-12.15,6-1.93-.23-21.44-.33-70.55,77.11-54.24-30.64-73-38.48-78.86-40.48-.07-1.16-.19-2.36-.39-3.63-2.4-15.73-18.29-28.76-25.78-31.05-1.54-.47-2.58-.41-3.11.16-2,2.13,2.15,7.87,5.93,12.3a5.53,5.53,0,0,1,1.3,3.95c-.07,1.23-.09,2.39-.08,3.49-1.09-.71-26.78-17.31-43.43-15.22a.92.92,0,0,0-.72.56.89.89,0,0,0,.1.9c1.08,1.47,5.5,5.43,22.88,15.64-8-1.74-26.65-3-31-.13a1.2,1.2,0,0,0-.65,1.25c.53,2.82,15.41,6.9,25.06,9.27-8.56-.86-21.55-1.74-23.71.63a1.36,1.36,0,0,0-.34,1.24c.59,2.55,8.13,4.06,15.7,5-6.37.88-11.3,2.79-11.81,4.38a1.81,1.81,0,0,0,.21,1.86c.73.81,2.24.52,2.4.49,13-2.26,27,3.68,29.44,5.8s9.46,5.65,18.45,6.65a14.58,14.58,0,0,0,1.49.07,15,15,0,0,0,3.18-.35c44.61,66.1,89.35,77.5,89.79,77.61l.19,0,40-27.46c-7.72,40.91-20.82,93.16-21,93.81l-.07.27.21.17a78.11,78.11,0,0,0,10.49,6.34h0c.28.42,7.47,12.21-10.64,91C227.39,748.81,225,840.54,225,841.45l0,.44h74.15l.05-.38c.11-.89,10.54-87.8,21.87-121.55-.09-.6-.2-1.2-.29-1.8C309.59,749.75,299.15,834.62,298.37,841H225.86c.2-7,3-95,20.93-172.76,15.65-68,12.61-86.24,11-90.54,12.6,6.49,36.34,16.46,75.73,25.39a175.76,175.76,0,0,0,38.91,4.58,132.34,132.34,0,0,0,33.11-4,9.88,9.88,0,0,0,5.42,1.84c.32,0,.66,0,1,0a26.5,26.5,0,0,0,5.27-.61c-1.39,7.5-3.23,23.16-3.75,54.49-.41,24.09-4.12,59.28-7.72,93.31-4,37.8-7.78,73.54-6.29,88.28H339.79c-.77-5.58-9.83-71.25-18.15-122.79-.2.55-.39,1.13-.59,1.71,8.55,53.22,17.81,120.56,17.94,121.56l.05.37h61.45l-.05-.47c-1.62-14.34,2.19-50.41,6.23-88.58,3.6-34,7.32-69.24,7.72-93.37.53-31.74,2.46-47.43,3.83-54.73h0c5.44-1.32,10.73-4,11.23-6.19l0-.11,0-.11a4.15,4.15,0,0,0-3-2.49,49,49,0,0,0,6.1-3.7l.16-.12v-.21q.12-8.74.14-17c39-39.07,56.16-69,63.71-87.17C504.82,467.85,503.78,457.46,503.74,457ZM314.24,356.64q1.86.06,3.78.06a119.32,119.32,0,0,0,31.81-4.23V357a8.36,8.36,0,0,1,0,1.62,7.53,7.53,0,0,1-1.6,3.95c-2.45,3.1-7.39,4.67-14.69,4.67-15.07,0-18.54-4-19.32-5.69Zm-12.57,10.5c3.69-3.61,7.57-5.69,11.58-5.8a3.05,3.05,0,0,0,.13.4,5,5,0,0,0,.86,1.37c1.79,2.12,6.57,5,19.32,5,7.57,0,12.74-1.68,15.36-5a8.1,8.1,0,0,0,1.66-3.67,7.1,7.1,0,0,0,.13-1.16,8.79,8.79,0,0,0,0-1.29l0-.23h0c4.1.23,29.4,2.11,39.31,13.89a13,13,0,0,0-2.18.74c-4.51,2-7.3,6.66-8.3,13.76-1.07,7.54,2.11,16.63,7.56,26.1-29.1,5-52.56,3.14-68.45.14a142.68,142.68,0,0,1-25.5-7.19c-.28-.1-.54-.21-.81-.32a76.68,76.68,0,0,1-8.59-3.95c4.73-13.5,10.45-24.81,16.79-31.62C300.9,367.9,301.29,367.5,301.67,367.14ZM311.79,451a147,147,0,0,1-27.63-7.87l-.8-.33a74.19,74.19,0,0,1-9.39-4.51c.79-4.52,1.7-9,2.7-13.44.8.35,4.25,1.82,10,3.72l.81.27a242.25,242.25,0,0,0,74,11.27,254.91,254.91,0,0,0,43.9-3.81c3,3.44,6,6.79,9,10C368,457.27,333.29,455,311.79,451Zm103.26-4c3.88,4.11,7.69,7.95,11.23,11.38.26,2,.5,4,.74,6-46.2,15.57-86.25,13.45-111.73,8.93a194.12,194.12,0,0,1-35.82-9.84l-.82-.32c-4.36-1.72-7.07-3-7.89-3.44.52-3.28,1-6.39,1.36-9.29.48-3.74,1.06-7.5,1.7-11.25a81.28,81.28,0,0,0,9.34,4.45l.8.32a148.07,148.07,0,0,0,27.62,7.86,204.87,204.87,0,0,0,37.86,3.35A282.07,282.07,0,0,0,415.05,447Zm-127.4-19-.82-.27c-6.15-2-9.63-3.58-10-3.72a230.15,230.15,0,0,1,6.58-23.25,81.52,81.52,0,0,0,8.68,4l.81.32a144.93,144.93,0,0,0,25.49,7.18,179.47,179.47,0,0,0,33.13,3,210.57,210.57,0,0,0,36-3.18,171.17,171.17,0,0,0,17.2,23.5C350.43,444.92,306.93,434.3,287.65,428ZM77.74,391.16s0-.17.28-.38c4.77-3.16,30.44-.6,33.26,1.11a23,23,0,0,0-2.48,9.44C96.8,398.63,78.2,393.6,77.74,391.16Zm1,11.12a.48.48,0,0,1,.14-.49c2.3-2.52,21.9-.59,29.86.44a41.43,41.43,0,0,0,.06,5.37A44.39,44.39,0,0,0,98,407h0C88.53,406.11,79.27,404.54,78.75,402.28Zm58.53,23.08a13.77,13.77,0,0,1-4.88.37c-8.81-1-15.71-4.47-18-6.44-2.52-2.17-16.84-8.29-30.15-6-.31.06-1.27.16-1.61-.22a1.15,1.15,0,0,1,0-1c.41-1.31,7.06-3.7,15.19-4.22h0c5,.45,9.46.64,11.08.7.1,1,.23,1.88.38,2.68.65-3.74.9-7.47,1.39-11.21s.79-7.48,2.75-10.66a8.12,8.12,0,0,0-1.69,1.85l-.22-.11.12.05c-20.05-11.65-24.42-15.88-25.29-17.08l-.35.25.4-.34c15.77-2,41.34,13.85,43.31,15.1a41.64,41.64,0,0,0,1.37,10.6l.82-.26a46.17,46.17,0,0,1-1.25-14.53,6.43,6.43,0,0,0-1.51-4.54c-4.81-5.65-7.09-9.93-6-11.17.11-.11.57-.43,2.24.08,5.94,1.81,22.67,13.89,25.18,30.36a32.17,32.17,0,0,1,.36,3.21c0,.06,0,.12,0,.18l-.33-.05.22.64c2.33,6.76-6.81,15.7-11.37,19.83l-.38.35c-.83.73-1.47,1.28-1.81,1.6ZM226.78,503c-3.15-.86-46-13.51-88.92-77l-.05-.06c.28-.26.72-.67,1.3-1.25h0c3.76-3.74,14.66-13.07,12.75-20.76h0c6.35,2.21,26.64,10.83,85.65,44.42l.43-.74-6.52-3.7c44.43-70.08,64.71-76.19,68.92-76.64-13.83,14.49-24.74,49.57-29.09,83-.95,7.24-2.39,15.81-4.1,25Zm107,99.26c-61.23-13.88-84.47-30.24-86.9-32,1-4.2,13.66-54.85,21.08-94.44.08-.39.15-.79.23-1.19.91-4.89,1.73-9.59,2.45-14,1.07.53,3.74,1.79,7.85,3.4l.8.31a193.18,193.18,0,0,0,35.84,9.85,218.64,218.64,0,0,0,38.16,3.31,231.34,231.34,0,0,0,73.85-12.21q2.1,18.19,3.3,40.06A505.67,505.67,0,0,1,405.48,551l-.11.16.05.18a20.08,20.08,0,0,0,.88,2.58l-.64.26-.08.06c-.84.63-20.58,15.68-22,20.77-1.77,6.28.18,10.42,5.64,12,2.89.83,3.75,3.43,4.66,6.18s1.78,5.41,4.75,6.06a10.44,10.44,0,0,1,5.13,2.95l1,.88C388.32,607.18,364.58,609.28,333.76,602.3Zm93.6-142.87c8.86,8.56,15.7,14.42,16.78,15.35-4.26,10.37-8.67,20.08-12.9,28.86C430.28,486.66,429,472,427.36,459.43Zm1.23,139.05c-.56,1.73-5.22,4.08-10.19,5.34l-.94.23a23.14,23.14,0,0,1-6.39.63,9.13,9.13,0,0,1-4.37-1.27,8.76,8.76,0,0,1-.92-.63c-.51-.39-1-.81-1.47-1.25a11.23,11.23,0,0,0-5.52-3.16c-2.49-.54-3.28-2.94-4.12-5.49-.9-2.71-1.91-5.78-5.23-6.73-5-1.42-6.7-5.1-5.05-10.93,1.33-4.72,20.62-19.5,21.66-20.29.19-.09.39-.16.59-.24,4,8.94,13.48,14.79,19.72,17.83,0,.31,0,.62,0,.92-.63,11.53-13.84,19.44-14,19.52l-.69.41.72.35a8.1,8.1,0,0,1,1.33.81,8,8,0,0,1,1,.83,6.76,6.76,0,0,1,1.12,1.44l.28.52.41-.41c.66-.67,3.1-.29,4.49.11l.11,0,.12,0a15.25,15.25,0,0,1,1.87-.43h0a8.86,8.86,0,0,1,2.12-.1C427.64,596.68,428.42,598.08,428.59,598.48Zm-13.42-3.83h0a7.11,7.11,0,0,0-.75-.67s0,0,0,0c-.25-.18-.52-.38-.81-.55l-.18-.12.25-.16c.54-.36,1.28-.88,2.16-1.54l0,0,.11-.1.21-.14a9.52,9.52,0,0,1,4.77-1.8,3.2,3.2,0,0,1,2.62,1.23,2.1,2.1,0,0,1,.55,1.93c-.45,1.22-2.63,1.91-3.45,2.08C417.52,595.13,416,594.94,415.17,594.65Zm1.71,1.15a2.32,2.32,0,0,0-.58.2,1.88,1.88,0,0,0-.19-.26C416.35,595.77,416.6,595.79,416.88,595.8Zm15-4.22a51.42,51.42,0,0,1-6.85,4,12.36,12.36,0,0,0-4,.54,14.8,14.8,0,0,0-2-.39c.52,0,1.09-.09,1.69-.16h0c.13,0,3.38-.71,4.08-2.63a2.79,2.79,0,0,0-.67-2.75c-1.39-1.78-3.49-1.8-5.39-1.2,3.76-3.54,7.95-8.91,8.32-15.54,0-.19,0-.38,0-.57,2.35,1.1,4.13,1.77,4.82,2Q432,583.09,431.89,591.58Zm63.87-104.16c-7.49,18-24.48,47.56-62.88,86.18l-.54.54A2.74,2.74,0,0,1,432,574a51.49,51.49,0,0,1-4.79-2l-.86-.41c-6.11-3-15.07-8.68-18.94-17.2-.12-.26-.23-.53-.33-.79a19.26,19.26,0,0,1-.8-2.32c1.15-1.84,11.8-18.84,24.21-44.18.27-.56.55-1.12.82-1.69,6-12.31,12.32-26.51,18.18-41.83l-.79-.31c-1.39,3.63-2.81,7.18-4.23,10.68-1.45-1.24-8.44-7.33-17.32-16l-1.09-1.07c-3.16-3.1-6.53-6.52-9.95-10.15l-.68-.72c-3-3.17-6-6.5-8.95-9.92l-.65-.75a177.56,177.56,0,0,1-17.32-23.48l-.47-.79c-5.5-9.43-8.74-18.44-7.7-25.8,1-6.79,3.59-11.19,7.82-13.1a11.38,11.38,0,0,1,2.44-.78,7.89,7.89,0,0,1,1-.18c11-1.59,26.9,8.87,33.27,13.07.83.54,1.51,1,2,1.29,6.84,4.24,57.75,43.14,76,71.65C503,458.31,503.53,468.78,495.76,487.42Z" transform="translate(-76.89 -67.51)" style="fill:#bf7c43"/><path d="M108.81,407.6A44.39,44.39,0,0,0,98,407h0c-9.43-.87-18.69-2.44-19.21-4.7a.48.48,0,0,1,.14-.49c2.3-2.52,21.9-.59,29.86.44A41.43,41.43,0,0,0,108.81,407.6Z" transform="translate(-76.89 -67.51)" style="fill:#fadfd9"/><path d="M111.28,391.89a23,23,0,0,0-2.48,9.44c-12-2.7-30.6-7.73-31.06-10.17,0,0,0-.17.28-.38C82.79,387.62,108.46,390.18,111.28,391.89Z" transform="translate(-76.89 -67.51)" style="fill:#fadfd9"/><path d="M137.28,425.36h0a13.77,13.77,0,0,1-4.88.37c-8.81-1-15.71-4.47-18-6.44-2.52-2.17-16.84-8.29-30.15-6-.31.06-1.27.16-1.61-.22a1.15,1.15,0,0,1,0-1c.41-1.31,7.06-3.7,15.19-4.22h0c5,.45,9.46.64,11.08.7.1,1,.23,1.88.38,2.68.65-3.74.9-7.47,1.39-11.21s.79-7.48,2.75-10.66a8.12,8.12,0,0,0-1.69,1.85l-.1-.06c-20.05-11.65-24.42-15.88-25.29-17.08l-.35.25.4-.34c15.77-2,41.34,13.85,43.31,15.1a41.64,41.64,0,0,0,1.37,10.6l.82-.26a46.17,46.17,0,0,1-1.25-14.53,6.43,6.43,0,0,0-1.51-4.54c-4.81-5.65-7.09-9.93-6-11.17.11-.11.57-.43,2.24.08,5.94,1.81,22.67,13.89,25.18,30.36a32.17,32.17,0,0,1,.36,3.21c0,.06,0,.12,0,.18h0l.13.63C153.92,411.87,139.43,423.34,137.28,425.36Z" transform="translate(-76.89 -67.51)" style="fill:#fadfd9"/><path d="M151.86,404h0Z" transform="translate(-76.89 -67.51)" style="fill:#bf7c43"/><path d="M321.85,717.65c-.06.2-.14.39-.21.6-.2.55-.39,1.13-.59,1.71-.09-.6-.2-1.2-.29-1.8.1-.27.2-.54.29-.8l.47.17Z" transform="translate(-76.89 -67.51)" style="fill:#bf7c43"/><path d="M417.29,605c-1.39,7.5-3.23,23.16-3.75,54.49-.41,24.09-4.12,59.28-7.72,93.31-4,37.8-7.78,73.54-6.29,88.28H339.79c-.77-5.58-9.83-71.25-18.15-122.79.07-.21.15-.4.21-.6l-.33-.12c-4.06-25.18-7.94-46.89-10.56-56.41,0-.09-1.92-9-12.51-12.54l-.27.81c10.1,3.37,11.92,11.81,11.95,11.92,2.63,9.58,6.54,31.48,10.63,56.85C309.59,749.75,299.15,834.62,298.37,841H225.86c.2-7,3-95,20.93-172.76,15.65-68,12.61-86.24,11-90.54,12.6,6.49,36.34,16.46,75.73,25.39a175.76,175.76,0,0,0,38.91,4.58,132.34,132.34,0,0,0,33.11-4,9.88,9.88,0,0,0,5.42,1.84c.32,0,.66,0,1,0A26.5,26.5,0,0,0,417.29,605Z" transform="translate(-76.89 -67.51)" style="fill:#7a4458"/><path d="M428.59,598.48c-.56,1.73-5.22,4.08-10.19,5.34l-.94.23a23.14,23.14,0,0,1-6.39.63,9.13,9.13,0,0,1-4.37-1.27,8.76,8.76,0,0,1-.92-.63c-.51-.39-1-.81-1.47-1.25a11.23,11.23,0,0,0-5.52-3.16c-2.49-.54-3.28-2.94-4.12-5.49-.9-2.71-1.91-5.78-5.23-6.73-5-1.42-6.7-5.1-5.05-10.93,1.33-4.72,20.62-19.5,21.66-20.29.19-.09.39-.16.59-.24,4,8.94,13.48,14.79,19.72,17.83,0,.31,0,.62,0,.92-.63,11.53-13.84,19.44-14,19.52l-.69.41.72.35a8.1,8.1,0,0,1,1.33.81l1,.83a6.76,6.76,0,0,1,1.12,1.44l.28.52.41-.41c.66-.67,3.1-.29,4.49.11l.11,0,.12,0a15.25,15.25,0,0,1,1.87-.43h0a8.86,8.86,0,0,1,2.12-.1C427.64,596.68,428.42,598.08,428.59,598.48Z" transform="translate(-76.89 -67.51)" style="fill:#fadfd9"/><path d="M321.64,718.25c-.2.55-.39,1.13-.59,1.71-.09-.6-.2-1.2-.29-1.8-4.09-25.37-8-47.27-10.63-56.85,0-.11-1.85-8.55-11.95-11.92l.27-.81C309,652.11,310.94,661,311,661.12c2.62,9.52,6.5,31.23,10.56,56.41Z" transform="translate(-76.89 -67.51)" style="fill:#7a4458"/><path d="M271,149l-.44.21.33.78.46-.21C271.26,149.53,271.14,149.27,271,149ZM229.8,264.88V265l.5.54C230.14,265.33,230,265.1,229.8,264.88Zm17.61-99.48c-.25.26-.49.52-.75.78h0l.52.69c.25-.27.51-.53.76-.79C247.76,165.87,247.58,165.63,247.41,165.4ZM271,149l-.44.21.33.78.46-.21C271.26,149.53,271.14,149.27,271,149ZM417.92,281.94c0-.09,0-.18,0-.27,0-.27,0-.54-.05-.8-.32-.23-.61-.45-.88-.67l0,0v0q.06.58.09,1.17l0,.37a47.64,47.64,0,0,1-2.5,17.56c-.54,2-1.19,4.07-2,6.16l-.26.69.37-.06a55,55,0,0,0,2.67-6.54A48.33,48.33,0,0,0,417.92,281.94ZM271,149l-.44.21.33.78.46-.21C271.26,149.53,271.14,149.27,271,149Zm0,0-.44.21.33.78.46-.21C271.26,149.53,271.14,149.27,271,149Zm0,0-.44.21.33.78.46-.21C271.26,149.53,271.14,149.27,271,149Z" transform="translate(-76.89 -67.51)" style="fill:#bf7c43"/><path d="M417.92,281.94l-.34-.22c-.19-.12-.37-.25-.54-.38q0-.58-.09-1.17h0l0,0c.27.22.56.44.88.67,0,.26,0,.53.05.8C417.91,281.76,417.92,281.85,417.92,281.94Z" transform="translate(-76.89 -67.51)" style="fill:#bf7c43"/><path d="M431.13,261.2l-.53.67a4.88,4.88,0,0,0-4.12-1.23c-2.64.6-4.24,3.81-4.26,3.85l-.91,1.87.1-2.09c.44-8.68,8.84-14.89,9.2-15.16l.5.69c-.08.06-7.22,5.35-8.62,12.71a7,7,0,0,1,3.8-2.7A5.68,5.68,0,0,1,431.13,261.2Z" transform="translate(-76.89 -67.51)" style="fill:#bf7c43"/><path d="M320.52,314.07l-.28-.46a13.31,13.31,0,0,0-2.35-2.61,5.78,5.78,0,0,0-4.08-1.38c-44.46,2.11-51.51-2.69-51.58-2.74l-.52.68c.18.14,3.14,2.27,17.91,3.11.63.24,5.91,2.4,8.58,10.33a5.56,5.56,0,0,0,1.65,2.44c.1.1.22.19.33.28a10.71,10.71,0,0,0,4.47,1.85,24.2,24.2,0,0,0,4.66.41c8,0,18-3,20.71-6a4.7,4.7,0,0,0,1.29-3.46A5.81,5.81,0,0,0,320.52,314.07Zm-30.06,8.77a4.76,4.76,0,0,1-1.45-2.12c-2-5.81-5.21-8.65-7.28-9.94,7.58.35,18,.36,32.12-.31a4.93,4.93,0,0,1,3.47,1.18,12.6,12.6,0,0,1,1.78,1.85,4.43,4.43,0,0,1,.34.45c.11.16.2.31.29.47a4.83,4.83,0,0,1,.72,2.13,3.77,3.77,0,0,1-1.07,2.82c-2.77,3.14-16.21,7.05-24.56,5.36a10.56,10.56,0,0,1-3.66-1.37c-.13-.08-.25-.17-.36-.25Z" transform="translate(-76.89 -67.51)" style="fill:#bf7c43"/><path d="M280.3,274l-.33.79c-.12-.05-11.88-4.82-14.15-.21s2.26,12.39,2.3,12.46l-.72.45c-.2-.33-4.9-8.11-2.35-13.29,1.77-3.59,7.88-2.52,11.81-1.37,1.56-6.68-2.2-23.27-2.24-23.44l.84-.19c.15.69,3.86,17,2.22,23.88C279.13,273.55,280.15,274,280.3,274Z" transform="translate(-76.89 -67.51)" style="fill:#bf7c43"/><path d="M373,170.6l-.19.08c-16.58,7.25-35.4,9.89-53.25,6.29-17.54-3.55-34.76-12-47.09-25l-.57-.61c.16.16.33.31.5.46,19.68,18.11,47.57,27.54,74.27,24.78a115.71,115.71,0,0,0,26.15-5.92Z" transform="translate(-76.89 -67.51)" style="fill:#bf7c43"/><path d="M433.18,279.89c-2.93,2.64-5.94,4-9,4a8,8,0,0,1-1-.05,11.9,11.9,0,0,1-5.3-1.87c0-.09,0-.18,0-.27,0-.27,0-.54-.05-.8a11.57,11.57,0,0,0,5.45,2.1c3.12.28,6.25-1,9.3-3.71,5.35-4.82,10.06-16.33,8.69-27.24a23.85,23.85,0,0,0-12.88-18.89,8.65,8.65,0,0,0-10.3,1.59c-3.21,3.41-7.23,10.49-8.25,24.93,0,.07,0,.15,0,.21l-.7.31a10,10,0,0,0-1.26-1.09c-.28-.75-.62-1.56-1-2.43-2.66-5.85-7.88-14.45-13.75-24.11S380.57,211.85,374.87,201c-7.2-13.66-5.25-23.92-2.11-30.35l.19-.08-.18.06a24.73,24.73,0,0,1,5.81-7.81l.53.67c-.16.12-16,13.28-3.49,37.11,5.69,10.8,12.36,21.78,18.24,31.46,5.55,9.13,10.51,17.32,13.31,23.17.21.45.42.89.6,1.31.31.69.59,1.34.82,1.94l.48.39c1.11-14.22,5.18-21.31,8.42-24.76a9.49,9.49,0,0,1,11.32-1.77,24.72,24.72,0,0,1,13.34,19.55C443.61,263.52,438.61,275,433.18,279.89Z" transform="translate(-76.89 -67.51)" style="fill:#bf7c43"/><path d="M373,170.6l-.19.08a0,0,0,0,1,0,0Z" transform="translate(-76.89 -67.51)" style="fill:#bf7c43"/><path d="M492.72,217.5c-.84,2.49-1.82,3.79-2.91,3.87-3.76.3-6.17-6.36-7.47-11.71,1.55,36.25-9.71,57.94-19.77,69.92-11.56,13.78-24.1,18.07-24.23,18.12l-.93.3.41-.89c1.4-3.1,2-7.91,2.31-10.57A42.42,42.42,0,0,1,413.07,306l-.36.06-.37.06.26-.69c.78-2.09,1.43-4.16,2-6.16a47.64,47.64,0,0,0,2.5-17.56l0-.37q0-.58-.09-1.17v0l0,0,.6,1.52.32.84a73.32,73.32,0,0,1-2.52,17c-.47,1.78-1,3.63-1.72,5.49a41.64,41.64,0,0,0,26.68-20.58l.91-1.7-.11,1.92c0,.32-.41,7.23-2.16,11.88,3.06-1.24,13.35-6.06,23-17.54,10.53-12.58,22.39-36,19.1-75.91l.86-.09c.66,5,3.37,17.85,7.83,17.53.25,0,1.15-.32,2.16-3.29,3.71-11,4.68-50.46-23.09-78.47-2.14-1.95-3.67-3.46-3.85-3.65l.58-.61c1.31,1.16,2.58,2.36,3.78,3.57,4.24,3.85,10.89,9.44,13.87,9.44h.06a1.11,1.11,0,0,0,.83-.33c.6-.67.61-2.53,0-5-2.05-8.56-11.45-24.45-27.94-30.69l-.29-.1v-.31c0-.23.5-23.13-17.62-36.81A1.71,1.71,0,0,0,437,75c-.93,1.28-1.68,5.24,3.75,17.45l.79,1.8L440,92.94c-.36-.32-37-32-98.88-23-59.82,8.73-82.4,5.79-96.57,1.76-1.89.1-2.92.77-3.14,2-.62,3.59,6,11.54,8.85,13.08l.3.15-.32.79a4.73,4.73,0,0,1-1-.58c-3.39-2.33-9.33-9.78-8.66-13.58.2-1.18,1.06-2.61,4-2.75h.14c14.07,4,36.52,7,96.28-1.75,55.62-8.11,91,16.44,98.2,22-3.72-8.72-4.71-14.35-2.94-16.72a2.47,2.47,0,0,1,2.19-1h.11l.09.07C456.1,86.58,456.74,108,456.75,110.8c16.75,6.46,26,22.16,28.19,31.18.68,2.82.6,4.88-.23,5.78a1.93,1.93,0,0,1-1.43.6h-.07c-2.11,0-5.7-2.37-9.14-5.1C497.35,171,496.25,207,492.72,217.5Z" transform="translate(-76.89 -67.51)" style="fill:#bf7c43"/><path d="M188.2,136.73c-1.66,2.17-4,5.79-5.24,7.28a.62.62,0,0,0,.24.14,3.1,3.1,0,0,0,.77.12c4.28-.12,8.37-1.85,12.4-3.22,4.12-1.53,9.8-3.83,14.22-5.7l1.6-.68-1.75.81c-2.28,1-5.25,2.35-7,3.13-2.26,1-4.54,2-6.85,3-2.14.81-14.56,6.19-14.62,2.2,1.76-2.59,3.49-5.2,5.29-7.78,1.32-1.74,3.58-4.81,4.87-6.52a144.17,144.17,0,0,1,31.29-29.36,115,115,0,0,1,25.86-12.93l1-.36c18.47-6.26,38.56-7.74,57.49-2.81-36.44-7.81-75.09,6.23-101.31,31.95-2,1.8-4.62,4.59-6.46,6.57-.81.82-2.35,2.54-3.08,3.43-.52.62-3.27,3.82-3.75,4.38s-1.65,2.11-2.13,2.72Z" transform="translate(-76.89 -67.51)" style="fill:#bf7c43"/><path d="M192.92,217.72c-.55-2-1.06-4.07-1.53-6.1-5.61-23.77-3.26-49.46,13.48-68.34C221.07,125,245,115.2,268.64,111c-23.61,3.45-43.71,11.73-58,24.39l-.15.13C189.51,154,180.92,182,191.72,217.84c.21.74.6,2,.81,2.75a.59.59,0,0,0,1.14,0c.31-5,2.35-9.9,4.5-14.48a95.89,95.89,0,0,1,5.08-9.13c.53-.85,1.07-1.7,1.64-2.54,2-3,4.11-6,6.27-8.88-7.61,9.47-15.11,19.7-18.14,31.66C193,217.41,193,217.56,192.92,217.72Zm.72,2.58,0-.05v-.05A.11.11,0,0,1,193.64,220.3Z" transform="translate(-76.89 -67.51)" style="fill:#bf7c43"/><path d="M230.3,265.54l-.5-.54c-4.48-4.8-10.48-10.93-14.13-16.23-7.52-11-13.93-23.48-14.55-37-.14-4.76.22-10.18,2.13-14.73a16.55,16.55,0,0,1,3-4.83,19.79,19.79,0,0,0-1.37,2.29c-5.95,11.31-1.8,26.14,3,37.28,5.13,11.5,14.27,23,21.9,33.13C230,265.1,230.14,265.33,230.3,265.54Z" transform="translate(-76.89 -67.51)" style="fill:#bf7c43"/><path d="M441.3,252a23.85,23.85,0,0,0-12.88-18.89,8.65,8.65,0,0,0-10.3,1.59c-3.21,3.41-7.23,10.49-8.25,24.93,0,.07,0,.15,0,.21l-.7.31a10,10,0,0,0-1.26-1.09c-.28-.75-.62-1.56-1-2.43-2.66-5.85-7.88-14.45-13.75-24.11S380.57,211.85,374.87,201c-7.2-13.66-5.25-23.92-2.11-30.35-16.58,7.25-35.4,9.89-53.25,6.29-17.54-3.55-34.76-12-47.09-25a121.08,121.08,0,0,0,20,28.4,152.19,152.19,0,0,0,24.77,21.48,1.12,1.12,0,0,1-.33,2c-.08,0-1.82.29-2,.32-.95.15-2.33.41-3.27.45-22.56,2.37-41.86-13.07-56.46-28.48a103.81,103.81,0,0,1-8-9.24c-10.6,11.19-19.26,28-17.26,52.43a347.74,347.74,0,0,1,.44,50.89c-.32,5.24-.7,10-1,14.32-1.85,23.08-2.87,35.8,10.63,46.52a81,81,0,0,0,9.67,6.46,142.47,142.47,0,0,0,44.22,16.08,132.67,132.67,0,0,0,19.54,2.18l.86,0a119.94,119.94,0,0,0,35.59-4.2l.86-.24c1.26-.36,2.53-.75,3.81-1.16h0A114.38,114.38,0,0,0,377.11,340c23.21-13.6,33.34-28.49,37.46-40.75A49,49,0,0,0,417,287.81h0a45.36,45.36,0,0,0,.11-6.09l0-.37q0-.58-.09-1.17v0l0,0c.27.22.56.44.88.67a11.57,11.57,0,0,0,5.45,2.1c3.12.28,6.25-1,9.3-3.71C438,274.44,442.67,262.93,441.3,252Zm-176.25,22.2c1.77-3.59,7.88-2.52,11.81-1.37,1.56-6.68-2.2-23.27-2.24-23.44l.84-.19c.15.69,3.86,17,2.22,23.88,1.45.45,2.47.86,2.62.92l-.33.79c-.12-.05-11.88-4.82-14.15-.21s2.26,12.39,2.3,12.46l-.72.45C267.2,287.18,262.5,279.4,265.05,274.22ZM320,320c-2.7,3.05-12.71,6-20.71,6a24.2,24.2,0,0,1-4.66-.41c-3.5-.71-5.66-2.25-6.45-4.57-2.67-7.93-7.95-10.09-8.58-10.33-14.77-.84-17.73-3-17.91-3.11l.52-.68c.07.05,7.12,4.85,51.58,2.74a5.78,5.78,0,0,1,4.08,1.38c1.48,1.28,3.26,3.27,3.42,5.49A4.7,4.7,0,0,1,320,320ZM430.6,261.87a4.88,4.88,0,0,0-4.12-1.23c-2.64.6-4.24,3.81-4.26,3.85l-.91,1.87.1-2.09c.44-8.68,8.84-14.89,9.2-15.16l.5.69c-.08.06-7.22,5.35-8.62,12.71a7,7,0,0,1,3.8-2.7,5.68,5.68,0,0,1,4.84,1.39Z" transform="translate(-76.89 -67.51)" style="fill:#fadfd9"/><path d="M316.87,203.83c-.08,0-1.82.29-2,.32-.95.15-2.33.41-3.27.45-22.56,2.37-41.86-13.07-56.46-28.48a103.81,103.81,0,0,1-8-9.24l-.52-.69h0a41.19,41.19,0,0,1-6.08-11.5c-2.8-8.23-1.54-18.09,4.52-24.53-5.71,6.62-6.72,16.24-3.73,24.26a40.76,40.76,0,0,0,6,11c.17.23.35.47.53.69a102.88,102.88,0,0,0,8.17,9.13c14.59,14.91,33.3,29.91,55.37,27.75,1-.05,2.54-.31,3.83-.52-15.72-11.21-29.47-25.48-39.25-42.17A106,106,0,0,1,270.92,150l-.33-.78a84.28,84.28,0,0,1-4.28-12.95A90.93,90.93,0,0,0,271,149c.11.26.23.52.35.78.32.67.63,1.34,1,2l.07.15a121.08,121.08,0,0,0,20,28.4,152.19,152.19,0,0,0,24.77,21.48A1.12,1.12,0,0,1,316.87,203.83Z" transform="translate(-76.89 -67.51)" style="fill:#bf7c43"/><path d="M258.81,122a74,74,0,0,0-40.6,21.59c-9.88,10.11-17.3,23.84-22.06,40.82l-.83-.2a91,91,0,0,1,7.4-22.68c10.56-22.63,32.54-38.48,56-40.38Z" transform="translate(-76.89 -67.51)" style="fill:#bf7c43"/><path d="M228.56,167.36c-8.71,10.4-12,23.82-13.91,34.34l-.05.38c-.21,1.57-.61,4.63-.79,5.83-.05.63-.13,1.69-.22,2.79-.1,1.31-.21,2.67-.28,3.47-.1,1.37-.15,3.09-.19,4.76,0,1.29-.08,2.55-.13,3.63s0,2.17,0,3.26c0,1.69,0,3.44,0,5.17l-.85,0c-.26-2.06-.47-4.16-.67-6.19l-.23-2.23a127.27,127.27,0,0,1,.12-14.94c.14-1.38.57-5,.73-6.36,2.67-15.73,7.84-27,15.8-34.53Z" transform="translate(-76.89 -67.51)" style="fill:#bf7c43"/><path d="M262.72,102.21c-1.33.16-2.68.29-4,.41-1,.1-2,.19-3.05.31-20.35,2.56-34.63,8-45,17.21l-.61-.59c12.63-14.81,35.44-19.11,52.59-18.19Z" transform="translate(-76.89 -67.51)" style="fill:#bf7c43"/><path d="M377.64,132.87l-1.53.75a38.2,38.2,0,0,1-3.8,1.7c-1.13.49-3,1.16-5.52,2a75.55,75.55,0,0,1-21.25,2.92c-18.69,0-39-6.12-57.35-17.7l.43-.73c18.82,9.78,55.36,24.14,88.68,10.31Z" transform="translate(-76.89 -67.51)" style="fill:#bf7c43"/><path d="M392.85,106.83l-.48.7a84.94,84.94,0,0,0-11.31-6c-23.78-10.09-52.68-11.09-88.33-3l-.22-.83c32.73-10.12,65.26-9.27,89.26,2.34A76,76,0,0,1,392.85,106.83Z" transform="translate(-76.89 -67.51)" style="fill:#bf7c43"/><path d="M420,99.27l-.63.57a90.84,90.84,0,0,0-58.95-26.43v-.86A72,72,0,0,1,420,99.27Z" transform="translate(-76.89 -67.51)" style="fill:#bf7c43"/><path d="M471.28,196.29l-.84-.11c1.73-20.36-5.85-42.61-20.79-61a139.07,139.07,0,0,0-15.29-16l.54-.66a103.7,103.7,0,0,1,16.43,15.27C467.4,152.27,474.86,175.65,471.28,196.29Z" transform="translate(-76.89 -67.51)" style="fill:#bf7c43"/><path d="M442.53,198.36a103.52,103.52,0,0,1-2.81,23.7l-.84-.16a134.48,134.48,0,0,0,1.46-23.51c-.61-25-10.64-47.85-27.51-62.53l.53-.66C431.53,148.57,442.71,172.77,442.53,198.36Z" transform="translate(-76.89 -67.51)" style="fill:#bf7c43"/><path d="M410.46,225.15v2.17l-1.63-2.42a76.87,76.87,0,0,1-4.79-8.24l-.47-.88c-.3-.68-1.1-2.53-1.41-3.22a59.09,59.09,0,0,1-2.7-7c-.21-.59-.4-1.18-.61-1.77a92.88,92.88,0,0,1-3.91-32.19c0-.4.05-.78.07-1.17l0-.18a75.86,75.86,0,0,1,2.1-12.82l.84.17a104.57,104.57,0,0,0-1.05,14.16c0,.51,0,1,0,1.53a107.09,107.09,0,0,0,7.26,38.46,101.84,101.84,0,0,0,6.23,13.34Z" transform="translate(-76.89 -67.51)" style="fill:#bf7c43"/><path d="M468.82,138.76c-2.14-1.95-3.67-3.46-3.85-3.65l.58-.61c1.31,1.16,2.58,2.36,3.78,3.57,4.24,3.85,10.89,9.44,13.87,9.44h.06a1.11,1.11,0,0,0,.83-.33c.6-.67.61-2.53,0-5-2.05-8.56-11.45-24.45-27.94-30.69l-.29-.1v-.31c0-.23.5-23.13-17.62-36.81A1.71,1.71,0,0,0,437,75c-.93,1.28-1.68,5.24,3.75,17.45l.79,1.8L440,92.94c-.36-.32-37-32-98.88-23-59.82,8.73-82.4,5.79-96.57,1.76-1.89.1-2.92.77-3.14,2-.62,3.59,6,11.54,8.85,13.08,18.47-6.26,38.56-7.74,57.49-2.81-36.44-7.81-75.09,6.23-101.31,31.95-2,1.8-4.62,4.59-6.46,6.57-.81.82-2.35,2.54-3.08,3.43-.52.62-3.27,3.82-3.75,4.38s-1.65,2.11-2.13,2.72l-2.85,3.64c-1.66,2.17-4,5.79-5.24,7.28a.62.62,0,0,0,.24.14,3.1,3.1,0,0,0,.77.12c4.28-.12,8.37-1.85,12.4-3.22,4.12-1.53,9.8-3.83,14.22-5.7,14.34-12.66,34.44-20.94,58-24.39C245,115.2,221.07,125,204.87,143.28c-16.74,18.88-19.09,44.57-13.48,68.34.47,2,1,4.08,1.53,6.1,0-.16.06-.31.1-.47,3-12,10.53-22.19,18.14-31.66-2.16,2.9-4.29,5.85-6.27,8.88-5.95,11.31-1.8,26.14,3,37.28,5.13,11.5,14.27,23,21.9,33.13a344.06,344.06,0,0,0-.73-45.51c-2-24.84,6.79-41.84,17.59-53.18h0a41.19,41.19,0,0,1-6.08-11.5c-2.8-8.23-1.54-18.09,4.52-24.53-5.71,6.62-6.72,16.24-3.73,24.26a40.76,40.76,0,0,0,6,11c.17.23.35.47.53.69a102.88,102.88,0,0,0,8.17,9.13c14.59,14.91,33.3,29.91,55.37,27.75,1-.05,2.54-.31,3.83-.52-15.72-11.21-29.47-25.48-39.25-42.17A106,106,0,0,1,270.92,150l-.33-.78a84.28,84.28,0,0,1-4.28-12.95A90.93,90.93,0,0,0,271,149c.11.26.23.52.35.78.32.67.63,1.34,1,2,19.68,18.11,47.57,27.54,74.27,24.78a115.71,115.71,0,0,0,26.15-5.92,24.73,24.73,0,0,1,5.81-7.81l.53.67c-.16.12-16,13.28-3.49,37.11,5.69,10.8,12.36,21.78,18.24,31.46,5.55,9.13,10.51,17.32,13.31,23.17.21.45.42.89.6,1.31.31.69.59,1.34.82,1.94l.48.39c1.11-14.22,5.18-21.31,8.42-24.76a9.49,9.49,0,0,1,11.32-1.77,24.72,24.72,0,0,1,13.34,19.55c1.46,11.6-3.54,23.07-9,28-2.93,2.64-5.94,4-9,4a8,8,0,0,1-1-.05,11.9,11.9,0,0,1-5.3-1.87,48.33,48.33,0,0,1-2.54,17.58c-.47,1.78-1,3.63-1.72,5.49a41.64,41.64,0,0,0,26.68-20.58l.91-1.7-.11,1.92c0,.32-.41,7.23-2.16,11.88,3.06-1.24,13.35-6.06,23-17.54,10.53-12.58,22.39-36,19.1-75.91l.86-.09c.66,5,3.37,17.85,7.83,17.53.25,0,1.15-.32,2.16-3.29C495.62,206.23,496.59,166.77,468.82,138.76Zm-206.15-37c-2.35.3-4.7.46-7,.72-16,2-32.87,6.37-45.19,17.33C222.53,105.64,244.75,100.83,262.67,101.78ZM212.88,214.13c-.17,2.45-.19,5.92-.32,8.41,0,2.81.1,5.61.06,8.44-.35-2.79-.6-5.61-.89-8.42a126.88,126.88,0,0,1,.12-14.85c.13-1.34.56-5,.73-6.35,2.1-12.4,6.28-25.42,15.66-34.27-8.13,9.7-11.8,22.28-14,34.53-.18,1.37-.64,4.91-.84,6.23S213,212.66,212.88,214.13Zm5-70.85c-11,11.3-17.92,25.89-22.16,41a90.87,90.87,0,0,1,7.36-22.58c10.08-21.59,31.64-38.19,55.64-40.13A74.56,74.56,0,0,0,217.9,143.28ZM450,134.87a140.09,140.09,0,0,0-15.34-16.06A102,102,0,0,1,451,134c14.54,16.77,23.72,39.88,19.85,62.19C472.75,174,463.82,151.94,450,134.87Zm-9.21,63.51c-.57-23.42-9.76-47.27-27.66-62.84,19.41,14.28,29.15,39.15,29,62.82a102.84,102.84,0,0,1-2.8,23.6A134.2,134.2,0,0,0,440.77,198.38ZM288.42,122.15c26.91,14,59.91,22.42,89,10.34-1.75.82-3.47,1.77-5.29,2.43-1.51.65-3.91,1.45-5.51,2C340.39,144.6,311,136.39,288.42,122.15ZM292.64,98c28.09-8.69,61.92-10.76,88.94,2.31a74.52,74.52,0,0,1,11,6.85,87.38,87.38,0,0,0-11.36-6.09C353.44,89.3,321.51,91.5,292.64,98Zm127,1.53A90.86,90.86,0,0,0,360.44,73,72,72,0,0,1,419.66,99.54Zm-8.79,127.62-.41-.61-.43-.63c-.28-.42-.55-.84-.84-1.25a87.85,87.85,0,0,1-5.24-9.09c-.29-.65-1.11-2.52-1.41-3.21a84.43,84.43,0,0,1-3.29-8.75,92.15,92.15,0,0,1-3.89-32c0-.45.06-.89.1-1.34a74.89,74.89,0,0,1,2.08-12.74,109.07,109.07,0,0,0-1.05,14.22c0,.51,0,1,0,1.54a108.29,108.29,0,0,0,7.28,38.6A104.33,104.33,0,0,0,410,225.26l.43.8c.14.25.27.51.41.77.32.55.62,1.12.93,1.68Z" transform="translate(-76.89 -67.51)" style="fill:#ca913f"/><path d="M334.47,229.82c-1.1,1.61-22.75-2.57-25.33-8.4a2.19,2.19,0,0,1,1.15-2.87c1.47-.65,4.35-1.11,9.41.87C327.92,222.61,335.92,227.71,334.47,229.82Z" transform="translate(-76.89 -67.51)" style="fill:#cd9644;stroke:#bf7c42;stroke-miterlimit:10"/><path d="M255.33,223.06c0,1.49-.66,4.11-4.39,7.55-6,5.59-13.72,10.23-15.09,8.13-1-1.6,11-18.07,17.3-17.84A2.3,2.3,0,0,1,255.33,223.06Z" transform="translate(-76.89 -67.51)" style="fill:#cd9644;stroke:#bf7c42;stroke-miterlimit:10"/><path d="M318.08,257.49a24.74,24.74,0,0,1-1.65,7.05c-1.44,3.56-3.59,5.8-5.8,5.6-2.46-.23-4.32-3.46-4.92-8a26.82,26.82,0,0,1-.1-5.84c.68-7.3,4-13,7.45-12.65S318.74,250.19,318.08,257.49Z" transform="translate(-76.89 -67.51)" style="stroke:#bf7c42;stroke-miterlimit:10"/><path d="M254.48,267.56c-1,3.84-2.72,6.7-4.73,7.57a3.06,3.06,0,0,1-1.45.28,3.31,3.31,0,0,1-1.79-.66c-1.6-1.15-2.83-3.71-3.43-7a5.92,5.92,0,0,1,11.4-.22Z" transform="translate(-76.89 -67.51)" style="fill:#fff;stroke:#bf7c42;stroke-miterlimit:10"/><path d="M255.23,262.47a27.32,27.32,0,0,1-.75,5.09,5.92,5.92,0,0,0-11.4.22,25.82,25.82,0,0,1-.35-5.94c.37-7.33,3.47-13.12,6.92-12.94S255.6,255.15,255.23,262.47Z" transform="translate(-76.89 -67.51)" style="stroke:#bf7c42;stroke-miterlimit:10"/><path d="M316.43,264.54c-1.44,3.56-3.59,5.8-5.8,5.6-2.46-.23-4.32-3.46-4.92-8a5.92,5.92,0,0,1,10.72,2.36Z" transform="translate(-76.89 -67.51)" style="fill:#fff;stroke:#bf7c42;stroke-miterlimit:10"/><path d="M321.31,316.49A4.7,4.7,0,0,1,320,320c-2.7,3.05-12.71,6-20.71,6a24.2,24.2,0,0,1-4.66-.41,10.71,10.71,0,0,1-4.47-1.85c.2-.21.41-.41.62-.61a36.56,36.56,0,0,1,16.85-8.34,40.27,40.27,0,0,1,11.79-.82l1.08.12A5.81,5.81,0,0,1,321.31,316.49Z" transform="translate(-76.89 -67.51)" style="fill:#dc8374"/><path d="M320.52,314.07l-.28-.46-.76-.08c-.13,0-.25,0-.38,0a4.43,4.43,0,0,1,.34.45,40.27,40.27,0,0,0-11.79.82,36.56,36.56,0,0,0-16.85,8.34l-.34-.27h0l-.57.57,0,0c.1.1.22.19.33.28a10.71,10.71,0,0,0,4.47,1.85,24.2,24.2,0,0,0,4.66.41c8,0,18-3,20.71-6a4.7,4.7,0,0,0,1.29-3.46A5.81,5.81,0,0,0,320.52,314.07Zm-.81,5.59c-2.69,3-12.6,5.89-20.4,5.89a23.38,23.38,0,0,1-4.58-.4,10.9,10.9,0,0,1-3.89-1.49l.25-.24s0,0,.07-.06a36.37,36.37,0,0,1,16.58-8.17,39.31,39.31,0,0,1,11.66-.81l.33,0c.18,0,.35,0,.53.06a5.19,5.19,0,0,1,.62,2A4.28,4.28,0,0,1,319.71,319.66Z" transform="translate(-76.89 -67.51)" style="fill:#bf7c42"/><path d="M417,287.8h0a49,49,0,0,1-2.39,11.46c-4.12,12.26-14.25,27.15-37.46,40.75a114.38,114.38,0,0,1-22.6,10.17h0c-16.72-7-28.31-22.13-28.31-39.72,0-24.18,21.9-43.78,48.92-43.78C392.85,266.69,408.39,275.15,417,287.8Z" transform="translate(-76.89 -67.51)" style="fill:url(#radial-gradient)"/><path d="M260.05,310.47a40.77,40.77,0,0,1-10.43,27A81,81,0,0,1,240,331c-13.5-10.72-12.48-23.44-10.63-46.52.34-4.32.72-9.08,1-14.32C247.82,276.88,260.05,292.4,260.05,310.47Z" transform="translate(-76.89 -67.51)" style="fill:url(#radial-gradient-2)"/></svg>