<svg width="25" height="24" viewBox="0 0 25 24" fill="none" xmlns="http://www.w3.org/2000/svg">
<path fill-rule="evenodd" clip-rule="evenodd" d="M12.5003 0.650392C18.6947 0.646869 23.8607 5.82207 23.8607 12.0044C23.8607 18.1945 18.6952 23.3542 12.5 23.3499L12.5005 22.4928L12.5 23.3499C10.8861 23.3489 9.2701 23.0089 7.78024 22.3278L2.15617 23.3448C1.85259 23.3997 1.54294 23.2873 1.34536 23.0503C1.14778 22.8134 1.09276 22.4886 1.2013 22.1998L2.81095 17.9172C1.72728 16.1395 1.14977 14.0844 1.14976 12.0044C1.14973 5.81904 6.30947 0.652453 12.5 0.650393M22.1464 12.0044C22.1464 6.768 17.7472 2.36158 12.501 2.36468H12.5008C7.25719 2.36631 2.86402 6.76503 2.86405 12.0044C2.86406 13.8952 3.42724 15.7644 4.47756 17.3434C4.6302 17.5729 4.66319 17.8617 4.56623 18.1197L3.33737 21.3891L7.74551 20.592C7.92513 20.5595 8.11042 20.5852 8.27441 20.6653C9.59368 21.3101 11.0458 21.6347 12.5011 21.6357H12.5011C17.75 21.6393 22.1464 17.2463 22.1464 12.0044Z" fill="black"/>
<path d="M13.0783 16.6272C14.4983 17.5389 15.9789 16.8749 17.01 16.1059C17.7222 15.5747 17.6985 14.5502 17.0902 13.9026L15.8907 12.6256C15.4357 13.0806 14.5491 13.3058 13.933 13.1183C12.6088 12.7153 12.053 12.0253 11.6026 11.3237C11.0854 10.5179 11.6695 9.31437 12.1245 8.85938L10.7875 7.63879C10.2239 7.12423 9.36771 7.03741 8.87591 7.62103C7.90285 8.77574 7.29769 10.5288 8.01438 11.6451C9.30095 13.649 11.0743 15.3409 13.0783 16.6272Z" stroke="black" stroke-width="1.5" stroke-linecap="round" stroke-linejoin="round"/>
</svg>
