<svg width="276" height="221" viewBox="0 0 276 221" fill="none" xmlns="http://www.w3.org/2000/svg">
<path d="M56.1 11.5699L65.51 36.9999L51.8 22.0499L0.390015 23.4999L56.1 11.5699Z" fill="#002C44"/>
<path d="M65.22 0C65.22 0 54.78 9.01 56.2 11.87L0.88002 23.21C0.890022 23.21 27.5 4.55 65.22 0Z" fill="#FF7B3A"/>
<path d="M65.93 37.49C66.36 38.3 44.96 35.31 44.96 35.31L52.3 21.75C52.3 21.75 62.14 30.4 65.93 37.49Z" fill="#FBC949"/>
<path d="M52.3 21.75C52.3 21.75 42.24 38.21 47.87 47.77L3.05176e-05 23.42C3.05176e-05 23.42 47.21 20.78 52.3 21.75Z" fill="#F75E28"/>
<path d="M331.59 164.51C330.77 191.84 307.2 216.76 279.92 218.62C252.64 220.48 225.71 198.58 222.44 171.43C221.63 164.68 222.23 157.44 225.97 151.76C229.71 146.08 237.19 142.52 243.58 144.87C250.78 147.51 253.94 156.81 251.53 164.09C249.11 171.37 242.46 176.57 235.31 179.35C220.16 185.24 201.68 181.29 190.27 169.71C177.43 156.67 174.56 137.19 169.71 119.55C159.08 80.8301 141.14 20.8601 82.6097 26.1801" stroke="#FBCD5F" stroke-width="3" stroke-miterlimit="10" stroke-linecap="round" stroke-linejoin="round" stroke-dasharray="8 8"/>
</svg>
